%TF.GenerationSoftware,KiCad,Pcbnew,(5.0.0-rc2-83-gda392728d)*%
%TF.CreationDate,2018-06-05T23:32:54-04:00*%
%TF.ProjectId,I&O_Epander,49264F5F4570616E6465722E6B696361,1.0.2*%
%TF.SameCoordinates,Original*%
%TF.FileFunction,Soldermask,Bot*%
%TF.FilePolarity,Negative*%
%FSLAX46Y46*%
G04 Gerber Fmt 4.6, Leading zero omitted, Abs format (unit mm)*
G04 Created by KiCad (PCBNEW (5.0.0-rc2-83-gda392728d)) date 06/05/18 23:32:54*
%MOMM*%
%LPD*%
G01*
G04 APERTURE LIST*
%ADD10C,0.002540*%
%ADD11C,0.010000*%
%ADD12C,1.221600*%
%ADD13R,1.221600X1.221600*%
%ADD14C,1.501600*%
%ADD15R,1.501600X1.501600*%
%ADD16C,1.300480*%
%ADD17R,1.221740X1.221740*%
%ADD18C,1.511600*%
%ADD19R,1.511600X1.511600*%
%ADD20C,3.361600*%
%ADD21C,3.601600*%
%ADD22R,4.601600X4.601600*%
%ADD23C,3.271600*%
%ADD24C,1.541600*%
%ADD25R,1.541600X1.541600*%
%ADD26R,0.863600X0.863600*%
%ADD27R,8.041600X8.041600*%
%ADD28R,1.631600X1.631600*%
%ADD29C,1.631600*%
%ADD30R,1.209040X1.209040*%
%ADD31C,1.209040*%
G04 APERTURE END LIST*
D10*
%TO.C,G\002A\002A\002A*%
G36*
X218942920Y-137388600D02*
X218925140Y-137378440D01*
X218887040Y-137355580D01*
X218831160Y-137317480D01*
X218765120Y-137274300D01*
X218699080Y-137228580D01*
X218643200Y-137193020D01*
X218605100Y-137167620D01*
X218589860Y-137160000D01*
X218582240Y-137162540D01*
X218549220Y-137177780D01*
X218506040Y-137200640D01*
X218478100Y-137215880D01*
X218437460Y-137233660D01*
X218414600Y-137236200D01*
X218412060Y-137231120D01*
X218396820Y-137200640D01*
X218373960Y-137144760D01*
X218340940Y-137073640D01*
X218305380Y-136987280D01*
X218267280Y-136895840D01*
X218226640Y-136804400D01*
X218191080Y-136715500D01*
X218158060Y-136634220D01*
X218132660Y-136568180D01*
X218114880Y-136525000D01*
X218107260Y-136504680D01*
X218109800Y-136499600D01*
X218130120Y-136479280D01*
X218168220Y-136453880D01*
X218246960Y-136387840D01*
X218325700Y-136291320D01*
X218371420Y-136182100D01*
X218389200Y-136057640D01*
X218373960Y-135943340D01*
X218330780Y-135836660D01*
X218254580Y-135737600D01*
X218160600Y-135663940D01*
X218053920Y-135618220D01*
X217932000Y-135602980D01*
X217817700Y-135615680D01*
X217705940Y-135661400D01*
X217606880Y-135735060D01*
X217563700Y-135783320D01*
X217507820Y-135882380D01*
X217474800Y-135989060D01*
X217472260Y-136017000D01*
X217477340Y-136133840D01*
X217510360Y-136245600D01*
X217573860Y-136344660D01*
X217657680Y-136428480D01*
X217670380Y-136436100D01*
X217708480Y-136466580D01*
X217736420Y-136486900D01*
X217756740Y-136502140D01*
X217606880Y-136862820D01*
X217584020Y-136918700D01*
X217543380Y-137017760D01*
X217507820Y-137101580D01*
X217477340Y-137170160D01*
X217457020Y-137215880D01*
X217449400Y-137233660D01*
X217434160Y-137236200D01*
X217408760Y-137226040D01*
X217357960Y-137203180D01*
X217324940Y-137185400D01*
X217286840Y-137167620D01*
X217269060Y-137160000D01*
X217253820Y-137167620D01*
X217218260Y-137190480D01*
X217164920Y-137226040D01*
X217098880Y-137271760D01*
X217037920Y-137312400D01*
X216982040Y-137350500D01*
X216941400Y-137375900D01*
X216921080Y-137386060D01*
X216918540Y-137386060D01*
X216900760Y-137375900D01*
X216867740Y-137350500D01*
X216819480Y-137304780D01*
X216750900Y-137236200D01*
X216740740Y-137223500D01*
X216682320Y-137167620D01*
X216636600Y-137119360D01*
X216606120Y-137083800D01*
X216593420Y-137068560D01*
X216603580Y-137048240D01*
X216631520Y-137007600D01*
X216667080Y-136949180D01*
X216712800Y-136883140D01*
X216832180Y-136710420D01*
X216766140Y-136547860D01*
X216745820Y-136497060D01*
X216720420Y-136436100D01*
X216702640Y-136392920D01*
X216692480Y-136375140D01*
X216674700Y-136367520D01*
X216631520Y-136357360D01*
X216565480Y-136344660D01*
X216489280Y-136329420D01*
X216415620Y-136316720D01*
X216349580Y-136304020D01*
X216301320Y-136293860D01*
X216278460Y-136291320D01*
X216273380Y-136286240D01*
X216268300Y-136276080D01*
X216265760Y-136253220D01*
X216265760Y-136212580D01*
X216263220Y-136149080D01*
X216263220Y-136057640D01*
X216263220Y-136047480D01*
X216265760Y-135961120D01*
X216265760Y-135890000D01*
X216268300Y-135846820D01*
X216270840Y-135829040D01*
X216293700Y-135823960D01*
X216339420Y-135813800D01*
X216405460Y-135801100D01*
X216484200Y-135785860D01*
X216489280Y-135783320D01*
X216568020Y-135768080D01*
X216636600Y-135755380D01*
X216682320Y-135745220D01*
X216700100Y-135737600D01*
X216705180Y-135732520D01*
X216720420Y-135702040D01*
X216743280Y-135653780D01*
X216771220Y-135592820D01*
X216796620Y-135531860D01*
X216816940Y-135475980D01*
X216832180Y-135432800D01*
X216837260Y-135415020D01*
X216824560Y-135394700D01*
X216799160Y-135354060D01*
X216761060Y-135298180D01*
X216712800Y-135229600D01*
X216710260Y-135224520D01*
X216664540Y-135158480D01*
X216628980Y-135102600D01*
X216603580Y-135061960D01*
X216593420Y-135044180D01*
X216595960Y-135041640D01*
X216608660Y-135023860D01*
X216644220Y-134985760D01*
X216692480Y-134934960D01*
X216750900Y-134874000D01*
X216768680Y-134856220D01*
X216834720Y-134792720D01*
X216880440Y-134752080D01*
X216908380Y-134729220D01*
X216921080Y-134724140D01*
X216941400Y-134736840D01*
X216984580Y-134764780D01*
X217040460Y-134802880D01*
X217109040Y-134848600D01*
X217114120Y-134853680D01*
X217180160Y-134899400D01*
X217236040Y-134934960D01*
X217274140Y-134962900D01*
X217291920Y-134973060D01*
X217294460Y-134973060D01*
X217322400Y-134965440D01*
X217370660Y-134947660D01*
X217429080Y-134924800D01*
X217490040Y-134899400D01*
X217545920Y-134876540D01*
X217589100Y-134858760D01*
X217606880Y-134846060D01*
X217609420Y-134846060D01*
X217614500Y-134820660D01*
X217627200Y-134772400D01*
X217642440Y-134703820D01*
X217657680Y-134620000D01*
X217660220Y-134607300D01*
X217675460Y-134528560D01*
X217688160Y-134462520D01*
X217695780Y-134416800D01*
X217700860Y-134399020D01*
X217713560Y-134396480D01*
X217751660Y-134393940D01*
X217810080Y-134391400D01*
X217881200Y-134391400D01*
X217957400Y-134391400D01*
X218031060Y-134393940D01*
X218092020Y-134393940D01*
X218137740Y-134399020D01*
X218158060Y-134401560D01*
X218158060Y-134404100D01*
X218165680Y-134426960D01*
X218175840Y-134477760D01*
X218188540Y-134546340D01*
X218206320Y-134627620D01*
X218208860Y-134642860D01*
X218224100Y-134721600D01*
X218236800Y-134787640D01*
X218246960Y-134833360D01*
X218252040Y-134851140D01*
X218257120Y-134853680D01*
X218290140Y-134868920D01*
X218343480Y-134889240D01*
X218409520Y-134917180D01*
X218561920Y-134978140D01*
X218749880Y-134851140D01*
X218767660Y-134838440D01*
X218833700Y-134792720D01*
X218889580Y-134754620D01*
X218927680Y-134731760D01*
X218945460Y-134721600D01*
X218965780Y-134739380D01*
X219001340Y-134772400D01*
X219052140Y-134823200D01*
X219110560Y-134881620D01*
X219156280Y-134924800D01*
X219207080Y-134978140D01*
X219240100Y-135013700D01*
X219257880Y-135036560D01*
X219262960Y-135049260D01*
X219262960Y-135059420D01*
X219250260Y-135077200D01*
X219222320Y-135120380D01*
X219184220Y-135176260D01*
X219138500Y-135242300D01*
X219100400Y-135298180D01*
X219059760Y-135361680D01*
X219034360Y-135404860D01*
X219024200Y-135427720D01*
X219026740Y-135437880D01*
X219039440Y-135473440D01*
X219062300Y-135529320D01*
X219090240Y-135595360D01*
X219156280Y-135742680D01*
X219252800Y-135763000D01*
X219311220Y-135773160D01*
X219395040Y-135788400D01*
X219473780Y-135803640D01*
X219595700Y-135829040D01*
X219600780Y-136278620D01*
X219580460Y-136286240D01*
X219562680Y-136291320D01*
X219516960Y-136301480D01*
X219453460Y-136314180D01*
X219374720Y-136329420D01*
X219311220Y-136342120D01*
X219245180Y-136354820D01*
X219196920Y-136362440D01*
X219176600Y-136367520D01*
X219171520Y-136375140D01*
X219153740Y-136405620D01*
X219130880Y-136456420D01*
X219105480Y-136517380D01*
X219077540Y-136580880D01*
X219054680Y-136639300D01*
X219039440Y-136685020D01*
X219031820Y-136707880D01*
X219041980Y-136725660D01*
X219067380Y-136763760D01*
X219102940Y-136819640D01*
X219148660Y-136885680D01*
X219191840Y-136949180D01*
X219229940Y-137007600D01*
X219255340Y-137045700D01*
X219268040Y-137066020D01*
X219262960Y-137078720D01*
X219235020Y-137109200D01*
X219186760Y-137160000D01*
X219113100Y-137233660D01*
X219100400Y-137243820D01*
X219041980Y-137302240D01*
X218993720Y-137347960D01*
X218958160Y-137378440D01*
X218942920Y-137388600D01*
X218942920Y-137388600D01*
G37*
X218942920Y-137388600D02*
X218925140Y-137378440D01*
X218887040Y-137355580D01*
X218831160Y-137317480D01*
X218765120Y-137274300D01*
X218699080Y-137228580D01*
X218643200Y-137193020D01*
X218605100Y-137167620D01*
X218589860Y-137160000D01*
X218582240Y-137162540D01*
X218549220Y-137177780D01*
X218506040Y-137200640D01*
X218478100Y-137215880D01*
X218437460Y-137233660D01*
X218414600Y-137236200D01*
X218412060Y-137231120D01*
X218396820Y-137200640D01*
X218373960Y-137144760D01*
X218340940Y-137073640D01*
X218305380Y-136987280D01*
X218267280Y-136895840D01*
X218226640Y-136804400D01*
X218191080Y-136715500D01*
X218158060Y-136634220D01*
X218132660Y-136568180D01*
X218114880Y-136525000D01*
X218107260Y-136504680D01*
X218109800Y-136499600D01*
X218130120Y-136479280D01*
X218168220Y-136453880D01*
X218246960Y-136387840D01*
X218325700Y-136291320D01*
X218371420Y-136182100D01*
X218389200Y-136057640D01*
X218373960Y-135943340D01*
X218330780Y-135836660D01*
X218254580Y-135737600D01*
X218160600Y-135663940D01*
X218053920Y-135618220D01*
X217932000Y-135602980D01*
X217817700Y-135615680D01*
X217705940Y-135661400D01*
X217606880Y-135735060D01*
X217563700Y-135783320D01*
X217507820Y-135882380D01*
X217474800Y-135989060D01*
X217472260Y-136017000D01*
X217477340Y-136133840D01*
X217510360Y-136245600D01*
X217573860Y-136344660D01*
X217657680Y-136428480D01*
X217670380Y-136436100D01*
X217708480Y-136466580D01*
X217736420Y-136486900D01*
X217756740Y-136502140D01*
X217606880Y-136862820D01*
X217584020Y-136918700D01*
X217543380Y-137017760D01*
X217507820Y-137101580D01*
X217477340Y-137170160D01*
X217457020Y-137215880D01*
X217449400Y-137233660D01*
X217434160Y-137236200D01*
X217408760Y-137226040D01*
X217357960Y-137203180D01*
X217324940Y-137185400D01*
X217286840Y-137167620D01*
X217269060Y-137160000D01*
X217253820Y-137167620D01*
X217218260Y-137190480D01*
X217164920Y-137226040D01*
X217098880Y-137271760D01*
X217037920Y-137312400D01*
X216982040Y-137350500D01*
X216941400Y-137375900D01*
X216921080Y-137386060D01*
X216918540Y-137386060D01*
X216900760Y-137375900D01*
X216867740Y-137350500D01*
X216819480Y-137304780D01*
X216750900Y-137236200D01*
X216740740Y-137223500D01*
X216682320Y-137167620D01*
X216636600Y-137119360D01*
X216606120Y-137083800D01*
X216593420Y-137068560D01*
X216603580Y-137048240D01*
X216631520Y-137007600D01*
X216667080Y-136949180D01*
X216712800Y-136883140D01*
X216832180Y-136710420D01*
X216766140Y-136547860D01*
X216745820Y-136497060D01*
X216720420Y-136436100D01*
X216702640Y-136392920D01*
X216692480Y-136375140D01*
X216674700Y-136367520D01*
X216631520Y-136357360D01*
X216565480Y-136344660D01*
X216489280Y-136329420D01*
X216415620Y-136316720D01*
X216349580Y-136304020D01*
X216301320Y-136293860D01*
X216278460Y-136291320D01*
X216273380Y-136286240D01*
X216268300Y-136276080D01*
X216265760Y-136253220D01*
X216265760Y-136212580D01*
X216263220Y-136149080D01*
X216263220Y-136057640D01*
X216263220Y-136047480D01*
X216265760Y-135961120D01*
X216265760Y-135890000D01*
X216268300Y-135846820D01*
X216270840Y-135829040D01*
X216293700Y-135823960D01*
X216339420Y-135813800D01*
X216405460Y-135801100D01*
X216484200Y-135785860D01*
X216489280Y-135783320D01*
X216568020Y-135768080D01*
X216636600Y-135755380D01*
X216682320Y-135745220D01*
X216700100Y-135737600D01*
X216705180Y-135732520D01*
X216720420Y-135702040D01*
X216743280Y-135653780D01*
X216771220Y-135592820D01*
X216796620Y-135531860D01*
X216816940Y-135475980D01*
X216832180Y-135432800D01*
X216837260Y-135415020D01*
X216824560Y-135394700D01*
X216799160Y-135354060D01*
X216761060Y-135298180D01*
X216712800Y-135229600D01*
X216710260Y-135224520D01*
X216664540Y-135158480D01*
X216628980Y-135102600D01*
X216603580Y-135061960D01*
X216593420Y-135044180D01*
X216595960Y-135041640D01*
X216608660Y-135023860D01*
X216644220Y-134985760D01*
X216692480Y-134934960D01*
X216750900Y-134874000D01*
X216768680Y-134856220D01*
X216834720Y-134792720D01*
X216880440Y-134752080D01*
X216908380Y-134729220D01*
X216921080Y-134724140D01*
X216941400Y-134736840D01*
X216984580Y-134764780D01*
X217040460Y-134802880D01*
X217109040Y-134848600D01*
X217114120Y-134853680D01*
X217180160Y-134899400D01*
X217236040Y-134934960D01*
X217274140Y-134962900D01*
X217291920Y-134973060D01*
X217294460Y-134973060D01*
X217322400Y-134965440D01*
X217370660Y-134947660D01*
X217429080Y-134924800D01*
X217490040Y-134899400D01*
X217545920Y-134876540D01*
X217589100Y-134858760D01*
X217606880Y-134846060D01*
X217609420Y-134846060D01*
X217614500Y-134820660D01*
X217627200Y-134772400D01*
X217642440Y-134703820D01*
X217657680Y-134620000D01*
X217660220Y-134607300D01*
X217675460Y-134528560D01*
X217688160Y-134462520D01*
X217695780Y-134416800D01*
X217700860Y-134399020D01*
X217713560Y-134396480D01*
X217751660Y-134393940D01*
X217810080Y-134391400D01*
X217881200Y-134391400D01*
X217957400Y-134391400D01*
X218031060Y-134393940D01*
X218092020Y-134393940D01*
X218137740Y-134399020D01*
X218158060Y-134401560D01*
X218158060Y-134404100D01*
X218165680Y-134426960D01*
X218175840Y-134477760D01*
X218188540Y-134546340D01*
X218206320Y-134627620D01*
X218208860Y-134642860D01*
X218224100Y-134721600D01*
X218236800Y-134787640D01*
X218246960Y-134833360D01*
X218252040Y-134851140D01*
X218257120Y-134853680D01*
X218290140Y-134868920D01*
X218343480Y-134889240D01*
X218409520Y-134917180D01*
X218561920Y-134978140D01*
X218749880Y-134851140D01*
X218767660Y-134838440D01*
X218833700Y-134792720D01*
X218889580Y-134754620D01*
X218927680Y-134731760D01*
X218945460Y-134721600D01*
X218965780Y-134739380D01*
X219001340Y-134772400D01*
X219052140Y-134823200D01*
X219110560Y-134881620D01*
X219156280Y-134924800D01*
X219207080Y-134978140D01*
X219240100Y-135013700D01*
X219257880Y-135036560D01*
X219262960Y-135049260D01*
X219262960Y-135059420D01*
X219250260Y-135077200D01*
X219222320Y-135120380D01*
X219184220Y-135176260D01*
X219138500Y-135242300D01*
X219100400Y-135298180D01*
X219059760Y-135361680D01*
X219034360Y-135404860D01*
X219024200Y-135427720D01*
X219026740Y-135437880D01*
X219039440Y-135473440D01*
X219062300Y-135529320D01*
X219090240Y-135595360D01*
X219156280Y-135742680D01*
X219252800Y-135763000D01*
X219311220Y-135773160D01*
X219395040Y-135788400D01*
X219473780Y-135803640D01*
X219595700Y-135829040D01*
X219600780Y-136278620D01*
X219580460Y-136286240D01*
X219562680Y-136291320D01*
X219516960Y-136301480D01*
X219453460Y-136314180D01*
X219374720Y-136329420D01*
X219311220Y-136342120D01*
X219245180Y-136354820D01*
X219196920Y-136362440D01*
X219176600Y-136367520D01*
X219171520Y-136375140D01*
X219153740Y-136405620D01*
X219130880Y-136456420D01*
X219105480Y-136517380D01*
X219077540Y-136580880D01*
X219054680Y-136639300D01*
X219039440Y-136685020D01*
X219031820Y-136707880D01*
X219041980Y-136725660D01*
X219067380Y-136763760D01*
X219102940Y-136819640D01*
X219148660Y-136885680D01*
X219191840Y-136949180D01*
X219229940Y-137007600D01*
X219255340Y-137045700D01*
X219268040Y-137066020D01*
X219262960Y-137078720D01*
X219235020Y-137109200D01*
X219186760Y-137160000D01*
X219113100Y-137233660D01*
X219100400Y-137243820D01*
X219041980Y-137302240D01*
X218993720Y-137347960D01*
X218958160Y-137378440D01*
X218942920Y-137388600D01*
D11*
%TO.C,REF\002A\002A*%
G36*
X222842253Y-100736400D02*
X222296941Y-100736400D01*
X222495721Y-100937787D01*
X222825429Y-101300691D01*
X223039849Y-101574815D01*
X223118297Y-101678400D01*
X223212856Y-101798529D01*
X223312950Y-101922202D01*
X223408002Y-102036419D01*
X223487434Y-102128181D01*
X223512532Y-102155760D01*
X223593964Y-102243212D01*
X223524006Y-102334356D01*
X223388564Y-102523604D01*
X223301022Y-102663050D01*
X223246152Y-102745286D01*
X223184876Y-102824612D01*
X223179727Y-102830607D01*
X223110778Y-102913581D01*
X223030253Y-103016137D01*
X222947058Y-103126288D01*
X222870098Y-103232047D01*
X222808281Y-103321425D01*
X222772624Y-103378547D01*
X222737543Y-103431596D01*
X222679014Y-103510062D01*
X222607180Y-103601252D01*
X222532185Y-103692472D01*
X222464172Y-103771032D01*
X222427800Y-103810020D01*
X222403911Y-103836081D01*
X222361637Y-103883406D01*
X222353523Y-103892570D01*
X222291945Y-103962200D01*
X223418400Y-103962200D01*
X223418400Y-103883923D01*
X223435163Y-103807395D01*
X223482393Y-103702149D01*
X223555507Y-103576239D01*
X223649919Y-103437716D01*
X223737458Y-103323533D01*
X223808732Y-103231313D01*
X223874053Y-103140269D01*
X223921223Y-103067535D01*
X223927329Y-103056833D01*
X223967371Y-102990434D01*
X224002658Y-102942284D01*
X224011301Y-102933500D01*
X224045862Y-102894816D01*
X224086085Y-102838250D01*
X224123774Y-102790093D01*
X224154285Y-102768487D01*
X224155586Y-102768400D01*
X224164462Y-102793091D01*
X224171582Y-102864381D01*
X224176736Y-102978092D01*
X224179717Y-103130044D01*
X224180400Y-103264961D01*
X224179716Y-103444263D01*
X224177305Y-103580270D01*
X224172625Y-103680475D01*
X224165137Y-103752369D01*
X224154302Y-103803443D01*
X224139579Y-103841188D01*
X224138756Y-103842811D01*
X224103283Y-103902491D01*
X224071777Y-103940618D01*
X224068906Y-103942761D01*
X224084403Y-103948323D01*
X224143753Y-103953262D01*
X224240014Y-103957312D01*
X224366241Y-103960207D01*
X224515489Y-103961682D01*
X224567206Y-103961811D01*
X225093711Y-103962200D01*
X225064032Y-103892350D01*
X225035859Y-103833758D01*
X225013776Y-103798370D01*
X225009943Y-103769142D01*
X225006343Y-103693781D01*
X225003041Y-103576951D01*
X225000104Y-103423317D01*
X224997601Y-103237546D01*
X224995596Y-103024302D01*
X224994158Y-102788251D01*
X224993353Y-102534059D01*
X224993201Y-102362290D01*
X224993259Y-102058311D01*
X224993530Y-101800912D01*
X224994154Y-101585874D01*
X224995274Y-101408978D01*
X224997031Y-101266004D01*
X224999567Y-101152733D01*
X225003024Y-101064945D01*
X225007543Y-100998421D01*
X225013267Y-100948941D01*
X225020338Y-100912286D01*
X225028896Y-100884237D01*
X225039084Y-100860574D01*
X225044001Y-100850699D01*
X225074756Y-100788869D01*
X225092810Y-100749660D01*
X225094801Y-100743729D01*
X225070665Y-100741507D01*
X225003312Y-100739556D01*
X224900328Y-100737984D01*
X224769294Y-100736901D01*
X224617795Y-100736415D01*
X224584083Y-100736400D01*
X224410940Y-100736664D01*
X224282371Y-100737831D01*
X224192154Y-100740464D01*
X224134063Y-100745123D01*
X224101876Y-100752372D01*
X224089368Y-100762772D01*
X224090314Y-100776885D01*
X224091836Y-100780850D01*
X224125195Y-100869673D01*
X224149261Y-100958181D01*
X224165420Y-101057141D01*
X224175058Y-101177321D01*
X224179560Y-101329488D01*
X224180400Y-101469088D01*
X224180401Y-101888904D01*
X224104201Y-101815900D01*
X224056587Y-101765557D01*
X224030006Y-101728278D01*
X224028000Y-101721483D01*
X224012863Y-101695550D01*
X223973372Y-101642128D01*
X223918412Y-101572145D01*
X223856868Y-101496529D01*
X223797623Y-101426209D01*
X223749561Y-101372114D01*
X223722761Y-101346000D01*
X223700439Y-101318734D01*
X223662064Y-101262630D01*
X223634198Y-101219000D01*
X223575995Y-101131298D01*
X223513049Y-101044698D01*
X223490701Y-101016362D01*
X223445987Y-100949736D01*
X223420592Y-100888643D01*
X223418400Y-100872390D01*
X223417878Y-100828677D01*
X223412209Y-100795502D01*
X223395238Y-100771412D01*
X223360811Y-100754955D01*
X223302774Y-100744677D01*
X223214972Y-100739127D01*
X223091250Y-100736851D01*
X222925455Y-100736396D01*
X222842253Y-100736400D01*
X222842253Y-100736400D01*
G37*
X222842253Y-100736400D02*
X222296941Y-100736400D01*
X222495721Y-100937787D01*
X222825429Y-101300691D01*
X223039849Y-101574815D01*
X223118297Y-101678400D01*
X223212856Y-101798529D01*
X223312950Y-101922202D01*
X223408002Y-102036419D01*
X223487434Y-102128181D01*
X223512532Y-102155760D01*
X223593964Y-102243212D01*
X223524006Y-102334356D01*
X223388564Y-102523604D01*
X223301022Y-102663050D01*
X223246152Y-102745286D01*
X223184876Y-102824612D01*
X223179727Y-102830607D01*
X223110778Y-102913581D01*
X223030253Y-103016137D01*
X222947058Y-103126288D01*
X222870098Y-103232047D01*
X222808281Y-103321425D01*
X222772624Y-103378547D01*
X222737543Y-103431596D01*
X222679014Y-103510062D01*
X222607180Y-103601252D01*
X222532185Y-103692472D01*
X222464172Y-103771032D01*
X222427800Y-103810020D01*
X222403911Y-103836081D01*
X222361637Y-103883406D01*
X222353523Y-103892570D01*
X222291945Y-103962200D01*
X223418400Y-103962200D01*
X223418400Y-103883923D01*
X223435163Y-103807395D01*
X223482393Y-103702149D01*
X223555507Y-103576239D01*
X223649919Y-103437716D01*
X223737458Y-103323533D01*
X223808732Y-103231313D01*
X223874053Y-103140269D01*
X223921223Y-103067535D01*
X223927329Y-103056833D01*
X223967371Y-102990434D01*
X224002658Y-102942284D01*
X224011301Y-102933500D01*
X224045862Y-102894816D01*
X224086085Y-102838250D01*
X224123774Y-102790093D01*
X224154285Y-102768487D01*
X224155586Y-102768400D01*
X224164462Y-102793091D01*
X224171582Y-102864381D01*
X224176736Y-102978092D01*
X224179717Y-103130044D01*
X224180400Y-103264961D01*
X224179716Y-103444263D01*
X224177305Y-103580270D01*
X224172625Y-103680475D01*
X224165137Y-103752369D01*
X224154302Y-103803443D01*
X224139579Y-103841188D01*
X224138756Y-103842811D01*
X224103283Y-103902491D01*
X224071777Y-103940618D01*
X224068906Y-103942761D01*
X224084403Y-103948323D01*
X224143753Y-103953262D01*
X224240014Y-103957312D01*
X224366241Y-103960207D01*
X224515489Y-103961682D01*
X224567206Y-103961811D01*
X225093711Y-103962200D01*
X225064032Y-103892350D01*
X225035859Y-103833758D01*
X225013776Y-103798370D01*
X225009943Y-103769142D01*
X225006343Y-103693781D01*
X225003041Y-103576951D01*
X225000104Y-103423317D01*
X224997601Y-103237546D01*
X224995596Y-103024302D01*
X224994158Y-102788251D01*
X224993353Y-102534059D01*
X224993201Y-102362290D01*
X224993259Y-102058311D01*
X224993530Y-101800912D01*
X224994154Y-101585874D01*
X224995274Y-101408978D01*
X224997031Y-101266004D01*
X224999567Y-101152733D01*
X225003024Y-101064945D01*
X225007543Y-100998421D01*
X225013267Y-100948941D01*
X225020338Y-100912286D01*
X225028896Y-100884237D01*
X225039084Y-100860574D01*
X225044001Y-100850699D01*
X225074756Y-100788869D01*
X225092810Y-100749660D01*
X225094801Y-100743729D01*
X225070665Y-100741507D01*
X225003312Y-100739556D01*
X224900328Y-100737984D01*
X224769294Y-100736901D01*
X224617795Y-100736415D01*
X224584083Y-100736400D01*
X224410940Y-100736664D01*
X224282371Y-100737831D01*
X224192154Y-100740464D01*
X224134063Y-100745123D01*
X224101876Y-100752372D01*
X224089368Y-100762772D01*
X224090314Y-100776885D01*
X224091836Y-100780850D01*
X224125195Y-100869673D01*
X224149261Y-100958181D01*
X224165420Y-101057141D01*
X224175058Y-101177321D01*
X224179560Y-101329488D01*
X224180400Y-101469088D01*
X224180401Y-101888904D01*
X224104201Y-101815900D01*
X224056587Y-101765557D01*
X224030006Y-101728278D01*
X224028000Y-101721483D01*
X224012863Y-101695550D01*
X223973372Y-101642128D01*
X223918412Y-101572145D01*
X223856868Y-101496529D01*
X223797623Y-101426209D01*
X223749561Y-101372114D01*
X223722761Y-101346000D01*
X223700439Y-101318734D01*
X223662064Y-101262630D01*
X223634198Y-101219000D01*
X223575995Y-101131298D01*
X223513049Y-101044698D01*
X223490701Y-101016362D01*
X223445987Y-100949736D01*
X223420592Y-100888643D01*
X223418400Y-100872390D01*
X223417878Y-100828677D01*
X223412209Y-100795502D01*
X223395238Y-100771412D01*
X223360811Y-100754955D01*
X223302774Y-100744677D01*
X223214972Y-100739127D01*
X223091250Y-100736851D01*
X222925455Y-100736396D01*
X222842253Y-100736400D01*
G36*
X221259400Y-102700045D02*
X221259179Y-102971528D01*
X221258417Y-103196618D01*
X221256974Y-103379721D01*
X221254706Y-103525240D01*
X221251469Y-103637583D01*
X221247122Y-103721155D01*
X221241520Y-103780359D01*
X221234522Y-103819603D01*
X221225984Y-103843292D01*
X221222108Y-103849395D01*
X221195822Y-103886943D01*
X221185109Y-103915085D01*
X221195290Y-103935174D01*
X221231688Y-103948563D01*
X221299624Y-103956605D01*
X221404422Y-103960653D01*
X221551402Y-103962060D01*
X221665800Y-103962200D01*
X221816082Y-103961515D01*
X221947273Y-103959608D01*
X222051573Y-103956702D01*
X222121181Y-103953017D01*
X222148295Y-103948776D01*
X222148400Y-103948488D01*
X222137845Y-103919454D01*
X222111274Y-103862509D01*
X222097600Y-103835200D01*
X222084734Y-103807760D01*
X222074241Y-103777394D01*
X222065880Y-103738920D01*
X222059409Y-103687155D01*
X222054589Y-103616918D01*
X222051178Y-103523027D01*
X222048935Y-103400301D01*
X222047619Y-103243559D01*
X222046990Y-103047617D01*
X222046805Y-102807296D01*
X222046800Y-102742750D01*
X222047053Y-102485269D01*
X222047929Y-102273749D01*
X222049604Y-102103351D01*
X222052252Y-101969238D01*
X222056050Y-101866571D01*
X222061173Y-101790513D01*
X222067797Y-101736226D01*
X222076097Y-101698872D01*
X222085553Y-101674938D01*
X222124305Y-101600000D01*
X221259400Y-101600000D01*
X221259400Y-102700045D01*
X221259400Y-102700045D01*
G37*
X221259400Y-102700045D02*
X221259179Y-102971528D01*
X221258417Y-103196618D01*
X221256974Y-103379721D01*
X221254706Y-103525240D01*
X221251469Y-103637583D01*
X221247122Y-103721155D01*
X221241520Y-103780359D01*
X221234522Y-103819603D01*
X221225984Y-103843292D01*
X221222108Y-103849395D01*
X221195822Y-103886943D01*
X221185109Y-103915085D01*
X221195290Y-103935174D01*
X221231688Y-103948563D01*
X221299624Y-103956605D01*
X221404422Y-103960653D01*
X221551402Y-103962060D01*
X221665800Y-103962200D01*
X221816082Y-103961515D01*
X221947273Y-103959608D01*
X222051573Y-103956702D01*
X222121181Y-103953017D01*
X222148295Y-103948776D01*
X222148400Y-103948488D01*
X222137845Y-103919454D01*
X222111274Y-103862509D01*
X222097600Y-103835200D01*
X222084734Y-103807760D01*
X222074241Y-103777394D01*
X222065880Y-103738920D01*
X222059409Y-103687155D01*
X222054589Y-103616918D01*
X222051178Y-103523027D01*
X222048935Y-103400301D01*
X222047619Y-103243559D01*
X222046990Y-103047617D01*
X222046805Y-102807296D01*
X222046800Y-102742750D01*
X222047053Y-102485269D01*
X222047929Y-102273749D01*
X222049604Y-102103351D01*
X222052252Y-101969238D01*
X222056050Y-101866571D01*
X222061173Y-101790513D01*
X222067797Y-101736226D01*
X222076097Y-101698872D01*
X222085553Y-101674938D01*
X222124305Y-101600000D01*
X221259400Y-101600000D01*
X221259400Y-102700045D01*
G36*
X221500059Y-99833960D02*
X221382455Y-99900395D01*
X221288977Y-100003045D01*
X221245188Y-100089124D01*
X221214578Y-100227614D01*
X221223679Y-100365591D01*
X221271027Y-100487084D01*
X221283412Y-100505850D01*
X221373851Y-100593408D01*
X221492729Y-100653553D01*
X221625667Y-100683418D01*
X221758287Y-100680134D01*
X221876210Y-100640832D01*
X221896994Y-100628244D01*
X221979263Y-100549394D01*
X222047086Y-100440770D01*
X222089253Y-100323295D01*
X222097600Y-100253799D01*
X222078326Y-100144575D01*
X222027810Y-100030110D01*
X221957018Y-99931158D01*
X221901358Y-99882295D01*
X221769139Y-99821876D01*
X221632163Y-99806776D01*
X221500059Y-99833960D01*
X221500059Y-99833960D01*
G37*
X221500059Y-99833960D02*
X221382455Y-99900395D01*
X221288977Y-100003045D01*
X221245188Y-100089124D01*
X221214578Y-100227614D01*
X221223679Y-100365591D01*
X221271027Y-100487084D01*
X221283412Y-100505850D01*
X221373851Y-100593408D01*
X221492729Y-100653553D01*
X221625667Y-100683418D01*
X221758287Y-100680134D01*
X221876210Y-100640832D01*
X221896994Y-100628244D01*
X221979263Y-100549394D01*
X222047086Y-100440770D01*
X222089253Y-100323295D01*
X222097600Y-100253799D01*
X222078326Y-100144575D01*
X222027810Y-100030110D01*
X221957018Y-99931158D01*
X221901358Y-99882295D01*
X221769139Y-99821876D01*
X221632163Y-99806776D01*
X221500059Y-99833960D01*
%TD*%
D12*
%TO.C,C11*%
X60325000Y-93980000D03*
D13*
X60325000Y-96520000D03*
%TD*%
D14*
%TO.C,U6*%
X186690000Y-109855000D03*
X189230000Y-109855000D03*
X191770000Y-109855000D03*
X194310000Y-109855000D03*
X196850000Y-109855000D03*
X199390000Y-109855000D03*
X201930000Y-109855000D03*
X204470000Y-109855000D03*
X204470000Y-117475000D03*
X201930000Y-117475000D03*
X199390000Y-117475000D03*
X196850000Y-117475000D03*
X194310000Y-117475000D03*
X191770000Y-117475000D03*
X189230000Y-117475000D03*
D15*
X186690000Y-117475000D03*
%TD*%
D14*
%TO.C,U5*%
X149860000Y-109855000D03*
X152400000Y-109855000D03*
X154940000Y-109855000D03*
X157480000Y-109855000D03*
X160020000Y-109855000D03*
X162560000Y-109855000D03*
X165100000Y-109855000D03*
X167640000Y-109855000D03*
X167640000Y-117475000D03*
X165100000Y-117475000D03*
X162560000Y-117475000D03*
X160020000Y-117475000D03*
X157480000Y-117475000D03*
X154940000Y-117475000D03*
X152400000Y-117475000D03*
D15*
X149860000Y-117475000D03*
%TD*%
D14*
%TO.C,U4*%
X113030000Y-109855000D03*
X115570000Y-109855000D03*
X118110000Y-109855000D03*
X120650000Y-109855000D03*
X123190000Y-109855000D03*
X125730000Y-109855000D03*
X128270000Y-109855000D03*
X130810000Y-109855000D03*
X130810000Y-117475000D03*
X128270000Y-117475000D03*
X125730000Y-117475000D03*
X123190000Y-117475000D03*
X120650000Y-117475000D03*
X118110000Y-117475000D03*
X115570000Y-117475000D03*
D15*
X113030000Y-117475000D03*
%TD*%
D14*
%TO.C,U3*%
X76200000Y-109855000D03*
X78740000Y-109855000D03*
X81280000Y-109855000D03*
X83820000Y-109855000D03*
X86360000Y-109855000D03*
X88900000Y-109855000D03*
X91440000Y-109855000D03*
X93980000Y-109855000D03*
X93980000Y-117475000D03*
X91440000Y-117475000D03*
X88900000Y-117475000D03*
X86360000Y-117475000D03*
X83820000Y-117475000D03*
X81280000Y-117475000D03*
X78740000Y-117475000D03*
D15*
X76200000Y-117475000D03*
%TD*%
D14*
%TO.C,U2*%
X114300000Y-129540000D03*
X116840000Y-129540000D03*
X119380000Y-129540000D03*
X121920000Y-129540000D03*
X124460000Y-129540000D03*
X127000000Y-129540000D03*
X129540000Y-129540000D03*
X132080000Y-129540000D03*
X132080000Y-137160000D03*
X129540000Y-137160000D03*
X127000000Y-137160000D03*
X124460000Y-137160000D03*
X121920000Y-137160000D03*
X119380000Y-137160000D03*
X116840000Y-137160000D03*
D15*
X114300000Y-137160000D03*
%TD*%
D14*
%TO.C,U1*%
X147320000Y-129540000D03*
X149860000Y-129540000D03*
X152400000Y-129540000D03*
X154940000Y-129540000D03*
X157480000Y-129540000D03*
X160020000Y-129540000D03*
X162560000Y-129540000D03*
X165100000Y-129540000D03*
X165100000Y-137160000D03*
X162560000Y-137160000D03*
X160020000Y-137160000D03*
X157480000Y-137160000D03*
X154940000Y-137160000D03*
X152400000Y-137160000D03*
X149860000Y-137160000D03*
D15*
X147320000Y-137160000D03*
%TD*%
D14*
%TO.C,U10*%
X213360000Y-110490000D03*
X215900000Y-110490000D03*
X218440000Y-110490000D03*
X220980000Y-110490000D03*
X220980000Y-118110000D03*
X218440000Y-118110000D03*
X215900000Y-118110000D03*
D15*
X213360000Y-118110000D03*
%TD*%
D14*
%TO.C,U9*%
X213360000Y-121920000D03*
X215900000Y-121920000D03*
X218440000Y-121920000D03*
X220980000Y-121920000D03*
X220980000Y-129540000D03*
X218440000Y-129540000D03*
X215900000Y-129540000D03*
D15*
X213360000Y-129540000D03*
%TD*%
D14*
%TO.C,U8*%
X58420000Y-109220000D03*
X60960000Y-109220000D03*
X63500000Y-109220000D03*
X66040000Y-109220000D03*
X66040000Y-116840000D03*
X63500000Y-116840000D03*
X60960000Y-116840000D03*
D15*
X58420000Y-116840000D03*
%TD*%
D14*
%TO.C,U7*%
X58420000Y-124460000D03*
X60960000Y-124460000D03*
X63500000Y-124460000D03*
X66040000Y-124460000D03*
X66040000Y-132080000D03*
X63500000Y-132080000D03*
X60960000Y-132080000D03*
D15*
X58420000Y-132080000D03*
%TD*%
D16*
%TO.C,C17*%
X187960000Y-129540000D03*
D17*
X187960000Y-132080000D03*
%TD*%
D16*
%TO.C,C15*%
X223520000Y-93980000D03*
D17*
X223520000Y-96520000D03*
%TD*%
D16*
%TO.C,C14*%
X88900000Y-132080000D03*
D17*
X88900000Y-129540000D03*
%TD*%
D16*
%TO.C,C12*%
X55880000Y-93980000D03*
D17*
X55880000Y-96520000D03*
%TD*%
D16*
%TO.C,C10*%
X210820000Y-115570000D03*
D17*
X210820000Y-118110000D03*
%TD*%
D16*
%TO.C,C9*%
X210820000Y-127000000D03*
D17*
X210820000Y-129540000D03*
%TD*%
D16*
%TO.C,C8*%
X55880000Y-114300000D03*
D17*
X55880000Y-116840000D03*
%TD*%
D16*
%TO.C,C7*%
X55880000Y-129540000D03*
D17*
X55880000Y-132080000D03*
%TD*%
D16*
%TO.C,C6*%
X184150000Y-112395000D03*
D17*
X184150000Y-109855000D03*
%TD*%
D16*
%TO.C,C5*%
X147320000Y-112395000D03*
D17*
X147320000Y-109855000D03*
%TD*%
D16*
%TO.C,C4*%
X110490000Y-112395000D03*
D17*
X110490000Y-109855000D03*
%TD*%
D16*
%TO.C,C3*%
X73660000Y-112395000D03*
D17*
X73660000Y-109855000D03*
%TD*%
D16*
%TO.C,C2*%
X116840000Y-127000000D03*
D17*
X114300000Y-127000000D03*
%TD*%
D16*
%TO.C,C1*%
X144145000Y-132080000D03*
D17*
X144145000Y-129540000D03*
%TD*%
D12*
%TO.C,C18*%
X184150000Y-129540000D03*
D13*
X184150000Y-132080000D03*
%TD*%
D12*
%TO.C,C16*%
X218440000Y-93980000D03*
D13*
X218440000Y-96520000D03*
%TD*%
D12*
%TO.C,C13*%
X92710000Y-132080000D03*
D13*
X92710000Y-129540000D03*
%TD*%
D18*
%TO.C,Q1*%
X111760000Y-134620000D03*
X109918500Y-132549750D03*
D19*
X108077000Y-134620000D03*
%TD*%
D20*
%TO.C,MH2*%
X236220000Y-134620000D03*
%TD*%
%TO.C,MH3*%
X236220000Y-106680000D03*
%TD*%
%TO.C,MH4*%
X43180000Y-106680000D03*
%TD*%
D21*
%TO.C,J12*%
X233940000Y-92760000D03*
X236740000Y-95560000D03*
D22*
X231140000Y-99060000D03*
%TD*%
D21*
%TO.C,J9*%
X48520000Y-92580000D03*
X51320000Y-95380000D03*
D22*
X45720000Y-98880000D03*
%TD*%
D23*
%TO.C,J3*%
X118105000Y-95885000D03*
X106675000Y-95885000D03*
D24*
X107950000Y-104775000D03*
X109220000Y-102235000D03*
X110490000Y-104775000D03*
X111760000Y-102235000D03*
X113030000Y-104775000D03*
X114300000Y-102235000D03*
X115570000Y-104775000D03*
D25*
X116840000Y-102235000D03*
%TD*%
D23*
%TO.C,J8*%
X210180000Y-95885000D03*
X198750000Y-95885000D03*
D24*
X200025000Y-104775000D03*
X201295000Y-102235000D03*
X202565000Y-104775000D03*
X203835000Y-102235000D03*
X205105000Y-104775000D03*
X206375000Y-102235000D03*
X207645000Y-104775000D03*
D25*
X208915000Y-102235000D03*
%TD*%
D23*
%TO.C,J14*%
X234950000Y-125725000D03*
X234950000Y-114295000D03*
D24*
X226060000Y-115570000D03*
X228600000Y-116840000D03*
X226060000Y-118110000D03*
X228600000Y-119380000D03*
X226060000Y-120650000D03*
X228600000Y-121920000D03*
X226060000Y-123190000D03*
D25*
X228600000Y-124460000D03*
%TD*%
D23*
%TO.C,J13*%
X199390000Y-135885000D03*
X199390000Y-124455000D03*
D24*
X190500000Y-125730000D03*
X193040000Y-127000000D03*
X190500000Y-128270000D03*
X193040000Y-129540000D03*
X190500000Y-130810000D03*
X193040000Y-132080000D03*
X190500000Y-133350000D03*
D25*
X193040000Y-134620000D03*
%TD*%
D23*
%TO.C,J11*%
X44450000Y-115575000D03*
X44450000Y-127005000D03*
D24*
X53340000Y-125730000D03*
X50800000Y-124460000D03*
X53340000Y-123190000D03*
X50800000Y-121920000D03*
X53340000Y-120650000D03*
X50800000Y-119380000D03*
X53340000Y-118110000D03*
D25*
X50800000Y-116840000D03*
%TD*%
D23*
%TO.C,J10*%
X77470000Y-125735000D03*
X77470000Y-137165000D03*
D24*
X86360000Y-135890000D03*
X83820000Y-134620000D03*
X86360000Y-133350000D03*
X83820000Y-132080000D03*
X86360000Y-130810000D03*
X83820000Y-129540000D03*
X86360000Y-128270000D03*
D25*
X83820000Y-127000000D03*
%TD*%
D23*
%TO.C,J7*%
X191765000Y-95885000D03*
X180335000Y-95885000D03*
D24*
X181610000Y-104775000D03*
X182880000Y-102235000D03*
X184150000Y-104775000D03*
X185420000Y-102235000D03*
X186690000Y-104775000D03*
X187960000Y-102235000D03*
X189230000Y-104775000D03*
D25*
X190500000Y-102235000D03*
%TD*%
D23*
%TO.C,J6*%
X173350000Y-95885000D03*
X161920000Y-95885000D03*
D24*
X163195000Y-104775000D03*
X164465000Y-102235000D03*
X165735000Y-104775000D03*
X167005000Y-102235000D03*
X168275000Y-104775000D03*
X169545000Y-102235000D03*
X170815000Y-104775000D03*
D25*
X172085000Y-102235000D03*
%TD*%
D23*
%TO.C,J5*%
X154935000Y-95885000D03*
X143505000Y-95885000D03*
D24*
X144780000Y-104775000D03*
X146050000Y-102235000D03*
X147320000Y-104775000D03*
X148590000Y-102235000D03*
X149860000Y-104775000D03*
X151130000Y-102235000D03*
X152400000Y-104775000D03*
D25*
X153670000Y-102235000D03*
%TD*%
D23*
%TO.C,J4*%
X136520000Y-95885000D03*
X125090000Y-95885000D03*
D24*
X126365000Y-104775000D03*
X127635000Y-102235000D03*
X128905000Y-104775000D03*
X130175000Y-102235000D03*
X131445000Y-104775000D03*
X132715000Y-102235000D03*
X133985000Y-104775000D03*
D25*
X135255000Y-102235000D03*
%TD*%
D23*
%TO.C,J2*%
X99690000Y-95885000D03*
X88260000Y-95885000D03*
D24*
X89535000Y-104775000D03*
X90805000Y-102235000D03*
X92075000Y-104775000D03*
X93345000Y-102235000D03*
X94615000Y-104775000D03*
X95885000Y-102235000D03*
X97155000Y-104775000D03*
D25*
X98425000Y-102235000D03*
%TD*%
D23*
%TO.C,J1*%
X81275000Y-95885000D03*
X69845000Y-95885000D03*
D24*
X71120000Y-104775000D03*
X72390000Y-102235000D03*
X73660000Y-104775000D03*
X74930000Y-102235000D03*
X76200000Y-104775000D03*
X77470000Y-102235000D03*
X78740000Y-104775000D03*
D25*
X80010000Y-102235000D03*
%TD*%
D26*
%TO.C,MH1*%
X39624000Y-138176000D03*
X39624000Y-134620000D03*
X39624000Y-131064000D03*
X43180000Y-131064000D03*
X46736000Y-131064000D03*
X46736000Y-134620000D03*
X46736000Y-138176000D03*
X43180000Y-138176000D03*
D27*
X43180000Y-134620000D03*
%TD*%
D28*
%TO.C,R1*%
X101600000Y-137160000D03*
D29*
X111760000Y-137160000D03*
%TD*%
D30*
%TO.C,R2*%
X58420000Y-121920000D03*
D31*
X60960000Y-121920000D03*
%TD*%
D30*
%TO.C,R3*%
X58420000Y-106680000D03*
D31*
X60960000Y-106680000D03*
%TD*%
D30*
%TO.C,R4*%
X63500000Y-121920000D03*
D31*
X66040000Y-121920000D03*
%TD*%
D30*
%TO.C,R5*%
X213360000Y-107950000D03*
D31*
X215900000Y-107950000D03*
%TD*%
D30*
%TO.C,R6*%
X76200000Y-120015000D03*
D31*
X78740000Y-120015000D03*
%TD*%
D30*
%TO.C,R7*%
X88900000Y-120015000D03*
D31*
X91440000Y-120015000D03*
%TD*%
D30*
%TO.C,R8*%
X113030000Y-120015000D03*
D31*
X115570000Y-120015000D03*
%TD*%
D30*
%TO.C,R9*%
X125730000Y-120015000D03*
D31*
X128270000Y-120015000D03*
%TD*%
D30*
%TO.C,R10*%
X149860000Y-120015000D03*
D31*
X152400000Y-120015000D03*
%TD*%
D30*
%TO.C,R11*%
X162560000Y-120015000D03*
D31*
X165100000Y-120015000D03*
%TD*%
D30*
%TO.C,R12*%
X186690000Y-120015000D03*
D31*
X189230000Y-120015000D03*
%TD*%
D30*
%TO.C,R13*%
X199390000Y-120015000D03*
D31*
X201930000Y-120015000D03*
%TD*%
M02*
