%TF.GenerationSoftware,KiCad,Pcbnew,(5.0.0-rc2-83-gda392728d)*%
%TF.CreationDate,2018-06-05T23:32:54-04:00*%
%TF.ProjectId,I&O_Epander,49264F5F4570616E6465722E6B696361,1.0.2*%
%TF.SameCoordinates,Original*%
%TF.FileFunction,Legend,Top*%
%TF.FilePolarity,Positive*%
%FSLAX46Y46*%
G04 Gerber Fmt 4.6, Leading zero omitted, Abs format (unit mm)*
G04 Created by KiCad (PCBNEW (5.0.0-rc2-83-gda392728d)) date 06/05/18 23:32:54*
%MOMM*%
%LPD*%
G01*
G04 APERTURE LIST*
%ADD10C,0.381000*%
%ADD11C,0.200000*%
%ADD12C,0.317500*%
%ADD13C,0.203200*%
G04 APERTURE END LIST*
D10*
X215854642Y-91666785D02*
X214947500Y-91666785D01*
X214947500Y-89761785D01*
X216489642Y-90668928D02*
X217124642Y-90668928D01*
X217396785Y-91666785D02*
X216489642Y-91666785D01*
X216489642Y-89761785D01*
X217396785Y-89761785D01*
X218213214Y-91666785D02*
X218213214Y-89761785D01*
X218666785Y-89761785D01*
X218938928Y-89852500D01*
X219120357Y-90033928D01*
X219211071Y-90215357D01*
X219301785Y-90578214D01*
X219301785Y-90850357D01*
X219211071Y-91213214D01*
X219120357Y-91394642D01*
X218938928Y-91576071D01*
X218666785Y-91666785D01*
X218213214Y-91666785D01*
X221569642Y-91666785D02*
X221569642Y-89761785D01*
X222295357Y-89761785D01*
X222476785Y-89852500D01*
X222567500Y-89943214D01*
X222658214Y-90124642D01*
X222658214Y-90396785D01*
X222567500Y-90578214D01*
X222476785Y-90668928D01*
X222295357Y-90759642D01*
X221569642Y-90759642D01*
X223293214Y-90396785D02*
X223656071Y-91666785D01*
X224018928Y-90759642D01*
X224381785Y-91666785D01*
X224744642Y-90396785D01*
X225470357Y-91666785D02*
X225470357Y-90396785D01*
X225470357Y-90759642D02*
X225561071Y-90578214D01*
X225651785Y-90487500D01*
X225833214Y-90396785D01*
X226014642Y-90396785D01*
X53929642Y-91666785D02*
X53022500Y-91666785D01*
X53022500Y-89761785D01*
X54564642Y-90668928D02*
X55199642Y-90668928D01*
X55471785Y-91666785D02*
X54564642Y-91666785D01*
X54564642Y-89761785D01*
X55471785Y-89761785D01*
X56288214Y-91666785D02*
X56288214Y-89761785D01*
X56741785Y-89761785D01*
X57013928Y-89852500D01*
X57195357Y-90033928D01*
X57286071Y-90215357D01*
X57376785Y-90578214D01*
X57376785Y-90850357D01*
X57286071Y-91213214D01*
X57195357Y-91394642D01*
X57013928Y-91576071D01*
X56741785Y-91666785D01*
X56288214Y-91666785D01*
X59644642Y-91666785D02*
X59644642Y-89761785D01*
X60370357Y-89761785D01*
X60551785Y-89852500D01*
X60642500Y-89943214D01*
X60733214Y-90124642D01*
X60733214Y-90396785D01*
X60642500Y-90578214D01*
X60551785Y-90668928D01*
X60370357Y-90759642D01*
X59644642Y-90759642D01*
X61368214Y-90396785D02*
X61731071Y-91666785D01*
X62093928Y-90759642D01*
X62456785Y-91666785D01*
X62819642Y-90396785D01*
X63545357Y-91666785D02*
X63545357Y-90396785D01*
X63545357Y-90759642D02*
X63636071Y-90578214D01*
X63726785Y-90487500D01*
X63908214Y-90396785D01*
X64089642Y-90396785D01*
X88528071Y-133989535D02*
X88890928Y-133989535D01*
X89072357Y-134080250D01*
X89253785Y-134261678D01*
X89344500Y-134624535D01*
X89344500Y-135259535D01*
X89253785Y-135622392D01*
X89072357Y-135803821D01*
X88890928Y-135894535D01*
X88528071Y-135894535D01*
X88346642Y-135803821D01*
X88165214Y-135622392D01*
X88074500Y-135259535D01*
X88074500Y-134624535D01*
X88165214Y-134261678D01*
X88346642Y-134080250D01*
X88528071Y-133989535D01*
X90070214Y-135803821D02*
X90251642Y-135894535D01*
X90614500Y-135894535D01*
X90795928Y-135803821D01*
X90886642Y-135622392D01*
X90886642Y-135531678D01*
X90795928Y-135350250D01*
X90614500Y-135259535D01*
X90342357Y-135259535D01*
X90160928Y-135168821D01*
X90070214Y-134987392D01*
X90070214Y-134896678D01*
X90160928Y-134715250D01*
X90342357Y-134624535D01*
X90614500Y-134624535D01*
X90795928Y-134715250D01*
X92519500Y-135803821D02*
X92338071Y-135894535D01*
X91975214Y-135894535D01*
X91793785Y-135803821D01*
X91703071Y-135713107D01*
X91612357Y-135531678D01*
X91612357Y-134987392D01*
X91703071Y-134805964D01*
X91793785Y-134715250D01*
X91975214Y-134624535D01*
X92338071Y-134624535D01*
X92519500Y-134715250D01*
X89435214Y-139133035D02*
X89435214Y-137228035D01*
X90342357Y-137863035D02*
X90342357Y-139133035D01*
X90342357Y-138044464D02*
X90433071Y-137953750D01*
X90614500Y-137863035D01*
X90886642Y-137863035D01*
X91068071Y-137953750D01*
X91158785Y-138135178D01*
X91158785Y-139133035D01*
X184286071Y-121924535D02*
X184648928Y-121924535D01*
X184830357Y-122015250D01*
X185011785Y-122196678D01*
X185102500Y-122559535D01*
X185102500Y-123194535D01*
X185011785Y-123557392D01*
X184830357Y-123738821D01*
X184648928Y-123829535D01*
X184286071Y-123829535D01*
X184104642Y-123738821D01*
X183923214Y-123557392D01*
X183832500Y-123194535D01*
X183832500Y-122559535D01*
X183923214Y-122196678D01*
X184104642Y-122015250D01*
X184286071Y-121924535D01*
X185828214Y-123738821D02*
X186009642Y-123829535D01*
X186372500Y-123829535D01*
X186553928Y-123738821D01*
X186644642Y-123557392D01*
X186644642Y-123466678D01*
X186553928Y-123285250D01*
X186372500Y-123194535D01*
X186100357Y-123194535D01*
X185918928Y-123103821D01*
X185828214Y-122922392D01*
X185828214Y-122831678D01*
X185918928Y-122650250D01*
X186100357Y-122559535D01*
X186372500Y-122559535D01*
X186553928Y-122650250D01*
X188277500Y-123738821D02*
X188096071Y-123829535D01*
X187733214Y-123829535D01*
X187551785Y-123738821D01*
X187461071Y-123648107D01*
X187370357Y-123466678D01*
X187370357Y-122922392D01*
X187461071Y-122740964D01*
X187551785Y-122650250D01*
X187733214Y-122559535D01*
X188096071Y-122559535D01*
X188277500Y-122650250D01*
X184467500Y-125163035D02*
X184830357Y-125163035D01*
X185011785Y-125253750D01*
X185193214Y-125435178D01*
X185283928Y-125798035D01*
X185283928Y-126433035D01*
X185193214Y-126795892D01*
X185011785Y-126977321D01*
X184830357Y-127068035D01*
X184467500Y-127068035D01*
X184286071Y-126977321D01*
X184104642Y-126795892D01*
X184013928Y-126433035D01*
X184013928Y-125798035D01*
X184104642Y-125435178D01*
X184286071Y-125253750D01*
X184467500Y-125163035D01*
X186916785Y-125798035D02*
X186916785Y-127068035D01*
X186100357Y-125798035D02*
X186100357Y-126795892D01*
X186191071Y-126977321D01*
X186372500Y-127068035D01*
X186644642Y-127068035D01*
X186826071Y-126977321D01*
X186916785Y-126886607D01*
X187551785Y-125798035D02*
X188277500Y-125798035D01*
X187823928Y-125163035D02*
X187823928Y-126795892D01*
X187914642Y-126977321D01*
X188096071Y-127068035D01*
X188277500Y-127068035D01*
X226141642Y-106974821D02*
X226413785Y-107065535D01*
X226867357Y-107065535D01*
X227048785Y-106974821D01*
X227139500Y-106884107D01*
X227230214Y-106702678D01*
X227230214Y-106521250D01*
X227139500Y-106339821D01*
X227048785Y-106249107D01*
X226867357Y-106158392D01*
X226504500Y-106067678D01*
X226323071Y-105976964D01*
X226232357Y-105886250D01*
X226141642Y-105704821D01*
X226141642Y-105523392D01*
X226232357Y-105341964D01*
X226323071Y-105251250D01*
X226504500Y-105160535D01*
X226958071Y-105160535D01*
X227230214Y-105251250D01*
X228046642Y-107065535D02*
X228046642Y-105160535D01*
X228772357Y-105160535D01*
X228953785Y-105251250D01*
X229044500Y-105341964D01*
X229135214Y-105523392D01*
X229135214Y-105795535D01*
X229044500Y-105976964D01*
X228953785Y-106067678D01*
X228772357Y-106158392D01*
X228046642Y-106158392D01*
X229951642Y-107065535D02*
X229951642Y-105160535D01*
X226504500Y-108399035D02*
X226867357Y-108399035D01*
X227048785Y-108489750D01*
X227230214Y-108671178D01*
X227320928Y-109034035D01*
X227320928Y-109669035D01*
X227230214Y-110031892D01*
X227048785Y-110213321D01*
X226867357Y-110304035D01*
X226504500Y-110304035D01*
X226323071Y-110213321D01*
X226141642Y-110031892D01*
X226050928Y-109669035D01*
X226050928Y-109034035D01*
X226141642Y-108671178D01*
X226323071Y-108489750D01*
X226504500Y-108399035D01*
X228953785Y-109034035D02*
X228953785Y-110304035D01*
X228137357Y-109034035D02*
X228137357Y-110031892D01*
X228228071Y-110213321D01*
X228409500Y-110304035D01*
X228681642Y-110304035D01*
X228863071Y-110213321D01*
X228953785Y-110122607D01*
X229588785Y-109034035D02*
X230314500Y-109034035D01*
X229860928Y-108399035D02*
X229860928Y-110031892D01*
X229951642Y-110213321D01*
X230133071Y-110304035D01*
X230314500Y-110304035D01*
X48214642Y-107736821D02*
X48486785Y-107827535D01*
X48940357Y-107827535D01*
X49121785Y-107736821D01*
X49212500Y-107646107D01*
X49303214Y-107464678D01*
X49303214Y-107283250D01*
X49212500Y-107101821D01*
X49121785Y-107011107D01*
X48940357Y-106920392D01*
X48577500Y-106829678D01*
X48396071Y-106738964D01*
X48305357Y-106648250D01*
X48214642Y-106466821D01*
X48214642Y-106285392D01*
X48305357Y-106103964D01*
X48396071Y-106013250D01*
X48577500Y-105922535D01*
X49031071Y-105922535D01*
X49303214Y-106013250D01*
X50119642Y-107827535D02*
X50119642Y-105922535D01*
X50845357Y-105922535D01*
X51026785Y-106013250D01*
X51117500Y-106103964D01*
X51208214Y-106285392D01*
X51208214Y-106557535D01*
X51117500Y-106738964D01*
X51026785Y-106829678D01*
X50845357Y-106920392D01*
X50119642Y-106920392D01*
X52024642Y-107827535D02*
X52024642Y-105922535D01*
X49303214Y-111066035D02*
X49303214Y-109161035D01*
X50210357Y-109796035D02*
X50210357Y-111066035D01*
X50210357Y-109977464D02*
X50301071Y-109886750D01*
X50482500Y-109796035D01*
X50754642Y-109796035D01*
X50936071Y-109886750D01*
X51026785Y-110068178D01*
X51026785Y-111066035D01*
D11*
X215575047Y-102805761D02*
X215717904Y-102853380D01*
X215956000Y-102853380D01*
X216051238Y-102805761D01*
X216098857Y-102758142D01*
X216146476Y-102662904D01*
X216146476Y-102567666D01*
X216098857Y-102472428D01*
X216051238Y-102424809D01*
X215956000Y-102377190D01*
X215765523Y-102329571D01*
X215670285Y-102281952D01*
X215622666Y-102234333D01*
X215575047Y-102139095D01*
X215575047Y-102043857D01*
X215622666Y-101948619D01*
X215670285Y-101901000D01*
X215765523Y-101853380D01*
X216003619Y-101853380D01*
X216146476Y-101901000D01*
X217003619Y-102805761D02*
X216908380Y-102853380D01*
X216717904Y-102853380D01*
X216622666Y-102805761D01*
X216575047Y-102758142D01*
X216527428Y-102662904D01*
X216527428Y-102377190D01*
X216575047Y-102281952D01*
X216622666Y-102234333D01*
X216717904Y-102186714D01*
X216908380Y-102186714D01*
X217003619Y-102234333D01*
X217432190Y-102853380D02*
X217432190Y-101853380D01*
X217860761Y-102853380D02*
X217860761Y-102329571D01*
X217813142Y-102234333D01*
X217717904Y-102186714D01*
X217575047Y-102186714D01*
X217479809Y-102234333D01*
X217432190Y-102281952D01*
X218956000Y-101853380D02*
X219289333Y-102853380D01*
X219622666Y-101853380D01*
X219908380Y-101948619D02*
X219956000Y-101901000D01*
X220051238Y-101853380D01*
X220289333Y-101853380D01*
X220384571Y-101901000D01*
X220432190Y-101948619D01*
X220479809Y-102043857D01*
X220479809Y-102139095D01*
X220432190Y-102281952D01*
X219860761Y-102853380D01*
X220479809Y-102853380D01*
X220908380Y-102758142D02*
X220956000Y-102805761D01*
X220908380Y-102853380D01*
X220860761Y-102805761D01*
X220908380Y-102758142D01*
X220908380Y-102853380D01*
X221575047Y-101853380D02*
X221670285Y-101853380D01*
X221765523Y-101901000D01*
X221813142Y-101948619D01*
X221860761Y-102043857D01*
X221908380Y-102234333D01*
X221908380Y-102472428D01*
X221860761Y-102662904D01*
X221813142Y-102758142D01*
X221765523Y-102805761D01*
X221670285Y-102853380D01*
X221575047Y-102853380D01*
X221479809Y-102805761D01*
X221432190Y-102758142D01*
X221384571Y-102662904D01*
X221336952Y-102472428D01*
X221336952Y-102234333D01*
X221384571Y-102043857D01*
X221432190Y-101948619D01*
X221479809Y-101901000D01*
X221575047Y-101853380D01*
X222336952Y-102758142D02*
X222384571Y-102805761D01*
X222336952Y-102853380D01*
X222289333Y-102805761D01*
X222336952Y-102758142D01*
X222336952Y-102853380D01*
X222717904Y-101853380D02*
X223336952Y-101853380D01*
X223003619Y-102234333D01*
X223146476Y-102234333D01*
X223241714Y-102281952D01*
X223289333Y-102329571D01*
X223336952Y-102424809D01*
X223336952Y-102662904D01*
X223289333Y-102758142D01*
X223241714Y-102805761D01*
X223146476Y-102853380D01*
X222860761Y-102853380D01*
X222765523Y-102805761D01*
X222717904Y-102758142D01*
X215598857Y-104553380D02*
X215598857Y-103553380D01*
X215979809Y-103553380D01*
X216075047Y-103601000D01*
X216122666Y-103648619D01*
X216170285Y-103743857D01*
X216170285Y-103886714D01*
X216122666Y-103981952D01*
X216075047Y-104029571D01*
X215979809Y-104077190D01*
X215598857Y-104077190D01*
X217027428Y-104505761D02*
X216932190Y-104553380D01*
X216741714Y-104553380D01*
X216646476Y-104505761D01*
X216598857Y-104458142D01*
X216551238Y-104362904D01*
X216551238Y-104077190D01*
X216598857Y-103981952D01*
X216646476Y-103934333D01*
X216741714Y-103886714D01*
X216932190Y-103886714D01*
X217027428Y-103934333D01*
X217456000Y-104553380D02*
X217456000Y-103553380D01*
X217456000Y-103934333D02*
X217551238Y-103886714D01*
X217741714Y-103886714D01*
X217836952Y-103934333D01*
X217884571Y-103981952D01*
X217932190Y-104077190D01*
X217932190Y-104362904D01*
X217884571Y-104458142D01*
X217836952Y-104505761D01*
X217741714Y-104553380D01*
X217551238Y-104553380D01*
X217456000Y-104505761D01*
X218979809Y-103553380D02*
X219313142Y-104553380D01*
X219646476Y-103553380D01*
X220503619Y-104553380D02*
X219932190Y-104553380D01*
X220217904Y-104553380D02*
X220217904Y-103553380D01*
X220122666Y-103696238D01*
X220027428Y-103791476D01*
X219932190Y-103839095D01*
X220932190Y-104458142D02*
X220979809Y-104505761D01*
X220932190Y-104553380D01*
X220884571Y-104505761D01*
X220932190Y-104458142D01*
X220932190Y-104553380D01*
X221598857Y-103553380D02*
X221694095Y-103553380D01*
X221789333Y-103601000D01*
X221836952Y-103648619D01*
X221884571Y-103743857D01*
X221932190Y-103934333D01*
X221932190Y-104172428D01*
X221884571Y-104362904D01*
X221836952Y-104458142D01*
X221789333Y-104505761D01*
X221694095Y-104553380D01*
X221598857Y-104553380D01*
X221503619Y-104505761D01*
X221456000Y-104458142D01*
X221408380Y-104362904D01*
X221360761Y-104172428D01*
X221360761Y-103934333D01*
X221408380Y-103743857D01*
X221456000Y-103648619D01*
X221503619Y-103601000D01*
X221598857Y-103553380D01*
X222360761Y-104458142D02*
X222408380Y-104505761D01*
X222360761Y-104553380D01*
X222313142Y-104505761D01*
X222360761Y-104458142D01*
X222360761Y-104553380D01*
X222789333Y-103648619D02*
X222836952Y-103601000D01*
X222932190Y-103553380D01*
X223170285Y-103553380D01*
X223265523Y-103601000D01*
X223313142Y-103648619D01*
X223360761Y-103743857D01*
X223360761Y-103839095D01*
X223313142Y-103981952D01*
X222741714Y-104553380D01*
X223360761Y-104553380D01*
D12*
X213577714Y-133386285D02*
X214666285Y-133386285D01*
X214122000Y-135291285D02*
X214122000Y-133386285D01*
X215301285Y-135291285D02*
X215301285Y-134021285D01*
X215301285Y-134384142D02*
X215392000Y-134202714D01*
X215482714Y-134112000D01*
X215664142Y-134021285D01*
X215845571Y-134021285D01*
X216480571Y-135291285D02*
X216480571Y-134021285D01*
X216480571Y-133386285D02*
X216389857Y-133477000D01*
X216480571Y-133567714D01*
X216571285Y-133477000D01*
X216480571Y-133386285D01*
X216480571Y-133567714D01*
X217387714Y-134021285D02*
X217387714Y-135926285D01*
X217387714Y-134112000D02*
X217569142Y-134021285D01*
X217932000Y-134021285D01*
X218113428Y-134112000D01*
X218204142Y-134202714D01*
X218294857Y-134384142D01*
X218294857Y-134928428D01*
X218204142Y-135109857D01*
X218113428Y-135200571D01*
X217932000Y-135291285D01*
X217569142Y-135291285D01*
X217387714Y-135200571D01*
X219111285Y-134021285D02*
X219111285Y-135926285D01*
X219111285Y-134112000D02*
X219292714Y-134021285D01*
X219655571Y-134021285D01*
X219837000Y-134112000D01*
X219927714Y-134202714D01*
X220018428Y-134384142D01*
X220018428Y-134928428D01*
X219927714Y-135109857D01*
X219837000Y-135200571D01*
X219655571Y-135291285D01*
X219292714Y-135291285D01*
X219111285Y-135200571D01*
X220653428Y-134021285D02*
X221107000Y-135291285D01*
X221560571Y-134021285D02*
X221107000Y-135291285D01*
X220925571Y-135744857D01*
X220834857Y-135835571D01*
X220653428Y-135926285D01*
X223374857Y-135291285D02*
X222739857Y-134384142D01*
X222286285Y-135291285D02*
X222286285Y-133386285D01*
X223012000Y-133386285D01*
X223193428Y-133477000D01*
X223284142Y-133567714D01*
X223374857Y-133749142D01*
X223374857Y-134021285D01*
X223284142Y-134202714D01*
X223193428Y-134293428D01*
X223012000Y-134384142D01*
X222286285Y-134384142D01*
X225189142Y-133477000D02*
X225007714Y-133386285D01*
X224735571Y-133386285D01*
X224463428Y-133477000D01*
X224282000Y-133658428D01*
X224191285Y-133839857D01*
X224100571Y-134202714D01*
X224100571Y-134474857D01*
X224191285Y-134837714D01*
X224282000Y-135019142D01*
X224463428Y-135200571D01*
X224735571Y-135291285D01*
X224917000Y-135291285D01*
X225189142Y-135200571D01*
X225279857Y-135109857D01*
X225279857Y-134474857D01*
X224917000Y-134474857D01*
X226731285Y-134293428D02*
X227003428Y-134384142D01*
X227094142Y-134474857D01*
X227184857Y-134656285D01*
X227184857Y-134928428D01*
X227094142Y-135109857D01*
X227003428Y-135200571D01*
X226822000Y-135291285D01*
X226096285Y-135291285D01*
X226096285Y-133386285D01*
X226731285Y-133386285D01*
X226912714Y-133477000D01*
X227003428Y-133567714D01*
X227094142Y-133749142D01*
X227094142Y-133930571D01*
X227003428Y-134112000D01*
X226912714Y-134202714D01*
X226731285Y-134293428D01*
X226096285Y-134293428D01*
X211083071Y-138466285D02*
X211083071Y-136561285D01*
X213532357Y-138466285D02*
X213441642Y-138466285D01*
X213260214Y-138375571D01*
X212988071Y-138103428D01*
X212534500Y-137559142D01*
X212353071Y-137287000D01*
X212262357Y-137014857D01*
X212262357Y-136833428D01*
X212353071Y-136652000D01*
X212534500Y-136561285D01*
X212625214Y-136561285D01*
X212806642Y-136652000D01*
X212897357Y-136833428D01*
X212897357Y-136924142D01*
X212806642Y-137105571D01*
X212715928Y-137196285D01*
X212171642Y-137559142D01*
X212080928Y-137649857D01*
X211990214Y-137831285D01*
X211990214Y-138103428D01*
X212080928Y-138284857D01*
X212171642Y-138375571D01*
X212353071Y-138466285D01*
X212625214Y-138466285D01*
X212806642Y-138375571D01*
X212897357Y-138284857D01*
X213169500Y-137922000D01*
X213260214Y-137649857D01*
X213260214Y-137468428D01*
X214711642Y-136561285D02*
X215074500Y-136561285D01*
X215255928Y-136652000D01*
X215437357Y-136833428D01*
X215528071Y-137196285D01*
X215528071Y-137831285D01*
X215437357Y-138194142D01*
X215255928Y-138375571D01*
X215074500Y-138466285D01*
X214711642Y-138466285D01*
X214530214Y-138375571D01*
X214348785Y-138194142D01*
X214258071Y-137831285D01*
X214258071Y-137196285D01*
X214348785Y-136833428D01*
X214530214Y-136652000D01*
X214711642Y-136561285D01*
X217795928Y-137468428D02*
X218430928Y-137468428D01*
X218703071Y-138466285D02*
X217795928Y-138466285D01*
X217795928Y-136561285D01*
X218703071Y-136561285D01*
X219338071Y-138466285D02*
X220335928Y-137196285D01*
X219338071Y-137196285D02*
X220335928Y-138466285D01*
X221061642Y-137196285D02*
X221061642Y-139101285D01*
X221061642Y-137287000D02*
X221243071Y-137196285D01*
X221605928Y-137196285D01*
X221787357Y-137287000D01*
X221878071Y-137377714D01*
X221968785Y-137559142D01*
X221968785Y-138103428D01*
X221878071Y-138284857D01*
X221787357Y-138375571D01*
X221605928Y-138466285D01*
X221243071Y-138466285D01*
X221061642Y-138375571D01*
X223601642Y-138466285D02*
X223601642Y-137468428D01*
X223510928Y-137287000D01*
X223329500Y-137196285D01*
X222966642Y-137196285D01*
X222785214Y-137287000D01*
X223601642Y-138375571D02*
X223420214Y-138466285D01*
X222966642Y-138466285D01*
X222785214Y-138375571D01*
X222694500Y-138194142D01*
X222694500Y-138012714D01*
X222785214Y-137831285D01*
X222966642Y-137740571D01*
X223420214Y-137740571D01*
X223601642Y-137649857D01*
X224508785Y-137196285D02*
X224508785Y-138466285D01*
X224508785Y-137377714D02*
X224599500Y-137287000D01*
X224780928Y-137196285D01*
X225053071Y-137196285D01*
X225234500Y-137287000D01*
X225325214Y-137468428D01*
X225325214Y-138466285D01*
X227048785Y-138466285D02*
X227048785Y-136561285D01*
X227048785Y-138375571D02*
X226867357Y-138466285D01*
X226504500Y-138466285D01*
X226323071Y-138375571D01*
X226232357Y-138284857D01*
X226141642Y-138103428D01*
X226141642Y-137559142D01*
X226232357Y-137377714D01*
X226323071Y-137287000D01*
X226504500Y-137196285D01*
X226867357Y-137196285D01*
X227048785Y-137287000D01*
X228681642Y-138375571D02*
X228500214Y-138466285D01*
X228137357Y-138466285D01*
X227955928Y-138375571D01*
X227865214Y-138194142D01*
X227865214Y-137468428D01*
X227955928Y-137287000D01*
X228137357Y-137196285D01*
X228500214Y-137196285D01*
X228681642Y-137287000D01*
X228772357Y-137468428D01*
X228772357Y-137649857D01*
X227865214Y-137831285D01*
X229588785Y-138466285D02*
X229588785Y-137196285D01*
X229588785Y-137559142D02*
X229679500Y-137377714D01*
X229770214Y-137287000D01*
X229951642Y-137196285D01*
X230133071Y-137196285D01*
D13*
%TO.C,C11*%
X62825000Y-95250000D02*
G75*
G03X62825000Y-95250000I-2500000J0D01*
G01*
%TO.C,U6*%
X185480000Y-113030000D02*
X185480000Y-108585000D01*
X205680000Y-108585000D02*
X205030000Y-108585000D01*
X205680000Y-118745000D02*
X205680000Y-108585000D01*
X205030000Y-118745000D02*
X205680000Y-118745000D01*
X185480000Y-108585000D02*
X186130000Y-108585000D01*
X185480000Y-118745000D02*
X185480000Y-114300000D01*
X186130000Y-118745000D02*
X185480000Y-118745000D01*
X185480000Y-114300000D02*
G75*
G03X185480000Y-113030000I0J635000D01*
G01*
%TO.C,U5*%
X148650000Y-113030000D02*
X148650000Y-108585000D01*
X168850000Y-108585000D02*
X168200000Y-108585000D01*
X168850000Y-118745000D02*
X168850000Y-108585000D01*
X168200000Y-118745000D02*
X168850000Y-118745000D01*
X148650000Y-108585000D02*
X149300000Y-108585000D01*
X148650000Y-118745000D02*
X148650000Y-114300000D01*
X149300000Y-118745000D02*
X148650000Y-118745000D01*
X148650000Y-114300000D02*
G75*
G03X148650000Y-113030000I0J635000D01*
G01*
%TO.C,U4*%
X111820000Y-113030000D02*
X111820000Y-108585000D01*
X132020000Y-108585000D02*
X131370000Y-108585000D01*
X132020000Y-118745000D02*
X132020000Y-108585000D01*
X131370000Y-118745000D02*
X132020000Y-118745000D01*
X111820000Y-108585000D02*
X112470000Y-108585000D01*
X111820000Y-118745000D02*
X111820000Y-114300000D01*
X112470000Y-118745000D02*
X111820000Y-118745000D01*
X111820000Y-114300000D02*
G75*
G03X111820000Y-113030000I0J635000D01*
G01*
%TO.C,U3*%
X74990000Y-113030000D02*
X74990000Y-108585000D01*
X95190000Y-108585000D02*
X94540000Y-108585000D01*
X95190000Y-118745000D02*
X95190000Y-108585000D01*
X94540000Y-118745000D02*
X95190000Y-118745000D01*
X74990000Y-108585000D02*
X75640000Y-108585000D01*
X74990000Y-118745000D02*
X74990000Y-114300000D01*
X75640000Y-118745000D02*
X74990000Y-118745000D01*
X74990000Y-114300000D02*
G75*
G03X74990000Y-113030000I0J635000D01*
G01*
%TO.C,U2*%
X113090000Y-132715000D02*
X113090000Y-128270000D01*
X133290000Y-128270000D02*
X132640000Y-128270000D01*
X133290000Y-138430000D02*
X133290000Y-128270000D01*
X132640000Y-138430000D02*
X133290000Y-138430000D01*
X113090000Y-128270000D02*
X113740000Y-128270000D01*
X113090000Y-138430000D02*
X113090000Y-133985000D01*
X113740000Y-138430000D02*
X113090000Y-138430000D01*
X113090000Y-133985000D02*
G75*
G03X113090000Y-132715000I0J635000D01*
G01*
%TO.C,U1*%
X146110000Y-132715000D02*
X146110000Y-128270000D01*
X166310000Y-128270000D02*
X165660000Y-128270000D01*
X166310000Y-138430000D02*
X166310000Y-128270000D01*
X165660000Y-138430000D02*
X166310000Y-138430000D01*
X146110000Y-128270000D02*
X146760000Y-128270000D01*
X146110000Y-138430000D02*
X146110000Y-133985000D01*
X146760000Y-138430000D02*
X146110000Y-138430000D01*
X146110000Y-133985000D02*
G75*
G03X146110000Y-132715000I0J635000D01*
G01*
%TO.C,XU6*%
X185730000Y-110365000D02*
X185940000Y-110365000D01*
X185730000Y-116965000D02*
X185730000Y-110365000D01*
X185940000Y-116965000D02*
X185730000Y-116965000D01*
X205430000Y-110365000D02*
X205220000Y-110365000D01*
X205430000Y-116965000D02*
X205430000Y-110365000D01*
X205220000Y-116965000D02*
X205430000Y-116965000D01*
X185730000Y-114300000D02*
G75*
G03X185730000Y-113030000I0J635000D01*
G01*
%TO.C,XU5*%
X148900000Y-110365000D02*
X149110000Y-110365000D01*
X148900000Y-116965000D02*
X148900000Y-110365000D01*
X149110000Y-116965000D02*
X148900000Y-116965000D01*
X168600000Y-110365000D02*
X168390000Y-110365000D01*
X168600000Y-116965000D02*
X168600000Y-110365000D01*
X168390000Y-116965000D02*
X168600000Y-116965000D01*
X148900000Y-114300000D02*
G75*
G03X148900000Y-113030000I0J635000D01*
G01*
%TO.C,XU4*%
X112070000Y-110365000D02*
X112280000Y-110365000D01*
X112070000Y-116965000D02*
X112070000Y-110365000D01*
X112280000Y-116965000D02*
X112070000Y-116965000D01*
X131770000Y-110365000D02*
X131560000Y-110365000D01*
X131770000Y-116965000D02*
X131770000Y-110365000D01*
X131560000Y-116965000D02*
X131770000Y-116965000D01*
X112070000Y-114300000D02*
G75*
G03X112070000Y-113030000I0J635000D01*
G01*
%TO.C,XU3*%
X75240000Y-110365000D02*
X75450000Y-110365000D01*
X75240000Y-116965000D02*
X75240000Y-110365000D01*
X75450000Y-116965000D02*
X75240000Y-116965000D01*
X94940000Y-110365000D02*
X94730000Y-110365000D01*
X94940000Y-116965000D02*
X94940000Y-110365000D01*
X94730000Y-116965000D02*
X94940000Y-116965000D01*
X75240000Y-114300000D02*
G75*
G03X75240000Y-113030000I0J635000D01*
G01*
%TO.C,XU2*%
X113340000Y-130050000D02*
X113550000Y-130050000D01*
X113340000Y-136650000D02*
X113340000Y-130050000D01*
X113550000Y-136650000D02*
X113340000Y-136650000D01*
X133040000Y-130050000D02*
X132830000Y-130050000D01*
X133040000Y-136650000D02*
X133040000Y-130050000D01*
X132830000Y-136650000D02*
X133040000Y-136650000D01*
X113340000Y-133985000D02*
G75*
G03X113340000Y-132715000I0J635000D01*
G01*
%TO.C,XU1*%
X146360000Y-130050000D02*
X146570000Y-130050000D01*
X146360000Y-136650000D02*
X146360000Y-130050000D01*
X146570000Y-136650000D02*
X146360000Y-136650000D01*
X166060000Y-130050000D02*
X165850000Y-130050000D01*
X166060000Y-136650000D02*
X166060000Y-130050000D01*
X165850000Y-136650000D02*
X166060000Y-136650000D01*
X146360000Y-133985000D02*
G75*
G03X146360000Y-132715000I0J635000D01*
G01*
%TO.C,U10*%
X222186500Y-109220000D02*
X221576900Y-109220000D01*
X222186500Y-119380000D02*
X222186500Y-109220000D01*
X221576900Y-119380000D02*
X222186500Y-119380000D01*
X212153500Y-109220000D02*
X212763100Y-109220000D01*
X212153500Y-119380000D02*
X212153500Y-109220000D01*
X212763100Y-119380000D02*
X212153500Y-119380000D01*
X212153500Y-114935000D02*
G75*
G03X212153500Y-113665000I0J635000D01*
G01*
%TO.C,U9*%
X222186500Y-120650000D02*
X221576900Y-120650000D01*
X222186500Y-130810000D02*
X222186500Y-120650000D01*
X221576900Y-130810000D02*
X222186500Y-130810000D01*
X212153500Y-120650000D02*
X212763100Y-120650000D01*
X212153500Y-130810000D02*
X212153500Y-120650000D01*
X212763100Y-130810000D02*
X212153500Y-130810000D01*
X212153500Y-126365000D02*
G75*
G03X212153500Y-125095000I0J635000D01*
G01*
%TO.C,U8*%
X67246500Y-107950000D02*
X66636900Y-107950000D01*
X67246500Y-118110000D02*
X67246500Y-107950000D01*
X66636900Y-118110000D02*
X67246500Y-118110000D01*
X57213500Y-107950000D02*
X57823100Y-107950000D01*
X57213500Y-118110000D02*
X57213500Y-107950000D01*
X57823100Y-118110000D02*
X57213500Y-118110000D01*
X57213500Y-113665000D02*
G75*
G03X57213500Y-112395000I0J635000D01*
G01*
%TO.C,U7*%
X67246500Y-123190000D02*
X66636900Y-123190000D01*
X67246500Y-133350000D02*
X67246500Y-123190000D01*
X66636900Y-133350000D02*
X67246500Y-133350000D01*
X57213500Y-123190000D02*
X57823100Y-123190000D01*
X57213500Y-133350000D02*
X57213500Y-123190000D01*
X57823100Y-133350000D02*
X57213500Y-133350000D01*
X57213500Y-128905000D02*
G75*
G03X57213500Y-127635000I0J635000D01*
G01*
%TO.C,XU10*%
X212090000Y-111048800D02*
X212471000Y-111048800D01*
X212090000Y-117551200D02*
X212090000Y-111048800D01*
X212471000Y-117551200D02*
X212090000Y-117551200D01*
X222250000Y-111048800D02*
X221869000Y-111048800D01*
X222250000Y-117551200D02*
X222250000Y-111048800D01*
X221869000Y-117551200D02*
X222250000Y-117551200D01*
X212090000Y-114935000D02*
G75*
G03X212090000Y-113665000I0J635000D01*
G01*
%TO.C,XU9*%
X212090000Y-122478800D02*
X212471000Y-122478800D01*
X212090000Y-128981200D02*
X212090000Y-122478800D01*
X212471000Y-128981200D02*
X212090000Y-128981200D01*
X222250000Y-122478800D02*
X221869000Y-122478800D01*
X222250000Y-128981200D02*
X222250000Y-122478800D01*
X221869000Y-128981200D02*
X222250000Y-128981200D01*
X212090000Y-126365000D02*
G75*
G03X212090000Y-125095000I0J635000D01*
G01*
%TO.C,XU8*%
X57150000Y-109778800D02*
X57531000Y-109778800D01*
X57150000Y-116281200D02*
X57150000Y-109778800D01*
X57531000Y-116281200D02*
X57150000Y-116281200D01*
X67310000Y-109778800D02*
X66929000Y-109778800D01*
X67310000Y-116281200D02*
X67310000Y-109778800D01*
X66929000Y-116281200D02*
X67310000Y-116281200D01*
X57150000Y-113665000D02*
G75*
G03X57150000Y-112395000I0J635000D01*
G01*
%TO.C,XU7*%
X57150000Y-125018800D02*
X57531000Y-125018800D01*
X57150000Y-131521200D02*
X57150000Y-125018800D01*
X57531000Y-131521200D02*
X57150000Y-131521200D01*
X67310000Y-125018800D02*
X66929000Y-125018800D01*
X67310000Y-131521200D02*
X67310000Y-125018800D01*
X66929000Y-131521200D02*
X67310000Y-131521200D01*
X57150000Y-128905000D02*
G75*
G03X57150000Y-127635000I0J635000D01*
G01*
%TO.C,C17*%
X189560200Y-133362700D02*
X186359800Y-133362700D01*
X189560200Y-128257300D02*
X189560200Y-133362700D01*
X186359800Y-128257300D02*
X189560200Y-128257300D01*
X186359800Y-133362700D02*
X186359800Y-128257300D01*
%TO.C,C15*%
X225120200Y-97802700D02*
X221919800Y-97802700D01*
X225120200Y-92697300D02*
X225120200Y-97802700D01*
X221919800Y-92697300D02*
X225120200Y-92697300D01*
X221919800Y-97802700D02*
X221919800Y-92697300D01*
%TO.C,C14*%
X87299800Y-128257300D02*
X90500200Y-128257300D01*
X87299800Y-133362700D02*
X87299800Y-128257300D01*
X90500200Y-133362700D02*
X87299800Y-133362700D01*
X90500200Y-128257300D02*
X90500200Y-133362700D01*
%TO.C,C12*%
X57480200Y-97802700D02*
X54279800Y-97802700D01*
X57480200Y-92697300D02*
X57480200Y-97802700D01*
X54279800Y-92697300D02*
X57480200Y-92697300D01*
X54279800Y-97802700D02*
X54279800Y-92697300D01*
%TO.C,C10*%
X212420200Y-119392700D02*
X209219800Y-119392700D01*
X212420200Y-114287300D02*
X212420200Y-119392700D01*
X209219800Y-114287300D02*
X212420200Y-114287300D01*
X209219800Y-119392700D02*
X209219800Y-114287300D01*
%TO.C,C9*%
X212420200Y-130822700D02*
X209219800Y-130822700D01*
X212420200Y-125717300D02*
X212420200Y-130822700D01*
X209219800Y-125717300D02*
X212420200Y-125717300D01*
X209219800Y-130822700D02*
X209219800Y-125717300D01*
%TO.C,C8*%
X57480200Y-118122700D02*
X54279800Y-118122700D01*
X57480200Y-113017300D02*
X57480200Y-118122700D01*
X54279800Y-113017300D02*
X57480200Y-113017300D01*
X54279800Y-118122700D02*
X54279800Y-113017300D01*
%TO.C,C7*%
X57480200Y-133362700D02*
X54279800Y-133362700D01*
X57480200Y-128257300D02*
X57480200Y-133362700D01*
X54279800Y-128257300D02*
X57480200Y-128257300D01*
X54279800Y-133362700D02*
X54279800Y-128257300D01*
%TO.C,C6*%
X182549800Y-108572300D02*
X185750200Y-108572300D01*
X182549800Y-113677700D02*
X182549800Y-108572300D01*
X185750200Y-113677700D02*
X182549800Y-113677700D01*
X185750200Y-108572300D02*
X185750200Y-113677700D01*
%TO.C,C5*%
X145719800Y-108572300D02*
X148920200Y-108572300D01*
X145719800Y-113677700D02*
X145719800Y-108572300D01*
X148920200Y-113677700D02*
X145719800Y-113677700D01*
X148920200Y-108572300D02*
X148920200Y-113677700D01*
%TO.C,C4*%
X108889800Y-108572300D02*
X112090200Y-108572300D01*
X108889800Y-113677700D02*
X108889800Y-108572300D01*
X112090200Y-113677700D02*
X108889800Y-113677700D01*
X112090200Y-108572300D02*
X112090200Y-113677700D01*
%TO.C,C3*%
X72059800Y-108572300D02*
X75260200Y-108572300D01*
X72059800Y-113677700D02*
X72059800Y-108572300D01*
X75260200Y-113677700D02*
X72059800Y-113677700D01*
X75260200Y-108572300D02*
X75260200Y-113677700D01*
%TO.C,C2*%
X113017300Y-128600200D02*
X113017300Y-125399800D01*
X118122700Y-128600200D02*
X113017300Y-128600200D01*
X118122700Y-125399800D02*
X118122700Y-128600200D01*
X113017300Y-125399800D02*
X118122700Y-125399800D01*
%TO.C,C1*%
X142544800Y-128257300D02*
X145745200Y-128257300D01*
X142544800Y-133362700D02*
X142544800Y-128257300D01*
X145745200Y-133362700D02*
X142544800Y-133362700D01*
X145745200Y-128257300D02*
X145745200Y-133362700D01*
%TO.C,C18*%
X186650000Y-130810000D02*
G75*
G03X186650000Y-130810000I-2500000J0D01*
G01*
%TO.C,C16*%
X220940000Y-95250000D02*
G75*
G03X220940000Y-95250000I-2500000J0D01*
G01*
%TO.C,C13*%
X95210000Y-130810000D02*
G75*
G03X95210000Y-130810000I-2500000J0D01*
G01*
%TO.C,Q1*%
X107807660Y-135915250D02*
X112029340Y-135915250D01*
X112029374Y-135915199D02*
G75*
G03X107807700Y-135915300I-2110874J1523949D01*
G01*
D10*
%TO.C,MH2*%
X240190000Y-134620000D02*
G75*
G03X240190000Y-134620000I-3970000J0D01*
G01*
%TO.C,MH3*%
X240190000Y-106680000D02*
G75*
G03X240190000Y-106680000I-3970000J0D01*
G01*
%TO.C,MH4*%
X47150000Y-106680000D02*
G75*
G03X47150000Y-106680000I-3970000J0D01*
G01*
D13*
%TO.C,J12*%
X226640000Y-89660000D02*
X237640000Y-89660000D01*
X237640000Y-89660000D02*
X237640000Y-98660000D01*
X237640000Y-98660000D02*
X226640000Y-98660000D01*
X226640000Y-98660000D02*
X226640000Y-89660000D01*
%TO.C,J9*%
X41220000Y-89480000D02*
X52220000Y-89480000D01*
X52220000Y-89480000D02*
X52220000Y-98480000D01*
X52220000Y-98480000D02*
X41220000Y-98480000D01*
X41220000Y-98480000D02*
X41220000Y-89480000D01*
%TO.C,J3*%
X103470000Y-103235000D02*
X104710000Y-103235000D01*
X103470000Y-91735000D02*
X104710000Y-91735000D01*
X121310000Y-91735000D02*
X120070000Y-91735000D01*
X121310000Y-103235000D02*
X120070000Y-103235000D01*
X104710000Y-89385000D02*
X104710000Y-105785000D01*
X121310000Y-91735000D02*
X121310000Y-103235000D01*
X104710000Y-89385000D02*
X120070000Y-89385000D01*
X103470000Y-103235000D02*
X103470000Y-91735000D01*
X120070000Y-105785000D02*
X104710000Y-105785000D01*
X120070000Y-89385000D02*
X120070000Y-105785000D01*
%TO.C,J8*%
X195545000Y-103235000D02*
X196785000Y-103235000D01*
X195545000Y-91735000D02*
X196785000Y-91735000D01*
X213385000Y-91735000D02*
X212145000Y-91735000D01*
X213385000Y-103235000D02*
X212145000Y-103235000D01*
X196785000Y-89385000D02*
X196785000Y-105785000D01*
X213385000Y-91735000D02*
X213385000Y-103235000D01*
X196785000Y-89385000D02*
X212145000Y-89385000D01*
X195545000Y-103235000D02*
X195545000Y-91735000D01*
X212145000Y-105785000D02*
X196785000Y-105785000D01*
X212145000Y-89385000D02*
X212145000Y-105785000D01*
%TO.C,J14*%
X227600000Y-111090000D02*
X227600000Y-112330000D01*
X239100000Y-111090000D02*
X239100000Y-112330000D01*
X239100000Y-128930000D02*
X239100000Y-127690000D01*
X227600000Y-128930000D02*
X227600000Y-127690000D01*
X241450000Y-112330000D02*
X225050000Y-112330000D01*
X239100000Y-128930000D02*
X227600000Y-128930000D01*
X241450000Y-112330000D02*
X241450000Y-127690000D01*
X227600000Y-111090000D02*
X239100000Y-111090000D01*
X225050000Y-127690000D02*
X225050000Y-112330000D01*
X241450000Y-127690000D02*
X225050000Y-127690000D01*
%TO.C,J13*%
X192040000Y-121250000D02*
X192040000Y-122490000D01*
X203540000Y-121250000D02*
X203540000Y-122490000D01*
X203540000Y-139090000D02*
X203540000Y-137850000D01*
X192040000Y-139090000D02*
X192040000Y-137850000D01*
X205890000Y-122490000D02*
X189490000Y-122490000D01*
X203540000Y-139090000D02*
X192040000Y-139090000D01*
X205890000Y-122490000D02*
X205890000Y-137850000D01*
X192040000Y-121250000D02*
X203540000Y-121250000D01*
X189490000Y-137850000D02*
X189490000Y-122490000D01*
X205890000Y-137850000D02*
X189490000Y-137850000D01*
%TO.C,J11*%
X51800000Y-130210000D02*
X51800000Y-128970000D01*
X40300000Y-130210000D02*
X40300000Y-128970000D01*
X40300000Y-112370000D02*
X40300000Y-113610000D01*
X51800000Y-112370000D02*
X51800000Y-113610000D01*
X37950000Y-128970000D02*
X54350000Y-128970000D01*
X40300000Y-112370000D02*
X51800000Y-112370000D01*
X37950000Y-128970000D02*
X37950000Y-113610000D01*
X51800000Y-130210000D02*
X40300000Y-130210000D01*
X54350000Y-113610000D02*
X54350000Y-128970000D01*
X37950000Y-113610000D02*
X54350000Y-113610000D01*
%TO.C,J10*%
X84820000Y-140370000D02*
X84820000Y-139130000D01*
X73320000Y-140370000D02*
X73320000Y-139130000D01*
X73320000Y-122530000D02*
X73320000Y-123770000D01*
X84820000Y-122530000D02*
X84820000Y-123770000D01*
X70970000Y-139130000D02*
X87370000Y-139130000D01*
X73320000Y-122530000D02*
X84820000Y-122530000D01*
X70970000Y-139130000D02*
X70970000Y-123770000D01*
X84820000Y-140370000D02*
X73320000Y-140370000D01*
X87370000Y-123770000D02*
X87370000Y-139130000D01*
X70970000Y-123770000D02*
X87370000Y-123770000D01*
%TO.C,J7*%
X177130000Y-103235000D02*
X178370000Y-103235000D01*
X177130000Y-91735000D02*
X178370000Y-91735000D01*
X194970000Y-91735000D02*
X193730000Y-91735000D01*
X194970000Y-103235000D02*
X193730000Y-103235000D01*
X178370000Y-89385000D02*
X178370000Y-105785000D01*
X194970000Y-91735000D02*
X194970000Y-103235000D01*
X178370000Y-89385000D02*
X193730000Y-89385000D01*
X177130000Y-103235000D02*
X177130000Y-91735000D01*
X193730000Y-105785000D02*
X178370000Y-105785000D01*
X193730000Y-89385000D02*
X193730000Y-105785000D01*
%TO.C,J6*%
X158715000Y-103235000D02*
X159955000Y-103235000D01*
X158715000Y-91735000D02*
X159955000Y-91735000D01*
X176555000Y-91735000D02*
X175315000Y-91735000D01*
X176555000Y-103235000D02*
X175315000Y-103235000D01*
X159955000Y-89385000D02*
X159955000Y-105785000D01*
X176555000Y-91735000D02*
X176555000Y-103235000D01*
X159955000Y-89385000D02*
X175315000Y-89385000D01*
X158715000Y-103235000D02*
X158715000Y-91735000D01*
X175315000Y-105785000D02*
X159955000Y-105785000D01*
X175315000Y-89385000D02*
X175315000Y-105785000D01*
%TO.C,J5*%
X140300000Y-103235000D02*
X141540000Y-103235000D01*
X140300000Y-91735000D02*
X141540000Y-91735000D01*
X158140000Y-91735000D02*
X156900000Y-91735000D01*
X158140000Y-103235000D02*
X156900000Y-103235000D01*
X141540000Y-89385000D02*
X141540000Y-105785000D01*
X158140000Y-91735000D02*
X158140000Y-103235000D01*
X141540000Y-89385000D02*
X156900000Y-89385000D01*
X140300000Y-103235000D02*
X140300000Y-91735000D01*
X156900000Y-105785000D02*
X141540000Y-105785000D01*
X156900000Y-89385000D02*
X156900000Y-105785000D01*
%TO.C,J4*%
X121885000Y-103235000D02*
X123125000Y-103235000D01*
X121885000Y-91735000D02*
X123125000Y-91735000D01*
X139725000Y-91735000D02*
X138485000Y-91735000D01*
X139725000Y-103235000D02*
X138485000Y-103235000D01*
X123125000Y-89385000D02*
X123125000Y-105785000D01*
X139725000Y-91735000D02*
X139725000Y-103235000D01*
X123125000Y-89385000D02*
X138485000Y-89385000D01*
X121885000Y-103235000D02*
X121885000Y-91735000D01*
X138485000Y-105785000D02*
X123125000Y-105785000D01*
X138485000Y-89385000D02*
X138485000Y-105785000D01*
%TO.C,J2*%
X85055000Y-103235000D02*
X86295000Y-103235000D01*
X85055000Y-91735000D02*
X86295000Y-91735000D01*
X102895000Y-91735000D02*
X101655000Y-91735000D01*
X102895000Y-103235000D02*
X101655000Y-103235000D01*
X86295000Y-89385000D02*
X86295000Y-105785000D01*
X102895000Y-91735000D02*
X102895000Y-103235000D01*
X86295000Y-89385000D02*
X101655000Y-89385000D01*
X85055000Y-103235000D02*
X85055000Y-91735000D01*
X101655000Y-105785000D02*
X86295000Y-105785000D01*
X101655000Y-89385000D02*
X101655000Y-105785000D01*
%TO.C,J1*%
X66640000Y-103235000D02*
X67880000Y-103235000D01*
X66640000Y-91735000D02*
X67880000Y-91735000D01*
X84480000Y-91735000D02*
X83240000Y-91735000D01*
X84480000Y-103235000D02*
X83240000Y-103235000D01*
X67880000Y-89385000D02*
X67880000Y-105785000D01*
X84480000Y-91735000D02*
X84480000Y-103235000D01*
X67880000Y-89385000D02*
X83240000Y-89385000D01*
X66640000Y-103235000D02*
X66640000Y-91735000D01*
X83240000Y-105785000D02*
X67880000Y-105785000D01*
X83240000Y-89385000D02*
X83240000Y-105785000D01*
%TO.C,R1*%
X103276400Y-137160000D02*
X102400100Y-137160000D01*
X110083600Y-137160000D02*
X110959900Y-137160000D01*
X108949070Y-135864600D02*
X110083600Y-135864600D01*
X110083600Y-135864600D02*
X110083600Y-138455400D01*
X110083600Y-138455400D02*
X108949070Y-138455400D01*
X104410930Y-135864600D02*
X103276400Y-135864600D01*
X103276400Y-135864600D02*
X103276400Y-138455400D01*
X103276400Y-138455400D02*
X104410930Y-138455400D01*
%TO.C,R2*%
X59347100Y-121920000D02*
G75*
G03X59347100Y-121920000I-927100J0D01*
G01*
X59347100Y-121920000D02*
X60325000Y-121920000D01*
%TO.C,R3*%
X59347100Y-106680000D02*
G75*
G03X59347100Y-106680000I-927100J0D01*
G01*
X59347100Y-106680000D02*
X60325000Y-106680000D01*
%TO.C,R4*%
X64427100Y-121920000D02*
G75*
G03X64427100Y-121920000I-927100J0D01*
G01*
X64427100Y-121920000D02*
X65405000Y-121920000D01*
%TO.C,R5*%
X214287100Y-107950000D02*
G75*
G03X214287100Y-107950000I-927100J0D01*
G01*
X214287100Y-107950000D02*
X215265000Y-107950000D01*
%TO.C,R6*%
X77127100Y-120015000D02*
G75*
G03X77127100Y-120015000I-927100J0D01*
G01*
X77127100Y-120015000D02*
X78105000Y-120015000D01*
%TO.C,R7*%
X89827100Y-120015000D02*
G75*
G03X89827100Y-120015000I-927100J0D01*
G01*
X89827100Y-120015000D02*
X90805000Y-120015000D01*
%TO.C,R8*%
X113957100Y-120015000D02*
G75*
G03X113957100Y-120015000I-927100J0D01*
G01*
X113957100Y-120015000D02*
X114935000Y-120015000D01*
%TO.C,R9*%
X126657100Y-120015000D02*
G75*
G03X126657100Y-120015000I-927100J0D01*
G01*
X126657100Y-120015000D02*
X127635000Y-120015000D01*
%TO.C,R10*%
X150787100Y-120015000D02*
G75*
G03X150787100Y-120015000I-927100J0D01*
G01*
X150787100Y-120015000D02*
X151765000Y-120015000D01*
%TO.C,R11*%
X163487100Y-120015000D02*
G75*
G03X163487100Y-120015000I-927100J0D01*
G01*
X163487100Y-120015000D02*
X164465000Y-120015000D01*
%TO.C,R12*%
X187617100Y-120015000D02*
G75*
G03X187617100Y-120015000I-927100J0D01*
G01*
X187617100Y-120015000D02*
X188595000Y-120015000D01*
%TO.C,R13*%
X200317100Y-120015000D02*
G75*
G03X200317100Y-120015000I-927100J0D01*
G01*
X200317100Y-120015000D02*
X201295000Y-120015000D01*
%TO.C,C11*%
X60778571Y-99513571D02*
X60718095Y-99574047D01*
X60536666Y-99634523D01*
X60415714Y-99634523D01*
X60234285Y-99574047D01*
X60113333Y-99453095D01*
X60052857Y-99332142D01*
X59992380Y-99090238D01*
X59992380Y-98908809D01*
X60052857Y-98666904D01*
X60113333Y-98545952D01*
X60234285Y-98425000D01*
X60415714Y-98364523D01*
X60536666Y-98364523D01*
X60718095Y-98425000D01*
X60778571Y-98485476D01*
X61988095Y-99634523D02*
X61262380Y-99634523D01*
X61625238Y-99634523D02*
X61625238Y-98364523D01*
X61504285Y-98545952D01*
X61383333Y-98666904D01*
X61262380Y-98727380D01*
X63197619Y-99634523D02*
X62471904Y-99634523D01*
X62834761Y-99634523D02*
X62834761Y-98364523D01*
X62713809Y-98545952D01*
X62592857Y-98666904D01*
X62471904Y-98727380D01*
X59380428Y-98678952D02*
X59380428Y-97917047D01*
X59761380Y-98298000D02*
X58999476Y-98298000D01*
%TO.C,U6*%
X183182380Y-116779523D02*
X183182380Y-117807619D01*
X183242857Y-117928571D01*
X183303333Y-117989047D01*
X183424285Y-118049523D01*
X183666190Y-118049523D01*
X183787142Y-117989047D01*
X183847619Y-117928571D01*
X183908095Y-117807619D01*
X183908095Y-116779523D01*
X185057142Y-116779523D02*
X184815238Y-116779523D01*
X184694285Y-116840000D01*
X184633809Y-116900476D01*
X184512857Y-117081904D01*
X184452380Y-117323809D01*
X184452380Y-117807619D01*
X184512857Y-117928571D01*
X184573333Y-117989047D01*
X184694285Y-118049523D01*
X184936190Y-118049523D01*
X185057142Y-117989047D01*
X185117619Y-117928571D01*
X185178095Y-117807619D01*
X185178095Y-117505238D01*
X185117619Y-117384285D01*
X185057142Y-117323809D01*
X184936190Y-117263333D01*
X184694285Y-117263333D01*
X184573333Y-117323809D01*
X184512857Y-117384285D01*
X184452380Y-117505238D01*
%TO.C,U5*%
X146352380Y-116779523D02*
X146352380Y-117807619D01*
X146412857Y-117928571D01*
X146473333Y-117989047D01*
X146594285Y-118049523D01*
X146836190Y-118049523D01*
X146957142Y-117989047D01*
X147017619Y-117928571D01*
X147078095Y-117807619D01*
X147078095Y-116779523D01*
X148287619Y-116779523D02*
X147682857Y-116779523D01*
X147622380Y-117384285D01*
X147682857Y-117323809D01*
X147803809Y-117263333D01*
X148106190Y-117263333D01*
X148227142Y-117323809D01*
X148287619Y-117384285D01*
X148348095Y-117505238D01*
X148348095Y-117807619D01*
X148287619Y-117928571D01*
X148227142Y-117989047D01*
X148106190Y-118049523D01*
X147803809Y-118049523D01*
X147682857Y-117989047D01*
X147622380Y-117928571D01*
%TO.C,U4*%
X109522380Y-116779523D02*
X109522380Y-117807619D01*
X109582857Y-117928571D01*
X109643333Y-117989047D01*
X109764285Y-118049523D01*
X110006190Y-118049523D01*
X110127142Y-117989047D01*
X110187619Y-117928571D01*
X110248095Y-117807619D01*
X110248095Y-116779523D01*
X111397142Y-117202857D02*
X111397142Y-118049523D01*
X111094761Y-116719047D02*
X110792380Y-117626190D01*
X111578571Y-117626190D01*
%TO.C,U3*%
X72692380Y-117414523D02*
X72692380Y-118442619D01*
X72752857Y-118563571D01*
X72813333Y-118624047D01*
X72934285Y-118684523D01*
X73176190Y-118684523D01*
X73297142Y-118624047D01*
X73357619Y-118563571D01*
X73418095Y-118442619D01*
X73418095Y-117414523D01*
X73901904Y-117414523D02*
X74688095Y-117414523D01*
X74264761Y-117898333D01*
X74446190Y-117898333D01*
X74567142Y-117958809D01*
X74627619Y-118019285D01*
X74688095Y-118140238D01*
X74688095Y-118442619D01*
X74627619Y-118563571D01*
X74567142Y-118624047D01*
X74446190Y-118684523D01*
X74083333Y-118684523D01*
X73962380Y-118624047D01*
X73901904Y-118563571D01*
%TO.C,U2*%
X110792380Y-138369523D02*
X110792380Y-139397619D01*
X110852857Y-139518571D01*
X110913333Y-139579047D01*
X111034285Y-139639523D01*
X111276190Y-139639523D01*
X111397142Y-139579047D01*
X111457619Y-139518571D01*
X111518095Y-139397619D01*
X111518095Y-138369523D01*
X112062380Y-138490476D02*
X112122857Y-138430000D01*
X112243809Y-138369523D01*
X112546190Y-138369523D01*
X112667142Y-138430000D01*
X112727619Y-138490476D01*
X112788095Y-138611428D01*
X112788095Y-138732380D01*
X112727619Y-138913809D01*
X112001904Y-139639523D01*
X112788095Y-139639523D01*
%TO.C,U1*%
X143812380Y-136464523D02*
X143812380Y-137492619D01*
X143872857Y-137613571D01*
X143933333Y-137674047D01*
X144054285Y-137734523D01*
X144296190Y-137734523D01*
X144417142Y-137674047D01*
X144477619Y-137613571D01*
X144538095Y-137492619D01*
X144538095Y-136464523D01*
X145808095Y-137734523D02*
X145082380Y-137734523D01*
X145445238Y-137734523D02*
X145445238Y-136464523D01*
X145324285Y-136645952D01*
X145203333Y-136766904D01*
X145082380Y-136827380D01*
%TO.C,XU6*%
X186266666Y-114874523D02*
X187113333Y-116144523D01*
X187113333Y-114874523D02*
X186266666Y-116144523D01*
X187597142Y-114874523D02*
X187597142Y-115902619D01*
X187657619Y-116023571D01*
X187718095Y-116084047D01*
X187839047Y-116144523D01*
X188080952Y-116144523D01*
X188201904Y-116084047D01*
X188262380Y-116023571D01*
X188322857Y-115902619D01*
X188322857Y-114874523D01*
X189471904Y-114874523D02*
X189230000Y-114874523D01*
X189109047Y-114935000D01*
X189048571Y-114995476D01*
X188927619Y-115176904D01*
X188867142Y-115418809D01*
X188867142Y-115902619D01*
X188927619Y-116023571D01*
X188988095Y-116084047D01*
X189109047Y-116144523D01*
X189350952Y-116144523D01*
X189471904Y-116084047D01*
X189532380Y-116023571D01*
X189592857Y-115902619D01*
X189592857Y-115600238D01*
X189532380Y-115479285D01*
X189471904Y-115418809D01*
X189350952Y-115358333D01*
X189109047Y-115358333D01*
X188988095Y-115418809D01*
X188927619Y-115479285D01*
X188867142Y-115600238D01*
%TO.C,XU5*%
X149436666Y-114874523D02*
X150283333Y-116144523D01*
X150283333Y-114874523D02*
X149436666Y-116144523D01*
X150767142Y-114874523D02*
X150767142Y-115902619D01*
X150827619Y-116023571D01*
X150888095Y-116084047D01*
X151009047Y-116144523D01*
X151250952Y-116144523D01*
X151371904Y-116084047D01*
X151432380Y-116023571D01*
X151492857Y-115902619D01*
X151492857Y-114874523D01*
X152702380Y-114874523D02*
X152097619Y-114874523D01*
X152037142Y-115479285D01*
X152097619Y-115418809D01*
X152218571Y-115358333D01*
X152520952Y-115358333D01*
X152641904Y-115418809D01*
X152702380Y-115479285D01*
X152762857Y-115600238D01*
X152762857Y-115902619D01*
X152702380Y-116023571D01*
X152641904Y-116084047D01*
X152520952Y-116144523D01*
X152218571Y-116144523D01*
X152097619Y-116084047D01*
X152037142Y-116023571D01*
%TO.C,XU4*%
X112606666Y-114874523D02*
X113453333Y-116144523D01*
X113453333Y-114874523D02*
X112606666Y-116144523D01*
X113937142Y-114874523D02*
X113937142Y-115902619D01*
X113997619Y-116023571D01*
X114058095Y-116084047D01*
X114179047Y-116144523D01*
X114420952Y-116144523D01*
X114541904Y-116084047D01*
X114602380Y-116023571D01*
X114662857Y-115902619D01*
X114662857Y-114874523D01*
X115811904Y-115297857D02*
X115811904Y-116144523D01*
X115509523Y-114814047D02*
X115207142Y-115721190D01*
X115993333Y-115721190D01*
%TO.C,XU3*%
X75776666Y-114874523D02*
X76623333Y-116144523D01*
X76623333Y-114874523D02*
X75776666Y-116144523D01*
X77107142Y-114874523D02*
X77107142Y-115902619D01*
X77167619Y-116023571D01*
X77228095Y-116084047D01*
X77349047Y-116144523D01*
X77590952Y-116144523D01*
X77711904Y-116084047D01*
X77772380Y-116023571D01*
X77832857Y-115902619D01*
X77832857Y-114874523D01*
X78316666Y-114874523D02*
X79102857Y-114874523D01*
X78679523Y-115358333D01*
X78860952Y-115358333D01*
X78981904Y-115418809D01*
X79042380Y-115479285D01*
X79102857Y-115600238D01*
X79102857Y-115902619D01*
X79042380Y-116023571D01*
X78981904Y-116084047D01*
X78860952Y-116144523D01*
X78498095Y-116144523D01*
X78377142Y-116084047D01*
X78316666Y-116023571D01*
%TO.C,XU2*%
X113876666Y-134559523D02*
X114723333Y-135829523D01*
X114723333Y-134559523D02*
X113876666Y-135829523D01*
X115207142Y-134559523D02*
X115207142Y-135587619D01*
X115267619Y-135708571D01*
X115328095Y-135769047D01*
X115449047Y-135829523D01*
X115690952Y-135829523D01*
X115811904Y-135769047D01*
X115872380Y-135708571D01*
X115932857Y-135587619D01*
X115932857Y-134559523D01*
X116477142Y-134680476D02*
X116537619Y-134620000D01*
X116658571Y-134559523D01*
X116960952Y-134559523D01*
X117081904Y-134620000D01*
X117142380Y-134680476D01*
X117202857Y-134801428D01*
X117202857Y-134922380D01*
X117142380Y-135103809D01*
X116416666Y-135829523D01*
X117202857Y-135829523D01*
%TO.C,XU1*%
X146896666Y-134559523D02*
X147743333Y-135829523D01*
X147743333Y-134559523D02*
X146896666Y-135829523D01*
X148227142Y-134559523D02*
X148227142Y-135587619D01*
X148287619Y-135708571D01*
X148348095Y-135769047D01*
X148469047Y-135829523D01*
X148710952Y-135829523D01*
X148831904Y-135769047D01*
X148892380Y-135708571D01*
X148952857Y-135587619D01*
X148952857Y-134559523D01*
X150222857Y-135829523D02*
X149497142Y-135829523D01*
X149860000Y-135829523D02*
X149860000Y-134559523D01*
X149739047Y-134740952D01*
X149618095Y-134861904D01*
X149497142Y-134922380D01*
%TO.C,U10*%
X213057619Y-119319523D02*
X213057619Y-120347619D01*
X213118095Y-120468571D01*
X213178571Y-120529047D01*
X213299523Y-120589523D01*
X213541428Y-120589523D01*
X213662380Y-120529047D01*
X213722857Y-120468571D01*
X213783333Y-120347619D01*
X213783333Y-119319523D01*
X215053333Y-120589523D02*
X214327619Y-120589523D01*
X214690476Y-120589523D02*
X214690476Y-119319523D01*
X214569523Y-119500952D01*
X214448571Y-119621904D01*
X214327619Y-119682380D01*
X215839523Y-119319523D02*
X215960476Y-119319523D01*
X216081428Y-119380000D01*
X216141904Y-119440476D01*
X216202380Y-119561428D01*
X216262857Y-119803333D01*
X216262857Y-120105714D01*
X216202380Y-120347619D01*
X216141904Y-120468571D01*
X216081428Y-120529047D01*
X215960476Y-120589523D01*
X215839523Y-120589523D01*
X215718571Y-120529047D01*
X215658095Y-120468571D01*
X215597619Y-120347619D01*
X215537142Y-120105714D01*
X215537142Y-119803333D01*
X215597619Y-119561428D01*
X215658095Y-119440476D01*
X215718571Y-119380000D01*
X215839523Y-119319523D01*
%TO.C,U9*%
X212392380Y-131384523D02*
X212392380Y-132412619D01*
X212452857Y-132533571D01*
X212513333Y-132594047D01*
X212634285Y-132654523D01*
X212876190Y-132654523D01*
X212997142Y-132594047D01*
X213057619Y-132533571D01*
X213118095Y-132412619D01*
X213118095Y-131384523D01*
X213783333Y-132654523D02*
X214025238Y-132654523D01*
X214146190Y-132594047D01*
X214206666Y-132533571D01*
X214327619Y-132352142D01*
X214388095Y-132110238D01*
X214388095Y-131626428D01*
X214327619Y-131505476D01*
X214267142Y-131445000D01*
X214146190Y-131384523D01*
X213904285Y-131384523D01*
X213783333Y-131445000D01*
X213722857Y-131505476D01*
X213662380Y-131626428D01*
X213662380Y-131928809D01*
X213722857Y-132049761D01*
X213783333Y-132110238D01*
X213904285Y-132170714D01*
X214146190Y-132170714D01*
X214267142Y-132110238D01*
X214327619Y-132049761D01*
X214388095Y-131928809D01*
%TO.C,U8*%
X58087380Y-118684523D02*
X58087380Y-119712619D01*
X58147857Y-119833571D01*
X58208333Y-119894047D01*
X58329285Y-119954523D01*
X58571190Y-119954523D01*
X58692142Y-119894047D01*
X58752619Y-119833571D01*
X58813095Y-119712619D01*
X58813095Y-118684523D01*
X59599285Y-119228809D02*
X59478333Y-119168333D01*
X59417857Y-119107857D01*
X59357380Y-118986904D01*
X59357380Y-118926428D01*
X59417857Y-118805476D01*
X59478333Y-118745000D01*
X59599285Y-118684523D01*
X59841190Y-118684523D01*
X59962142Y-118745000D01*
X60022619Y-118805476D01*
X60083095Y-118926428D01*
X60083095Y-118986904D01*
X60022619Y-119107857D01*
X59962142Y-119168333D01*
X59841190Y-119228809D01*
X59599285Y-119228809D01*
X59478333Y-119289285D01*
X59417857Y-119349761D01*
X59357380Y-119470714D01*
X59357380Y-119712619D01*
X59417857Y-119833571D01*
X59478333Y-119894047D01*
X59599285Y-119954523D01*
X59841190Y-119954523D01*
X59962142Y-119894047D01*
X60022619Y-119833571D01*
X60083095Y-119712619D01*
X60083095Y-119470714D01*
X60022619Y-119349761D01*
X59962142Y-119289285D01*
X59841190Y-119228809D01*
%TO.C,U7*%
X58087380Y-133924523D02*
X58087380Y-134952619D01*
X58147857Y-135073571D01*
X58208333Y-135134047D01*
X58329285Y-135194523D01*
X58571190Y-135194523D01*
X58692142Y-135134047D01*
X58752619Y-135073571D01*
X58813095Y-134952619D01*
X58813095Y-133924523D01*
X59296904Y-133924523D02*
X60143571Y-133924523D01*
X59599285Y-135194523D01*
%TO.C,XU10*%
X212966904Y-115509523D02*
X213813571Y-116779523D01*
X213813571Y-115509523D02*
X212966904Y-116779523D01*
X214297380Y-115509523D02*
X214297380Y-116537619D01*
X214357857Y-116658571D01*
X214418333Y-116719047D01*
X214539285Y-116779523D01*
X214781190Y-116779523D01*
X214902142Y-116719047D01*
X214962619Y-116658571D01*
X215023095Y-116537619D01*
X215023095Y-115509523D01*
X216293095Y-116779523D02*
X215567380Y-116779523D01*
X215930238Y-116779523D02*
X215930238Y-115509523D01*
X215809285Y-115690952D01*
X215688333Y-115811904D01*
X215567380Y-115872380D01*
X217079285Y-115509523D02*
X217200238Y-115509523D01*
X217321190Y-115570000D01*
X217381666Y-115630476D01*
X217442142Y-115751428D01*
X217502619Y-115993333D01*
X217502619Y-116295714D01*
X217442142Y-116537619D01*
X217381666Y-116658571D01*
X217321190Y-116719047D01*
X217200238Y-116779523D01*
X217079285Y-116779523D01*
X216958333Y-116719047D01*
X216897857Y-116658571D01*
X216837380Y-116537619D01*
X216776904Y-116295714D01*
X216776904Y-115993333D01*
X216837380Y-115751428D01*
X216897857Y-115630476D01*
X216958333Y-115570000D01*
X217079285Y-115509523D01*
%TO.C,XU9*%
X212936666Y-126939523D02*
X213783333Y-128209523D01*
X213783333Y-126939523D02*
X212936666Y-128209523D01*
X214267142Y-126939523D02*
X214267142Y-127967619D01*
X214327619Y-128088571D01*
X214388095Y-128149047D01*
X214509047Y-128209523D01*
X214750952Y-128209523D01*
X214871904Y-128149047D01*
X214932380Y-128088571D01*
X214992857Y-127967619D01*
X214992857Y-126939523D01*
X215658095Y-128209523D02*
X215900000Y-128209523D01*
X216020952Y-128149047D01*
X216081428Y-128088571D01*
X216202380Y-127907142D01*
X216262857Y-127665238D01*
X216262857Y-127181428D01*
X216202380Y-127060476D01*
X216141904Y-127000000D01*
X216020952Y-126939523D01*
X215779047Y-126939523D01*
X215658095Y-127000000D01*
X215597619Y-127060476D01*
X215537142Y-127181428D01*
X215537142Y-127483809D01*
X215597619Y-127604761D01*
X215658095Y-127665238D01*
X215779047Y-127725714D01*
X216020952Y-127725714D01*
X216141904Y-127665238D01*
X216202380Y-127604761D01*
X216262857Y-127483809D01*
%TO.C,XU8*%
X57996666Y-114239523D02*
X58843333Y-115509523D01*
X58843333Y-114239523D02*
X57996666Y-115509523D01*
X59327142Y-114239523D02*
X59327142Y-115267619D01*
X59387619Y-115388571D01*
X59448095Y-115449047D01*
X59569047Y-115509523D01*
X59810952Y-115509523D01*
X59931904Y-115449047D01*
X59992380Y-115388571D01*
X60052857Y-115267619D01*
X60052857Y-114239523D01*
X60839047Y-114783809D02*
X60718095Y-114723333D01*
X60657619Y-114662857D01*
X60597142Y-114541904D01*
X60597142Y-114481428D01*
X60657619Y-114360476D01*
X60718095Y-114300000D01*
X60839047Y-114239523D01*
X61080952Y-114239523D01*
X61201904Y-114300000D01*
X61262380Y-114360476D01*
X61322857Y-114481428D01*
X61322857Y-114541904D01*
X61262380Y-114662857D01*
X61201904Y-114723333D01*
X61080952Y-114783809D01*
X60839047Y-114783809D01*
X60718095Y-114844285D01*
X60657619Y-114904761D01*
X60597142Y-115025714D01*
X60597142Y-115267619D01*
X60657619Y-115388571D01*
X60718095Y-115449047D01*
X60839047Y-115509523D01*
X61080952Y-115509523D01*
X61201904Y-115449047D01*
X61262380Y-115388571D01*
X61322857Y-115267619D01*
X61322857Y-115025714D01*
X61262380Y-114904761D01*
X61201904Y-114844285D01*
X61080952Y-114783809D01*
%TO.C,XU7*%
X57996666Y-129479523D02*
X58843333Y-130749523D01*
X58843333Y-129479523D02*
X57996666Y-130749523D01*
X59327142Y-129479523D02*
X59327142Y-130507619D01*
X59387619Y-130628571D01*
X59448095Y-130689047D01*
X59569047Y-130749523D01*
X59810952Y-130749523D01*
X59931904Y-130689047D01*
X59992380Y-130628571D01*
X60052857Y-130507619D01*
X60052857Y-129479523D01*
X60536666Y-129479523D02*
X61383333Y-129479523D01*
X60839047Y-130749523D01*
%TO.C,C17*%
X186508571Y-135073571D02*
X186448095Y-135134047D01*
X186266666Y-135194523D01*
X186145714Y-135194523D01*
X185964285Y-135134047D01*
X185843333Y-135013095D01*
X185782857Y-134892142D01*
X185722380Y-134650238D01*
X185722380Y-134468809D01*
X185782857Y-134226904D01*
X185843333Y-134105952D01*
X185964285Y-133985000D01*
X186145714Y-133924523D01*
X186266666Y-133924523D01*
X186448095Y-133985000D01*
X186508571Y-134045476D01*
X187718095Y-135194523D02*
X186992380Y-135194523D01*
X187355238Y-135194523D02*
X187355238Y-133924523D01*
X187234285Y-134105952D01*
X187113333Y-134226904D01*
X186992380Y-134287380D01*
X188141428Y-133924523D02*
X188988095Y-133924523D01*
X188443809Y-135194523D01*
%TO.C,C15*%
X223338571Y-99513571D02*
X223278095Y-99574047D01*
X223096666Y-99634523D01*
X222975714Y-99634523D01*
X222794285Y-99574047D01*
X222673333Y-99453095D01*
X222612857Y-99332142D01*
X222552380Y-99090238D01*
X222552380Y-98908809D01*
X222612857Y-98666904D01*
X222673333Y-98545952D01*
X222794285Y-98425000D01*
X222975714Y-98364523D01*
X223096666Y-98364523D01*
X223278095Y-98425000D01*
X223338571Y-98485476D01*
X224548095Y-99634523D02*
X223822380Y-99634523D01*
X224185238Y-99634523D02*
X224185238Y-98364523D01*
X224064285Y-98545952D01*
X223943333Y-98666904D01*
X223822380Y-98727380D01*
X225697142Y-98364523D02*
X225092380Y-98364523D01*
X225031904Y-98969285D01*
X225092380Y-98908809D01*
X225213333Y-98848333D01*
X225515714Y-98848333D01*
X225636666Y-98908809D01*
X225697142Y-98969285D01*
X225757619Y-99090238D01*
X225757619Y-99392619D01*
X225697142Y-99513571D01*
X225636666Y-99574047D01*
X225515714Y-99634523D01*
X225213333Y-99634523D01*
X225092380Y-99574047D01*
X225031904Y-99513571D01*
%TO.C,C14*%
X88718571Y-127453571D02*
X88658095Y-127514047D01*
X88476666Y-127574523D01*
X88355714Y-127574523D01*
X88174285Y-127514047D01*
X88053333Y-127393095D01*
X87992857Y-127272142D01*
X87932380Y-127030238D01*
X87932380Y-126848809D01*
X87992857Y-126606904D01*
X88053333Y-126485952D01*
X88174285Y-126365000D01*
X88355714Y-126304523D01*
X88476666Y-126304523D01*
X88658095Y-126365000D01*
X88718571Y-126425476D01*
X89928095Y-127574523D02*
X89202380Y-127574523D01*
X89565238Y-127574523D02*
X89565238Y-126304523D01*
X89444285Y-126485952D01*
X89323333Y-126606904D01*
X89202380Y-126667380D01*
X91016666Y-126727857D02*
X91016666Y-127574523D01*
X90714285Y-126244047D02*
X90411904Y-127151190D01*
X91198095Y-127151190D01*
%TO.C,C12*%
X55063571Y-99513571D02*
X55003095Y-99574047D01*
X54821666Y-99634523D01*
X54700714Y-99634523D01*
X54519285Y-99574047D01*
X54398333Y-99453095D01*
X54337857Y-99332142D01*
X54277380Y-99090238D01*
X54277380Y-98908809D01*
X54337857Y-98666904D01*
X54398333Y-98545952D01*
X54519285Y-98425000D01*
X54700714Y-98364523D01*
X54821666Y-98364523D01*
X55003095Y-98425000D01*
X55063571Y-98485476D01*
X56273095Y-99634523D02*
X55547380Y-99634523D01*
X55910238Y-99634523D02*
X55910238Y-98364523D01*
X55789285Y-98545952D01*
X55668333Y-98666904D01*
X55547380Y-98727380D01*
X56756904Y-98485476D02*
X56817380Y-98425000D01*
X56938333Y-98364523D01*
X57240714Y-98364523D01*
X57361666Y-98425000D01*
X57422142Y-98485476D01*
X57482619Y-98606428D01*
X57482619Y-98727380D01*
X57422142Y-98908809D01*
X56696428Y-99634523D01*
X57482619Y-99634523D01*
%TO.C,C10*%
X209368571Y-121103571D02*
X209308095Y-121164047D01*
X209126666Y-121224523D01*
X209005714Y-121224523D01*
X208824285Y-121164047D01*
X208703333Y-121043095D01*
X208642857Y-120922142D01*
X208582380Y-120680238D01*
X208582380Y-120498809D01*
X208642857Y-120256904D01*
X208703333Y-120135952D01*
X208824285Y-120015000D01*
X209005714Y-119954523D01*
X209126666Y-119954523D01*
X209308095Y-120015000D01*
X209368571Y-120075476D01*
X210578095Y-121224523D02*
X209852380Y-121224523D01*
X210215238Y-121224523D02*
X210215238Y-119954523D01*
X210094285Y-120135952D01*
X209973333Y-120256904D01*
X209852380Y-120317380D01*
X211364285Y-119954523D02*
X211485238Y-119954523D01*
X211606190Y-120015000D01*
X211666666Y-120075476D01*
X211727142Y-120196428D01*
X211787619Y-120438333D01*
X211787619Y-120740714D01*
X211727142Y-120982619D01*
X211666666Y-121103571D01*
X211606190Y-121164047D01*
X211485238Y-121224523D01*
X211364285Y-121224523D01*
X211243333Y-121164047D01*
X211182857Y-121103571D01*
X211122380Y-120982619D01*
X211061904Y-120740714D01*
X211061904Y-120438333D01*
X211122380Y-120196428D01*
X211182857Y-120075476D01*
X211243333Y-120015000D01*
X211364285Y-119954523D01*
%TO.C,C9*%
X207560333Y-129993571D02*
X207499857Y-130054047D01*
X207318428Y-130114523D01*
X207197476Y-130114523D01*
X207016047Y-130054047D01*
X206895095Y-129933095D01*
X206834619Y-129812142D01*
X206774142Y-129570238D01*
X206774142Y-129388809D01*
X206834619Y-129146904D01*
X206895095Y-129025952D01*
X207016047Y-128905000D01*
X207197476Y-128844523D01*
X207318428Y-128844523D01*
X207499857Y-128905000D01*
X207560333Y-128965476D01*
X208165095Y-130114523D02*
X208407000Y-130114523D01*
X208527952Y-130054047D01*
X208588428Y-129993571D01*
X208709380Y-129812142D01*
X208769857Y-129570238D01*
X208769857Y-129086428D01*
X208709380Y-128965476D01*
X208648904Y-128905000D01*
X208527952Y-128844523D01*
X208286047Y-128844523D01*
X208165095Y-128905000D01*
X208104619Y-128965476D01*
X208044142Y-129086428D01*
X208044142Y-129388809D01*
X208104619Y-129509761D01*
X208165095Y-129570238D01*
X208286047Y-129630714D01*
X208527952Y-129630714D01*
X208648904Y-129570238D01*
X208709380Y-129509761D01*
X208769857Y-129388809D01*
%TO.C,C8*%
X55668333Y-119833571D02*
X55607857Y-119894047D01*
X55426428Y-119954523D01*
X55305476Y-119954523D01*
X55124047Y-119894047D01*
X55003095Y-119773095D01*
X54942619Y-119652142D01*
X54882142Y-119410238D01*
X54882142Y-119228809D01*
X54942619Y-118986904D01*
X55003095Y-118865952D01*
X55124047Y-118745000D01*
X55305476Y-118684523D01*
X55426428Y-118684523D01*
X55607857Y-118745000D01*
X55668333Y-118805476D01*
X56394047Y-119228809D02*
X56273095Y-119168333D01*
X56212619Y-119107857D01*
X56152142Y-118986904D01*
X56152142Y-118926428D01*
X56212619Y-118805476D01*
X56273095Y-118745000D01*
X56394047Y-118684523D01*
X56635952Y-118684523D01*
X56756904Y-118745000D01*
X56817380Y-118805476D01*
X56877857Y-118926428D01*
X56877857Y-118986904D01*
X56817380Y-119107857D01*
X56756904Y-119168333D01*
X56635952Y-119228809D01*
X56394047Y-119228809D01*
X56273095Y-119289285D01*
X56212619Y-119349761D01*
X56152142Y-119470714D01*
X56152142Y-119712619D01*
X56212619Y-119833571D01*
X56273095Y-119894047D01*
X56394047Y-119954523D01*
X56635952Y-119954523D01*
X56756904Y-119894047D01*
X56817380Y-119833571D01*
X56877857Y-119712619D01*
X56877857Y-119470714D01*
X56817380Y-119349761D01*
X56756904Y-119289285D01*
X56635952Y-119228809D01*
%TO.C,C7*%
X55668333Y-135073571D02*
X55607857Y-135134047D01*
X55426428Y-135194523D01*
X55305476Y-135194523D01*
X55124047Y-135134047D01*
X55003095Y-135013095D01*
X54942619Y-134892142D01*
X54882142Y-134650238D01*
X54882142Y-134468809D01*
X54942619Y-134226904D01*
X55003095Y-134105952D01*
X55124047Y-133985000D01*
X55305476Y-133924523D01*
X55426428Y-133924523D01*
X55607857Y-133985000D01*
X55668333Y-134045476D01*
X56091666Y-133924523D02*
X56938333Y-133924523D01*
X56394047Y-135194523D01*
%TO.C,C6*%
X183938333Y-107768571D02*
X183877857Y-107829047D01*
X183696428Y-107889523D01*
X183575476Y-107889523D01*
X183394047Y-107829047D01*
X183273095Y-107708095D01*
X183212619Y-107587142D01*
X183152142Y-107345238D01*
X183152142Y-107163809D01*
X183212619Y-106921904D01*
X183273095Y-106800952D01*
X183394047Y-106680000D01*
X183575476Y-106619523D01*
X183696428Y-106619523D01*
X183877857Y-106680000D01*
X183938333Y-106740476D01*
X185026904Y-106619523D02*
X184785000Y-106619523D01*
X184664047Y-106680000D01*
X184603571Y-106740476D01*
X184482619Y-106921904D01*
X184422142Y-107163809D01*
X184422142Y-107647619D01*
X184482619Y-107768571D01*
X184543095Y-107829047D01*
X184664047Y-107889523D01*
X184905952Y-107889523D01*
X185026904Y-107829047D01*
X185087380Y-107768571D01*
X185147857Y-107647619D01*
X185147857Y-107345238D01*
X185087380Y-107224285D01*
X185026904Y-107163809D01*
X184905952Y-107103333D01*
X184664047Y-107103333D01*
X184543095Y-107163809D01*
X184482619Y-107224285D01*
X184422142Y-107345238D01*
%TO.C,C5*%
X147108333Y-107768571D02*
X147047857Y-107829047D01*
X146866428Y-107889523D01*
X146745476Y-107889523D01*
X146564047Y-107829047D01*
X146443095Y-107708095D01*
X146382619Y-107587142D01*
X146322142Y-107345238D01*
X146322142Y-107163809D01*
X146382619Y-106921904D01*
X146443095Y-106800952D01*
X146564047Y-106680000D01*
X146745476Y-106619523D01*
X146866428Y-106619523D01*
X147047857Y-106680000D01*
X147108333Y-106740476D01*
X148257380Y-106619523D02*
X147652619Y-106619523D01*
X147592142Y-107224285D01*
X147652619Y-107163809D01*
X147773571Y-107103333D01*
X148075952Y-107103333D01*
X148196904Y-107163809D01*
X148257380Y-107224285D01*
X148317857Y-107345238D01*
X148317857Y-107647619D01*
X148257380Y-107768571D01*
X148196904Y-107829047D01*
X148075952Y-107889523D01*
X147773571Y-107889523D01*
X147652619Y-107829047D01*
X147592142Y-107768571D01*
%TO.C,C4*%
X110278333Y-107768571D02*
X110217857Y-107829047D01*
X110036428Y-107889523D01*
X109915476Y-107889523D01*
X109734047Y-107829047D01*
X109613095Y-107708095D01*
X109552619Y-107587142D01*
X109492142Y-107345238D01*
X109492142Y-107163809D01*
X109552619Y-106921904D01*
X109613095Y-106800952D01*
X109734047Y-106680000D01*
X109915476Y-106619523D01*
X110036428Y-106619523D01*
X110217857Y-106680000D01*
X110278333Y-106740476D01*
X111366904Y-107042857D02*
X111366904Y-107889523D01*
X111064523Y-106559047D02*
X110762142Y-107466190D01*
X111548333Y-107466190D01*
%TO.C,C3*%
X73448333Y-115388571D02*
X73387857Y-115449047D01*
X73206428Y-115509523D01*
X73085476Y-115509523D01*
X72904047Y-115449047D01*
X72783095Y-115328095D01*
X72722619Y-115207142D01*
X72662142Y-114965238D01*
X72662142Y-114783809D01*
X72722619Y-114541904D01*
X72783095Y-114420952D01*
X72904047Y-114300000D01*
X73085476Y-114239523D01*
X73206428Y-114239523D01*
X73387857Y-114300000D01*
X73448333Y-114360476D01*
X73871666Y-114239523D02*
X74657857Y-114239523D01*
X74234523Y-114723333D01*
X74415952Y-114723333D01*
X74536904Y-114783809D01*
X74597380Y-114844285D01*
X74657857Y-114965238D01*
X74657857Y-115267619D01*
X74597380Y-115388571D01*
X74536904Y-115449047D01*
X74415952Y-115509523D01*
X74053095Y-115509523D01*
X73932142Y-115449047D01*
X73871666Y-115388571D01*
%TO.C,C2*%
X110913333Y-127453571D02*
X110852857Y-127514047D01*
X110671428Y-127574523D01*
X110550476Y-127574523D01*
X110369047Y-127514047D01*
X110248095Y-127393095D01*
X110187619Y-127272142D01*
X110127142Y-127030238D01*
X110127142Y-126848809D01*
X110187619Y-126606904D01*
X110248095Y-126485952D01*
X110369047Y-126365000D01*
X110550476Y-126304523D01*
X110671428Y-126304523D01*
X110852857Y-126365000D01*
X110913333Y-126425476D01*
X111397142Y-126425476D02*
X111457619Y-126365000D01*
X111578571Y-126304523D01*
X111880952Y-126304523D01*
X112001904Y-126365000D01*
X112062380Y-126425476D01*
X112122857Y-126546428D01*
X112122857Y-126667380D01*
X112062380Y-126848809D01*
X111336666Y-127574523D01*
X112122857Y-127574523D01*
%TO.C,C1*%
X143933333Y-127453571D02*
X143872857Y-127514047D01*
X143691428Y-127574523D01*
X143570476Y-127574523D01*
X143389047Y-127514047D01*
X143268095Y-127393095D01*
X143207619Y-127272142D01*
X143147142Y-127030238D01*
X143147142Y-126848809D01*
X143207619Y-126606904D01*
X143268095Y-126485952D01*
X143389047Y-126365000D01*
X143570476Y-126304523D01*
X143691428Y-126304523D01*
X143872857Y-126365000D01*
X143933333Y-126425476D01*
X145142857Y-127574523D02*
X144417142Y-127574523D01*
X144780000Y-127574523D02*
X144780000Y-126304523D01*
X144659047Y-126485952D01*
X144538095Y-126606904D01*
X144417142Y-126667380D01*
%TO.C,C18*%
X182063571Y-135708571D02*
X182003095Y-135769047D01*
X181821666Y-135829523D01*
X181700714Y-135829523D01*
X181519285Y-135769047D01*
X181398333Y-135648095D01*
X181337857Y-135527142D01*
X181277380Y-135285238D01*
X181277380Y-135103809D01*
X181337857Y-134861904D01*
X181398333Y-134740952D01*
X181519285Y-134620000D01*
X181700714Y-134559523D01*
X181821666Y-134559523D01*
X182003095Y-134620000D01*
X182063571Y-134680476D01*
X183273095Y-135829523D02*
X182547380Y-135829523D01*
X182910238Y-135829523D02*
X182910238Y-134559523D01*
X182789285Y-134740952D01*
X182668333Y-134861904D01*
X182547380Y-134922380D01*
X183998809Y-135103809D02*
X183877857Y-135043333D01*
X183817380Y-134982857D01*
X183756904Y-134861904D01*
X183756904Y-134801428D01*
X183817380Y-134680476D01*
X183877857Y-134620000D01*
X183998809Y-134559523D01*
X184240714Y-134559523D01*
X184361666Y-134620000D01*
X184422142Y-134680476D01*
X184482619Y-134801428D01*
X184482619Y-134861904D01*
X184422142Y-134982857D01*
X184361666Y-135043333D01*
X184240714Y-135103809D01*
X183998809Y-135103809D01*
X183877857Y-135164285D01*
X183817380Y-135224761D01*
X183756904Y-135345714D01*
X183756904Y-135587619D01*
X183817380Y-135708571D01*
X183877857Y-135769047D01*
X183998809Y-135829523D01*
X184240714Y-135829523D01*
X184361666Y-135769047D01*
X184422142Y-135708571D01*
X184482619Y-135587619D01*
X184482619Y-135345714D01*
X184422142Y-135224761D01*
X184361666Y-135164285D01*
X184240714Y-135103809D01*
X183205428Y-134238952D02*
X183205428Y-133477047D01*
X183586380Y-133858000D02*
X182824476Y-133858000D01*
%TO.C,C16*%
X218893571Y-99513571D02*
X218833095Y-99574047D01*
X218651666Y-99634523D01*
X218530714Y-99634523D01*
X218349285Y-99574047D01*
X218228333Y-99453095D01*
X218167857Y-99332142D01*
X218107380Y-99090238D01*
X218107380Y-98908809D01*
X218167857Y-98666904D01*
X218228333Y-98545952D01*
X218349285Y-98425000D01*
X218530714Y-98364523D01*
X218651666Y-98364523D01*
X218833095Y-98425000D01*
X218893571Y-98485476D01*
X220103095Y-99634523D02*
X219377380Y-99634523D01*
X219740238Y-99634523D02*
X219740238Y-98364523D01*
X219619285Y-98545952D01*
X219498333Y-98666904D01*
X219377380Y-98727380D01*
X221191666Y-98364523D02*
X220949761Y-98364523D01*
X220828809Y-98425000D01*
X220768333Y-98485476D01*
X220647380Y-98666904D01*
X220586904Y-98908809D01*
X220586904Y-99392619D01*
X220647380Y-99513571D01*
X220707857Y-99574047D01*
X220828809Y-99634523D01*
X221070714Y-99634523D01*
X221191666Y-99574047D01*
X221252142Y-99513571D01*
X221312619Y-99392619D01*
X221312619Y-99090238D01*
X221252142Y-98969285D01*
X221191666Y-98908809D01*
X221070714Y-98848333D01*
X220828809Y-98848333D01*
X220707857Y-98908809D01*
X220647380Y-98969285D01*
X220586904Y-99090238D01*
X217495428Y-98678952D02*
X217495428Y-97917047D01*
X217876380Y-98298000D02*
X217114476Y-98298000D01*
%TO.C,C13*%
X92528571Y-126818571D02*
X92468095Y-126879047D01*
X92286666Y-126939523D01*
X92165714Y-126939523D01*
X91984285Y-126879047D01*
X91863333Y-126758095D01*
X91802857Y-126637142D01*
X91742380Y-126395238D01*
X91742380Y-126213809D01*
X91802857Y-125971904D01*
X91863333Y-125850952D01*
X91984285Y-125730000D01*
X92165714Y-125669523D01*
X92286666Y-125669523D01*
X92468095Y-125730000D01*
X92528571Y-125790476D01*
X93738095Y-126939523D02*
X93012380Y-126939523D01*
X93375238Y-126939523D02*
X93375238Y-125669523D01*
X93254285Y-125850952D01*
X93133333Y-125971904D01*
X93012380Y-126032380D01*
X94161428Y-125669523D02*
X94947619Y-125669523D01*
X94524285Y-126153333D01*
X94705714Y-126153333D01*
X94826666Y-126213809D01*
X94887142Y-126274285D01*
X94947619Y-126395238D01*
X94947619Y-126697619D01*
X94887142Y-126818571D01*
X94826666Y-126879047D01*
X94705714Y-126939523D01*
X94342857Y-126939523D01*
X94221904Y-126879047D01*
X94161428Y-126818571D01*
X93797428Y-128142952D02*
X93797428Y-127381047D01*
X94178380Y-127762000D02*
X93416476Y-127762000D01*
%TO.C,Q1*%
X105924047Y-135315476D02*
X105803095Y-135255000D01*
X105682142Y-135134047D01*
X105500714Y-134952619D01*
X105379761Y-134892142D01*
X105258809Y-134892142D01*
X105319285Y-135194523D02*
X105198333Y-135134047D01*
X105077380Y-135013095D01*
X105016904Y-134771190D01*
X105016904Y-134347857D01*
X105077380Y-134105952D01*
X105198333Y-133985000D01*
X105319285Y-133924523D01*
X105561190Y-133924523D01*
X105682142Y-133985000D01*
X105803095Y-134105952D01*
X105863571Y-134347857D01*
X105863571Y-134771190D01*
X105803095Y-135013095D01*
X105682142Y-135134047D01*
X105561190Y-135194523D01*
X105319285Y-135194523D01*
X107073095Y-135194523D02*
X106347380Y-135194523D01*
X106710238Y-135194523D02*
X106710238Y-133924523D01*
X106589285Y-134105952D01*
X106468333Y-134226904D01*
X106347380Y-134287380D01*
%TO.C,J12*%
X234556904Y-99634523D02*
X234556904Y-100541666D01*
X234496428Y-100723095D01*
X234375476Y-100844047D01*
X234194047Y-100904523D01*
X234073095Y-100904523D01*
X235826904Y-100904523D02*
X235101190Y-100904523D01*
X235464047Y-100904523D02*
X235464047Y-99634523D01*
X235343095Y-99815952D01*
X235222142Y-99936904D01*
X235101190Y-99997380D01*
X236310714Y-99755476D02*
X236371190Y-99695000D01*
X236492142Y-99634523D01*
X236794523Y-99634523D01*
X236915476Y-99695000D01*
X236975952Y-99755476D01*
X237036428Y-99876428D01*
X237036428Y-99997380D01*
X236975952Y-100178809D01*
X236250238Y-100904523D01*
X237036428Y-100904523D01*
%TO.C,J9*%
X49741666Y-98999523D02*
X49741666Y-99906666D01*
X49681190Y-100088095D01*
X49560238Y-100209047D01*
X49378809Y-100269523D01*
X49257857Y-100269523D01*
X50406904Y-100269523D02*
X50648809Y-100269523D01*
X50769761Y-100209047D01*
X50830238Y-100148571D01*
X50951190Y-99967142D01*
X51011666Y-99725238D01*
X51011666Y-99241428D01*
X50951190Y-99120476D01*
X50890714Y-99060000D01*
X50769761Y-98999523D01*
X50527857Y-98999523D01*
X50406904Y-99060000D01*
X50346428Y-99120476D01*
X50285952Y-99241428D01*
X50285952Y-99543809D01*
X50346428Y-99664761D01*
X50406904Y-99725238D01*
X50527857Y-99785714D01*
X50769761Y-99785714D01*
X50890714Y-99725238D01*
X50951190Y-99664761D01*
X51011666Y-99543809D01*
%TO.C,J3*%
X117686666Y-105984523D02*
X117686666Y-106891666D01*
X117626190Y-107073095D01*
X117505238Y-107194047D01*
X117323809Y-107254523D01*
X117202857Y-107254523D01*
X118170476Y-105984523D02*
X118956666Y-105984523D01*
X118533333Y-106468333D01*
X118714761Y-106468333D01*
X118835714Y-106528809D01*
X118896190Y-106589285D01*
X118956666Y-106710238D01*
X118956666Y-107012619D01*
X118896190Y-107133571D01*
X118835714Y-107194047D01*
X118714761Y-107254523D01*
X118351904Y-107254523D01*
X118230952Y-107194047D01*
X118170476Y-107133571D01*
%TO.C,J8*%
X209761666Y-105984523D02*
X209761666Y-106891666D01*
X209701190Y-107073095D01*
X209580238Y-107194047D01*
X209398809Y-107254523D01*
X209277857Y-107254523D01*
X210547857Y-106528809D02*
X210426904Y-106468333D01*
X210366428Y-106407857D01*
X210305952Y-106286904D01*
X210305952Y-106226428D01*
X210366428Y-106105476D01*
X210426904Y-106045000D01*
X210547857Y-105984523D01*
X210789761Y-105984523D01*
X210910714Y-106045000D01*
X210971190Y-106105476D01*
X211031666Y-106226428D01*
X211031666Y-106286904D01*
X210971190Y-106407857D01*
X210910714Y-106468333D01*
X210789761Y-106528809D01*
X210547857Y-106528809D01*
X210426904Y-106589285D01*
X210366428Y-106649761D01*
X210305952Y-106770714D01*
X210305952Y-107012619D01*
X210366428Y-107133571D01*
X210426904Y-107194047D01*
X210547857Y-107254523D01*
X210789761Y-107254523D01*
X210910714Y-107194047D01*
X210971190Y-107133571D01*
X211031666Y-107012619D01*
X211031666Y-106770714D01*
X210971190Y-106649761D01*
X210910714Y-106589285D01*
X210789761Y-106528809D01*
%TO.C,J14*%
X224396904Y-128844523D02*
X224396904Y-129751666D01*
X224336428Y-129933095D01*
X224215476Y-130054047D01*
X224034047Y-130114523D01*
X223913095Y-130114523D01*
X225666904Y-130114523D02*
X224941190Y-130114523D01*
X225304047Y-130114523D02*
X225304047Y-128844523D01*
X225183095Y-129025952D01*
X225062142Y-129146904D01*
X224941190Y-129207380D01*
X226755476Y-129267857D02*
X226755476Y-130114523D01*
X226453095Y-128784047D02*
X226150714Y-129691190D01*
X226936904Y-129691190D01*
%TO.C,J13*%
X186296904Y-136464523D02*
X186296904Y-137371666D01*
X186236428Y-137553095D01*
X186115476Y-137674047D01*
X185934047Y-137734523D01*
X185813095Y-137734523D01*
X187566904Y-137734523D02*
X186841190Y-137734523D01*
X187204047Y-137734523D02*
X187204047Y-136464523D01*
X187083095Y-136645952D01*
X186962142Y-136766904D01*
X186841190Y-136827380D01*
X187990238Y-136464523D02*
X188776428Y-136464523D01*
X188353095Y-136948333D01*
X188534523Y-136948333D01*
X188655476Y-137008809D01*
X188715952Y-137069285D01*
X188776428Y-137190238D01*
X188776428Y-137492619D01*
X188715952Y-137613571D01*
X188655476Y-137674047D01*
X188534523Y-137734523D01*
X188171666Y-137734523D01*
X188050714Y-137674047D01*
X187990238Y-137613571D01*
%TO.C,J11*%
X52819904Y-111064523D02*
X52819904Y-111971666D01*
X52759428Y-112153095D01*
X52638476Y-112274047D01*
X52457047Y-112334523D01*
X52336095Y-112334523D01*
X54089904Y-112334523D02*
X53364190Y-112334523D01*
X53727047Y-112334523D02*
X53727047Y-111064523D01*
X53606095Y-111245952D01*
X53485142Y-111366904D01*
X53364190Y-111427380D01*
X55299428Y-112334523D02*
X54573714Y-112334523D01*
X54936571Y-112334523D02*
X54936571Y-111064523D01*
X54815619Y-111245952D01*
X54694666Y-111366904D01*
X54573714Y-111427380D01*
%TO.C,J10*%
X85966904Y-121859523D02*
X85966904Y-122766666D01*
X85906428Y-122948095D01*
X85785476Y-123069047D01*
X85604047Y-123129523D01*
X85483095Y-123129523D01*
X87236904Y-123129523D02*
X86511190Y-123129523D01*
X86874047Y-123129523D02*
X86874047Y-121859523D01*
X86753095Y-122040952D01*
X86632142Y-122161904D01*
X86511190Y-122222380D01*
X88023095Y-121859523D02*
X88144047Y-121859523D01*
X88265000Y-121920000D01*
X88325476Y-121980476D01*
X88385952Y-122101428D01*
X88446428Y-122343333D01*
X88446428Y-122645714D01*
X88385952Y-122887619D01*
X88325476Y-123008571D01*
X88265000Y-123069047D01*
X88144047Y-123129523D01*
X88023095Y-123129523D01*
X87902142Y-123069047D01*
X87841666Y-123008571D01*
X87781190Y-122887619D01*
X87720714Y-122645714D01*
X87720714Y-122343333D01*
X87781190Y-122101428D01*
X87841666Y-121980476D01*
X87902142Y-121920000D01*
X88023095Y-121859523D01*
%TO.C,J7*%
X191346666Y-105984523D02*
X191346666Y-106891666D01*
X191286190Y-107073095D01*
X191165238Y-107194047D01*
X190983809Y-107254523D01*
X190862857Y-107254523D01*
X191830476Y-105984523D02*
X192677142Y-105984523D01*
X192132857Y-107254523D01*
%TO.C,J6*%
X172296666Y-105984523D02*
X172296666Y-106891666D01*
X172236190Y-107073095D01*
X172115238Y-107194047D01*
X171933809Y-107254523D01*
X171812857Y-107254523D01*
X173445714Y-105984523D02*
X173203809Y-105984523D01*
X173082857Y-106045000D01*
X173022380Y-106105476D01*
X172901428Y-106286904D01*
X172840952Y-106528809D01*
X172840952Y-107012619D01*
X172901428Y-107133571D01*
X172961904Y-107194047D01*
X173082857Y-107254523D01*
X173324761Y-107254523D01*
X173445714Y-107194047D01*
X173506190Y-107133571D01*
X173566666Y-107012619D01*
X173566666Y-106710238D01*
X173506190Y-106589285D01*
X173445714Y-106528809D01*
X173324761Y-106468333D01*
X173082857Y-106468333D01*
X172961904Y-106528809D01*
X172901428Y-106589285D01*
X172840952Y-106710238D01*
%TO.C,J5*%
X154516666Y-105984523D02*
X154516666Y-106891666D01*
X154456190Y-107073095D01*
X154335238Y-107194047D01*
X154153809Y-107254523D01*
X154032857Y-107254523D01*
X155726190Y-105984523D02*
X155121428Y-105984523D01*
X155060952Y-106589285D01*
X155121428Y-106528809D01*
X155242380Y-106468333D01*
X155544761Y-106468333D01*
X155665714Y-106528809D01*
X155726190Y-106589285D01*
X155786666Y-106710238D01*
X155786666Y-107012619D01*
X155726190Y-107133571D01*
X155665714Y-107194047D01*
X155544761Y-107254523D01*
X155242380Y-107254523D01*
X155121428Y-107194047D01*
X155060952Y-107133571D01*
%TO.C,J4*%
X136101666Y-105984523D02*
X136101666Y-106891666D01*
X136041190Y-107073095D01*
X135920238Y-107194047D01*
X135738809Y-107254523D01*
X135617857Y-107254523D01*
X137250714Y-106407857D02*
X137250714Y-107254523D01*
X136948333Y-105924047D02*
X136645952Y-106831190D01*
X137432142Y-106831190D01*
%TO.C,J2*%
X99271666Y-105984523D02*
X99271666Y-106891666D01*
X99211190Y-107073095D01*
X99090238Y-107194047D01*
X98908809Y-107254523D01*
X98787857Y-107254523D01*
X99815952Y-106105476D02*
X99876428Y-106045000D01*
X99997380Y-105984523D01*
X100299761Y-105984523D01*
X100420714Y-106045000D01*
X100481190Y-106105476D01*
X100541666Y-106226428D01*
X100541666Y-106347380D01*
X100481190Y-106528809D01*
X99755476Y-107254523D01*
X100541666Y-107254523D01*
%TO.C,J1*%
X80856666Y-105984523D02*
X80856666Y-106891666D01*
X80796190Y-107073095D01*
X80675238Y-107194047D01*
X80493809Y-107254523D01*
X80372857Y-107254523D01*
X82126666Y-107254523D02*
X81400952Y-107254523D01*
X81763809Y-107254523D02*
X81763809Y-105984523D01*
X81642857Y-106165952D01*
X81521904Y-106286904D01*
X81400952Y-106347380D01*
%TO.C,R1*%
X101388333Y-135829523D02*
X100965000Y-135224761D01*
X100662619Y-135829523D02*
X100662619Y-134559523D01*
X101146428Y-134559523D01*
X101267380Y-134620000D01*
X101327857Y-134680476D01*
X101388333Y-134801428D01*
X101388333Y-134982857D01*
X101327857Y-135103809D01*
X101267380Y-135164285D01*
X101146428Y-135224761D01*
X100662619Y-135224761D01*
X102597857Y-135829523D02*
X101872142Y-135829523D01*
X102235000Y-135829523D02*
X102235000Y-134559523D01*
X102114047Y-134740952D01*
X101993095Y-134861904D01*
X101872142Y-134922380D01*
%TO.C,R2*%
X55668333Y-122494523D02*
X55245000Y-121889761D01*
X54942619Y-122494523D02*
X54942619Y-121224523D01*
X55426428Y-121224523D01*
X55547380Y-121285000D01*
X55607857Y-121345476D01*
X55668333Y-121466428D01*
X55668333Y-121647857D01*
X55607857Y-121768809D01*
X55547380Y-121829285D01*
X55426428Y-121889761D01*
X54942619Y-121889761D01*
X56152142Y-121345476D02*
X56212619Y-121285000D01*
X56333571Y-121224523D01*
X56635952Y-121224523D01*
X56756904Y-121285000D01*
X56817380Y-121345476D01*
X56877857Y-121466428D01*
X56877857Y-121587380D01*
X56817380Y-121768809D01*
X56091666Y-122494523D01*
X56877857Y-122494523D01*
%TO.C,R3*%
X58208333Y-105349523D02*
X57785000Y-104744761D01*
X57482619Y-105349523D02*
X57482619Y-104079523D01*
X57966428Y-104079523D01*
X58087380Y-104140000D01*
X58147857Y-104200476D01*
X58208333Y-104321428D01*
X58208333Y-104502857D01*
X58147857Y-104623809D01*
X58087380Y-104684285D01*
X57966428Y-104744761D01*
X57482619Y-104744761D01*
X58631666Y-104079523D02*
X59417857Y-104079523D01*
X58994523Y-104563333D01*
X59175952Y-104563333D01*
X59296904Y-104623809D01*
X59357380Y-104684285D01*
X59417857Y-104805238D01*
X59417857Y-105107619D01*
X59357380Y-105228571D01*
X59296904Y-105289047D01*
X59175952Y-105349523D01*
X58813095Y-105349523D01*
X58692142Y-105289047D01*
X58631666Y-105228571D01*
%TO.C,R4*%
X63288333Y-120589523D02*
X62865000Y-119984761D01*
X62562619Y-120589523D02*
X62562619Y-119319523D01*
X63046428Y-119319523D01*
X63167380Y-119380000D01*
X63227857Y-119440476D01*
X63288333Y-119561428D01*
X63288333Y-119742857D01*
X63227857Y-119863809D01*
X63167380Y-119924285D01*
X63046428Y-119984761D01*
X62562619Y-119984761D01*
X64376904Y-119742857D02*
X64376904Y-120589523D01*
X64074523Y-119259047D02*
X63772142Y-120166190D01*
X64558333Y-120166190D01*
%TO.C,R5*%
X210608333Y-109159523D02*
X210185000Y-108554761D01*
X209882619Y-109159523D02*
X209882619Y-107889523D01*
X210366428Y-107889523D01*
X210487380Y-107950000D01*
X210547857Y-108010476D01*
X210608333Y-108131428D01*
X210608333Y-108312857D01*
X210547857Y-108433809D01*
X210487380Y-108494285D01*
X210366428Y-108554761D01*
X209882619Y-108554761D01*
X211757380Y-107889523D02*
X211152619Y-107889523D01*
X211092142Y-108494285D01*
X211152619Y-108433809D01*
X211273571Y-108373333D01*
X211575952Y-108373333D01*
X211696904Y-108433809D01*
X211757380Y-108494285D01*
X211817857Y-108615238D01*
X211817857Y-108917619D01*
X211757380Y-109038571D01*
X211696904Y-109099047D01*
X211575952Y-109159523D01*
X211273571Y-109159523D01*
X211152619Y-109099047D01*
X211092142Y-109038571D01*
%TO.C,R6*%
X73448333Y-120589523D02*
X73025000Y-119984761D01*
X72722619Y-120589523D02*
X72722619Y-119319523D01*
X73206428Y-119319523D01*
X73327380Y-119380000D01*
X73387857Y-119440476D01*
X73448333Y-119561428D01*
X73448333Y-119742857D01*
X73387857Y-119863809D01*
X73327380Y-119924285D01*
X73206428Y-119984761D01*
X72722619Y-119984761D01*
X74536904Y-119319523D02*
X74295000Y-119319523D01*
X74174047Y-119380000D01*
X74113571Y-119440476D01*
X73992619Y-119621904D01*
X73932142Y-119863809D01*
X73932142Y-120347619D01*
X73992619Y-120468571D01*
X74053095Y-120529047D01*
X74174047Y-120589523D01*
X74415952Y-120589523D01*
X74536904Y-120529047D01*
X74597380Y-120468571D01*
X74657857Y-120347619D01*
X74657857Y-120045238D01*
X74597380Y-119924285D01*
X74536904Y-119863809D01*
X74415952Y-119803333D01*
X74174047Y-119803333D01*
X74053095Y-119863809D01*
X73992619Y-119924285D01*
X73932142Y-120045238D01*
%TO.C,R7*%
X86148333Y-120589523D02*
X85725000Y-119984761D01*
X85422619Y-120589523D02*
X85422619Y-119319523D01*
X85906428Y-119319523D01*
X86027380Y-119380000D01*
X86087857Y-119440476D01*
X86148333Y-119561428D01*
X86148333Y-119742857D01*
X86087857Y-119863809D01*
X86027380Y-119924285D01*
X85906428Y-119984761D01*
X85422619Y-119984761D01*
X86571666Y-119319523D02*
X87418333Y-119319523D01*
X86874047Y-120589523D01*
%TO.C,R8*%
X110278333Y-120589523D02*
X109855000Y-119984761D01*
X109552619Y-120589523D02*
X109552619Y-119319523D01*
X110036428Y-119319523D01*
X110157380Y-119380000D01*
X110217857Y-119440476D01*
X110278333Y-119561428D01*
X110278333Y-119742857D01*
X110217857Y-119863809D01*
X110157380Y-119924285D01*
X110036428Y-119984761D01*
X109552619Y-119984761D01*
X111004047Y-119863809D02*
X110883095Y-119803333D01*
X110822619Y-119742857D01*
X110762142Y-119621904D01*
X110762142Y-119561428D01*
X110822619Y-119440476D01*
X110883095Y-119380000D01*
X111004047Y-119319523D01*
X111245952Y-119319523D01*
X111366904Y-119380000D01*
X111427380Y-119440476D01*
X111487857Y-119561428D01*
X111487857Y-119621904D01*
X111427380Y-119742857D01*
X111366904Y-119803333D01*
X111245952Y-119863809D01*
X111004047Y-119863809D01*
X110883095Y-119924285D01*
X110822619Y-119984761D01*
X110762142Y-120105714D01*
X110762142Y-120347619D01*
X110822619Y-120468571D01*
X110883095Y-120529047D01*
X111004047Y-120589523D01*
X111245952Y-120589523D01*
X111366904Y-120529047D01*
X111427380Y-120468571D01*
X111487857Y-120347619D01*
X111487857Y-120105714D01*
X111427380Y-119984761D01*
X111366904Y-119924285D01*
X111245952Y-119863809D01*
%TO.C,R9*%
X122978333Y-120589523D02*
X122555000Y-119984761D01*
X122252619Y-120589523D02*
X122252619Y-119319523D01*
X122736428Y-119319523D01*
X122857380Y-119380000D01*
X122917857Y-119440476D01*
X122978333Y-119561428D01*
X122978333Y-119742857D01*
X122917857Y-119863809D01*
X122857380Y-119924285D01*
X122736428Y-119984761D01*
X122252619Y-119984761D01*
X123583095Y-120589523D02*
X123825000Y-120589523D01*
X123945952Y-120529047D01*
X124006428Y-120468571D01*
X124127380Y-120287142D01*
X124187857Y-120045238D01*
X124187857Y-119561428D01*
X124127380Y-119440476D01*
X124066904Y-119380000D01*
X123945952Y-119319523D01*
X123704047Y-119319523D01*
X123583095Y-119380000D01*
X123522619Y-119440476D01*
X123462142Y-119561428D01*
X123462142Y-119863809D01*
X123522619Y-119984761D01*
X123583095Y-120045238D01*
X123704047Y-120105714D01*
X123945952Y-120105714D01*
X124066904Y-120045238D01*
X124127380Y-119984761D01*
X124187857Y-119863809D01*
%TO.C,R10*%
X145868571Y-120589523D02*
X145445238Y-119984761D01*
X145142857Y-120589523D02*
X145142857Y-119319523D01*
X145626666Y-119319523D01*
X145747619Y-119380000D01*
X145808095Y-119440476D01*
X145868571Y-119561428D01*
X145868571Y-119742857D01*
X145808095Y-119863809D01*
X145747619Y-119924285D01*
X145626666Y-119984761D01*
X145142857Y-119984761D01*
X147078095Y-120589523D02*
X146352380Y-120589523D01*
X146715238Y-120589523D02*
X146715238Y-119319523D01*
X146594285Y-119500952D01*
X146473333Y-119621904D01*
X146352380Y-119682380D01*
X147864285Y-119319523D02*
X147985238Y-119319523D01*
X148106190Y-119380000D01*
X148166666Y-119440476D01*
X148227142Y-119561428D01*
X148287619Y-119803333D01*
X148287619Y-120105714D01*
X148227142Y-120347619D01*
X148166666Y-120468571D01*
X148106190Y-120529047D01*
X147985238Y-120589523D01*
X147864285Y-120589523D01*
X147743333Y-120529047D01*
X147682857Y-120468571D01*
X147622380Y-120347619D01*
X147561904Y-120105714D01*
X147561904Y-119803333D01*
X147622380Y-119561428D01*
X147682857Y-119440476D01*
X147743333Y-119380000D01*
X147864285Y-119319523D01*
%TO.C,R11*%
X158568571Y-120589523D02*
X158145238Y-119984761D01*
X157842857Y-120589523D02*
X157842857Y-119319523D01*
X158326666Y-119319523D01*
X158447619Y-119380000D01*
X158508095Y-119440476D01*
X158568571Y-119561428D01*
X158568571Y-119742857D01*
X158508095Y-119863809D01*
X158447619Y-119924285D01*
X158326666Y-119984761D01*
X157842857Y-119984761D01*
X159778095Y-120589523D02*
X159052380Y-120589523D01*
X159415238Y-120589523D02*
X159415238Y-119319523D01*
X159294285Y-119500952D01*
X159173333Y-119621904D01*
X159052380Y-119682380D01*
X160987619Y-120589523D02*
X160261904Y-120589523D01*
X160624761Y-120589523D02*
X160624761Y-119319523D01*
X160503809Y-119500952D01*
X160382857Y-119621904D01*
X160261904Y-119682380D01*
%TO.C,R12*%
X182698571Y-120589523D02*
X182275238Y-119984761D01*
X181972857Y-120589523D02*
X181972857Y-119319523D01*
X182456666Y-119319523D01*
X182577619Y-119380000D01*
X182638095Y-119440476D01*
X182698571Y-119561428D01*
X182698571Y-119742857D01*
X182638095Y-119863809D01*
X182577619Y-119924285D01*
X182456666Y-119984761D01*
X181972857Y-119984761D01*
X183908095Y-120589523D02*
X183182380Y-120589523D01*
X183545238Y-120589523D02*
X183545238Y-119319523D01*
X183424285Y-119500952D01*
X183303333Y-119621904D01*
X183182380Y-119682380D01*
X184391904Y-119440476D02*
X184452380Y-119380000D01*
X184573333Y-119319523D01*
X184875714Y-119319523D01*
X184996666Y-119380000D01*
X185057142Y-119440476D01*
X185117619Y-119561428D01*
X185117619Y-119682380D01*
X185057142Y-119863809D01*
X184331428Y-120589523D01*
X185117619Y-120589523D01*
%TO.C,R13*%
X195398571Y-120589523D02*
X194975238Y-119984761D01*
X194672857Y-120589523D02*
X194672857Y-119319523D01*
X195156666Y-119319523D01*
X195277619Y-119380000D01*
X195338095Y-119440476D01*
X195398571Y-119561428D01*
X195398571Y-119742857D01*
X195338095Y-119863809D01*
X195277619Y-119924285D01*
X195156666Y-119984761D01*
X194672857Y-119984761D01*
X196608095Y-120589523D02*
X195882380Y-120589523D01*
X196245238Y-120589523D02*
X196245238Y-119319523D01*
X196124285Y-119500952D01*
X196003333Y-119621904D01*
X195882380Y-119682380D01*
X197031428Y-119319523D02*
X197817619Y-119319523D01*
X197394285Y-119803333D01*
X197575714Y-119803333D01*
X197696666Y-119863809D01*
X197757142Y-119924285D01*
X197817619Y-120045238D01*
X197817619Y-120347619D01*
X197757142Y-120468571D01*
X197696666Y-120529047D01*
X197575714Y-120589523D01*
X197212857Y-120589523D01*
X197091904Y-120529047D01*
X197031428Y-120468571D01*
%TD*%
M02*
