%TF.GenerationSoftware,KiCad,Pcbnew,(5.0.0-rc2-83-gda392728d)*%
%TF.CreationDate,2018-06-05T23:32:54-04:00*%
%TF.ProjectId,I&O_Epander,49264F5F4570616E6465722E6B696361,1.0.2*%
%TF.SameCoordinates,Original*%
%TF.FileFunction,Soldermask,Top*%
%TF.FilePolarity,Negative*%
%FSLAX46Y46*%
G04 Gerber Fmt 4.6, Leading zero omitted, Abs format (unit mm)*
G04 Created by KiCad (PCBNEW (5.0.0-rc2-83-gda392728d)) date 06/05/18 23:32:54*
%MOMM*%
%LPD*%
G01*
G04 APERTURE LIST*
%ADD10C,1.221600*%
%ADD11R,1.221600X1.221600*%
%ADD12C,1.501600*%
%ADD13R,1.501600X1.501600*%
%ADD14C,1.300480*%
%ADD15R,1.221740X1.221740*%
%ADD16C,1.511600*%
%ADD17R,1.511600X1.511600*%
%ADD18C,3.361600*%
%ADD19C,3.601600*%
%ADD20R,4.601600X4.601600*%
%ADD21C,3.271600*%
%ADD22C,1.541600*%
%ADD23R,1.541600X1.541600*%
%ADD24R,0.863600X0.863600*%
%ADD25R,8.041600X8.041600*%
%ADD26R,1.631600X1.631600*%
%ADD27C,1.631600*%
%ADD28R,1.209040X1.209040*%
%ADD29C,1.209040*%
G04 APERTURE END LIST*
D10*
%TO.C,C11*%
X60325000Y-93980000D03*
D11*
X60325000Y-96520000D03*
%TD*%
D12*
%TO.C,U6*%
X186690000Y-109855000D03*
X189230000Y-109855000D03*
X191770000Y-109855000D03*
X194310000Y-109855000D03*
X196850000Y-109855000D03*
X199390000Y-109855000D03*
X201930000Y-109855000D03*
X204470000Y-109855000D03*
X204470000Y-117475000D03*
X201930000Y-117475000D03*
X199390000Y-117475000D03*
X196850000Y-117475000D03*
X194310000Y-117475000D03*
X191770000Y-117475000D03*
X189230000Y-117475000D03*
D13*
X186690000Y-117475000D03*
%TD*%
D12*
%TO.C,U5*%
X149860000Y-109855000D03*
X152400000Y-109855000D03*
X154940000Y-109855000D03*
X157480000Y-109855000D03*
X160020000Y-109855000D03*
X162560000Y-109855000D03*
X165100000Y-109855000D03*
X167640000Y-109855000D03*
X167640000Y-117475000D03*
X165100000Y-117475000D03*
X162560000Y-117475000D03*
X160020000Y-117475000D03*
X157480000Y-117475000D03*
X154940000Y-117475000D03*
X152400000Y-117475000D03*
D13*
X149860000Y-117475000D03*
%TD*%
D12*
%TO.C,U4*%
X113030000Y-109855000D03*
X115570000Y-109855000D03*
X118110000Y-109855000D03*
X120650000Y-109855000D03*
X123190000Y-109855000D03*
X125730000Y-109855000D03*
X128270000Y-109855000D03*
X130810000Y-109855000D03*
X130810000Y-117475000D03*
X128270000Y-117475000D03*
X125730000Y-117475000D03*
X123190000Y-117475000D03*
X120650000Y-117475000D03*
X118110000Y-117475000D03*
X115570000Y-117475000D03*
D13*
X113030000Y-117475000D03*
%TD*%
D12*
%TO.C,U3*%
X76200000Y-109855000D03*
X78740000Y-109855000D03*
X81280000Y-109855000D03*
X83820000Y-109855000D03*
X86360000Y-109855000D03*
X88900000Y-109855000D03*
X91440000Y-109855000D03*
X93980000Y-109855000D03*
X93980000Y-117475000D03*
X91440000Y-117475000D03*
X88900000Y-117475000D03*
X86360000Y-117475000D03*
X83820000Y-117475000D03*
X81280000Y-117475000D03*
X78740000Y-117475000D03*
D13*
X76200000Y-117475000D03*
%TD*%
D12*
%TO.C,U2*%
X114300000Y-129540000D03*
X116840000Y-129540000D03*
X119380000Y-129540000D03*
X121920000Y-129540000D03*
X124460000Y-129540000D03*
X127000000Y-129540000D03*
X129540000Y-129540000D03*
X132080000Y-129540000D03*
X132080000Y-137160000D03*
X129540000Y-137160000D03*
X127000000Y-137160000D03*
X124460000Y-137160000D03*
X121920000Y-137160000D03*
X119380000Y-137160000D03*
X116840000Y-137160000D03*
D13*
X114300000Y-137160000D03*
%TD*%
D12*
%TO.C,U1*%
X147320000Y-129540000D03*
X149860000Y-129540000D03*
X152400000Y-129540000D03*
X154940000Y-129540000D03*
X157480000Y-129540000D03*
X160020000Y-129540000D03*
X162560000Y-129540000D03*
X165100000Y-129540000D03*
X165100000Y-137160000D03*
X162560000Y-137160000D03*
X160020000Y-137160000D03*
X157480000Y-137160000D03*
X154940000Y-137160000D03*
X152400000Y-137160000D03*
X149860000Y-137160000D03*
D13*
X147320000Y-137160000D03*
%TD*%
D12*
%TO.C,U10*%
X213360000Y-110490000D03*
X215900000Y-110490000D03*
X218440000Y-110490000D03*
X220980000Y-110490000D03*
X220980000Y-118110000D03*
X218440000Y-118110000D03*
X215900000Y-118110000D03*
D13*
X213360000Y-118110000D03*
%TD*%
D12*
%TO.C,U9*%
X213360000Y-121920000D03*
X215900000Y-121920000D03*
X218440000Y-121920000D03*
X220980000Y-121920000D03*
X220980000Y-129540000D03*
X218440000Y-129540000D03*
X215900000Y-129540000D03*
D13*
X213360000Y-129540000D03*
%TD*%
D12*
%TO.C,U8*%
X58420000Y-109220000D03*
X60960000Y-109220000D03*
X63500000Y-109220000D03*
X66040000Y-109220000D03*
X66040000Y-116840000D03*
X63500000Y-116840000D03*
X60960000Y-116840000D03*
D13*
X58420000Y-116840000D03*
%TD*%
D12*
%TO.C,U7*%
X58420000Y-124460000D03*
X60960000Y-124460000D03*
X63500000Y-124460000D03*
X66040000Y-124460000D03*
X66040000Y-132080000D03*
X63500000Y-132080000D03*
X60960000Y-132080000D03*
D13*
X58420000Y-132080000D03*
%TD*%
D14*
%TO.C,C17*%
X187960000Y-129540000D03*
D15*
X187960000Y-132080000D03*
%TD*%
D14*
%TO.C,C15*%
X223520000Y-93980000D03*
D15*
X223520000Y-96520000D03*
%TD*%
D14*
%TO.C,C14*%
X88900000Y-132080000D03*
D15*
X88900000Y-129540000D03*
%TD*%
D14*
%TO.C,C12*%
X55880000Y-93980000D03*
D15*
X55880000Y-96520000D03*
%TD*%
D14*
%TO.C,C10*%
X210820000Y-115570000D03*
D15*
X210820000Y-118110000D03*
%TD*%
D14*
%TO.C,C9*%
X210820000Y-127000000D03*
D15*
X210820000Y-129540000D03*
%TD*%
D14*
%TO.C,C8*%
X55880000Y-114300000D03*
D15*
X55880000Y-116840000D03*
%TD*%
D14*
%TO.C,C7*%
X55880000Y-129540000D03*
D15*
X55880000Y-132080000D03*
%TD*%
D14*
%TO.C,C6*%
X184150000Y-112395000D03*
D15*
X184150000Y-109855000D03*
%TD*%
D14*
%TO.C,C5*%
X147320000Y-112395000D03*
D15*
X147320000Y-109855000D03*
%TD*%
D14*
%TO.C,C4*%
X110490000Y-112395000D03*
D15*
X110490000Y-109855000D03*
%TD*%
D14*
%TO.C,C3*%
X73660000Y-112395000D03*
D15*
X73660000Y-109855000D03*
%TD*%
D14*
%TO.C,C2*%
X116840000Y-127000000D03*
D15*
X114300000Y-127000000D03*
%TD*%
D14*
%TO.C,C1*%
X144145000Y-132080000D03*
D15*
X144145000Y-129540000D03*
%TD*%
D10*
%TO.C,C18*%
X184150000Y-129540000D03*
D11*
X184150000Y-132080000D03*
%TD*%
D10*
%TO.C,C16*%
X218440000Y-93980000D03*
D11*
X218440000Y-96520000D03*
%TD*%
D10*
%TO.C,C13*%
X92710000Y-132080000D03*
D11*
X92710000Y-129540000D03*
%TD*%
D16*
%TO.C,Q1*%
X111760000Y-134620000D03*
X109918500Y-132549750D03*
D17*
X108077000Y-134620000D03*
%TD*%
D18*
%TO.C,MH2*%
X236220000Y-134620000D03*
%TD*%
%TO.C,MH3*%
X236220000Y-106680000D03*
%TD*%
%TO.C,MH4*%
X43180000Y-106680000D03*
%TD*%
D19*
%TO.C,J12*%
X233940000Y-92760000D03*
X236740000Y-95560000D03*
D20*
X231140000Y-99060000D03*
%TD*%
D19*
%TO.C,J9*%
X48520000Y-92580000D03*
X51320000Y-95380000D03*
D20*
X45720000Y-98880000D03*
%TD*%
D21*
%TO.C,J3*%
X118105000Y-95885000D03*
X106675000Y-95885000D03*
D22*
X107950000Y-104775000D03*
X109220000Y-102235000D03*
X110490000Y-104775000D03*
X111760000Y-102235000D03*
X113030000Y-104775000D03*
X114300000Y-102235000D03*
X115570000Y-104775000D03*
D23*
X116840000Y-102235000D03*
%TD*%
D21*
%TO.C,J8*%
X210180000Y-95885000D03*
X198750000Y-95885000D03*
D22*
X200025000Y-104775000D03*
X201295000Y-102235000D03*
X202565000Y-104775000D03*
X203835000Y-102235000D03*
X205105000Y-104775000D03*
X206375000Y-102235000D03*
X207645000Y-104775000D03*
D23*
X208915000Y-102235000D03*
%TD*%
D21*
%TO.C,J14*%
X234950000Y-125725000D03*
X234950000Y-114295000D03*
D22*
X226060000Y-115570000D03*
X228600000Y-116840000D03*
X226060000Y-118110000D03*
X228600000Y-119380000D03*
X226060000Y-120650000D03*
X228600000Y-121920000D03*
X226060000Y-123190000D03*
D23*
X228600000Y-124460000D03*
%TD*%
D21*
%TO.C,J13*%
X199390000Y-135885000D03*
X199390000Y-124455000D03*
D22*
X190500000Y-125730000D03*
X193040000Y-127000000D03*
X190500000Y-128270000D03*
X193040000Y-129540000D03*
X190500000Y-130810000D03*
X193040000Y-132080000D03*
X190500000Y-133350000D03*
D23*
X193040000Y-134620000D03*
%TD*%
D21*
%TO.C,J11*%
X44450000Y-115575000D03*
X44450000Y-127005000D03*
D22*
X53340000Y-125730000D03*
X50800000Y-124460000D03*
X53340000Y-123190000D03*
X50800000Y-121920000D03*
X53340000Y-120650000D03*
X50800000Y-119380000D03*
X53340000Y-118110000D03*
D23*
X50800000Y-116840000D03*
%TD*%
D21*
%TO.C,J10*%
X77470000Y-125735000D03*
X77470000Y-137165000D03*
D22*
X86360000Y-135890000D03*
X83820000Y-134620000D03*
X86360000Y-133350000D03*
X83820000Y-132080000D03*
X86360000Y-130810000D03*
X83820000Y-129540000D03*
X86360000Y-128270000D03*
D23*
X83820000Y-127000000D03*
%TD*%
D21*
%TO.C,J7*%
X191765000Y-95885000D03*
X180335000Y-95885000D03*
D22*
X181610000Y-104775000D03*
X182880000Y-102235000D03*
X184150000Y-104775000D03*
X185420000Y-102235000D03*
X186690000Y-104775000D03*
X187960000Y-102235000D03*
X189230000Y-104775000D03*
D23*
X190500000Y-102235000D03*
%TD*%
D21*
%TO.C,J6*%
X173350000Y-95885000D03*
X161920000Y-95885000D03*
D22*
X163195000Y-104775000D03*
X164465000Y-102235000D03*
X165735000Y-104775000D03*
X167005000Y-102235000D03*
X168275000Y-104775000D03*
X169545000Y-102235000D03*
X170815000Y-104775000D03*
D23*
X172085000Y-102235000D03*
%TD*%
D21*
%TO.C,J5*%
X154935000Y-95885000D03*
X143505000Y-95885000D03*
D22*
X144780000Y-104775000D03*
X146050000Y-102235000D03*
X147320000Y-104775000D03*
X148590000Y-102235000D03*
X149860000Y-104775000D03*
X151130000Y-102235000D03*
X152400000Y-104775000D03*
D23*
X153670000Y-102235000D03*
%TD*%
D21*
%TO.C,J4*%
X136520000Y-95885000D03*
X125090000Y-95885000D03*
D22*
X126365000Y-104775000D03*
X127635000Y-102235000D03*
X128905000Y-104775000D03*
X130175000Y-102235000D03*
X131445000Y-104775000D03*
X132715000Y-102235000D03*
X133985000Y-104775000D03*
D23*
X135255000Y-102235000D03*
%TD*%
D21*
%TO.C,J2*%
X99690000Y-95885000D03*
X88260000Y-95885000D03*
D22*
X89535000Y-104775000D03*
X90805000Y-102235000D03*
X92075000Y-104775000D03*
X93345000Y-102235000D03*
X94615000Y-104775000D03*
X95885000Y-102235000D03*
X97155000Y-104775000D03*
D23*
X98425000Y-102235000D03*
%TD*%
D21*
%TO.C,J1*%
X81275000Y-95885000D03*
X69845000Y-95885000D03*
D22*
X71120000Y-104775000D03*
X72390000Y-102235000D03*
X73660000Y-104775000D03*
X74930000Y-102235000D03*
X76200000Y-104775000D03*
X77470000Y-102235000D03*
X78740000Y-104775000D03*
D23*
X80010000Y-102235000D03*
%TD*%
D24*
%TO.C,MH1*%
X39624000Y-138176000D03*
X39624000Y-134620000D03*
X39624000Y-131064000D03*
X43180000Y-131064000D03*
X46736000Y-131064000D03*
X46736000Y-134620000D03*
X46736000Y-138176000D03*
X43180000Y-138176000D03*
D25*
X43180000Y-134620000D03*
%TD*%
D26*
%TO.C,R1*%
X101600000Y-137160000D03*
D27*
X111760000Y-137160000D03*
%TD*%
D28*
%TO.C,R2*%
X58420000Y-121920000D03*
D29*
X60960000Y-121920000D03*
%TD*%
D28*
%TO.C,R3*%
X58420000Y-106680000D03*
D29*
X60960000Y-106680000D03*
%TD*%
D28*
%TO.C,R4*%
X63500000Y-121920000D03*
D29*
X66040000Y-121920000D03*
%TD*%
D28*
%TO.C,R5*%
X213360000Y-107950000D03*
D29*
X215900000Y-107950000D03*
%TD*%
D28*
%TO.C,R6*%
X76200000Y-120015000D03*
D29*
X78740000Y-120015000D03*
%TD*%
D28*
%TO.C,R7*%
X88900000Y-120015000D03*
D29*
X91440000Y-120015000D03*
%TD*%
D28*
%TO.C,R8*%
X113030000Y-120015000D03*
D29*
X115570000Y-120015000D03*
%TD*%
D28*
%TO.C,R9*%
X125730000Y-120015000D03*
D29*
X128270000Y-120015000D03*
%TD*%
D28*
%TO.C,R10*%
X149860000Y-120015000D03*
D29*
X152400000Y-120015000D03*
%TD*%
D28*
%TO.C,R11*%
X162560000Y-120015000D03*
D29*
X165100000Y-120015000D03*
%TD*%
D28*
%TO.C,R12*%
X186690000Y-120015000D03*
D29*
X189230000Y-120015000D03*
%TD*%
D28*
%TO.C,R13*%
X199390000Y-120015000D03*
D29*
X201930000Y-120015000D03*
%TD*%
M02*
