%FSLAX45Y45*%
G04 Gerber Fmt 4.5, Leading zero omitted, Abs format (unit mm)*
G04 Created by KiCad (PCBNEW (5.0.0-rc2-83-gda392728d)) date 06/05/18 23:34:11*
%MOMM*%
%LPD*%
G01*
G04 APERTURE LIST*
%ADD10C,0.100000*%
%ADD11C,0.200000*%
%ADD12C,0.300000*%
G04 APERTURE END LIST*
D10*
X24130000Y-8890000D02*
X3810000Y-8890000D01*
X24130000Y-13970000D02*
X24130000Y-8890000D01*
X3810000Y-13970000D02*
X24130000Y-13970000D01*
X3810000Y-8890000D02*
X3810000Y-13970000D01*
D11*
X3947160Y-13091160D02*
X3977640Y-13121640D01*
X3977640Y-13091160D02*
X3947160Y-13121640D01*
X3947160Y-13446760D02*
X3977640Y-13477240D01*
X3977640Y-13446760D02*
X3947160Y-13477240D01*
X3947160Y-13802360D02*
X3977640Y-13832840D01*
X3977640Y-13802360D02*
X3947160Y-13832840D01*
X4302760Y-13091160D02*
X4333240Y-13121640D01*
X4333240Y-13091160D02*
X4302760Y-13121640D01*
X4302760Y-13802360D02*
X4333240Y-13832840D01*
X4333240Y-13802360D02*
X4302760Y-13832840D01*
X4658360Y-13091160D02*
X4688840Y-13121640D01*
X4688840Y-13091160D02*
X4658360Y-13121640D01*
X4658360Y-13446760D02*
X4688840Y-13477240D01*
X4688840Y-13446760D02*
X4658360Y-13477240D01*
X4658360Y-13802360D02*
X4688840Y-13832840D01*
X4688840Y-13802360D02*
X4658360Y-13832840D01*
X6830060Y-9906000D02*
G75*
G03X6830060Y-9906000I-19050J0D01*
G01*
X6924040Y-9906000D02*
G75*
G03X6924040Y-9906000I-19050J0D01*
G01*
X9911204Y-13753129D02*
G75*
G03X9911204Y-13753129I-19050J0D01*
G01*
X10631188Y-13544249D02*
G75*
G03X10631188Y-13544249I-19050J0D01*
G01*
X10687050Y-13753129D02*
G75*
G03X10687050Y-13753129I-19050J0D01*
G01*
X10991170Y-13753129D02*
G75*
G03X10991170Y-13753129I-19050J0D01*
G01*
X11957050Y-13335000D02*
G75*
G03X11957050Y-13335000I-19050J0D01*
G01*
X12211050Y-12251689D02*
G75*
G03X12211050Y-12251689I-19050J0D01*
G01*
X12458449Y-12500981D02*
G75*
G03X12458449Y-12500981I-19050J0D01*
G01*
X13113773Y-13585917D02*
G75*
G03X13113773Y-13585917I-19050J0D01*
G01*
X14168543Y-12541425D02*
G75*
G03X14168543Y-12541425I-19050J0D01*
G01*
X14315894Y-12604324D02*
G75*
G03X14315894Y-12604324I-19050J0D01*
G01*
X14465959Y-12665883D02*
G75*
G03X14465959Y-12665883I-19050J0D01*
G01*
X14555361Y-12778635D02*
G75*
G03X14555361Y-12778635I-19050J0D01*
G01*
X15002986Y-12280240D02*
G75*
G03X15002986Y-12280240I-19050J0D01*
G01*
X15069834Y-12351318D02*
G75*
G03X15069834Y-12351318I-19050J0D01*
G01*
X15139220Y-12430012D02*
G75*
G03X15139220Y-12430012I-19050J0D01*
G01*
X15216328Y-12499819D02*
G75*
G03X15216328Y-12499819I-19050J0D01*
G01*
X15293199Y-12622587D02*
G75*
G03X15293199Y-12622587I-19050J0D01*
G01*
X15380919Y-12788222D02*
G75*
G03X15380919Y-12788222I-19050J0D01*
G01*
X15652102Y-12782519D02*
G75*
G03X15652102Y-12782519I-19050J0D01*
G01*
X16719550Y-13462000D02*
G75*
G03X16719550Y-13462000I-19050J0D01*
G01*
X16829861Y-12446332D02*
G75*
G03X16829861Y-12446332I-19050J0D01*
G01*
X17227550Y-12954000D02*
G75*
G03X17227550Y-12954000I-19050J0D01*
G01*
X17417486Y-12320097D02*
G75*
G03X17417486Y-12320097I-19050J0D01*
G01*
X17844680Y-12467818D02*
G75*
G03X17844680Y-12467818I-19050J0D01*
G01*
X20800060Y-11684000D02*
G75*
G03X20800060Y-11684000I-19050J0D01*
G01*
X20894040Y-11684000D02*
G75*
G03X20894040Y-11684000I-19050J0D01*
G01*
X5588000Y-9362948D02*
X5588000Y-9433052D01*
X5552948Y-9398000D02*
X5623052Y-9398000D01*
X5588000Y-9616948D02*
X5588000Y-9687052D01*
X5552948Y-9652000D02*
X5623052Y-9652000D01*
X22352000Y-9362948D02*
X22352000Y-9433052D01*
X22316948Y-9398000D02*
X22387052Y-9398000D01*
X22352000Y-9616948D02*
X22352000Y-9687052D01*
X22316948Y-9652000D02*
X22387052Y-9652000D01*
X11049000Y-10950448D02*
X11049000Y-11020552D01*
X11013948Y-10985500D02*
X11084052Y-10985500D01*
X11049000Y-11204448D02*
X11049000Y-11274552D01*
X11013948Y-11239500D02*
X11084052Y-11239500D01*
X18415000Y-10950448D02*
X18415000Y-11020552D01*
X18379948Y-10985500D02*
X18450052Y-10985500D01*
X18415000Y-11204448D02*
X18415000Y-11274552D01*
X18379948Y-11239500D02*
X18450052Y-11239500D01*
X5588000Y-12918948D02*
X5588000Y-12989052D01*
X5552948Y-12954000D02*
X5623052Y-12954000D01*
X5588000Y-13172948D02*
X5588000Y-13243052D01*
X5552948Y-13208000D02*
X5623052Y-13208000D01*
X7366000Y-10950448D02*
X7366000Y-11020552D01*
X7330948Y-10985500D02*
X7401052Y-10985500D01*
X7366000Y-11204448D02*
X7366000Y-11274552D01*
X7330948Y-11239500D02*
X7401052Y-11239500D01*
X18796000Y-12918948D02*
X18796000Y-12989052D01*
X18760948Y-12954000D02*
X18831052Y-12954000D01*
X18796000Y-13172948D02*
X18796000Y-13243052D01*
X18760948Y-13208000D02*
X18831052Y-13208000D01*
X6350000Y-12156948D02*
X6350000Y-12227052D01*
X6314948Y-12192000D02*
X6385052Y-12192000D01*
X6604000Y-12156948D02*
X6604000Y-12227052D01*
X6568948Y-12192000D02*
X6639052Y-12192000D01*
X11430000Y-12664948D02*
X11430000Y-12735052D01*
X11394948Y-12700000D02*
X11465052Y-12700000D01*
X11684000Y-12664948D02*
X11684000Y-12735052D01*
X11648948Y-12700000D02*
X11719052Y-12700000D01*
X14986000Y-11966448D02*
X14986000Y-12036552D01*
X14950948Y-12001500D02*
X15021052Y-12001500D01*
X15240000Y-11966448D02*
X15240000Y-12036552D01*
X15204948Y-12001500D02*
X15275052Y-12001500D01*
X11303000Y-11966448D02*
X11303000Y-12036552D01*
X11267948Y-12001500D02*
X11338052Y-12001500D01*
X11557000Y-11966448D02*
X11557000Y-12036552D01*
X11521948Y-12001500D02*
X11592052Y-12001500D01*
X21082000Y-11521948D02*
X21082000Y-11592052D01*
X21046948Y-11557000D02*
X21117052Y-11557000D01*
X21082000Y-11775948D02*
X21082000Y-11846052D01*
X21046948Y-11811000D02*
X21117052Y-11811000D01*
X21082000Y-12664948D02*
X21082000Y-12735052D01*
X21046948Y-12700000D02*
X21117052Y-12700000D01*
X21082000Y-12918948D02*
X21082000Y-12989052D01*
X21046948Y-12954000D02*
X21117052Y-12954000D01*
X19939000Y-11966448D02*
X19939000Y-12036552D01*
X19903948Y-12001500D02*
X19974052Y-12001500D01*
X20193000Y-11966448D02*
X20193000Y-12036552D01*
X20157948Y-12001500D02*
X20228052Y-12001500D01*
X7620000Y-11966448D02*
X7620000Y-12036552D01*
X7584948Y-12001500D02*
X7655052Y-12001500D01*
X7874000Y-11966448D02*
X7874000Y-12036552D01*
X7838948Y-12001500D02*
X7909052Y-12001500D01*
X14414500Y-12918948D02*
X14414500Y-12989052D01*
X14379448Y-12954000D02*
X14449552Y-12954000D01*
X14414500Y-13172948D02*
X14414500Y-13243052D01*
X14379448Y-13208000D02*
X14449552Y-13208000D01*
X21336000Y-10759948D02*
X21336000Y-10830052D01*
X21300948Y-10795000D02*
X21371052Y-10795000D01*
X21590000Y-10759948D02*
X21590000Y-10830052D01*
X21554948Y-10795000D02*
X21625052Y-10795000D01*
X16256000Y-11966448D02*
X16256000Y-12036552D01*
X16220948Y-12001500D02*
X16291052Y-12001500D01*
X16510000Y-11966448D02*
X16510000Y-12036552D01*
X16474948Y-12001500D02*
X16545052Y-12001500D01*
X8890000Y-11966448D02*
X8890000Y-12036552D01*
X8854948Y-12001500D02*
X8925052Y-12001500D01*
X9144000Y-11966448D02*
X9144000Y-12036552D01*
X9108948Y-12001500D02*
X9179052Y-12001500D01*
X12573000Y-11966448D02*
X12573000Y-12036552D01*
X12537948Y-12001500D02*
X12608052Y-12001500D01*
X12827000Y-11966448D02*
X12827000Y-12036552D01*
X12791948Y-12001500D02*
X12862052Y-12001500D01*
X5588000Y-11394948D02*
X5588000Y-11465052D01*
X5552948Y-11430000D02*
X5623052Y-11430000D01*
X5588000Y-11648948D02*
X5588000Y-11719052D01*
X5552948Y-11684000D02*
X5623052Y-11684000D01*
X8890000Y-12918948D02*
X8890000Y-12989052D01*
X8854948Y-12954000D02*
X8925052Y-12954000D01*
X8890000Y-13172948D02*
X8890000Y-13243052D01*
X8854948Y-13208000D02*
X8925052Y-13208000D01*
X5842000Y-12156948D02*
X5842000Y-12227052D01*
X5806948Y-12192000D02*
X5877052Y-12192000D01*
X6096000Y-12156948D02*
X6096000Y-12227052D01*
X6060948Y-12192000D02*
X6131052Y-12192000D01*
X18669000Y-11966448D02*
X18669000Y-12036552D01*
X18633948Y-12001500D02*
X18704052Y-12001500D01*
X18923000Y-11966448D02*
X18923000Y-12036552D01*
X18887948Y-12001500D02*
X18958052Y-12001500D01*
X14732000Y-10950448D02*
X14732000Y-11020552D01*
X14696948Y-10985500D02*
X14767052Y-10985500D01*
X14732000Y-11204448D02*
X14732000Y-11274552D01*
X14696948Y-11239500D02*
X14767052Y-11239500D01*
X5842000Y-10632948D02*
X5842000Y-10703052D01*
X5806948Y-10668000D02*
X5877052Y-10668000D01*
X6096000Y-10632948D02*
X6096000Y-10703052D01*
X6060948Y-10668000D02*
X6131052Y-10668000D01*
X9296456Y-12979456D02*
X9296456Y-12928544D01*
X9245544Y-12928544D01*
X9245544Y-12979456D01*
X9296456Y-12979456D01*
X9296456Y-13233456D02*
X9296456Y-13182544D01*
X9245544Y-13182544D01*
X9245544Y-13233456D01*
X9296456Y-13233456D01*
X6057956Y-9423456D02*
X6057956Y-9372544D01*
X6007044Y-9372544D01*
X6007044Y-9423456D01*
X6057956Y-9423456D01*
X6057956Y-9677456D02*
X6057956Y-9626544D01*
X6007044Y-9626544D01*
X6007044Y-9677456D01*
X6057956Y-9677456D01*
X18440456Y-12979456D02*
X18440456Y-12928544D01*
X18389544Y-12928544D01*
X18389544Y-12979456D01*
X18440456Y-12979456D01*
X18440456Y-13233456D02*
X18440456Y-13182544D01*
X18389544Y-13182544D01*
X18389544Y-13233456D01*
X18440456Y-13233456D01*
X21869456Y-9423456D02*
X21869456Y-9372544D01*
X21818544Y-9372544D01*
X21818544Y-9423456D01*
X21869456Y-9423456D01*
X21869456Y-9677456D02*
X21869456Y-9626544D01*
X21818544Y-9626544D01*
X21818544Y-9677456D01*
X21869456Y-9677456D01*
X10160000Y-13756640D02*
X10200640Y-13716000D01*
X10160000Y-13675360D01*
X10119360Y-13716000D01*
X10160000Y-13756640D01*
X11176000Y-13756640D02*
X11216640Y-13716000D01*
X11176000Y-13675360D01*
X11135360Y-13716000D01*
X11176000Y-13756640D01*
X7194550Y-9798050D02*
X7283450Y-9886950D01*
X7283450Y-9798050D02*
X7194550Y-9886950D01*
X7283450Y-9842500D02*
G75*
G03X7283450Y-9842500I-44450J0D01*
G01*
X7258050Y-9099550D02*
X7346950Y-9188450D01*
X7346950Y-9099550D02*
X7258050Y-9188450D01*
X7346950Y-9144000D02*
G75*
G03X7346950Y-9144000I-44450J0D01*
G01*
X9036050Y-9798050D02*
X9124950Y-9886950D01*
X9124950Y-9798050D02*
X9036050Y-9886950D01*
X9124950Y-9842500D02*
G75*
G03X9124950Y-9842500I-44450J0D01*
G01*
X9099550Y-9099550D02*
X9188450Y-9188450D01*
X9188450Y-9099550D02*
X9099550Y-9188450D01*
X9188450Y-9144000D02*
G75*
G03X9188450Y-9144000I-44450J0D01*
G01*
X10877550Y-9798050D02*
X10966450Y-9886950D01*
X10966450Y-9798050D02*
X10877550Y-9886950D01*
X10966450Y-9842500D02*
G75*
G03X10966450Y-9842500I-44450J0D01*
G01*
X10941050Y-9099550D02*
X11029950Y-9188450D01*
X11029950Y-9099550D02*
X10941050Y-9188450D01*
X11029950Y-9144000D02*
G75*
G03X11029950Y-9144000I-44450J0D01*
G01*
X12719050Y-9798050D02*
X12807950Y-9886950D01*
X12807950Y-9798050D02*
X12719050Y-9886950D01*
X12807950Y-9842500D02*
G75*
G03X12807950Y-9842500I-44450J0D01*
G01*
X12782550Y-9099550D02*
X12871450Y-9188450D01*
X12871450Y-9099550D02*
X12782550Y-9188450D01*
X12871450Y-9144000D02*
G75*
G03X12871450Y-9144000I-44450J0D01*
G01*
X14560550Y-9798050D02*
X14649450Y-9886950D01*
X14649450Y-9798050D02*
X14560550Y-9886950D01*
X14649450Y-9842500D02*
G75*
G03X14649450Y-9842500I-44450J0D01*
G01*
X14624050Y-9099550D02*
X14712950Y-9188450D01*
X14712950Y-9099550D02*
X14624050Y-9188450D01*
X14712950Y-9144000D02*
G75*
G03X14712950Y-9144000I-44450J0D01*
G01*
X16402050Y-9798050D02*
X16490950Y-9886950D01*
X16490950Y-9798050D02*
X16402050Y-9886950D01*
X16490950Y-9842500D02*
G75*
G03X16490950Y-9842500I-44450J0D01*
G01*
X16465550Y-9099550D02*
X16554450Y-9188450D01*
X16554450Y-9099550D02*
X16465550Y-9188450D01*
X16554450Y-9144000D02*
G75*
G03X16554450Y-9144000I-44450J0D01*
G01*
X18243550Y-9798050D02*
X18332450Y-9886950D01*
X18332450Y-9798050D02*
X18243550Y-9886950D01*
X18332450Y-9842500D02*
G75*
G03X18332450Y-9842500I-44450J0D01*
G01*
X18307050Y-9099550D02*
X18395950Y-9188450D01*
X18395950Y-9099550D02*
X18307050Y-9188450D01*
X18395950Y-9144000D02*
G75*
G03X18395950Y-9144000I-44450J0D01*
G01*
X20085050Y-9798050D02*
X20173950Y-9886950D01*
X20173950Y-9798050D02*
X20085050Y-9886950D01*
X20173950Y-9842500D02*
G75*
G03X20173950Y-9842500I-44450J0D01*
G01*
X20148550Y-9099550D02*
X20237450Y-9188450D01*
X20237450Y-9099550D02*
X20148550Y-9188450D01*
X20237450Y-9144000D02*
G75*
G03X20237450Y-9144000I-44450J0D01*
G01*
X14433000Y-10432500D02*
X14523000Y-10522500D01*
X14523000Y-10432500D02*
X14433000Y-10522500D01*
X14478000Y-10432500D02*
X14478000Y-10522500D01*
X14433000Y-10477500D02*
X14523000Y-10477500D01*
X14560000Y-10178500D02*
X14650000Y-10268500D01*
X14650000Y-10178500D02*
X14560000Y-10268500D01*
X14605000Y-10178500D02*
X14605000Y-10268500D01*
X14560000Y-10223500D02*
X14650000Y-10223500D01*
X14687000Y-10432500D02*
X14777000Y-10522500D01*
X14777000Y-10432500D02*
X14687000Y-10522500D01*
X14732000Y-10432500D02*
X14732000Y-10522500D01*
X14687000Y-10477500D02*
X14777000Y-10477500D01*
X14814000Y-10178500D02*
X14904000Y-10268500D01*
X14904000Y-10178500D02*
X14814000Y-10268500D01*
X14859000Y-10178500D02*
X14859000Y-10268500D01*
X14814000Y-10223500D02*
X14904000Y-10223500D01*
X14941000Y-10432500D02*
X15031000Y-10522500D01*
X15031000Y-10432500D02*
X14941000Y-10522500D01*
X14986000Y-10432500D02*
X14986000Y-10522500D01*
X14941000Y-10477500D02*
X15031000Y-10477500D01*
X15068000Y-10178500D02*
X15158000Y-10268500D01*
X15158000Y-10178500D02*
X15068000Y-10268500D01*
X15113000Y-10178500D02*
X15113000Y-10268500D01*
X15068000Y-10223500D02*
X15158000Y-10223500D01*
X15195000Y-10432500D02*
X15285000Y-10522500D01*
X15285000Y-10432500D02*
X15195000Y-10522500D01*
X15240000Y-10432500D02*
X15240000Y-10522500D01*
X15195000Y-10477500D02*
X15285000Y-10477500D01*
X15322000Y-10178500D02*
X15412000Y-10268500D01*
X15412000Y-10178500D02*
X15322000Y-10268500D01*
X15367000Y-10178500D02*
X15367000Y-10268500D01*
X15322000Y-10223500D02*
X15412000Y-10223500D01*
X8908500Y-10432500D02*
X8998500Y-10522500D01*
X8998500Y-10432500D02*
X8908500Y-10522500D01*
X8953500Y-10432500D02*
X8953500Y-10522500D01*
X8908500Y-10477500D02*
X8998500Y-10477500D01*
X9035500Y-10178500D02*
X9125500Y-10268500D01*
X9125500Y-10178500D02*
X9035500Y-10268500D01*
X9080500Y-10178500D02*
X9080500Y-10268500D01*
X9035500Y-10223500D02*
X9125500Y-10223500D01*
X9162500Y-10432500D02*
X9252500Y-10522500D01*
X9252500Y-10432500D02*
X9162500Y-10522500D01*
X9207500Y-10432500D02*
X9207500Y-10522500D01*
X9162500Y-10477500D02*
X9252500Y-10477500D01*
X9289500Y-10178500D02*
X9379500Y-10268500D01*
X9379500Y-10178500D02*
X9289500Y-10268500D01*
X9334500Y-10178500D02*
X9334500Y-10268500D01*
X9289500Y-10223500D02*
X9379500Y-10223500D01*
X9416500Y-10432500D02*
X9506500Y-10522500D01*
X9506500Y-10432500D02*
X9416500Y-10522500D01*
X9461500Y-10432500D02*
X9461500Y-10522500D01*
X9416500Y-10477500D02*
X9506500Y-10477500D01*
X9543500Y-10178500D02*
X9633500Y-10268500D01*
X9633500Y-10178500D02*
X9543500Y-10268500D01*
X9588500Y-10178500D02*
X9588500Y-10268500D01*
X9543500Y-10223500D02*
X9633500Y-10223500D01*
X9670500Y-10432500D02*
X9760500Y-10522500D01*
X9760500Y-10432500D02*
X9670500Y-10522500D01*
X9715500Y-10432500D02*
X9715500Y-10522500D01*
X9670500Y-10477500D02*
X9760500Y-10477500D01*
X9797500Y-10178500D02*
X9887500Y-10268500D01*
X9887500Y-10178500D02*
X9797500Y-10268500D01*
X9842500Y-10178500D02*
X9842500Y-10268500D01*
X9797500Y-10223500D02*
X9887500Y-10223500D01*
X18116000Y-10432500D02*
X18206000Y-10522500D01*
X18206000Y-10432500D02*
X18116000Y-10522500D01*
X18161000Y-10432500D02*
X18161000Y-10522500D01*
X18116000Y-10477500D02*
X18206000Y-10477500D01*
X18243000Y-10178500D02*
X18333000Y-10268500D01*
X18333000Y-10178500D02*
X18243000Y-10268500D01*
X18288000Y-10178500D02*
X18288000Y-10268500D01*
X18243000Y-10223500D02*
X18333000Y-10223500D01*
X18370000Y-10432500D02*
X18460000Y-10522500D01*
X18460000Y-10432500D02*
X18370000Y-10522500D01*
X18415000Y-10432500D02*
X18415000Y-10522500D01*
X18370000Y-10477500D02*
X18460000Y-10477500D01*
X18497000Y-10178500D02*
X18587000Y-10268500D01*
X18587000Y-10178500D02*
X18497000Y-10268500D01*
X18542000Y-10178500D02*
X18542000Y-10268500D01*
X18497000Y-10223500D02*
X18587000Y-10223500D01*
X18624000Y-10432500D02*
X18714000Y-10522500D01*
X18714000Y-10432500D02*
X18624000Y-10522500D01*
X18669000Y-10432500D02*
X18669000Y-10522500D01*
X18624000Y-10477500D02*
X18714000Y-10477500D01*
X18751000Y-10178500D02*
X18841000Y-10268500D01*
X18841000Y-10178500D02*
X18751000Y-10268500D01*
X18796000Y-10178500D02*
X18796000Y-10268500D01*
X18751000Y-10223500D02*
X18841000Y-10223500D01*
X18878000Y-10432500D02*
X18968000Y-10522500D01*
X18968000Y-10432500D02*
X18878000Y-10522500D01*
X18923000Y-10432500D02*
X18923000Y-10522500D01*
X18878000Y-10477500D02*
X18968000Y-10477500D01*
X19005000Y-10178500D02*
X19095000Y-10268500D01*
X19095000Y-10178500D02*
X19005000Y-10268500D01*
X19050000Y-10178500D02*
X19050000Y-10268500D01*
X19005000Y-10223500D02*
X19095000Y-10223500D01*
X22561000Y-11512000D02*
X22651000Y-11602000D01*
X22651000Y-11512000D02*
X22561000Y-11602000D01*
X22606000Y-11512000D02*
X22606000Y-11602000D01*
X22561000Y-11557000D02*
X22651000Y-11557000D01*
X22561000Y-11766000D02*
X22651000Y-11856000D01*
X22651000Y-11766000D02*
X22561000Y-11856000D01*
X22606000Y-11766000D02*
X22606000Y-11856000D01*
X22561000Y-11811000D02*
X22651000Y-11811000D01*
X22561000Y-12020000D02*
X22651000Y-12110000D01*
X22651000Y-12020000D02*
X22561000Y-12110000D01*
X22606000Y-12020000D02*
X22606000Y-12110000D01*
X22561000Y-12065000D02*
X22651000Y-12065000D01*
X22561000Y-12274000D02*
X22651000Y-12364000D01*
X22651000Y-12274000D02*
X22561000Y-12364000D01*
X22606000Y-12274000D02*
X22606000Y-12364000D01*
X22561000Y-12319000D02*
X22651000Y-12319000D01*
X22815000Y-11639000D02*
X22905000Y-11729000D01*
X22905000Y-11639000D02*
X22815000Y-11729000D01*
X22860000Y-11639000D02*
X22860000Y-11729000D01*
X22815000Y-11684000D02*
X22905000Y-11684000D01*
X22815000Y-11893000D02*
X22905000Y-11983000D01*
X22905000Y-11893000D02*
X22815000Y-11983000D01*
X22860000Y-11893000D02*
X22860000Y-11983000D01*
X22815000Y-11938000D02*
X22905000Y-11938000D01*
X22815000Y-12147000D02*
X22905000Y-12237000D01*
X22905000Y-12147000D02*
X22815000Y-12237000D01*
X22860000Y-12147000D02*
X22860000Y-12237000D01*
X22815000Y-12192000D02*
X22905000Y-12192000D01*
X22815000Y-12401000D02*
X22905000Y-12491000D01*
X22905000Y-12401000D02*
X22815000Y-12491000D01*
X22860000Y-12401000D02*
X22860000Y-12491000D01*
X22815000Y-12446000D02*
X22905000Y-12446000D01*
X8337000Y-12655000D02*
X8427000Y-12745000D01*
X8427000Y-12655000D02*
X8337000Y-12745000D01*
X8382000Y-12655000D02*
X8382000Y-12745000D01*
X8337000Y-12700000D02*
X8427000Y-12700000D01*
X8337000Y-12909000D02*
X8427000Y-12999000D01*
X8427000Y-12909000D02*
X8337000Y-12999000D01*
X8382000Y-12909000D02*
X8382000Y-12999000D01*
X8337000Y-12954000D02*
X8427000Y-12954000D01*
X8337000Y-13163000D02*
X8427000Y-13253000D01*
X8427000Y-13163000D02*
X8337000Y-13253000D01*
X8382000Y-13163000D02*
X8382000Y-13253000D01*
X8337000Y-13208000D02*
X8427000Y-13208000D01*
X8337000Y-13417000D02*
X8427000Y-13507000D01*
X8427000Y-13417000D02*
X8337000Y-13507000D01*
X8382000Y-13417000D02*
X8382000Y-13507000D01*
X8337000Y-13462000D02*
X8427000Y-13462000D01*
X8591000Y-12782000D02*
X8681000Y-12872000D01*
X8681000Y-12782000D02*
X8591000Y-12872000D01*
X8636000Y-12782000D02*
X8636000Y-12872000D01*
X8591000Y-12827000D02*
X8681000Y-12827000D01*
X8591000Y-13036000D02*
X8681000Y-13126000D01*
X8681000Y-13036000D02*
X8591000Y-13126000D01*
X8636000Y-13036000D02*
X8636000Y-13126000D01*
X8591000Y-13081000D02*
X8681000Y-13081000D01*
X8591000Y-13290000D02*
X8681000Y-13380000D01*
X8681000Y-13290000D02*
X8591000Y-13380000D01*
X8636000Y-13290000D02*
X8636000Y-13380000D01*
X8591000Y-13335000D02*
X8681000Y-13335000D01*
X8591000Y-13544000D02*
X8681000Y-13634000D01*
X8681000Y-13544000D02*
X8591000Y-13634000D01*
X8636000Y-13544000D02*
X8636000Y-13634000D01*
X8591000Y-13589000D02*
X8681000Y-13589000D01*
X19957500Y-10432500D02*
X20047500Y-10522500D01*
X20047500Y-10432500D02*
X19957500Y-10522500D01*
X20002500Y-10432500D02*
X20002500Y-10522500D01*
X19957500Y-10477500D02*
X20047500Y-10477500D01*
X20084500Y-10178500D02*
X20174500Y-10268500D01*
X20174500Y-10178500D02*
X20084500Y-10268500D01*
X20129500Y-10178500D02*
X20129500Y-10268500D01*
X20084500Y-10223500D02*
X20174500Y-10223500D01*
X20211500Y-10432500D02*
X20301500Y-10522500D01*
X20301500Y-10432500D02*
X20211500Y-10522500D01*
X20256500Y-10432500D02*
X20256500Y-10522500D01*
X20211500Y-10477500D02*
X20301500Y-10477500D01*
X20338500Y-10178500D02*
X20428500Y-10268500D01*
X20428500Y-10178500D02*
X20338500Y-10268500D01*
X20383500Y-10178500D02*
X20383500Y-10268500D01*
X20338500Y-10223500D02*
X20428500Y-10223500D01*
X20465500Y-10432500D02*
X20555500Y-10522500D01*
X20555500Y-10432500D02*
X20465500Y-10522500D01*
X20510500Y-10432500D02*
X20510500Y-10522500D01*
X20465500Y-10477500D02*
X20555500Y-10477500D01*
X20592500Y-10178500D02*
X20682500Y-10268500D01*
X20682500Y-10178500D02*
X20592500Y-10268500D01*
X20637500Y-10178500D02*
X20637500Y-10268500D01*
X20592500Y-10223500D02*
X20682500Y-10223500D01*
X20719500Y-10432500D02*
X20809500Y-10522500D01*
X20809500Y-10432500D02*
X20719500Y-10522500D01*
X20764500Y-10432500D02*
X20764500Y-10522500D01*
X20719500Y-10477500D02*
X20809500Y-10477500D01*
X20846500Y-10178500D02*
X20936500Y-10268500D01*
X20936500Y-10178500D02*
X20846500Y-10268500D01*
X20891500Y-10178500D02*
X20891500Y-10268500D01*
X20846500Y-10223500D02*
X20936500Y-10223500D01*
X16274500Y-10432500D02*
X16364500Y-10522500D01*
X16364500Y-10432500D02*
X16274500Y-10522500D01*
X16319500Y-10432500D02*
X16319500Y-10522500D01*
X16274500Y-10477500D02*
X16364500Y-10477500D01*
X16401500Y-10178500D02*
X16491500Y-10268500D01*
X16491500Y-10178500D02*
X16401500Y-10268500D01*
X16446500Y-10178500D02*
X16446500Y-10268500D01*
X16401500Y-10223500D02*
X16491500Y-10223500D01*
X16528500Y-10432500D02*
X16618500Y-10522500D01*
X16618500Y-10432500D02*
X16528500Y-10522500D01*
X16573500Y-10432500D02*
X16573500Y-10522500D01*
X16528500Y-10477500D02*
X16618500Y-10477500D01*
X16655500Y-10178500D02*
X16745500Y-10268500D01*
X16745500Y-10178500D02*
X16655500Y-10268500D01*
X16700500Y-10178500D02*
X16700500Y-10268500D01*
X16655500Y-10223500D02*
X16745500Y-10223500D01*
X16782500Y-10432500D02*
X16872500Y-10522500D01*
X16872500Y-10432500D02*
X16782500Y-10522500D01*
X16827500Y-10432500D02*
X16827500Y-10522500D01*
X16782500Y-10477500D02*
X16872500Y-10477500D01*
X16909500Y-10178500D02*
X16999500Y-10268500D01*
X16999500Y-10178500D02*
X16909500Y-10268500D01*
X16954500Y-10178500D02*
X16954500Y-10268500D01*
X16909500Y-10223500D02*
X16999500Y-10223500D01*
X17036500Y-10432500D02*
X17126500Y-10522500D01*
X17126500Y-10432500D02*
X17036500Y-10522500D01*
X17081500Y-10432500D02*
X17081500Y-10522500D01*
X17036500Y-10477500D02*
X17126500Y-10477500D01*
X17163500Y-10178500D02*
X17253500Y-10268500D01*
X17253500Y-10178500D02*
X17163500Y-10268500D01*
X17208500Y-10178500D02*
X17208500Y-10268500D01*
X17163500Y-10223500D02*
X17253500Y-10223500D01*
X5035000Y-11639000D02*
X5125000Y-11729000D01*
X5125000Y-11639000D02*
X5035000Y-11729000D01*
X5080000Y-11639000D02*
X5080000Y-11729000D01*
X5035000Y-11684000D02*
X5125000Y-11684000D01*
X5035000Y-11893000D02*
X5125000Y-11983000D01*
X5125000Y-11893000D02*
X5035000Y-11983000D01*
X5080000Y-11893000D02*
X5080000Y-11983000D01*
X5035000Y-11938000D02*
X5125000Y-11938000D01*
X5035000Y-12147000D02*
X5125000Y-12237000D01*
X5125000Y-12147000D02*
X5035000Y-12237000D01*
X5080000Y-12147000D02*
X5080000Y-12237000D01*
X5035000Y-12192000D02*
X5125000Y-12192000D01*
X5035000Y-12401000D02*
X5125000Y-12491000D01*
X5125000Y-12401000D02*
X5035000Y-12491000D01*
X5080000Y-12401000D02*
X5080000Y-12491000D01*
X5035000Y-12446000D02*
X5125000Y-12446000D01*
X5289000Y-11766000D02*
X5379000Y-11856000D01*
X5379000Y-11766000D02*
X5289000Y-11856000D01*
X5334000Y-11766000D02*
X5334000Y-11856000D01*
X5289000Y-11811000D02*
X5379000Y-11811000D01*
X5289000Y-12020000D02*
X5379000Y-12110000D01*
X5379000Y-12020000D02*
X5289000Y-12110000D01*
X5334000Y-12020000D02*
X5334000Y-12110000D01*
X5289000Y-12065000D02*
X5379000Y-12065000D01*
X5289000Y-12274000D02*
X5379000Y-12364000D01*
X5379000Y-12274000D02*
X5289000Y-12364000D01*
X5334000Y-12274000D02*
X5334000Y-12364000D01*
X5289000Y-12319000D02*
X5379000Y-12319000D01*
X5289000Y-12528000D02*
X5379000Y-12618000D01*
X5379000Y-12528000D02*
X5289000Y-12618000D01*
X5334000Y-12528000D02*
X5334000Y-12618000D01*
X5289000Y-12573000D02*
X5379000Y-12573000D01*
X7067000Y-10432500D02*
X7157000Y-10522500D01*
X7157000Y-10432500D02*
X7067000Y-10522500D01*
X7112000Y-10432500D02*
X7112000Y-10522500D01*
X7067000Y-10477500D02*
X7157000Y-10477500D01*
X7194000Y-10178500D02*
X7284000Y-10268500D01*
X7284000Y-10178500D02*
X7194000Y-10268500D01*
X7239000Y-10178500D02*
X7239000Y-10268500D01*
X7194000Y-10223500D02*
X7284000Y-10223500D01*
X7321000Y-10432500D02*
X7411000Y-10522500D01*
X7411000Y-10432500D02*
X7321000Y-10522500D01*
X7366000Y-10432500D02*
X7366000Y-10522500D01*
X7321000Y-10477500D02*
X7411000Y-10477500D01*
X7448000Y-10178500D02*
X7538000Y-10268500D01*
X7538000Y-10178500D02*
X7448000Y-10268500D01*
X7493000Y-10178500D02*
X7493000Y-10268500D01*
X7448000Y-10223500D02*
X7538000Y-10223500D01*
X7575000Y-10432500D02*
X7665000Y-10522500D01*
X7665000Y-10432500D02*
X7575000Y-10522500D01*
X7620000Y-10432500D02*
X7620000Y-10522500D01*
X7575000Y-10477500D02*
X7665000Y-10477500D01*
X7702000Y-10178500D02*
X7792000Y-10268500D01*
X7792000Y-10178500D02*
X7702000Y-10268500D01*
X7747000Y-10178500D02*
X7747000Y-10268500D01*
X7702000Y-10223500D02*
X7792000Y-10223500D01*
X7829000Y-10432500D02*
X7919000Y-10522500D01*
X7919000Y-10432500D02*
X7829000Y-10522500D01*
X7874000Y-10432500D02*
X7874000Y-10522500D01*
X7829000Y-10477500D02*
X7919000Y-10477500D01*
X7956000Y-10178500D02*
X8046000Y-10268500D01*
X8046000Y-10178500D02*
X7956000Y-10268500D01*
X8001000Y-10178500D02*
X8001000Y-10268500D01*
X7956000Y-10223500D02*
X8046000Y-10223500D01*
X19005000Y-12528000D02*
X19095000Y-12618000D01*
X19095000Y-12528000D02*
X19005000Y-12618000D01*
X19050000Y-12528000D02*
X19050000Y-12618000D01*
X19005000Y-12573000D02*
X19095000Y-12573000D01*
X19005000Y-12782000D02*
X19095000Y-12872000D01*
X19095000Y-12782000D02*
X19005000Y-12872000D01*
X19050000Y-12782000D02*
X19050000Y-12872000D01*
X19005000Y-12827000D02*
X19095000Y-12827000D01*
X19005000Y-13036000D02*
X19095000Y-13126000D01*
X19095000Y-13036000D02*
X19005000Y-13126000D01*
X19050000Y-13036000D02*
X19050000Y-13126000D01*
X19005000Y-13081000D02*
X19095000Y-13081000D01*
X19005000Y-13290000D02*
X19095000Y-13380000D01*
X19095000Y-13290000D02*
X19005000Y-13380000D01*
X19050000Y-13290000D02*
X19050000Y-13380000D01*
X19005000Y-13335000D02*
X19095000Y-13335000D01*
X19259000Y-12655000D02*
X19349000Y-12745000D01*
X19349000Y-12655000D02*
X19259000Y-12745000D01*
X19304000Y-12655000D02*
X19304000Y-12745000D01*
X19259000Y-12700000D02*
X19349000Y-12700000D01*
X19259000Y-12909000D02*
X19349000Y-12999000D01*
X19349000Y-12909000D02*
X19259000Y-12999000D01*
X19304000Y-12909000D02*
X19304000Y-12999000D01*
X19259000Y-12954000D02*
X19349000Y-12954000D01*
X19259000Y-13163000D02*
X19349000Y-13253000D01*
X19349000Y-13163000D02*
X19259000Y-13253000D01*
X19304000Y-13163000D02*
X19304000Y-13253000D01*
X19259000Y-13208000D02*
X19349000Y-13208000D01*
X19259000Y-13417000D02*
X19349000Y-13507000D01*
X19349000Y-13417000D02*
X19259000Y-13507000D01*
X19304000Y-13417000D02*
X19304000Y-13507000D01*
X19259000Y-13462000D02*
X19349000Y-13462000D01*
X10750000Y-10432500D02*
X10840000Y-10522500D01*
X10840000Y-10432500D02*
X10750000Y-10522500D01*
X10795000Y-10432500D02*
X10795000Y-10522500D01*
X10750000Y-10477500D02*
X10840000Y-10477500D01*
X10877000Y-10178500D02*
X10967000Y-10268500D01*
X10967000Y-10178500D02*
X10877000Y-10268500D01*
X10922000Y-10178500D02*
X10922000Y-10268500D01*
X10877000Y-10223500D02*
X10967000Y-10223500D01*
X11004000Y-10432500D02*
X11094000Y-10522500D01*
X11094000Y-10432500D02*
X11004000Y-10522500D01*
X11049000Y-10432500D02*
X11049000Y-10522500D01*
X11004000Y-10477500D02*
X11094000Y-10477500D01*
X11131000Y-10178500D02*
X11221000Y-10268500D01*
X11221000Y-10178500D02*
X11131000Y-10268500D01*
X11176000Y-10178500D02*
X11176000Y-10268500D01*
X11131000Y-10223500D02*
X11221000Y-10223500D01*
X11258000Y-10432500D02*
X11348000Y-10522500D01*
X11348000Y-10432500D02*
X11258000Y-10522500D01*
X11303000Y-10432500D02*
X11303000Y-10522500D01*
X11258000Y-10477500D02*
X11348000Y-10477500D01*
X11385000Y-10178500D02*
X11475000Y-10268500D01*
X11475000Y-10178500D02*
X11385000Y-10268500D01*
X11430000Y-10178500D02*
X11430000Y-10268500D01*
X11385000Y-10223500D02*
X11475000Y-10223500D01*
X11512000Y-10432500D02*
X11602000Y-10522500D01*
X11602000Y-10432500D02*
X11512000Y-10522500D01*
X11557000Y-10432500D02*
X11557000Y-10522500D01*
X11512000Y-10477500D02*
X11602000Y-10477500D01*
X11639000Y-10178500D02*
X11729000Y-10268500D01*
X11729000Y-10178500D02*
X11639000Y-10268500D01*
X11684000Y-10178500D02*
X11684000Y-10268500D01*
X11639000Y-10223500D02*
X11729000Y-10223500D01*
X12591500Y-10432500D02*
X12681500Y-10522500D01*
X12681500Y-10432500D02*
X12591500Y-10522500D01*
X12636500Y-10432500D02*
X12636500Y-10522500D01*
X12591500Y-10477500D02*
X12681500Y-10477500D01*
X12718500Y-10178500D02*
X12808500Y-10268500D01*
X12808500Y-10178500D02*
X12718500Y-10268500D01*
X12763500Y-10178500D02*
X12763500Y-10268500D01*
X12718500Y-10223500D02*
X12808500Y-10223500D01*
X12845500Y-10432500D02*
X12935500Y-10522500D01*
X12935500Y-10432500D02*
X12845500Y-10522500D01*
X12890500Y-10432500D02*
X12890500Y-10522500D01*
X12845500Y-10477500D02*
X12935500Y-10477500D01*
X12972500Y-10178500D02*
X13062500Y-10268500D01*
X13062500Y-10178500D02*
X12972500Y-10268500D01*
X13017500Y-10178500D02*
X13017500Y-10268500D01*
X12972500Y-10223500D02*
X13062500Y-10223500D01*
X13099500Y-10432500D02*
X13189500Y-10522500D01*
X13189500Y-10432500D02*
X13099500Y-10522500D01*
X13144500Y-10432500D02*
X13144500Y-10522500D01*
X13099500Y-10477500D02*
X13189500Y-10477500D01*
X13226500Y-10178500D02*
X13316500Y-10268500D01*
X13316500Y-10178500D02*
X13226500Y-10268500D01*
X13271500Y-10178500D02*
X13271500Y-10268500D01*
X13226500Y-10223500D02*
X13316500Y-10223500D01*
X13353500Y-10432500D02*
X13443500Y-10522500D01*
X13443500Y-10432500D02*
X13353500Y-10522500D01*
X13398500Y-10432500D02*
X13398500Y-10522500D01*
X13353500Y-10477500D02*
X13443500Y-10477500D01*
X13480500Y-10178500D02*
X13570500Y-10268500D01*
X13570500Y-10178500D02*
X13480500Y-10268500D01*
X13525500Y-10178500D02*
X13525500Y-10268500D01*
X13480500Y-10223500D02*
X13570500Y-10223500D01*
X10760700Y-13415000D02*
X10854700Y-13509000D01*
X10854700Y-13415000D02*
X10760700Y-13509000D01*
X10840934Y-13495234D02*
X10840934Y-13428766D01*
X10774466Y-13428766D01*
X10774466Y-13495234D01*
X10840934Y-13495234D01*
X10944850Y-13207975D02*
X11038850Y-13301975D01*
X11038850Y-13207975D02*
X10944850Y-13301975D01*
X11025084Y-13288209D02*
X11025084Y-13221741D01*
X10958616Y-13221741D01*
X10958616Y-13288209D01*
X11025084Y-13288209D01*
X11129000Y-13415000D02*
X11223000Y-13509000D01*
X11223000Y-13415000D02*
X11129000Y-13509000D01*
X11209234Y-13495234D02*
X11209234Y-13428766D01*
X11142766Y-13428766D01*
X11142766Y-13495234D01*
X11209234Y-13495234D01*
X11253000Y-10935500D02*
X11353000Y-11035500D01*
X11353000Y-10935500D02*
X11253000Y-11035500D01*
X11303000Y-11035500D02*
X11353000Y-10985500D01*
X11303000Y-10935500D01*
X11253000Y-10985500D01*
X11303000Y-11035500D01*
X11253000Y-11697500D02*
X11353000Y-11797500D01*
X11353000Y-11697500D02*
X11253000Y-11797500D01*
X11303000Y-11797500D02*
X11353000Y-11747500D01*
X11303000Y-11697500D01*
X11253000Y-11747500D01*
X11303000Y-11797500D01*
X11507000Y-10935500D02*
X11607000Y-11035500D01*
X11607000Y-10935500D02*
X11507000Y-11035500D01*
X11557000Y-11035500D02*
X11607000Y-10985500D01*
X11557000Y-10935500D01*
X11507000Y-10985500D01*
X11557000Y-11035500D01*
X11507000Y-11697500D02*
X11607000Y-11797500D01*
X11607000Y-11697500D02*
X11507000Y-11797500D01*
X11557000Y-11797500D02*
X11607000Y-11747500D01*
X11557000Y-11697500D01*
X11507000Y-11747500D01*
X11557000Y-11797500D01*
X11761000Y-10935500D02*
X11861000Y-11035500D01*
X11861000Y-10935500D02*
X11761000Y-11035500D01*
X11811000Y-11035500D02*
X11861000Y-10985500D01*
X11811000Y-10935500D01*
X11761000Y-10985500D01*
X11811000Y-11035500D01*
X11761000Y-11697500D02*
X11861000Y-11797500D01*
X11861000Y-11697500D02*
X11761000Y-11797500D01*
X11811000Y-11797500D02*
X11861000Y-11747500D01*
X11811000Y-11697500D01*
X11761000Y-11747500D01*
X11811000Y-11797500D01*
X12015000Y-10935500D02*
X12115000Y-11035500D01*
X12115000Y-10935500D02*
X12015000Y-11035500D01*
X12065000Y-11035500D02*
X12115000Y-10985500D01*
X12065000Y-10935500D01*
X12015000Y-10985500D01*
X12065000Y-11035500D01*
X12015000Y-11697500D02*
X12115000Y-11797500D01*
X12115000Y-11697500D02*
X12015000Y-11797500D01*
X12065000Y-11797500D02*
X12115000Y-11747500D01*
X12065000Y-11697500D01*
X12015000Y-11747500D01*
X12065000Y-11797500D01*
X12269000Y-10935500D02*
X12369000Y-11035500D01*
X12369000Y-10935500D02*
X12269000Y-11035500D01*
X12319000Y-11035500D02*
X12369000Y-10985500D01*
X12319000Y-10935500D01*
X12269000Y-10985500D01*
X12319000Y-11035500D01*
X12269000Y-11697500D02*
X12369000Y-11797500D01*
X12369000Y-11697500D02*
X12269000Y-11797500D01*
X12319000Y-11797500D02*
X12369000Y-11747500D01*
X12319000Y-11697500D01*
X12269000Y-11747500D01*
X12319000Y-11797500D01*
X12523000Y-10935500D02*
X12623000Y-11035500D01*
X12623000Y-10935500D02*
X12523000Y-11035500D01*
X12573000Y-11035500D02*
X12623000Y-10985500D01*
X12573000Y-10935500D01*
X12523000Y-10985500D01*
X12573000Y-11035500D01*
X12523000Y-11697500D02*
X12623000Y-11797500D01*
X12623000Y-11697500D02*
X12523000Y-11797500D01*
X12573000Y-11797500D02*
X12623000Y-11747500D01*
X12573000Y-11697500D01*
X12523000Y-11747500D01*
X12573000Y-11797500D01*
X12777000Y-10935500D02*
X12877000Y-11035500D01*
X12877000Y-10935500D02*
X12777000Y-11035500D01*
X12827000Y-11035500D02*
X12877000Y-10985500D01*
X12827000Y-10935500D01*
X12777000Y-10985500D01*
X12827000Y-11035500D01*
X12777000Y-11697500D02*
X12877000Y-11797500D01*
X12877000Y-11697500D02*
X12777000Y-11797500D01*
X12827000Y-11797500D02*
X12877000Y-11747500D01*
X12827000Y-11697500D01*
X12777000Y-11747500D01*
X12827000Y-11797500D01*
X13031000Y-10935500D02*
X13131000Y-11035500D01*
X13131000Y-10935500D02*
X13031000Y-11035500D01*
X13081000Y-11035500D02*
X13131000Y-10985500D01*
X13081000Y-10935500D01*
X13031000Y-10985500D01*
X13081000Y-11035500D01*
X13031000Y-11697500D02*
X13131000Y-11797500D01*
X13131000Y-11697500D02*
X13031000Y-11797500D01*
X13081000Y-11797500D02*
X13131000Y-11747500D01*
X13081000Y-11697500D01*
X13031000Y-11747500D01*
X13081000Y-11797500D01*
X7570000Y-10935500D02*
X7670000Y-11035500D01*
X7670000Y-10935500D02*
X7570000Y-11035500D01*
X7620000Y-11035500D02*
X7670000Y-10985500D01*
X7620000Y-10935500D01*
X7570000Y-10985500D01*
X7620000Y-11035500D01*
X7570000Y-11697500D02*
X7670000Y-11797500D01*
X7670000Y-11697500D02*
X7570000Y-11797500D01*
X7620000Y-11797500D02*
X7670000Y-11747500D01*
X7620000Y-11697500D01*
X7570000Y-11747500D01*
X7620000Y-11797500D01*
X7824000Y-10935500D02*
X7924000Y-11035500D01*
X7924000Y-10935500D02*
X7824000Y-11035500D01*
X7874000Y-11035500D02*
X7924000Y-10985500D01*
X7874000Y-10935500D01*
X7824000Y-10985500D01*
X7874000Y-11035500D01*
X7824000Y-11697500D02*
X7924000Y-11797500D01*
X7924000Y-11697500D02*
X7824000Y-11797500D01*
X7874000Y-11797500D02*
X7924000Y-11747500D01*
X7874000Y-11697500D01*
X7824000Y-11747500D01*
X7874000Y-11797500D01*
X8078000Y-10935500D02*
X8178000Y-11035500D01*
X8178000Y-10935500D02*
X8078000Y-11035500D01*
X8128000Y-11035500D02*
X8178000Y-10985500D01*
X8128000Y-10935500D01*
X8078000Y-10985500D01*
X8128000Y-11035500D01*
X8078000Y-11697500D02*
X8178000Y-11797500D01*
X8178000Y-11697500D02*
X8078000Y-11797500D01*
X8128000Y-11797500D02*
X8178000Y-11747500D01*
X8128000Y-11697500D01*
X8078000Y-11747500D01*
X8128000Y-11797500D01*
X8332000Y-10935500D02*
X8432000Y-11035500D01*
X8432000Y-10935500D02*
X8332000Y-11035500D01*
X8382000Y-11035500D02*
X8432000Y-10985500D01*
X8382000Y-10935500D01*
X8332000Y-10985500D01*
X8382000Y-11035500D01*
X8332000Y-11697500D02*
X8432000Y-11797500D01*
X8432000Y-11697500D02*
X8332000Y-11797500D01*
X8382000Y-11797500D02*
X8432000Y-11747500D01*
X8382000Y-11697500D01*
X8332000Y-11747500D01*
X8382000Y-11797500D01*
X8586000Y-10935500D02*
X8686000Y-11035500D01*
X8686000Y-10935500D02*
X8586000Y-11035500D01*
X8636000Y-11035500D02*
X8686000Y-10985500D01*
X8636000Y-10935500D01*
X8586000Y-10985500D01*
X8636000Y-11035500D01*
X8586000Y-11697500D02*
X8686000Y-11797500D01*
X8686000Y-11697500D02*
X8586000Y-11797500D01*
X8636000Y-11797500D02*
X8686000Y-11747500D01*
X8636000Y-11697500D01*
X8586000Y-11747500D01*
X8636000Y-11797500D01*
X8840000Y-10935500D02*
X8940000Y-11035500D01*
X8940000Y-10935500D02*
X8840000Y-11035500D01*
X8890000Y-11035500D02*
X8940000Y-10985500D01*
X8890000Y-10935500D01*
X8840000Y-10985500D01*
X8890000Y-11035500D01*
X8840000Y-11697500D02*
X8940000Y-11797500D01*
X8940000Y-11697500D02*
X8840000Y-11797500D01*
X8890000Y-11797500D02*
X8940000Y-11747500D01*
X8890000Y-11697500D01*
X8840000Y-11747500D01*
X8890000Y-11797500D01*
X9094000Y-10935500D02*
X9194000Y-11035500D01*
X9194000Y-10935500D02*
X9094000Y-11035500D01*
X9144000Y-11035500D02*
X9194000Y-10985500D01*
X9144000Y-10935500D01*
X9094000Y-10985500D01*
X9144000Y-11035500D01*
X9094000Y-11697500D02*
X9194000Y-11797500D01*
X9194000Y-11697500D02*
X9094000Y-11797500D01*
X9144000Y-11797500D02*
X9194000Y-11747500D01*
X9144000Y-11697500D01*
X9094000Y-11747500D01*
X9144000Y-11797500D01*
X9348000Y-10935500D02*
X9448000Y-11035500D01*
X9448000Y-10935500D02*
X9348000Y-11035500D01*
X9398000Y-11035500D02*
X9448000Y-10985500D01*
X9398000Y-10935500D01*
X9348000Y-10985500D01*
X9398000Y-11035500D01*
X9348000Y-11697500D02*
X9448000Y-11797500D01*
X9448000Y-11697500D02*
X9348000Y-11797500D01*
X9398000Y-11797500D02*
X9448000Y-11747500D01*
X9398000Y-11697500D01*
X9348000Y-11747500D01*
X9398000Y-11797500D01*
X18619000Y-10935500D02*
X18719000Y-11035500D01*
X18719000Y-10935500D02*
X18619000Y-11035500D01*
X18669000Y-11035500D02*
X18719000Y-10985500D01*
X18669000Y-10935500D01*
X18619000Y-10985500D01*
X18669000Y-11035500D01*
X18619000Y-11697500D02*
X18719000Y-11797500D01*
X18719000Y-11697500D02*
X18619000Y-11797500D01*
X18669000Y-11797500D02*
X18719000Y-11747500D01*
X18669000Y-11697500D01*
X18619000Y-11747500D01*
X18669000Y-11797500D01*
X18873000Y-10935500D02*
X18973000Y-11035500D01*
X18973000Y-10935500D02*
X18873000Y-11035500D01*
X18923000Y-11035500D02*
X18973000Y-10985500D01*
X18923000Y-10935500D01*
X18873000Y-10985500D01*
X18923000Y-11035500D01*
X18873000Y-11697500D02*
X18973000Y-11797500D01*
X18973000Y-11697500D02*
X18873000Y-11797500D01*
X18923000Y-11797500D02*
X18973000Y-11747500D01*
X18923000Y-11697500D01*
X18873000Y-11747500D01*
X18923000Y-11797500D01*
X19127000Y-10935500D02*
X19227000Y-11035500D01*
X19227000Y-10935500D02*
X19127000Y-11035500D01*
X19177000Y-11035500D02*
X19227000Y-10985500D01*
X19177000Y-10935500D01*
X19127000Y-10985500D01*
X19177000Y-11035500D01*
X19127000Y-11697500D02*
X19227000Y-11797500D01*
X19227000Y-11697500D02*
X19127000Y-11797500D01*
X19177000Y-11797500D02*
X19227000Y-11747500D01*
X19177000Y-11697500D01*
X19127000Y-11747500D01*
X19177000Y-11797500D01*
X19381000Y-10935500D02*
X19481000Y-11035500D01*
X19481000Y-10935500D02*
X19381000Y-11035500D01*
X19431000Y-11035500D02*
X19481000Y-10985500D01*
X19431000Y-10935500D01*
X19381000Y-10985500D01*
X19431000Y-11035500D01*
X19381000Y-11697500D02*
X19481000Y-11797500D01*
X19481000Y-11697500D02*
X19381000Y-11797500D01*
X19431000Y-11797500D02*
X19481000Y-11747500D01*
X19431000Y-11697500D01*
X19381000Y-11747500D01*
X19431000Y-11797500D01*
X19635000Y-10935500D02*
X19735000Y-11035500D01*
X19735000Y-10935500D02*
X19635000Y-11035500D01*
X19685000Y-11035500D02*
X19735000Y-10985500D01*
X19685000Y-10935500D01*
X19635000Y-10985500D01*
X19685000Y-11035500D01*
X19635000Y-11697500D02*
X19735000Y-11797500D01*
X19735000Y-11697500D02*
X19635000Y-11797500D01*
X19685000Y-11797500D02*
X19735000Y-11747500D01*
X19685000Y-11697500D01*
X19635000Y-11747500D01*
X19685000Y-11797500D01*
X19889000Y-10935500D02*
X19989000Y-11035500D01*
X19989000Y-10935500D02*
X19889000Y-11035500D01*
X19939000Y-11035500D02*
X19989000Y-10985500D01*
X19939000Y-10935500D01*
X19889000Y-10985500D01*
X19939000Y-11035500D01*
X19889000Y-11697500D02*
X19989000Y-11797500D01*
X19989000Y-11697500D02*
X19889000Y-11797500D01*
X19939000Y-11797500D02*
X19989000Y-11747500D01*
X19939000Y-11697500D01*
X19889000Y-11747500D01*
X19939000Y-11797500D01*
X20143000Y-10935500D02*
X20243000Y-11035500D01*
X20243000Y-10935500D02*
X20143000Y-11035500D01*
X20193000Y-11035500D02*
X20243000Y-10985500D01*
X20193000Y-10935500D01*
X20143000Y-10985500D01*
X20193000Y-11035500D01*
X20143000Y-11697500D02*
X20243000Y-11797500D01*
X20243000Y-11697500D02*
X20143000Y-11797500D01*
X20193000Y-11797500D02*
X20243000Y-11747500D01*
X20193000Y-11697500D01*
X20143000Y-11747500D01*
X20193000Y-11797500D01*
X20397000Y-10935500D02*
X20497000Y-11035500D01*
X20497000Y-10935500D02*
X20397000Y-11035500D01*
X20447000Y-11035500D02*
X20497000Y-10985500D01*
X20447000Y-10935500D01*
X20397000Y-10985500D01*
X20447000Y-11035500D01*
X20397000Y-11697500D02*
X20497000Y-11797500D01*
X20497000Y-11697500D02*
X20397000Y-11797500D01*
X20447000Y-11797500D02*
X20497000Y-11747500D01*
X20447000Y-11697500D01*
X20397000Y-11747500D01*
X20447000Y-11797500D01*
X21286000Y-12142000D02*
X21386000Y-12242000D01*
X21386000Y-12142000D02*
X21286000Y-12242000D01*
X21336000Y-12242000D02*
X21386000Y-12192000D01*
X21336000Y-12142000D01*
X21286000Y-12192000D01*
X21336000Y-12242000D01*
X21286000Y-12904000D02*
X21386000Y-13004000D01*
X21386000Y-12904000D02*
X21286000Y-13004000D01*
X21336000Y-13004000D02*
X21386000Y-12954000D01*
X21336000Y-12904000D01*
X21286000Y-12954000D01*
X21336000Y-13004000D01*
X21540000Y-12142000D02*
X21640000Y-12242000D01*
X21640000Y-12142000D02*
X21540000Y-12242000D01*
X21590000Y-12242000D02*
X21640000Y-12192000D01*
X21590000Y-12142000D01*
X21540000Y-12192000D01*
X21590000Y-12242000D01*
X21540000Y-12904000D02*
X21640000Y-13004000D01*
X21640000Y-12904000D02*
X21540000Y-13004000D01*
X21590000Y-13004000D02*
X21640000Y-12954000D01*
X21590000Y-12904000D01*
X21540000Y-12954000D01*
X21590000Y-13004000D01*
X21794000Y-12142000D02*
X21894000Y-12242000D01*
X21894000Y-12142000D02*
X21794000Y-12242000D01*
X21844000Y-12242000D02*
X21894000Y-12192000D01*
X21844000Y-12142000D01*
X21794000Y-12192000D01*
X21844000Y-12242000D01*
X21794000Y-12904000D02*
X21894000Y-13004000D01*
X21894000Y-12904000D02*
X21794000Y-13004000D01*
X21844000Y-13004000D02*
X21894000Y-12954000D01*
X21844000Y-12904000D01*
X21794000Y-12954000D01*
X21844000Y-13004000D01*
X22048000Y-12142000D02*
X22148000Y-12242000D01*
X22148000Y-12142000D02*
X22048000Y-12242000D01*
X22098000Y-12242000D02*
X22148000Y-12192000D01*
X22098000Y-12142000D01*
X22048000Y-12192000D01*
X22098000Y-12242000D01*
X22048000Y-12904000D02*
X22148000Y-13004000D01*
X22148000Y-12904000D02*
X22048000Y-13004000D01*
X22098000Y-13004000D02*
X22148000Y-12954000D01*
X22098000Y-12904000D01*
X22048000Y-12954000D01*
X22098000Y-13004000D01*
X14936000Y-10935500D02*
X15036000Y-11035500D01*
X15036000Y-10935500D02*
X14936000Y-11035500D01*
X14986000Y-11035500D02*
X15036000Y-10985500D01*
X14986000Y-10935500D01*
X14936000Y-10985500D01*
X14986000Y-11035500D01*
X14936000Y-11697500D02*
X15036000Y-11797500D01*
X15036000Y-11697500D02*
X14936000Y-11797500D01*
X14986000Y-11797500D02*
X15036000Y-11747500D01*
X14986000Y-11697500D01*
X14936000Y-11747500D01*
X14986000Y-11797500D01*
X15190000Y-10935500D02*
X15290000Y-11035500D01*
X15290000Y-10935500D02*
X15190000Y-11035500D01*
X15240000Y-11035500D02*
X15290000Y-10985500D01*
X15240000Y-10935500D01*
X15190000Y-10985500D01*
X15240000Y-11035500D01*
X15190000Y-11697500D02*
X15290000Y-11797500D01*
X15290000Y-11697500D02*
X15190000Y-11797500D01*
X15240000Y-11797500D02*
X15290000Y-11747500D01*
X15240000Y-11697500D01*
X15190000Y-11747500D01*
X15240000Y-11797500D01*
X15444000Y-10935500D02*
X15544000Y-11035500D01*
X15544000Y-10935500D02*
X15444000Y-11035500D01*
X15494000Y-11035500D02*
X15544000Y-10985500D01*
X15494000Y-10935500D01*
X15444000Y-10985500D01*
X15494000Y-11035500D01*
X15444000Y-11697500D02*
X15544000Y-11797500D01*
X15544000Y-11697500D02*
X15444000Y-11797500D01*
X15494000Y-11797500D02*
X15544000Y-11747500D01*
X15494000Y-11697500D01*
X15444000Y-11747500D01*
X15494000Y-11797500D01*
X15698000Y-10935500D02*
X15798000Y-11035500D01*
X15798000Y-10935500D02*
X15698000Y-11035500D01*
X15748000Y-11035500D02*
X15798000Y-10985500D01*
X15748000Y-10935500D01*
X15698000Y-10985500D01*
X15748000Y-11035500D01*
X15698000Y-11697500D02*
X15798000Y-11797500D01*
X15798000Y-11697500D02*
X15698000Y-11797500D01*
X15748000Y-11797500D02*
X15798000Y-11747500D01*
X15748000Y-11697500D01*
X15698000Y-11747500D01*
X15748000Y-11797500D01*
X15952000Y-10935500D02*
X16052000Y-11035500D01*
X16052000Y-10935500D02*
X15952000Y-11035500D01*
X16002000Y-11035500D02*
X16052000Y-10985500D01*
X16002000Y-10935500D01*
X15952000Y-10985500D01*
X16002000Y-11035500D01*
X15952000Y-11697500D02*
X16052000Y-11797500D01*
X16052000Y-11697500D02*
X15952000Y-11797500D01*
X16002000Y-11797500D02*
X16052000Y-11747500D01*
X16002000Y-11697500D01*
X15952000Y-11747500D01*
X16002000Y-11797500D01*
X16206000Y-10935500D02*
X16306000Y-11035500D01*
X16306000Y-10935500D02*
X16206000Y-11035500D01*
X16256000Y-11035500D02*
X16306000Y-10985500D01*
X16256000Y-10935500D01*
X16206000Y-10985500D01*
X16256000Y-11035500D01*
X16206000Y-11697500D02*
X16306000Y-11797500D01*
X16306000Y-11697500D02*
X16206000Y-11797500D01*
X16256000Y-11797500D02*
X16306000Y-11747500D01*
X16256000Y-11697500D01*
X16206000Y-11747500D01*
X16256000Y-11797500D01*
X16460000Y-10935500D02*
X16560000Y-11035500D01*
X16560000Y-10935500D02*
X16460000Y-11035500D01*
X16510000Y-11035500D02*
X16560000Y-10985500D01*
X16510000Y-10935500D01*
X16460000Y-10985500D01*
X16510000Y-11035500D01*
X16460000Y-11697500D02*
X16560000Y-11797500D01*
X16560000Y-11697500D02*
X16460000Y-11797500D01*
X16510000Y-11797500D02*
X16560000Y-11747500D01*
X16510000Y-11697500D01*
X16460000Y-11747500D01*
X16510000Y-11797500D01*
X16714000Y-10935500D02*
X16814000Y-11035500D01*
X16814000Y-10935500D02*
X16714000Y-11035500D01*
X16764000Y-11035500D02*
X16814000Y-10985500D01*
X16764000Y-10935500D01*
X16714000Y-10985500D01*
X16764000Y-11035500D01*
X16714000Y-11697500D02*
X16814000Y-11797500D01*
X16814000Y-11697500D02*
X16714000Y-11797500D01*
X16764000Y-11797500D02*
X16814000Y-11747500D01*
X16764000Y-11697500D01*
X16714000Y-11747500D01*
X16764000Y-11797500D01*
X21286000Y-10999000D02*
X21386000Y-11099000D01*
X21386000Y-10999000D02*
X21286000Y-11099000D01*
X21336000Y-11099000D02*
X21386000Y-11049000D01*
X21336000Y-10999000D01*
X21286000Y-11049000D01*
X21336000Y-11099000D01*
X21286000Y-11761000D02*
X21386000Y-11861000D01*
X21386000Y-11761000D02*
X21286000Y-11861000D01*
X21336000Y-11861000D02*
X21386000Y-11811000D01*
X21336000Y-11761000D01*
X21286000Y-11811000D01*
X21336000Y-11861000D01*
X21540000Y-10999000D02*
X21640000Y-11099000D01*
X21640000Y-10999000D02*
X21540000Y-11099000D01*
X21590000Y-11099000D02*
X21640000Y-11049000D01*
X21590000Y-10999000D01*
X21540000Y-11049000D01*
X21590000Y-11099000D01*
X21540000Y-11761000D02*
X21640000Y-11861000D01*
X21640000Y-11761000D02*
X21540000Y-11861000D01*
X21590000Y-11861000D02*
X21640000Y-11811000D01*
X21590000Y-11761000D01*
X21540000Y-11811000D01*
X21590000Y-11861000D01*
X21794000Y-10999000D02*
X21894000Y-11099000D01*
X21894000Y-10999000D02*
X21794000Y-11099000D01*
X21844000Y-11099000D02*
X21894000Y-11049000D01*
X21844000Y-10999000D01*
X21794000Y-11049000D01*
X21844000Y-11099000D01*
X21794000Y-11761000D02*
X21894000Y-11861000D01*
X21894000Y-11761000D02*
X21794000Y-11861000D01*
X21844000Y-11861000D02*
X21894000Y-11811000D01*
X21844000Y-11761000D01*
X21794000Y-11811000D01*
X21844000Y-11861000D01*
X22048000Y-10999000D02*
X22148000Y-11099000D01*
X22148000Y-10999000D02*
X22048000Y-11099000D01*
X22098000Y-11099000D02*
X22148000Y-11049000D01*
X22098000Y-10999000D01*
X22048000Y-11049000D01*
X22098000Y-11099000D01*
X22048000Y-11761000D02*
X22148000Y-11861000D01*
X22148000Y-11761000D02*
X22048000Y-11861000D01*
X22098000Y-11861000D02*
X22148000Y-11811000D01*
X22098000Y-11761000D01*
X22048000Y-11811000D01*
X22098000Y-11861000D01*
X5792000Y-12396000D02*
X5892000Y-12496000D01*
X5892000Y-12396000D02*
X5792000Y-12496000D01*
X5842000Y-12496000D02*
X5892000Y-12446000D01*
X5842000Y-12396000D01*
X5792000Y-12446000D01*
X5842000Y-12496000D01*
X5792000Y-13158000D02*
X5892000Y-13258000D01*
X5892000Y-13158000D02*
X5792000Y-13258000D01*
X5842000Y-13258000D02*
X5892000Y-13208000D01*
X5842000Y-13158000D01*
X5792000Y-13208000D01*
X5842000Y-13258000D01*
X6046000Y-12396000D02*
X6146000Y-12496000D01*
X6146000Y-12396000D02*
X6046000Y-12496000D01*
X6096000Y-12496000D02*
X6146000Y-12446000D01*
X6096000Y-12396000D01*
X6046000Y-12446000D01*
X6096000Y-12496000D01*
X6046000Y-13158000D02*
X6146000Y-13258000D01*
X6146000Y-13158000D02*
X6046000Y-13258000D01*
X6096000Y-13258000D02*
X6146000Y-13208000D01*
X6096000Y-13158000D01*
X6046000Y-13208000D01*
X6096000Y-13258000D01*
X6300000Y-12396000D02*
X6400000Y-12496000D01*
X6400000Y-12396000D02*
X6300000Y-12496000D01*
X6350000Y-12496000D02*
X6400000Y-12446000D01*
X6350000Y-12396000D01*
X6300000Y-12446000D01*
X6350000Y-12496000D01*
X6300000Y-13158000D02*
X6400000Y-13258000D01*
X6400000Y-13158000D02*
X6300000Y-13258000D01*
X6350000Y-13258000D02*
X6400000Y-13208000D01*
X6350000Y-13158000D01*
X6300000Y-13208000D01*
X6350000Y-13258000D01*
X6554000Y-12396000D02*
X6654000Y-12496000D01*
X6654000Y-12396000D02*
X6554000Y-12496000D01*
X6604000Y-12496000D02*
X6654000Y-12446000D01*
X6604000Y-12396000D01*
X6554000Y-12446000D01*
X6604000Y-12496000D01*
X6554000Y-13158000D02*
X6654000Y-13258000D01*
X6654000Y-13158000D02*
X6554000Y-13258000D01*
X6604000Y-13258000D02*
X6654000Y-13208000D01*
X6604000Y-13158000D01*
X6554000Y-13208000D01*
X6604000Y-13258000D01*
X14682000Y-12904000D02*
X14782000Y-13004000D01*
X14782000Y-12904000D02*
X14682000Y-13004000D01*
X14732000Y-13004000D02*
X14782000Y-12954000D01*
X14732000Y-12904000D01*
X14682000Y-12954000D01*
X14732000Y-13004000D01*
X14682000Y-13666000D02*
X14782000Y-13766000D01*
X14782000Y-13666000D02*
X14682000Y-13766000D01*
X14732000Y-13766000D02*
X14782000Y-13716000D01*
X14732000Y-13666000D01*
X14682000Y-13716000D01*
X14732000Y-13766000D01*
X14936000Y-12904000D02*
X15036000Y-13004000D01*
X15036000Y-12904000D02*
X14936000Y-13004000D01*
X14986000Y-13004000D02*
X15036000Y-12954000D01*
X14986000Y-12904000D01*
X14936000Y-12954000D01*
X14986000Y-13004000D01*
X14936000Y-13666000D02*
X15036000Y-13766000D01*
X15036000Y-13666000D02*
X14936000Y-13766000D01*
X14986000Y-13766000D02*
X15036000Y-13716000D01*
X14986000Y-13666000D01*
X14936000Y-13716000D01*
X14986000Y-13766000D01*
X15190000Y-12904000D02*
X15290000Y-13004000D01*
X15290000Y-12904000D02*
X15190000Y-13004000D01*
X15240000Y-13004000D02*
X15290000Y-12954000D01*
X15240000Y-12904000D01*
X15190000Y-12954000D01*
X15240000Y-13004000D01*
X15190000Y-13666000D02*
X15290000Y-13766000D01*
X15290000Y-13666000D02*
X15190000Y-13766000D01*
X15240000Y-13766000D02*
X15290000Y-13716000D01*
X15240000Y-13666000D01*
X15190000Y-13716000D01*
X15240000Y-13766000D01*
X15444000Y-12904000D02*
X15544000Y-13004000D01*
X15544000Y-12904000D02*
X15444000Y-13004000D01*
X15494000Y-13004000D02*
X15544000Y-12954000D01*
X15494000Y-12904000D01*
X15444000Y-12954000D01*
X15494000Y-13004000D01*
X15444000Y-13666000D02*
X15544000Y-13766000D01*
X15544000Y-13666000D02*
X15444000Y-13766000D01*
X15494000Y-13766000D02*
X15544000Y-13716000D01*
X15494000Y-13666000D01*
X15444000Y-13716000D01*
X15494000Y-13766000D01*
X15698000Y-12904000D02*
X15798000Y-13004000D01*
X15798000Y-12904000D02*
X15698000Y-13004000D01*
X15748000Y-13004000D02*
X15798000Y-12954000D01*
X15748000Y-12904000D01*
X15698000Y-12954000D01*
X15748000Y-13004000D01*
X15698000Y-13666000D02*
X15798000Y-13766000D01*
X15798000Y-13666000D02*
X15698000Y-13766000D01*
X15748000Y-13766000D02*
X15798000Y-13716000D01*
X15748000Y-13666000D01*
X15698000Y-13716000D01*
X15748000Y-13766000D01*
X15952000Y-12904000D02*
X16052000Y-13004000D01*
X16052000Y-12904000D02*
X15952000Y-13004000D01*
X16002000Y-13004000D02*
X16052000Y-12954000D01*
X16002000Y-12904000D01*
X15952000Y-12954000D01*
X16002000Y-13004000D01*
X15952000Y-13666000D02*
X16052000Y-13766000D01*
X16052000Y-13666000D02*
X15952000Y-13766000D01*
X16002000Y-13766000D02*
X16052000Y-13716000D01*
X16002000Y-13666000D01*
X15952000Y-13716000D01*
X16002000Y-13766000D01*
X16206000Y-12904000D02*
X16306000Y-13004000D01*
X16306000Y-12904000D02*
X16206000Y-13004000D01*
X16256000Y-13004000D02*
X16306000Y-12954000D01*
X16256000Y-12904000D01*
X16206000Y-12954000D01*
X16256000Y-13004000D01*
X16206000Y-13666000D02*
X16306000Y-13766000D01*
X16306000Y-13666000D02*
X16206000Y-13766000D01*
X16256000Y-13766000D02*
X16306000Y-13716000D01*
X16256000Y-13666000D01*
X16206000Y-13716000D01*
X16256000Y-13766000D01*
X16460000Y-12904000D02*
X16560000Y-13004000D01*
X16560000Y-12904000D02*
X16460000Y-13004000D01*
X16510000Y-13004000D02*
X16560000Y-12954000D01*
X16510000Y-12904000D01*
X16460000Y-12954000D01*
X16510000Y-13004000D01*
X16460000Y-13666000D02*
X16560000Y-13766000D01*
X16560000Y-13666000D02*
X16460000Y-13766000D01*
X16510000Y-13766000D02*
X16560000Y-13716000D01*
X16510000Y-13666000D01*
X16460000Y-13716000D01*
X16510000Y-13766000D01*
X5792000Y-10872000D02*
X5892000Y-10972000D01*
X5892000Y-10872000D02*
X5792000Y-10972000D01*
X5842000Y-10972000D02*
X5892000Y-10922000D01*
X5842000Y-10872000D01*
X5792000Y-10922000D01*
X5842000Y-10972000D01*
X5792000Y-11634000D02*
X5892000Y-11734000D01*
X5892000Y-11634000D02*
X5792000Y-11734000D01*
X5842000Y-11734000D02*
X5892000Y-11684000D01*
X5842000Y-11634000D01*
X5792000Y-11684000D01*
X5842000Y-11734000D01*
X6046000Y-10872000D02*
X6146000Y-10972000D01*
X6146000Y-10872000D02*
X6046000Y-10972000D01*
X6096000Y-10972000D02*
X6146000Y-10922000D01*
X6096000Y-10872000D01*
X6046000Y-10922000D01*
X6096000Y-10972000D01*
X6046000Y-11634000D02*
X6146000Y-11734000D01*
X6146000Y-11634000D02*
X6046000Y-11734000D01*
X6096000Y-11734000D02*
X6146000Y-11684000D01*
X6096000Y-11634000D01*
X6046000Y-11684000D01*
X6096000Y-11734000D01*
X6300000Y-10872000D02*
X6400000Y-10972000D01*
X6400000Y-10872000D02*
X6300000Y-10972000D01*
X6350000Y-10972000D02*
X6400000Y-10922000D01*
X6350000Y-10872000D01*
X6300000Y-10922000D01*
X6350000Y-10972000D01*
X6300000Y-11634000D02*
X6400000Y-11734000D01*
X6400000Y-11634000D02*
X6300000Y-11734000D01*
X6350000Y-11734000D02*
X6400000Y-11684000D01*
X6350000Y-11634000D01*
X6300000Y-11684000D01*
X6350000Y-11734000D01*
X6554000Y-10872000D02*
X6654000Y-10972000D01*
X6654000Y-10872000D02*
X6554000Y-10972000D01*
X6604000Y-10972000D02*
X6654000Y-10922000D01*
X6604000Y-10872000D01*
X6554000Y-10922000D01*
X6604000Y-10972000D01*
X6554000Y-11634000D02*
X6654000Y-11734000D01*
X6654000Y-11634000D02*
X6554000Y-11734000D01*
X6604000Y-11734000D02*
X6654000Y-11684000D01*
X6604000Y-11634000D01*
X6554000Y-11684000D01*
X6604000Y-11734000D01*
X11380000Y-12904000D02*
X11480000Y-13004000D01*
X11480000Y-12904000D02*
X11380000Y-13004000D01*
X11430000Y-13004000D02*
X11480000Y-12954000D01*
X11430000Y-12904000D01*
X11380000Y-12954000D01*
X11430000Y-13004000D01*
X11380000Y-13666000D02*
X11480000Y-13766000D01*
X11480000Y-13666000D02*
X11380000Y-13766000D01*
X11430000Y-13766000D02*
X11480000Y-13716000D01*
X11430000Y-13666000D01*
X11380000Y-13716000D01*
X11430000Y-13766000D01*
X11634000Y-12904000D02*
X11734000Y-13004000D01*
X11734000Y-12904000D02*
X11634000Y-13004000D01*
X11684000Y-13004000D02*
X11734000Y-12954000D01*
X11684000Y-12904000D01*
X11634000Y-12954000D01*
X11684000Y-13004000D01*
X11634000Y-13666000D02*
X11734000Y-13766000D01*
X11734000Y-13666000D02*
X11634000Y-13766000D01*
X11684000Y-13766000D02*
X11734000Y-13716000D01*
X11684000Y-13666000D01*
X11634000Y-13716000D01*
X11684000Y-13766000D01*
X11888000Y-12904000D02*
X11988000Y-13004000D01*
X11988000Y-12904000D02*
X11888000Y-13004000D01*
X11938000Y-13004000D02*
X11988000Y-12954000D01*
X11938000Y-12904000D01*
X11888000Y-12954000D01*
X11938000Y-13004000D01*
X11888000Y-13666000D02*
X11988000Y-13766000D01*
X11988000Y-13666000D02*
X11888000Y-13766000D01*
X11938000Y-13766000D02*
X11988000Y-13716000D01*
X11938000Y-13666000D01*
X11888000Y-13716000D01*
X11938000Y-13766000D01*
X12142000Y-12904000D02*
X12242000Y-13004000D01*
X12242000Y-12904000D02*
X12142000Y-13004000D01*
X12192000Y-13004000D02*
X12242000Y-12954000D01*
X12192000Y-12904000D01*
X12142000Y-12954000D01*
X12192000Y-13004000D01*
X12142000Y-13666000D02*
X12242000Y-13766000D01*
X12242000Y-13666000D02*
X12142000Y-13766000D01*
X12192000Y-13766000D02*
X12242000Y-13716000D01*
X12192000Y-13666000D01*
X12142000Y-13716000D01*
X12192000Y-13766000D01*
X12396000Y-12904000D02*
X12496000Y-13004000D01*
X12496000Y-12904000D02*
X12396000Y-13004000D01*
X12446000Y-13004000D02*
X12496000Y-12954000D01*
X12446000Y-12904000D01*
X12396000Y-12954000D01*
X12446000Y-13004000D01*
X12396000Y-13666000D02*
X12496000Y-13766000D01*
X12496000Y-13666000D02*
X12396000Y-13766000D01*
X12446000Y-13766000D02*
X12496000Y-13716000D01*
X12446000Y-13666000D01*
X12396000Y-13716000D01*
X12446000Y-13766000D01*
X12650000Y-12904000D02*
X12750000Y-13004000D01*
X12750000Y-12904000D02*
X12650000Y-13004000D01*
X12700000Y-13004000D02*
X12750000Y-12954000D01*
X12700000Y-12904000D01*
X12650000Y-12954000D01*
X12700000Y-13004000D01*
X12650000Y-13666000D02*
X12750000Y-13766000D01*
X12750000Y-13666000D02*
X12650000Y-13766000D01*
X12700000Y-13766000D02*
X12750000Y-13716000D01*
X12700000Y-13666000D01*
X12650000Y-13716000D01*
X12700000Y-13766000D01*
X12904000Y-12904000D02*
X13004000Y-13004000D01*
X13004000Y-12904000D02*
X12904000Y-13004000D01*
X12954000Y-13004000D02*
X13004000Y-12954000D01*
X12954000Y-12904000D01*
X12904000Y-12954000D01*
X12954000Y-13004000D01*
X12904000Y-13666000D02*
X13004000Y-13766000D01*
X13004000Y-13666000D02*
X12904000Y-13766000D01*
X12954000Y-13766000D02*
X13004000Y-13716000D01*
X12954000Y-13666000D01*
X12904000Y-13716000D01*
X12954000Y-13766000D01*
X13158000Y-12904000D02*
X13258000Y-13004000D01*
X13258000Y-12904000D02*
X13158000Y-13004000D01*
X13208000Y-13004000D02*
X13258000Y-12954000D01*
X13208000Y-12904000D01*
X13158000Y-12954000D01*
X13208000Y-13004000D01*
X13158000Y-13666000D02*
X13258000Y-13766000D01*
X13258000Y-13666000D02*
X13158000Y-13766000D01*
X13208000Y-13766000D02*
X13258000Y-13716000D01*
X13208000Y-13666000D01*
X13158000Y-13716000D01*
X13208000Y-13766000D01*
X4852000Y-9108000D02*
X4852000Y-9408000D01*
X4702000Y-9258000D02*
X5002000Y-9258000D01*
X5002000Y-9258000D02*
G75*
G03X5002000Y-9258000I-150000J0D01*
G01*
X5132000Y-9388000D02*
X5132000Y-9688000D01*
X4982000Y-9538000D02*
X5282000Y-9538000D01*
X5282000Y-9538000D02*
G75*
G03X5282000Y-9538000I-150000J0D01*
G01*
X23394000Y-9126000D02*
X23394000Y-9426000D01*
X23244000Y-9276000D02*
X23544000Y-9276000D01*
X23544000Y-9276000D02*
G75*
G03X23544000Y-9276000I-150000J0D01*
G01*
X23674000Y-9406000D02*
X23674000Y-9706000D01*
X23524000Y-9556000D02*
X23824000Y-9556000D01*
X23824000Y-9556000D02*
G75*
G03X23824000Y-9556000I-150000J0D01*
G01*
X4433260Y-13577259D02*
X4433260Y-13346740D01*
X4202741Y-13346740D01*
X4202741Y-13577259D01*
X4433260Y-13577259D01*
X4481000Y-13462000D02*
G75*
G03X4481000Y-13462000I-163000J0D01*
G01*
X4572000Y-10063000D02*
X4747000Y-9888000D01*
X4572000Y-9713000D01*
X4397000Y-9888000D01*
X4572000Y-10063000D01*
X4747000Y-9888000D02*
G75*
G03X4747000Y-9888000I-175000J0D01*
G01*
X23114000Y-10081000D02*
X23289000Y-9906000D01*
X23114000Y-9731000D01*
X22939000Y-9906000D01*
X23114000Y-10081000D01*
X23289000Y-9906000D02*
G75*
G03X23289000Y-9906000I-175000J0D01*
G01*
X4445000Y-11399000D02*
X4445000Y-11716000D01*
X4286500Y-11557500D02*
X4603500Y-11557500D01*
X4557078Y-11669577D02*
X4557078Y-11445422D01*
X4332923Y-11445422D01*
X4332923Y-11669577D01*
X4557078Y-11669577D01*
X4445000Y-12542000D02*
X4445000Y-12859000D01*
X4286500Y-12700500D02*
X4603500Y-12700500D01*
X4557078Y-12812577D02*
X4557078Y-12588422D01*
X4332923Y-12588422D01*
X4332923Y-12812577D01*
X4557078Y-12812577D01*
X6984500Y-9430000D02*
X6984500Y-9747000D01*
X6826000Y-9588500D02*
X7143000Y-9588500D01*
X7096577Y-9700578D02*
X7096577Y-9476423D01*
X6872422Y-9476423D01*
X6872422Y-9700578D01*
X7096577Y-9700578D01*
X8127500Y-9430000D02*
X8127500Y-9747000D01*
X7969000Y-9588500D02*
X8286000Y-9588500D01*
X8239577Y-9700578D02*
X8239577Y-9476423D01*
X8015422Y-9476423D01*
X8015422Y-9700578D01*
X8239577Y-9700578D01*
X19939000Y-12287000D02*
X19939000Y-12604000D01*
X19780500Y-12445500D02*
X20097500Y-12445500D01*
X20051078Y-12557577D02*
X20051078Y-12333422D01*
X19826923Y-12333422D01*
X19826923Y-12557577D01*
X20051078Y-12557577D01*
X19939000Y-13430000D02*
X19939000Y-13747000D01*
X19780500Y-13588500D02*
X20097500Y-13588500D01*
X20051078Y-13700577D02*
X20051078Y-13476422D01*
X19826923Y-13476422D01*
X19826923Y-13700577D01*
X20051078Y-13700577D01*
X10667500Y-9430000D02*
X10667500Y-9747000D01*
X10509000Y-9588500D02*
X10826000Y-9588500D01*
X10779578Y-9700578D02*
X10779578Y-9476423D01*
X10555423Y-9476423D01*
X10555423Y-9700578D01*
X10779578Y-9700578D01*
X11810500Y-9430000D02*
X11810500Y-9747000D01*
X11652000Y-9588500D02*
X11969000Y-9588500D01*
X11922577Y-9700578D02*
X11922577Y-9476423D01*
X11698422Y-9476423D01*
X11698422Y-9700578D01*
X11922577Y-9700578D01*
X12509000Y-9430000D02*
X12509000Y-9747000D01*
X12350500Y-9588500D02*
X12667500Y-9588500D01*
X12621077Y-9700578D02*
X12621077Y-9476423D01*
X12396922Y-9476423D01*
X12396922Y-9700578D01*
X12621077Y-9700578D01*
X13652000Y-9430000D02*
X13652000Y-9747000D01*
X13493500Y-9588500D02*
X13810500Y-9588500D01*
X13764077Y-9700578D02*
X13764077Y-9476423D01*
X13539922Y-9476423D01*
X13539922Y-9700578D01*
X13764077Y-9700578D01*
X14350500Y-9430000D02*
X14350500Y-9747000D01*
X14192000Y-9588500D02*
X14509000Y-9588500D01*
X14462577Y-9700578D02*
X14462577Y-9476423D01*
X14238422Y-9476423D01*
X14238422Y-9700578D01*
X14462577Y-9700578D01*
X15493500Y-9430000D02*
X15493500Y-9747000D01*
X15335000Y-9588500D02*
X15652000Y-9588500D01*
X15605577Y-9700578D02*
X15605577Y-9476423D01*
X15381422Y-9476423D01*
X15381422Y-9700578D01*
X15605577Y-9700578D01*
X8826000Y-9430000D02*
X8826000Y-9747000D01*
X8667500Y-9588500D02*
X8984500Y-9588500D01*
X8938078Y-9700578D02*
X8938078Y-9476423D01*
X8713923Y-9476423D01*
X8713923Y-9700578D01*
X8938078Y-9700578D01*
X9969000Y-9430000D02*
X9969000Y-9747000D01*
X9810500Y-9588500D02*
X10127500Y-9588500D01*
X10081078Y-9700578D02*
X10081078Y-9476423D01*
X9856923Y-9476423D01*
X9856923Y-9700578D01*
X10081078Y-9700578D01*
X18033500Y-9430000D02*
X18033500Y-9747000D01*
X17875000Y-9588500D02*
X18192000Y-9588500D01*
X18145578Y-9700578D02*
X18145578Y-9476423D01*
X17921423Y-9476423D01*
X17921423Y-9700578D01*
X18145578Y-9700578D01*
X19176500Y-9430000D02*
X19176500Y-9747000D01*
X19018000Y-9588500D02*
X19335000Y-9588500D01*
X19288578Y-9700578D02*
X19288578Y-9476423D01*
X19064423Y-9476423D01*
X19064423Y-9700578D01*
X19288578Y-9700578D01*
X23495000Y-11271000D02*
X23495000Y-11588000D01*
X23336500Y-11429500D02*
X23653500Y-11429500D01*
X23607077Y-11541577D02*
X23607077Y-11317422D01*
X23382922Y-11317422D01*
X23382922Y-11541577D01*
X23607077Y-11541577D01*
X23495000Y-12414000D02*
X23495000Y-12731000D01*
X23336500Y-12572500D02*
X23653500Y-12572500D01*
X23607077Y-12684577D02*
X23607077Y-12460422D01*
X23382922Y-12460422D01*
X23382922Y-12684577D01*
X23607077Y-12684577D01*
X7747000Y-12415000D02*
X7747000Y-12732000D01*
X7588500Y-12573500D02*
X7905500Y-12573500D01*
X7859077Y-12685577D02*
X7859077Y-12461422D01*
X7634922Y-12461422D01*
X7634922Y-12685577D01*
X7859077Y-12685577D01*
X7747000Y-13558000D02*
X7747000Y-13875000D01*
X7588500Y-13716500D02*
X7905500Y-13716500D01*
X7859077Y-13828577D02*
X7859077Y-13604422D01*
X7634922Y-13604422D01*
X7634922Y-13828577D01*
X7859077Y-13828577D01*
X19875000Y-9430000D02*
X19875000Y-9747000D01*
X19716500Y-9588500D02*
X20033500Y-9588500D01*
X19987078Y-9700578D02*
X19987078Y-9476423D01*
X19762923Y-9476423D01*
X19762923Y-9700578D01*
X19987078Y-9700578D01*
X21018000Y-9430000D02*
X21018000Y-9747000D01*
X20859500Y-9588500D02*
X21176500Y-9588500D01*
X21130078Y-9700578D02*
X21130078Y-9476423D01*
X20905923Y-9476423D01*
X20905923Y-9700578D01*
X21130078Y-9700578D01*
X16192000Y-9430000D02*
X16192000Y-9747000D01*
X16033500Y-9588500D02*
X16350500Y-9588500D01*
X16304077Y-9700578D02*
X16304077Y-9476423D01*
X16079922Y-9476423D01*
X16079922Y-9700578D01*
X16304077Y-9700578D01*
X17335000Y-9430000D02*
X17335000Y-9747000D01*
X17176500Y-9588500D02*
X17493500Y-9588500D01*
X17447078Y-9700578D02*
X17447078Y-9476423D01*
X17222923Y-9476423D01*
X17222923Y-9700578D01*
X17447078Y-9700578D01*
X23622000Y-10505000D02*
X23622000Y-10831000D01*
X23459000Y-10668000D02*
X23785000Y-10668000D01*
X23622000Y-10831000D02*
X23785000Y-10668000D01*
X23622000Y-10505000D01*
X23459000Y-10668000D01*
X23622000Y-10831000D01*
X23622000Y-13299000D02*
X23622000Y-13625000D01*
X23459000Y-13462000D02*
X23785000Y-13462000D01*
X23622000Y-13625000D02*
X23785000Y-13462000D01*
X23622000Y-13299000D01*
X23459000Y-13462000D01*
X23622000Y-13625000D01*
X4318000Y-10505000D02*
X4318000Y-10831000D01*
X4155000Y-10668000D02*
X4481000Y-10668000D01*
X4318000Y-10831000D02*
X4481000Y-10668000D01*
X4318000Y-10505000D01*
X4155000Y-10668000D01*
X4318000Y-10831000D01*
D12*
X4091428Y-14440714D02*
X4091428Y-14140714D01*
X4162857Y-14140714D01*
X4205714Y-14155000D01*
X4234286Y-14183571D01*
X4248571Y-14212143D01*
X4262857Y-14269286D01*
X4262857Y-14312143D01*
X4248571Y-14369286D01*
X4234286Y-14397857D01*
X4205714Y-14426429D01*
X4162857Y-14440714D01*
X4091428Y-14440714D01*
X4391428Y-14440714D02*
X4391428Y-14240714D01*
X4391428Y-14297857D02*
X4405714Y-14269286D01*
X4420000Y-14255000D01*
X4448571Y-14240714D01*
X4477143Y-14240714D01*
X4577143Y-14440714D02*
X4577143Y-14240714D01*
X4577143Y-14140714D02*
X4562857Y-14155000D01*
X4577143Y-14169286D01*
X4591428Y-14155000D01*
X4577143Y-14140714D01*
X4577143Y-14169286D01*
X4762857Y-14440714D02*
X4734286Y-14426429D01*
X4720000Y-14397857D01*
X4720000Y-14140714D01*
X4920000Y-14440714D02*
X4891428Y-14426429D01*
X4877143Y-14397857D01*
X4877143Y-14140714D01*
X5262857Y-14440714D02*
X5262857Y-14140714D01*
X5362857Y-14355000D01*
X5462857Y-14140714D01*
X5462857Y-14440714D01*
X5734286Y-14440714D02*
X5734286Y-14283571D01*
X5720000Y-14255000D01*
X5691428Y-14240714D01*
X5634286Y-14240714D01*
X5605714Y-14255000D01*
X5734286Y-14426429D02*
X5705714Y-14440714D01*
X5634286Y-14440714D01*
X5605714Y-14426429D01*
X5591428Y-14397857D01*
X5591428Y-14369286D01*
X5605714Y-14340714D01*
X5634286Y-14326429D01*
X5705714Y-14326429D01*
X5734286Y-14312143D01*
X5877143Y-14240714D02*
X5877143Y-14540714D01*
X5877143Y-14255000D02*
X5905714Y-14240714D01*
X5962857Y-14240714D01*
X5991428Y-14255000D01*
X6005714Y-14269286D01*
X6020000Y-14297857D01*
X6020000Y-14383571D01*
X6005714Y-14412143D01*
X5991428Y-14426429D01*
X5962857Y-14440714D01*
X5905714Y-14440714D01*
X5877143Y-14426429D01*
X6148571Y-14412143D02*
X6162857Y-14426429D01*
X6148571Y-14440714D01*
X6134286Y-14426429D01*
X6148571Y-14412143D01*
X6148571Y-14440714D01*
X6148571Y-14255000D02*
X6162857Y-14269286D01*
X6148571Y-14283571D01*
X6134286Y-14269286D01*
X6148571Y-14255000D01*
X6148571Y-14283571D01*
X3774520Y-14919760D02*
X3805000Y-14950240D01*
X3805000Y-14919760D02*
X3774520Y-14950240D01*
X4148571Y-14770714D02*
X4177143Y-14770714D01*
X4205714Y-14785000D01*
X4220000Y-14799286D01*
X4234286Y-14827857D01*
X4248571Y-14885000D01*
X4248571Y-14956429D01*
X4234286Y-15013571D01*
X4220000Y-15042143D01*
X4205714Y-15056429D01*
X4177143Y-15070714D01*
X4148571Y-15070714D01*
X4120000Y-15056429D01*
X4105714Y-15042143D01*
X4091428Y-15013571D01*
X4077143Y-14956429D01*
X4077143Y-14885000D01*
X4091428Y-14827857D01*
X4105714Y-14799286D01*
X4120000Y-14785000D01*
X4148571Y-14770714D01*
X4377143Y-15042143D02*
X4391428Y-15056429D01*
X4377143Y-15070714D01*
X4362857Y-15056429D01*
X4377143Y-15042143D01*
X4377143Y-15070714D01*
X4491428Y-14770714D02*
X4677143Y-14770714D01*
X4577143Y-14885000D01*
X4620000Y-14885000D01*
X4648571Y-14899286D01*
X4662857Y-14913571D01*
X4677143Y-14942143D01*
X4677143Y-15013571D01*
X4662857Y-15042143D01*
X4648571Y-15056429D01*
X4620000Y-15070714D01*
X4534286Y-15070714D01*
X4505714Y-15056429D01*
X4491428Y-15042143D01*
X4862857Y-14770714D02*
X4891428Y-14770714D01*
X4920000Y-14785000D01*
X4934286Y-14799286D01*
X4948571Y-14827857D01*
X4962857Y-14885000D01*
X4962857Y-14956429D01*
X4948571Y-15013571D01*
X4934286Y-15042143D01*
X4920000Y-15056429D01*
X4891428Y-15070714D01*
X4862857Y-15070714D01*
X4834286Y-15056429D01*
X4820000Y-15042143D01*
X4805714Y-15013571D01*
X4791428Y-14956429D01*
X4791428Y-14885000D01*
X4805714Y-14827857D01*
X4820000Y-14799286D01*
X4834286Y-14785000D01*
X4862857Y-14770714D01*
X5091428Y-15070714D02*
X5091428Y-14870714D01*
X5091428Y-14899286D02*
X5105714Y-14885000D01*
X5134286Y-14870714D01*
X5177143Y-14870714D01*
X5205714Y-14885000D01*
X5220000Y-14913571D01*
X5220000Y-15070714D01*
X5220000Y-14913571D02*
X5234286Y-14885000D01*
X5262857Y-14870714D01*
X5305714Y-14870714D01*
X5334286Y-14885000D01*
X5348571Y-14913571D01*
X5348571Y-15070714D01*
X5491428Y-15070714D02*
X5491428Y-14870714D01*
X5491428Y-14899286D02*
X5505714Y-14885000D01*
X5534286Y-14870714D01*
X5577143Y-14870714D01*
X5605714Y-14885000D01*
X5620000Y-14913571D01*
X5620000Y-15070714D01*
X5620000Y-14913571D02*
X5634286Y-14885000D01*
X5662857Y-14870714D01*
X5705714Y-14870714D01*
X5734286Y-14885000D01*
X5748571Y-14913571D01*
X5748571Y-15070714D01*
X6334286Y-14756429D02*
X6077143Y-15142143D01*
X6720000Y-14770714D02*
X6748571Y-14770714D01*
X6777143Y-14785000D01*
X6791428Y-14799286D01*
X6805714Y-14827857D01*
X6820000Y-14885000D01*
X6820000Y-14956429D01*
X6805714Y-15013571D01*
X6791428Y-15042143D01*
X6777143Y-15056429D01*
X6748571Y-15070714D01*
X6720000Y-15070714D01*
X6691428Y-15056429D01*
X6677143Y-15042143D01*
X6662857Y-15013571D01*
X6648571Y-14956429D01*
X6648571Y-14885000D01*
X6662857Y-14827857D01*
X6677143Y-14799286D01*
X6691428Y-14785000D01*
X6720000Y-14770714D01*
X6948571Y-15042143D02*
X6962857Y-15056429D01*
X6948571Y-15070714D01*
X6934286Y-15056429D01*
X6948571Y-15042143D01*
X6948571Y-15070714D01*
X7148571Y-14770714D02*
X7177143Y-14770714D01*
X7205714Y-14785000D01*
X7220000Y-14799286D01*
X7234286Y-14827857D01*
X7248571Y-14885000D01*
X7248571Y-14956429D01*
X7234286Y-15013571D01*
X7220000Y-15042143D01*
X7205714Y-15056429D01*
X7177143Y-15070714D01*
X7148571Y-15070714D01*
X7120000Y-15056429D01*
X7105714Y-15042143D01*
X7091428Y-15013571D01*
X7077143Y-14956429D01*
X7077143Y-14885000D01*
X7091428Y-14827857D01*
X7105714Y-14799286D01*
X7120000Y-14785000D01*
X7148571Y-14770714D01*
X7534286Y-15070714D02*
X7362857Y-15070714D01*
X7448571Y-15070714D02*
X7448571Y-14770714D01*
X7420000Y-14813571D01*
X7391428Y-14842143D01*
X7362857Y-14856429D01*
X7648571Y-14799286D02*
X7662857Y-14785000D01*
X7691428Y-14770714D01*
X7762857Y-14770714D01*
X7791428Y-14785000D01*
X7805714Y-14799286D01*
X7820000Y-14827857D01*
X7820000Y-14856429D01*
X7805714Y-14899286D01*
X7634286Y-15070714D01*
X7820000Y-15070714D01*
X7934286Y-14770714D02*
X7934286Y-14827857D01*
X8048571Y-14770714D02*
X8048571Y-14827857D01*
X8491428Y-15185000D02*
X8477143Y-15170714D01*
X8448571Y-15127857D01*
X8434286Y-15099286D01*
X8420000Y-15056429D01*
X8405714Y-14985000D01*
X8405714Y-14927857D01*
X8420000Y-14856429D01*
X8434286Y-14813571D01*
X8448571Y-14785000D01*
X8477143Y-14742143D01*
X8491428Y-14727857D01*
X8648571Y-14899286D02*
X8620000Y-14885000D01*
X8605714Y-14870714D01*
X8591428Y-14842143D01*
X8591428Y-14827857D01*
X8605714Y-14799286D01*
X8620000Y-14785000D01*
X8648571Y-14770714D01*
X8705714Y-14770714D01*
X8734286Y-14785000D01*
X8748571Y-14799286D01*
X8762857Y-14827857D01*
X8762857Y-14842143D01*
X8748571Y-14870714D01*
X8734286Y-14885000D01*
X8705714Y-14899286D01*
X8648571Y-14899286D01*
X8620000Y-14913571D01*
X8605714Y-14927857D01*
X8591428Y-14956429D01*
X8591428Y-15013571D01*
X8605714Y-15042143D01*
X8620000Y-15056429D01*
X8648571Y-15070714D01*
X8705714Y-15070714D01*
X8734286Y-15056429D01*
X8748571Y-15042143D01*
X8762857Y-15013571D01*
X8762857Y-14956429D01*
X8748571Y-14927857D01*
X8734286Y-14913571D01*
X8705714Y-14899286D01*
X9120000Y-15070714D02*
X9120000Y-14770714D01*
X9248571Y-15070714D02*
X9248571Y-14913571D01*
X9234286Y-14885000D01*
X9205714Y-14870714D01*
X9162857Y-14870714D01*
X9134286Y-14885000D01*
X9120000Y-14899286D01*
X9434286Y-15070714D02*
X9405714Y-15056429D01*
X9391428Y-15042143D01*
X9377143Y-15013571D01*
X9377143Y-14927857D01*
X9391428Y-14899286D01*
X9405714Y-14885000D01*
X9434286Y-14870714D01*
X9477143Y-14870714D01*
X9505714Y-14885000D01*
X9520000Y-14899286D01*
X9534286Y-14927857D01*
X9534286Y-15013571D01*
X9520000Y-15042143D01*
X9505714Y-15056429D01*
X9477143Y-15070714D01*
X9434286Y-15070714D01*
X9705714Y-15070714D02*
X9677143Y-15056429D01*
X9662857Y-15027857D01*
X9662857Y-14770714D01*
X9934286Y-15056429D02*
X9905714Y-15070714D01*
X9848571Y-15070714D01*
X9820000Y-15056429D01*
X9805714Y-15027857D01*
X9805714Y-14913571D01*
X9820000Y-14885000D01*
X9848571Y-14870714D01*
X9905714Y-14870714D01*
X9934286Y-14885000D01*
X9948571Y-14913571D01*
X9948571Y-14942143D01*
X9805714Y-14970714D01*
X10062857Y-15056429D02*
X10091428Y-15070714D01*
X10148571Y-15070714D01*
X10177143Y-15056429D01*
X10191428Y-15027857D01*
X10191428Y-15013571D01*
X10177143Y-14985000D01*
X10148571Y-14970714D01*
X10105714Y-14970714D01*
X10077143Y-14956429D01*
X10062857Y-14927857D01*
X10062857Y-14913571D01*
X10077143Y-14885000D01*
X10105714Y-14870714D01*
X10148571Y-14870714D01*
X10177143Y-14885000D01*
X10291428Y-15185000D02*
X10305714Y-15170714D01*
X10334286Y-15127857D01*
X10348571Y-15099286D01*
X10362857Y-15056429D01*
X10377143Y-14985000D01*
X10377143Y-14927857D01*
X10362857Y-14856429D01*
X10348571Y-14813571D01*
X10334286Y-14785000D01*
X10305714Y-14742143D01*
X10291428Y-14727857D01*
X3805000Y-15331000D02*
G75*
G03X3805000Y-15331000I-19050J0D01*
G01*
X4148571Y-15166714D02*
X4177143Y-15166714D01*
X4205714Y-15181000D01*
X4220000Y-15195286D01*
X4234286Y-15223857D01*
X4248571Y-15281000D01*
X4248571Y-15352429D01*
X4234286Y-15409571D01*
X4220000Y-15438143D01*
X4205714Y-15452429D01*
X4177143Y-15466714D01*
X4148571Y-15466714D01*
X4120000Y-15452429D01*
X4105714Y-15438143D01*
X4091428Y-15409571D01*
X4077143Y-15352429D01*
X4077143Y-15281000D01*
X4091428Y-15223857D01*
X4105714Y-15195286D01*
X4120000Y-15181000D01*
X4148571Y-15166714D01*
X4377143Y-15438143D02*
X4391428Y-15452429D01*
X4377143Y-15466714D01*
X4362857Y-15452429D01*
X4377143Y-15438143D01*
X4377143Y-15466714D01*
X4491428Y-15166714D02*
X4677143Y-15166714D01*
X4577143Y-15281000D01*
X4620000Y-15281000D01*
X4648571Y-15295286D01*
X4662857Y-15309571D01*
X4677143Y-15338143D01*
X4677143Y-15409571D01*
X4662857Y-15438143D01*
X4648571Y-15452429D01*
X4620000Y-15466714D01*
X4534286Y-15466714D01*
X4505714Y-15452429D01*
X4491428Y-15438143D01*
X4848571Y-15295286D02*
X4820000Y-15281000D01*
X4805714Y-15266714D01*
X4791428Y-15238143D01*
X4791428Y-15223857D01*
X4805714Y-15195286D01*
X4820000Y-15181000D01*
X4848571Y-15166714D01*
X4905714Y-15166714D01*
X4934286Y-15181000D01*
X4948571Y-15195286D01*
X4962857Y-15223857D01*
X4962857Y-15238143D01*
X4948571Y-15266714D01*
X4934286Y-15281000D01*
X4905714Y-15295286D01*
X4848571Y-15295286D01*
X4820000Y-15309571D01*
X4805714Y-15323857D01*
X4791428Y-15352429D01*
X4791428Y-15409571D01*
X4805714Y-15438143D01*
X4820000Y-15452429D01*
X4848571Y-15466714D01*
X4905714Y-15466714D01*
X4934286Y-15452429D01*
X4948571Y-15438143D01*
X4962857Y-15409571D01*
X4962857Y-15352429D01*
X4948571Y-15323857D01*
X4934286Y-15309571D01*
X4905714Y-15295286D01*
X5091428Y-15466714D02*
X5091428Y-15266714D01*
X5091428Y-15295286D02*
X5105714Y-15281000D01*
X5134286Y-15266714D01*
X5177143Y-15266714D01*
X5205714Y-15281000D01*
X5220000Y-15309571D01*
X5220000Y-15466714D01*
X5220000Y-15309571D02*
X5234286Y-15281000D01*
X5262857Y-15266714D01*
X5305714Y-15266714D01*
X5334286Y-15281000D01*
X5348571Y-15309571D01*
X5348571Y-15466714D01*
X5491428Y-15466714D02*
X5491428Y-15266714D01*
X5491428Y-15295286D02*
X5505714Y-15281000D01*
X5534286Y-15266714D01*
X5577143Y-15266714D01*
X5605714Y-15281000D01*
X5620000Y-15309571D01*
X5620000Y-15466714D01*
X5620000Y-15309571D02*
X5634286Y-15281000D01*
X5662857Y-15266714D01*
X5705714Y-15266714D01*
X5734286Y-15281000D01*
X5748571Y-15309571D01*
X5748571Y-15466714D01*
X6334286Y-15152429D02*
X6077143Y-15538143D01*
X6720000Y-15166714D02*
X6748571Y-15166714D01*
X6777143Y-15181000D01*
X6791428Y-15195286D01*
X6805714Y-15223857D01*
X6820000Y-15281000D01*
X6820000Y-15352429D01*
X6805714Y-15409571D01*
X6791428Y-15438143D01*
X6777143Y-15452429D01*
X6748571Y-15466714D01*
X6720000Y-15466714D01*
X6691428Y-15452429D01*
X6677143Y-15438143D01*
X6662857Y-15409571D01*
X6648571Y-15352429D01*
X6648571Y-15281000D01*
X6662857Y-15223857D01*
X6677143Y-15195286D01*
X6691428Y-15181000D01*
X6720000Y-15166714D01*
X6948571Y-15438143D02*
X6962857Y-15452429D01*
X6948571Y-15466714D01*
X6934286Y-15452429D01*
X6948571Y-15438143D01*
X6948571Y-15466714D01*
X7148571Y-15166714D02*
X7177143Y-15166714D01*
X7205714Y-15181000D01*
X7220000Y-15195286D01*
X7234286Y-15223857D01*
X7248571Y-15281000D01*
X7248571Y-15352429D01*
X7234286Y-15409571D01*
X7220000Y-15438143D01*
X7205714Y-15452429D01*
X7177143Y-15466714D01*
X7148571Y-15466714D01*
X7120000Y-15452429D01*
X7105714Y-15438143D01*
X7091428Y-15409571D01*
X7077143Y-15352429D01*
X7077143Y-15281000D01*
X7091428Y-15223857D01*
X7105714Y-15195286D01*
X7120000Y-15181000D01*
X7148571Y-15166714D01*
X7534286Y-15466714D02*
X7362857Y-15466714D01*
X7448571Y-15466714D02*
X7448571Y-15166714D01*
X7420000Y-15209571D01*
X7391428Y-15238143D01*
X7362857Y-15252429D01*
X7805714Y-15166714D02*
X7662857Y-15166714D01*
X7648571Y-15309571D01*
X7662857Y-15295286D01*
X7691428Y-15281000D01*
X7762857Y-15281000D01*
X7791428Y-15295286D01*
X7805714Y-15309571D01*
X7820000Y-15338143D01*
X7820000Y-15409571D01*
X7805714Y-15438143D01*
X7791428Y-15452429D01*
X7762857Y-15466714D01*
X7691428Y-15466714D01*
X7662857Y-15452429D01*
X7648571Y-15438143D01*
X7934286Y-15166714D02*
X7934286Y-15223857D01*
X8048571Y-15166714D02*
X8048571Y-15223857D01*
X8491428Y-15581000D02*
X8477143Y-15566714D01*
X8448571Y-15523857D01*
X8434286Y-15495286D01*
X8420000Y-15452429D01*
X8405714Y-15381000D01*
X8405714Y-15323857D01*
X8420000Y-15252429D01*
X8434286Y-15209571D01*
X8448571Y-15181000D01*
X8477143Y-15138143D01*
X8491428Y-15123857D01*
X8591428Y-15195286D02*
X8605714Y-15181000D01*
X8634286Y-15166714D01*
X8705714Y-15166714D01*
X8734286Y-15181000D01*
X8748571Y-15195286D01*
X8762857Y-15223857D01*
X8762857Y-15252429D01*
X8748571Y-15295286D01*
X8577143Y-15466714D01*
X8762857Y-15466714D01*
X8934286Y-15295286D02*
X8905714Y-15281000D01*
X8891428Y-15266714D01*
X8877143Y-15238143D01*
X8877143Y-15223857D01*
X8891428Y-15195286D01*
X8905714Y-15181000D01*
X8934286Y-15166714D01*
X8991428Y-15166714D01*
X9020000Y-15181000D01*
X9034286Y-15195286D01*
X9048571Y-15223857D01*
X9048571Y-15238143D01*
X9034286Y-15266714D01*
X9020000Y-15281000D01*
X8991428Y-15295286D01*
X8934286Y-15295286D01*
X8905714Y-15309571D01*
X8891428Y-15323857D01*
X8877143Y-15352429D01*
X8877143Y-15409571D01*
X8891428Y-15438143D01*
X8905714Y-15452429D01*
X8934286Y-15466714D01*
X8991428Y-15466714D01*
X9020000Y-15452429D01*
X9034286Y-15438143D01*
X9048571Y-15409571D01*
X9048571Y-15352429D01*
X9034286Y-15323857D01*
X9020000Y-15309571D01*
X8991428Y-15295286D01*
X9405714Y-15466714D02*
X9405714Y-15166714D01*
X9534286Y-15466714D02*
X9534286Y-15309571D01*
X9520000Y-15281000D01*
X9491428Y-15266714D01*
X9448571Y-15266714D01*
X9420000Y-15281000D01*
X9405714Y-15295286D01*
X9720000Y-15466714D02*
X9691428Y-15452429D01*
X9677143Y-15438143D01*
X9662857Y-15409571D01*
X9662857Y-15323857D01*
X9677143Y-15295286D01*
X9691428Y-15281000D01*
X9720000Y-15266714D01*
X9762857Y-15266714D01*
X9791428Y-15281000D01*
X9805714Y-15295286D01*
X9820000Y-15323857D01*
X9820000Y-15409571D01*
X9805714Y-15438143D01*
X9791428Y-15452429D01*
X9762857Y-15466714D01*
X9720000Y-15466714D01*
X9991428Y-15466714D02*
X9962857Y-15452429D01*
X9948571Y-15423857D01*
X9948571Y-15166714D01*
X10220000Y-15452429D02*
X10191428Y-15466714D01*
X10134286Y-15466714D01*
X10105714Y-15452429D01*
X10091428Y-15423857D01*
X10091428Y-15309571D01*
X10105714Y-15281000D01*
X10134286Y-15266714D01*
X10191428Y-15266714D01*
X10220000Y-15281000D01*
X10234286Y-15309571D01*
X10234286Y-15338143D01*
X10091428Y-15366714D01*
X10348571Y-15452429D02*
X10377143Y-15466714D01*
X10434286Y-15466714D01*
X10462857Y-15452429D01*
X10477143Y-15423857D01*
X10477143Y-15409571D01*
X10462857Y-15381000D01*
X10434286Y-15366714D01*
X10391428Y-15366714D01*
X10362857Y-15352429D01*
X10348571Y-15323857D01*
X10348571Y-15309571D01*
X10362857Y-15281000D01*
X10391428Y-15266714D01*
X10434286Y-15266714D01*
X10462857Y-15281000D01*
X10577143Y-15581000D02*
X10591428Y-15566714D01*
X10620000Y-15523857D01*
X10634286Y-15495286D01*
X10648571Y-15452429D01*
X10662857Y-15381000D01*
X10662857Y-15323857D01*
X10648571Y-15252429D01*
X10634286Y-15209571D01*
X10620000Y-15181000D01*
X10591428Y-15138143D01*
X10577143Y-15123857D01*
X3769948Y-15691948D02*
X3769948Y-15762052D01*
X3734896Y-15727000D02*
X3805000Y-15727000D01*
X4148571Y-15562714D02*
X4177143Y-15562714D01*
X4205714Y-15577000D01*
X4220000Y-15591286D01*
X4234286Y-15619857D01*
X4248571Y-15677000D01*
X4248571Y-15748429D01*
X4234286Y-15805571D01*
X4220000Y-15834143D01*
X4205714Y-15848429D01*
X4177143Y-15862714D01*
X4148571Y-15862714D01*
X4120000Y-15848429D01*
X4105714Y-15834143D01*
X4091428Y-15805571D01*
X4077143Y-15748429D01*
X4077143Y-15677000D01*
X4091428Y-15619857D01*
X4105714Y-15591286D01*
X4120000Y-15577000D01*
X4148571Y-15562714D01*
X4377143Y-15834143D02*
X4391428Y-15848429D01*
X4377143Y-15862714D01*
X4362857Y-15848429D01*
X4377143Y-15834143D01*
X4377143Y-15862714D01*
X4491428Y-15562714D02*
X4691428Y-15562714D01*
X4562857Y-15862714D01*
X4862857Y-15562714D02*
X4891428Y-15562714D01*
X4920000Y-15577000D01*
X4934286Y-15591286D01*
X4948571Y-15619857D01*
X4962857Y-15677000D01*
X4962857Y-15748429D01*
X4948571Y-15805571D01*
X4934286Y-15834143D01*
X4920000Y-15848429D01*
X4891428Y-15862714D01*
X4862857Y-15862714D01*
X4834286Y-15848429D01*
X4820000Y-15834143D01*
X4805714Y-15805571D01*
X4791428Y-15748429D01*
X4791428Y-15677000D01*
X4805714Y-15619857D01*
X4820000Y-15591286D01*
X4834286Y-15577000D01*
X4862857Y-15562714D01*
X5091428Y-15862714D02*
X5091428Y-15662714D01*
X5091428Y-15691286D02*
X5105714Y-15677000D01*
X5134286Y-15662714D01*
X5177143Y-15662714D01*
X5205714Y-15677000D01*
X5220000Y-15705571D01*
X5220000Y-15862714D01*
X5220000Y-15705571D02*
X5234286Y-15677000D01*
X5262857Y-15662714D01*
X5305714Y-15662714D01*
X5334286Y-15677000D01*
X5348571Y-15705571D01*
X5348571Y-15862714D01*
X5491428Y-15862714D02*
X5491428Y-15662714D01*
X5491428Y-15691286D02*
X5505714Y-15677000D01*
X5534286Y-15662714D01*
X5577143Y-15662714D01*
X5605714Y-15677000D01*
X5620000Y-15705571D01*
X5620000Y-15862714D01*
X5620000Y-15705571D02*
X5634286Y-15677000D01*
X5662857Y-15662714D01*
X5705714Y-15662714D01*
X5734286Y-15677000D01*
X5748571Y-15705571D01*
X5748571Y-15862714D01*
X6334286Y-15548429D02*
X6077143Y-15934143D01*
X6720000Y-15562714D02*
X6748571Y-15562714D01*
X6777143Y-15577000D01*
X6791428Y-15591286D01*
X6805714Y-15619857D01*
X6820000Y-15677000D01*
X6820000Y-15748429D01*
X6805714Y-15805571D01*
X6791428Y-15834143D01*
X6777143Y-15848429D01*
X6748571Y-15862714D01*
X6720000Y-15862714D01*
X6691428Y-15848429D01*
X6677143Y-15834143D01*
X6662857Y-15805571D01*
X6648571Y-15748429D01*
X6648571Y-15677000D01*
X6662857Y-15619857D01*
X6677143Y-15591286D01*
X6691428Y-15577000D01*
X6720000Y-15562714D01*
X6948571Y-15834143D02*
X6962857Y-15848429D01*
X6948571Y-15862714D01*
X6934286Y-15848429D01*
X6948571Y-15834143D01*
X6948571Y-15862714D01*
X7148571Y-15562714D02*
X7177143Y-15562714D01*
X7205714Y-15577000D01*
X7220000Y-15591286D01*
X7234286Y-15619857D01*
X7248571Y-15677000D01*
X7248571Y-15748429D01*
X7234286Y-15805571D01*
X7220000Y-15834143D01*
X7205714Y-15848429D01*
X7177143Y-15862714D01*
X7148571Y-15862714D01*
X7120000Y-15848429D01*
X7105714Y-15834143D01*
X7091428Y-15805571D01*
X7077143Y-15748429D01*
X7077143Y-15677000D01*
X7091428Y-15619857D01*
X7105714Y-15591286D01*
X7120000Y-15577000D01*
X7148571Y-15562714D01*
X7362857Y-15591286D02*
X7377143Y-15577000D01*
X7405714Y-15562714D01*
X7477143Y-15562714D01*
X7505714Y-15577000D01*
X7520000Y-15591286D01*
X7534286Y-15619857D01*
X7534286Y-15648429D01*
X7520000Y-15691286D01*
X7348571Y-15862714D01*
X7534286Y-15862714D01*
X7705714Y-15691286D02*
X7677143Y-15677000D01*
X7662857Y-15662714D01*
X7648571Y-15634143D01*
X7648571Y-15619857D01*
X7662857Y-15591286D01*
X7677143Y-15577000D01*
X7705714Y-15562714D01*
X7762857Y-15562714D01*
X7791428Y-15577000D01*
X7805714Y-15591286D01*
X7820000Y-15619857D01*
X7820000Y-15634143D01*
X7805714Y-15662714D01*
X7791428Y-15677000D01*
X7762857Y-15691286D01*
X7705714Y-15691286D01*
X7677143Y-15705571D01*
X7662857Y-15719857D01*
X7648571Y-15748429D01*
X7648571Y-15805571D01*
X7662857Y-15834143D01*
X7677143Y-15848429D01*
X7705714Y-15862714D01*
X7762857Y-15862714D01*
X7791428Y-15848429D01*
X7805714Y-15834143D01*
X7820000Y-15805571D01*
X7820000Y-15748429D01*
X7805714Y-15719857D01*
X7791428Y-15705571D01*
X7762857Y-15691286D01*
X7934286Y-15562714D02*
X7934286Y-15619857D01*
X8048571Y-15562714D02*
X8048571Y-15619857D01*
X8491428Y-15977000D02*
X8477143Y-15962714D01*
X8448571Y-15919857D01*
X8434286Y-15891286D01*
X8420000Y-15848429D01*
X8405714Y-15777000D01*
X8405714Y-15719857D01*
X8420000Y-15648429D01*
X8434286Y-15605571D01*
X8448571Y-15577000D01*
X8477143Y-15534143D01*
X8491428Y-15519857D01*
X8748571Y-15562714D02*
X8605714Y-15562714D01*
X8591428Y-15705571D01*
X8605714Y-15691286D01*
X8634286Y-15677000D01*
X8705714Y-15677000D01*
X8734286Y-15691286D01*
X8748571Y-15705571D01*
X8762857Y-15734143D01*
X8762857Y-15805571D01*
X8748571Y-15834143D01*
X8734286Y-15848429D01*
X8705714Y-15862714D01*
X8634286Y-15862714D01*
X8605714Y-15848429D01*
X8591428Y-15834143D01*
X8877143Y-15591286D02*
X8891428Y-15577000D01*
X8920000Y-15562714D01*
X8991428Y-15562714D01*
X9020000Y-15577000D01*
X9034286Y-15591286D01*
X9048571Y-15619857D01*
X9048571Y-15648429D01*
X9034286Y-15691286D01*
X8862857Y-15862714D01*
X9048571Y-15862714D01*
X9405714Y-15862714D02*
X9405714Y-15562714D01*
X9534286Y-15862714D02*
X9534286Y-15705571D01*
X9520000Y-15677000D01*
X9491428Y-15662714D01*
X9448571Y-15662714D01*
X9420000Y-15677000D01*
X9405714Y-15691286D01*
X9720000Y-15862714D02*
X9691428Y-15848429D01*
X9677143Y-15834143D01*
X9662857Y-15805571D01*
X9662857Y-15719857D01*
X9677143Y-15691286D01*
X9691428Y-15677000D01*
X9720000Y-15662714D01*
X9762857Y-15662714D01*
X9791428Y-15677000D01*
X9805714Y-15691286D01*
X9820000Y-15719857D01*
X9820000Y-15805571D01*
X9805714Y-15834143D01*
X9791428Y-15848429D01*
X9762857Y-15862714D01*
X9720000Y-15862714D01*
X9991428Y-15862714D02*
X9962857Y-15848429D01*
X9948571Y-15819857D01*
X9948571Y-15562714D01*
X10220000Y-15848429D02*
X10191428Y-15862714D01*
X10134286Y-15862714D01*
X10105714Y-15848429D01*
X10091428Y-15819857D01*
X10091428Y-15705571D01*
X10105714Y-15677000D01*
X10134286Y-15662714D01*
X10191428Y-15662714D01*
X10220000Y-15677000D01*
X10234286Y-15705571D01*
X10234286Y-15734143D01*
X10091428Y-15762714D01*
X10348571Y-15848429D02*
X10377143Y-15862714D01*
X10434286Y-15862714D01*
X10462857Y-15848429D01*
X10477143Y-15819857D01*
X10477143Y-15805571D01*
X10462857Y-15777000D01*
X10434286Y-15762714D01*
X10391428Y-15762714D01*
X10362857Y-15748429D01*
X10348571Y-15719857D01*
X10348571Y-15705571D01*
X10362857Y-15677000D01*
X10391428Y-15662714D01*
X10434286Y-15662714D01*
X10462857Y-15677000D01*
X10577143Y-15977000D02*
X10591428Y-15962714D01*
X10620000Y-15919857D01*
X10634286Y-15891286D01*
X10648571Y-15848429D01*
X10662857Y-15777000D01*
X10662857Y-15719857D01*
X10648571Y-15648429D01*
X10634286Y-15605571D01*
X10620000Y-15577000D01*
X10591428Y-15534143D01*
X10577143Y-15519857D01*
X3794456Y-16148456D02*
X3794456Y-16097544D01*
X3743544Y-16097544D01*
X3743544Y-16148456D01*
X3794456Y-16148456D01*
X4148571Y-15958714D02*
X4177143Y-15958714D01*
X4205714Y-15973000D01*
X4220000Y-15987286D01*
X4234286Y-16015857D01*
X4248571Y-16073000D01*
X4248571Y-16144429D01*
X4234286Y-16201571D01*
X4220000Y-16230143D01*
X4205714Y-16244429D01*
X4177143Y-16258714D01*
X4148571Y-16258714D01*
X4120000Y-16244429D01*
X4105714Y-16230143D01*
X4091428Y-16201571D01*
X4077143Y-16144429D01*
X4077143Y-16073000D01*
X4091428Y-16015857D01*
X4105714Y-15987286D01*
X4120000Y-15973000D01*
X4148571Y-15958714D01*
X4377143Y-16230143D02*
X4391428Y-16244429D01*
X4377143Y-16258714D01*
X4362857Y-16244429D01*
X4377143Y-16230143D01*
X4377143Y-16258714D01*
X4491428Y-15958714D02*
X4691428Y-15958714D01*
X4562857Y-16258714D01*
X4791428Y-15987286D02*
X4805714Y-15973000D01*
X4834286Y-15958714D01*
X4905714Y-15958714D01*
X4934286Y-15973000D01*
X4948571Y-15987286D01*
X4962857Y-16015857D01*
X4962857Y-16044429D01*
X4948571Y-16087286D01*
X4777143Y-16258714D01*
X4962857Y-16258714D01*
X5091428Y-16258714D02*
X5091428Y-16058714D01*
X5091428Y-16087286D02*
X5105714Y-16073000D01*
X5134286Y-16058714D01*
X5177143Y-16058714D01*
X5205714Y-16073000D01*
X5220000Y-16101571D01*
X5220000Y-16258714D01*
X5220000Y-16101571D02*
X5234286Y-16073000D01*
X5262857Y-16058714D01*
X5305714Y-16058714D01*
X5334286Y-16073000D01*
X5348571Y-16101571D01*
X5348571Y-16258714D01*
X5491428Y-16258714D02*
X5491428Y-16058714D01*
X5491428Y-16087286D02*
X5505714Y-16073000D01*
X5534286Y-16058714D01*
X5577143Y-16058714D01*
X5605714Y-16073000D01*
X5620000Y-16101571D01*
X5620000Y-16258714D01*
X5620000Y-16101571D02*
X5634286Y-16073000D01*
X5662857Y-16058714D01*
X5705714Y-16058714D01*
X5734286Y-16073000D01*
X5748571Y-16101571D01*
X5748571Y-16258714D01*
X6334286Y-15944429D02*
X6077143Y-16330143D01*
X6720000Y-15958714D02*
X6748571Y-15958714D01*
X6777143Y-15973000D01*
X6791428Y-15987286D01*
X6805714Y-16015857D01*
X6820000Y-16073000D01*
X6820000Y-16144429D01*
X6805714Y-16201571D01*
X6791428Y-16230143D01*
X6777143Y-16244429D01*
X6748571Y-16258714D01*
X6720000Y-16258714D01*
X6691428Y-16244429D01*
X6677143Y-16230143D01*
X6662857Y-16201571D01*
X6648571Y-16144429D01*
X6648571Y-16073000D01*
X6662857Y-16015857D01*
X6677143Y-15987286D01*
X6691428Y-15973000D01*
X6720000Y-15958714D01*
X6948571Y-16230143D02*
X6962857Y-16244429D01*
X6948571Y-16258714D01*
X6934286Y-16244429D01*
X6948571Y-16230143D01*
X6948571Y-16258714D01*
X7148571Y-15958714D02*
X7177143Y-15958714D01*
X7205714Y-15973000D01*
X7220000Y-15987286D01*
X7234286Y-16015857D01*
X7248571Y-16073000D01*
X7248571Y-16144429D01*
X7234286Y-16201571D01*
X7220000Y-16230143D01*
X7205714Y-16244429D01*
X7177143Y-16258714D01*
X7148571Y-16258714D01*
X7120000Y-16244429D01*
X7105714Y-16230143D01*
X7091428Y-16201571D01*
X7077143Y-16144429D01*
X7077143Y-16073000D01*
X7091428Y-16015857D01*
X7105714Y-15987286D01*
X7120000Y-15973000D01*
X7148571Y-15958714D01*
X7362857Y-15987286D02*
X7377143Y-15973000D01*
X7405714Y-15958714D01*
X7477143Y-15958714D01*
X7505714Y-15973000D01*
X7520000Y-15987286D01*
X7534286Y-16015857D01*
X7534286Y-16044429D01*
X7520000Y-16087286D01*
X7348571Y-16258714D01*
X7534286Y-16258714D01*
X7705714Y-16087286D02*
X7677143Y-16073000D01*
X7662857Y-16058714D01*
X7648571Y-16030143D01*
X7648571Y-16015857D01*
X7662857Y-15987286D01*
X7677143Y-15973000D01*
X7705714Y-15958714D01*
X7762857Y-15958714D01*
X7791428Y-15973000D01*
X7805714Y-15987286D01*
X7820000Y-16015857D01*
X7820000Y-16030143D01*
X7805714Y-16058714D01*
X7791428Y-16073000D01*
X7762857Y-16087286D01*
X7705714Y-16087286D01*
X7677143Y-16101571D01*
X7662857Y-16115857D01*
X7648571Y-16144429D01*
X7648571Y-16201571D01*
X7662857Y-16230143D01*
X7677143Y-16244429D01*
X7705714Y-16258714D01*
X7762857Y-16258714D01*
X7791428Y-16244429D01*
X7805714Y-16230143D01*
X7820000Y-16201571D01*
X7820000Y-16144429D01*
X7805714Y-16115857D01*
X7791428Y-16101571D01*
X7762857Y-16087286D01*
X7934286Y-15958714D02*
X7934286Y-16015857D01*
X8048571Y-15958714D02*
X8048571Y-16015857D01*
X8491428Y-16373000D02*
X8477143Y-16358714D01*
X8448571Y-16315857D01*
X8434286Y-16287286D01*
X8420000Y-16244429D01*
X8405714Y-16173000D01*
X8405714Y-16115857D01*
X8420000Y-16044429D01*
X8434286Y-16001571D01*
X8448571Y-15973000D01*
X8477143Y-15930143D01*
X8491428Y-15915857D01*
X8648571Y-16087286D02*
X8620000Y-16073000D01*
X8605714Y-16058714D01*
X8591428Y-16030143D01*
X8591428Y-16015857D01*
X8605714Y-15987286D01*
X8620000Y-15973000D01*
X8648571Y-15958714D01*
X8705714Y-15958714D01*
X8734286Y-15973000D01*
X8748571Y-15987286D01*
X8762857Y-16015857D01*
X8762857Y-16030143D01*
X8748571Y-16058714D01*
X8734286Y-16073000D01*
X8705714Y-16087286D01*
X8648571Y-16087286D01*
X8620000Y-16101571D01*
X8605714Y-16115857D01*
X8591428Y-16144429D01*
X8591428Y-16201571D01*
X8605714Y-16230143D01*
X8620000Y-16244429D01*
X8648571Y-16258714D01*
X8705714Y-16258714D01*
X8734286Y-16244429D01*
X8748571Y-16230143D01*
X8762857Y-16201571D01*
X8762857Y-16144429D01*
X8748571Y-16115857D01*
X8734286Y-16101571D01*
X8705714Y-16087286D01*
X9120000Y-16258714D02*
X9120000Y-15958714D01*
X9248571Y-16258714D02*
X9248571Y-16101571D01*
X9234286Y-16073000D01*
X9205714Y-16058714D01*
X9162857Y-16058714D01*
X9134286Y-16073000D01*
X9120000Y-16087286D01*
X9434286Y-16258714D02*
X9405714Y-16244429D01*
X9391428Y-16230143D01*
X9377143Y-16201571D01*
X9377143Y-16115857D01*
X9391428Y-16087286D01*
X9405714Y-16073000D01*
X9434286Y-16058714D01*
X9477143Y-16058714D01*
X9505714Y-16073000D01*
X9520000Y-16087286D01*
X9534286Y-16115857D01*
X9534286Y-16201571D01*
X9520000Y-16230143D01*
X9505714Y-16244429D01*
X9477143Y-16258714D01*
X9434286Y-16258714D01*
X9705714Y-16258714D02*
X9677143Y-16244429D01*
X9662857Y-16215857D01*
X9662857Y-15958714D01*
X9934286Y-16244429D02*
X9905714Y-16258714D01*
X9848571Y-16258714D01*
X9820000Y-16244429D01*
X9805714Y-16215857D01*
X9805714Y-16101571D01*
X9820000Y-16073000D01*
X9848571Y-16058714D01*
X9905714Y-16058714D01*
X9934286Y-16073000D01*
X9948571Y-16101571D01*
X9948571Y-16130143D01*
X9805714Y-16158714D01*
X10062857Y-16244429D02*
X10091428Y-16258714D01*
X10148571Y-16258714D01*
X10177143Y-16244429D01*
X10191428Y-16215857D01*
X10191428Y-16201571D01*
X10177143Y-16173000D01*
X10148571Y-16158714D01*
X10105714Y-16158714D01*
X10077143Y-16144429D01*
X10062857Y-16115857D01*
X10062857Y-16101571D01*
X10077143Y-16073000D01*
X10105714Y-16058714D01*
X10148571Y-16058714D01*
X10177143Y-16073000D01*
X10291428Y-16373000D02*
X10305714Y-16358714D01*
X10334286Y-16315857D01*
X10348571Y-16287286D01*
X10362857Y-16244429D01*
X10377143Y-16173000D01*
X10377143Y-16115857D01*
X10362857Y-16044429D01*
X10348571Y-16001571D01*
X10334286Y-15973000D01*
X10305714Y-15930143D01*
X10291428Y-15915857D01*
X3764360Y-16559640D02*
X3805000Y-16519000D01*
X3764360Y-16478360D01*
X3723720Y-16519000D01*
X3764360Y-16559640D01*
X4148571Y-16354714D02*
X4177143Y-16354714D01*
X4205714Y-16369000D01*
X4220000Y-16383286D01*
X4234286Y-16411857D01*
X4248571Y-16469000D01*
X4248571Y-16540429D01*
X4234286Y-16597571D01*
X4220000Y-16626143D01*
X4205714Y-16640429D01*
X4177143Y-16654714D01*
X4148571Y-16654714D01*
X4120000Y-16640429D01*
X4105714Y-16626143D01*
X4091428Y-16597571D01*
X4077143Y-16540429D01*
X4077143Y-16469000D01*
X4091428Y-16411857D01*
X4105714Y-16383286D01*
X4120000Y-16369000D01*
X4148571Y-16354714D01*
X4377143Y-16626143D02*
X4391428Y-16640429D01*
X4377143Y-16654714D01*
X4362857Y-16640429D01*
X4377143Y-16626143D01*
X4377143Y-16654714D01*
X4562857Y-16483286D02*
X4534286Y-16469000D01*
X4520000Y-16454714D01*
X4505714Y-16426143D01*
X4505714Y-16411857D01*
X4520000Y-16383286D01*
X4534286Y-16369000D01*
X4562857Y-16354714D01*
X4620000Y-16354714D01*
X4648571Y-16369000D01*
X4662857Y-16383286D01*
X4677143Y-16411857D01*
X4677143Y-16426143D01*
X4662857Y-16454714D01*
X4648571Y-16469000D01*
X4620000Y-16483286D01*
X4562857Y-16483286D01*
X4534286Y-16497571D01*
X4520000Y-16511857D01*
X4505714Y-16540429D01*
X4505714Y-16597571D01*
X4520000Y-16626143D01*
X4534286Y-16640429D01*
X4562857Y-16654714D01*
X4620000Y-16654714D01*
X4648571Y-16640429D01*
X4662857Y-16626143D01*
X4677143Y-16597571D01*
X4677143Y-16540429D01*
X4662857Y-16511857D01*
X4648571Y-16497571D01*
X4620000Y-16483286D01*
X4962857Y-16654714D02*
X4791428Y-16654714D01*
X4877143Y-16654714D02*
X4877143Y-16354714D01*
X4848571Y-16397571D01*
X4820000Y-16426143D01*
X4791428Y-16440429D01*
X5091428Y-16654714D02*
X5091428Y-16454714D01*
X5091428Y-16483286D02*
X5105714Y-16469000D01*
X5134286Y-16454714D01*
X5177143Y-16454714D01*
X5205714Y-16469000D01*
X5220000Y-16497571D01*
X5220000Y-16654714D01*
X5220000Y-16497571D02*
X5234286Y-16469000D01*
X5262857Y-16454714D01*
X5305714Y-16454714D01*
X5334286Y-16469000D01*
X5348571Y-16497571D01*
X5348571Y-16654714D01*
X5491428Y-16654714D02*
X5491428Y-16454714D01*
X5491428Y-16483286D02*
X5505714Y-16469000D01*
X5534286Y-16454714D01*
X5577143Y-16454714D01*
X5605714Y-16469000D01*
X5620000Y-16497571D01*
X5620000Y-16654714D01*
X5620000Y-16497571D02*
X5634286Y-16469000D01*
X5662857Y-16454714D01*
X5705714Y-16454714D01*
X5734286Y-16469000D01*
X5748571Y-16497571D01*
X5748571Y-16654714D01*
X6334286Y-16340429D02*
X6077143Y-16726143D01*
X6720000Y-16354714D02*
X6748571Y-16354714D01*
X6777143Y-16369000D01*
X6791428Y-16383286D01*
X6805714Y-16411857D01*
X6820000Y-16469000D01*
X6820000Y-16540429D01*
X6805714Y-16597571D01*
X6791428Y-16626143D01*
X6777143Y-16640429D01*
X6748571Y-16654714D01*
X6720000Y-16654714D01*
X6691428Y-16640429D01*
X6677143Y-16626143D01*
X6662857Y-16597571D01*
X6648571Y-16540429D01*
X6648571Y-16469000D01*
X6662857Y-16411857D01*
X6677143Y-16383286D01*
X6691428Y-16369000D01*
X6720000Y-16354714D01*
X6948571Y-16626143D02*
X6962857Y-16640429D01*
X6948571Y-16654714D01*
X6934286Y-16640429D01*
X6948571Y-16626143D01*
X6948571Y-16654714D01*
X7148571Y-16354714D02*
X7177143Y-16354714D01*
X7205714Y-16369000D01*
X7220000Y-16383286D01*
X7234286Y-16411857D01*
X7248571Y-16469000D01*
X7248571Y-16540429D01*
X7234286Y-16597571D01*
X7220000Y-16626143D01*
X7205714Y-16640429D01*
X7177143Y-16654714D01*
X7148571Y-16654714D01*
X7120000Y-16640429D01*
X7105714Y-16626143D01*
X7091428Y-16597571D01*
X7077143Y-16540429D01*
X7077143Y-16469000D01*
X7091428Y-16411857D01*
X7105714Y-16383286D01*
X7120000Y-16369000D01*
X7148571Y-16354714D01*
X7348571Y-16354714D02*
X7534286Y-16354714D01*
X7434286Y-16469000D01*
X7477143Y-16469000D01*
X7505714Y-16483286D01*
X7520000Y-16497571D01*
X7534286Y-16526143D01*
X7534286Y-16597571D01*
X7520000Y-16626143D01*
X7505714Y-16640429D01*
X7477143Y-16654714D01*
X7391428Y-16654714D01*
X7362857Y-16640429D01*
X7348571Y-16626143D01*
X7648571Y-16383286D02*
X7662857Y-16369000D01*
X7691428Y-16354714D01*
X7762857Y-16354714D01*
X7791428Y-16369000D01*
X7805714Y-16383286D01*
X7820000Y-16411857D01*
X7820000Y-16440429D01*
X7805714Y-16483286D01*
X7634286Y-16654714D01*
X7820000Y-16654714D01*
X7934286Y-16354714D02*
X7934286Y-16411857D01*
X8048571Y-16354714D02*
X8048571Y-16411857D01*
X8491428Y-16769000D02*
X8477143Y-16754714D01*
X8448571Y-16711857D01*
X8434286Y-16683286D01*
X8420000Y-16640429D01*
X8405714Y-16569000D01*
X8405714Y-16511857D01*
X8420000Y-16440429D01*
X8434286Y-16397571D01*
X8448571Y-16369000D01*
X8477143Y-16326143D01*
X8491428Y-16311857D01*
X8591428Y-16383286D02*
X8605714Y-16369000D01*
X8634286Y-16354714D01*
X8705714Y-16354714D01*
X8734286Y-16369000D01*
X8748571Y-16383286D01*
X8762857Y-16411857D01*
X8762857Y-16440429D01*
X8748571Y-16483286D01*
X8577143Y-16654714D01*
X8762857Y-16654714D01*
X9120000Y-16654714D02*
X9120000Y-16354714D01*
X9248571Y-16654714D02*
X9248571Y-16497571D01*
X9234286Y-16469000D01*
X9205714Y-16454714D01*
X9162857Y-16454714D01*
X9134286Y-16469000D01*
X9120000Y-16483286D01*
X9434286Y-16654714D02*
X9405714Y-16640429D01*
X9391428Y-16626143D01*
X9377143Y-16597571D01*
X9377143Y-16511857D01*
X9391428Y-16483286D01*
X9405714Y-16469000D01*
X9434286Y-16454714D01*
X9477143Y-16454714D01*
X9505714Y-16469000D01*
X9520000Y-16483286D01*
X9534286Y-16511857D01*
X9534286Y-16597571D01*
X9520000Y-16626143D01*
X9505714Y-16640429D01*
X9477143Y-16654714D01*
X9434286Y-16654714D01*
X9705714Y-16654714D02*
X9677143Y-16640429D01*
X9662857Y-16611857D01*
X9662857Y-16354714D01*
X9934286Y-16640429D02*
X9905714Y-16654714D01*
X9848571Y-16654714D01*
X9820000Y-16640429D01*
X9805714Y-16611857D01*
X9805714Y-16497571D01*
X9820000Y-16469000D01*
X9848571Y-16454714D01*
X9905714Y-16454714D01*
X9934286Y-16469000D01*
X9948571Y-16497571D01*
X9948571Y-16526143D01*
X9805714Y-16554714D01*
X10062857Y-16640429D02*
X10091428Y-16654714D01*
X10148571Y-16654714D01*
X10177143Y-16640429D01*
X10191428Y-16611857D01*
X10191428Y-16597571D01*
X10177143Y-16569000D01*
X10148571Y-16554714D01*
X10105714Y-16554714D01*
X10077143Y-16540429D01*
X10062857Y-16511857D01*
X10062857Y-16497571D01*
X10077143Y-16469000D01*
X10105714Y-16454714D01*
X10148571Y-16454714D01*
X10177143Y-16469000D01*
X10291428Y-16769000D02*
X10305714Y-16754714D01*
X10334286Y-16711857D01*
X10348571Y-16683286D01*
X10362857Y-16640429D01*
X10377143Y-16569000D01*
X10377143Y-16511857D01*
X10362857Y-16440429D01*
X10348571Y-16397571D01*
X10334286Y-16369000D01*
X10305714Y-16326143D01*
X10291428Y-16311857D01*
X3716100Y-16870550D02*
X3805000Y-16959450D01*
X3805000Y-16870550D02*
X3716100Y-16959450D01*
X3805000Y-16915000D02*
G75*
G03X3805000Y-16915000I-44450J0D01*
G01*
X4148571Y-16750714D02*
X4177143Y-16750714D01*
X4205714Y-16765000D01*
X4220000Y-16779286D01*
X4234286Y-16807857D01*
X4248571Y-16865000D01*
X4248571Y-16936429D01*
X4234286Y-16993572D01*
X4220000Y-17022143D01*
X4205714Y-17036429D01*
X4177143Y-17050714D01*
X4148571Y-17050714D01*
X4120000Y-17036429D01*
X4105714Y-17022143D01*
X4091428Y-16993572D01*
X4077143Y-16936429D01*
X4077143Y-16865000D01*
X4091428Y-16807857D01*
X4105714Y-16779286D01*
X4120000Y-16765000D01*
X4148571Y-16750714D01*
X4377143Y-17022143D02*
X4391428Y-17036429D01*
X4377143Y-17050714D01*
X4362857Y-17036429D01*
X4377143Y-17022143D01*
X4377143Y-17050714D01*
X4562857Y-16879286D02*
X4534286Y-16865000D01*
X4520000Y-16850714D01*
X4505714Y-16822143D01*
X4505714Y-16807857D01*
X4520000Y-16779286D01*
X4534286Y-16765000D01*
X4562857Y-16750714D01*
X4620000Y-16750714D01*
X4648571Y-16765000D01*
X4662857Y-16779286D01*
X4677143Y-16807857D01*
X4677143Y-16822143D01*
X4662857Y-16850714D01*
X4648571Y-16865000D01*
X4620000Y-16879286D01*
X4562857Y-16879286D01*
X4534286Y-16893572D01*
X4520000Y-16907857D01*
X4505714Y-16936429D01*
X4505714Y-16993572D01*
X4520000Y-17022143D01*
X4534286Y-17036429D01*
X4562857Y-17050714D01*
X4620000Y-17050714D01*
X4648571Y-17036429D01*
X4662857Y-17022143D01*
X4677143Y-16993572D01*
X4677143Y-16936429D01*
X4662857Y-16907857D01*
X4648571Y-16893572D01*
X4620000Y-16879286D01*
X4820000Y-17050714D02*
X4877143Y-17050714D01*
X4905714Y-17036429D01*
X4920000Y-17022143D01*
X4948571Y-16979286D01*
X4962857Y-16922143D01*
X4962857Y-16807857D01*
X4948571Y-16779286D01*
X4934286Y-16765000D01*
X4905714Y-16750714D01*
X4848571Y-16750714D01*
X4820000Y-16765000D01*
X4805714Y-16779286D01*
X4791428Y-16807857D01*
X4791428Y-16879286D01*
X4805714Y-16907857D01*
X4820000Y-16922143D01*
X4848571Y-16936429D01*
X4905714Y-16936429D01*
X4934286Y-16922143D01*
X4948571Y-16907857D01*
X4962857Y-16879286D01*
X5091428Y-17050714D02*
X5091428Y-16850714D01*
X5091428Y-16879286D02*
X5105714Y-16865000D01*
X5134286Y-16850714D01*
X5177143Y-16850714D01*
X5205714Y-16865000D01*
X5220000Y-16893572D01*
X5220000Y-17050714D01*
X5220000Y-16893572D02*
X5234286Y-16865000D01*
X5262857Y-16850714D01*
X5305714Y-16850714D01*
X5334286Y-16865000D01*
X5348571Y-16893572D01*
X5348571Y-17050714D01*
X5491428Y-17050714D02*
X5491428Y-16850714D01*
X5491428Y-16879286D02*
X5505714Y-16865000D01*
X5534286Y-16850714D01*
X5577143Y-16850714D01*
X5605714Y-16865000D01*
X5620000Y-16893572D01*
X5620000Y-17050714D01*
X5620000Y-16893572D02*
X5634286Y-16865000D01*
X5662857Y-16850714D01*
X5705714Y-16850714D01*
X5734286Y-16865000D01*
X5748571Y-16893572D01*
X5748571Y-17050714D01*
X6334286Y-16736429D02*
X6077143Y-17122143D01*
X6720000Y-16750714D02*
X6748571Y-16750714D01*
X6777143Y-16765000D01*
X6791428Y-16779286D01*
X6805714Y-16807857D01*
X6820000Y-16865000D01*
X6820000Y-16936429D01*
X6805714Y-16993572D01*
X6791428Y-17022143D01*
X6777143Y-17036429D01*
X6748571Y-17050714D01*
X6720000Y-17050714D01*
X6691428Y-17036429D01*
X6677143Y-17022143D01*
X6662857Y-16993572D01*
X6648571Y-16936429D01*
X6648571Y-16865000D01*
X6662857Y-16807857D01*
X6677143Y-16779286D01*
X6691428Y-16765000D01*
X6720000Y-16750714D01*
X6948571Y-17022143D02*
X6962857Y-17036429D01*
X6948571Y-17050714D01*
X6934286Y-17036429D01*
X6948571Y-17022143D01*
X6948571Y-17050714D01*
X7148571Y-16750714D02*
X7177143Y-16750714D01*
X7205714Y-16765000D01*
X7220000Y-16779286D01*
X7234286Y-16807857D01*
X7248571Y-16865000D01*
X7248571Y-16936429D01*
X7234286Y-16993572D01*
X7220000Y-17022143D01*
X7205714Y-17036429D01*
X7177143Y-17050714D01*
X7148571Y-17050714D01*
X7120000Y-17036429D01*
X7105714Y-17022143D01*
X7091428Y-16993572D01*
X7077143Y-16936429D01*
X7077143Y-16865000D01*
X7091428Y-16807857D01*
X7105714Y-16779286D01*
X7120000Y-16765000D01*
X7148571Y-16750714D01*
X7348571Y-16750714D02*
X7534286Y-16750714D01*
X7434286Y-16865000D01*
X7477143Y-16865000D01*
X7505714Y-16879286D01*
X7520000Y-16893572D01*
X7534286Y-16922143D01*
X7534286Y-16993572D01*
X7520000Y-17022143D01*
X7505714Y-17036429D01*
X7477143Y-17050714D01*
X7391428Y-17050714D01*
X7362857Y-17036429D01*
X7348571Y-17022143D01*
X7805714Y-16750714D02*
X7662857Y-16750714D01*
X7648571Y-16893572D01*
X7662857Y-16879286D01*
X7691428Y-16865000D01*
X7762857Y-16865000D01*
X7791428Y-16879286D01*
X7805714Y-16893572D01*
X7820000Y-16922143D01*
X7820000Y-16993572D01*
X7805714Y-17022143D01*
X7791428Y-17036429D01*
X7762857Y-17050714D01*
X7691428Y-17050714D01*
X7662857Y-17036429D01*
X7648571Y-17022143D01*
X7934286Y-16750714D02*
X7934286Y-16807857D01*
X8048571Y-16750714D02*
X8048571Y-16807857D01*
X8491428Y-17165000D02*
X8477143Y-17150714D01*
X8448571Y-17107857D01*
X8434286Y-17079286D01*
X8420000Y-17036429D01*
X8405714Y-16965000D01*
X8405714Y-16907857D01*
X8420000Y-16836429D01*
X8434286Y-16793572D01*
X8448571Y-16765000D01*
X8477143Y-16722143D01*
X8491428Y-16707857D01*
X8762857Y-17050714D02*
X8591428Y-17050714D01*
X8677143Y-17050714D02*
X8677143Y-16750714D01*
X8648571Y-16793572D01*
X8620000Y-16822143D01*
X8591428Y-16836429D01*
X9020000Y-16750714D02*
X8962857Y-16750714D01*
X8934286Y-16765000D01*
X8920000Y-16779286D01*
X8891428Y-16822143D01*
X8877143Y-16879286D01*
X8877143Y-16993572D01*
X8891428Y-17022143D01*
X8905714Y-17036429D01*
X8934286Y-17050714D01*
X8991428Y-17050714D01*
X9020000Y-17036429D01*
X9034286Y-17022143D01*
X9048571Y-16993572D01*
X9048571Y-16922143D01*
X9034286Y-16893572D01*
X9020000Y-16879286D01*
X8991428Y-16865000D01*
X8934286Y-16865000D01*
X8905714Y-16879286D01*
X8891428Y-16893572D01*
X8877143Y-16922143D01*
X9405714Y-17050714D02*
X9405714Y-16750714D01*
X9534286Y-17050714D02*
X9534286Y-16893572D01*
X9520000Y-16865000D01*
X9491428Y-16850714D01*
X9448571Y-16850714D01*
X9420000Y-16865000D01*
X9405714Y-16879286D01*
X9720000Y-17050714D02*
X9691428Y-17036429D01*
X9677143Y-17022143D01*
X9662857Y-16993572D01*
X9662857Y-16907857D01*
X9677143Y-16879286D01*
X9691428Y-16865000D01*
X9720000Y-16850714D01*
X9762857Y-16850714D01*
X9791428Y-16865000D01*
X9805714Y-16879286D01*
X9820000Y-16907857D01*
X9820000Y-16993572D01*
X9805714Y-17022143D01*
X9791428Y-17036429D01*
X9762857Y-17050714D01*
X9720000Y-17050714D01*
X9991428Y-17050714D02*
X9962857Y-17036429D01*
X9948571Y-17007857D01*
X9948571Y-16750714D01*
X10220000Y-17036429D02*
X10191428Y-17050714D01*
X10134286Y-17050714D01*
X10105714Y-17036429D01*
X10091428Y-17007857D01*
X10091428Y-16893572D01*
X10105714Y-16865000D01*
X10134286Y-16850714D01*
X10191428Y-16850714D01*
X10220000Y-16865000D01*
X10234286Y-16893572D01*
X10234286Y-16922143D01*
X10091428Y-16950714D01*
X10348571Y-17036429D02*
X10377143Y-17050714D01*
X10434286Y-17050714D01*
X10462857Y-17036429D01*
X10477143Y-17007857D01*
X10477143Y-16993572D01*
X10462857Y-16965000D01*
X10434286Y-16950714D01*
X10391428Y-16950714D01*
X10362857Y-16936429D01*
X10348571Y-16907857D01*
X10348571Y-16893572D01*
X10362857Y-16865000D01*
X10391428Y-16850714D01*
X10434286Y-16850714D01*
X10462857Y-16865000D01*
X10577143Y-17165000D02*
X10591428Y-17150714D01*
X10620000Y-17107857D01*
X10634286Y-17079286D01*
X10648571Y-17036429D01*
X10662857Y-16965000D01*
X10662857Y-16907857D01*
X10648571Y-16836429D01*
X10634286Y-16793572D01*
X10620000Y-16765000D01*
X10591428Y-16722143D01*
X10577143Y-16707857D01*
X3715000Y-17266000D02*
X3805000Y-17356000D01*
X3805000Y-17266000D02*
X3715000Y-17356000D01*
X3760000Y-17266000D02*
X3760000Y-17356000D01*
X3715000Y-17311000D02*
X3805000Y-17311000D01*
X4148571Y-17146714D02*
X4177143Y-17146714D01*
X4205714Y-17161000D01*
X4220000Y-17175286D01*
X4234286Y-17203857D01*
X4248571Y-17261000D01*
X4248571Y-17332429D01*
X4234286Y-17389572D01*
X4220000Y-17418143D01*
X4205714Y-17432429D01*
X4177143Y-17446714D01*
X4148571Y-17446714D01*
X4120000Y-17432429D01*
X4105714Y-17418143D01*
X4091428Y-17389572D01*
X4077143Y-17332429D01*
X4077143Y-17261000D01*
X4091428Y-17203857D01*
X4105714Y-17175286D01*
X4120000Y-17161000D01*
X4148571Y-17146714D01*
X4377143Y-17418143D02*
X4391428Y-17432429D01*
X4377143Y-17446714D01*
X4362857Y-17432429D01*
X4377143Y-17418143D01*
X4377143Y-17446714D01*
X4534286Y-17446714D02*
X4591428Y-17446714D01*
X4620000Y-17432429D01*
X4634286Y-17418143D01*
X4662857Y-17375286D01*
X4677143Y-17318143D01*
X4677143Y-17203857D01*
X4662857Y-17175286D01*
X4648571Y-17161000D01*
X4620000Y-17146714D01*
X4562857Y-17146714D01*
X4534286Y-17161000D01*
X4520000Y-17175286D01*
X4505714Y-17203857D01*
X4505714Y-17275286D01*
X4520000Y-17303857D01*
X4534286Y-17318143D01*
X4562857Y-17332429D01*
X4620000Y-17332429D01*
X4648571Y-17318143D01*
X4662857Y-17303857D01*
X4677143Y-17275286D01*
X4862857Y-17146714D02*
X4891428Y-17146714D01*
X4920000Y-17161000D01*
X4934286Y-17175286D01*
X4948571Y-17203857D01*
X4962857Y-17261000D01*
X4962857Y-17332429D01*
X4948571Y-17389572D01*
X4934286Y-17418143D01*
X4920000Y-17432429D01*
X4891428Y-17446714D01*
X4862857Y-17446714D01*
X4834286Y-17432429D01*
X4820000Y-17418143D01*
X4805714Y-17389572D01*
X4791428Y-17332429D01*
X4791428Y-17261000D01*
X4805714Y-17203857D01*
X4820000Y-17175286D01*
X4834286Y-17161000D01*
X4862857Y-17146714D01*
X5091428Y-17446714D02*
X5091428Y-17246714D01*
X5091428Y-17275286D02*
X5105714Y-17261000D01*
X5134286Y-17246714D01*
X5177143Y-17246714D01*
X5205714Y-17261000D01*
X5220000Y-17289572D01*
X5220000Y-17446714D01*
X5220000Y-17289572D02*
X5234286Y-17261000D01*
X5262857Y-17246714D01*
X5305714Y-17246714D01*
X5334286Y-17261000D01*
X5348571Y-17289572D01*
X5348571Y-17446714D01*
X5491428Y-17446714D02*
X5491428Y-17246714D01*
X5491428Y-17275286D02*
X5505714Y-17261000D01*
X5534286Y-17246714D01*
X5577143Y-17246714D01*
X5605714Y-17261000D01*
X5620000Y-17289572D01*
X5620000Y-17446714D01*
X5620000Y-17289572D02*
X5634286Y-17261000D01*
X5662857Y-17246714D01*
X5705714Y-17246714D01*
X5734286Y-17261000D01*
X5748571Y-17289572D01*
X5748571Y-17446714D01*
X6334286Y-17132429D02*
X6077143Y-17518143D01*
X6720000Y-17146714D02*
X6748571Y-17146714D01*
X6777143Y-17161000D01*
X6791428Y-17175286D01*
X6805714Y-17203857D01*
X6820000Y-17261000D01*
X6820000Y-17332429D01*
X6805714Y-17389572D01*
X6791428Y-17418143D01*
X6777143Y-17432429D01*
X6748571Y-17446714D01*
X6720000Y-17446714D01*
X6691428Y-17432429D01*
X6677143Y-17418143D01*
X6662857Y-17389572D01*
X6648571Y-17332429D01*
X6648571Y-17261000D01*
X6662857Y-17203857D01*
X6677143Y-17175286D01*
X6691428Y-17161000D01*
X6720000Y-17146714D01*
X6948571Y-17418143D02*
X6962857Y-17432429D01*
X6948571Y-17446714D01*
X6934286Y-17432429D01*
X6948571Y-17418143D01*
X6948571Y-17446714D01*
X7148571Y-17146714D02*
X7177143Y-17146714D01*
X7205714Y-17161000D01*
X7220000Y-17175286D01*
X7234286Y-17203857D01*
X7248571Y-17261000D01*
X7248571Y-17332429D01*
X7234286Y-17389572D01*
X7220000Y-17418143D01*
X7205714Y-17432429D01*
X7177143Y-17446714D01*
X7148571Y-17446714D01*
X7120000Y-17432429D01*
X7105714Y-17418143D01*
X7091428Y-17389572D01*
X7077143Y-17332429D01*
X7077143Y-17261000D01*
X7091428Y-17203857D01*
X7105714Y-17175286D01*
X7120000Y-17161000D01*
X7148571Y-17146714D01*
X7348571Y-17146714D02*
X7534286Y-17146714D01*
X7434286Y-17261000D01*
X7477143Y-17261000D01*
X7505714Y-17275286D01*
X7520000Y-17289572D01*
X7534286Y-17318143D01*
X7534286Y-17389572D01*
X7520000Y-17418143D01*
X7505714Y-17432429D01*
X7477143Y-17446714D01*
X7391428Y-17446714D01*
X7362857Y-17432429D01*
X7348571Y-17418143D01*
X7805714Y-17146714D02*
X7662857Y-17146714D01*
X7648571Y-17289572D01*
X7662857Y-17275286D01*
X7691428Y-17261000D01*
X7762857Y-17261000D01*
X7791428Y-17275286D01*
X7805714Y-17289572D01*
X7820000Y-17318143D01*
X7820000Y-17389572D01*
X7805714Y-17418143D01*
X7791428Y-17432429D01*
X7762857Y-17446714D01*
X7691428Y-17446714D01*
X7662857Y-17432429D01*
X7648571Y-17418143D01*
X7934286Y-17146714D02*
X7934286Y-17203857D01*
X8048571Y-17146714D02*
X8048571Y-17203857D01*
X8491428Y-17561000D02*
X8477143Y-17546714D01*
X8448571Y-17503857D01*
X8434286Y-17475286D01*
X8420000Y-17432429D01*
X8405714Y-17361000D01*
X8405714Y-17303857D01*
X8420000Y-17232429D01*
X8434286Y-17189572D01*
X8448571Y-17161000D01*
X8477143Y-17118143D01*
X8491428Y-17103857D01*
X8620000Y-17446714D02*
X8677143Y-17446714D01*
X8705714Y-17432429D01*
X8720000Y-17418143D01*
X8748571Y-17375286D01*
X8762857Y-17318143D01*
X8762857Y-17203857D01*
X8748571Y-17175286D01*
X8734286Y-17161000D01*
X8705714Y-17146714D01*
X8648571Y-17146714D01*
X8620000Y-17161000D01*
X8605714Y-17175286D01*
X8591428Y-17203857D01*
X8591428Y-17275286D01*
X8605714Y-17303857D01*
X8620000Y-17318143D01*
X8648571Y-17332429D01*
X8705714Y-17332429D01*
X8734286Y-17318143D01*
X8748571Y-17303857D01*
X8762857Y-17275286D01*
X9020000Y-17146714D02*
X8962857Y-17146714D01*
X8934286Y-17161000D01*
X8920000Y-17175286D01*
X8891428Y-17218143D01*
X8877143Y-17275286D01*
X8877143Y-17389572D01*
X8891428Y-17418143D01*
X8905714Y-17432429D01*
X8934286Y-17446714D01*
X8991428Y-17446714D01*
X9020000Y-17432429D01*
X9034286Y-17418143D01*
X9048571Y-17389572D01*
X9048571Y-17318143D01*
X9034286Y-17289572D01*
X9020000Y-17275286D01*
X8991428Y-17261000D01*
X8934286Y-17261000D01*
X8905714Y-17275286D01*
X8891428Y-17289572D01*
X8877143Y-17318143D01*
X9405714Y-17446714D02*
X9405714Y-17146714D01*
X9534286Y-17446714D02*
X9534286Y-17289572D01*
X9520000Y-17261000D01*
X9491428Y-17246714D01*
X9448571Y-17246714D01*
X9420000Y-17261000D01*
X9405714Y-17275286D01*
X9720000Y-17446714D02*
X9691428Y-17432429D01*
X9677143Y-17418143D01*
X9662857Y-17389572D01*
X9662857Y-17303857D01*
X9677143Y-17275286D01*
X9691428Y-17261000D01*
X9720000Y-17246714D01*
X9762857Y-17246714D01*
X9791428Y-17261000D01*
X9805714Y-17275286D01*
X9820000Y-17303857D01*
X9820000Y-17389572D01*
X9805714Y-17418143D01*
X9791428Y-17432429D01*
X9762857Y-17446714D01*
X9720000Y-17446714D01*
X9991428Y-17446714D02*
X9962857Y-17432429D01*
X9948571Y-17403857D01*
X9948571Y-17146714D01*
X10220000Y-17432429D02*
X10191428Y-17446714D01*
X10134286Y-17446714D01*
X10105714Y-17432429D01*
X10091428Y-17403857D01*
X10091428Y-17289572D01*
X10105714Y-17261000D01*
X10134286Y-17246714D01*
X10191428Y-17246714D01*
X10220000Y-17261000D01*
X10234286Y-17289572D01*
X10234286Y-17318143D01*
X10091428Y-17346714D01*
X10348571Y-17432429D02*
X10377143Y-17446714D01*
X10434286Y-17446714D01*
X10462857Y-17432429D01*
X10477143Y-17403857D01*
X10477143Y-17389572D01*
X10462857Y-17361000D01*
X10434286Y-17346714D01*
X10391428Y-17346714D01*
X10362857Y-17332429D01*
X10348571Y-17303857D01*
X10348571Y-17289572D01*
X10362857Y-17261000D01*
X10391428Y-17246714D01*
X10434286Y-17246714D01*
X10462857Y-17261000D01*
X10577143Y-17561000D02*
X10591428Y-17546714D01*
X10620000Y-17503857D01*
X10634286Y-17475286D01*
X10648571Y-17432429D01*
X10662857Y-17361000D01*
X10662857Y-17303857D01*
X10648571Y-17232429D01*
X10634286Y-17189572D01*
X10620000Y-17161000D01*
X10591428Y-17118143D01*
X10577143Y-17103857D01*
X3711000Y-17660000D02*
X3805000Y-17754000D01*
X3805000Y-17660000D02*
X3711000Y-17754000D01*
X3791234Y-17740234D02*
X3791234Y-17673766D01*
X3724766Y-17673766D01*
X3724766Y-17740234D01*
X3791234Y-17740234D01*
X4148571Y-17542714D02*
X4177143Y-17542714D01*
X4205714Y-17557000D01*
X4220000Y-17571286D01*
X4234286Y-17599857D01*
X4248571Y-17657000D01*
X4248571Y-17728429D01*
X4234286Y-17785572D01*
X4220000Y-17814143D01*
X4205714Y-17828429D01*
X4177143Y-17842714D01*
X4148571Y-17842714D01*
X4120000Y-17828429D01*
X4105714Y-17814143D01*
X4091428Y-17785572D01*
X4077143Y-17728429D01*
X4077143Y-17657000D01*
X4091428Y-17599857D01*
X4105714Y-17571286D01*
X4120000Y-17557000D01*
X4148571Y-17542714D01*
X4377143Y-17814143D02*
X4391428Y-17828429D01*
X4377143Y-17842714D01*
X4362857Y-17828429D01*
X4377143Y-17814143D01*
X4377143Y-17842714D01*
X4534286Y-17842714D02*
X4591428Y-17842714D01*
X4620000Y-17828429D01*
X4634286Y-17814143D01*
X4662857Y-17771286D01*
X4677143Y-17714143D01*
X4677143Y-17599857D01*
X4662857Y-17571286D01*
X4648571Y-17557000D01*
X4620000Y-17542714D01*
X4562857Y-17542714D01*
X4534286Y-17557000D01*
X4520000Y-17571286D01*
X4505714Y-17599857D01*
X4505714Y-17671286D01*
X4520000Y-17699857D01*
X4534286Y-17714143D01*
X4562857Y-17728429D01*
X4620000Y-17728429D01*
X4648571Y-17714143D01*
X4662857Y-17699857D01*
X4677143Y-17671286D01*
X4934286Y-17642714D02*
X4934286Y-17842714D01*
X4862857Y-17528429D02*
X4791428Y-17742714D01*
X4977143Y-17742714D01*
X5091428Y-17842714D02*
X5091428Y-17642714D01*
X5091428Y-17671286D02*
X5105714Y-17657000D01*
X5134286Y-17642714D01*
X5177143Y-17642714D01*
X5205714Y-17657000D01*
X5220000Y-17685572D01*
X5220000Y-17842714D01*
X5220000Y-17685572D02*
X5234286Y-17657000D01*
X5262857Y-17642714D01*
X5305714Y-17642714D01*
X5334286Y-17657000D01*
X5348571Y-17685572D01*
X5348571Y-17842714D01*
X5491428Y-17842714D02*
X5491428Y-17642714D01*
X5491428Y-17671286D02*
X5505714Y-17657000D01*
X5534286Y-17642714D01*
X5577143Y-17642714D01*
X5605714Y-17657000D01*
X5620000Y-17685572D01*
X5620000Y-17842714D01*
X5620000Y-17685572D02*
X5634286Y-17657000D01*
X5662857Y-17642714D01*
X5705714Y-17642714D01*
X5734286Y-17657000D01*
X5748571Y-17685572D01*
X5748571Y-17842714D01*
X6334286Y-17528429D02*
X6077143Y-17914143D01*
X6720000Y-17542714D02*
X6748571Y-17542714D01*
X6777143Y-17557000D01*
X6791428Y-17571286D01*
X6805714Y-17599857D01*
X6820000Y-17657000D01*
X6820000Y-17728429D01*
X6805714Y-17785572D01*
X6791428Y-17814143D01*
X6777143Y-17828429D01*
X6748571Y-17842714D01*
X6720000Y-17842714D01*
X6691428Y-17828429D01*
X6677143Y-17814143D01*
X6662857Y-17785572D01*
X6648571Y-17728429D01*
X6648571Y-17657000D01*
X6662857Y-17599857D01*
X6677143Y-17571286D01*
X6691428Y-17557000D01*
X6720000Y-17542714D01*
X6948571Y-17814143D02*
X6962857Y-17828429D01*
X6948571Y-17842714D01*
X6934286Y-17828429D01*
X6948571Y-17814143D01*
X6948571Y-17842714D01*
X7148571Y-17542714D02*
X7177143Y-17542714D01*
X7205714Y-17557000D01*
X7220000Y-17571286D01*
X7234286Y-17599857D01*
X7248571Y-17657000D01*
X7248571Y-17728429D01*
X7234286Y-17785572D01*
X7220000Y-17814143D01*
X7205714Y-17828429D01*
X7177143Y-17842714D01*
X7148571Y-17842714D01*
X7120000Y-17828429D01*
X7105714Y-17814143D01*
X7091428Y-17785572D01*
X7077143Y-17728429D01*
X7077143Y-17657000D01*
X7091428Y-17599857D01*
X7105714Y-17571286D01*
X7120000Y-17557000D01*
X7148571Y-17542714D01*
X7348571Y-17542714D02*
X7534286Y-17542714D01*
X7434286Y-17657000D01*
X7477143Y-17657000D01*
X7505714Y-17671286D01*
X7520000Y-17685572D01*
X7534286Y-17714143D01*
X7534286Y-17785572D01*
X7520000Y-17814143D01*
X7505714Y-17828429D01*
X7477143Y-17842714D01*
X7391428Y-17842714D01*
X7362857Y-17828429D01*
X7348571Y-17814143D01*
X7634286Y-17542714D02*
X7834286Y-17542714D01*
X7705714Y-17842714D01*
X7934286Y-17542714D02*
X7934286Y-17599857D01*
X8048571Y-17542714D02*
X8048571Y-17599857D01*
X8491428Y-17957000D02*
X8477143Y-17942714D01*
X8448571Y-17899857D01*
X8434286Y-17871286D01*
X8420000Y-17828429D01*
X8405714Y-17757000D01*
X8405714Y-17699857D01*
X8420000Y-17628429D01*
X8434286Y-17585572D01*
X8448571Y-17557000D01*
X8477143Y-17514143D01*
X8491428Y-17499857D01*
X8577143Y-17542714D02*
X8762857Y-17542714D01*
X8662857Y-17657000D01*
X8705714Y-17657000D01*
X8734286Y-17671286D01*
X8748571Y-17685572D01*
X8762857Y-17714143D01*
X8762857Y-17785572D01*
X8748571Y-17814143D01*
X8734286Y-17828429D01*
X8705714Y-17842714D01*
X8620000Y-17842714D01*
X8591428Y-17828429D01*
X8577143Y-17814143D01*
X9120000Y-17842714D02*
X9120000Y-17542714D01*
X9248571Y-17842714D02*
X9248571Y-17685572D01*
X9234286Y-17657000D01*
X9205714Y-17642714D01*
X9162857Y-17642714D01*
X9134286Y-17657000D01*
X9120000Y-17671286D01*
X9434286Y-17842714D02*
X9405714Y-17828429D01*
X9391428Y-17814143D01*
X9377143Y-17785572D01*
X9377143Y-17699857D01*
X9391428Y-17671286D01*
X9405714Y-17657000D01*
X9434286Y-17642714D01*
X9477143Y-17642714D01*
X9505714Y-17657000D01*
X9520000Y-17671286D01*
X9534286Y-17699857D01*
X9534286Y-17785572D01*
X9520000Y-17814143D01*
X9505714Y-17828429D01*
X9477143Y-17842714D01*
X9434286Y-17842714D01*
X9705714Y-17842714D02*
X9677143Y-17828429D01*
X9662857Y-17799857D01*
X9662857Y-17542714D01*
X9934286Y-17828429D02*
X9905714Y-17842714D01*
X9848571Y-17842714D01*
X9820000Y-17828429D01*
X9805714Y-17799857D01*
X9805714Y-17685572D01*
X9820000Y-17657000D01*
X9848571Y-17642714D01*
X9905714Y-17642714D01*
X9934286Y-17657000D01*
X9948571Y-17685572D01*
X9948571Y-17714143D01*
X9805714Y-17742714D01*
X10062857Y-17828429D02*
X10091428Y-17842714D01*
X10148571Y-17842714D01*
X10177143Y-17828429D01*
X10191428Y-17799857D01*
X10191428Y-17785572D01*
X10177143Y-17757000D01*
X10148571Y-17742714D01*
X10105714Y-17742714D01*
X10077143Y-17728429D01*
X10062857Y-17699857D01*
X10062857Y-17685572D01*
X10077143Y-17657000D01*
X10105714Y-17642714D01*
X10148571Y-17642714D01*
X10177143Y-17657000D01*
X10291428Y-17957000D02*
X10305714Y-17942714D01*
X10334286Y-17899857D01*
X10348571Y-17871286D01*
X10362857Y-17828429D01*
X10377143Y-17757000D01*
X10377143Y-17699857D01*
X10362857Y-17628429D01*
X10348571Y-17585572D01*
X10334286Y-17557000D01*
X10305714Y-17514143D01*
X10291428Y-17499857D01*
X3705000Y-18053000D02*
X3805000Y-18153000D01*
X3805000Y-18053000D02*
X3705000Y-18153000D01*
X3755000Y-18153000D02*
X3805000Y-18103000D01*
X3755000Y-18053000D01*
X3705000Y-18103000D01*
X3755000Y-18153000D01*
X4248571Y-18238714D02*
X4077143Y-18238714D01*
X4162857Y-18238714D02*
X4162857Y-17938714D01*
X4134286Y-17981572D01*
X4105714Y-18010143D01*
X4077143Y-18024429D01*
X4377143Y-18210143D02*
X4391428Y-18224429D01*
X4377143Y-18238714D01*
X4362857Y-18224429D01*
X4377143Y-18210143D01*
X4377143Y-18238714D01*
X4577143Y-17938714D02*
X4605714Y-17938714D01*
X4634286Y-17953000D01*
X4648571Y-17967286D01*
X4662857Y-17995857D01*
X4677143Y-18053000D01*
X4677143Y-18124429D01*
X4662857Y-18181572D01*
X4648571Y-18210143D01*
X4634286Y-18224429D01*
X4605714Y-18238714D01*
X4577143Y-18238714D01*
X4548571Y-18224429D01*
X4534286Y-18210143D01*
X4520000Y-18181572D01*
X4505714Y-18124429D01*
X4505714Y-18053000D01*
X4520000Y-17995857D01*
X4534286Y-17967286D01*
X4548571Y-17953000D01*
X4577143Y-17938714D01*
X4862857Y-17938714D02*
X4891428Y-17938714D01*
X4920000Y-17953000D01*
X4934286Y-17967286D01*
X4948571Y-17995857D01*
X4962857Y-18053000D01*
X4962857Y-18124429D01*
X4948571Y-18181572D01*
X4934286Y-18210143D01*
X4920000Y-18224429D01*
X4891428Y-18238714D01*
X4862857Y-18238714D01*
X4834286Y-18224429D01*
X4820000Y-18210143D01*
X4805714Y-18181572D01*
X4791428Y-18124429D01*
X4791428Y-18053000D01*
X4805714Y-17995857D01*
X4820000Y-17967286D01*
X4834286Y-17953000D01*
X4862857Y-17938714D01*
X5091428Y-18238714D02*
X5091428Y-18038714D01*
X5091428Y-18067286D02*
X5105714Y-18053000D01*
X5134286Y-18038714D01*
X5177143Y-18038714D01*
X5205714Y-18053000D01*
X5220000Y-18081572D01*
X5220000Y-18238714D01*
X5220000Y-18081572D02*
X5234286Y-18053000D01*
X5262857Y-18038714D01*
X5305714Y-18038714D01*
X5334286Y-18053000D01*
X5348571Y-18081572D01*
X5348571Y-18238714D01*
X5491428Y-18238714D02*
X5491428Y-18038714D01*
X5491428Y-18067286D02*
X5505714Y-18053000D01*
X5534286Y-18038714D01*
X5577143Y-18038714D01*
X5605714Y-18053000D01*
X5620000Y-18081572D01*
X5620000Y-18238714D01*
X5620000Y-18081572D02*
X5634286Y-18053000D01*
X5662857Y-18038714D01*
X5705714Y-18038714D01*
X5734286Y-18053000D01*
X5748571Y-18081572D01*
X5748571Y-18238714D01*
X6334286Y-17924429D02*
X6077143Y-18310143D01*
X6720000Y-17938714D02*
X6748571Y-17938714D01*
X6777143Y-17953000D01*
X6791428Y-17967286D01*
X6805714Y-17995857D01*
X6820000Y-18053000D01*
X6820000Y-18124429D01*
X6805714Y-18181572D01*
X6791428Y-18210143D01*
X6777143Y-18224429D01*
X6748571Y-18238714D01*
X6720000Y-18238714D01*
X6691428Y-18224429D01*
X6677143Y-18210143D01*
X6662857Y-18181572D01*
X6648571Y-18124429D01*
X6648571Y-18053000D01*
X6662857Y-17995857D01*
X6677143Y-17967286D01*
X6691428Y-17953000D01*
X6720000Y-17938714D01*
X6948571Y-18210143D02*
X6962857Y-18224429D01*
X6948571Y-18238714D01*
X6934286Y-18224429D01*
X6948571Y-18210143D01*
X6948571Y-18238714D01*
X7148571Y-17938714D02*
X7177143Y-17938714D01*
X7205714Y-17953000D01*
X7220000Y-17967286D01*
X7234286Y-17995857D01*
X7248571Y-18053000D01*
X7248571Y-18124429D01*
X7234286Y-18181572D01*
X7220000Y-18210143D01*
X7205714Y-18224429D01*
X7177143Y-18238714D01*
X7148571Y-18238714D01*
X7120000Y-18224429D01*
X7105714Y-18210143D01*
X7091428Y-18181572D01*
X7077143Y-18124429D01*
X7077143Y-18053000D01*
X7091428Y-17995857D01*
X7105714Y-17967286D01*
X7120000Y-17953000D01*
X7148571Y-17938714D01*
X7348571Y-17938714D02*
X7534286Y-17938714D01*
X7434286Y-18053000D01*
X7477143Y-18053000D01*
X7505714Y-18067286D01*
X7520000Y-18081572D01*
X7534286Y-18110143D01*
X7534286Y-18181572D01*
X7520000Y-18210143D01*
X7505714Y-18224429D01*
X7477143Y-18238714D01*
X7391428Y-18238714D01*
X7362857Y-18224429D01*
X7348571Y-18210143D01*
X7677143Y-18238714D02*
X7734286Y-18238714D01*
X7762857Y-18224429D01*
X7777143Y-18210143D01*
X7805714Y-18167286D01*
X7820000Y-18110143D01*
X7820000Y-17995857D01*
X7805714Y-17967286D01*
X7791428Y-17953000D01*
X7762857Y-17938714D01*
X7705714Y-17938714D01*
X7677143Y-17953000D01*
X7662857Y-17967286D01*
X7648571Y-17995857D01*
X7648571Y-18067286D01*
X7662857Y-18095857D01*
X7677143Y-18110143D01*
X7705714Y-18124429D01*
X7762857Y-18124429D01*
X7791428Y-18110143D01*
X7805714Y-18095857D01*
X7820000Y-18067286D01*
X7934286Y-17938714D02*
X7934286Y-17995857D01*
X8048571Y-17938714D02*
X8048571Y-17995857D01*
X8491428Y-18353000D02*
X8477143Y-18338714D01*
X8448571Y-18295857D01*
X8434286Y-18267286D01*
X8420000Y-18224429D01*
X8405714Y-18153000D01*
X8405714Y-18095857D01*
X8420000Y-18024429D01*
X8434286Y-17981572D01*
X8448571Y-17953000D01*
X8477143Y-17910143D01*
X8491428Y-17895857D01*
X8762857Y-18238714D02*
X8591428Y-18238714D01*
X8677143Y-18238714D02*
X8677143Y-17938714D01*
X8648571Y-17981572D01*
X8620000Y-18010143D01*
X8591428Y-18024429D01*
X8877143Y-17967286D02*
X8891428Y-17953000D01*
X8920000Y-17938714D01*
X8991428Y-17938714D01*
X9020000Y-17953000D01*
X9034286Y-17967286D01*
X9048571Y-17995857D01*
X9048571Y-18024429D01*
X9034286Y-18067286D01*
X8862857Y-18238714D01*
X9048571Y-18238714D01*
X9220000Y-18067286D02*
X9191428Y-18053000D01*
X9177143Y-18038714D01*
X9162857Y-18010143D01*
X9162857Y-17995857D01*
X9177143Y-17967286D01*
X9191428Y-17953000D01*
X9220000Y-17938714D01*
X9277143Y-17938714D01*
X9305714Y-17953000D01*
X9320000Y-17967286D01*
X9334286Y-17995857D01*
X9334286Y-18010143D01*
X9320000Y-18038714D01*
X9305714Y-18053000D01*
X9277143Y-18067286D01*
X9220000Y-18067286D01*
X9191428Y-18081572D01*
X9177143Y-18095857D01*
X9162857Y-18124429D01*
X9162857Y-18181572D01*
X9177143Y-18210143D01*
X9191428Y-18224429D01*
X9220000Y-18238714D01*
X9277143Y-18238714D01*
X9305714Y-18224429D01*
X9320000Y-18210143D01*
X9334286Y-18181572D01*
X9334286Y-18124429D01*
X9320000Y-18095857D01*
X9305714Y-18081572D01*
X9277143Y-18067286D01*
X9691428Y-18238714D02*
X9691428Y-17938714D01*
X9820000Y-18238714D02*
X9820000Y-18081572D01*
X9805714Y-18053000D01*
X9777143Y-18038714D01*
X9734286Y-18038714D01*
X9705714Y-18053000D01*
X9691428Y-18067286D01*
X10005714Y-18238714D02*
X9977143Y-18224429D01*
X9962857Y-18210143D01*
X9948571Y-18181572D01*
X9948571Y-18095857D01*
X9962857Y-18067286D01*
X9977143Y-18053000D01*
X10005714Y-18038714D01*
X10048571Y-18038714D01*
X10077143Y-18053000D01*
X10091428Y-18067286D01*
X10105714Y-18095857D01*
X10105714Y-18181572D01*
X10091428Y-18210143D01*
X10077143Y-18224429D01*
X10048571Y-18238714D01*
X10005714Y-18238714D01*
X10277143Y-18238714D02*
X10248571Y-18224429D01*
X10234286Y-18195857D01*
X10234286Y-17938714D01*
X10505714Y-18224429D02*
X10477143Y-18238714D01*
X10420000Y-18238714D01*
X10391428Y-18224429D01*
X10377143Y-18195857D01*
X10377143Y-18081572D01*
X10391428Y-18053000D01*
X10420000Y-18038714D01*
X10477143Y-18038714D01*
X10505714Y-18053000D01*
X10520000Y-18081572D01*
X10520000Y-18110143D01*
X10377143Y-18138714D01*
X10634286Y-18224429D02*
X10662857Y-18238714D01*
X10720000Y-18238714D01*
X10748571Y-18224429D01*
X10762857Y-18195857D01*
X10762857Y-18181572D01*
X10748571Y-18153000D01*
X10720000Y-18138714D01*
X10677143Y-18138714D01*
X10648571Y-18124429D01*
X10634286Y-18095857D01*
X10634286Y-18081572D01*
X10648571Y-18053000D01*
X10677143Y-18038714D01*
X10720000Y-18038714D01*
X10748571Y-18053000D01*
X10862857Y-18353000D02*
X10877143Y-18338714D01*
X10905714Y-18295857D01*
X10920000Y-18267286D01*
X10934286Y-18224429D01*
X10948571Y-18153000D01*
X10948571Y-18095857D01*
X10934286Y-18024429D01*
X10920000Y-17981572D01*
X10905714Y-17953000D01*
X10877143Y-17910143D01*
X10862857Y-17895857D01*
X3655000Y-18349000D02*
X3655000Y-18649000D01*
X3505000Y-18499000D02*
X3805000Y-18499000D01*
X3805000Y-18499000D02*
G75*
G03X3805000Y-18499000I-150000J0D01*
G01*
X4062857Y-18334714D02*
X4248571Y-18334714D01*
X4148571Y-18449000D01*
X4191428Y-18449000D01*
X4220000Y-18463286D01*
X4234286Y-18477572D01*
X4248571Y-18506143D01*
X4248571Y-18577572D01*
X4234286Y-18606143D01*
X4220000Y-18620429D01*
X4191428Y-18634714D01*
X4105714Y-18634714D01*
X4077143Y-18620429D01*
X4062857Y-18606143D01*
X4377143Y-18606143D02*
X4391428Y-18620429D01*
X4377143Y-18634714D01*
X4362857Y-18620429D01*
X4377143Y-18606143D01*
X4377143Y-18634714D01*
X4577143Y-18334714D02*
X4605714Y-18334714D01*
X4634286Y-18349000D01*
X4648571Y-18363286D01*
X4662857Y-18391857D01*
X4677143Y-18449000D01*
X4677143Y-18520429D01*
X4662857Y-18577572D01*
X4648571Y-18606143D01*
X4634286Y-18620429D01*
X4605714Y-18634714D01*
X4577143Y-18634714D01*
X4548571Y-18620429D01*
X4534286Y-18606143D01*
X4520000Y-18577572D01*
X4505714Y-18520429D01*
X4505714Y-18449000D01*
X4520000Y-18391857D01*
X4534286Y-18363286D01*
X4548571Y-18349000D01*
X4577143Y-18334714D01*
X4862857Y-18334714D02*
X4891428Y-18334714D01*
X4920000Y-18349000D01*
X4934286Y-18363286D01*
X4948571Y-18391857D01*
X4962857Y-18449000D01*
X4962857Y-18520429D01*
X4948571Y-18577572D01*
X4934286Y-18606143D01*
X4920000Y-18620429D01*
X4891428Y-18634714D01*
X4862857Y-18634714D01*
X4834286Y-18620429D01*
X4820000Y-18606143D01*
X4805714Y-18577572D01*
X4791428Y-18520429D01*
X4791428Y-18449000D01*
X4805714Y-18391857D01*
X4820000Y-18363286D01*
X4834286Y-18349000D01*
X4862857Y-18334714D01*
X5091428Y-18634714D02*
X5091428Y-18434714D01*
X5091428Y-18463286D02*
X5105714Y-18449000D01*
X5134286Y-18434714D01*
X5177143Y-18434714D01*
X5205714Y-18449000D01*
X5220000Y-18477572D01*
X5220000Y-18634714D01*
X5220000Y-18477572D02*
X5234286Y-18449000D01*
X5262857Y-18434714D01*
X5305714Y-18434714D01*
X5334286Y-18449000D01*
X5348571Y-18477572D01*
X5348571Y-18634714D01*
X5491428Y-18634714D02*
X5491428Y-18434714D01*
X5491428Y-18463286D02*
X5505714Y-18449000D01*
X5534286Y-18434714D01*
X5577143Y-18434714D01*
X5605714Y-18449000D01*
X5620000Y-18477572D01*
X5620000Y-18634714D01*
X5620000Y-18477572D02*
X5634286Y-18449000D01*
X5662857Y-18434714D01*
X5705714Y-18434714D01*
X5734286Y-18449000D01*
X5748571Y-18477572D01*
X5748571Y-18634714D01*
X6334286Y-18320429D02*
X6077143Y-18706143D01*
X6720000Y-18334714D02*
X6748571Y-18334714D01*
X6777143Y-18349000D01*
X6791428Y-18363286D01*
X6805714Y-18391857D01*
X6820000Y-18449000D01*
X6820000Y-18520429D01*
X6805714Y-18577572D01*
X6791428Y-18606143D01*
X6777143Y-18620429D01*
X6748571Y-18634714D01*
X6720000Y-18634714D01*
X6691428Y-18620429D01*
X6677143Y-18606143D01*
X6662857Y-18577572D01*
X6648571Y-18520429D01*
X6648571Y-18449000D01*
X6662857Y-18391857D01*
X6677143Y-18363286D01*
X6691428Y-18349000D01*
X6720000Y-18334714D01*
X6948571Y-18606143D02*
X6962857Y-18620429D01*
X6948571Y-18634714D01*
X6934286Y-18620429D01*
X6948571Y-18606143D01*
X6948571Y-18634714D01*
X7248571Y-18634714D02*
X7077143Y-18634714D01*
X7162857Y-18634714D02*
X7162857Y-18334714D01*
X7134286Y-18377572D01*
X7105714Y-18406143D01*
X7077143Y-18420429D01*
X7534286Y-18634714D02*
X7362857Y-18634714D01*
X7448571Y-18634714D02*
X7448571Y-18334714D01*
X7420000Y-18377572D01*
X7391428Y-18406143D01*
X7362857Y-18420429D01*
X7705714Y-18463286D02*
X7677143Y-18449000D01*
X7662857Y-18434714D01*
X7648571Y-18406143D01*
X7648571Y-18391857D01*
X7662857Y-18363286D01*
X7677143Y-18349000D01*
X7705714Y-18334714D01*
X7762857Y-18334714D01*
X7791428Y-18349000D01*
X7805714Y-18363286D01*
X7820000Y-18391857D01*
X7820000Y-18406143D01*
X7805714Y-18434714D01*
X7791428Y-18449000D01*
X7762857Y-18463286D01*
X7705714Y-18463286D01*
X7677143Y-18477572D01*
X7662857Y-18491857D01*
X7648571Y-18520429D01*
X7648571Y-18577572D01*
X7662857Y-18606143D01*
X7677143Y-18620429D01*
X7705714Y-18634714D01*
X7762857Y-18634714D01*
X7791428Y-18620429D01*
X7805714Y-18606143D01*
X7820000Y-18577572D01*
X7820000Y-18520429D01*
X7805714Y-18491857D01*
X7791428Y-18477572D01*
X7762857Y-18463286D01*
X7934286Y-18334714D02*
X7934286Y-18391857D01*
X8048571Y-18334714D02*
X8048571Y-18391857D01*
X8491428Y-18749000D02*
X8477143Y-18734714D01*
X8448571Y-18691857D01*
X8434286Y-18663286D01*
X8420000Y-18620429D01*
X8405714Y-18549000D01*
X8405714Y-18491857D01*
X8420000Y-18420429D01*
X8434286Y-18377572D01*
X8448571Y-18349000D01*
X8477143Y-18306143D01*
X8491428Y-18291857D01*
X8734286Y-18434714D02*
X8734286Y-18634714D01*
X8662857Y-18320429D02*
X8591428Y-18534714D01*
X8777143Y-18534714D01*
X9120000Y-18634714D02*
X9120000Y-18334714D01*
X9248571Y-18634714D02*
X9248571Y-18477572D01*
X9234286Y-18449000D01*
X9205714Y-18434714D01*
X9162857Y-18434714D01*
X9134286Y-18449000D01*
X9120000Y-18463286D01*
X9434286Y-18634714D02*
X9405714Y-18620429D01*
X9391428Y-18606143D01*
X9377143Y-18577572D01*
X9377143Y-18491857D01*
X9391428Y-18463286D01*
X9405714Y-18449000D01*
X9434286Y-18434714D01*
X9477143Y-18434714D01*
X9505714Y-18449000D01*
X9520000Y-18463286D01*
X9534286Y-18491857D01*
X9534286Y-18577572D01*
X9520000Y-18606143D01*
X9505714Y-18620429D01*
X9477143Y-18634714D01*
X9434286Y-18634714D01*
X9705714Y-18634714D02*
X9677143Y-18620429D01*
X9662857Y-18591857D01*
X9662857Y-18334714D01*
X9934286Y-18620429D02*
X9905714Y-18634714D01*
X9848571Y-18634714D01*
X9820000Y-18620429D01*
X9805714Y-18591857D01*
X9805714Y-18477572D01*
X9820000Y-18449000D01*
X9848571Y-18434714D01*
X9905714Y-18434714D01*
X9934286Y-18449000D01*
X9948571Y-18477572D01*
X9948571Y-18506143D01*
X9805714Y-18534714D01*
X10062857Y-18620429D02*
X10091428Y-18634714D01*
X10148571Y-18634714D01*
X10177143Y-18620429D01*
X10191428Y-18591857D01*
X10191428Y-18577572D01*
X10177143Y-18549000D01*
X10148571Y-18534714D01*
X10105714Y-18534714D01*
X10077143Y-18520429D01*
X10062857Y-18491857D01*
X10062857Y-18477572D01*
X10077143Y-18449000D01*
X10105714Y-18434714D01*
X10148571Y-18434714D01*
X10177143Y-18449000D01*
X10291428Y-18749000D02*
X10305714Y-18734714D01*
X10334286Y-18691857D01*
X10348571Y-18663286D01*
X10362857Y-18620429D01*
X10377143Y-18549000D01*
X10377143Y-18491857D01*
X10362857Y-18420429D01*
X10348571Y-18377572D01*
X10334286Y-18349000D01*
X10305714Y-18306143D01*
X10291428Y-18291857D01*
X3757259Y-19044260D02*
X3757259Y-18813741D01*
X3526740Y-18813741D01*
X3526740Y-19044260D01*
X3757259Y-19044260D01*
X3805000Y-18929000D02*
G75*
G03X3805000Y-18929000I-163000J0D01*
G01*
X4062857Y-18764714D02*
X4248571Y-18764714D01*
X4148571Y-18879000D01*
X4191428Y-18879000D01*
X4220000Y-18893286D01*
X4234286Y-18907572D01*
X4248571Y-18936143D01*
X4248571Y-19007572D01*
X4234286Y-19036143D01*
X4220000Y-19050429D01*
X4191428Y-19064714D01*
X4105714Y-19064714D01*
X4077143Y-19050429D01*
X4062857Y-19036143D01*
X4377143Y-19036143D02*
X4391428Y-19050429D01*
X4377143Y-19064714D01*
X4362857Y-19050429D01*
X4377143Y-19036143D01*
X4377143Y-19064714D01*
X4505714Y-18793286D02*
X4520000Y-18779000D01*
X4548571Y-18764714D01*
X4620000Y-18764714D01*
X4648571Y-18779000D01*
X4662857Y-18793286D01*
X4677143Y-18821857D01*
X4677143Y-18850429D01*
X4662857Y-18893286D01*
X4491428Y-19064714D01*
X4677143Y-19064714D01*
X4934286Y-18764714D02*
X4877143Y-18764714D01*
X4848571Y-18779000D01*
X4834286Y-18793286D01*
X4805714Y-18836143D01*
X4791428Y-18893286D01*
X4791428Y-19007572D01*
X4805714Y-19036143D01*
X4820000Y-19050429D01*
X4848571Y-19064714D01*
X4905714Y-19064714D01*
X4934286Y-19050429D01*
X4948571Y-19036143D01*
X4962857Y-19007572D01*
X4962857Y-18936143D01*
X4948571Y-18907572D01*
X4934286Y-18893286D01*
X4905714Y-18879000D01*
X4848571Y-18879000D01*
X4820000Y-18893286D01*
X4805714Y-18907572D01*
X4791428Y-18936143D01*
X5091428Y-19064714D02*
X5091428Y-18864714D01*
X5091428Y-18893286D02*
X5105714Y-18879000D01*
X5134286Y-18864714D01*
X5177143Y-18864714D01*
X5205714Y-18879000D01*
X5220000Y-18907572D01*
X5220000Y-19064714D01*
X5220000Y-18907572D02*
X5234286Y-18879000D01*
X5262857Y-18864714D01*
X5305714Y-18864714D01*
X5334286Y-18879000D01*
X5348571Y-18907572D01*
X5348571Y-19064714D01*
X5491428Y-19064714D02*
X5491428Y-18864714D01*
X5491428Y-18893286D02*
X5505714Y-18879000D01*
X5534286Y-18864714D01*
X5577143Y-18864714D01*
X5605714Y-18879000D01*
X5620000Y-18907572D01*
X5620000Y-19064714D01*
X5620000Y-18907572D02*
X5634286Y-18879000D01*
X5662857Y-18864714D01*
X5705714Y-18864714D01*
X5734286Y-18879000D01*
X5748571Y-18907572D01*
X5748571Y-19064714D01*
X6334286Y-18750429D02*
X6077143Y-19136143D01*
X6720000Y-18764714D02*
X6748571Y-18764714D01*
X6777143Y-18779000D01*
X6791428Y-18793286D01*
X6805714Y-18821857D01*
X6820000Y-18879000D01*
X6820000Y-18950429D01*
X6805714Y-19007572D01*
X6791428Y-19036143D01*
X6777143Y-19050429D01*
X6748571Y-19064714D01*
X6720000Y-19064714D01*
X6691428Y-19050429D01*
X6677143Y-19036143D01*
X6662857Y-19007572D01*
X6648571Y-18950429D01*
X6648571Y-18879000D01*
X6662857Y-18821857D01*
X6677143Y-18793286D01*
X6691428Y-18779000D01*
X6720000Y-18764714D01*
X6948571Y-19036143D02*
X6962857Y-19050429D01*
X6948571Y-19064714D01*
X6934286Y-19050429D01*
X6948571Y-19036143D01*
X6948571Y-19064714D01*
X7248571Y-19064714D02*
X7077143Y-19064714D01*
X7162857Y-19064714D02*
X7162857Y-18764714D01*
X7134286Y-18807572D01*
X7105714Y-18836143D01*
X7077143Y-18850429D01*
X7362857Y-18793286D02*
X7377143Y-18779000D01*
X7405714Y-18764714D01*
X7477143Y-18764714D01*
X7505714Y-18779000D01*
X7520000Y-18793286D01*
X7534286Y-18821857D01*
X7534286Y-18850429D01*
X7520000Y-18893286D01*
X7348571Y-19064714D01*
X7534286Y-19064714D01*
X7705714Y-18893286D02*
X7677143Y-18879000D01*
X7662857Y-18864714D01*
X7648571Y-18836143D01*
X7648571Y-18821857D01*
X7662857Y-18793286D01*
X7677143Y-18779000D01*
X7705714Y-18764714D01*
X7762857Y-18764714D01*
X7791428Y-18779000D01*
X7805714Y-18793286D01*
X7820000Y-18821857D01*
X7820000Y-18836143D01*
X7805714Y-18864714D01*
X7791428Y-18879000D01*
X7762857Y-18893286D01*
X7705714Y-18893286D01*
X7677143Y-18907572D01*
X7662857Y-18921857D01*
X7648571Y-18950429D01*
X7648571Y-19007572D01*
X7662857Y-19036143D01*
X7677143Y-19050429D01*
X7705714Y-19064714D01*
X7762857Y-19064714D01*
X7791428Y-19050429D01*
X7805714Y-19036143D01*
X7820000Y-19007572D01*
X7820000Y-18950429D01*
X7805714Y-18921857D01*
X7791428Y-18907572D01*
X7762857Y-18893286D01*
X7934286Y-18764714D02*
X7934286Y-18821857D01*
X8048571Y-18764714D02*
X8048571Y-18821857D01*
X8491428Y-19179000D02*
X8477143Y-19164714D01*
X8448571Y-19121857D01*
X8434286Y-19093286D01*
X8420000Y-19050429D01*
X8405714Y-18979000D01*
X8405714Y-18921857D01*
X8420000Y-18850429D01*
X8434286Y-18807572D01*
X8448571Y-18779000D01*
X8477143Y-18736143D01*
X8491428Y-18721857D01*
X8762857Y-19064714D02*
X8591428Y-19064714D01*
X8677143Y-19064714D02*
X8677143Y-18764714D01*
X8648571Y-18807572D01*
X8620000Y-18836143D01*
X8591428Y-18850429D01*
X9120000Y-19064714D02*
X9120000Y-18764714D01*
X9248571Y-19064714D02*
X9248571Y-18907572D01*
X9234286Y-18879000D01*
X9205714Y-18864714D01*
X9162857Y-18864714D01*
X9134286Y-18879000D01*
X9120000Y-18893286D01*
X9434286Y-19064714D02*
X9405714Y-19050429D01*
X9391428Y-19036143D01*
X9377143Y-19007572D01*
X9377143Y-18921857D01*
X9391428Y-18893286D01*
X9405714Y-18879000D01*
X9434286Y-18864714D01*
X9477143Y-18864714D01*
X9505714Y-18879000D01*
X9520000Y-18893286D01*
X9534286Y-18921857D01*
X9534286Y-19007572D01*
X9520000Y-19036143D01*
X9505714Y-19050429D01*
X9477143Y-19064714D01*
X9434286Y-19064714D01*
X9705714Y-19064714D02*
X9677143Y-19050429D01*
X9662857Y-19021857D01*
X9662857Y-18764714D01*
X9934286Y-19050429D02*
X9905714Y-19064714D01*
X9848571Y-19064714D01*
X9820000Y-19050429D01*
X9805714Y-19021857D01*
X9805714Y-18907572D01*
X9820000Y-18879000D01*
X9848571Y-18864714D01*
X9905714Y-18864714D01*
X9934286Y-18879000D01*
X9948571Y-18907572D01*
X9948571Y-18936143D01*
X9805714Y-18964714D01*
X10048571Y-19179000D02*
X10062857Y-19164714D01*
X10091428Y-19121857D01*
X10105714Y-19093286D01*
X10120000Y-19050429D01*
X10134286Y-18979000D01*
X10134286Y-18921857D01*
X10120000Y-18850429D01*
X10105714Y-18807572D01*
X10091428Y-18779000D01*
X10062857Y-18736143D01*
X10048571Y-18721857D01*
X3630000Y-19560000D02*
X3805000Y-19385000D01*
X3630000Y-19210000D01*
X3455000Y-19385000D01*
X3630000Y-19560000D01*
X3805000Y-19385000D02*
G75*
G03X3805000Y-19385000I-175000J0D01*
G01*
X4062857Y-19220714D02*
X4248571Y-19220714D01*
X4148571Y-19335000D01*
X4191428Y-19335000D01*
X4220000Y-19349286D01*
X4234286Y-19363572D01*
X4248571Y-19392143D01*
X4248571Y-19463572D01*
X4234286Y-19492143D01*
X4220000Y-19506429D01*
X4191428Y-19520714D01*
X4105714Y-19520714D01*
X4077143Y-19506429D01*
X4062857Y-19492143D01*
X4377143Y-19492143D02*
X4391428Y-19506429D01*
X4377143Y-19520714D01*
X4362857Y-19506429D01*
X4377143Y-19492143D01*
X4377143Y-19520714D01*
X4662857Y-19220714D02*
X4520000Y-19220714D01*
X4505714Y-19363572D01*
X4520000Y-19349286D01*
X4548571Y-19335000D01*
X4620000Y-19335000D01*
X4648571Y-19349286D01*
X4662857Y-19363572D01*
X4677143Y-19392143D01*
X4677143Y-19463572D01*
X4662857Y-19492143D01*
X4648571Y-19506429D01*
X4620000Y-19520714D01*
X4548571Y-19520714D01*
X4520000Y-19506429D01*
X4505714Y-19492143D01*
X4862857Y-19220714D02*
X4891428Y-19220714D01*
X4920000Y-19235000D01*
X4934286Y-19249286D01*
X4948571Y-19277857D01*
X4962857Y-19335000D01*
X4962857Y-19406429D01*
X4948571Y-19463572D01*
X4934286Y-19492143D01*
X4920000Y-19506429D01*
X4891428Y-19520714D01*
X4862857Y-19520714D01*
X4834286Y-19506429D01*
X4820000Y-19492143D01*
X4805714Y-19463572D01*
X4791428Y-19406429D01*
X4791428Y-19335000D01*
X4805714Y-19277857D01*
X4820000Y-19249286D01*
X4834286Y-19235000D01*
X4862857Y-19220714D01*
X5091428Y-19520714D02*
X5091428Y-19320714D01*
X5091428Y-19349286D02*
X5105714Y-19335000D01*
X5134286Y-19320714D01*
X5177143Y-19320714D01*
X5205714Y-19335000D01*
X5220000Y-19363572D01*
X5220000Y-19520714D01*
X5220000Y-19363572D02*
X5234286Y-19335000D01*
X5262857Y-19320714D01*
X5305714Y-19320714D01*
X5334286Y-19335000D01*
X5348571Y-19363572D01*
X5348571Y-19520714D01*
X5491428Y-19520714D02*
X5491428Y-19320714D01*
X5491428Y-19349286D02*
X5505714Y-19335000D01*
X5534286Y-19320714D01*
X5577143Y-19320714D01*
X5605714Y-19335000D01*
X5620000Y-19363572D01*
X5620000Y-19520714D01*
X5620000Y-19363572D02*
X5634286Y-19335000D01*
X5662857Y-19320714D01*
X5705714Y-19320714D01*
X5734286Y-19335000D01*
X5748571Y-19363572D01*
X5748571Y-19520714D01*
X6334286Y-19206429D02*
X6077143Y-19592143D01*
X6720000Y-19220714D02*
X6748571Y-19220714D01*
X6777143Y-19235000D01*
X6791428Y-19249286D01*
X6805714Y-19277857D01*
X6820000Y-19335000D01*
X6820000Y-19406429D01*
X6805714Y-19463572D01*
X6791428Y-19492143D01*
X6777143Y-19506429D01*
X6748571Y-19520714D01*
X6720000Y-19520714D01*
X6691428Y-19506429D01*
X6677143Y-19492143D01*
X6662857Y-19463572D01*
X6648571Y-19406429D01*
X6648571Y-19335000D01*
X6662857Y-19277857D01*
X6677143Y-19249286D01*
X6691428Y-19235000D01*
X6720000Y-19220714D01*
X6948571Y-19492143D02*
X6962857Y-19506429D01*
X6948571Y-19520714D01*
X6934286Y-19506429D01*
X6948571Y-19492143D01*
X6948571Y-19520714D01*
X7248571Y-19520714D02*
X7077143Y-19520714D01*
X7162857Y-19520714D02*
X7162857Y-19220714D01*
X7134286Y-19263572D01*
X7105714Y-19292143D01*
X7077143Y-19306429D01*
X7348571Y-19220714D02*
X7534286Y-19220714D01*
X7434286Y-19335000D01*
X7477143Y-19335000D01*
X7505714Y-19349286D01*
X7520000Y-19363572D01*
X7534286Y-19392143D01*
X7534286Y-19463572D01*
X7520000Y-19492143D01*
X7505714Y-19506429D01*
X7477143Y-19520714D01*
X7391428Y-19520714D01*
X7362857Y-19506429D01*
X7348571Y-19492143D01*
X7705714Y-19349286D02*
X7677143Y-19335000D01*
X7662857Y-19320714D01*
X7648571Y-19292143D01*
X7648571Y-19277857D01*
X7662857Y-19249286D01*
X7677143Y-19235000D01*
X7705714Y-19220714D01*
X7762857Y-19220714D01*
X7791428Y-19235000D01*
X7805714Y-19249286D01*
X7820000Y-19277857D01*
X7820000Y-19292143D01*
X7805714Y-19320714D01*
X7791428Y-19335000D01*
X7762857Y-19349286D01*
X7705714Y-19349286D01*
X7677143Y-19363572D01*
X7662857Y-19377857D01*
X7648571Y-19406429D01*
X7648571Y-19463572D01*
X7662857Y-19492143D01*
X7677143Y-19506429D01*
X7705714Y-19520714D01*
X7762857Y-19520714D01*
X7791428Y-19506429D01*
X7805714Y-19492143D01*
X7820000Y-19463572D01*
X7820000Y-19406429D01*
X7805714Y-19377857D01*
X7791428Y-19363572D01*
X7762857Y-19349286D01*
X7934286Y-19220714D02*
X7934286Y-19277857D01*
X8048571Y-19220714D02*
X8048571Y-19277857D01*
X8491428Y-19635000D02*
X8477143Y-19620714D01*
X8448571Y-19577857D01*
X8434286Y-19549286D01*
X8420000Y-19506429D01*
X8405714Y-19435000D01*
X8405714Y-19377857D01*
X8420000Y-19306429D01*
X8434286Y-19263572D01*
X8448571Y-19235000D01*
X8477143Y-19192143D01*
X8491428Y-19177857D01*
X8591428Y-19249286D02*
X8605714Y-19235000D01*
X8634286Y-19220714D01*
X8705714Y-19220714D01*
X8734286Y-19235000D01*
X8748571Y-19249286D01*
X8762857Y-19277857D01*
X8762857Y-19306429D01*
X8748571Y-19349286D01*
X8577143Y-19520714D01*
X8762857Y-19520714D01*
X9120000Y-19520714D02*
X9120000Y-19220714D01*
X9248571Y-19520714D02*
X9248571Y-19363572D01*
X9234286Y-19335000D01*
X9205714Y-19320714D01*
X9162857Y-19320714D01*
X9134286Y-19335000D01*
X9120000Y-19349286D01*
X9434286Y-19520714D02*
X9405714Y-19506429D01*
X9391428Y-19492143D01*
X9377143Y-19463572D01*
X9377143Y-19377857D01*
X9391428Y-19349286D01*
X9405714Y-19335000D01*
X9434286Y-19320714D01*
X9477143Y-19320714D01*
X9505714Y-19335000D01*
X9520000Y-19349286D01*
X9534286Y-19377857D01*
X9534286Y-19463572D01*
X9520000Y-19492143D01*
X9505714Y-19506429D01*
X9477143Y-19520714D01*
X9434286Y-19520714D01*
X9705714Y-19520714D02*
X9677143Y-19506429D01*
X9662857Y-19477857D01*
X9662857Y-19220714D01*
X9934286Y-19506429D02*
X9905714Y-19520714D01*
X9848571Y-19520714D01*
X9820000Y-19506429D01*
X9805714Y-19477857D01*
X9805714Y-19363572D01*
X9820000Y-19335000D01*
X9848571Y-19320714D01*
X9905714Y-19320714D01*
X9934286Y-19335000D01*
X9948571Y-19363572D01*
X9948571Y-19392143D01*
X9805714Y-19420714D01*
X10062857Y-19506429D02*
X10091428Y-19520714D01*
X10148571Y-19520714D01*
X10177143Y-19506429D01*
X10191428Y-19477857D01*
X10191428Y-19463572D01*
X10177143Y-19435000D01*
X10148571Y-19420714D01*
X10105714Y-19420714D01*
X10077143Y-19406429D01*
X10062857Y-19377857D01*
X10062857Y-19363572D01*
X10077143Y-19335000D01*
X10105714Y-19320714D01*
X10148571Y-19320714D01*
X10177143Y-19335000D01*
X10291428Y-19635000D02*
X10305714Y-19620714D01*
X10334286Y-19577857D01*
X10348571Y-19549286D01*
X10362857Y-19506429D01*
X10377143Y-19435000D01*
X10377143Y-19377857D01*
X10362857Y-19306429D01*
X10348571Y-19263572D01*
X10334286Y-19235000D01*
X10305714Y-19192143D01*
X10291428Y-19177857D01*
X3646500Y-19706500D02*
X3646500Y-20023500D01*
X3488000Y-19865000D02*
X3805000Y-19865000D01*
X3758577Y-19977078D02*
X3758577Y-19752923D01*
X3534422Y-19752923D01*
X3534422Y-19977078D01*
X3758577Y-19977078D01*
X4062857Y-19700714D02*
X4248571Y-19700714D01*
X4148571Y-19815000D01*
X4191428Y-19815000D01*
X4220000Y-19829286D01*
X4234286Y-19843572D01*
X4248571Y-19872143D01*
X4248571Y-19943572D01*
X4234286Y-19972143D01*
X4220000Y-19986429D01*
X4191428Y-20000714D01*
X4105714Y-20000714D01*
X4077143Y-19986429D01*
X4062857Y-19972143D01*
X4377143Y-19972143D02*
X4391428Y-19986429D01*
X4377143Y-20000714D01*
X4362857Y-19986429D01*
X4377143Y-19972143D01*
X4377143Y-20000714D01*
X4677143Y-20000714D02*
X4505714Y-20000714D01*
X4591428Y-20000714D02*
X4591428Y-19700714D01*
X4562857Y-19743572D01*
X4534286Y-19772143D01*
X4505714Y-19786429D01*
X4777143Y-19700714D02*
X4977143Y-19700714D01*
X4848571Y-20000714D01*
X5091428Y-20000714D02*
X5091428Y-19800714D01*
X5091428Y-19829286D02*
X5105714Y-19815000D01*
X5134286Y-19800714D01*
X5177143Y-19800714D01*
X5205714Y-19815000D01*
X5220000Y-19843572D01*
X5220000Y-20000714D01*
X5220000Y-19843572D02*
X5234286Y-19815000D01*
X5262857Y-19800714D01*
X5305714Y-19800714D01*
X5334286Y-19815000D01*
X5348571Y-19843572D01*
X5348571Y-20000714D01*
X5491428Y-20000714D02*
X5491428Y-19800714D01*
X5491428Y-19829286D02*
X5505714Y-19815000D01*
X5534286Y-19800714D01*
X5577143Y-19800714D01*
X5605714Y-19815000D01*
X5620000Y-19843572D01*
X5620000Y-20000714D01*
X5620000Y-19843572D02*
X5634286Y-19815000D01*
X5662857Y-19800714D01*
X5705714Y-19800714D01*
X5734286Y-19815000D01*
X5748571Y-19843572D01*
X5748571Y-20000714D01*
X6334286Y-19686429D02*
X6077143Y-20072143D01*
X6720000Y-19700714D02*
X6748571Y-19700714D01*
X6777143Y-19715000D01*
X6791428Y-19729286D01*
X6805714Y-19757857D01*
X6820000Y-19815000D01*
X6820000Y-19886429D01*
X6805714Y-19943572D01*
X6791428Y-19972143D01*
X6777143Y-19986429D01*
X6748571Y-20000714D01*
X6720000Y-20000714D01*
X6691428Y-19986429D01*
X6677143Y-19972143D01*
X6662857Y-19943572D01*
X6648571Y-19886429D01*
X6648571Y-19815000D01*
X6662857Y-19757857D01*
X6677143Y-19729286D01*
X6691428Y-19715000D01*
X6720000Y-19700714D01*
X6948571Y-19972143D02*
X6962857Y-19986429D01*
X6948571Y-20000714D01*
X6934286Y-19986429D01*
X6948571Y-19972143D01*
X6948571Y-20000714D01*
X7248571Y-20000714D02*
X7077143Y-20000714D01*
X7162857Y-20000714D02*
X7162857Y-19700714D01*
X7134286Y-19743572D01*
X7105714Y-19772143D01*
X7077143Y-19786429D01*
X7362857Y-19729286D02*
X7377143Y-19715000D01*
X7405714Y-19700714D01*
X7477143Y-19700714D01*
X7505714Y-19715000D01*
X7520000Y-19729286D01*
X7534286Y-19757857D01*
X7534286Y-19786429D01*
X7520000Y-19829286D01*
X7348571Y-20000714D01*
X7534286Y-20000714D01*
X7805714Y-19700714D02*
X7662857Y-19700714D01*
X7648571Y-19843572D01*
X7662857Y-19829286D01*
X7691428Y-19815000D01*
X7762857Y-19815000D01*
X7791428Y-19829286D01*
X7805714Y-19843572D01*
X7820000Y-19872143D01*
X7820000Y-19943572D01*
X7805714Y-19972143D01*
X7791428Y-19986429D01*
X7762857Y-20000714D01*
X7691428Y-20000714D01*
X7662857Y-19986429D01*
X7648571Y-19972143D01*
X7934286Y-19700714D02*
X7934286Y-19757857D01*
X8048571Y-19700714D02*
X8048571Y-19757857D01*
X8491428Y-20115000D02*
X8477143Y-20100714D01*
X8448571Y-20057857D01*
X8434286Y-20029286D01*
X8420000Y-19986429D01*
X8405714Y-19915000D01*
X8405714Y-19857857D01*
X8420000Y-19786429D01*
X8434286Y-19743572D01*
X8448571Y-19715000D01*
X8477143Y-19672143D01*
X8491428Y-19657857D01*
X8591428Y-19729286D02*
X8605714Y-19715000D01*
X8634286Y-19700714D01*
X8705714Y-19700714D01*
X8734286Y-19715000D01*
X8748571Y-19729286D01*
X8762857Y-19757857D01*
X8762857Y-19786429D01*
X8748571Y-19829286D01*
X8577143Y-20000714D01*
X8762857Y-20000714D01*
X9020000Y-19800714D02*
X9020000Y-20000714D01*
X8948571Y-19686429D02*
X8877143Y-19900714D01*
X9062857Y-19900714D01*
X9405714Y-20000714D02*
X9405714Y-19700714D01*
X9534286Y-20000714D02*
X9534286Y-19843572D01*
X9520000Y-19815000D01*
X9491428Y-19800714D01*
X9448571Y-19800714D01*
X9420000Y-19815000D01*
X9405714Y-19829286D01*
X9720000Y-20000714D02*
X9691428Y-19986429D01*
X9677143Y-19972143D01*
X9662857Y-19943572D01*
X9662857Y-19857857D01*
X9677143Y-19829286D01*
X9691428Y-19815000D01*
X9720000Y-19800714D01*
X9762857Y-19800714D01*
X9791428Y-19815000D01*
X9805714Y-19829286D01*
X9820000Y-19857857D01*
X9820000Y-19943572D01*
X9805714Y-19972143D01*
X9791428Y-19986429D01*
X9762857Y-20000714D01*
X9720000Y-20000714D01*
X9991428Y-20000714D02*
X9962857Y-19986429D01*
X9948571Y-19957857D01*
X9948571Y-19700714D01*
X10220000Y-19986429D02*
X10191428Y-20000714D01*
X10134286Y-20000714D01*
X10105714Y-19986429D01*
X10091428Y-19957857D01*
X10091428Y-19843572D01*
X10105714Y-19815000D01*
X10134286Y-19800714D01*
X10191428Y-19800714D01*
X10220000Y-19815000D01*
X10234286Y-19843572D01*
X10234286Y-19872143D01*
X10091428Y-19900714D01*
X10348571Y-19986429D02*
X10377143Y-20000714D01*
X10434286Y-20000714D01*
X10462857Y-19986429D01*
X10477143Y-19957857D01*
X10477143Y-19943572D01*
X10462857Y-19915000D01*
X10434286Y-19900714D01*
X10391428Y-19900714D01*
X10362857Y-19886429D01*
X10348571Y-19857857D01*
X10348571Y-19843572D01*
X10362857Y-19815000D01*
X10391428Y-19800714D01*
X10434286Y-19800714D01*
X10462857Y-19815000D01*
X10577143Y-20115000D02*
X10591428Y-20100714D01*
X10620000Y-20057857D01*
X10634286Y-20029286D01*
X10648571Y-19986429D01*
X10662857Y-19915000D01*
X10662857Y-19857857D01*
X10648571Y-19786429D01*
X10634286Y-19743572D01*
X10620000Y-19715000D01*
X10591428Y-19672143D01*
X10577143Y-19657857D01*
X11120000Y-20115000D02*
X11105714Y-20100714D01*
X11077143Y-20057857D01*
X11062857Y-20029286D01*
X11048571Y-19986429D01*
X11034286Y-19915000D01*
X11034286Y-19857857D01*
X11048571Y-19786429D01*
X11062857Y-19743572D01*
X11077143Y-19715000D01*
X11105714Y-19672143D01*
X11120000Y-19657857D01*
X11234286Y-19800714D02*
X11234286Y-20000714D01*
X11234286Y-19829286D02*
X11248571Y-19815000D01*
X11277143Y-19800714D01*
X11320000Y-19800714D01*
X11348571Y-19815000D01*
X11362857Y-19843572D01*
X11362857Y-20000714D01*
X11548571Y-20000714D02*
X11520000Y-19986429D01*
X11505714Y-19972143D01*
X11491428Y-19943572D01*
X11491428Y-19857857D01*
X11505714Y-19829286D01*
X11520000Y-19815000D01*
X11548571Y-19800714D01*
X11591428Y-19800714D01*
X11620000Y-19815000D01*
X11634286Y-19829286D01*
X11648571Y-19857857D01*
X11648571Y-19943572D01*
X11634286Y-19972143D01*
X11620000Y-19986429D01*
X11591428Y-20000714D01*
X11548571Y-20000714D01*
X11734286Y-19800714D02*
X11848571Y-19800714D01*
X11777143Y-19700714D02*
X11777143Y-19957857D01*
X11791428Y-19986429D01*
X11820000Y-20000714D01*
X11848571Y-20000714D01*
X12177143Y-19800714D02*
X12177143Y-20100714D01*
X12177143Y-19815000D02*
X12205714Y-19800714D01*
X12262857Y-19800714D01*
X12291428Y-19815000D01*
X12305714Y-19829286D01*
X12320000Y-19857857D01*
X12320000Y-19943572D01*
X12305714Y-19972143D01*
X12291428Y-19986429D01*
X12262857Y-20000714D01*
X12205714Y-20000714D01*
X12177143Y-19986429D01*
X12491428Y-20000714D02*
X12462857Y-19986429D01*
X12448571Y-19957857D01*
X12448571Y-19700714D01*
X12734286Y-20000714D02*
X12734286Y-19843572D01*
X12720000Y-19815000D01*
X12691428Y-19800714D01*
X12634286Y-19800714D01*
X12605714Y-19815000D01*
X12734286Y-19986429D02*
X12705714Y-20000714D01*
X12634286Y-20000714D01*
X12605714Y-19986429D01*
X12591428Y-19957857D01*
X12591428Y-19929286D01*
X12605714Y-19900714D01*
X12634286Y-19886429D01*
X12705714Y-19886429D01*
X12734286Y-19872143D01*
X12834286Y-19800714D02*
X12948571Y-19800714D01*
X12877143Y-19700714D02*
X12877143Y-19957857D01*
X12891428Y-19986429D01*
X12920000Y-20000714D01*
X12948571Y-20000714D01*
X13162857Y-19986429D02*
X13134286Y-20000714D01*
X13077143Y-20000714D01*
X13048571Y-19986429D01*
X13034286Y-19957857D01*
X13034286Y-19843572D01*
X13048571Y-19815000D01*
X13077143Y-19800714D01*
X13134286Y-19800714D01*
X13162857Y-19815000D01*
X13177143Y-19843572D01*
X13177143Y-19872143D01*
X13034286Y-19900714D01*
X13434286Y-20000714D02*
X13434286Y-19700714D01*
X13434286Y-19986429D02*
X13405714Y-20000714D01*
X13348571Y-20000714D01*
X13320000Y-19986429D01*
X13305714Y-19972143D01*
X13291428Y-19943572D01*
X13291428Y-19857857D01*
X13305714Y-19829286D01*
X13320000Y-19815000D01*
X13348571Y-19800714D01*
X13405714Y-19800714D01*
X13434286Y-19815000D01*
X13548571Y-20115000D02*
X13562857Y-20100714D01*
X13591428Y-20057857D01*
X13605714Y-20029286D01*
X13620000Y-19986429D01*
X13634286Y-19915000D01*
X13634286Y-19857857D01*
X13620000Y-19786429D01*
X13605714Y-19743572D01*
X13591428Y-19715000D01*
X13562857Y-19672143D01*
X13548571Y-19657857D01*
X3642000Y-20149000D02*
X3642000Y-20475000D01*
X3479000Y-20312000D02*
X3805000Y-20312000D01*
X3642000Y-20475000D02*
X3805000Y-20312000D01*
X3642000Y-20149000D01*
X3479000Y-20312000D01*
X3642000Y-20475000D01*
X4062857Y-20147714D02*
X4248571Y-20147714D01*
X4148571Y-20262000D01*
X4191428Y-20262000D01*
X4220000Y-20276286D01*
X4234286Y-20290572D01*
X4248571Y-20319143D01*
X4248571Y-20390572D01*
X4234286Y-20419143D01*
X4220000Y-20433429D01*
X4191428Y-20447714D01*
X4105714Y-20447714D01*
X4077143Y-20433429D01*
X4062857Y-20419143D01*
X4377143Y-20419143D02*
X4391428Y-20433429D01*
X4377143Y-20447714D01*
X4362857Y-20433429D01*
X4377143Y-20419143D01*
X4377143Y-20447714D01*
X4505714Y-20176286D02*
X4520000Y-20162000D01*
X4548571Y-20147714D01*
X4620000Y-20147714D01*
X4648571Y-20162000D01*
X4662857Y-20176286D01*
X4677143Y-20204857D01*
X4677143Y-20233429D01*
X4662857Y-20276286D01*
X4491428Y-20447714D01*
X4677143Y-20447714D01*
X4934286Y-20147714D02*
X4877143Y-20147714D01*
X4848571Y-20162000D01*
X4834286Y-20176286D01*
X4805714Y-20219143D01*
X4791428Y-20276286D01*
X4791428Y-20390572D01*
X4805714Y-20419143D01*
X4820000Y-20433429D01*
X4848571Y-20447714D01*
X4905714Y-20447714D01*
X4934286Y-20433429D01*
X4948571Y-20419143D01*
X4962857Y-20390572D01*
X4962857Y-20319143D01*
X4948571Y-20290572D01*
X4934286Y-20276286D01*
X4905714Y-20262000D01*
X4848571Y-20262000D01*
X4820000Y-20276286D01*
X4805714Y-20290572D01*
X4791428Y-20319143D01*
X5091428Y-20447714D02*
X5091428Y-20247714D01*
X5091428Y-20276286D02*
X5105714Y-20262000D01*
X5134286Y-20247714D01*
X5177143Y-20247714D01*
X5205714Y-20262000D01*
X5220000Y-20290572D01*
X5220000Y-20447714D01*
X5220000Y-20290572D02*
X5234286Y-20262000D01*
X5262857Y-20247714D01*
X5305714Y-20247714D01*
X5334286Y-20262000D01*
X5348571Y-20290572D01*
X5348571Y-20447714D01*
X5491428Y-20447714D02*
X5491428Y-20247714D01*
X5491428Y-20276286D02*
X5505714Y-20262000D01*
X5534286Y-20247714D01*
X5577143Y-20247714D01*
X5605714Y-20262000D01*
X5620000Y-20290572D01*
X5620000Y-20447714D01*
X5620000Y-20290572D02*
X5634286Y-20262000D01*
X5662857Y-20247714D01*
X5705714Y-20247714D01*
X5734286Y-20262000D01*
X5748571Y-20290572D01*
X5748571Y-20447714D01*
X6334286Y-20133429D02*
X6077143Y-20519143D01*
X6720000Y-20147714D02*
X6748571Y-20147714D01*
X6777143Y-20162000D01*
X6791428Y-20176286D01*
X6805714Y-20204857D01*
X6820000Y-20262000D01*
X6820000Y-20333429D01*
X6805714Y-20390572D01*
X6791428Y-20419143D01*
X6777143Y-20433429D01*
X6748571Y-20447714D01*
X6720000Y-20447714D01*
X6691428Y-20433429D01*
X6677143Y-20419143D01*
X6662857Y-20390572D01*
X6648571Y-20333429D01*
X6648571Y-20262000D01*
X6662857Y-20204857D01*
X6677143Y-20176286D01*
X6691428Y-20162000D01*
X6720000Y-20147714D01*
X6948571Y-20419143D02*
X6962857Y-20433429D01*
X6948571Y-20447714D01*
X6934286Y-20433429D01*
X6948571Y-20419143D01*
X6948571Y-20447714D01*
X7248571Y-20447714D02*
X7077143Y-20447714D01*
X7162857Y-20447714D02*
X7162857Y-20147714D01*
X7134286Y-20190572D01*
X7105714Y-20219143D01*
X7077143Y-20233429D01*
X7362857Y-20176286D02*
X7377143Y-20162000D01*
X7405714Y-20147714D01*
X7477143Y-20147714D01*
X7505714Y-20162000D01*
X7520000Y-20176286D01*
X7534286Y-20204857D01*
X7534286Y-20233429D01*
X7520000Y-20276286D01*
X7348571Y-20447714D01*
X7534286Y-20447714D01*
X7705714Y-20276286D02*
X7677143Y-20262000D01*
X7662857Y-20247714D01*
X7648571Y-20219143D01*
X7648571Y-20204857D01*
X7662857Y-20176286D01*
X7677143Y-20162000D01*
X7705714Y-20147714D01*
X7762857Y-20147714D01*
X7791428Y-20162000D01*
X7805714Y-20176286D01*
X7820000Y-20204857D01*
X7820000Y-20219143D01*
X7805714Y-20247714D01*
X7791428Y-20262000D01*
X7762857Y-20276286D01*
X7705714Y-20276286D01*
X7677143Y-20290572D01*
X7662857Y-20304857D01*
X7648571Y-20333429D01*
X7648571Y-20390572D01*
X7662857Y-20419143D01*
X7677143Y-20433429D01*
X7705714Y-20447714D01*
X7762857Y-20447714D01*
X7791428Y-20433429D01*
X7805714Y-20419143D01*
X7820000Y-20390572D01*
X7820000Y-20333429D01*
X7805714Y-20304857D01*
X7791428Y-20290572D01*
X7762857Y-20276286D01*
X7934286Y-20147714D02*
X7934286Y-20204857D01*
X8048571Y-20147714D02*
X8048571Y-20204857D01*
X8491428Y-20562000D02*
X8477143Y-20547714D01*
X8448571Y-20504857D01*
X8434286Y-20476286D01*
X8420000Y-20433429D01*
X8405714Y-20362000D01*
X8405714Y-20304857D01*
X8420000Y-20233429D01*
X8434286Y-20190572D01*
X8448571Y-20162000D01*
X8477143Y-20119143D01*
X8491428Y-20104857D01*
X8577143Y-20147714D02*
X8762857Y-20147714D01*
X8662857Y-20262000D01*
X8705714Y-20262000D01*
X8734286Y-20276286D01*
X8748571Y-20290572D01*
X8762857Y-20319143D01*
X8762857Y-20390572D01*
X8748571Y-20419143D01*
X8734286Y-20433429D01*
X8705714Y-20447714D01*
X8620000Y-20447714D01*
X8591428Y-20433429D01*
X8577143Y-20419143D01*
X9120000Y-20447714D02*
X9120000Y-20147714D01*
X9248571Y-20447714D02*
X9248571Y-20290572D01*
X9234286Y-20262000D01*
X9205714Y-20247714D01*
X9162857Y-20247714D01*
X9134286Y-20262000D01*
X9120000Y-20276286D01*
X9434286Y-20447714D02*
X9405714Y-20433429D01*
X9391428Y-20419143D01*
X9377143Y-20390572D01*
X9377143Y-20304857D01*
X9391428Y-20276286D01*
X9405714Y-20262000D01*
X9434286Y-20247714D01*
X9477143Y-20247714D01*
X9505714Y-20262000D01*
X9520000Y-20276286D01*
X9534286Y-20304857D01*
X9534286Y-20390572D01*
X9520000Y-20419143D01*
X9505714Y-20433429D01*
X9477143Y-20447714D01*
X9434286Y-20447714D01*
X9705714Y-20447714D02*
X9677143Y-20433429D01*
X9662857Y-20404857D01*
X9662857Y-20147714D01*
X9934286Y-20433429D02*
X9905714Y-20447714D01*
X9848571Y-20447714D01*
X9820000Y-20433429D01*
X9805714Y-20404857D01*
X9805714Y-20290572D01*
X9820000Y-20262000D01*
X9848571Y-20247714D01*
X9905714Y-20247714D01*
X9934286Y-20262000D01*
X9948571Y-20290572D01*
X9948571Y-20319143D01*
X9805714Y-20347714D01*
X10062857Y-20433429D02*
X10091428Y-20447714D01*
X10148571Y-20447714D01*
X10177143Y-20433429D01*
X10191428Y-20404857D01*
X10191428Y-20390572D01*
X10177143Y-20362000D01*
X10148571Y-20347714D01*
X10105714Y-20347714D01*
X10077143Y-20333429D01*
X10062857Y-20304857D01*
X10062857Y-20290572D01*
X10077143Y-20262000D01*
X10105714Y-20247714D01*
X10148571Y-20247714D01*
X10177143Y-20262000D01*
X10291428Y-20562000D02*
X10305714Y-20547714D01*
X10334286Y-20504857D01*
X10348571Y-20476286D01*
X10362857Y-20433429D01*
X10377143Y-20362000D01*
X10377143Y-20304857D01*
X10362857Y-20233429D01*
X10348571Y-20190572D01*
X10334286Y-20162000D01*
X10305714Y-20119143D01*
X10291428Y-20104857D01*
X10834286Y-20562000D02*
X10820000Y-20547714D01*
X10791428Y-20504857D01*
X10777143Y-20476286D01*
X10762857Y-20433429D01*
X10748571Y-20362000D01*
X10748571Y-20304857D01*
X10762857Y-20233429D01*
X10777143Y-20190572D01*
X10791428Y-20162000D01*
X10820000Y-20119143D01*
X10834286Y-20104857D01*
X10948571Y-20247714D02*
X10948571Y-20447714D01*
X10948571Y-20276286D02*
X10962857Y-20262000D01*
X10991428Y-20247714D01*
X11034286Y-20247714D01*
X11062857Y-20262000D01*
X11077143Y-20290572D01*
X11077143Y-20447714D01*
X11262857Y-20447714D02*
X11234286Y-20433429D01*
X11220000Y-20419143D01*
X11205714Y-20390572D01*
X11205714Y-20304857D01*
X11220000Y-20276286D01*
X11234286Y-20262000D01*
X11262857Y-20247714D01*
X11305714Y-20247714D01*
X11334286Y-20262000D01*
X11348571Y-20276286D01*
X11362857Y-20304857D01*
X11362857Y-20390572D01*
X11348571Y-20419143D01*
X11334286Y-20433429D01*
X11305714Y-20447714D01*
X11262857Y-20447714D01*
X11448571Y-20247714D02*
X11562857Y-20247714D01*
X11491428Y-20147714D02*
X11491428Y-20404857D01*
X11505714Y-20433429D01*
X11534286Y-20447714D01*
X11562857Y-20447714D01*
X11891428Y-20247714D02*
X11891428Y-20547714D01*
X11891428Y-20262000D02*
X11920000Y-20247714D01*
X11977143Y-20247714D01*
X12005714Y-20262000D01*
X12020000Y-20276286D01*
X12034286Y-20304857D01*
X12034286Y-20390572D01*
X12020000Y-20419143D01*
X12005714Y-20433429D01*
X11977143Y-20447714D01*
X11920000Y-20447714D01*
X11891428Y-20433429D01*
X12205714Y-20447714D02*
X12177143Y-20433429D01*
X12162857Y-20404857D01*
X12162857Y-20147714D01*
X12448571Y-20447714D02*
X12448571Y-20290572D01*
X12434286Y-20262000D01*
X12405714Y-20247714D01*
X12348571Y-20247714D01*
X12320000Y-20262000D01*
X12448571Y-20433429D02*
X12420000Y-20447714D01*
X12348571Y-20447714D01*
X12320000Y-20433429D01*
X12305714Y-20404857D01*
X12305714Y-20376286D01*
X12320000Y-20347714D01*
X12348571Y-20333429D01*
X12420000Y-20333429D01*
X12448571Y-20319143D01*
X12548571Y-20247714D02*
X12662857Y-20247714D01*
X12591428Y-20147714D02*
X12591428Y-20404857D01*
X12605714Y-20433429D01*
X12634286Y-20447714D01*
X12662857Y-20447714D01*
X12877143Y-20433429D02*
X12848571Y-20447714D01*
X12791428Y-20447714D01*
X12762857Y-20433429D01*
X12748571Y-20404857D01*
X12748571Y-20290572D01*
X12762857Y-20262000D01*
X12791428Y-20247714D01*
X12848571Y-20247714D01*
X12877143Y-20262000D01*
X12891428Y-20290572D01*
X12891428Y-20319143D01*
X12748571Y-20347714D01*
X13148571Y-20447714D02*
X13148571Y-20147714D01*
X13148571Y-20433429D02*
X13120000Y-20447714D01*
X13062857Y-20447714D01*
X13034286Y-20433429D01*
X13020000Y-20419143D01*
X13005714Y-20390572D01*
X13005714Y-20304857D01*
X13020000Y-20276286D01*
X13034286Y-20262000D01*
X13062857Y-20247714D01*
X13120000Y-20247714D01*
X13148571Y-20262000D01*
X13262857Y-20562000D02*
X13277143Y-20547714D01*
X13305714Y-20504857D01*
X13320000Y-20476286D01*
X13334286Y-20433429D01*
X13348571Y-20362000D01*
X13348571Y-20304857D01*
X13334286Y-20233429D01*
X13320000Y-20190572D01*
X13305714Y-20162000D01*
X13277143Y-20119143D01*
X13262857Y-20104857D01*
M02*
