%TF.GenerationSoftware,KiCad,Pcbnew,(5.0.0-rc2-83-gda392728d)*%
%TF.CreationDate,2018-06-05T23:32:54-04:00*%
%TF.ProjectId,I&O_Epander,49264F5F4570616E6465722E6B696361,1.0.2*%
%TF.SameCoordinates,Original*%
%TF.FileFunction,Legend,Bot*%
%TF.FilePolarity,Positive*%
%FSLAX46Y46*%
G04 Gerber Fmt 4.6, Leading zero omitted, Abs format (unit mm)*
G04 Created by KiCad (PCBNEW (5.0.0-rc2-83-gda392728d)) date 06/05/18 23:32:54*
%MOMM*%
%LPD*%
G01*
G04 APERTURE LIST*
%ADD10C,0.200000*%
%ADD11C,0.300000*%
%ADD12C,0.600000*%
%ADD13C,0.002540*%
%ADD14C,0.010000*%
G04 APERTURE END LIST*
D10*
X231078857Y-137222761D02*
X230941952Y-137270380D01*
X230703857Y-137270380D01*
X230602666Y-137222761D01*
X230549095Y-137175142D01*
X230489571Y-137079904D01*
X230477666Y-136984666D01*
X230513380Y-136889428D01*
X230555047Y-136841809D01*
X230644333Y-136794190D01*
X230828857Y-136746571D01*
X230918142Y-136698952D01*
X230959809Y-136651333D01*
X230995523Y-136556095D01*
X230983619Y-136460857D01*
X230924095Y-136365619D01*
X230870523Y-136318000D01*
X230769333Y-136270380D01*
X230531238Y-136270380D01*
X230394333Y-136318000D01*
X229697904Y-137222761D02*
X229799095Y-137270380D01*
X229989571Y-137270380D01*
X230078857Y-137222761D01*
X230114571Y-137127523D01*
X230066952Y-136746571D01*
X230007428Y-136651333D01*
X229906238Y-136603714D01*
X229715761Y-136603714D01*
X229626476Y-136651333D01*
X229590761Y-136746571D01*
X229602666Y-136841809D01*
X230090761Y-136937047D01*
X229227666Y-137270380D02*
X229144333Y-136603714D01*
X229156238Y-136698952D02*
X229102666Y-136651333D01*
X229001476Y-136603714D01*
X228858619Y-136603714D01*
X228769333Y-136651333D01*
X228733619Y-136746571D01*
X228799095Y-137270380D01*
X228733619Y-136746571D02*
X228674095Y-136651333D01*
X228572904Y-136603714D01*
X228430047Y-136603714D01*
X228340761Y-136651333D01*
X228305047Y-136746571D01*
X228370523Y-137270380D01*
X227894333Y-137270380D02*
X227769333Y-136270380D01*
X227816952Y-136651333D02*
X227715761Y-136603714D01*
X227525285Y-136603714D01*
X227436000Y-136651333D01*
X227394333Y-136698952D01*
X227358619Y-136794190D01*
X227394333Y-137079904D01*
X227453857Y-137175142D01*
X227507428Y-137222761D01*
X227608619Y-137270380D01*
X227799095Y-137270380D01*
X227888380Y-137222761D01*
X226561000Y-137270380D02*
X226495523Y-136746571D01*
X226531238Y-136651333D01*
X226620523Y-136603714D01*
X226811000Y-136603714D01*
X226912190Y-136651333D01*
X226555047Y-137222761D02*
X226656238Y-137270380D01*
X226894333Y-137270380D01*
X226983619Y-137222761D01*
X227019333Y-137127523D01*
X227007428Y-137032285D01*
X226947904Y-136937047D01*
X226846714Y-136889428D01*
X226608619Y-136889428D01*
X226507428Y-136841809D01*
X226096714Y-136603714D02*
X225572904Y-136603714D01*
X226180047Y-137270380D01*
X225656238Y-137270380D01*
X224763380Y-136603714D02*
X224846714Y-137270380D01*
X225191952Y-136603714D02*
X225257428Y-137127523D01*
X225221714Y-137222761D01*
X225132428Y-137270380D01*
X224989571Y-137270380D01*
X224888380Y-137222761D01*
X224834809Y-137175142D01*
X224370523Y-137270380D02*
X224287190Y-136603714D01*
X224311000Y-136794190D02*
X224251476Y-136698952D01*
X224197904Y-136651333D01*
X224096714Y-136603714D01*
X224001476Y-136603714D01*
X223239571Y-136603714D02*
X223322904Y-137270380D01*
X223668142Y-136603714D02*
X223733619Y-137127523D01*
X223697904Y-137222761D01*
X223608619Y-137270380D01*
X223465761Y-137270380D01*
X223364571Y-137222761D01*
X223311000Y-137175142D01*
X229215761Y-138875142D02*
X229269333Y-138922761D01*
X229418142Y-138970380D01*
X229513380Y-138970380D01*
X229650285Y-138922761D01*
X229733619Y-138827523D01*
X229769333Y-138732285D01*
X229793142Y-138541809D01*
X229775285Y-138398952D01*
X229703857Y-138208476D01*
X229644333Y-138113238D01*
X229537190Y-138018000D01*
X229388380Y-137970380D01*
X229293142Y-137970380D01*
X229156238Y-138018000D01*
X229114571Y-138065619D01*
X228799095Y-138970380D02*
X228715761Y-138303714D01*
X228674095Y-137970380D02*
X228727666Y-138018000D01*
X228686000Y-138065619D01*
X228632428Y-138018000D01*
X228674095Y-137970380D01*
X228686000Y-138065619D01*
X228322904Y-138970380D02*
X228239571Y-138303714D01*
X228263380Y-138494190D02*
X228203857Y-138398952D01*
X228150285Y-138351333D01*
X228049095Y-138303714D01*
X227953857Y-138303714D01*
X227269333Y-138922761D02*
X227370523Y-138970380D01*
X227561000Y-138970380D01*
X227650285Y-138922761D01*
X227691952Y-138875142D01*
X227727666Y-138779904D01*
X227691952Y-138494190D01*
X227632428Y-138398952D01*
X227578857Y-138351333D01*
X227477666Y-138303714D01*
X227287190Y-138303714D01*
X227197904Y-138351333D01*
X226334809Y-138303714D02*
X226418142Y-138970380D01*
X226763380Y-138303714D02*
X226828857Y-138827523D01*
X226793142Y-138922761D01*
X226703857Y-138970380D01*
X226561000Y-138970380D01*
X226459809Y-138922761D01*
X226406238Y-138875142D01*
X225941952Y-138970380D02*
X225858619Y-138303714D01*
X225816952Y-137970380D02*
X225870523Y-138018000D01*
X225828857Y-138065619D01*
X225775285Y-138018000D01*
X225816952Y-137970380D01*
X225828857Y-138065619D01*
X225525285Y-138303714D02*
X225144333Y-138303714D01*
X225340761Y-137970380D02*
X225447904Y-138827523D01*
X225412190Y-138922761D01*
X225322904Y-138970380D01*
X225227666Y-138970380D01*
X224936000Y-138922761D02*
X224846714Y-138970380D01*
X224656238Y-138970380D01*
X224555047Y-138922761D01*
X224495523Y-138827523D01*
X224489571Y-138779904D01*
X224525285Y-138684666D01*
X224614571Y-138637047D01*
X224757428Y-138637047D01*
X224846714Y-138589428D01*
X224882428Y-138494190D01*
X224876476Y-138446571D01*
X224816952Y-138351333D01*
X224715761Y-138303714D01*
X224572904Y-138303714D01*
X224483619Y-138351333D01*
D11*
X212307857Y-138473571D02*
X212307857Y-136973571D01*
X211950714Y-136973571D01*
X211736428Y-137045000D01*
X211593571Y-137187857D01*
X211522142Y-137330714D01*
X211450714Y-137616428D01*
X211450714Y-137830714D01*
X211522142Y-138116428D01*
X211593571Y-138259285D01*
X211736428Y-138402142D01*
X211950714Y-138473571D01*
X212307857Y-138473571D01*
X210807857Y-138473571D02*
X210807857Y-136973571D01*
X209807857Y-137759285D02*
X209807857Y-138473571D01*
X210307857Y-136973571D02*
X209807857Y-137759285D01*
X209307857Y-136973571D01*
X207665000Y-138473571D02*
X207665000Y-136973571D01*
X207307857Y-136973571D01*
X207093571Y-137045000D01*
X206950714Y-137187857D01*
X206879285Y-137330714D01*
X206807857Y-137616428D01*
X206807857Y-137830714D01*
X206879285Y-138116428D01*
X206950714Y-138259285D01*
X207093571Y-138402142D01*
X207307857Y-138473571D01*
X207665000Y-138473571D01*
X206165000Y-137687857D02*
X205665000Y-137687857D01*
X205450714Y-138473571D02*
X206165000Y-138473571D01*
X206165000Y-136973571D01*
X205450714Y-136973571D01*
D12*
X211772142Y-133770714D02*
X211343571Y-133913571D01*
X211200714Y-134056428D01*
X211057857Y-134342142D01*
X211057857Y-134770714D01*
X211200714Y-135056428D01*
X211343571Y-135199285D01*
X211629285Y-135342142D01*
X212772142Y-135342142D01*
X212772142Y-132342142D01*
X211772142Y-132342142D01*
X211486428Y-132485000D01*
X211343571Y-132627857D01*
X211200714Y-132913571D01*
X211200714Y-133199285D01*
X211343571Y-133485000D01*
X211486428Y-133627857D01*
X211772142Y-133770714D01*
X212772142Y-133770714D01*
X209343571Y-135342142D02*
X209629285Y-135199285D01*
X209772142Y-135056428D01*
X209915000Y-134770714D01*
X209915000Y-133913571D01*
X209772142Y-133627857D01*
X209629285Y-133485000D01*
X209343571Y-133342142D01*
X208915000Y-133342142D01*
X208629285Y-133485000D01*
X208486428Y-133627857D01*
X208343571Y-133913571D01*
X208343571Y-134770714D01*
X208486428Y-135056428D01*
X208629285Y-135199285D01*
X208915000Y-135342142D01*
X209343571Y-135342142D01*
X207057857Y-135342142D02*
X207057857Y-132342142D01*
X206057857Y-134485000D01*
X205057857Y-132342142D01*
X205057857Y-135342142D01*
D13*
%TO.C,G\002A\002A\002A*%
G36*
X221612460Y-134261860D02*
X221615000Y-134279640D01*
X221640400Y-134282180D01*
X221696280Y-134277100D01*
X221808040Y-134264400D01*
X221957900Y-134254240D01*
X222135700Y-134244080D01*
X222341440Y-134239000D01*
X222564960Y-134231380D01*
X222798640Y-134226300D01*
X223042480Y-134226300D01*
X223288860Y-134226300D01*
X223428560Y-134226300D01*
X223428560Y-133654800D01*
X223446340Y-133639560D01*
X223494600Y-133604000D01*
X223565720Y-133555740D01*
X223654620Y-133497320D01*
X223756220Y-133433820D01*
X223862900Y-133365240D01*
X223972120Y-133299200D01*
X224022920Y-133268720D01*
X224195640Y-133172200D01*
X224363280Y-133085840D01*
X224520760Y-133012180D01*
X224655380Y-132956300D01*
X224698560Y-132941060D01*
X224779840Y-132918200D01*
X224840800Y-132905500D01*
X224904300Y-132908040D01*
X224985580Y-132920740D01*
X224990660Y-132920740D01*
X225122740Y-132946140D01*
X225287840Y-132984240D01*
X225478340Y-133032500D01*
X225684080Y-133088380D01*
X225770440Y-133111240D01*
X225828860Y-133129020D01*
X225882200Y-133146800D01*
X225933000Y-133167120D01*
X225986340Y-133192520D01*
X226044760Y-133225540D01*
X226118420Y-133268720D01*
X226176840Y-133306820D01*
X226176840Y-132732780D01*
X226189540Y-132715000D01*
X226230180Y-132684520D01*
X226291140Y-132651500D01*
X226362260Y-132618480D01*
X226433380Y-132595620D01*
X226453700Y-132588000D01*
X226529900Y-132575300D01*
X226588320Y-132577840D01*
X226631500Y-132590540D01*
X226705160Y-132623560D01*
X226811840Y-132679440D01*
X226946460Y-132753100D01*
X227101400Y-132847080D01*
X227274120Y-132956300D01*
X227309680Y-132979160D01*
X227578920Y-133154420D01*
X227566220Y-133347460D01*
X227553520Y-133504940D01*
X227543360Y-133621780D01*
X227533200Y-133708140D01*
X227523040Y-133764020D01*
X227512880Y-133791960D01*
X227502720Y-133802120D01*
X227474780Y-133789420D01*
X227431600Y-133756400D01*
X227426520Y-133753860D01*
X227398580Y-133728460D01*
X227342700Y-133680200D01*
X227261420Y-133614160D01*
X227159820Y-133532880D01*
X227040440Y-133436360D01*
X226908360Y-133332220D01*
X226776280Y-133225540D01*
X226644200Y-133116320D01*
X226517200Y-133014720D01*
X226405440Y-132925820D01*
X226311460Y-132847080D01*
X226240340Y-132788660D01*
X226194620Y-132748020D01*
X226176840Y-132732780D01*
X226176840Y-133306820D01*
X226207320Y-133324600D01*
X226319080Y-133398260D01*
X226456240Y-133492240D01*
X226565460Y-133563360D01*
X226702620Y-133657340D01*
X226829620Y-133743700D01*
X226941380Y-133822440D01*
X227032820Y-133885940D01*
X227101400Y-133934200D01*
X227142040Y-133962140D01*
X227149660Y-133972300D01*
X227134420Y-133982460D01*
X227086160Y-133992620D01*
X227004880Y-133997700D01*
X226903280Y-134000240D01*
X226786440Y-134000240D01*
X226659440Y-133997700D01*
X226529900Y-133995160D01*
X226400360Y-133987540D01*
X226280980Y-133977380D01*
X226176840Y-133967220D01*
X226120960Y-133957060D01*
X226016820Y-133939280D01*
X225894900Y-133913880D01*
X225780600Y-133888480D01*
X225762820Y-133885940D01*
X225460560Y-133819900D01*
X225137980Y-133766560D01*
X224810320Y-133720840D01*
X224485200Y-133687820D01*
X224172780Y-133664960D01*
X223883220Y-133657340D01*
X223700340Y-133659880D01*
X223598740Y-133662420D01*
X223514920Y-133662420D01*
X223456500Y-133659880D01*
X223431100Y-133657340D01*
X223428560Y-133654800D01*
X223428560Y-134226300D01*
X223502220Y-134228840D01*
X223746060Y-134231380D01*
X223954340Y-134239000D01*
X224137220Y-134244080D01*
X224297240Y-134254240D01*
X224447100Y-134266940D01*
X224594420Y-134284720D01*
X224741740Y-134305040D01*
X224899220Y-134332980D01*
X225074480Y-134366000D01*
X225272600Y-134404100D01*
X225554540Y-134462520D01*
X225673920Y-134828280D01*
X225714560Y-134945120D01*
X225750120Y-135049260D01*
X225780600Y-135130540D01*
X225803460Y-135188960D01*
X225813620Y-135211820D01*
X225846640Y-135227060D01*
X225912680Y-135249920D01*
X226006660Y-135275320D01*
X226115880Y-135300720D01*
X226240340Y-135328660D01*
X226364800Y-135356600D01*
X226486720Y-135379460D01*
X226598480Y-135397240D01*
X226689920Y-135409940D01*
X226753420Y-135415020D01*
X226827080Y-135412480D01*
X226890580Y-135397240D01*
X226961700Y-135371840D01*
X227040440Y-135331200D01*
X227203000Y-135247380D01*
X227365560Y-135351520D01*
X227467160Y-135415020D01*
X227586540Y-135491220D01*
X227718620Y-135569960D01*
X227853240Y-135651240D01*
X227985320Y-135729980D01*
X228107240Y-135803640D01*
X228213920Y-135864600D01*
X228297740Y-135912860D01*
X228346000Y-135938260D01*
X228437440Y-135981440D01*
X228498400Y-136004300D01*
X228536500Y-136009380D01*
X228536500Y-132247640D01*
X228536500Y-132227320D01*
X228539040Y-132224780D01*
X228559360Y-132219700D01*
X228617780Y-132209540D01*
X228709220Y-132191760D01*
X228826060Y-132171440D01*
X228963220Y-132146040D01*
X229120700Y-132118100D01*
X229237540Y-132097780D01*
X229519480Y-132052060D01*
X229760780Y-132008880D01*
X229966520Y-131973320D01*
X230136700Y-131945380D01*
X230276400Y-131919980D01*
X230388160Y-131902200D01*
X230471980Y-131886960D01*
X230530400Y-131874260D01*
X230571040Y-131866640D01*
X230583740Y-131864100D01*
X230621840Y-131864100D01*
X230626920Y-131881880D01*
X230611680Y-131902200D01*
X230571040Y-131947920D01*
X230502460Y-132016500D01*
X230416100Y-132107940D01*
X230309420Y-132217160D01*
X230187500Y-132339080D01*
X230052880Y-132476240D01*
X229908100Y-132618480D01*
X229864920Y-132659120D01*
X229108000Y-133405880D01*
X228932740Y-133296660D01*
X228851460Y-133243320D01*
X228777800Y-133197600D01*
X228724460Y-133162040D01*
X228706680Y-133149340D01*
X228683820Y-133129020D01*
X228668580Y-133098540D01*
X228653340Y-133052820D01*
X228638100Y-132981700D01*
X228620320Y-132875020D01*
X228617780Y-132857240D01*
X228589840Y-132661660D01*
X228566980Y-132504180D01*
X228549200Y-132384800D01*
X228539040Y-132300980D01*
X228536500Y-132247640D01*
X228536500Y-136009380D01*
X228541580Y-136011920D01*
X228572060Y-136004300D01*
X228582220Y-135999220D01*
X228610160Y-135968740D01*
X228635560Y-135912860D01*
X228640640Y-135900160D01*
X228658420Y-135844280D01*
X228671120Y-135803640D01*
X228673660Y-135798560D01*
X228691440Y-135788400D01*
X228739700Y-135803640D01*
X228772720Y-135818880D01*
X228772720Y-133951980D01*
X228793040Y-133949440D01*
X228828600Y-133967220D01*
X228876860Y-134000240D01*
X228930200Y-134048500D01*
X228983540Y-134101840D01*
X229029260Y-134157720D01*
X229052120Y-134190740D01*
X229105460Y-134284720D01*
X229039420Y-134541260D01*
X229008940Y-134658100D01*
X228988620Y-134741920D01*
X228973380Y-134795260D01*
X228960680Y-134828280D01*
X228953060Y-134843520D01*
X228945440Y-134848600D01*
X228940360Y-134848600D01*
X228930200Y-134828280D01*
X228917500Y-134774940D01*
X228902260Y-134691120D01*
X228881940Y-134584440D01*
X228859080Y-134459980D01*
X228856540Y-134432040D01*
X228833680Y-134302500D01*
X228813360Y-134188200D01*
X228798120Y-134091680D01*
X228782880Y-134020560D01*
X228775260Y-133985000D01*
X228775260Y-133982460D01*
X228772720Y-133951980D01*
X228772720Y-135818880D01*
X228785420Y-135826500D01*
X228861620Y-135859520D01*
X228935280Y-135879840D01*
X228970840Y-135884920D01*
X229019100Y-135879840D01*
X229057200Y-135856980D01*
X229087680Y-135816340D01*
X229110540Y-135750300D01*
X229125780Y-135653780D01*
X229138480Y-135524240D01*
X229146100Y-135394700D01*
X229151180Y-135270240D01*
X229158800Y-135173720D01*
X229166420Y-135094980D01*
X229181660Y-135023860D01*
X229204520Y-134947660D01*
X229235000Y-134853680D01*
X229255320Y-134797800D01*
X229303580Y-134655560D01*
X229336600Y-134543800D01*
X229359460Y-134457440D01*
X229367080Y-134388860D01*
X229364540Y-134330440D01*
X229354380Y-134272020D01*
X229344220Y-134241540D01*
X229311200Y-134137400D01*
X229397560Y-133964680D01*
X229443280Y-133878320D01*
X229489000Y-133802120D01*
X229524560Y-133743700D01*
X229537260Y-133728460D01*
X229560120Y-133703060D01*
X229610920Y-133649720D01*
X229684580Y-133573520D01*
X229781100Y-133474460D01*
X229895400Y-133357620D01*
X230024940Y-133223000D01*
X230167180Y-133075680D01*
X230319580Y-132920740D01*
X230479600Y-132755640D01*
X230482140Y-132755640D01*
X230705660Y-132527040D01*
X230903780Y-132326380D01*
X231076500Y-132151120D01*
X231223820Y-131998720D01*
X231350820Y-131869180D01*
X231454960Y-131762500D01*
X231541320Y-131671060D01*
X231609900Y-131599940D01*
X231665780Y-131541520D01*
X231706420Y-131498340D01*
X231734360Y-131465320D01*
X231754680Y-131442460D01*
X231764840Y-131427220D01*
X231769920Y-131419600D01*
X231769920Y-131414520D01*
X231764840Y-131409440D01*
X231734360Y-131406900D01*
X231678480Y-131411980D01*
X231632760Y-131417060D01*
X231581960Y-131424680D01*
X231498140Y-131439920D01*
X231386380Y-131455160D01*
X231249220Y-131475480D01*
X231099360Y-131495800D01*
X230936800Y-131518660D01*
X230903780Y-131523740D01*
X230598980Y-131564380D01*
X230306880Y-131605020D01*
X230024940Y-131645660D01*
X229760780Y-131683760D01*
X229514400Y-131719320D01*
X229293420Y-131749800D01*
X229100380Y-131780280D01*
X228937820Y-131803140D01*
X228810820Y-131823460D01*
X228747320Y-131836160D01*
X228650800Y-131851400D01*
X228572060Y-131861560D01*
X228513640Y-131864100D01*
X228493320Y-131861560D01*
X228485700Y-131836160D01*
X228473000Y-131780280D01*
X228462840Y-131704080D01*
X228450140Y-131617720D01*
X228439980Y-131533900D01*
X228434900Y-131462780D01*
X228432360Y-131422140D01*
X228432360Y-131401820D01*
X228442520Y-131389120D01*
X228460300Y-131386580D01*
X228498400Y-131391660D01*
X228559360Y-131409440D01*
X228645720Y-131437380D01*
X228767640Y-131478020D01*
X228787960Y-131483100D01*
X228920040Y-131523740D01*
X229047040Y-131556760D01*
X229156260Y-131574540D01*
X229179120Y-131579620D01*
X229257860Y-131584700D01*
X229303580Y-131584700D01*
X229326440Y-131577080D01*
X229331520Y-131559300D01*
X229331520Y-131551680D01*
X229318820Y-131523740D01*
X229273100Y-131483100D01*
X229196900Y-131427220D01*
X229105460Y-131371340D01*
X229011480Y-131310380D01*
X228937820Y-131264660D01*
X228881940Y-131221480D01*
X228831140Y-131180840D01*
X228780340Y-131130040D01*
X228721920Y-131066540D01*
X228650800Y-130982720D01*
X228584760Y-130903980D01*
X228508560Y-130812540D01*
X228432360Y-130726180D01*
X228368860Y-130657600D01*
X228323140Y-130606800D01*
X228310440Y-130591560D01*
X228244400Y-130533140D01*
X228010720Y-130576320D01*
X227876100Y-130604260D01*
X227782120Y-130632200D01*
X227721160Y-130660140D01*
X227690680Y-130688080D01*
X227685600Y-130723640D01*
X227688140Y-130733800D01*
X227698300Y-130776980D01*
X227708460Y-130825240D01*
X227713540Y-130883660D01*
X227713540Y-130957320D01*
X227711000Y-131048760D01*
X227703380Y-131160520D01*
X227693220Y-131300220D01*
X227677980Y-131467860D01*
X227660200Y-131671060D01*
X227639880Y-131869180D01*
X227624640Y-132013960D01*
X227520500Y-132039360D01*
X227444300Y-132054600D01*
X227347780Y-132072380D01*
X227263960Y-132087620D01*
X227200460Y-132097780D01*
X227157280Y-132107940D01*
X227126800Y-132123180D01*
X227109020Y-132153660D01*
X227096320Y-132204460D01*
X227083620Y-132283200D01*
X227068380Y-132397500D01*
X227055680Y-132481320D01*
X227045520Y-132544820D01*
X227035360Y-132585460D01*
X227032820Y-132590540D01*
X227009960Y-132580380D01*
X226961700Y-132552440D01*
X226893120Y-132514340D01*
X226855020Y-132491480D01*
X226761040Y-132440680D01*
X226689920Y-132407660D01*
X226623880Y-132389880D01*
X226565460Y-132384800D01*
X226443540Y-132374640D01*
X226250500Y-132143500D01*
X226179380Y-132054600D01*
X226087940Y-131942840D01*
X225986340Y-131815840D01*
X225879660Y-131683760D01*
X225772980Y-131551680D01*
X225742500Y-131513580D01*
X225488500Y-131193540D01*
X225257360Y-130903980D01*
X225051620Y-130647440D01*
X224868740Y-130418840D01*
X224708720Y-130215640D01*
X224569020Y-130042920D01*
X224447100Y-129893060D01*
X224348040Y-129771140D01*
X224264220Y-129669540D01*
X224198180Y-129590800D01*
X224147380Y-129532380D01*
X224111820Y-129494280D01*
X224091500Y-129473960D01*
X224083880Y-129471420D01*
X224088960Y-129499360D01*
X224111820Y-129565400D01*
X224152460Y-129669540D01*
X224205800Y-129806700D01*
X224276920Y-129979420D01*
X224360740Y-130187700D01*
X224459800Y-130426460D01*
X224574100Y-130695700D01*
X224612200Y-130789680D01*
X224663000Y-130906520D01*
X224734120Y-131053840D01*
X224817940Y-131229100D01*
X224914460Y-131422140D01*
X225018600Y-131632960D01*
X225132900Y-131851400D01*
X225249740Y-132077460D01*
X225369120Y-132300980D01*
X225417380Y-132389880D01*
X225473260Y-132494020D01*
X225521520Y-132585460D01*
X225557080Y-132659120D01*
X225579940Y-132704840D01*
X225585020Y-132717540D01*
X225569780Y-132732780D01*
X225536760Y-132730240D01*
X225511360Y-132717540D01*
X225480880Y-132702300D01*
X225419920Y-132674360D01*
X225336100Y-132641340D01*
X225237040Y-132603240D01*
X225132900Y-132565140D01*
X225033840Y-132529580D01*
X225010980Y-132524500D01*
X224861120Y-132486400D01*
X224703640Y-132476240D01*
X224696020Y-132476240D01*
X224624900Y-132476240D01*
X224569020Y-132481320D01*
X224515680Y-132491480D01*
X224454720Y-132514340D01*
X224378520Y-132549900D01*
X224287080Y-132593080D01*
X224167700Y-132654040D01*
X224035620Y-132722620D01*
X223911160Y-132793740D01*
X223834960Y-132839460D01*
X223692720Y-132928360D01*
X223522540Y-133037580D01*
X223326960Y-133159500D01*
X223116140Y-133291580D01*
X222895160Y-133431280D01*
X222669100Y-133573520D01*
X222448120Y-133713220D01*
X222234760Y-133845300D01*
X222156020Y-133896100D01*
X222021400Y-133982460D01*
X221896940Y-134061200D01*
X221792800Y-134129780D01*
X221706440Y-134188200D01*
X221645480Y-134231380D01*
X221615000Y-134256780D01*
X221612460Y-134261860D01*
X221612460Y-134261860D01*
G37*
X221612460Y-134261860D02*
X221615000Y-134279640D01*
X221640400Y-134282180D01*
X221696280Y-134277100D01*
X221808040Y-134264400D01*
X221957900Y-134254240D01*
X222135700Y-134244080D01*
X222341440Y-134239000D01*
X222564960Y-134231380D01*
X222798640Y-134226300D01*
X223042480Y-134226300D01*
X223288860Y-134226300D01*
X223428560Y-134226300D01*
X223428560Y-133654800D01*
X223446340Y-133639560D01*
X223494600Y-133604000D01*
X223565720Y-133555740D01*
X223654620Y-133497320D01*
X223756220Y-133433820D01*
X223862900Y-133365240D01*
X223972120Y-133299200D01*
X224022920Y-133268720D01*
X224195640Y-133172200D01*
X224363280Y-133085840D01*
X224520760Y-133012180D01*
X224655380Y-132956300D01*
X224698560Y-132941060D01*
X224779840Y-132918200D01*
X224840800Y-132905500D01*
X224904300Y-132908040D01*
X224985580Y-132920740D01*
X224990660Y-132920740D01*
X225122740Y-132946140D01*
X225287840Y-132984240D01*
X225478340Y-133032500D01*
X225684080Y-133088380D01*
X225770440Y-133111240D01*
X225828860Y-133129020D01*
X225882200Y-133146800D01*
X225933000Y-133167120D01*
X225986340Y-133192520D01*
X226044760Y-133225540D01*
X226118420Y-133268720D01*
X226176840Y-133306820D01*
X226176840Y-132732780D01*
X226189540Y-132715000D01*
X226230180Y-132684520D01*
X226291140Y-132651500D01*
X226362260Y-132618480D01*
X226433380Y-132595620D01*
X226453700Y-132588000D01*
X226529900Y-132575300D01*
X226588320Y-132577840D01*
X226631500Y-132590540D01*
X226705160Y-132623560D01*
X226811840Y-132679440D01*
X226946460Y-132753100D01*
X227101400Y-132847080D01*
X227274120Y-132956300D01*
X227309680Y-132979160D01*
X227578920Y-133154420D01*
X227566220Y-133347460D01*
X227553520Y-133504940D01*
X227543360Y-133621780D01*
X227533200Y-133708140D01*
X227523040Y-133764020D01*
X227512880Y-133791960D01*
X227502720Y-133802120D01*
X227474780Y-133789420D01*
X227431600Y-133756400D01*
X227426520Y-133753860D01*
X227398580Y-133728460D01*
X227342700Y-133680200D01*
X227261420Y-133614160D01*
X227159820Y-133532880D01*
X227040440Y-133436360D01*
X226908360Y-133332220D01*
X226776280Y-133225540D01*
X226644200Y-133116320D01*
X226517200Y-133014720D01*
X226405440Y-132925820D01*
X226311460Y-132847080D01*
X226240340Y-132788660D01*
X226194620Y-132748020D01*
X226176840Y-132732780D01*
X226176840Y-133306820D01*
X226207320Y-133324600D01*
X226319080Y-133398260D01*
X226456240Y-133492240D01*
X226565460Y-133563360D01*
X226702620Y-133657340D01*
X226829620Y-133743700D01*
X226941380Y-133822440D01*
X227032820Y-133885940D01*
X227101400Y-133934200D01*
X227142040Y-133962140D01*
X227149660Y-133972300D01*
X227134420Y-133982460D01*
X227086160Y-133992620D01*
X227004880Y-133997700D01*
X226903280Y-134000240D01*
X226786440Y-134000240D01*
X226659440Y-133997700D01*
X226529900Y-133995160D01*
X226400360Y-133987540D01*
X226280980Y-133977380D01*
X226176840Y-133967220D01*
X226120960Y-133957060D01*
X226016820Y-133939280D01*
X225894900Y-133913880D01*
X225780600Y-133888480D01*
X225762820Y-133885940D01*
X225460560Y-133819900D01*
X225137980Y-133766560D01*
X224810320Y-133720840D01*
X224485200Y-133687820D01*
X224172780Y-133664960D01*
X223883220Y-133657340D01*
X223700340Y-133659880D01*
X223598740Y-133662420D01*
X223514920Y-133662420D01*
X223456500Y-133659880D01*
X223431100Y-133657340D01*
X223428560Y-133654800D01*
X223428560Y-134226300D01*
X223502220Y-134228840D01*
X223746060Y-134231380D01*
X223954340Y-134239000D01*
X224137220Y-134244080D01*
X224297240Y-134254240D01*
X224447100Y-134266940D01*
X224594420Y-134284720D01*
X224741740Y-134305040D01*
X224899220Y-134332980D01*
X225074480Y-134366000D01*
X225272600Y-134404100D01*
X225554540Y-134462520D01*
X225673920Y-134828280D01*
X225714560Y-134945120D01*
X225750120Y-135049260D01*
X225780600Y-135130540D01*
X225803460Y-135188960D01*
X225813620Y-135211820D01*
X225846640Y-135227060D01*
X225912680Y-135249920D01*
X226006660Y-135275320D01*
X226115880Y-135300720D01*
X226240340Y-135328660D01*
X226364800Y-135356600D01*
X226486720Y-135379460D01*
X226598480Y-135397240D01*
X226689920Y-135409940D01*
X226753420Y-135415020D01*
X226827080Y-135412480D01*
X226890580Y-135397240D01*
X226961700Y-135371840D01*
X227040440Y-135331200D01*
X227203000Y-135247380D01*
X227365560Y-135351520D01*
X227467160Y-135415020D01*
X227586540Y-135491220D01*
X227718620Y-135569960D01*
X227853240Y-135651240D01*
X227985320Y-135729980D01*
X228107240Y-135803640D01*
X228213920Y-135864600D01*
X228297740Y-135912860D01*
X228346000Y-135938260D01*
X228437440Y-135981440D01*
X228498400Y-136004300D01*
X228536500Y-136009380D01*
X228536500Y-132247640D01*
X228536500Y-132227320D01*
X228539040Y-132224780D01*
X228559360Y-132219700D01*
X228617780Y-132209540D01*
X228709220Y-132191760D01*
X228826060Y-132171440D01*
X228963220Y-132146040D01*
X229120700Y-132118100D01*
X229237540Y-132097780D01*
X229519480Y-132052060D01*
X229760780Y-132008880D01*
X229966520Y-131973320D01*
X230136700Y-131945380D01*
X230276400Y-131919980D01*
X230388160Y-131902200D01*
X230471980Y-131886960D01*
X230530400Y-131874260D01*
X230571040Y-131866640D01*
X230583740Y-131864100D01*
X230621840Y-131864100D01*
X230626920Y-131881880D01*
X230611680Y-131902200D01*
X230571040Y-131947920D01*
X230502460Y-132016500D01*
X230416100Y-132107940D01*
X230309420Y-132217160D01*
X230187500Y-132339080D01*
X230052880Y-132476240D01*
X229908100Y-132618480D01*
X229864920Y-132659120D01*
X229108000Y-133405880D01*
X228932740Y-133296660D01*
X228851460Y-133243320D01*
X228777800Y-133197600D01*
X228724460Y-133162040D01*
X228706680Y-133149340D01*
X228683820Y-133129020D01*
X228668580Y-133098540D01*
X228653340Y-133052820D01*
X228638100Y-132981700D01*
X228620320Y-132875020D01*
X228617780Y-132857240D01*
X228589840Y-132661660D01*
X228566980Y-132504180D01*
X228549200Y-132384800D01*
X228539040Y-132300980D01*
X228536500Y-132247640D01*
X228536500Y-136009380D01*
X228541580Y-136011920D01*
X228572060Y-136004300D01*
X228582220Y-135999220D01*
X228610160Y-135968740D01*
X228635560Y-135912860D01*
X228640640Y-135900160D01*
X228658420Y-135844280D01*
X228671120Y-135803640D01*
X228673660Y-135798560D01*
X228691440Y-135788400D01*
X228739700Y-135803640D01*
X228772720Y-135818880D01*
X228772720Y-133951980D01*
X228793040Y-133949440D01*
X228828600Y-133967220D01*
X228876860Y-134000240D01*
X228930200Y-134048500D01*
X228983540Y-134101840D01*
X229029260Y-134157720D01*
X229052120Y-134190740D01*
X229105460Y-134284720D01*
X229039420Y-134541260D01*
X229008940Y-134658100D01*
X228988620Y-134741920D01*
X228973380Y-134795260D01*
X228960680Y-134828280D01*
X228953060Y-134843520D01*
X228945440Y-134848600D01*
X228940360Y-134848600D01*
X228930200Y-134828280D01*
X228917500Y-134774940D01*
X228902260Y-134691120D01*
X228881940Y-134584440D01*
X228859080Y-134459980D01*
X228856540Y-134432040D01*
X228833680Y-134302500D01*
X228813360Y-134188200D01*
X228798120Y-134091680D01*
X228782880Y-134020560D01*
X228775260Y-133985000D01*
X228775260Y-133982460D01*
X228772720Y-133951980D01*
X228772720Y-135818880D01*
X228785420Y-135826500D01*
X228861620Y-135859520D01*
X228935280Y-135879840D01*
X228970840Y-135884920D01*
X229019100Y-135879840D01*
X229057200Y-135856980D01*
X229087680Y-135816340D01*
X229110540Y-135750300D01*
X229125780Y-135653780D01*
X229138480Y-135524240D01*
X229146100Y-135394700D01*
X229151180Y-135270240D01*
X229158800Y-135173720D01*
X229166420Y-135094980D01*
X229181660Y-135023860D01*
X229204520Y-134947660D01*
X229235000Y-134853680D01*
X229255320Y-134797800D01*
X229303580Y-134655560D01*
X229336600Y-134543800D01*
X229359460Y-134457440D01*
X229367080Y-134388860D01*
X229364540Y-134330440D01*
X229354380Y-134272020D01*
X229344220Y-134241540D01*
X229311200Y-134137400D01*
X229397560Y-133964680D01*
X229443280Y-133878320D01*
X229489000Y-133802120D01*
X229524560Y-133743700D01*
X229537260Y-133728460D01*
X229560120Y-133703060D01*
X229610920Y-133649720D01*
X229684580Y-133573520D01*
X229781100Y-133474460D01*
X229895400Y-133357620D01*
X230024940Y-133223000D01*
X230167180Y-133075680D01*
X230319580Y-132920740D01*
X230479600Y-132755640D01*
X230482140Y-132755640D01*
X230705660Y-132527040D01*
X230903780Y-132326380D01*
X231076500Y-132151120D01*
X231223820Y-131998720D01*
X231350820Y-131869180D01*
X231454960Y-131762500D01*
X231541320Y-131671060D01*
X231609900Y-131599940D01*
X231665780Y-131541520D01*
X231706420Y-131498340D01*
X231734360Y-131465320D01*
X231754680Y-131442460D01*
X231764840Y-131427220D01*
X231769920Y-131419600D01*
X231769920Y-131414520D01*
X231764840Y-131409440D01*
X231734360Y-131406900D01*
X231678480Y-131411980D01*
X231632760Y-131417060D01*
X231581960Y-131424680D01*
X231498140Y-131439920D01*
X231386380Y-131455160D01*
X231249220Y-131475480D01*
X231099360Y-131495800D01*
X230936800Y-131518660D01*
X230903780Y-131523740D01*
X230598980Y-131564380D01*
X230306880Y-131605020D01*
X230024940Y-131645660D01*
X229760780Y-131683760D01*
X229514400Y-131719320D01*
X229293420Y-131749800D01*
X229100380Y-131780280D01*
X228937820Y-131803140D01*
X228810820Y-131823460D01*
X228747320Y-131836160D01*
X228650800Y-131851400D01*
X228572060Y-131861560D01*
X228513640Y-131864100D01*
X228493320Y-131861560D01*
X228485700Y-131836160D01*
X228473000Y-131780280D01*
X228462840Y-131704080D01*
X228450140Y-131617720D01*
X228439980Y-131533900D01*
X228434900Y-131462780D01*
X228432360Y-131422140D01*
X228432360Y-131401820D01*
X228442520Y-131389120D01*
X228460300Y-131386580D01*
X228498400Y-131391660D01*
X228559360Y-131409440D01*
X228645720Y-131437380D01*
X228767640Y-131478020D01*
X228787960Y-131483100D01*
X228920040Y-131523740D01*
X229047040Y-131556760D01*
X229156260Y-131574540D01*
X229179120Y-131579620D01*
X229257860Y-131584700D01*
X229303580Y-131584700D01*
X229326440Y-131577080D01*
X229331520Y-131559300D01*
X229331520Y-131551680D01*
X229318820Y-131523740D01*
X229273100Y-131483100D01*
X229196900Y-131427220D01*
X229105460Y-131371340D01*
X229011480Y-131310380D01*
X228937820Y-131264660D01*
X228881940Y-131221480D01*
X228831140Y-131180840D01*
X228780340Y-131130040D01*
X228721920Y-131066540D01*
X228650800Y-130982720D01*
X228584760Y-130903980D01*
X228508560Y-130812540D01*
X228432360Y-130726180D01*
X228368860Y-130657600D01*
X228323140Y-130606800D01*
X228310440Y-130591560D01*
X228244400Y-130533140D01*
X228010720Y-130576320D01*
X227876100Y-130604260D01*
X227782120Y-130632200D01*
X227721160Y-130660140D01*
X227690680Y-130688080D01*
X227685600Y-130723640D01*
X227688140Y-130733800D01*
X227698300Y-130776980D01*
X227708460Y-130825240D01*
X227713540Y-130883660D01*
X227713540Y-130957320D01*
X227711000Y-131048760D01*
X227703380Y-131160520D01*
X227693220Y-131300220D01*
X227677980Y-131467860D01*
X227660200Y-131671060D01*
X227639880Y-131869180D01*
X227624640Y-132013960D01*
X227520500Y-132039360D01*
X227444300Y-132054600D01*
X227347780Y-132072380D01*
X227263960Y-132087620D01*
X227200460Y-132097780D01*
X227157280Y-132107940D01*
X227126800Y-132123180D01*
X227109020Y-132153660D01*
X227096320Y-132204460D01*
X227083620Y-132283200D01*
X227068380Y-132397500D01*
X227055680Y-132481320D01*
X227045520Y-132544820D01*
X227035360Y-132585460D01*
X227032820Y-132590540D01*
X227009960Y-132580380D01*
X226961700Y-132552440D01*
X226893120Y-132514340D01*
X226855020Y-132491480D01*
X226761040Y-132440680D01*
X226689920Y-132407660D01*
X226623880Y-132389880D01*
X226565460Y-132384800D01*
X226443540Y-132374640D01*
X226250500Y-132143500D01*
X226179380Y-132054600D01*
X226087940Y-131942840D01*
X225986340Y-131815840D01*
X225879660Y-131683760D01*
X225772980Y-131551680D01*
X225742500Y-131513580D01*
X225488500Y-131193540D01*
X225257360Y-130903980D01*
X225051620Y-130647440D01*
X224868740Y-130418840D01*
X224708720Y-130215640D01*
X224569020Y-130042920D01*
X224447100Y-129893060D01*
X224348040Y-129771140D01*
X224264220Y-129669540D01*
X224198180Y-129590800D01*
X224147380Y-129532380D01*
X224111820Y-129494280D01*
X224091500Y-129473960D01*
X224083880Y-129471420D01*
X224088960Y-129499360D01*
X224111820Y-129565400D01*
X224152460Y-129669540D01*
X224205800Y-129806700D01*
X224276920Y-129979420D01*
X224360740Y-130187700D01*
X224459800Y-130426460D01*
X224574100Y-130695700D01*
X224612200Y-130789680D01*
X224663000Y-130906520D01*
X224734120Y-131053840D01*
X224817940Y-131229100D01*
X224914460Y-131422140D01*
X225018600Y-131632960D01*
X225132900Y-131851400D01*
X225249740Y-132077460D01*
X225369120Y-132300980D01*
X225417380Y-132389880D01*
X225473260Y-132494020D01*
X225521520Y-132585460D01*
X225557080Y-132659120D01*
X225579940Y-132704840D01*
X225585020Y-132717540D01*
X225569780Y-132732780D01*
X225536760Y-132730240D01*
X225511360Y-132717540D01*
X225480880Y-132702300D01*
X225419920Y-132674360D01*
X225336100Y-132641340D01*
X225237040Y-132603240D01*
X225132900Y-132565140D01*
X225033840Y-132529580D01*
X225010980Y-132524500D01*
X224861120Y-132486400D01*
X224703640Y-132476240D01*
X224696020Y-132476240D01*
X224624900Y-132476240D01*
X224569020Y-132481320D01*
X224515680Y-132491480D01*
X224454720Y-132514340D01*
X224378520Y-132549900D01*
X224287080Y-132593080D01*
X224167700Y-132654040D01*
X224035620Y-132722620D01*
X223911160Y-132793740D01*
X223834960Y-132839460D01*
X223692720Y-132928360D01*
X223522540Y-133037580D01*
X223326960Y-133159500D01*
X223116140Y-133291580D01*
X222895160Y-133431280D01*
X222669100Y-133573520D01*
X222448120Y-133713220D01*
X222234760Y-133845300D01*
X222156020Y-133896100D01*
X222021400Y-133982460D01*
X221896940Y-134061200D01*
X221792800Y-134129780D01*
X221706440Y-134188200D01*
X221645480Y-134231380D01*
X221615000Y-134256780D01*
X221612460Y-134261860D01*
D14*
%TO.C,REF\002A\002A*%
G36*
X221004637Y-100150699D02*
X220982845Y-100157976D01*
X220964414Y-100174420D01*
X220949065Y-100203197D01*
X220936519Y-100247474D01*
X220926495Y-100310418D01*
X220918717Y-100395194D01*
X220912904Y-100504971D01*
X220908777Y-100642914D01*
X220906057Y-100812191D01*
X220904465Y-101015968D01*
X220903723Y-101257411D01*
X220903550Y-101539687D01*
X220903668Y-101865964D01*
X220903797Y-102239407D01*
X220903800Y-102298500D01*
X220903878Y-102673884D01*
X220904151Y-103001711D01*
X220904682Y-103285221D01*
X220905531Y-103527658D01*
X220906760Y-103732261D01*
X220908431Y-103902274D01*
X220910605Y-104040939D01*
X220913343Y-104151496D01*
X220916708Y-104237188D01*
X220920759Y-104301257D01*
X220925559Y-104346944D01*
X220931169Y-104377492D01*
X220937651Y-104396141D01*
X220943715Y-104404885D01*
X220954791Y-104411992D01*
X220974999Y-104418213D01*
X221007510Y-104423606D01*
X221055497Y-104428229D01*
X221122133Y-104432140D01*
X221210590Y-104435396D01*
X221324040Y-104438056D01*
X221465656Y-104440175D01*
X221638610Y-104441813D01*
X221846076Y-104443028D01*
X222091224Y-104443876D01*
X222377229Y-104444415D01*
X222707261Y-104444703D01*
X223084495Y-104444798D01*
X223139001Y-104444800D01*
X223522824Y-104444726D01*
X223859020Y-104444467D01*
X224150761Y-104443965D01*
X224401219Y-104443162D01*
X224613568Y-104442000D01*
X224790979Y-104440422D01*
X224936625Y-104438371D01*
X225053678Y-104435787D01*
X225145312Y-104432615D01*
X225214697Y-104428795D01*
X225265008Y-104424271D01*
X225299416Y-104418985D01*
X225321093Y-104412879D01*
X225333213Y-104405895D01*
X225334286Y-104404885D01*
X225341535Y-104393627D01*
X225347862Y-104373152D01*
X225353328Y-104340219D01*
X225357994Y-104291586D01*
X225361922Y-104224011D01*
X225365174Y-104134252D01*
X225367810Y-104019068D01*
X225369893Y-103875217D01*
X225371483Y-103699456D01*
X225372642Y-103488544D01*
X225373432Y-103239239D01*
X225373914Y-102948300D01*
X225374149Y-102612484D01*
X225374200Y-102298500D01*
X225374123Y-101923115D01*
X225373850Y-101595288D01*
X225373319Y-101311778D01*
X225372470Y-101069341D01*
X225371241Y-100864738D01*
X225370052Y-100743729D01*
X225094801Y-100743729D01*
X225084363Y-100768638D01*
X225058056Y-100822844D01*
X225044001Y-100850699D01*
X225033068Y-100873774D01*
X225023826Y-100899420D01*
X225016133Y-100931859D01*
X225009848Y-100975308D01*
X225004828Y-101033988D01*
X225000932Y-101112117D01*
X224998017Y-101213917D01*
X224995943Y-101343605D01*
X224994566Y-101505401D01*
X224993746Y-101703525D01*
X224993341Y-101942197D01*
X224993209Y-102225635D01*
X224993201Y-102362290D01*
X224993561Y-102625726D01*
X224994598Y-102874037D01*
X224996244Y-103102556D01*
X224998432Y-103306618D01*
X225001097Y-103481558D01*
X225004170Y-103622711D01*
X225007585Y-103725410D01*
X225011276Y-103784991D01*
X225013776Y-103798370D01*
X225038200Y-103838136D01*
X225064032Y-103892350D01*
X225093711Y-103962200D01*
X224567206Y-103961811D01*
X224412033Y-103960849D01*
X224277650Y-103958381D01*
X224171001Y-103954674D01*
X224099030Y-103949992D01*
X224068681Y-103944600D01*
X224068906Y-103942761D01*
X224098855Y-103908826D01*
X224134668Y-103850626D01*
X224138756Y-103842811D01*
X224153682Y-103805521D01*
X224164693Y-103755267D01*
X224172331Y-103684556D01*
X224177134Y-103585898D01*
X224179644Y-103451800D01*
X224180399Y-103274772D01*
X224180400Y-103264961D01*
X224179167Y-103087347D01*
X224175604Y-102944876D01*
X224169922Y-102841727D01*
X224162328Y-102782078D01*
X224155586Y-102768400D01*
X224126086Y-102787770D01*
X224088359Y-102834744D01*
X224086085Y-102838250D01*
X224045507Y-102895268D01*
X224011301Y-102933500D01*
X223980853Y-102970632D01*
X223940917Y-103032966D01*
X223927329Y-103056833D01*
X223885180Y-103123930D01*
X223822473Y-103212720D01*
X223751408Y-103306064D01*
X223737458Y-103323533D01*
X223629339Y-103466344D01*
X223538862Y-103602967D01*
X223470611Y-103725349D01*
X223429169Y-103825440D01*
X223418400Y-103883923D01*
X223418400Y-103962200D01*
X222291945Y-103962200D01*
X222304071Y-103948488D01*
X222148400Y-103948488D01*
X222124301Y-103952757D01*
X222057204Y-103956485D01*
X221954911Y-103959448D01*
X221825222Y-103961426D01*
X221675939Y-103962196D01*
X221665800Y-103962200D01*
X221489033Y-103961408D01*
X221357899Y-103958806D01*
X221267253Y-103954056D01*
X221211950Y-103946818D01*
X221186844Y-103936752D01*
X221184008Y-103930450D01*
X221198962Y-103886554D01*
X221222108Y-103849395D01*
X221231302Y-103830692D01*
X221238898Y-103798195D01*
X221245041Y-103747498D01*
X221249873Y-103674196D01*
X221253536Y-103573883D01*
X221256174Y-103442154D01*
X221257930Y-103274604D01*
X221258947Y-103066827D01*
X221259367Y-102814418D01*
X221259400Y-102700045D01*
X221259400Y-101600000D01*
X222124305Y-101600000D01*
X222085553Y-101674938D01*
X222075522Y-101700815D01*
X222067333Y-101739092D01*
X222060808Y-101794607D01*
X222055774Y-101872197D01*
X222052053Y-101976700D01*
X222049471Y-102112954D01*
X222047852Y-102285797D01*
X222047021Y-102500067D01*
X222046800Y-102742750D01*
X222046914Y-102994440D01*
X222047415Y-103200511D01*
X222048545Y-103366147D01*
X222050545Y-103496527D01*
X222053655Y-103596835D01*
X222058117Y-103672251D01*
X222064171Y-103727957D01*
X222072059Y-103769135D01*
X222082021Y-103800967D01*
X222094299Y-103828635D01*
X222097600Y-103835200D01*
X222128510Y-103898636D01*
X222146520Y-103941110D01*
X222148400Y-103948488D01*
X222304071Y-103948488D01*
X222353523Y-103892570D01*
X222397445Y-103843266D01*
X222425627Y-103812290D01*
X222427800Y-103810020D01*
X222485555Y-103746905D01*
X222557037Y-103662689D01*
X222632103Y-103570065D01*
X222700609Y-103481725D01*
X222752412Y-103410361D01*
X222772624Y-103378547D01*
X222812845Y-103314584D01*
X222876338Y-103223299D01*
X222954196Y-103116680D01*
X223037513Y-103006715D01*
X223117383Y-102905390D01*
X223179727Y-102830607D01*
X223240171Y-102753548D01*
X223296841Y-102669943D01*
X223301022Y-102663050D01*
X223428363Y-102464936D01*
X223524006Y-102334356D01*
X223593964Y-102243212D01*
X223512532Y-102155760D01*
X223442340Y-102076661D01*
X223352285Y-101969892D01*
X223252943Y-101848451D01*
X223154893Y-101725339D01*
X223068711Y-101613555D01*
X223039849Y-101574815D01*
X222735059Y-101194892D01*
X222495721Y-100937787D01*
X222296941Y-100736400D01*
X222842253Y-100736400D01*
X223027450Y-100736523D01*
X223168002Y-100737861D01*
X223270063Y-100741867D01*
X223339788Y-100749993D01*
X223383331Y-100763691D01*
X223406847Y-100784416D01*
X223416489Y-100813618D01*
X223418414Y-100852751D01*
X223418400Y-100872390D01*
X223433988Y-100925842D01*
X223473059Y-100993121D01*
X223490701Y-101016362D01*
X223549348Y-101093668D01*
X223612110Y-101184586D01*
X223634198Y-101219000D01*
X223677448Y-101285764D01*
X223711088Y-101332931D01*
X223722761Y-101346000D01*
X223752555Y-101375339D01*
X223801755Y-101431018D01*
X223861478Y-101502108D01*
X223922838Y-101577681D01*
X223976953Y-101646808D01*
X224014937Y-101698561D01*
X224028000Y-101721483D01*
X224044818Y-101750974D01*
X224086854Y-101798717D01*
X224104201Y-101815900D01*
X224180401Y-101888904D01*
X224180400Y-101469088D01*
X224178807Y-101286302D01*
X224173105Y-101143476D01*
X224161907Y-101029840D01*
X224143828Y-100934629D01*
X224117482Y-100847075D01*
X224091836Y-100780850D01*
X224088606Y-100765771D01*
X224097351Y-100754538D01*
X224124295Y-100746591D01*
X224175662Y-100741367D01*
X224257676Y-100738303D01*
X224376561Y-100736838D01*
X224538540Y-100736410D01*
X224584083Y-100736400D01*
X224738917Y-100736746D01*
X224874878Y-100737712D01*
X224984383Y-100739190D01*
X225059849Y-100741071D01*
X225093692Y-100743245D01*
X225094801Y-100743729D01*
X225370052Y-100743729D01*
X225369570Y-100694725D01*
X225367396Y-100556060D01*
X225364658Y-100445503D01*
X225361293Y-100359811D01*
X225357242Y-100295742D01*
X225352442Y-100250055D01*
X225346832Y-100219507D01*
X225340350Y-100200858D01*
X225334286Y-100192114D01*
X225321822Y-100183934D01*
X225299563Y-100176938D01*
X225263809Y-100171034D01*
X225210859Y-100166133D01*
X225137012Y-100162144D01*
X225038569Y-100158978D01*
X224911827Y-100156544D01*
X224753087Y-100154752D01*
X224558647Y-100153511D01*
X224324807Y-100152733D01*
X224047865Y-100152326D01*
X223724122Y-100152200D01*
X222097600Y-100152200D01*
X222097600Y-100248418D01*
X222077521Y-100364335D01*
X222024475Y-100483000D01*
X221949246Y-100583991D01*
X221896994Y-100628244D01*
X221783454Y-100675370D01*
X221652500Y-100685636D01*
X221518372Y-100661918D01*
X221395310Y-100607089D01*
X221297552Y-100524023D01*
X221282200Y-100504147D01*
X221235194Y-100403428D01*
X221213561Y-100287877D01*
X221202310Y-100152199D01*
X221092970Y-100152200D01*
X221059420Y-100150977D01*
X221030069Y-100149421D01*
X221004637Y-100150699D01*
X221004637Y-100150699D01*
G37*
X221004637Y-100150699D02*
X220982845Y-100157976D01*
X220964414Y-100174420D01*
X220949065Y-100203197D01*
X220936519Y-100247474D01*
X220926495Y-100310418D01*
X220918717Y-100395194D01*
X220912904Y-100504971D01*
X220908777Y-100642914D01*
X220906057Y-100812191D01*
X220904465Y-101015968D01*
X220903723Y-101257411D01*
X220903550Y-101539687D01*
X220903668Y-101865964D01*
X220903797Y-102239407D01*
X220903800Y-102298500D01*
X220903878Y-102673884D01*
X220904151Y-103001711D01*
X220904682Y-103285221D01*
X220905531Y-103527658D01*
X220906760Y-103732261D01*
X220908431Y-103902274D01*
X220910605Y-104040939D01*
X220913343Y-104151496D01*
X220916708Y-104237188D01*
X220920759Y-104301257D01*
X220925559Y-104346944D01*
X220931169Y-104377492D01*
X220937651Y-104396141D01*
X220943715Y-104404885D01*
X220954791Y-104411992D01*
X220974999Y-104418213D01*
X221007510Y-104423606D01*
X221055497Y-104428229D01*
X221122133Y-104432140D01*
X221210590Y-104435396D01*
X221324040Y-104438056D01*
X221465656Y-104440175D01*
X221638610Y-104441813D01*
X221846076Y-104443028D01*
X222091224Y-104443876D01*
X222377229Y-104444415D01*
X222707261Y-104444703D01*
X223084495Y-104444798D01*
X223139001Y-104444800D01*
X223522824Y-104444726D01*
X223859020Y-104444467D01*
X224150761Y-104443965D01*
X224401219Y-104443162D01*
X224613568Y-104442000D01*
X224790979Y-104440422D01*
X224936625Y-104438371D01*
X225053678Y-104435787D01*
X225145312Y-104432615D01*
X225214697Y-104428795D01*
X225265008Y-104424271D01*
X225299416Y-104418985D01*
X225321093Y-104412879D01*
X225333213Y-104405895D01*
X225334286Y-104404885D01*
X225341535Y-104393627D01*
X225347862Y-104373152D01*
X225353328Y-104340219D01*
X225357994Y-104291586D01*
X225361922Y-104224011D01*
X225365174Y-104134252D01*
X225367810Y-104019068D01*
X225369893Y-103875217D01*
X225371483Y-103699456D01*
X225372642Y-103488544D01*
X225373432Y-103239239D01*
X225373914Y-102948300D01*
X225374149Y-102612484D01*
X225374200Y-102298500D01*
X225374123Y-101923115D01*
X225373850Y-101595288D01*
X225373319Y-101311778D01*
X225372470Y-101069341D01*
X225371241Y-100864738D01*
X225370052Y-100743729D01*
X225094801Y-100743729D01*
X225084363Y-100768638D01*
X225058056Y-100822844D01*
X225044001Y-100850699D01*
X225033068Y-100873774D01*
X225023826Y-100899420D01*
X225016133Y-100931859D01*
X225009848Y-100975308D01*
X225004828Y-101033988D01*
X225000932Y-101112117D01*
X224998017Y-101213917D01*
X224995943Y-101343605D01*
X224994566Y-101505401D01*
X224993746Y-101703525D01*
X224993341Y-101942197D01*
X224993209Y-102225635D01*
X224993201Y-102362290D01*
X224993561Y-102625726D01*
X224994598Y-102874037D01*
X224996244Y-103102556D01*
X224998432Y-103306618D01*
X225001097Y-103481558D01*
X225004170Y-103622711D01*
X225007585Y-103725410D01*
X225011276Y-103784991D01*
X225013776Y-103798370D01*
X225038200Y-103838136D01*
X225064032Y-103892350D01*
X225093711Y-103962200D01*
X224567206Y-103961811D01*
X224412033Y-103960849D01*
X224277650Y-103958381D01*
X224171001Y-103954674D01*
X224099030Y-103949992D01*
X224068681Y-103944600D01*
X224068906Y-103942761D01*
X224098855Y-103908826D01*
X224134668Y-103850626D01*
X224138756Y-103842811D01*
X224153682Y-103805521D01*
X224164693Y-103755267D01*
X224172331Y-103684556D01*
X224177134Y-103585898D01*
X224179644Y-103451800D01*
X224180399Y-103274772D01*
X224180400Y-103264961D01*
X224179167Y-103087347D01*
X224175604Y-102944876D01*
X224169922Y-102841727D01*
X224162328Y-102782078D01*
X224155586Y-102768400D01*
X224126086Y-102787770D01*
X224088359Y-102834744D01*
X224086085Y-102838250D01*
X224045507Y-102895268D01*
X224011301Y-102933500D01*
X223980853Y-102970632D01*
X223940917Y-103032966D01*
X223927329Y-103056833D01*
X223885180Y-103123930D01*
X223822473Y-103212720D01*
X223751408Y-103306064D01*
X223737458Y-103323533D01*
X223629339Y-103466344D01*
X223538862Y-103602967D01*
X223470611Y-103725349D01*
X223429169Y-103825440D01*
X223418400Y-103883923D01*
X223418400Y-103962200D01*
X222291945Y-103962200D01*
X222304071Y-103948488D01*
X222148400Y-103948488D01*
X222124301Y-103952757D01*
X222057204Y-103956485D01*
X221954911Y-103959448D01*
X221825222Y-103961426D01*
X221675939Y-103962196D01*
X221665800Y-103962200D01*
X221489033Y-103961408D01*
X221357899Y-103958806D01*
X221267253Y-103954056D01*
X221211950Y-103946818D01*
X221186844Y-103936752D01*
X221184008Y-103930450D01*
X221198962Y-103886554D01*
X221222108Y-103849395D01*
X221231302Y-103830692D01*
X221238898Y-103798195D01*
X221245041Y-103747498D01*
X221249873Y-103674196D01*
X221253536Y-103573883D01*
X221256174Y-103442154D01*
X221257930Y-103274604D01*
X221258947Y-103066827D01*
X221259367Y-102814418D01*
X221259400Y-102700045D01*
X221259400Y-101600000D01*
X222124305Y-101600000D01*
X222085553Y-101674938D01*
X222075522Y-101700815D01*
X222067333Y-101739092D01*
X222060808Y-101794607D01*
X222055774Y-101872197D01*
X222052053Y-101976700D01*
X222049471Y-102112954D01*
X222047852Y-102285797D01*
X222047021Y-102500067D01*
X222046800Y-102742750D01*
X222046914Y-102994440D01*
X222047415Y-103200511D01*
X222048545Y-103366147D01*
X222050545Y-103496527D01*
X222053655Y-103596835D01*
X222058117Y-103672251D01*
X222064171Y-103727957D01*
X222072059Y-103769135D01*
X222082021Y-103800967D01*
X222094299Y-103828635D01*
X222097600Y-103835200D01*
X222128510Y-103898636D01*
X222146520Y-103941110D01*
X222148400Y-103948488D01*
X222304071Y-103948488D01*
X222353523Y-103892570D01*
X222397445Y-103843266D01*
X222425627Y-103812290D01*
X222427800Y-103810020D01*
X222485555Y-103746905D01*
X222557037Y-103662689D01*
X222632103Y-103570065D01*
X222700609Y-103481725D01*
X222752412Y-103410361D01*
X222772624Y-103378547D01*
X222812845Y-103314584D01*
X222876338Y-103223299D01*
X222954196Y-103116680D01*
X223037513Y-103006715D01*
X223117383Y-102905390D01*
X223179727Y-102830607D01*
X223240171Y-102753548D01*
X223296841Y-102669943D01*
X223301022Y-102663050D01*
X223428363Y-102464936D01*
X223524006Y-102334356D01*
X223593964Y-102243212D01*
X223512532Y-102155760D01*
X223442340Y-102076661D01*
X223352285Y-101969892D01*
X223252943Y-101848451D01*
X223154893Y-101725339D01*
X223068711Y-101613555D01*
X223039849Y-101574815D01*
X222735059Y-101194892D01*
X222495721Y-100937787D01*
X222296941Y-100736400D01*
X222842253Y-100736400D01*
X223027450Y-100736523D01*
X223168002Y-100737861D01*
X223270063Y-100741867D01*
X223339788Y-100749993D01*
X223383331Y-100763691D01*
X223406847Y-100784416D01*
X223416489Y-100813618D01*
X223418414Y-100852751D01*
X223418400Y-100872390D01*
X223433988Y-100925842D01*
X223473059Y-100993121D01*
X223490701Y-101016362D01*
X223549348Y-101093668D01*
X223612110Y-101184586D01*
X223634198Y-101219000D01*
X223677448Y-101285764D01*
X223711088Y-101332931D01*
X223722761Y-101346000D01*
X223752555Y-101375339D01*
X223801755Y-101431018D01*
X223861478Y-101502108D01*
X223922838Y-101577681D01*
X223976953Y-101646808D01*
X224014937Y-101698561D01*
X224028000Y-101721483D01*
X224044818Y-101750974D01*
X224086854Y-101798717D01*
X224104201Y-101815900D01*
X224180401Y-101888904D01*
X224180400Y-101469088D01*
X224178807Y-101286302D01*
X224173105Y-101143476D01*
X224161907Y-101029840D01*
X224143828Y-100934629D01*
X224117482Y-100847075D01*
X224091836Y-100780850D01*
X224088606Y-100765771D01*
X224097351Y-100754538D01*
X224124295Y-100746591D01*
X224175662Y-100741367D01*
X224257676Y-100738303D01*
X224376561Y-100736838D01*
X224538540Y-100736410D01*
X224584083Y-100736400D01*
X224738917Y-100736746D01*
X224874878Y-100737712D01*
X224984383Y-100739190D01*
X225059849Y-100741071D01*
X225093692Y-100743245D01*
X225094801Y-100743729D01*
X225370052Y-100743729D01*
X225369570Y-100694725D01*
X225367396Y-100556060D01*
X225364658Y-100445503D01*
X225361293Y-100359811D01*
X225357242Y-100295742D01*
X225352442Y-100250055D01*
X225346832Y-100219507D01*
X225340350Y-100200858D01*
X225334286Y-100192114D01*
X225321822Y-100183934D01*
X225299563Y-100176938D01*
X225263809Y-100171034D01*
X225210859Y-100166133D01*
X225137012Y-100162144D01*
X225038569Y-100158978D01*
X224911827Y-100156544D01*
X224753087Y-100154752D01*
X224558647Y-100153511D01*
X224324807Y-100152733D01*
X224047865Y-100152326D01*
X223724122Y-100152200D01*
X222097600Y-100152200D01*
X222097600Y-100248418D01*
X222077521Y-100364335D01*
X222024475Y-100483000D01*
X221949246Y-100583991D01*
X221896994Y-100628244D01*
X221783454Y-100675370D01*
X221652500Y-100685636D01*
X221518372Y-100661918D01*
X221395310Y-100607089D01*
X221297552Y-100524023D01*
X221282200Y-100504147D01*
X221235194Y-100403428D01*
X221213561Y-100287877D01*
X221202310Y-100152199D01*
X221092970Y-100152200D01*
X221059420Y-100150977D01*
X221030069Y-100149421D01*
X221004637Y-100150699D01*
G36*
X218911324Y-100714341D02*
X218870089Y-100724143D01*
X218799121Y-100746829D01*
X218703827Y-100782963D01*
X218596479Y-100827187D01*
X218489347Y-100874147D01*
X218394702Y-100918487D01*
X218324815Y-100954851D01*
X218293936Y-100975598D01*
X218303626Y-100998582D01*
X218335964Y-101053508D01*
X218384536Y-101130651D01*
X218442926Y-101220288D01*
X218504719Y-101312695D01*
X218563498Y-101398151D01*
X218612848Y-101466930D01*
X218645323Y-101508159D01*
X218673764Y-101505624D01*
X218725919Y-101475335D01*
X218769593Y-101441312D01*
X218914702Y-101349226D01*
X219079513Y-101303559D01*
X219237902Y-101302284D01*
X219408602Y-101342902D01*
X219552741Y-101426127D01*
X219669755Y-101550925D01*
X219759081Y-101716260D01*
X219820157Y-101921097D01*
X219852419Y-102164401D01*
X219855574Y-102438200D01*
X219834133Y-102685826D01*
X219789016Y-102891741D01*
X219718370Y-103060105D01*
X219620343Y-103195080D01*
X219493083Y-103300826D01*
X219463421Y-103319151D01*
X219386227Y-103359415D01*
X219314762Y-103380876D01*
X219226973Y-103388676D01*
X219163900Y-103389009D01*
X219004183Y-103373354D01*
X218865453Y-103325392D01*
X218731375Y-103238613D01*
X218681154Y-103196663D01*
X218626908Y-103152162D01*
X218590586Y-103128225D01*
X218582945Y-103126969D01*
X218560784Y-103160288D01*
X218521502Y-103224333D01*
X218470770Y-103309348D01*
X218414257Y-103405575D01*
X218357634Y-103503257D01*
X218306569Y-103592636D01*
X218266735Y-103663956D01*
X218243799Y-103707460D01*
X218240547Y-103716180D01*
X218265782Y-103729554D01*
X218323656Y-103760253D01*
X218401938Y-103801786D01*
X218406543Y-103804230D01*
X218568853Y-103884612D01*
X218711788Y-103939928D01*
X218853728Y-103974986D01*
X219013053Y-103994593D01*
X219163900Y-104002340D01*
X219356715Y-104003569D01*
X219508750Y-103994113D01*
X219599564Y-103978565D01*
X219831799Y-103893718D01*
X220044841Y-103764718D01*
X220234634Y-103595906D01*
X220397122Y-103391623D01*
X220528248Y-103156209D01*
X220623956Y-102894005D01*
X220628452Y-102877632D01*
X220664750Y-102691026D01*
X220683655Y-102476920D01*
X220685177Y-102253257D01*
X220669331Y-102037982D01*
X220636128Y-101849040D01*
X220627703Y-101817044D01*
X220525939Y-101543435D01*
X220383268Y-101297468D01*
X220202196Y-101082653D01*
X219985230Y-100902495D01*
X219964000Y-100888082D01*
X219786356Y-100795504D01*
X219578302Y-100729748D01*
X219353802Y-100692907D01*
X219126822Y-100687073D01*
X218911324Y-100714341D01*
X218911324Y-100714341D01*
G37*
X218911324Y-100714341D02*
X218870089Y-100724143D01*
X218799121Y-100746829D01*
X218703827Y-100782963D01*
X218596479Y-100827187D01*
X218489347Y-100874147D01*
X218394702Y-100918487D01*
X218324815Y-100954851D01*
X218293936Y-100975598D01*
X218303626Y-100998582D01*
X218335964Y-101053508D01*
X218384536Y-101130651D01*
X218442926Y-101220288D01*
X218504719Y-101312695D01*
X218563498Y-101398151D01*
X218612848Y-101466930D01*
X218645323Y-101508159D01*
X218673764Y-101505624D01*
X218725919Y-101475335D01*
X218769593Y-101441312D01*
X218914702Y-101349226D01*
X219079513Y-101303559D01*
X219237902Y-101302284D01*
X219408602Y-101342902D01*
X219552741Y-101426127D01*
X219669755Y-101550925D01*
X219759081Y-101716260D01*
X219820157Y-101921097D01*
X219852419Y-102164401D01*
X219855574Y-102438200D01*
X219834133Y-102685826D01*
X219789016Y-102891741D01*
X219718370Y-103060105D01*
X219620343Y-103195080D01*
X219493083Y-103300826D01*
X219463421Y-103319151D01*
X219386227Y-103359415D01*
X219314762Y-103380876D01*
X219226973Y-103388676D01*
X219163900Y-103389009D01*
X219004183Y-103373354D01*
X218865453Y-103325392D01*
X218731375Y-103238613D01*
X218681154Y-103196663D01*
X218626908Y-103152162D01*
X218590586Y-103128225D01*
X218582945Y-103126969D01*
X218560784Y-103160288D01*
X218521502Y-103224333D01*
X218470770Y-103309348D01*
X218414257Y-103405575D01*
X218357634Y-103503257D01*
X218306569Y-103592636D01*
X218266735Y-103663956D01*
X218243799Y-103707460D01*
X218240547Y-103716180D01*
X218265782Y-103729554D01*
X218323656Y-103760253D01*
X218401938Y-103801786D01*
X218406543Y-103804230D01*
X218568853Y-103884612D01*
X218711788Y-103939928D01*
X218853728Y-103974986D01*
X219013053Y-103994593D01*
X219163900Y-104002340D01*
X219356715Y-104003569D01*
X219508750Y-103994113D01*
X219599564Y-103978565D01*
X219831799Y-103893718D01*
X220044841Y-103764718D01*
X220234634Y-103595906D01*
X220397122Y-103391623D01*
X220528248Y-103156209D01*
X220623956Y-102894005D01*
X220628452Y-102877632D01*
X220664750Y-102691026D01*
X220683655Y-102476920D01*
X220685177Y-102253257D01*
X220669331Y-102037982D01*
X220636128Y-101849040D01*
X220627703Y-101817044D01*
X220525939Y-101543435D01*
X220383268Y-101297468D01*
X220202196Y-101082653D01*
X219985230Y-100902495D01*
X219964000Y-100888082D01*
X219786356Y-100795504D01*
X219578302Y-100729748D01*
X219353802Y-100692907D01*
X219126822Y-100687073D01*
X218911324Y-100714341D01*
G36*
X216828380Y-101560359D02*
X216652424Y-101600264D01*
X216533487Y-101644895D01*
X216440902Y-101700778D01*
X216358221Y-101774360D01*
X216305083Y-101829188D01*
X216261604Y-101880829D01*
X216226709Y-101934992D01*
X216199324Y-101997387D01*
X216178376Y-102073723D01*
X216162791Y-102169710D01*
X216151496Y-102291058D01*
X216143415Y-102443475D01*
X216137477Y-102632670D01*
X216132606Y-102864355D01*
X216130451Y-102985477D01*
X216126193Y-103217434D01*
X216122070Y-103404051D01*
X216117724Y-103550785D01*
X216112797Y-103663095D01*
X216106932Y-103746437D01*
X216099769Y-103806269D01*
X216090951Y-103848049D01*
X216080120Y-103877234D01*
X216070865Y-103893527D01*
X216025829Y-103962200D01*
X216836582Y-103962200D01*
X216852500Y-103808698D01*
X216951898Y-103876483D01*
X217108054Y-103955254D01*
X217288908Y-104001178D01*
X217478705Y-104012137D01*
X217661691Y-103986011D01*
X217695166Y-103976436D01*
X217881571Y-103894112D01*
X218032480Y-103776585D01*
X218145348Y-103627321D01*
X218217625Y-103449786D01*
X218246765Y-103247443D01*
X218247212Y-103225600D01*
X218246548Y-103196545D01*
X217518293Y-103196545D01*
X217514037Y-103285884D01*
X217503910Y-103316502D01*
X217441221Y-103397089D01*
X217346277Y-103451481D01*
X217232673Y-103475352D01*
X217114004Y-103464378D01*
X217076404Y-103452508D01*
X216989217Y-103410968D01*
X216933576Y-103358366D01*
X216903106Y-103283280D01*
X216891434Y-103174289D01*
X216890600Y-103119572D01*
X216890600Y-102920800D01*
X217056516Y-102920800D01*
X217220253Y-102935824D01*
X217358872Y-102978733D01*
X217454324Y-103039555D01*
X217496931Y-103106298D01*
X217518293Y-103196545D01*
X218246548Y-103196545D01*
X218244597Y-103111273D01*
X218230949Y-103023974D01*
X218201450Y-102940311D01*
X218178118Y-102890215D01*
X218073777Y-102733636D01*
X217929396Y-102607758D01*
X217745631Y-102512878D01*
X217523138Y-102449291D01*
X217262574Y-102417295D01*
X217122206Y-102413241D01*
X216883912Y-102412800D01*
X216897804Y-102309228D01*
X216933738Y-102195960D01*
X217005656Y-102117507D01*
X217112276Y-102074163D01*
X217252313Y-102066223D01*
X217424484Y-102093980D01*
X217601491Y-102148144D01*
X217685949Y-102175413D01*
X217750942Y-102190373D01*
X217782805Y-102189908D01*
X217783138Y-102189589D01*
X217800724Y-102157872D01*
X217830820Y-102091912D01*
X217868098Y-102004745D01*
X217907227Y-101909404D01*
X217942878Y-101818925D01*
X217969720Y-101746340D01*
X217982425Y-101704685D01*
X217982800Y-101701302D01*
X217961010Y-101682617D01*
X217917553Y-101676200D01*
X217865969Y-101670037D01*
X217779150Y-101653424D01*
X217670897Y-101629175D01*
X217593703Y-101610173D01*
X217327904Y-101559360D01*
X217069224Y-101542718D01*
X216828380Y-101560359D01*
X216828380Y-101560359D01*
G37*
X216828380Y-101560359D02*
X216652424Y-101600264D01*
X216533487Y-101644895D01*
X216440902Y-101700778D01*
X216358221Y-101774360D01*
X216305083Y-101829188D01*
X216261604Y-101880829D01*
X216226709Y-101934992D01*
X216199324Y-101997387D01*
X216178376Y-102073723D01*
X216162791Y-102169710D01*
X216151496Y-102291058D01*
X216143415Y-102443475D01*
X216137477Y-102632670D01*
X216132606Y-102864355D01*
X216130451Y-102985477D01*
X216126193Y-103217434D01*
X216122070Y-103404051D01*
X216117724Y-103550785D01*
X216112797Y-103663095D01*
X216106932Y-103746437D01*
X216099769Y-103806269D01*
X216090951Y-103848049D01*
X216080120Y-103877234D01*
X216070865Y-103893527D01*
X216025829Y-103962200D01*
X216836582Y-103962200D01*
X216852500Y-103808698D01*
X216951898Y-103876483D01*
X217108054Y-103955254D01*
X217288908Y-104001178D01*
X217478705Y-104012137D01*
X217661691Y-103986011D01*
X217695166Y-103976436D01*
X217881571Y-103894112D01*
X218032480Y-103776585D01*
X218145348Y-103627321D01*
X218217625Y-103449786D01*
X218246765Y-103247443D01*
X218247212Y-103225600D01*
X218246548Y-103196545D01*
X217518293Y-103196545D01*
X217514037Y-103285884D01*
X217503910Y-103316502D01*
X217441221Y-103397089D01*
X217346277Y-103451481D01*
X217232673Y-103475352D01*
X217114004Y-103464378D01*
X217076404Y-103452508D01*
X216989217Y-103410968D01*
X216933576Y-103358366D01*
X216903106Y-103283280D01*
X216891434Y-103174289D01*
X216890600Y-103119572D01*
X216890600Y-102920800D01*
X217056516Y-102920800D01*
X217220253Y-102935824D01*
X217358872Y-102978733D01*
X217454324Y-103039555D01*
X217496931Y-103106298D01*
X217518293Y-103196545D01*
X218246548Y-103196545D01*
X218244597Y-103111273D01*
X218230949Y-103023974D01*
X218201450Y-102940311D01*
X218178118Y-102890215D01*
X218073777Y-102733636D01*
X217929396Y-102607758D01*
X217745631Y-102512878D01*
X217523138Y-102449291D01*
X217262574Y-102417295D01*
X217122206Y-102413241D01*
X216883912Y-102412800D01*
X216897804Y-102309228D01*
X216933738Y-102195960D01*
X217005656Y-102117507D01*
X217112276Y-102074163D01*
X217252313Y-102066223D01*
X217424484Y-102093980D01*
X217601491Y-102148144D01*
X217685949Y-102175413D01*
X217750942Y-102190373D01*
X217782805Y-102189908D01*
X217783138Y-102189589D01*
X217800724Y-102157872D01*
X217830820Y-102091912D01*
X217868098Y-102004745D01*
X217907227Y-101909404D01*
X217942878Y-101818925D01*
X217969720Y-101746340D01*
X217982425Y-101704685D01*
X217982800Y-101701302D01*
X217961010Y-101682617D01*
X217917553Y-101676200D01*
X217865969Y-101670037D01*
X217779150Y-101653424D01*
X217670897Y-101629175D01*
X217593703Y-101610173D01*
X217327904Y-101559360D01*
X217069224Y-101542718D01*
X216828380Y-101560359D01*
G36*
X213608536Y-102165150D02*
X213606994Y-102495052D01*
X213605434Y-102777981D01*
X213603739Y-103017761D01*
X213601792Y-103218219D01*
X213599477Y-103383181D01*
X213596678Y-103516472D01*
X213593276Y-103621918D01*
X213589156Y-103703345D01*
X213584201Y-103764580D01*
X213578293Y-103809447D01*
X213571317Y-103841774D01*
X213563155Y-103865385D01*
X213556198Y-103879650D01*
X213511096Y-103962200D01*
X214325200Y-103962200D01*
X214325200Y-103886000D01*
X214328559Y-103832452D01*
X214336649Y-103809804D01*
X214336773Y-103809800D01*
X214362891Y-103822784D01*
X214415274Y-103855537D01*
X214442097Y-103873421D01*
X214574397Y-103940647D01*
X214734063Y-103987589D01*
X214902978Y-104011338D01*
X215063023Y-104008984D01*
X215163400Y-103989247D01*
X215347462Y-103907939D01*
X215512590Y-103786200D01*
X215647483Y-103633510D01*
X215708845Y-103531694D01*
X215776269Y-103374029D01*
X215820145Y-103207951D01*
X215843286Y-103019403D01*
X215848759Y-102832913D01*
X215847998Y-102819200D01*
X215047864Y-102819200D01*
X215043366Y-102994895D01*
X215029751Y-103128414D01*
X215004523Y-103227949D01*
X214965188Y-103301691D01*
X214909249Y-103357831D01*
X214876984Y-103380170D01*
X214770579Y-103418164D01*
X214644856Y-103415176D01*
X214509797Y-103371728D01*
X214485501Y-103359773D01*
X214388700Y-103309557D01*
X214381858Y-102760487D01*
X214375015Y-102211416D01*
X214442109Y-102167454D01*
X214505640Y-102140707D01*
X214595332Y-102120044D01*
X214653367Y-102113065D01*
X214741745Y-102109970D01*
X214800709Y-102120095D01*
X214851015Y-102148683D01*
X214877073Y-102169568D01*
X214944417Y-102243167D01*
X214993336Y-102338737D01*
X215025659Y-102463234D01*
X215043213Y-102623611D01*
X215047864Y-102819200D01*
X215847998Y-102819200D01*
X215832325Y-102536965D01*
X215784458Y-102277134D01*
X215705829Y-102054509D01*
X215597111Y-101870180D01*
X215458975Y-101725237D01*
X215292094Y-101620768D01*
X215097140Y-101557864D01*
X215057830Y-101550835D01*
X214942297Y-101542575D01*
X214814937Y-101549429D01*
X214688339Y-101568852D01*
X214575088Y-101598299D01*
X214487772Y-101635225D01*
X214439738Y-101675815D01*
X214418873Y-101700282D01*
X214402830Y-101695192D01*
X214391075Y-101656657D01*
X214383076Y-101580788D01*
X214378298Y-101463701D01*
X214376207Y-101301506D01*
X214376000Y-101211670D01*
X214376523Y-101037573D01*
X214378531Y-100906217D01*
X214382689Y-100809550D01*
X214389657Y-100739519D01*
X214400099Y-100688073D01*
X214414678Y-100647158D01*
X214424062Y-100627470D01*
X214472124Y-100533200D01*
X213615772Y-100533200D01*
X213608536Y-102165150D01*
X213608536Y-102165150D01*
G37*
X213608536Y-102165150D02*
X213606994Y-102495052D01*
X213605434Y-102777981D01*
X213603739Y-103017761D01*
X213601792Y-103218219D01*
X213599477Y-103383181D01*
X213596678Y-103516472D01*
X213593276Y-103621918D01*
X213589156Y-103703345D01*
X213584201Y-103764580D01*
X213578293Y-103809447D01*
X213571317Y-103841774D01*
X213563155Y-103865385D01*
X213556198Y-103879650D01*
X213511096Y-103962200D01*
X214325200Y-103962200D01*
X214325200Y-103886000D01*
X214328559Y-103832452D01*
X214336649Y-103809804D01*
X214336773Y-103809800D01*
X214362891Y-103822784D01*
X214415274Y-103855537D01*
X214442097Y-103873421D01*
X214574397Y-103940647D01*
X214734063Y-103987589D01*
X214902978Y-104011338D01*
X215063023Y-104008984D01*
X215163400Y-103989247D01*
X215347462Y-103907939D01*
X215512590Y-103786200D01*
X215647483Y-103633510D01*
X215708845Y-103531694D01*
X215776269Y-103374029D01*
X215820145Y-103207951D01*
X215843286Y-103019403D01*
X215848759Y-102832913D01*
X215847998Y-102819200D01*
X215047864Y-102819200D01*
X215043366Y-102994895D01*
X215029751Y-103128414D01*
X215004523Y-103227949D01*
X214965188Y-103301691D01*
X214909249Y-103357831D01*
X214876984Y-103380170D01*
X214770579Y-103418164D01*
X214644856Y-103415176D01*
X214509797Y-103371728D01*
X214485501Y-103359773D01*
X214388700Y-103309557D01*
X214381858Y-102760487D01*
X214375015Y-102211416D01*
X214442109Y-102167454D01*
X214505640Y-102140707D01*
X214595332Y-102120044D01*
X214653367Y-102113065D01*
X214741745Y-102109970D01*
X214800709Y-102120095D01*
X214851015Y-102148683D01*
X214877073Y-102169568D01*
X214944417Y-102243167D01*
X214993336Y-102338737D01*
X215025659Y-102463234D01*
X215043213Y-102623611D01*
X215047864Y-102819200D01*
X215847998Y-102819200D01*
X215832325Y-102536965D01*
X215784458Y-102277134D01*
X215705829Y-102054509D01*
X215597111Y-101870180D01*
X215458975Y-101725237D01*
X215292094Y-101620768D01*
X215097140Y-101557864D01*
X215057830Y-101550835D01*
X214942297Y-101542575D01*
X214814937Y-101549429D01*
X214688339Y-101568852D01*
X214575088Y-101598299D01*
X214487772Y-101635225D01*
X214439738Y-101675815D01*
X214418873Y-101700282D01*
X214402830Y-101695192D01*
X214391075Y-101656657D01*
X214383076Y-101580788D01*
X214378298Y-101463701D01*
X214376207Y-101301506D01*
X214376000Y-101211670D01*
X214376523Y-101037573D01*
X214378531Y-100906217D01*
X214382689Y-100809550D01*
X214389657Y-100739519D01*
X214400099Y-100688073D01*
X214414678Y-100647158D01*
X214424062Y-100627470D01*
X214472124Y-100533200D01*
X213615772Y-100533200D01*
X213608536Y-102165150D01*
%TD*%
M02*
