M48
;DRILL file {KiCad (5.0.0-rc2-83-gda392728d)} date 06/05/18 23:34:08
;FORMAT={-:-/ absolute / inch / decimal}
FMAT,2
INCH,TZ
T1C0.0120
T2C0.0150
T3C0.0276
T4C0.0283
T5C0.0320
T6C0.0350
T7C0.0354
T8C0.0370
T9C0.0394
T10C0.1181
T11C0.1283
T12C0.1378
T13C0.1248
T14C0.1283
%
G90
G05
M72
T1
X1.56Y-5.16
X1.56Y-5.3
X1.56Y-5.44
X1.7Y-5.16
X1.7Y-5.44
X1.84Y-5.16
X1.84Y-5.3
X1.84Y-5.44
T2
X2.6815Y-3.9
X2.7185Y-3.9
X3.8945Y-5.4146
X4.178Y-5.3324
X4.2Y-5.4146
X4.3197Y-5.4146
X4.7Y-5.25
X4.8Y-4.8235
X4.8974Y-4.9216
X5.1554Y-5.3488
X5.5707Y-4.9376
X5.6287Y-4.9623
X5.6878Y-4.9866
X5.723Y-5.031
X5.8992Y-4.8347
X5.9255Y-4.8627
X5.9528Y-4.8937
X5.9832Y-4.9212
X6.0134Y-4.9695
X6.048Y-5.0347
X6.1547Y-5.0325
X6.575Y-5.3
X6.6184Y-4.9001
X6.775Y-5.1
X6.8498Y-4.8504
X7.018Y-4.9086
X8.1815Y-4.6
X8.2185Y-4.6
T3
X2.2Y-3.7
X2.2Y-3.8
X8.8Y-3.7
X8.8Y-3.8
X4.35Y-4.325
X4.35Y-4.425
X7.25Y-4.325
X7.25Y-4.425
X2.2Y-5.1
X2.2Y-5.2
X2.9Y-4.325
X2.9Y-4.425
X7.4Y-5.1
X7.4Y-5.2
X2.5Y-4.8
X2.6Y-4.8
X4.5Y-5.
X4.6Y-5.
X5.9Y-4.725
X6.Y-4.725
X4.45Y-4.725
X4.55Y-4.725
X8.3Y-4.55
X8.3Y-4.65
X8.3Y-5.
X8.3Y-5.1
X7.85Y-4.725
X7.95Y-4.725
X3.Y-4.725
X3.1Y-4.725
X5.675Y-5.1
X5.675Y-5.2
X8.4Y-4.25
X8.5Y-4.25
X6.4Y-4.725
X6.5Y-4.725
X3.5Y-4.725
X3.6Y-4.725
X4.95Y-4.725
X5.05Y-4.725
X2.2Y-4.5
X2.2Y-4.6
X3.5Y-5.1
X3.5Y-5.2
X2.3Y-4.8
X2.4Y-4.8
X7.35Y-4.725
X7.45Y-4.725
X5.8Y-4.325
X5.8Y-4.425
X2.3Y-4.2
X2.4Y-4.2
T4
X3.65Y-5.1
X3.65Y-5.2
X2.375Y-3.7
X2.375Y-3.8
X7.25Y-5.1
X7.25Y-5.2
X8.6Y-3.7
X8.6Y-3.8
T5
X4.Y-5.4
X4.4Y-5.4
T6
X2.85Y-3.875
X2.875Y-3.6
X3.575Y-3.875
X3.6Y-3.6
X4.3Y-3.875
X4.325Y-3.6
X5.025Y-3.875
X5.05Y-3.6
X5.75Y-3.875
X5.775Y-3.6
X6.475Y-3.875
X6.5Y-3.6
X7.2Y-3.875
X7.225Y-3.6
X7.925Y-3.875
X7.95Y-3.6
T7
X5.7Y-4.125
X5.75Y-4.025
X5.8Y-4.125
X5.85Y-4.025
X5.9Y-4.125
X5.95Y-4.025
X6.Y-4.125
X6.05Y-4.025
X3.525Y-4.125
X3.575Y-4.025
X3.625Y-4.125
X3.675Y-4.025
X3.725Y-4.125
X3.775Y-4.025
X3.825Y-4.125
X3.875Y-4.025
X7.15Y-4.125
X7.2Y-4.025
X7.25Y-4.125
X7.3Y-4.025
X7.35Y-4.125
X7.4Y-4.025
X7.45Y-4.125
X7.5Y-4.025
X8.9Y-4.55
X8.9Y-4.65
X8.9Y-4.75
X8.9Y-4.85
X9.Y-4.6
X9.Y-4.7
X9.Y-4.8
X9.Y-4.9
X3.3Y-5.
X3.3Y-5.1
X3.3Y-5.2
X3.3Y-5.3
X3.4Y-5.05
X3.4Y-5.15
X3.4Y-5.25
X3.4Y-5.35
X7.875Y-4.125
X7.925Y-4.025
X7.975Y-4.125
X8.025Y-4.025
X8.075Y-4.125
X8.125Y-4.025
X8.175Y-4.125
X8.225Y-4.025
X6.425Y-4.125
X6.475Y-4.025
X6.525Y-4.125
X6.575Y-4.025
X6.625Y-4.125
X6.675Y-4.025
X6.725Y-4.125
X6.775Y-4.025
X2.Y-4.6
X2.Y-4.7
X2.Y-4.8
X2.Y-4.9
X2.1Y-4.65
X2.1Y-4.75
X2.1Y-4.85
X2.1Y-4.95
X2.8Y-4.125
X2.85Y-4.025
X2.9Y-4.125
X2.95Y-4.025
X3.Y-4.125
X3.05Y-4.025
X3.1Y-4.125
X3.15Y-4.025
X7.5Y-4.95
X7.5Y-5.05
X7.5Y-5.15
X7.5Y-5.25
X7.6Y-5.
X7.6Y-5.1
X7.6Y-5.2
X7.6Y-5.3
X4.25Y-4.125
X4.3Y-4.025
X4.35Y-4.125
X4.4Y-4.025
X4.45Y-4.125
X4.5Y-4.025
X4.55Y-4.125
X4.6Y-4.025
X4.975Y-4.125
X5.025Y-4.025
X5.075Y-4.125
X5.125Y-4.025
X5.175Y-4.125
X5.225Y-4.025
X5.275Y-4.125
X5.325Y-4.025
T8
X4.255Y-5.3
X4.3275Y-5.2185
X4.4Y-5.3
T9
X4.45Y-4.325
X4.45Y-4.625
X4.55Y-4.325
X4.55Y-4.625
X4.65Y-4.325
X4.65Y-4.625
X4.75Y-4.325
X4.75Y-4.625
X4.85Y-4.325
X4.85Y-4.625
X4.95Y-4.325
X4.95Y-4.625
X5.05Y-4.325
X5.05Y-4.625
X5.15Y-4.325
X5.15Y-4.625
X3.Y-4.325
X3.Y-4.625
X3.1Y-4.325
X3.1Y-4.625
X3.2Y-4.325
X3.2Y-4.625
X3.3Y-4.325
X3.3Y-4.625
X3.4Y-4.325
X3.4Y-4.625
X3.5Y-4.325
X3.5Y-4.625
X3.6Y-4.325
X3.6Y-4.625
X3.7Y-4.325
X3.7Y-4.625
X7.35Y-4.325
X7.35Y-4.625
X7.45Y-4.325
X7.45Y-4.625
X7.55Y-4.325
X7.55Y-4.625
X7.65Y-4.325
X7.65Y-4.625
X7.75Y-4.325
X7.75Y-4.625
X7.85Y-4.325
X7.85Y-4.625
X7.95Y-4.325
X7.95Y-4.625
X8.05Y-4.325
X8.05Y-4.625
X8.4Y-4.8
X8.4Y-5.1
X8.5Y-4.8
X8.5Y-5.1
X8.6Y-4.8
X8.6Y-5.1
X8.7Y-4.8
X8.7Y-5.1
X5.9Y-4.325
X5.9Y-4.625
X6.Y-4.325
X6.Y-4.625
X6.1Y-4.325
X6.1Y-4.625
X6.2Y-4.325
X6.2Y-4.625
X6.3Y-4.325
X6.3Y-4.625
X6.4Y-4.325
X6.4Y-4.625
X6.5Y-4.325
X6.5Y-4.625
X6.6Y-4.325
X6.6Y-4.625
X8.4Y-4.35
X8.4Y-4.65
X8.5Y-4.35
X8.5Y-4.65
X8.6Y-4.35
X8.6Y-4.65
X8.7Y-4.35
X8.7Y-4.65
X2.3Y-4.9
X2.3Y-5.2
X2.4Y-4.9
X2.4Y-5.2
X2.5Y-4.9
X2.5Y-5.2
X2.6Y-4.9
X2.6Y-5.2
X5.8Y-5.1
X5.8Y-5.4
X5.9Y-5.1
X5.9Y-5.4
X6.Y-5.1
X6.Y-5.4
X6.1Y-5.1
X6.1Y-5.4
X6.2Y-5.1
X6.2Y-5.4
X6.3Y-5.1
X6.3Y-5.4
X6.4Y-5.1
X6.4Y-5.4
X6.5Y-5.1
X6.5Y-5.4
X2.3Y-4.3
X2.3Y-4.6
X2.4Y-4.3
X2.4Y-4.6
X2.5Y-4.3
X2.5Y-4.6
X2.6Y-4.3
X2.6Y-4.6
X4.5Y-5.1
X4.5Y-5.4
X4.6Y-5.1
X4.6Y-5.4
X4.7Y-5.1
X4.7Y-5.4
X4.8Y-5.1
X4.8Y-5.4
X4.9Y-5.1
X4.9Y-5.4
X5.Y-5.1
X5.Y-5.4
X5.1Y-5.1
X5.1Y-5.4
X5.2Y-5.1
X5.2Y-5.4
T10
X1.9102Y-3.6449
X2.0205Y-3.7551
X9.2102Y-3.652
X9.3205Y-3.7622
T11
X1.7Y-5.3
T12
X1.8Y-3.8929
X9.1Y-3.9
T13
X1.75Y-4.5502
X1.75Y-5.0002
X2.7498Y-3.775
X3.1998Y-3.775
X7.85Y-4.8998
X7.85Y-5.3498
X4.1998Y-3.775
X4.6498Y-3.775
X4.9248Y-3.775
X5.3748Y-3.775
X5.6498Y-3.775
X6.0998Y-3.775
X3.4748Y-3.775
X3.9248Y-3.775
X7.0998Y-3.775
X7.5498Y-3.775
X9.25Y-4.4998
X9.25Y-4.9498
X3.05Y-4.9502
X3.05Y-5.4002
X7.8248Y-3.775
X8.2748Y-3.775
X6.3748Y-3.775
X6.8248Y-3.775
T14
X9.3Y-4.2
X9.3Y-5.3
X1.7Y-4.2
T0
M30
