%FSLAX45Y45*%
G04 Gerber Fmt 4.5, Leading zero omitted, Abs format (unit mm)*
G04 Created by KiCad (PCBNEW (5.0.0-rc2-100-g6d77e594b)) date 06/08/18 00:04:44*
%MOMM*%
%LPD*%
G01*
G04 APERTURE LIST*
%ADD10C,0.100000*%
%ADD11C,0.200000*%
%ADD12C,0.300000*%
G04 APERTURE END LIST*
D10*
X7621539Y-12700527D02*
X19305539Y-12700527D01*
X7621539Y-12700527D02*
X7621539Y-7620527D01*
X19305539Y-12700527D02*
X19305539Y-7620527D01*
X19305539Y-7620527D02*
X7621539Y-7620527D01*
D11*
X7757160Y-11821160D02*
X7787640Y-11851640D01*
X7787640Y-11821160D02*
X7757160Y-11851640D01*
X7757160Y-12176760D02*
X7787640Y-12207240D01*
X7787640Y-12176760D02*
X7757160Y-12207240D01*
X7757160Y-12532360D02*
X7787640Y-12562840D01*
X7787640Y-12532360D02*
X7757160Y-12562840D01*
X8112760Y-11821160D02*
X8143240Y-11851640D01*
X8143240Y-11821160D02*
X8112760Y-11851640D01*
X8112760Y-12532360D02*
X8143240Y-12562840D01*
X8143240Y-12532360D02*
X8112760Y-12562840D01*
X8468360Y-11821160D02*
X8498840Y-11851640D01*
X8498840Y-11821160D02*
X8468360Y-11851640D01*
X8468360Y-12176760D02*
X8498840Y-12207240D01*
X8498840Y-12176760D02*
X8468360Y-12207240D01*
X8468360Y-12532360D02*
X8498840Y-12562840D01*
X8498840Y-12532360D02*
X8468360Y-12562840D01*
X16146037Y-10668527D02*
G75*
G03X16146037Y-10668527I-16510J0D01*
G01*
X10669539Y-8347475D02*
X10669539Y-8417579D01*
X10634487Y-8382527D02*
X10704591Y-8382527D01*
X10669539Y-8601475D02*
X10669539Y-8671579D01*
X10634487Y-8636527D02*
X10704591Y-8636527D01*
X10669539Y-9617475D02*
X10669539Y-9687579D01*
X10634487Y-9652527D02*
X10704591Y-9652527D01*
X10669539Y-9871475D02*
X10669539Y-9941579D01*
X10634487Y-9906527D02*
X10704591Y-9906527D01*
X15368539Y-11839975D02*
X15368539Y-11910079D01*
X15333487Y-11875027D02*
X15403591Y-11875027D01*
X15368539Y-12093975D02*
X15368539Y-12164079D01*
X15333487Y-12129027D02*
X15403591Y-12129027D01*
X16384539Y-9871475D02*
X16384539Y-9941579D01*
X16349487Y-9906527D02*
X16419591Y-9906527D01*
X16638539Y-9871475D02*
X16638539Y-9941579D01*
X16603487Y-9906527D02*
X16673591Y-9906527D01*
X10161539Y-10633475D02*
X10161539Y-10703579D01*
X10126487Y-10668527D02*
X10196591Y-10668527D01*
X10415539Y-10633475D02*
X10415539Y-10703579D01*
X10380487Y-10668527D02*
X10450591Y-10668527D01*
X18416539Y-9363475D02*
X18416539Y-9433579D01*
X18381487Y-9398527D02*
X18451591Y-9398527D01*
X18670539Y-9363475D02*
X18670539Y-9433579D01*
X18635487Y-9398527D02*
X18705591Y-9398527D01*
X10415539Y-11966975D02*
X10415539Y-12037079D01*
X10380487Y-12002027D02*
X10450591Y-12002027D01*
X10669539Y-11966975D02*
X10669539Y-12037079D01*
X10634487Y-12002027D02*
X10704591Y-12002027D01*
X14098539Y-9363475D02*
X14098539Y-9433579D01*
X14063487Y-9398527D02*
X14133591Y-9398527D01*
X14098539Y-9617475D02*
X14098539Y-9687579D01*
X14063487Y-9652527D02*
X14133591Y-9652527D01*
X18289539Y-10760475D02*
X18289539Y-10830579D01*
X18254487Y-10795527D02*
X18324591Y-10795527D01*
X18543539Y-10760475D02*
X18543539Y-10830579D01*
X18508487Y-10795527D02*
X18578591Y-10795527D01*
X10440995Y-11646483D02*
X10440995Y-11595571D01*
X10390083Y-11595571D01*
X10390083Y-11646483D01*
X10440995Y-11646483D01*
X10694995Y-11646483D02*
X10694995Y-11595571D01*
X10644083Y-11595571D01*
X10644083Y-11646483D01*
X10694995Y-11646483D01*
X15774995Y-11900483D02*
X15774995Y-11849571D01*
X15724083Y-11849571D01*
X15724083Y-11900483D01*
X15774995Y-11900483D01*
X15774995Y-12154483D02*
X15774995Y-12103571D01*
X15724083Y-12103571D01*
X15724083Y-12154483D01*
X15774995Y-12154483D01*
X13742995Y-9423983D02*
X13742995Y-9373071D01*
X13692083Y-9373071D01*
X13692083Y-9423983D01*
X13742995Y-9423983D01*
X13742995Y-9677983D02*
X13742995Y-9627071D01*
X13692083Y-9627071D01*
X13692083Y-9677983D01*
X13742995Y-9677983D01*
X18035539Y-11341527D02*
X18073539Y-11303527D01*
X18035539Y-11265527D01*
X17997539Y-11303527D01*
X18035539Y-11341527D01*
X18289539Y-11341527D02*
X18327539Y-11303527D01*
X18289539Y-11265527D01*
X18251539Y-11303527D01*
X18289539Y-11341527D01*
X18543539Y-11341527D02*
X18581539Y-11303527D01*
X18543539Y-11265527D01*
X18505539Y-11303527D01*
X18543539Y-11341527D01*
X16597899Y-11262887D02*
X16679179Y-11344167D01*
X16679179Y-11262887D02*
X16597899Y-11344167D01*
X16679179Y-11303527D02*
G75*
G03X16679179Y-11303527I-40640J0D01*
G01*
X17613899Y-11262887D02*
X17695179Y-11344167D01*
X17695179Y-11262887D02*
X17613899Y-11344167D01*
X17695179Y-11303527D02*
G75*
G03X17695179Y-11303527I-40640J0D01*
G01*
X18883899Y-10373887D02*
X18965179Y-10455167D01*
X18965179Y-10373887D02*
X18883899Y-10455167D01*
X18965179Y-10414527D02*
G75*
G03X18965179Y-10414527I-40640J0D01*
G01*
X18883899Y-11389887D02*
X18965179Y-11471167D01*
X18965179Y-11389887D02*
X18883899Y-11471167D01*
X18965179Y-11430527D02*
G75*
G03X18965179Y-11430527I-40640J0D01*
G01*
X15577539Y-8972527D02*
X15667539Y-9062527D01*
X15667539Y-8972527D02*
X15577539Y-9062527D01*
X15622539Y-8972527D02*
X15622539Y-9062527D01*
X15577539Y-9017527D02*
X15667539Y-9017527D01*
X15577539Y-9226527D02*
X15667539Y-9316527D01*
X15667539Y-9226527D02*
X15577539Y-9316527D01*
X15622539Y-9226527D02*
X15622539Y-9316527D01*
X15577539Y-9271527D02*
X15667539Y-9271527D01*
X15577539Y-9480527D02*
X15667539Y-9570527D01*
X15667539Y-9480527D02*
X15577539Y-9570527D01*
X15622539Y-9480527D02*
X15622539Y-9570527D01*
X15577539Y-9525527D02*
X15667539Y-9525527D01*
X15577539Y-9734527D02*
X15667539Y-9824527D01*
X15667539Y-9734527D02*
X15577539Y-9824527D01*
X15622539Y-9734527D02*
X15622539Y-9824527D01*
X15577539Y-9779527D02*
X15667539Y-9779527D01*
X15831539Y-9099527D02*
X15921539Y-9189527D01*
X15921539Y-9099527D02*
X15831539Y-9189527D01*
X15876539Y-9099527D02*
X15876539Y-9189527D01*
X15831539Y-9144527D02*
X15921539Y-9144527D01*
X15831539Y-9353527D02*
X15921539Y-9443527D01*
X15921539Y-9353527D02*
X15831539Y-9443527D01*
X15876539Y-9353527D02*
X15876539Y-9443527D01*
X15831539Y-9398527D02*
X15921539Y-9398527D01*
X15831539Y-9607527D02*
X15921539Y-9697527D01*
X15921539Y-9607527D02*
X15831539Y-9697527D01*
X15876539Y-9607527D02*
X15876539Y-9697527D01*
X15831539Y-9652527D02*
X15921539Y-9652527D01*
X15831539Y-9861527D02*
X15921539Y-9951527D01*
X15921539Y-9861527D02*
X15831539Y-9951527D01*
X15876539Y-9861527D02*
X15876539Y-9951527D01*
X15831539Y-9906527D02*
X15921539Y-9906527D01*
X8846539Y-8972527D02*
X8936539Y-9062527D01*
X8936539Y-8972527D02*
X8846539Y-9062527D01*
X8891539Y-8972527D02*
X8891539Y-9062527D01*
X8846539Y-9017527D02*
X8936539Y-9017527D01*
X8846539Y-9226527D02*
X8936539Y-9316527D01*
X8936539Y-9226527D02*
X8846539Y-9316527D01*
X8891539Y-9226527D02*
X8891539Y-9316527D01*
X8846539Y-9271527D02*
X8936539Y-9271527D01*
X8846539Y-9480527D02*
X8936539Y-9570527D01*
X8936539Y-9480527D02*
X8846539Y-9570527D01*
X8891539Y-9480527D02*
X8891539Y-9570527D01*
X8846539Y-9525527D02*
X8936539Y-9525527D01*
X8846539Y-9734527D02*
X8936539Y-9824527D01*
X8936539Y-9734527D02*
X8846539Y-9824527D01*
X8891539Y-9734527D02*
X8891539Y-9824527D01*
X8846539Y-9779527D02*
X8936539Y-9779527D01*
X9100539Y-9099527D02*
X9190539Y-9189527D01*
X9190539Y-9099527D02*
X9100539Y-9189527D01*
X9145539Y-9099527D02*
X9145539Y-9189527D01*
X9100539Y-9144527D02*
X9190539Y-9144527D01*
X9100539Y-9353527D02*
X9190539Y-9443527D01*
X9190539Y-9353527D02*
X9100539Y-9443527D01*
X9145539Y-9353527D02*
X9145539Y-9443527D01*
X9100539Y-9398527D02*
X9190539Y-9398527D01*
X9100539Y-9607527D02*
X9190539Y-9697527D01*
X9190539Y-9607527D02*
X9100539Y-9697527D01*
X9145539Y-9607527D02*
X9145539Y-9697527D01*
X9100539Y-9652527D02*
X9190539Y-9652527D01*
X9100539Y-9861527D02*
X9190539Y-9951527D01*
X9190539Y-9861527D02*
X9100539Y-9951527D01*
X9145539Y-9861527D02*
X9145539Y-9951527D01*
X9100539Y-9906527D02*
X9190539Y-9906527D01*
X17527514Y-10564377D02*
X17621514Y-10658377D01*
X17621514Y-10564377D02*
X17527514Y-10658377D01*
X17607748Y-10644611D02*
X17607748Y-10578143D01*
X17541280Y-10578143D01*
X17541280Y-10644611D01*
X17607748Y-10644611D01*
X17527514Y-10932677D02*
X17621514Y-11026677D01*
X17621514Y-10932677D02*
X17527514Y-11026677D01*
X17607748Y-11012911D02*
X17607748Y-10946443D01*
X17541280Y-10946443D01*
X17541280Y-11012911D01*
X17607748Y-11012911D01*
X17734539Y-10748527D02*
X17828539Y-10842527D01*
X17828539Y-10748527D02*
X17734539Y-10842527D01*
X17814773Y-10828761D02*
X17814773Y-10762293D01*
X17748305Y-10762293D01*
X17748305Y-10828761D01*
X17814773Y-10828761D01*
X9603539Y-8332527D02*
X9703539Y-8432527D01*
X9703539Y-8332527D02*
X9603539Y-8432527D01*
X9653539Y-8432527D02*
X9703539Y-8382527D01*
X9653539Y-8332527D01*
X9603539Y-8382527D01*
X9653539Y-8432527D01*
X9603539Y-9094527D02*
X9703539Y-9194527D01*
X9703539Y-9094527D02*
X9603539Y-9194527D01*
X9653539Y-9194527D02*
X9703539Y-9144527D01*
X9653539Y-9094527D01*
X9603539Y-9144527D01*
X9653539Y-9194527D01*
X9857539Y-8332527D02*
X9957539Y-8432527D01*
X9957539Y-8332527D02*
X9857539Y-8432527D01*
X9907539Y-8432527D02*
X9957539Y-8382527D01*
X9907539Y-8332527D01*
X9857539Y-8382527D01*
X9907539Y-8432527D01*
X9857539Y-9094527D02*
X9957539Y-9194527D01*
X9957539Y-9094527D02*
X9857539Y-9194527D01*
X9907539Y-9194527D02*
X9957539Y-9144527D01*
X9907539Y-9094527D01*
X9857539Y-9144527D01*
X9907539Y-9194527D01*
X10111539Y-8332527D02*
X10211539Y-8432527D01*
X10211539Y-8332527D02*
X10111539Y-8432527D01*
X10161539Y-8432527D02*
X10211539Y-8382527D01*
X10161539Y-8332527D01*
X10111539Y-8382527D01*
X10161539Y-8432527D01*
X10111539Y-9094527D02*
X10211539Y-9194527D01*
X10211539Y-9094527D02*
X10111539Y-9194527D01*
X10161539Y-9194527D02*
X10211539Y-9144527D01*
X10161539Y-9094527D01*
X10111539Y-9144527D01*
X10161539Y-9194527D01*
X10365539Y-8332527D02*
X10465539Y-8432527D01*
X10465539Y-8332527D02*
X10365539Y-8432527D01*
X10415539Y-8432527D02*
X10465539Y-8382527D01*
X10415539Y-8332527D01*
X10365539Y-8382527D01*
X10415539Y-8432527D01*
X10365539Y-9094527D02*
X10465539Y-9194527D01*
X10465539Y-9094527D02*
X10365539Y-9194527D01*
X10415539Y-9194527D02*
X10465539Y-9144527D01*
X10415539Y-9094527D01*
X10365539Y-9144527D01*
X10415539Y-9194527D01*
X9603539Y-9602527D02*
X9703539Y-9702527D01*
X9703539Y-9602527D02*
X9603539Y-9702527D01*
X9653539Y-9702527D02*
X9703539Y-9652527D01*
X9653539Y-9602527D01*
X9603539Y-9652527D01*
X9653539Y-9702527D01*
X9603539Y-10364527D02*
X9703539Y-10464527D01*
X9703539Y-10364527D02*
X9603539Y-10464527D01*
X9653539Y-10464527D02*
X9703539Y-10414527D01*
X9653539Y-10364527D01*
X9603539Y-10414527D01*
X9653539Y-10464527D01*
X9857539Y-9602527D02*
X9957539Y-9702527D01*
X9957539Y-9602527D02*
X9857539Y-9702527D01*
X9907539Y-9702527D02*
X9957539Y-9652527D01*
X9907539Y-9602527D01*
X9857539Y-9652527D01*
X9907539Y-9702527D01*
X9857539Y-10364527D02*
X9957539Y-10464527D01*
X9957539Y-10364527D02*
X9857539Y-10464527D01*
X9907539Y-10464527D02*
X9957539Y-10414527D01*
X9907539Y-10364527D01*
X9857539Y-10414527D01*
X9907539Y-10464527D01*
X10111539Y-9602527D02*
X10211539Y-9702527D01*
X10211539Y-9602527D02*
X10111539Y-9702527D01*
X10161539Y-9702527D02*
X10211539Y-9652527D01*
X10161539Y-9602527D01*
X10111539Y-9652527D01*
X10161539Y-9702527D01*
X10111539Y-10364527D02*
X10211539Y-10464527D01*
X10211539Y-10364527D02*
X10111539Y-10464527D01*
X10161539Y-10464527D02*
X10211539Y-10414527D01*
X10161539Y-10364527D01*
X10111539Y-10414527D01*
X10161539Y-10464527D01*
X10365539Y-9602527D02*
X10465539Y-9702527D01*
X10465539Y-9602527D02*
X10365539Y-9702527D01*
X10415539Y-9702527D02*
X10465539Y-9652527D01*
X10415539Y-9602527D01*
X10365539Y-9652527D01*
X10415539Y-9702527D01*
X10365539Y-10364527D02*
X10465539Y-10464527D01*
X10465539Y-10364527D02*
X10365539Y-10464527D01*
X10415539Y-10464527D02*
X10465539Y-10414527D01*
X10415539Y-10364527D01*
X10365539Y-10414527D01*
X10415539Y-10464527D01*
X17858539Y-9602000D02*
X17958539Y-9702000D01*
X17958539Y-9602000D02*
X17858539Y-9702000D01*
X17908539Y-9702000D02*
X17958539Y-9652000D01*
X17908539Y-9602000D01*
X17858539Y-9652000D01*
X17908539Y-9702000D01*
X17858539Y-9856000D02*
X17958539Y-9956000D01*
X17958539Y-9856000D02*
X17858539Y-9956000D01*
X17908539Y-9956000D02*
X17958539Y-9906000D01*
X17908539Y-9856000D01*
X17858539Y-9906000D01*
X17908539Y-9956000D01*
X17858539Y-10110000D02*
X17958539Y-10210000D01*
X17958539Y-10110000D02*
X17858539Y-10210000D01*
X17908539Y-10210000D02*
X17958539Y-10160000D01*
X17908539Y-10110000D01*
X17858539Y-10160000D01*
X17908539Y-10210000D01*
X17858539Y-10364000D02*
X17958539Y-10464000D01*
X17958539Y-10364000D02*
X17858539Y-10464000D01*
X17908539Y-10464000D02*
X17958539Y-10414000D01*
X17908539Y-10364000D01*
X17858539Y-10414000D01*
X17908539Y-10464000D01*
X18620539Y-9602000D02*
X18720539Y-9702000D01*
X18720539Y-9602000D02*
X18620539Y-9702000D01*
X18670539Y-9702000D02*
X18720539Y-9652000D01*
X18670539Y-9602000D01*
X18620539Y-9652000D01*
X18670539Y-9702000D01*
X18620539Y-9856000D02*
X18720539Y-9956000D01*
X18720539Y-9856000D02*
X18620539Y-9956000D01*
X18670539Y-9956000D02*
X18720539Y-9906000D01*
X18670539Y-9856000D01*
X18620539Y-9906000D01*
X18670539Y-9956000D01*
X18620539Y-10110000D02*
X18720539Y-10210000D01*
X18720539Y-10110000D02*
X18620539Y-10210000D01*
X18670539Y-10210000D02*
X18720539Y-10160000D01*
X18670539Y-10110000D01*
X18620539Y-10160000D01*
X18670539Y-10210000D01*
X18620539Y-10364000D02*
X18720539Y-10464000D01*
X18720539Y-10364000D02*
X18620539Y-10464000D01*
X18670539Y-10464000D02*
X18720539Y-10414000D01*
X18670539Y-10364000D01*
X18620539Y-10414000D01*
X18670539Y-10464000D01*
X16334539Y-10110527D02*
X16434539Y-10210527D01*
X16434539Y-10110527D02*
X16334539Y-10210527D01*
X16384539Y-10210527D02*
X16434539Y-10160527D01*
X16384539Y-10110527D01*
X16334539Y-10160527D01*
X16384539Y-10210527D01*
X16334539Y-10364527D02*
X16434539Y-10464527D01*
X16434539Y-10364527D02*
X16334539Y-10464527D01*
X16384539Y-10464527D02*
X16434539Y-10414527D01*
X16384539Y-10364527D01*
X16334539Y-10414527D01*
X16384539Y-10464527D01*
X16334539Y-10618527D02*
X16434539Y-10718527D01*
X16434539Y-10618527D02*
X16334539Y-10718527D01*
X16384539Y-10718527D02*
X16434539Y-10668527D01*
X16384539Y-10618527D01*
X16334539Y-10668527D01*
X16384539Y-10718527D01*
X16334539Y-10872527D02*
X16434539Y-10972527D01*
X16434539Y-10872527D02*
X16334539Y-10972527D01*
X16384539Y-10972527D02*
X16434539Y-10922527D01*
X16384539Y-10872527D01*
X16334539Y-10922527D01*
X16384539Y-10972527D01*
X17096539Y-10110527D02*
X17196539Y-10210527D01*
X17196539Y-10110527D02*
X17096539Y-10210527D01*
X17146539Y-10210527D02*
X17196539Y-10160527D01*
X17146539Y-10110527D01*
X17096539Y-10160527D01*
X17146539Y-10210527D01*
X17096539Y-10364527D02*
X17196539Y-10464527D01*
X17196539Y-10364527D02*
X17096539Y-10464527D01*
X17146539Y-10464527D02*
X17196539Y-10414527D01*
X17146539Y-10364527D01*
X17096539Y-10414527D01*
X17146539Y-10464527D01*
X17096539Y-10618527D02*
X17196539Y-10718527D01*
X17196539Y-10618527D02*
X17096539Y-10718527D01*
X17146539Y-10718527D02*
X17196539Y-10668527D01*
X17146539Y-10618527D01*
X17096539Y-10668527D01*
X17146539Y-10718527D01*
X17096539Y-10872527D02*
X17196539Y-10972527D01*
X17196539Y-10872527D02*
X17096539Y-10972527D01*
X17146539Y-10972527D02*
X17196539Y-10922527D01*
X17146539Y-10872527D01*
X17096539Y-10922527D01*
X17146539Y-10972527D01*
X11431539Y-9346027D02*
X11431539Y-9451027D01*
X11379039Y-9398527D02*
X11484039Y-9398527D01*
X11484039Y-9398527D02*
G75*
G03X11484039Y-9398527I-52500J0D01*
G01*
X11431539Y-9600027D02*
X11431539Y-9705027D01*
X11379039Y-9652527D02*
X11484039Y-9652527D01*
X11484039Y-9652527D02*
G75*
G03X11484039Y-9652527I-52500J0D01*
G01*
X11431539Y-9854027D02*
X11431539Y-9959027D01*
X11379039Y-9906527D02*
X11484039Y-9906527D01*
X11484039Y-9906527D02*
G75*
G03X11484039Y-9906527I-52500J0D01*
G01*
X11431539Y-10108027D02*
X11431539Y-10213027D01*
X11379039Y-10160527D02*
X11484039Y-10160527D01*
X11484039Y-10160527D02*
G75*
G03X11484039Y-10160527I-52500J0D01*
G01*
X11431539Y-10362027D02*
X11431539Y-10467027D01*
X11379039Y-10414527D02*
X11484039Y-10414527D01*
X11484039Y-10414527D02*
G75*
G03X11484039Y-10414527I-52500J0D01*
G01*
X11431539Y-10616027D02*
X11431539Y-10721027D01*
X11379039Y-10668527D02*
X11484039Y-10668527D01*
X11484039Y-10668527D02*
G75*
G03X11484039Y-10668527I-52500J0D01*
G01*
X11431539Y-10870027D02*
X11431539Y-10975027D01*
X11379039Y-10922527D02*
X11484039Y-10922527D01*
X11484039Y-10922527D02*
G75*
G03X11484039Y-10922527I-52500J0D01*
G01*
X11431539Y-11124027D02*
X11431539Y-11229027D01*
X11379039Y-11176527D02*
X11484039Y-11176527D01*
X11484039Y-11176527D02*
G75*
G03X11484039Y-11176527I-52500J0D01*
G01*
X11431539Y-11378027D02*
X11431539Y-11483027D01*
X11379039Y-11430527D02*
X11484039Y-11430527D01*
X11484039Y-11430527D02*
G75*
G03X11484039Y-11430527I-52500J0D01*
G01*
X11431539Y-11632027D02*
X11431539Y-11737027D01*
X11379039Y-11684527D02*
X11484039Y-11684527D01*
X11484039Y-11684527D02*
G75*
G03X11484039Y-11684527I-52500J0D01*
G01*
X11431539Y-11886027D02*
X11431539Y-11991027D01*
X11379039Y-11938527D02*
X11484039Y-11938527D01*
X11484039Y-11938527D02*
G75*
G03X11484039Y-11938527I-52500J0D01*
G01*
X11431539Y-12140027D02*
X11431539Y-12245027D01*
X11379039Y-12192527D02*
X11484039Y-12192527D01*
X11484039Y-12192527D02*
G75*
G03X11484039Y-12192527I-52500J0D01*
G01*
X11723639Y-9963247D02*
X11723639Y-10068247D01*
X11671139Y-10015747D02*
X11776139Y-10015747D01*
X11776139Y-10015747D02*
G75*
G03X11776139Y-10015747I-52500J0D01*
G01*
X11723639Y-10217247D02*
X11723639Y-10322247D01*
X11671139Y-10269747D02*
X11776139Y-10269747D01*
X11776139Y-10269747D02*
G75*
G03X11776139Y-10269747I-52500J0D01*
G01*
X11723639Y-11009727D02*
X11723639Y-11114727D01*
X11671139Y-11062227D02*
X11776139Y-11062227D01*
X11776139Y-11062227D02*
G75*
G03X11776139Y-11062227I-52500J0D01*
G01*
X11723639Y-11263727D02*
X11723639Y-11368727D01*
X11671139Y-11316227D02*
X11776139Y-11316227D01*
X11776139Y-11316227D02*
G75*
G03X11776139Y-11316227I-52500J0D01*
G01*
X12955539Y-9346027D02*
X12955539Y-9451027D01*
X12903039Y-9398527D02*
X13008039Y-9398527D01*
X13008039Y-9398527D02*
G75*
G03X13008039Y-9398527I-52500J0D01*
G01*
X12955539Y-9600027D02*
X12955539Y-9705027D01*
X12903039Y-9652527D02*
X13008039Y-9652527D01*
X13008039Y-9652527D02*
G75*
G03X13008039Y-9652527I-52500J0D01*
G01*
X12955539Y-9854027D02*
X12955539Y-9959027D01*
X12903039Y-9906527D02*
X13008039Y-9906527D01*
X13008039Y-9906527D02*
G75*
G03X13008039Y-9906527I-52500J0D01*
G01*
X12955539Y-10108027D02*
X12955539Y-10213027D01*
X12903039Y-10160527D02*
X13008039Y-10160527D01*
X13008039Y-10160527D02*
G75*
G03X13008039Y-10160527I-52500J0D01*
G01*
X12955539Y-10362027D02*
X12955539Y-10467027D01*
X12903039Y-10414527D02*
X13008039Y-10414527D01*
X13008039Y-10414527D02*
G75*
G03X13008039Y-10414527I-52500J0D01*
G01*
X12955539Y-10616027D02*
X12955539Y-10721027D01*
X12903039Y-10668527D02*
X13008039Y-10668527D01*
X13008039Y-10668527D02*
G75*
G03X13008039Y-10668527I-52500J0D01*
G01*
X12955539Y-10870027D02*
X12955539Y-10975027D01*
X12903039Y-10922527D02*
X13008039Y-10922527D01*
X13008039Y-10922527D02*
G75*
G03X13008039Y-10922527I-52500J0D01*
G01*
X12955539Y-11124027D02*
X12955539Y-11229027D01*
X12903039Y-11176527D02*
X13008039Y-11176527D01*
X13008039Y-11176527D02*
G75*
G03X13008039Y-11176527I-52500J0D01*
G01*
X12955539Y-11378027D02*
X12955539Y-11483027D01*
X12903039Y-11430527D02*
X13008039Y-11430527D01*
X13008039Y-11430527D02*
G75*
G03X13008039Y-11430527I-52500J0D01*
G01*
X12955539Y-11632027D02*
X12955539Y-11737027D01*
X12903039Y-11684527D02*
X13008039Y-11684527D01*
X13008039Y-11684527D02*
G75*
G03X13008039Y-11684527I-52500J0D01*
G01*
X12955539Y-11886027D02*
X12955539Y-11991027D01*
X12903039Y-11938527D02*
X13008039Y-11938527D01*
X13008039Y-11938527D02*
G75*
G03X13008039Y-11938527I-52500J0D01*
G01*
X12955539Y-12140027D02*
X12955539Y-12245027D01*
X12903039Y-12192527D02*
X13008039Y-12192527D01*
X13008039Y-12192527D02*
G75*
G03X13008039Y-12192527I-52500J0D01*
G01*
X14336606Y-11828094D02*
X14336606Y-11615960D01*
X14124472Y-11615960D01*
X14124472Y-11828094D01*
X14336606Y-11828094D01*
X14380539Y-11722027D02*
G75*
G03X14380539Y-11722027I-150000J0D01*
G01*
X14616606Y-11548094D02*
X14616606Y-11335960D01*
X14404472Y-11335960D01*
X14404472Y-11548094D01*
X14616606Y-11548094D01*
X14660539Y-11442027D02*
G75*
G03X14660539Y-11442027I-150000J0D01*
G01*
X9383606Y-11828094D02*
X9383606Y-11615960D01*
X9171472Y-11615960D01*
X9171472Y-11828094D01*
X9383606Y-11828094D01*
X9427539Y-11722027D02*
G75*
G03X9427539Y-11722027I-150000J0D01*
G01*
X9663606Y-11548094D02*
X9663606Y-11335960D01*
X9451472Y-11335960D01*
X9451472Y-11548094D01*
X9663606Y-11548094D01*
X9707539Y-11442027D02*
G75*
G03X9707539Y-11442027I-150000J0D01*
G01*
X8128000Y-12355000D02*
X8291000Y-12192000D01*
X8128000Y-12029000D01*
X7965000Y-12192000D01*
X8128000Y-12355000D01*
X8291000Y-12192000D02*
G75*
G03X8291000Y-12192000I-163000J0D01*
G01*
X14860539Y-11827027D02*
X14860539Y-12177027D01*
X14685539Y-12002027D02*
X15035539Y-12002027D01*
X14984284Y-12125772D02*
X14984284Y-11878282D01*
X14736794Y-11878282D01*
X14736794Y-12125772D01*
X14984284Y-12125772D01*
X9907539Y-11827027D02*
X9907539Y-12177027D01*
X9732539Y-12002027D02*
X10082539Y-12002027D01*
X10031284Y-12125772D02*
X10031284Y-11878282D01*
X9783794Y-11878282D01*
X9783794Y-12125772D01*
X10031284Y-12125772D01*
X14987539Y-8732527D02*
X14987539Y-9049527D01*
X14829039Y-8891027D02*
X15146039Y-8891027D01*
X14987539Y-9049527D02*
X15146039Y-8891027D01*
X14987539Y-8732527D01*
X14829039Y-8891027D01*
X14987539Y-9049527D01*
X14987539Y-9875527D02*
X14987539Y-10192527D01*
X14829039Y-10034027D02*
X15146039Y-10034027D01*
X14987539Y-10192527D02*
X15146039Y-10034027D01*
X14987539Y-9875527D01*
X14829039Y-10034027D01*
X14987539Y-10192527D01*
X8256539Y-8732527D02*
X8256539Y-9049527D01*
X8098039Y-8891027D02*
X8415039Y-8891027D01*
X8256539Y-9049527D02*
X8415039Y-8891027D01*
X8256539Y-8732527D01*
X8098039Y-8891027D01*
X8256539Y-9049527D01*
X8256539Y-9875527D02*
X8256539Y-10192527D01*
X8098039Y-10034027D02*
X8415039Y-10034027D01*
X8256539Y-10192527D02*
X8415039Y-10034027D01*
X8256539Y-9875527D01*
X8098039Y-10034027D01*
X8256539Y-10192527D01*
X18796000Y-12355000D02*
X18959000Y-12192000D01*
X18796000Y-12029000D01*
X18633000Y-12192000D01*
X18796000Y-12355000D01*
X18911260Y-12307259D02*
X18911260Y-12076740D01*
X18680741Y-12076740D01*
X18680741Y-12307259D01*
X18911260Y-12307259D01*
X8128000Y-8291000D02*
X8291000Y-8128000D01*
X8128000Y-7965000D01*
X7965000Y-8128000D01*
X8128000Y-8291000D01*
X8243259Y-8243259D02*
X8243259Y-8012740D01*
X8012740Y-8012740D01*
X8012740Y-8243259D01*
X8243259Y-8243259D01*
X18796000Y-8291000D02*
X18959000Y-8128000D01*
X18796000Y-7965000D01*
X18633000Y-8128000D01*
X18796000Y-8291000D01*
X18911260Y-8243259D02*
X18911260Y-8012740D01*
X18680741Y-8012740D01*
X18680741Y-8243259D01*
X18911260Y-8243259D01*
D12*
X7902967Y-13171241D02*
X7902967Y-12871241D01*
X7974396Y-12871241D01*
X8017253Y-12885527D01*
X8045825Y-12914098D01*
X8060110Y-12942670D01*
X8074396Y-12999813D01*
X8074396Y-13042670D01*
X8060110Y-13099813D01*
X8045825Y-13128384D01*
X8017253Y-13156956D01*
X7974396Y-13171241D01*
X7902967Y-13171241D01*
X8202967Y-13171241D02*
X8202967Y-12971241D01*
X8202967Y-13028384D02*
X8217253Y-12999813D01*
X8231539Y-12985527D01*
X8260110Y-12971241D01*
X8288682Y-12971241D01*
X8388682Y-13171241D02*
X8388682Y-12971241D01*
X8388682Y-12871241D02*
X8374396Y-12885527D01*
X8388682Y-12899813D01*
X8402967Y-12885527D01*
X8388682Y-12871241D01*
X8388682Y-12899813D01*
X8574396Y-13171241D02*
X8545825Y-13156956D01*
X8531539Y-13128384D01*
X8531539Y-12871241D01*
X8731539Y-13171241D02*
X8702967Y-13156956D01*
X8688682Y-13128384D01*
X8688682Y-12871241D01*
X9074396Y-13171241D02*
X9074396Y-12871241D01*
X9174396Y-13085527D01*
X9274396Y-12871241D01*
X9274396Y-13171241D01*
X9545825Y-13171241D02*
X9545825Y-13014098D01*
X9531539Y-12985527D01*
X9502967Y-12971241D01*
X9445825Y-12971241D01*
X9417253Y-12985527D01*
X9545825Y-13156956D02*
X9517253Y-13171241D01*
X9445825Y-13171241D01*
X9417253Y-13156956D01*
X9402967Y-13128384D01*
X9402967Y-13099813D01*
X9417253Y-13071241D01*
X9445825Y-13056956D01*
X9517253Y-13056956D01*
X9545825Y-13042670D01*
X9688682Y-12971241D02*
X9688682Y-13271241D01*
X9688682Y-12985527D02*
X9717253Y-12971241D01*
X9774396Y-12971241D01*
X9802967Y-12985527D01*
X9817253Y-12999813D01*
X9831539Y-13028384D01*
X9831539Y-13114098D01*
X9817253Y-13142670D01*
X9802967Y-13156956D01*
X9774396Y-13171241D01*
X9717253Y-13171241D01*
X9688682Y-13156956D01*
X9960110Y-13142670D02*
X9974396Y-13156956D01*
X9960110Y-13171241D01*
X9945825Y-13156956D01*
X9960110Y-13142670D01*
X9960110Y-13171241D01*
X9960110Y-12985527D02*
X9974396Y-12999813D01*
X9960110Y-13014098D01*
X9945825Y-12999813D01*
X9960110Y-12985527D01*
X9960110Y-13014098D01*
X7586059Y-13650287D02*
X7616539Y-13680767D01*
X7616539Y-13650287D02*
X7586059Y-13680767D01*
X7960110Y-13501241D02*
X7988682Y-13501241D01*
X8017253Y-13515527D01*
X8031539Y-13529813D01*
X8045825Y-13558384D01*
X8060110Y-13615527D01*
X8060110Y-13686956D01*
X8045825Y-13744098D01*
X8031539Y-13772670D01*
X8017253Y-13786956D01*
X7988682Y-13801241D01*
X7960110Y-13801241D01*
X7931539Y-13786956D01*
X7917253Y-13772670D01*
X7902967Y-13744098D01*
X7888682Y-13686956D01*
X7888682Y-13615527D01*
X7902967Y-13558384D01*
X7917253Y-13529813D01*
X7931539Y-13515527D01*
X7960110Y-13501241D01*
X8188682Y-13772670D02*
X8202967Y-13786956D01*
X8188682Y-13801241D01*
X8174396Y-13786956D01*
X8188682Y-13772670D01*
X8188682Y-13801241D01*
X8302967Y-13501241D02*
X8488682Y-13501241D01*
X8388682Y-13615527D01*
X8431539Y-13615527D01*
X8460110Y-13629813D01*
X8474396Y-13644098D01*
X8488682Y-13672670D01*
X8488682Y-13744098D01*
X8474396Y-13772670D01*
X8460110Y-13786956D01*
X8431539Y-13801241D01*
X8345825Y-13801241D01*
X8317253Y-13786956D01*
X8302967Y-13772670D01*
X8674396Y-13501241D02*
X8702967Y-13501241D01*
X8731539Y-13515527D01*
X8745825Y-13529813D01*
X8760110Y-13558384D01*
X8774396Y-13615527D01*
X8774396Y-13686956D01*
X8760110Y-13744098D01*
X8745825Y-13772670D01*
X8731539Y-13786956D01*
X8702967Y-13801241D01*
X8674396Y-13801241D01*
X8645825Y-13786956D01*
X8631539Y-13772670D01*
X8617253Y-13744098D01*
X8602967Y-13686956D01*
X8602967Y-13615527D01*
X8617253Y-13558384D01*
X8631539Y-13529813D01*
X8645825Y-13515527D01*
X8674396Y-13501241D01*
X8902967Y-13801241D02*
X8902967Y-13601241D01*
X8902967Y-13629813D02*
X8917253Y-13615527D01*
X8945825Y-13601241D01*
X8988682Y-13601241D01*
X9017253Y-13615527D01*
X9031539Y-13644098D01*
X9031539Y-13801241D01*
X9031539Y-13644098D02*
X9045825Y-13615527D01*
X9074396Y-13601241D01*
X9117253Y-13601241D01*
X9145825Y-13615527D01*
X9160110Y-13644098D01*
X9160110Y-13801241D01*
X9302967Y-13801241D02*
X9302967Y-13601241D01*
X9302967Y-13629813D02*
X9317253Y-13615527D01*
X9345825Y-13601241D01*
X9388682Y-13601241D01*
X9417253Y-13615527D01*
X9431539Y-13644098D01*
X9431539Y-13801241D01*
X9431539Y-13644098D02*
X9445825Y-13615527D01*
X9474396Y-13601241D01*
X9517253Y-13601241D01*
X9545825Y-13615527D01*
X9560110Y-13644098D01*
X9560110Y-13801241D01*
X10145825Y-13486956D02*
X9888682Y-13872670D01*
X10531539Y-13501241D02*
X10560110Y-13501241D01*
X10588682Y-13515527D01*
X10602967Y-13529813D01*
X10617253Y-13558384D01*
X10631539Y-13615527D01*
X10631539Y-13686956D01*
X10617253Y-13744098D01*
X10602967Y-13772670D01*
X10588682Y-13786956D01*
X10560110Y-13801241D01*
X10531539Y-13801241D01*
X10502967Y-13786956D01*
X10488682Y-13772670D01*
X10474396Y-13744098D01*
X10460110Y-13686956D01*
X10460110Y-13615527D01*
X10474396Y-13558384D01*
X10488682Y-13529813D01*
X10502967Y-13515527D01*
X10531539Y-13501241D01*
X10760110Y-13772670D02*
X10774396Y-13786956D01*
X10760110Y-13801241D01*
X10745825Y-13786956D01*
X10760110Y-13772670D01*
X10760110Y-13801241D01*
X10960110Y-13501241D02*
X10988682Y-13501241D01*
X11017253Y-13515527D01*
X11031539Y-13529813D01*
X11045825Y-13558384D01*
X11060110Y-13615527D01*
X11060110Y-13686956D01*
X11045825Y-13744098D01*
X11031539Y-13772670D01*
X11017253Y-13786956D01*
X10988682Y-13801241D01*
X10960110Y-13801241D01*
X10931539Y-13786956D01*
X10917253Y-13772670D01*
X10902967Y-13744098D01*
X10888682Y-13686956D01*
X10888682Y-13615527D01*
X10902967Y-13558384D01*
X10917253Y-13529813D01*
X10931539Y-13515527D01*
X10960110Y-13501241D01*
X11345825Y-13801241D02*
X11174396Y-13801241D01*
X11260110Y-13801241D02*
X11260110Y-13501241D01*
X11231539Y-13544098D01*
X11202967Y-13572670D01*
X11174396Y-13586956D01*
X11460110Y-13529813D02*
X11474396Y-13515527D01*
X11502967Y-13501241D01*
X11574396Y-13501241D01*
X11602967Y-13515527D01*
X11617253Y-13529813D01*
X11631539Y-13558384D01*
X11631539Y-13586956D01*
X11617253Y-13629813D01*
X11445825Y-13801241D01*
X11631539Y-13801241D01*
X11745825Y-13501241D02*
X11745825Y-13558384D01*
X11860110Y-13501241D02*
X11860110Y-13558384D01*
X12302967Y-13915527D02*
X12288682Y-13901241D01*
X12260110Y-13858384D01*
X12245825Y-13829813D01*
X12231539Y-13786956D01*
X12217253Y-13715527D01*
X12217253Y-13658384D01*
X12231539Y-13586956D01*
X12245825Y-13544098D01*
X12260110Y-13515527D01*
X12288682Y-13472670D01*
X12302967Y-13458384D01*
X12460110Y-13629813D02*
X12431539Y-13615527D01*
X12417253Y-13601241D01*
X12402967Y-13572670D01*
X12402967Y-13558384D01*
X12417253Y-13529813D01*
X12431539Y-13515527D01*
X12460110Y-13501241D01*
X12517253Y-13501241D01*
X12545825Y-13515527D01*
X12560110Y-13529813D01*
X12574396Y-13558384D01*
X12574396Y-13572670D01*
X12560110Y-13601241D01*
X12545825Y-13615527D01*
X12517253Y-13629813D01*
X12460110Y-13629813D01*
X12431539Y-13644098D01*
X12417253Y-13658384D01*
X12402967Y-13686956D01*
X12402967Y-13744098D01*
X12417253Y-13772670D01*
X12431539Y-13786956D01*
X12460110Y-13801241D01*
X12517253Y-13801241D01*
X12545825Y-13786956D01*
X12560110Y-13772670D01*
X12574396Y-13744098D01*
X12574396Y-13686956D01*
X12560110Y-13658384D01*
X12545825Y-13644098D01*
X12517253Y-13629813D01*
X12931539Y-13801241D02*
X12931539Y-13501241D01*
X13060110Y-13801241D02*
X13060110Y-13644098D01*
X13045825Y-13615527D01*
X13017253Y-13601241D01*
X12974396Y-13601241D01*
X12945825Y-13615527D01*
X12931539Y-13629813D01*
X13245825Y-13801241D02*
X13217253Y-13786956D01*
X13202967Y-13772670D01*
X13188682Y-13744098D01*
X13188682Y-13658384D01*
X13202967Y-13629813D01*
X13217253Y-13615527D01*
X13245825Y-13601241D01*
X13288682Y-13601241D01*
X13317253Y-13615527D01*
X13331539Y-13629813D01*
X13345825Y-13658384D01*
X13345825Y-13744098D01*
X13331539Y-13772670D01*
X13317253Y-13786956D01*
X13288682Y-13801241D01*
X13245825Y-13801241D01*
X13517253Y-13801241D02*
X13488682Y-13786956D01*
X13474396Y-13758384D01*
X13474396Y-13501241D01*
X13745825Y-13786956D02*
X13717253Y-13801241D01*
X13660110Y-13801241D01*
X13631539Y-13786956D01*
X13617253Y-13758384D01*
X13617253Y-13644098D01*
X13631539Y-13615527D01*
X13660110Y-13601241D01*
X13717253Y-13601241D01*
X13745825Y-13615527D01*
X13760110Y-13644098D01*
X13760110Y-13672670D01*
X13617253Y-13701241D01*
X13874396Y-13786956D02*
X13902967Y-13801241D01*
X13960110Y-13801241D01*
X13988682Y-13786956D01*
X14002967Y-13758384D01*
X14002967Y-13744098D01*
X13988682Y-13715527D01*
X13960110Y-13701241D01*
X13917253Y-13701241D01*
X13888682Y-13686956D01*
X13874396Y-13658384D01*
X13874396Y-13644098D01*
X13888682Y-13615527D01*
X13917253Y-13601241D01*
X13960110Y-13601241D01*
X13988682Y-13615527D01*
X14102967Y-13915527D02*
X14117253Y-13901241D01*
X14145825Y-13858384D01*
X14160110Y-13829813D01*
X14174396Y-13786956D01*
X14188682Y-13715527D01*
X14188682Y-13658384D01*
X14174396Y-13586956D01*
X14160110Y-13544098D01*
X14145825Y-13515527D01*
X14117253Y-13472670D01*
X14102967Y-13458384D01*
X7616539Y-14061527D02*
G75*
G03X7616539Y-14061527I-16510J0D01*
G01*
X7960110Y-13897241D02*
X7988682Y-13897241D01*
X8017253Y-13911527D01*
X8031539Y-13925813D01*
X8045825Y-13954384D01*
X8060110Y-14011527D01*
X8060110Y-14082956D01*
X8045825Y-14140098D01*
X8031539Y-14168670D01*
X8017253Y-14182956D01*
X7988682Y-14197241D01*
X7960110Y-14197241D01*
X7931539Y-14182956D01*
X7917253Y-14168670D01*
X7902967Y-14140098D01*
X7888682Y-14082956D01*
X7888682Y-14011527D01*
X7902967Y-13954384D01*
X7917253Y-13925813D01*
X7931539Y-13911527D01*
X7960110Y-13897241D01*
X8188682Y-14168670D02*
X8202967Y-14182956D01*
X8188682Y-14197241D01*
X8174396Y-14182956D01*
X8188682Y-14168670D01*
X8188682Y-14197241D01*
X8302967Y-13897241D02*
X8488682Y-13897241D01*
X8388682Y-14011527D01*
X8431539Y-14011527D01*
X8460110Y-14025813D01*
X8474396Y-14040098D01*
X8488682Y-14068670D01*
X8488682Y-14140098D01*
X8474396Y-14168670D01*
X8460110Y-14182956D01*
X8431539Y-14197241D01*
X8345825Y-14197241D01*
X8317253Y-14182956D01*
X8302967Y-14168670D01*
X8588682Y-13897241D02*
X8774396Y-13897241D01*
X8674396Y-14011527D01*
X8717253Y-14011527D01*
X8745825Y-14025813D01*
X8760110Y-14040098D01*
X8774396Y-14068670D01*
X8774396Y-14140098D01*
X8760110Y-14168670D01*
X8745825Y-14182956D01*
X8717253Y-14197241D01*
X8631539Y-14197241D01*
X8602967Y-14182956D01*
X8588682Y-14168670D01*
X8902967Y-14197241D02*
X8902967Y-13997241D01*
X8902967Y-14025813D02*
X8917253Y-14011527D01*
X8945825Y-13997241D01*
X8988682Y-13997241D01*
X9017253Y-14011527D01*
X9031539Y-14040098D01*
X9031539Y-14197241D01*
X9031539Y-14040098D02*
X9045825Y-14011527D01*
X9074396Y-13997241D01*
X9117253Y-13997241D01*
X9145825Y-14011527D01*
X9160110Y-14040098D01*
X9160110Y-14197241D01*
X9302967Y-14197241D02*
X9302967Y-13997241D01*
X9302967Y-14025813D02*
X9317253Y-14011527D01*
X9345825Y-13997241D01*
X9388682Y-13997241D01*
X9417253Y-14011527D01*
X9431539Y-14040098D01*
X9431539Y-14197241D01*
X9431539Y-14040098D02*
X9445825Y-14011527D01*
X9474396Y-13997241D01*
X9517253Y-13997241D01*
X9545825Y-14011527D01*
X9560110Y-14040098D01*
X9560110Y-14197241D01*
X10145825Y-13882956D02*
X9888682Y-14268670D01*
X10531539Y-13897241D02*
X10560110Y-13897241D01*
X10588682Y-13911527D01*
X10602967Y-13925813D01*
X10617253Y-13954384D01*
X10631539Y-14011527D01*
X10631539Y-14082956D01*
X10617253Y-14140098D01*
X10602967Y-14168670D01*
X10588682Y-14182956D01*
X10560110Y-14197241D01*
X10531539Y-14197241D01*
X10502967Y-14182956D01*
X10488682Y-14168670D01*
X10474396Y-14140098D01*
X10460110Y-14082956D01*
X10460110Y-14011527D01*
X10474396Y-13954384D01*
X10488682Y-13925813D01*
X10502967Y-13911527D01*
X10531539Y-13897241D01*
X10760110Y-14168670D02*
X10774396Y-14182956D01*
X10760110Y-14197241D01*
X10745825Y-14182956D01*
X10760110Y-14168670D01*
X10760110Y-14197241D01*
X10960110Y-13897241D02*
X10988682Y-13897241D01*
X11017253Y-13911527D01*
X11031539Y-13925813D01*
X11045825Y-13954384D01*
X11060110Y-14011527D01*
X11060110Y-14082956D01*
X11045825Y-14140098D01*
X11031539Y-14168670D01*
X11017253Y-14182956D01*
X10988682Y-14197241D01*
X10960110Y-14197241D01*
X10931539Y-14182956D01*
X10917253Y-14168670D01*
X10902967Y-14140098D01*
X10888682Y-14082956D01*
X10888682Y-14011527D01*
X10902967Y-13954384D01*
X10917253Y-13925813D01*
X10931539Y-13911527D01*
X10960110Y-13897241D01*
X11345825Y-14197241D02*
X11174396Y-14197241D01*
X11260110Y-14197241D02*
X11260110Y-13897241D01*
X11231539Y-13940098D01*
X11202967Y-13968670D01*
X11174396Y-13982956D01*
X11445825Y-13897241D02*
X11631539Y-13897241D01*
X11531539Y-14011527D01*
X11574396Y-14011527D01*
X11602967Y-14025813D01*
X11617253Y-14040098D01*
X11631539Y-14068670D01*
X11631539Y-14140098D01*
X11617253Y-14168670D01*
X11602967Y-14182956D01*
X11574396Y-14197241D01*
X11488682Y-14197241D01*
X11460110Y-14182956D01*
X11445825Y-14168670D01*
X11745825Y-13897241D02*
X11745825Y-13954384D01*
X11860110Y-13897241D02*
X11860110Y-13954384D01*
X12302967Y-14311527D02*
X12288682Y-14297241D01*
X12260110Y-14254384D01*
X12245825Y-14225813D01*
X12231539Y-14182956D01*
X12217253Y-14111527D01*
X12217253Y-14054384D01*
X12231539Y-13982956D01*
X12245825Y-13940098D01*
X12260110Y-13911527D01*
X12288682Y-13868670D01*
X12302967Y-13854384D01*
X12574396Y-14197241D02*
X12402967Y-14197241D01*
X12488682Y-14197241D02*
X12488682Y-13897241D01*
X12460110Y-13940098D01*
X12431539Y-13968670D01*
X12402967Y-13982956D01*
X12931539Y-14197241D02*
X12931539Y-13897241D01*
X13060110Y-14197241D02*
X13060110Y-14040098D01*
X13045825Y-14011527D01*
X13017253Y-13997241D01*
X12974396Y-13997241D01*
X12945825Y-14011527D01*
X12931539Y-14025813D01*
X13245825Y-14197241D02*
X13217253Y-14182956D01*
X13202967Y-14168670D01*
X13188682Y-14140098D01*
X13188682Y-14054384D01*
X13202967Y-14025813D01*
X13217253Y-14011527D01*
X13245825Y-13997241D01*
X13288682Y-13997241D01*
X13317253Y-14011527D01*
X13331539Y-14025813D01*
X13345825Y-14054384D01*
X13345825Y-14140098D01*
X13331539Y-14168670D01*
X13317253Y-14182956D01*
X13288682Y-14197241D01*
X13245825Y-14197241D01*
X13517253Y-14197241D02*
X13488682Y-14182956D01*
X13474396Y-14154384D01*
X13474396Y-13897241D01*
X13745825Y-14182956D02*
X13717253Y-14197241D01*
X13660110Y-14197241D01*
X13631539Y-14182956D01*
X13617253Y-14154384D01*
X13617253Y-14040098D01*
X13631539Y-14011527D01*
X13660110Y-13997241D01*
X13717253Y-13997241D01*
X13745825Y-14011527D01*
X13760110Y-14040098D01*
X13760110Y-14068670D01*
X13617253Y-14097241D01*
X13860110Y-14311527D02*
X13874396Y-14297241D01*
X13902967Y-14254384D01*
X13917253Y-14225813D01*
X13931539Y-14182956D01*
X13945825Y-14111527D01*
X13945825Y-14054384D01*
X13931539Y-13982956D01*
X13917253Y-13940098D01*
X13902967Y-13911527D01*
X13874396Y-13868670D01*
X13860110Y-13854384D01*
X7581487Y-14422475D02*
X7581487Y-14492579D01*
X7546435Y-14457527D02*
X7616539Y-14457527D01*
X7960110Y-14293241D02*
X7988682Y-14293241D01*
X8017253Y-14307527D01*
X8031539Y-14321813D01*
X8045825Y-14350384D01*
X8060110Y-14407527D01*
X8060110Y-14478956D01*
X8045825Y-14536098D01*
X8031539Y-14564670D01*
X8017253Y-14578956D01*
X7988682Y-14593241D01*
X7960110Y-14593241D01*
X7931539Y-14578956D01*
X7917253Y-14564670D01*
X7902967Y-14536098D01*
X7888682Y-14478956D01*
X7888682Y-14407527D01*
X7902967Y-14350384D01*
X7917253Y-14321813D01*
X7931539Y-14307527D01*
X7960110Y-14293241D01*
X8188682Y-14564670D02*
X8202967Y-14578956D01*
X8188682Y-14593241D01*
X8174396Y-14578956D01*
X8188682Y-14564670D01*
X8188682Y-14593241D01*
X8302967Y-14293241D02*
X8502967Y-14293241D01*
X8374396Y-14593241D01*
X8674396Y-14293241D02*
X8702967Y-14293241D01*
X8731539Y-14307527D01*
X8745825Y-14321813D01*
X8760110Y-14350384D01*
X8774396Y-14407527D01*
X8774396Y-14478956D01*
X8760110Y-14536098D01*
X8745825Y-14564670D01*
X8731539Y-14578956D01*
X8702967Y-14593241D01*
X8674396Y-14593241D01*
X8645825Y-14578956D01*
X8631539Y-14564670D01*
X8617253Y-14536098D01*
X8602967Y-14478956D01*
X8602967Y-14407527D01*
X8617253Y-14350384D01*
X8631539Y-14321813D01*
X8645825Y-14307527D01*
X8674396Y-14293241D01*
X8902967Y-14593241D02*
X8902967Y-14393241D01*
X8902967Y-14421813D02*
X8917253Y-14407527D01*
X8945825Y-14393241D01*
X8988682Y-14393241D01*
X9017253Y-14407527D01*
X9031539Y-14436098D01*
X9031539Y-14593241D01*
X9031539Y-14436098D02*
X9045825Y-14407527D01*
X9074396Y-14393241D01*
X9117253Y-14393241D01*
X9145825Y-14407527D01*
X9160110Y-14436098D01*
X9160110Y-14593241D01*
X9302967Y-14593241D02*
X9302967Y-14393241D01*
X9302967Y-14421813D02*
X9317253Y-14407527D01*
X9345825Y-14393241D01*
X9388682Y-14393241D01*
X9417253Y-14407527D01*
X9431539Y-14436098D01*
X9431539Y-14593241D01*
X9431539Y-14436098D02*
X9445825Y-14407527D01*
X9474396Y-14393241D01*
X9517253Y-14393241D01*
X9545825Y-14407527D01*
X9560110Y-14436098D01*
X9560110Y-14593241D01*
X10145825Y-14278956D02*
X9888682Y-14664670D01*
X10531539Y-14293241D02*
X10560110Y-14293241D01*
X10588682Y-14307527D01*
X10602967Y-14321813D01*
X10617253Y-14350384D01*
X10631539Y-14407527D01*
X10631539Y-14478956D01*
X10617253Y-14536098D01*
X10602967Y-14564670D01*
X10588682Y-14578956D01*
X10560110Y-14593241D01*
X10531539Y-14593241D01*
X10502967Y-14578956D01*
X10488682Y-14564670D01*
X10474396Y-14536098D01*
X10460110Y-14478956D01*
X10460110Y-14407527D01*
X10474396Y-14350384D01*
X10488682Y-14321813D01*
X10502967Y-14307527D01*
X10531539Y-14293241D01*
X10760110Y-14564670D02*
X10774396Y-14578956D01*
X10760110Y-14593241D01*
X10745825Y-14578956D01*
X10760110Y-14564670D01*
X10760110Y-14593241D01*
X10960110Y-14293241D02*
X10988682Y-14293241D01*
X11017253Y-14307527D01*
X11031539Y-14321813D01*
X11045825Y-14350384D01*
X11060110Y-14407527D01*
X11060110Y-14478956D01*
X11045825Y-14536098D01*
X11031539Y-14564670D01*
X11017253Y-14578956D01*
X10988682Y-14593241D01*
X10960110Y-14593241D01*
X10931539Y-14578956D01*
X10917253Y-14564670D01*
X10902967Y-14536098D01*
X10888682Y-14478956D01*
X10888682Y-14407527D01*
X10902967Y-14350384D01*
X10917253Y-14321813D01*
X10931539Y-14307527D01*
X10960110Y-14293241D01*
X11174396Y-14321813D02*
X11188682Y-14307527D01*
X11217253Y-14293241D01*
X11288682Y-14293241D01*
X11317253Y-14307527D01*
X11331539Y-14321813D01*
X11345825Y-14350384D01*
X11345825Y-14378956D01*
X11331539Y-14421813D01*
X11160110Y-14593241D01*
X11345825Y-14593241D01*
X11517253Y-14421813D02*
X11488682Y-14407527D01*
X11474396Y-14393241D01*
X11460110Y-14364670D01*
X11460110Y-14350384D01*
X11474396Y-14321813D01*
X11488682Y-14307527D01*
X11517253Y-14293241D01*
X11574396Y-14293241D01*
X11602967Y-14307527D01*
X11617253Y-14321813D01*
X11631539Y-14350384D01*
X11631539Y-14364670D01*
X11617253Y-14393241D01*
X11602967Y-14407527D01*
X11574396Y-14421813D01*
X11517253Y-14421813D01*
X11488682Y-14436098D01*
X11474396Y-14450384D01*
X11460110Y-14478956D01*
X11460110Y-14536098D01*
X11474396Y-14564670D01*
X11488682Y-14578956D01*
X11517253Y-14593241D01*
X11574396Y-14593241D01*
X11602967Y-14578956D01*
X11617253Y-14564670D01*
X11631539Y-14536098D01*
X11631539Y-14478956D01*
X11617253Y-14450384D01*
X11602967Y-14436098D01*
X11574396Y-14421813D01*
X11745825Y-14293241D02*
X11745825Y-14350384D01*
X11860110Y-14293241D02*
X11860110Y-14350384D01*
X12302967Y-14707527D02*
X12288682Y-14693241D01*
X12260110Y-14650384D01*
X12245825Y-14621813D01*
X12231539Y-14578956D01*
X12217253Y-14507527D01*
X12217253Y-14450384D01*
X12231539Y-14378956D01*
X12245825Y-14336098D01*
X12260110Y-14307527D01*
X12288682Y-14264670D01*
X12302967Y-14250384D01*
X12574396Y-14593241D02*
X12402967Y-14593241D01*
X12488682Y-14593241D02*
X12488682Y-14293241D01*
X12460110Y-14336098D01*
X12431539Y-14364670D01*
X12402967Y-14378956D01*
X12745825Y-14421813D02*
X12717253Y-14407527D01*
X12702967Y-14393241D01*
X12688682Y-14364670D01*
X12688682Y-14350384D01*
X12702967Y-14321813D01*
X12717253Y-14307527D01*
X12745825Y-14293241D01*
X12802967Y-14293241D01*
X12831539Y-14307527D01*
X12845825Y-14321813D01*
X12860110Y-14350384D01*
X12860110Y-14364670D01*
X12845825Y-14393241D01*
X12831539Y-14407527D01*
X12802967Y-14421813D01*
X12745825Y-14421813D01*
X12717253Y-14436098D01*
X12702967Y-14450384D01*
X12688682Y-14478956D01*
X12688682Y-14536098D01*
X12702967Y-14564670D01*
X12717253Y-14578956D01*
X12745825Y-14593241D01*
X12802967Y-14593241D01*
X12831539Y-14578956D01*
X12845825Y-14564670D01*
X12860110Y-14536098D01*
X12860110Y-14478956D01*
X12845825Y-14450384D01*
X12831539Y-14436098D01*
X12802967Y-14421813D01*
X13217253Y-14593241D02*
X13217253Y-14293241D01*
X13345825Y-14593241D02*
X13345825Y-14436098D01*
X13331539Y-14407527D01*
X13302967Y-14393241D01*
X13260110Y-14393241D01*
X13231539Y-14407527D01*
X13217253Y-14421813D01*
X13531539Y-14593241D02*
X13502967Y-14578956D01*
X13488682Y-14564670D01*
X13474396Y-14536098D01*
X13474396Y-14450384D01*
X13488682Y-14421813D01*
X13502967Y-14407527D01*
X13531539Y-14393241D01*
X13574396Y-14393241D01*
X13602967Y-14407527D01*
X13617253Y-14421813D01*
X13631539Y-14450384D01*
X13631539Y-14536098D01*
X13617253Y-14564670D01*
X13602967Y-14578956D01*
X13574396Y-14593241D01*
X13531539Y-14593241D01*
X13802967Y-14593241D02*
X13774396Y-14578956D01*
X13760110Y-14550384D01*
X13760110Y-14293241D01*
X14031539Y-14578956D02*
X14002967Y-14593241D01*
X13945825Y-14593241D01*
X13917253Y-14578956D01*
X13902967Y-14550384D01*
X13902967Y-14436098D01*
X13917253Y-14407527D01*
X13945825Y-14393241D01*
X14002967Y-14393241D01*
X14031539Y-14407527D01*
X14045825Y-14436098D01*
X14045825Y-14464670D01*
X13902967Y-14493241D01*
X14160110Y-14578956D02*
X14188682Y-14593241D01*
X14245825Y-14593241D01*
X14274396Y-14578956D01*
X14288682Y-14550384D01*
X14288682Y-14536098D01*
X14274396Y-14507527D01*
X14245825Y-14493241D01*
X14202967Y-14493241D01*
X14174396Y-14478956D01*
X14160110Y-14450384D01*
X14160110Y-14436098D01*
X14174396Y-14407527D01*
X14202967Y-14393241D01*
X14245825Y-14393241D01*
X14274396Y-14407527D01*
X14388682Y-14707527D02*
X14402967Y-14693241D01*
X14431539Y-14650384D01*
X14445825Y-14621813D01*
X14460110Y-14578956D01*
X14474396Y-14507527D01*
X14474396Y-14450384D01*
X14460110Y-14378956D01*
X14445825Y-14336098D01*
X14431539Y-14307527D01*
X14402967Y-14264670D01*
X14388682Y-14250384D01*
X7605995Y-14878983D02*
X7605995Y-14828071D01*
X7555083Y-14828071D01*
X7555083Y-14878983D01*
X7605995Y-14878983D01*
X7960110Y-14689241D02*
X7988682Y-14689241D01*
X8017253Y-14703527D01*
X8031539Y-14717813D01*
X8045825Y-14746384D01*
X8060110Y-14803527D01*
X8060110Y-14874956D01*
X8045825Y-14932098D01*
X8031539Y-14960670D01*
X8017253Y-14974956D01*
X7988682Y-14989241D01*
X7960110Y-14989241D01*
X7931539Y-14974956D01*
X7917253Y-14960670D01*
X7902967Y-14932098D01*
X7888682Y-14874956D01*
X7888682Y-14803527D01*
X7902967Y-14746384D01*
X7917253Y-14717813D01*
X7931539Y-14703527D01*
X7960110Y-14689241D01*
X8188682Y-14960670D02*
X8202967Y-14974956D01*
X8188682Y-14989241D01*
X8174396Y-14974956D01*
X8188682Y-14960670D01*
X8188682Y-14989241D01*
X8302967Y-14689241D02*
X8502967Y-14689241D01*
X8374396Y-14989241D01*
X8602967Y-14717813D02*
X8617253Y-14703527D01*
X8645825Y-14689241D01*
X8717253Y-14689241D01*
X8745825Y-14703527D01*
X8760110Y-14717813D01*
X8774396Y-14746384D01*
X8774396Y-14774956D01*
X8760110Y-14817813D01*
X8588682Y-14989241D01*
X8774396Y-14989241D01*
X8902967Y-14989241D02*
X8902967Y-14789241D01*
X8902967Y-14817813D02*
X8917253Y-14803527D01*
X8945825Y-14789241D01*
X8988682Y-14789241D01*
X9017253Y-14803527D01*
X9031539Y-14832098D01*
X9031539Y-14989241D01*
X9031539Y-14832098D02*
X9045825Y-14803527D01*
X9074396Y-14789241D01*
X9117253Y-14789241D01*
X9145825Y-14803527D01*
X9160110Y-14832098D01*
X9160110Y-14989241D01*
X9302967Y-14989241D02*
X9302967Y-14789241D01*
X9302967Y-14817813D02*
X9317253Y-14803527D01*
X9345825Y-14789241D01*
X9388682Y-14789241D01*
X9417253Y-14803527D01*
X9431539Y-14832098D01*
X9431539Y-14989241D01*
X9431539Y-14832098D02*
X9445825Y-14803527D01*
X9474396Y-14789241D01*
X9517253Y-14789241D01*
X9545825Y-14803527D01*
X9560110Y-14832098D01*
X9560110Y-14989241D01*
X10145825Y-14674956D02*
X9888682Y-15060670D01*
X10531539Y-14689241D02*
X10560110Y-14689241D01*
X10588682Y-14703527D01*
X10602967Y-14717813D01*
X10617253Y-14746384D01*
X10631539Y-14803527D01*
X10631539Y-14874956D01*
X10617253Y-14932098D01*
X10602967Y-14960670D01*
X10588682Y-14974956D01*
X10560110Y-14989241D01*
X10531539Y-14989241D01*
X10502967Y-14974956D01*
X10488682Y-14960670D01*
X10474396Y-14932098D01*
X10460110Y-14874956D01*
X10460110Y-14803527D01*
X10474396Y-14746384D01*
X10488682Y-14717813D01*
X10502967Y-14703527D01*
X10531539Y-14689241D01*
X10760110Y-14960670D02*
X10774396Y-14974956D01*
X10760110Y-14989241D01*
X10745825Y-14974956D01*
X10760110Y-14960670D01*
X10760110Y-14989241D01*
X10960110Y-14689241D02*
X10988682Y-14689241D01*
X11017253Y-14703527D01*
X11031539Y-14717813D01*
X11045825Y-14746384D01*
X11060110Y-14803527D01*
X11060110Y-14874956D01*
X11045825Y-14932098D01*
X11031539Y-14960670D01*
X11017253Y-14974956D01*
X10988682Y-14989241D01*
X10960110Y-14989241D01*
X10931539Y-14974956D01*
X10917253Y-14960670D01*
X10902967Y-14932098D01*
X10888682Y-14874956D01*
X10888682Y-14803527D01*
X10902967Y-14746384D01*
X10917253Y-14717813D01*
X10931539Y-14703527D01*
X10960110Y-14689241D01*
X11174396Y-14717813D02*
X11188682Y-14703527D01*
X11217253Y-14689241D01*
X11288682Y-14689241D01*
X11317253Y-14703527D01*
X11331539Y-14717813D01*
X11345825Y-14746384D01*
X11345825Y-14774956D01*
X11331539Y-14817813D01*
X11160110Y-14989241D01*
X11345825Y-14989241D01*
X11517253Y-14817813D02*
X11488682Y-14803527D01*
X11474396Y-14789241D01*
X11460110Y-14760670D01*
X11460110Y-14746384D01*
X11474396Y-14717813D01*
X11488682Y-14703527D01*
X11517253Y-14689241D01*
X11574396Y-14689241D01*
X11602967Y-14703527D01*
X11617253Y-14717813D01*
X11631539Y-14746384D01*
X11631539Y-14760670D01*
X11617253Y-14789241D01*
X11602967Y-14803527D01*
X11574396Y-14817813D01*
X11517253Y-14817813D01*
X11488682Y-14832098D01*
X11474396Y-14846384D01*
X11460110Y-14874956D01*
X11460110Y-14932098D01*
X11474396Y-14960670D01*
X11488682Y-14974956D01*
X11517253Y-14989241D01*
X11574396Y-14989241D01*
X11602967Y-14974956D01*
X11617253Y-14960670D01*
X11631539Y-14932098D01*
X11631539Y-14874956D01*
X11617253Y-14846384D01*
X11602967Y-14832098D01*
X11574396Y-14817813D01*
X11745825Y-14689241D02*
X11745825Y-14746384D01*
X11860110Y-14689241D02*
X11860110Y-14746384D01*
X12302967Y-15103527D02*
X12288682Y-15089241D01*
X12260110Y-15046384D01*
X12245825Y-15017813D01*
X12231539Y-14974956D01*
X12217253Y-14903527D01*
X12217253Y-14846384D01*
X12231539Y-14774956D01*
X12245825Y-14732098D01*
X12260110Y-14703527D01*
X12288682Y-14660670D01*
X12302967Y-14646384D01*
X12545825Y-14689241D02*
X12488682Y-14689241D01*
X12460110Y-14703527D01*
X12445825Y-14717813D01*
X12417253Y-14760670D01*
X12402967Y-14817813D01*
X12402967Y-14932098D01*
X12417253Y-14960670D01*
X12431539Y-14974956D01*
X12460110Y-14989241D01*
X12517253Y-14989241D01*
X12545825Y-14974956D01*
X12560110Y-14960670D01*
X12574396Y-14932098D01*
X12574396Y-14860670D01*
X12560110Y-14832098D01*
X12545825Y-14817813D01*
X12517253Y-14803527D01*
X12460110Y-14803527D01*
X12431539Y-14817813D01*
X12417253Y-14832098D01*
X12402967Y-14860670D01*
X12931539Y-14989241D02*
X12931539Y-14689241D01*
X13060110Y-14989241D02*
X13060110Y-14832098D01*
X13045825Y-14803527D01*
X13017253Y-14789241D01*
X12974396Y-14789241D01*
X12945825Y-14803527D01*
X12931539Y-14817813D01*
X13245825Y-14989241D02*
X13217253Y-14974956D01*
X13202967Y-14960670D01*
X13188682Y-14932098D01*
X13188682Y-14846384D01*
X13202967Y-14817813D01*
X13217253Y-14803527D01*
X13245825Y-14789241D01*
X13288682Y-14789241D01*
X13317253Y-14803527D01*
X13331539Y-14817813D01*
X13345825Y-14846384D01*
X13345825Y-14932098D01*
X13331539Y-14960670D01*
X13317253Y-14974956D01*
X13288682Y-14989241D01*
X13245825Y-14989241D01*
X13517253Y-14989241D02*
X13488682Y-14974956D01*
X13474396Y-14946384D01*
X13474396Y-14689241D01*
X13745825Y-14974956D02*
X13717253Y-14989241D01*
X13660110Y-14989241D01*
X13631539Y-14974956D01*
X13617253Y-14946384D01*
X13617253Y-14832098D01*
X13631539Y-14803527D01*
X13660110Y-14789241D01*
X13717253Y-14789241D01*
X13745825Y-14803527D01*
X13760110Y-14832098D01*
X13760110Y-14860670D01*
X13617253Y-14889241D01*
X13874396Y-14974956D02*
X13902967Y-14989241D01*
X13960110Y-14989241D01*
X13988682Y-14974956D01*
X14002967Y-14946384D01*
X14002967Y-14932098D01*
X13988682Y-14903527D01*
X13960110Y-14889241D01*
X13917253Y-14889241D01*
X13888682Y-14874956D01*
X13874396Y-14846384D01*
X13874396Y-14832098D01*
X13888682Y-14803527D01*
X13917253Y-14789241D01*
X13960110Y-14789241D01*
X13988682Y-14803527D01*
X14102967Y-15103527D02*
X14117253Y-15089241D01*
X14145825Y-15046384D01*
X14160110Y-15017813D01*
X14174396Y-14974956D01*
X14188682Y-14903527D01*
X14188682Y-14846384D01*
X14174396Y-14774956D01*
X14160110Y-14732098D01*
X14145825Y-14703527D01*
X14117253Y-14660670D01*
X14102967Y-14646384D01*
X7578539Y-15287527D02*
X7616539Y-15249527D01*
X7578539Y-15211527D01*
X7540539Y-15249527D01*
X7578539Y-15287527D01*
X7960110Y-15085241D02*
X7988682Y-15085241D01*
X8017253Y-15099527D01*
X8031539Y-15113813D01*
X8045825Y-15142384D01*
X8060110Y-15199527D01*
X8060110Y-15270956D01*
X8045825Y-15328098D01*
X8031539Y-15356670D01*
X8017253Y-15370956D01*
X7988682Y-15385241D01*
X7960110Y-15385241D01*
X7931539Y-15370956D01*
X7917253Y-15356670D01*
X7902967Y-15328098D01*
X7888682Y-15270956D01*
X7888682Y-15199527D01*
X7902967Y-15142384D01*
X7917253Y-15113813D01*
X7931539Y-15099527D01*
X7960110Y-15085241D01*
X8188682Y-15356670D02*
X8202967Y-15370956D01*
X8188682Y-15385241D01*
X8174396Y-15370956D01*
X8188682Y-15356670D01*
X8188682Y-15385241D01*
X8302967Y-15085241D02*
X8502967Y-15085241D01*
X8374396Y-15385241D01*
X8745825Y-15085241D02*
X8688682Y-15085241D01*
X8660110Y-15099527D01*
X8645825Y-15113813D01*
X8617253Y-15156670D01*
X8602967Y-15213813D01*
X8602967Y-15328098D01*
X8617253Y-15356670D01*
X8631539Y-15370956D01*
X8660110Y-15385241D01*
X8717253Y-15385241D01*
X8745825Y-15370956D01*
X8760110Y-15356670D01*
X8774396Y-15328098D01*
X8774396Y-15256670D01*
X8760110Y-15228098D01*
X8745825Y-15213813D01*
X8717253Y-15199527D01*
X8660110Y-15199527D01*
X8631539Y-15213813D01*
X8617253Y-15228098D01*
X8602967Y-15256670D01*
X8902967Y-15385241D02*
X8902967Y-15185241D01*
X8902967Y-15213813D02*
X8917253Y-15199527D01*
X8945825Y-15185241D01*
X8988682Y-15185241D01*
X9017253Y-15199527D01*
X9031539Y-15228098D01*
X9031539Y-15385241D01*
X9031539Y-15228098D02*
X9045825Y-15199527D01*
X9074396Y-15185241D01*
X9117253Y-15185241D01*
X9145825Y-15199527D01*
X9160110Y-15228098D01*
X9160110Y-15385241D01*
X9302967Y-15385241D02*
X9302967Y-15185241D01*
X9302967Y-15213813D02*
X9317253Y-15199527D01*
X9345825Y-15185241D01*
X9388682Y-15185241D01*
X9417253Y-15199527D01*
X9431539Y-15228098D01*
X9431539Y-15385241D01*
X9431539Y-15228098D02*
X9445825Y-15199527D01*
X9474396Y-15185241D01*
X9517253Y-15185241D01*
X9545825Y-15199527D01*
X9560110Y-15228098D01*
X9560110Y-15385241D01*
X10145825Y-15070956D02*
X9888682Y-15456670D01*
X10531539Y-15085241D02*
X10560110Y-15085241D01*
X10588682Y-15099527D01*
X10602967Y-15113813D01*
X10617253Y-15142384D01*
X10631539Y-15199527D01*
X10631539Y-15270956D01*
X10617253Y-15328098D01*
X10602967Y-15356670D01*
X10588682Y-15370956D01*
X10560110Y-15385241D01*
X10531539Y-15385241D01*
X10502967Y-15370956D01*
X10488682Y-15356670D01*
X10474396Y-15328098D01*
X10460110Y-15270956D01*
X10460110Y-15199527D01*
X10474396Y-15142384D01*
X10488682Y-15113813D01*
X10502967Y-15099527D01*
X10531539Y-15085241D01*
X10760110Y-15356670D02*
X10774396Y-15370956D01*
X10760110Y-15385241D01*
X10745825Y-15370956D01*
X10760110Y-15356670D01*
X10760110Y-15385241D01*
X10960110Y-15085241D02*
X10988682Y-15085241D01*
X11017253Y-15099527D01*
X11031539Y-15113813D01*
X11045825Y-15142384D01*
X11060110Y-15199527D01*
X11060110Y-15270956D01*
X11045825Y-15328098D01*
X11031539Y-15356670D01*
X11017253Y-15370956D01*
X10988682Y-15385241D01*
X10960110Y-15385241D01*
X10931539Y-15370956D01*
X10917253Y-15356670D01*
X10902967Y-15328098D01*
X10888682Y-15270956D01*
X10888682Y-15199527D01*
X10902967Y-15142384D01*
X10917253Y-15113813D01*
X10931539Y-15099527D01*
X10960110Y-15085241D01*
X11160110Y-15085241D02*
X11345825Y-15085241D01*
X11245825Y-15199527D01*
X11288682Y-15199527D01*
X11317253Y-15213813D01*
X11331539Y-15228098D01*
X11345825Y-15256670D01*
X11345825Y-15328098D01*
X11331539Y-15356670D01*
X11317253Y-15370956D01*
X11288682Y-15385241D01*
X11202967Y-15385241D01*
X11174396Y-15370956D01*
X11160110Y-15356670D01*
X11531539Y-15085241D02*
X11560110Y-15085241D01*
X11588682Y-15099527D01*
X11602967Y-15113813D01*
X11617253Y-15142384D01*
X11631539Y-15199527D01*
X11631539Y-15270956D01*
X11617253Y-15328098D01*
X11602967Y-15356670D01*
X11588682Y-15370956D01*
X11560110Y-15385241D01*
X11531539Y-15385241D01*
X11502967Y-15370956D01*
X11488682Y-15356670D01*
X11474396Y-15328098D01*
X11460110Y-15270956D01*
X11460110Y-15199527D01*
X11474396Y-15142384D01*
X11488682Y-15113813D01*
X11502967Y-15099527D01*
X11531539Y-15085241D01*
X11745825Y-15085241D02*
X11745825Y-15142384D01*
X11860110Y-15085241D02*
X11860110Y-15142384D01*
X12302967Y-15499527D02*
X12288682Y-15485241D01*
X12260110Y-15442384D01*
X12245825Y-15413813D01*
X12231539Y-15370956D01*
X12217253Y-15299527D01*
X12217253Y-15242384D01*
X12231539Y-15170956D01*
X12245825Y-15128098D01*
X12260110Y-15099527D01*
X12288682Y-15056670D01*
X12302967Y-15042384D01*
X12388682Y-15085241D02*
X12574396Y-15085241D01*
X12474396Y-15199527D01*
X12517253Y-15199527D01*
X12545825Y-15213813D01*
X12560110Y-15228098D01*
X12574396Y-15256670D01*
X12574396Y-15328098D01*
X12560110Y-15356670D01*
X12545825Y-15370956D01*
X12517253Y-15385241D01*
X12431539Y-15385241D01*
X12402967Y-15370956D01*
X12388682Y-15356670D01*
X12931539Y-15385241D02*
X12931539Y-15085241D01*
X13060110Y-15385241D02*
X13060110Y-15228098D01*
X13045825Y-15199527D01*
X13017253Y-15185241D01*
X12974396Y-15185241D01*
X12945825Y-15199527D01*
X12931539Y-15213813D01*
X13245825Y-15385241D02*
X13217253Y-15370956D01*
X13202967Y-15356670D01*
X13188682Y-15328098D01*
X13188682Y-15242384D01*
X13202967Y-15213813D01*
X13217253Y-15199527D01*
X13245825Y-15185241D01*
X13288682Y-15185241D01*
X13317253Y-15199527D01*
X13331539Y-15213813D01*
X13345825Y-15242384D01*
X13345825Y-15328098D01*
X13331539Y-15356670D01*
X13317253Y-15370956D01*
X13288682Y-15385241D01*
X13245825Y-15385241D01*
X13517253Y-15385241D02*
X13488682Y-15370956D01*
X13474396Y-15342384D01*
X13474396Y-15085241D01*
X13745825Y-15370956D02*
X13717253Y-15385241D01*
X13660110Y-15385241D01*
X13631539Y-15370956D01*
X13617253Y-15342384D01*
X13617253Y-15228098D01*
X13631539Y-15199527D01*
X13660110Y-15185241D01*
X13717253Y-15185241D01*
X13745825Y-15199527D01*
X13760110Y-15228098D01*
X13760110Y-15256670D01*
X13617253Y-15285241D01*
X13874396Y-15370956D02*
X13902967Y-15385241D01*
X13960110Y-15385241D01*
X13988682Y-15370956D01*
X14002967Y-15342384D01*
X14002967Y-15328098D01*
X13988682Y-15299527D01*
X13960110Y-15285241D01*
X13917253Y-15285241D01*
X13888682Y-15270956D01*
X13874396Y-15242384D01*
X13874396Y-15228098D01*
X13888682Y-15199527D01*
X13917253Y-15185241D01*
X13960110Y-15185241D01*
X13988682Y-15199527D01*
X14102967Y-15499527D02*
X14117253Y-15485241D01*
X14145825Y-15442384D01*
X14160110Y-15413813D01*
X14174396Y-15370956D01*
X14188682Y-15299527D01*
X14188682Y-15242384D01*
X14174396Y-15170956D01*
X14160110Y-15128098D01*
X14145825Y-15099527D01*
X14117253Y-15056670D01*
X14102967Y-15042384D01*
X7535259Y-15604887D02*
X7616539Y-15686167D01*
X7616539Y-15604887D02*
X7535259Y-15686167D01*
X7616539Y-15645527D02*
G75*
G03X7616539Y-15645527I-40640J0D01*
G01*
X7960110Y-15481241D02*
X7988682Y-15481241D01*
X8017253Y-15495527D01*
X8031539Y-15509813D01*
X8045825Y-15538384D01*
X8060110Y-15595527D01*
X8060110Y-15666956D01*
X8045825Y-15724098D01*
X8031539Y-15752670D01*
X8017253Y-15766956D01*
X7988682Y-15781241D01*
X7960110Y-15781241D01*
X7931539Y-15766956D01*
X7917253Y-15752670D01*
X7902967Y-15724098D01*
X7888682Y-15666956D01*
X7888682Y-15595527D01*
X7902967Y-15538384D01*
X7917253Y-15509813D01*
X7931539Y-15495527D01*
X7960110Y-15481241D01*
X8188682Y-15752670D02*
X8202967Y-15766956D01*
X8188682Y-15781241D01*
X8174396Y-15766956D01*
X8188682Y-15752670D01*
X8188682Y-15781241D01*
X8374396Y-15609813D02*
X8345825Y-15595527D01*
X8331539Y-15581241D01*
X8317253Y-15552670D01*
X8317253Y-15538384D01*
X8331539Y-15509813D01*
X8345825Y-15495527D01*
X8374396Y-15481241D01*
X8431539Y-15481241D01*
X8460110Y-15495527D01*
X8474396Y-15509813D01*
X8488682Y-15538384D01*
X8488682Y-15552670D01*
X8474396Y-15581241D01*
X8460110Y-15595527D01*
X8431539Y-15609813D01*
X8374396Y-15609813D01*
X8345825Y-15624098D01*
X8331539Y-15638384D01*
X8317253Y-15666956D01*
X8317253Y-15724098D01*
X8331539Y-15752670D01*
X8345825Y-15766956D01*
X8374396Y-15781241D01*
X8431539Y-15781241D01*
X8460110Y-15766956D01*
X8474396Y-15752670D01*
X8488682Y-15724098D01*
X8488682Y-15666956D01*
X8474396Y-15638384D01*
X8460110Y-15624098D01*
X8431539Y-15609813D01*
X8774396Y-15781241D02*
X8602967Y-15781241D01*
X8688682Y-15781241D02*
X8688682Y-15481241D01*
X8660110Y-15524098D01*
X8631539Y-15552670D01*
X8602967Y-15566956D01*
X8902967Y-15781241D02*
X8902967Y-15581241D01*
X8902967Y-15609813D02*
X8917253Y-15595527D01*
X8945825Y-15581241D01*
X8988682Y-15581241D01*
X9017253Y-15595527D01*
X9031539Y-15624098D01*
X9031539Y-15781241D01*
X9031539Y-15624098D02*
X9045825Y-15595527D01*
X9074396Y-15581241D01*
X9117253Y-15581241D01*
X9145825Y-15595527D01*
X9160110Y-15624098D01*
X9160110Y-15781241D01*
X9302967Y-15781241D02*
X9302967Y-15581241D01*
X9302967Y-15609813D02*
X9317253Y-15595527D01*
X9345825Y-15581241D01*
X9388682Y-15581241D01*
X9417253Y-15595527D01*
X9431539Y-15624098D01*
X9431539Y-15781241D01*
X9431539Y-15624098D02*
X9445825Y-15595527D01*
X9474396Y-15581241D01*
X9517253Y-15581241D01*
X9545825Y-15595527D01*
X9560110Y-15624098D01*
X9560110Y-15781241D01*
X10145825Y-15466956D02*
X9888682Y-15852670D01*
X10531539Y-15481241D02*
X10560110Y-15481241D01*
X10588682Y-15495527D01*
X10602967Y-15509813D01*
X10617253Y-15538384D01*
X10631539Y-15595527D01*
X10631539Y-15666956D01*
X10617253Y-15724098D01*
X10602967Y-15752670D01*
X10588682Y-15766956D01*
X10560110Y-15781241D01*
X10531539Y-15781241D01*
X10502967Y-15766956D01*
X10488682Y-15752670D01*
X10474396Y-15724098D01*
X10460110Y-15666956D01*
X10460110Y-15595527D01*
X10474396Y-15538384D01*
X10488682Y-15509813D01*
X10502967Y-15495527D01*
X10531539Y-15481241D01*
X10760110Y-15752670D02*
X10774396Y-15766956D01*
X10760110Y-15781241D01*
X10745825Y-15766956D01*
X10760110Y-15752670D01*
X10760110Y-15781241D01*
X10960110Y-15481241D02*
X10988682Y-15481241D01*
X11017253Y-15495527D01*
X11031539Y-15509813D01*
X11045825Y-15538384D01*
X11060110Y-15595527D01*
X11060110Y-15666956D01*
X11045825Y-15724098D01*
X11031539Y-15752670D01*
X11017253Y-15766956D01*
X10988682Y-15781241D01*
X10960110Y-15781241D01*
X10931539Y-15766956D01*
X10917253Y-15752670D01*
X10902967Y-15724098D01*
X10888682Y-15666956D01*
X10888682Y-15595527D01*
X10902967Y-15538384D01*
X10917253Y-15509813D01*
X10931539Y-15495527D01*
X10960110Y-15481241D01*
X11160110Y-15481241D02*
X11345825Y-15481241D01*
X11245825Y-15595527D01*
X11288682Y-15595527D01*
X11317253Y-15609813D01*
X11331539Y-15624098D01*
X11345825Y-15652670D01*
X11345825Y-15724098D01*
X11331539Y-15752670D01*
X11317253Y-15766956D01*
X11288682Y-15781241D01*
X11202967Y-15781241D01*
X11174396Y-15766956D01*
X11160110Y-15752670D01*
X11460110Y-15509813D02*
X11474396Y-15495527D01*
X11502967Y-15481241D01*
X11574396Y-15481241D01*
X11602967Y-15495527D01*
X11617253Y-15509813D01*
X11631539Y-15538384D01*
X11631539Y-15566956D01*
X11617253Y-15609813D01*
X11445825Y-15781241D01*
X11631539Y-15781241D01*
X11745825Y-15481241D02*
X11745825Y-15538384D01*
X11860110Y-15481241D02*
X11860110Y-15538384D01*
X12302967Y-15895527D02*
X12288682Y-15881241D01*
X12260110Y-15838384D01*
X12245825Y-15809813D01*
X12231539Y-15766956D01*
X12217253Y-15695527D01*
X12217253Y-15638384D01*
X12231539Y-15566956D01*
X12245825Y-15524098D01*
X12260110Y-15495527D01*
X12288682Y-15452670D01*
X12302967Y-15438384D01*
X12545825Y-15581241D02*
X12545825Y-15781241D01*
X12474396Y-15466956D02*
X12402967Y-15681241D01*
X12588682Y-15681241D01*
X12931539Y-15781241D02*
X12931539Y-15481241D01*
X13060110Y-15781241D02*
X13060110Y-15624098D01*
X13045825Y-15595527D01*
X13017253Y-15581241D01*
X12974396Y-15581241D01*
X12945825Y-15595527D01*
X12931539Y-15609813D01*
X13245825Y-15781241D02*
X13217253Y-15766956D01*
X13202967Y-15752670D01*
X13188682Y-15724098D01*
X13188682Y-15638384D01*
X13202967Y-15609813D01*
X13217253Y-15595527D01*
X13245825Y-15581241D01*
X13288682Y-15581241D01*
X13317253Y-15595527D01*
X13331539Y-15609813D01*
X13345825Y-15638384D01*
X13345825Y-15724098D01*
X13331539Y-15752670D01*
X13317253Y-15766956D01*
X13288682Y-15781241D01*
X13245825Y-15781241D01*
X13517253Y-15781241D02*
X13488682Y-15766956D01*
X13474396Y-15738384D01*
X13474396Y-15481241D01*
X13745825Y-15766956D02*
X13717253Y-15781241D01*
X13660110Y-15781241D01*
X13631539Y-15766956D01*
X13617253Y-15738384D01*
X13617253Y-15624098D01*
X13631539Y-15595527D01*
X13660110Y-15581241D01*
X13717253Y-15581241D01*
X13745825Y-15595527D01*
X13760110Y-15624098D01*
X13760110Y-15652670D01*
X13617253Y-15681241D01*
X13874396Y-15766956D02*
X13902967Y-15781241D01*
X13960110Y-15781241D01*
X13988682Y-15766956D01*
X14002967Y-15738384D01*
X14002967Y-15724098D01*
X13988682Y-15695527D01*
X13960110Y-15681241D01*
X13917253Y-15681241D01*
X13888682Y-15666956D01*
X13874396Y-15638384D01*
X13874396Y-15624098D01*
X13888682Y-15595527D01*
X13917253Y-15581241D01*
X13960110Y-15581241D01*
X13988682Y-15595527D01*
X14102967Y-15895527D02*
X14117253Y-15881241D01*
X14145825Y-15838384D01*
X14160110Y-15809813D01*
X14174396Y-15766956D01*
X14188682Y-15695527D01*
X14188682Y-15638384D01*
X14174396Y-15566956D01*
X14160110Y-15524098D01*
X14145825Y-15495527D01*
X14117253Y-15452670D01*
X14102967Y-15438384D01*
X7526539Y-15996527D02*
X7616539Y-16086527D01*
X7616539Y-15996527D02*
X7526539Y-16086527D01*
X7571539Y-15996527D02*
X7571539Y-16086527D01*
X7526539Y-16041527D02*
X7616539Y-16041527D01*
X7960110Y-15877241D02*
X7988682Y-15877241D01*
X8017253Y-15891527D01*
X8031539Y-15905813D01*
X8045825Y-15934384D01*
X8060110Y-15991527D01*
X8060110Y-16062956D01*
X8045825Y-16120098D01*
X8031539Y-16148670D01*
X8017253Y-16162956D01*
X7988682Y-16177241D01*
X7960110Y-16177241D01*
X7931539Y-16162956D01*
X7917253Y-16148670D01*
X7902967Y-16120098D01*
X7888682Y-16062956D01*
X7888682Y-15991527D01*
X7902967Y-15934384D01*
X7917253Y-15905813D01*
X7931539Y-15891527D01*
X7960110Y-15877241D01*
X8188682Y-16148670D02*
X8202967Y-16162956D01*
X8188682Y-16177241D01*
X8174396Y-16162956D01*
X8188682Y-16148670D01*
X8188682Y-16177241D01*
X8345825Y-16177241D02*
X8402967Y-16177241D01*
X8431539Y-16162956D01*
X8445825Y-16148670D01*
X8474396Y-16105813D01*
X8488682Y-16048670D01*
X8488682Y-15934384D01*
X8474396Y-15905813D01*
X8460110Y-15891527D01*
X8431539Y-15877241D01*
X8374396Y-15877241D01*
X8345825Y-15891527D01*
X8331539Y-15905813D01*
X8317253Y-15934384D01*
X8317253Y-16005813D01*
X8331539Y-16034384D01*
X8345825Y-16048670D01*
X8374396Y-16062956D01*
X8431539Y-16062956D01*
X8460110Y-16048670D01*
X8474396Y-16034384D01*
X8488682Y-16005813D01*
X8674396Y-15877241D02*
X8702967Y-15877241D01*
X8731539Y-15891527D01*
X8745825Y-15905813D01*
X8760110Y-15934384D01*
X8774396Y-15991527D01*
X8774396Y-16062956D01*
X8760110Y-16120098D01*
X8745825Y-16148670D01*
X8731539Y-16162956D01*
X8702967Y-16177241D01*
X8674396Y-16177241D01*
X8645825Y-16162956D01*
X8631539Y-16148670D01*
X8617253Y-16120098D01*
X8602967Y-16062956D01*
X8602967Y-15991527D01*
X8617253Y-15934384D01*
X8631539Y-15905813D01*
X8645825Y-15891527D01*
X8674396Y-15877241D01*
X8902967Y-16177241D02*
X8902967Y-15977241D01*
X8902967Y-16005813D02*
X8917253Y-15991527D01*
X8945825Y-15977241D01*
X8988682Y-15977241D01*
X9017253Y-15991527D01*
X9031539Y-16020098D01*
X9031539Y-16177241D01*
X9031539Y-16020098D02*
X9045825Y-15991527D01*
X9074396Y-15977241D01*
X9117253Y-15977241D01*
X9145825Y-15991527D01*
X9160110Y-16020098D01*
X9160110Y-16177241D01*
X9302967Y-16177241D02*
X9302967Y-15977241D01*
X9302967Y-16005813D02*
X9317253Y-15991527D01*
X9345825Y-15977241D01*
X9388682Y-15977241D01*
X9417253Y-15991527D01*
X9431539Y-16020098D01*
X9431539Y-16177241D01*
X9431539Y-16020098D02*
X9445825Y-15991527D01*
X9474396Y-15977241D01*
X9517253Y-15977241D01*
X9545825Y-15991527D01*
X9560110Y-16020098D01*
X9560110Y-16177241D01*
X10145825Y-15862956D02*
X9888682Y-16248670D01*
X10531539Y-15877241D02*
X10560110Y-15877241D01*
X10588682Y-15891527D01*
X10602967Y-15905813D01*
X10617253Y-15934384D01*
X10631539Y-15991527D01*
X10631539Y-16062956D01*
X10617253Y-16120098D01*
X10602967Y-16148670D01*
X10588682Y-16162956D01*
X10560110Y-16177241D01*
X10531539Y-16177241D01*
X10502967Y-16162956D01*
X10488682Y-16148670D01*
X10474396Y-16120098D01*
X10460110Y-16062956D01*
X10460110Y-15991527D01*
X10474396Y-15934384D01*
X10488682Y-15905813D01*
X10502967Y-15891527D01*
X10531539Y-15877241D01*
X10760110Y-16148670D02*
X10774396Y-16162956D01*
X10760110Y-16177241D01*
X10745825Y-16162956D01*
X10760110Y-16148670D01*
X10760110Y-16177241D01*
X10960110Y-15877241D02*
X10988682Y-15877241D01*
X11017253Y-15891527D01*
X11031539Y-15905813D01*
X11045825Y-15934384D01*
X11060110Y-15991527D01*
X11060110Y-16062956D01*
X11045825Y-16120098D01*
X11031539Y-16148670D01*
X11017253Y-16162956D01*
X10988682Y-16177241D01*
X10960110Y-16177241D01*
X10931539Y-16162956D01*
X10917253Y-16148670D01*
X10902967Y-16120098D01*
X10888682Y-16062956D01*
X10888682Y-15991527D01*
X10902967Y-15934384D01*
X10917253Y-15905813D01*
X10931539Y-15891527D01*
X10960110Y-15877241D01*
X11160110Y-15877241D02*
X11345825Y-15877241D01*
X11245825Y-15991527D01*
X11288682Y-15991527D01*
X11317253Y-16005813D01*
X11331539Y-16020098D01*
X11345825Y-16048670D01*
X11345825Y-16120098D01*
X11331539Y-16148670D01*
X11317253Y-16162956D01*
X11288682Y-16177241D01*
X11202967Y-16177241D01*
X11174396Y-16162956D01*
X11160110Y-16148670D01*
X11617253Y-15877241D02*
X11474396Y-15877241D01*
X11460110Y-16020098D01*
X11474396Y-16005813D01*
X11502967Y-15991527D01*
X11574396Y-15991527D01*
X11602967Y-16005813D01*
X11617253Y-16020098D01*
X11631539Y-16048670D01*
X11631539Y-16120098D01*
X11617253Y-16148670D01*
X11602967Y-16162956D01*
X11574396Y-16177241D01*
X11502967Y-16177241D01*
X11474396Y-16162956D01*
X11460110Y-16148670D01*
X11745825Y-15877241D02*
X11745825Y-15934384D01*
X11860110Y-15877241D02*
X11860110Y-15934384D01*
X12302967Y-16291527D02*
X12288682Y-16277241D01*
X12260110Y-16234384D01*
X12245825Y-16205813D01*
X12231539Y-16162956D01*
X12217253Y-16091527D01*
X12217253Y-16034384D01*
X12231539Y-15962956D01*
X12245825Y-15920098D01*
X12260110Y-15891527D01*
X12288682Y-15848670D01*
X12302967Y-15834384D01*
X12574396Y-16177241D02*
X12402967Y-16177241D01*
X12488682Y-16177241D02*
X12488682Y-15877241D01*
X12460110Y-15920098D01*
X12431539Y-15948670D01*
X12402967Y-15962956D01*
X12831539Y-15877241D02*
X12774396Y-15877241D01*
X12745825Y-15891527D01*
X12731539Y-15905813D01*
X12702967Y-15948670D01*
X12688682Y-16005813D01*
X12688682Y-16120098D01*
X12702967Y-16148670D01*
X12717253Y-16162956D01*
X12745825Y-16177241D01*
X12802967Y-16177241D01*
X12831539Y-16162956D01*
X12845825Y-16148670D01*
X12860110Y-16120098D01*
X12860110Y-16048670D01*
X12845825Y-16020098D01*
X12831539Y-16005813D01*
X12802967Y-15991527D01*
X12745825Y-15991527D01*
X12717253Y-16005813D01*
X12702967Y-16020098D01*
X12688682Y-16048670D01*
X13217253Y-16177241D02*
X13217253Y-15877241D01*
X13345825Y-16177241D02*
X13345825Y-16020098D01*
X13331539Y-15991527D01*
X13302967Y-15977241D01*
X13260110Y-15977241D01*
X13231539Y-15991527D01*
X13217253Y-16005813D01*
X13531539Y-16177241D02*
X13502967Y-16162956D01*
X13488682Y-16148670D01*
X13474396Y-16120098D01*
X13474396Y-16034384D01*
X13488682Y-16005813D01*
X13502967Y-15991527D01*
X13531539Y-15977241D01*
X13574396Y-15977241D01*
X13602967Y-15991527D01*
X13617253Y-16005813D01*
X13631539Y-16034384D01*
X13631539Y-16120098D01*
X13617253Y-16148670D01*
X13602967Y-16162956D01*
X13574396Y-16177241D01*
X13531539Y-16177241D01*
X13802967Y-16177241D02*
X13774396Y-16162956D01*
X13760110Y-16134384D01*
X13760110Y-15877241D01*
X14031539Y-16162956D02*
X14002967Y-16177241D01*
X13945825Y-16177241D01*
X13917253Y-16162956D01*
X13902967Y-16134384D01*
X13902967Y-16020098D01*
X13917253Y-15991527D01*
X13945825Y-15977241D01*
X14002967Y-15977241D01*
X14031539Y-15991527D01*
X14045825Y-16020098D01*
X14045825Y-16048670D01*
X13902967Y-16077241D01*
X14160110Y-16162956D02*
X14188682Y-16177241D01*
X14245825Y-16177241D01*
X14274396Y-16162956D01*
X14288682Y-16134384D01*
X14288682Y-16120098D01*
X14274396Y-16091527D01*
X14245825Y-16077241D01*
X14202967Y-16077241D01*
X14174396Y-16062956D01*
X14160110Y-16034384D01*
X14160110Y-16020098D01*
X14174396Y-15991527D01*
X14202967Y-15977241D01*
X14245825Y-15977241D01*
X14274396Y-15991527D01*
X14388682Y-16291527D02*
X14402967Y-16277241D01*
X14431539Y-16234384D01*
X14445825Y-16205813D01*
X14460110Y-16162956D01*
X14474396Y-16091527D01*
X14474396Y-16034384D01*
X14460110Y-15962956D01*
X14445825Y-15920098D01*
X14431539Y-15891527D01*
X14402967Y-15848670D01*
X14388682Y-15834384D01*
X7522539Y-16390527D02*
X7616539Y-16484527D01*
X7616539Y-16390527D02*
X7522539Y-16484527D01*
X7602773Y-16470761D02*
X7602773Y-16404293D01*
X7536305Y-16404293D01*
X7536305Y-16470761D01*
X7602773Y-16470761D01*
X7960110Y-16273241D02*
X7988682Y-16273241D01*
X8017253Y-16287527D01*
X8031539Y-16301813D01*
X8045825Y-16330384D01*
X8060110Y-16387527D01*
X8060110Y-16458956D01*
X8045825Y-16516098D01*
X8031539Y-16544670D01*
X8017253Y-16558956D01*
X7988682Y-16573241D01*
X7960110Y-16573241D01*
X7931539Y-16558956D01*
X7917253Y-16544670D01*
X7902967Y-16516098D01*
X7888682Y-16458956D01*
X7888682Y-16387527D01*
X7902967Y-16330384D01*
X7917253Y-16301813D01*
X7931539Y-16287527D01*
X7960110Y-16273241D01*
X8188682Y-16544670D02*
X8202967Y-16558956D01*
X8188682Y-16573241D01*
X8174396Y-16558956D01*
X8188682Y-16544670D01*
X8188682Y-16573241D01*
X8345825Y-16573241D02*
X8402967Y-16573241D01*
X8431539Y-16558956D01*
X8445825Y-16544670D01*
X8474396Y-16501813D01*
X8488682Y-16444670D01*
X8488682Y-16330384D01*
X8474396Y-16301813D01*
X8460110Y-16287527D01*
X8431539Y-16273241D01*
X8374396Y-16273241D01*
X8345825Y-16287527D01*
X8331539Y-16301813D01*
X8317253Y-16330384D01*
X8317253Y-16401813D01*
X8331539Y-16430384D01*
X8345825Y-16444670D01*
X8374396Y-16458956D01*
X8431539Y-16458956D01*
X8460110Y-16444670D01*
X8474396Y-16430384D01*
X8488682Y-16401813D01*
X8745825Y-16373241D02*
X8745825Y-16573241D01*
X8674396Y-16258956D02*
X8602967Y-16473241D01*
X8788682Y-16473241D01*
X8902967Y-16573241D02*
X8902967Y-16373241D01*
X8902967Y-16401813D02*
X8917253Y-16387527D01*
X8945825Y-16373241D01*
X8988682Y-16373241D01*
X9017253Y-16387527D01*
X9031539Y-16416098D01*
X9031539Y-16573241D01*
X9031539Y-16416098D02*
X9045825Y-16387527D01*
X9074396Y-16373241D01*
X9117253Y-16373241D01*
X9145825Y-16387527D01*
X9160110Y-16416098D01*
X9160110Y-16573241D01*
X9302967Y-16573241D02*
X9302967Y-16373241D01*
X9302967Y-16401813D02*
X9317253Y-16387527D01*
X9345825Y-16373241D01*
X9388682Y-16373241D01*
X9417253Y-16387527D01*
X9431539Y-16416098D01*
X9431539Y-16573241D01*
X9431539Y-16416098D02*
X9445825Y-16387527D01*
X9474396Y-16373241D01*
X9517253Y-16373241D01*
X9545825Y-16387527D01*
X9560110Y-16416098D01*
X9560110Y-16573241D01*
X10145825Y-16258956D02*
X9888682Y-16644670D01*
X10531539Y-16273241D02*
X10560110Y-16273241D01*
X10588682Y-16287527D01*
X10602967Y-16301813D01*
X10617253Y-16330384D01*
X10631539Y-16387527D01*
X10631539Y-16458956D01*
X10617253Y-16516098D01*
X10602967Y-16544670D01*
X10588682Y-16558956D01*
X10560110Y-16573241D01*
X10531539Y-16573241D01*
X10502967Y-16558956D01*
X10488682Y-16544670D01*
X10474396Y-16516098D01*
X10460110Y-16458956D01*
X10460110Y-16387527D01*
X10474396Y-16330384D01*
X10488682Y-16301813D01*
X10502967Y-16287527D01*
X10531539Y-16273241D01*
X10760110Y-16544670D02*
X10774396Y-16558956D01*
X10760110Y-16573241D01*
X10745825Y-16558956D01*
X10760110Y-16544670D01*
X10760110Y-16573241D01*
X10960110Y-16273241D02*
X10988682Y-16273241D01*
X11017253Y-16287527D01*
X11031539Y-16301813D01*
X11045825Y-16330384D01*
X11060110Y-16387527D01*
X11060110Y-16458956D01*
X11045825Y-16516098D01*
X11031539Y-16544670D01*
X11017253Y-16558956D01*
X10988682Y-16573241D01*
X10960110Y-16573241D01*
X10931539Y-16558956D01*
X10917253Y-16544670D01*
X10902967Y-16516098D01*
X10888682Y-16458956D01*
X10888682Y-16387527D01*
X10902967Y-16330384D01*
X10917253Y-16301813D01*
X10931539Y-16287527D01*
X10960110Y-16273241D01*
X11160110Y-16273241D02*
X11345825Y-16273241D01*
X11245825Y-16387527D01*
X11288682Y-16387527D01*
X11317253Y-16401813D01*
X11331539Y-16416098D01*
X11345825Y-16444670D01*
X11345825Y-16516098D01*
X11331539Y-16544670D01*
X11317253Y-16558956D01*
X11288682Y-16573241D01*
X11202967Y-16573241D01*
X11174396Y-16558956D01*
X11160110Y-16544670D01*
X11445825Y-16273241D02*
X11645825Y-16273241D01*
X11517253Y-16573241D01*
X11745825Y-16273241D02*
X11745825Y-16330384D01*
X11860110Y-16273241D02*
X11860110Y-16330384D01*
X12302967Y-16687527D02*
X12288682Y-16673241D01*
X12260110Y-16630384D01*
X12245825Y-16601813D01*
X12231539Y-16558956D01*
X12217253Y-16487527D01*
X12217253Y-16430384D01*
X12231539Y-16358956D01*
X12245825Y-16316098D01*
X12260110Y-16287527D01*
X12288682Y-16244670D01*
X12302967Y-16230384D01*
X12388682Y-16273241D02*
X12574396Y-16273241D01*
X12474396Y-16387527D01*
X12517253Y-16387527D01*
X12545825Y-16401813D01*
X12560110Y-16416098D01*
X12574396Y-16444670D01*
X12574396Y-16516098D01*
X12560110Y-16544670D01*
X12545825Y-16558956D01*
X12517253Y-16573241D01*
X12431539Y-16573241D01*
X12402967Y-16558956D01*
X12388682Y-16544670D01*
X12931539Y-16573241D02*
X12931539Y-16273241D01*
X13060110Y-16573241D02*
X13060110Y-16416098D01*
X13045825Y-16387527D01*
X13017253Y-16373241D01*
X12974396Y-16373241D01*
X12945825Y-16387527D01*
X12931539Y-16401813D01*
X13245825Y-16573241D02*
X13217253Y-16558956D01*
X13202967Y-16544670D01*
X13188682Y-16516098D01*
X13188682Y-16430384D01*
X13202967Y-16401813D01*
X13217253Y-16387527D01*
X13245825Y-16373241D01*
X13288682Y-16373241D01*
X13317253Y-16387527D01*
X13331539Y-16401813D01*
X13345825Y-16430384D01*
X13345825Y-16516098D01*
X13331539Y-16544670D01*
X13317253Y-16558956D01*
X13288682Y-16573241D01*
X13245825Y-16573241D01*
X13517253Y-16573241D02*
X13488682Y-16558956D01*
X13474396Y-16530384D01*
X13474396Y-16273241D01*
X13745825Y-16558956D02*
X13717253Y-16573241D01*
X13660110Y-16573241D01*
X13631539Y-16558956D01*
X13617253Y-16530384D01*
X13617253Y-16416098D01*
X13631539Y-16387527D01*
X13660110Y-16373241D01*
X13717253Y-16373241D01*
X13745825Y-16387527D01*
X13760110Y-16416098D01*
X13760110Y-16444670D01*
X13617253Y-16473241D01*
X13874396Y-16558956D02*
X13902967Y-16573241D01*
X13960110Y-16573241D01*
X13988682Y-16558956D01*
X14002967Y-16530384D01*
X14002967Y-16516098D01*
X13988682Y-16487527D01*
X13960110Y-16473241D01*
X13917253Y-16473241D01*
X13888682Y-16458956D01*
X13874396Y-16430384D01*
X13874396Y-16416098D01*
X13888682Y-16387527D01*
X13917253Y-16373241D01*
X13960110Y-16373241D01*
X13988682Y-16387527D01*
X14102967Y-16687527D02*
X14117253Y-16673241D01*
X14145825Y-16630384D01*
X14160110Y-16601813D01*
X14174396Y-16558956D01*
X14188682Y-16487527D01*
X14188682Y-16430384D01*
X14174396Y-16358956D01*
X14160110Y-16316098D01*
X14145825Y-16287527D01*
X14117253Y-16244670D01*
X14102967Y-16230384D01*
X7516539Y-16783527D02*
X7616539Y-16883527D01*
X7616539Y-16783527D02*
X7516539Y-16883527D01*
X7566539Y-16883527D02*
X7616539Y-16833527D01*
X7566539Y-16783527D01*
X7516539Y-16833527D01*
X7566539Y-16883527D01*
X8060110Y-16969241D02*
X7888682Y-16969241D01*
X7974396Y-16969241D02*
X7974396Y-16669241D01*
X7945825Y-16712098D01*
X7917253Y-16740670D01*
X7888682Y-16754956D01*
X8188682Y-16940670D02*
X8202967Y-16954956D01*
X8188682Y-16969241D01*
X8174396Y-16954956D01*
X8188682Y-16940670D01*
X8188682Y-16969241D01*
X8388682Y-16669241D02*
X8417253Y-16669241D01*
X8445825Y-16683527D01*
X8460110Y-16697813D01*
X8474396Y-16726384D01*
X8488682Y-16783527D01*
X8488682Y-16854956D01*
X8474396Y-16912099D01*
X8460110Y-16940670D01*
X8445825Y-16954956D01*
X8417253Y-16969241D01*
X8388682Y-16969241D01*
X8360110Y-16954956D01*
X8345825Y-16940670D01*
X8331539Y-16912099D01*
X8317253Y-16854956D01*
X8317253Y-16783527D01*
X8331539Y-16726384D01*
X8345825Y-16697813D01*
X8360110Y-16683527D01*
X8388682Y-16669241D01*
X8674396Y-16669241D02*
X8702967Y-16669241D01*
X8731539Y-16683527D01*
X8745825Y-16697813D01*
X8760110Y-16726384D01*
X8774396Y-16783527D01*
X8774396Y-16854956D01*
X8760110Y-16912099D01*
X8745825Y-16940670D01*
X8731539Y-16954956D01*
X8702967Y-16969241D01*
X8674396Y-16969241D01*
X8645825Y-16954956D01*
X8631539Y-16940670D01*
X8617253Y-16912099D01*
X8602967Y-16854956D01*
X8602967Y-16783527D01*
X8617253Y-16726384D01*
X8631539Y-16697813D01*
X8645825Y-16683527D01*
X8674396Y-16669241D01*
X8902967Y-16969241D02*
X8902967Y-16769241D01*
X8902967Y-16797813D02*
X8917253Y-16783527D01*
X8945825Y-16769241D01*
X8988682Y-16769241D01*
X9017253Y-16783527D01*
X9031539Y-16812099D01*
X9031539Y-16969241D01*
X9031539Y-16812099D02*
X9045825Y-16783527D01*
X9074396Y-16769241D01*
X9117253Y-16769241D01*
X9145825Y-16783527D01*
X9160110Y-16812099D01*
X9160110Y-16969241D01*
X9302967Y-16969241D02*
X9302967Y-16769241D01*
X9302967Y-16797813D02*
X9317253Y-16783527D01*
X9345825Y-16769241D01*
X9388682Y-16769241D01*
X9417253Y-16783527D01*
X9431539Y-16812099D01*
X9431539Y-16969241D01*
X9431539Y-16812099D02*
X9445825Y-16783527D01*
X9474396Y-16769241D01*
X9517253Y-16769241D01*
X9545825Y-16783527D01*
X9560110Y-16812099D01*
X9560110Y-16969241D01*
X10145825Y-16654956D02*
X9888682Y-17040670D01*
X10531539Y-16669241D02*
X10560110Y-16669241D01*
X10588682Y-16683527D01*
X10602967Y-16697813D01*
X10617253Y-16726384D01*
X10631539Y-16783527D01*
X10631539Y-16854956D01*
X10617253Y-16912099D01*
X10602967Y-16940670D01*
X10588682Y-16954956D01*
X10560110Y-16969241D01*
X10531539Y-16969241D01*
X10502967Y-16954956D01*
X10488682Y-16940670D01*
X10474396Y-16912099D01*
X10460110Y-16854956D01*
X10460110Y-16783527D01*
X10474396Y-16726384D01*
X10488682Y-16697813D01*
X10502967Y-16683527D01*
X10531539Y-16669241D01*
X10760110Y-16940670D02*
X10774396Y-16954956D01*
X10760110Y-16969241D01*
X10745825Y-16954956D01*
X10760110Y-16940670D01*
X10760110Y-16969241D01*
X10960110Y-16669241D02*
X10988682Y-16669241D01*
X11017253Y-16683527D01*
X11031539Y-16697813D01*
X11045825Y-16726384D01*
X11060110Y-16783527D01*
X11060110Y-16854956D01*
X11045825Y-16912099D01*
X11031539Y-16940670D01*
X11017253Y-16954956D01*
X10988682Y-16969241D01*
X10960110Y-16969241D01*
X10931539Y-16954956D01*
X10917253Y-16940670D01*
X10902967Y-16912099D01*
X10888682Y-16854956D01*
X10888682Y-16783527D01*
X10902967Y-16726384D01*
X10917253Y-16697813D01*
X10931539Y-16683527D01*
X10960110Y-16669241D01*
X11160110Y-16669241D02*
X11345825Y-16669241D01*
X11245825Y-16783527D01*
X11288682Y-16783527D01*
X11317253Y-16797813D01*
X11331539Y-16812099D01*
X11345825Y-16840670D01*
X11345825Y-16912099D01*
X11331539Y-16940670D01*
X11317253Y-16954956D01*
X11288682Y-16969241D01*
X11202967Y-16969241D01*
X11174396Y-16954956D01*
X11160110Y-16940670D01*
X11488682Y-16969241D02*
X11545825Y-16969241D01*
X11574396Y-16954956D01*
X11588682Y-16940670D01*
X11617253Y-16897813D01*
X11631539Y-16840670D01*
X11631539Y-16726384D01*
X11617253Y-16697813D01*
X11602967Y-16683527D01*
X11574396Y-16669241D01*
X11517253Y-16669241D01*
X11488682Y-16683527D01*
X11474396Y-16697813D01*
X11460110Y-16726384D01*
X11460110Y-16797813D01*
X11474396Y-16826384D01*
X11488682Y-16840670D01*
X11517253Y-16854956D01*
X11574396Y-16854956D01*
X11602967Y-16840670D01*
X11617253Y-16826384D01*
X11631539Y-16797813D01*
X11745825Y-16669241D02*
X11745825Y-16726384D01*
X11860110Y-16669241D02*
X11860110Y-16726384D01*
X12302967Y-17083527D02*
X12288682Y-17069241D01*
X12260110Y-17026384D01*
X12245825Y-16997813D01*
X12231539Y-16954956D01*
X12217253Y-16883527D01*
X12217253Y-16826384D01*
X12231539Y-16754956D01*
X12245825Y-16712098D01*
X12260110Y-16683527D01*
X12288682Y-16640670D01*
X12302967Y-16626384D01*
X12388682Y-16669241D02*
X12574396Y-16669241D01*
X12474396Y-16783527D01*
X12517253Y-16783527D01*
X12545825Y-16797813D01*
X12560110Y-16812099D01*
X12574396Y-16840670D01*
X12574396Y-16912099D01*
X12560110Y-16940670D01*
X12545825Y-16954956D01*
X12517253Y-16969241D01*
X12431539Y-16969241D01*
X12402967Y-16954956D01*
X12388682Y-16940670D01*
X12688682Y-16697813D02*
X12702967Y-16683527D01*
X12731539Y-16669241D01*
X12802967Y-16669241D01*
X12831539Y-16683527D01*
X12845825Y-16697813D01*
X12860110Y-16726384D01*
X12860110Y-16754956D01*
X12845825Y-16797813D01*
X12674396Y-16969241D01*
X12860110Y-16969241D01*
X13217253Y-16969241D02*
X13217253Y-16669241D01*
X13345825Y-16969241D02*
X13345825Y-16812099D01*
X13331539Y-16783527D01*
X13302967Y-16769241D01*
X13260110Y-16769241D01*
X13231539Y-16783527D01*
X13217253Y-16797813D01*
X13531539Y-16969241D02*
X13502967Y-16954956D01*
X13488682Y-16940670D01*
X13474396Y-16912099D01*
X13474396Y-16826384D01*
X13488682Y-16797813D01*
X13502967Y-16783527D01*
X13531539Y-16769241D01*
X13574396Y-16769241D01*
X13602967Y-16783527D01*
X13617253Y-16797813D01*
X13631539Y-16826384D01*
X13631539Y-16912099D01*
X13617253Y-16940670D01*
X13602967Y-16954956D01*
X13574396Y-16969241D01*
X13531539Y-16969241D01*
X13802967Y-16969241D02*
X13774396Y-16954956D01*
X13760110Y-16926384D01*
X13760110Y-16669241D01*
X14031539Y-16954956D02*
X14002967Y-16969241D01*
X13945825Y-16969241D01*
X13917253Y-16954956D01*
X13902967Y-16926384D01*
X13902967Y-16812099D01*
X13917253Y-16783527D01*
X13945825Y-16769241D01*
X14002967Y-16769241D01*
X14031539Y-16783527D01*
X14045825Y-16812099D01*
X14045825Y-16840670D01*
X13902967Y-16869241D01*
X14160110Y-16954956D02*
X14188682Y-16969241D01*
X14245825Y-16969241D01*
X14274396Y-16954956D01*
X14288682Y-16926384D01*
X14288682Y-16912099D01*
X14274396Y-16883527D01*
X14245825Y-16869241D01*
X14202967Y-16869241D01*
X14174396Y-16854956D01*
X14160110Y-16826384D01*
X14160110Y-16812099D01*
X14174396Y-16783527D01*
X14202967Y-16769241D01*
X14245825Y-16769241D01*
X14274396Y-16783527D01*
X14388682Y-17083527D02*
X14402967Y-17069241D01*
X14431539Y-17026384D01*
X14445825Y-16997813D01*
X14460110Y-16954956D01*
X14474396Y-16883527D01*
X14474396Y-16826384D01*
X14460110Y-16754956D01*
X14445825Y-16712098D01*
X14431539Y-16683527D01*
X14402967Y-16640670D01*
X14388682Y-16626384D01*
X7564039Y-17177027D02*
X7564039Y-17282027D01*
X7511539Y-17229527D02*
X7616539Y-17229527D01*
X7616539Y-17229527D02*
G75*
G03X7616539Y-17229527I-52500J0D01*
G01*
X8060110Y-17365241D02*
X7888682Y-17365241D01*
X7974396Y-17365241D02*
X7974396Y-17065241D01*
X7945825Y-17108099D01*
X7917253Y-17136670D01*
X7888682Y-17150956D01*
X8188682Y-17336670D02*
X8202967Y-17350956D01*
X8188682Y-17365241D01*
X8174396Y-17350956D01*
X8188682Y-17336670D01*
X8188682Y-17365241D01*
X8388682Y-17065241D02*
X8417253Y-17065241D01*
X8445825Y-17079527D01*
X8460110Y-17093813D01*
X8474396Y-17122384D01*
X8488682Y-17179527D01*
X8488682Y-17250956D01*
X8474396Y-17308099D01*
X8460110Y-17336670D01*
X8445825Y-17350956D01*
X8417253Y-17365241D01*
X8388682Y-17365241D01*
X8360110Y-17350956D01*
X8345825Y-17336670D01*
X8331539Y-17308099D01*
X8317253Y-17250956D01*
X8317253Y-17179527D01*
X8331539Y-17122384D01*
X8345825Y-17093813D01*
X8360110Y-17079527D01*
X8388682Y-17065241D01*
X8760110Y-17065241D02*
X8617253Y-17065241D01*
X8602967Y-17208099D01*
X8617253Y-17193813D01*
X8645825Y-17179527D01*
X8717253Y-17179527D01*
X8745825Y-17193813D01*
X8760110Y-17208099D01*
X8774396Y-17236670D01*
X8774396Y-17308099D01*
X8760110Y-17336670D01*
X8745825Y-17350956D01*
X8717253Y-17365241D01*
X8645825Y-17365241D01*
X8617253Y-17350956D01*
X8602967Y-17336670D01*
X8902967Y-17365241D02*
X8902967Y-17165241D01*
X8902967Y-17193813D02*
X8917253Y-17179527D01*
X8945825Y-17165241D01*
X8988682Y-17165241D01*
X9017253Y-17179527D01*
X9031539Y-17208099D01*
X9031539Y-17365241D01*
X9031539Y-17208099D02*
X9045825Y-17179527D01*
X9074396Y-17165241D01*
X9117253Y-17165241D01*
X9145825Y-17179527D01*
X9160110Y-17208099D01*
X9160110Y-17365241D01*
X9302967Y-17365241D02*
X9302967Y-17165241D01*
X9302967Y-17193813D02*
X9317253Y-17179527D01*
X9345825Y-17165241D01*
X9388682Y-17165241D01*
X9417253Y-17179527D01*
X9431539Y-17208099D01*
X9431539Y-17365241D01*
X9431539Y-17208099D02*
X9445825Y-17179527D01*
X9474396Y-17165241D01*
X9517253Y-17165241D01*
X9545825Y-17179527D01*
X9560110Y-17208099D01*
X9560110Y-17365241D01*
X10145825Y-17050956D02*
X9888682Y-17436670D01*
X10531539Y-17065241D02*
X10560110Y-17065241D01*
X10588682Y-17079527D01*
X10602967Y-17093813D01*
X10617253Y-17122384D01*
X10631539Y-17179527D01*
X10631539Y-17250956D01*
X10617253Y-17308099D01*
X10602967Y-17336670D01*
X10588682Y-17350956D01*
X10560110Y-17365241D01*
X10531539Y-17365241D01*
X10502967Y-17350956D01*
X10488682Y-17336670D01*
X10474396Y-17308099D01*
X10460110Y-17250956D01*
X10460110Y-17179527D01*
X10474396Y-17122384D01*
X10488682Y-17093813D01*
X10502967Y-17079527D01*
X10531539Y-17065241D01*
X10760110Y-17336670D02*
X10774396Y-17350956D01*
X10760110Y-17365241D01*
X10745825Y-17350956D01*
X10760110Y-17336670D01*
X10760110Y-17365241D01*
X10960110Y-17065241D02*
X10988682Y-17065241D01*
X11017253Y-17079527D01*
X11031539Y-17093813D01*
X11045825Y-17122384D01*
X11060110Y-17179527D01*
X11060110Y-17250956D01*
X11045825Y-17308099D01*
X11031539Y-17336670D01*
X11017253Y-17350956D01*
X10988682Y-17365241D01*
X10960110Y-17365241D01*
X10931539Y-17350956D01*
X10917253Y-17336670D01*
X10902967Y-17308099D01*
X10888682Y-17250956D01*
X10888682Y-17179527D01*
X10902967Y-17122384D01*
X10917253Y-17093813D01*
X10931539Y-17079527D01*
X10960110Y-17065241D01*
X11317253Y-17165241D02*
X11317253Y-17365241D01*
X11245825Y-17050956D02*
X11174396Y-17265241D01*
X11360110Y-17265241D01*
X11631539Y-17365241D02*
X11460110Y-17365241D01*
X11545825Y-17365241D02*
X11545825Y-17065241D01*
X11517253Y-17108099D01*
X11488682Y-17136670D01*
X11460110Y-17150956D01*
X11745825Y-17065241D02*
X11745825Y-17122384D01*
X11860110Y-17065241D02*
X11860110Y-17122384D01*
X12302967Y-17479527D02*
X12288682Y-17465241D01*
X12260110Y-17422384D01*
X12245825Y-17393813D01*
X12231539Y-17350956D01*
X12217253Y-17279527D01*
X12217253Y-17222384D01*
X12231539Y-17150956D01*
X12245825Y-17108099D01*
X12260110Y-17079527D01*
X12288682Y-17036670D01*
X12302967Y-17022384D01*
X12402967Y-17093813D02*
X12417253Y-17079527D01*
X12445825Y-17065241D01*
X12517253Y-17065241D01*
X12545825Y-17079527D01*
X12560110Y-17093813D01*
X12574396Y-17122384D01*
X12574396Y-17150956D01*
X12560110Y-17193813D01*
X12388682Y-17365241D01*
X12574396Y-17365241D01*
X12745825Y-17193813D02*
X12717253Y-17179527D01*
X12702967Y-17165241D01*
X12688682Y-17136670D01*
X12688682Y-17122384D01*
X12702967Y-17093813D01*
X12717253Y-17079527D01*
X12745825Y-17065241D01*
X12802967Y-17065241D01*
X12831539Y-17079527D01*
X12845825Y-17093813D01*
X12860110Y-17122384D01*
X12860110Y-17136670D01*
X12845825Y-17165241D01*
X12831539Y-17179527D01*
X12802967Y-17193813D01*
X12745825Y-17193813D01*
X12717253Y-17208099D01*
X12702967Y-17222384D01*
X12688682Y-17250956D01*
X12688682Y-17308099D01*
X12702967Y-17336670D01*
X12717253Y-17350956D01*
X12745825Y-17365241D01*
X12802967Y-17365241D01*
X12831539Y-17350956D01*
X12845825Y-17336670D01*
X12860110Y-17308099D01*
X12860110Y-17250956D01*
X12845825Y-17222384D01*
X12831539Y-17208099D01*
X12802967Y-17193813D01*
X13217253Y-17365241D02*
X13217253Y-17065241D01*
X13345825Y-17365241D02*
X13345825Y-17208099D01*
X13331539Y-17179527D01*
X13302967Y-17165241D01*
X13260110Y-17165241D01*
X13231539Y-17179527D01*
X13217253Y-17193813D01*
X13531539Y-17365241D02*
X13502967Y-17350956D01*
X13488682Y-17336670D01*
X13474396Y-17308099D01*
X13474396Y-17222384D01*
X13488682Y-17193813D01*
X13502967Y-17179527D01*
X13531539Y-17165241D01*
X13574396Y-17165241D01*
X13602967Y-17179527D01*
X13617253Y-17193813D01*
X13631539Y-17222384D01*
X13631539Y-17308099D01*
X13617253Y-17336670D01*
X13602967Y-17350956D01*
X13574396Y-17365241D01*
X13531539Y-17365241D01*
X13802967Y-17365241D02*
X13774396Y-17350956D01*
X13760110Y-17322384D01*
X13760110Y-17065241D01*
X14031539Y-17350956D02*
X14002967Y-17365241D01*
X13945825Y-17365241D01*
X13917253Y-17350956D01*
X13902967Y-17322384D01*
X13902967Y-17208099D01*
X13917253Y-17179527D01*
X13945825Y-17165241D01*
X14002967Y-17165241D01*
X14031539Y-17179527D01*
X14045825Y-17208099D01*
X14045825Y-17236670D01*
X13902967Y-17265241D01*
X14160110Y-17350956D02*
X14188682Y-17365241D01*
X14245825Y-17365241D01*
X14274396Y-17350956D01*
X14288682Y-17322384D01*
X14288682Y-17308099D01*
X14274396Y-17279527D01*
X14245825Y-17265241D01*
X14202967Y-17265241D01*
X14174396Y-17250956D01*
X14160110Y-17222384D01*
X14160110Y-17208099D01*
X14174396Y-17179527D01*
X14202967Y-17165241D01*
X14245825Y-17165241D01*
X14274396Y-17179527D01*
X14388682Y-17479527D02*
X14402967Y-17465241D01*
X14431539Y-17422384D01*
X14445825Y-17393813D01*
X14460110Y-17350956D01*
X14474396Y-17279527D01*
X14474396Y-17222384D01*
X14460110Y-17150956D01*
X14445825Y-17108099D01*
X14431539Y-17079527D01*
X14402967Y-17036670D01*
X14388682Y-17022384D01*
X7572606Y-17731594D02*
X7572606Y-17519460D01*
X7360472Y-17519460D01*
X7360472Y-17731594D01*
X7572606Y-17731594D01*
X7616539Y-17625527D02*
G75*
G03X7616539Y-17625527I-150000J0D01*
G01*
X7874396Y-17461241D02*
X8060110Y-17461241D01*
X7960110Y-17575527D01*
X8002967Y-17575527D01*
X8031539Y-17589813D01*
X8045825Y-17604099D01*
X8060110Y-17632670D01*
X8060110Y-17704099D01*
X8045825Y-17732670D01*
X8031539Y-17746956D01*
X8002967Y-17761241D01*
X7917253Y-17761241D01*
X7888682Y-17746956D01*
X7874396Y-17732670D01*
X8188682Y-17732670D02*
X8202967Y-17746956D01*
X8188682Y-17761241D01*
X8174396Y-17746956D01*
X8188682Y-17732670D01*
X8188682Y-17761241D01*
X8388682Y-17461241D02*
X8417253Y-17461241D01*
X8445825Y-17475527D01*
X8460110Y-17489813D01*
X8474396Y-17518384D01*
X8488682Y-17575527D01*
X8488682Y-17646956D01*
X8474396Y-17704099D01*
X8460110Y-17732670D01*
X8445825Y-17746956D01*
X8417253Y-17761241D01*
X8388682Y-17761241D01*
X8360110Y-17746956D01*
X8345825Y-17732670D01*
X8331539Y-17704099D01*
X8317253Y-17646956D01*
X8317253Y-17575527D01*
X8331539Y-17518384D01*
X8345825Y-17489813D01*
X8360110Y-17475527D01*
X8388682Y-17461241D01*
X8674396Y-17461241D02*
X8702967Y-17461241D01*
X8731539Y-17475527D01*
X8745825Y-17489813D01*
X8760110Y-17518384D01*
X8774396Y-17575527D01*
X8774396Y-17646956D01*
X8760110Y-17704099D01*
X8745825Y-17732670D01*
X8731539Y-17746956D01*
X8702967Y-17761241D01*
X8674396Y-17761241D01*
X8645825Y-17746956D01*
X8631539Y-17732670D01*
X8617253Y-17704099D01*
X8602967Y-17646956D01*
X8602967Y-17575527D01*
X8617253Y-17518384D01*
X8631539Y-17489813D01*
X8645825Y-17475527D01*
X8674396Y-17461241D01*
X8902967Y-17761241D02*
X8902967Y-17561241D01*
X8902967Y-17589813D02*
X8917253Y-17575527D01*
X8945825Y-17561241D01*
X8988682Y-17561241D01*
X9017253Y-17575527D01*
X9031539Y-17604099D01*
X9031539Y-17761241D01*
X9031539Y-17604099D02*
X9045825Y-17575527D01*
X9074396Y-17561241D01*
X9117253Y-17561241D01*
X9145825Y-17575527D01*
X9160110Y-17604099D01*
X9160110Y-17761241D01*
X9302967Y-17761241D02*
X9302967Y-17561241D01*
X9302967Y-17589813D02*
X9317253Y-17575527D01*
X9345825Y-17561241D01*
X9388682Y-17561241D01*
X9417253Y-17575527D01*
X9431539Y-17604099D01*
X9431539Y-17761241D01*
X9431539Y-17604099D02*
X9445825Y-17575527D01*
X9474396Y-17561241D01*
X9517253Y-17561241D01*
X9545825Y-17575527D01*
X9560110Y-17604099D01*
X9560110Y-17761241D01*
X10145825Y-17446956D02*
X9888682Y-17832670D01*
X10531539Y-17461241D02*
X10560110Y-17461241D01*
X10588682Y-17475527D01*
X10602967Y-17489813D01*
X10617253Y-17518384D01*
X10631539Y-17575527D01*
X10631539Y-17646956D01*
X10617253Y-17704099D01*
X10602967Y-17732670D01*
X10588682Y-17746956D01*
X10560110Y-17761241D01*
X10531539Y-17761241D01*
X10502967Y-17746956D01*
X10488682Y-17732670D01*
X10474396Y-17704099D01*
X10460110Y-17646956D01*
X10460110Y-17575527D01*
X10474396Y-17518384D01*
X10488682Y-17489813D01*
X10502967Y-17475527D01*
X10531539Y-17461241D01*
X10760110Y-17732670D02*
X10774396Y-17746956D01*
X10760110Y-17761241D01*
X10745825Y-17746956D01*
X10760110Y-17732670D01*
X10760110Y-17761241D01*
X11060110Y-17761241D02*
X10888682Y-17761241D01*
X10974396Y-17761241D02*
X10974396Y-17461241D01*
X10945825Y-17504099D01*
X10917253Y-17532670D01*
X10888682Y-17546956D01*
X11345825Y-17761241D02*
X11174396Y-17761241D01*
X11260110Y-17761241D02*
X11260110Y-17461241D01*
X11231539Y-17504099D01*
X11202967Y-17532670D01*
X11174396Y-17546956D01*
X11517253Y-17589813D02*
X11488682Y-17575527D01*
X11474396Y-17561241D01*
X11460110Y-17532670D01*
X11460110Y-17518384D01*
X11474396Y-17489813D01*
X11488682Y-17475527D01*
X11517253Y-17461241D01*
X11574396Y-17461241D01*
X11602967Y-17475527D01*
X11617253Y-17489813D01*
X11631539Y-17518384D01*
X11631539Y-17532670D01*
X11617253Y-17561241D01*
X11602967Y-17575527D01*
X11574396Y-17589813D01*
X11517253Y-17589813D01*
X11488682Y-17604099D01*
X11474396Y-17618384D01*
X11460110Y-17646956D01*
X11460110Y-17704099D01*
X11474396Y-17732670D01*
X11488682Y-17746956D01*
X11517253Y-17761241D01*
X11574396Y-17761241D01*
X11602967Y-17746956D01*
X11617253Y-17732670D01*
X11631539Y-17704099D01*
X11631539Y-17646956D01*
X11617253Y-17618384D01*
X11602967Y-17604099D01*
X11574396Y-17589813D01*
X11745825Y-17461241D02*
X11745825Y-17518384D01*
X11860110Y-17461241D02*
X11860110Y-17518384D01*
X12302967Y-17875527D02*
X12288682Y-17861241D01*
X12260110Y-17818384D01*
X12245825Y-17789813D01*
X12231539Y-17746956D01*
X12217253Y-17675527D01*
X12217253Y-17618384D01*
X12231539Y-17546956D01*
X12245825Y-17504099D01*
X12260110Y-17475527D01*
X12288682Y-17432670D01*
X12302967Y-17418384D01*
X12545825Y-17561241D02*
X12545825Y-17761241D01*
X12474396Y-17446956D02*
X12402967Y-17661241D01*
X12588682Y-17661241D01*
X12931539Y-17761241D02*
X12931539Y-17461241D01*
X13060110Y-17761241D02*
X13060110Y-17604099D01*
X13045825Y-17575527D01*
X13017253Y-17561241D01*
X12974396Y-17561241D01*
X12945825Y-17575527D01*
X12931539Y-17589813D01*
X13245825Y-17761241D02*
X13217253Y-17746956D01*
X13202967Y-17732670D01*
X13188682Y-17704099D01*
X13188682Y-17618384D01*
X13202967Y-17589813D01*
X13217253Y-17575527D01*
X13245825Y-17561241D01*
X13288682Y-17561241D01*
X13317253Y-17575527D01*
X13331539Y-17589813D01*
X13345825Y-17618384D01*
X13345825Y-17704099D01*
X13331539Y-17732670D01*
X13317253Y-17746956D01*
X13288682Y-17761241D01*
X13245825Y-17761241D01*
X13517253Y-17761241D02*
X13488682Y-17746956D01*
X13474396Y-17718384D01*
X13474396Y-17461241D01*
X13745825Y-17746956D02*
X13717253Y-17761241D01*
X13660110Y-17761241D01*
X13631539Y-17746956D01*
X13617253Y-17718384D01*
X13617253Y-17604099D01*
X13631539Y-17575527D01*
X13660110Y-17561241D01*
X13717253Y-17561241D01*
X13745825Y-17575527D01*
X13760110Y-17604099D01*
X13760110Y-17632670D01*
X13617253Y-17661241D01*
X13874396Y-17746956D02*
X13902967Y-17761241D01*
X13960110Y-17761241D01*
X13988682Y-17746956D01*
X14002967Y-17718384D01*
X14002967Y-17704099D01*
X13988682Y-17675527D01*
X13960110Y-17661241D01*
X13917253Y-17661241D01*
X13888682Y-17646956D01*
X13874396Y-17618384D01*
X13874396Y-17604099D01*
X13888682Y-17575527D01*
X13917253Y-17561241D01*
X13960110Y-17561241D01*
X13988682Y-17575527D01*
X14102967Y-17875527D02*
X14117253Y-17861241D01*
X14145825Y-17818384D01*
X14160110Y-17789813D01*
X14174396Y-17746956D01*
X14188682Y-17675527D01*
X14188682Y-17618384D01*
X14174396Y-17546956D01*
X14160110Y-17504099D01*
X14145825Y-17475527D01*
X14117253Y-17432670D01*
X14102967Y-17418384D01*
X7453539Y-18218527D02*
X7616539Y-18055527D01*
X7453539Y-17892527D01*
X7290539Y-18055527D01*
X7453539Y-18218527D01*
X7616539Y-18055527D02*
G75*
G03X7616539Y-18055527I-163000J0D01*
G01*
X7874396Y-17891241D02*
X8060110Y-17891241D01*
X7960110Y-18005527D01*
X8002967Y-18005527D01*
X8031539Y-18019813D01*
X8045825Y-18034099D01*
X8060110Y-18062670D01*
X8060110Y-18134099D01*
X8045825Y-18162670D01*
X8031539Y-18176956D01*
X8002967Y-18191241D01*
X7917253Y-18191241D01*
X7888682Y-18176956D01*
X7874396Y-18162670D01*
X8188682Y-18162670D02*
X8202967Y-18176956D01*
X8188682Y-18191241D01*
X8174396Y-18176956D01*
X8188682Y-18162670D01*
X8188682Y-18191241D01*
X8317253Y-17919813D02*
X8331539Y-17905527D01*
X8360110Y-17891241D01*
X8431539Y-17891241D01*
X8460110Y-17905527D01*
X8474396Y-17919813D01*
X8488682Y-17948384D01*
X8488682Y-17976956D01*
X8474396Y-18019813D01*
X8302967Y-18191241D01*
X8488682Y-18191241D01*
X8745825Y-17891241D02*
X8688682Y-17891241D01*
X8660110Y-17905527D01*
X8645825Y-17919813D01*
X8617253Y-17962670D01*
X8602967Y-18019813D01*
X8602967Y-18134099D01*
X8617253Y-18162670D01*
X8631539Y-18176956D01*
X8660110Y-18191241D01*
X8717253Y-18191241D01*
X8745825Y-18176956D01*
X8760110Y-18162670D01*
X8774396Y-18134099D01*
X8774396Y-18062670D01*
X8760110Y-18034099D01*
X8745825Y-18019813D01*
X8717253Y-18005527D01*
X8660110Y-18005527D01*
X8631539Y-18019813D01*
X8617253Y-18034099D01*
X8602967Y-18062670D01*
X8902967Y-18191241D02*
X8902967Y-17991241D01*
X8902967Y-18019813D02*
X8917253Y-18005527D01*
X8945825Y-17991241D01*
X8988682Y-17991241D01*
X9017253Y-18005527D01*
X9031539Y-18034099D01*
X9031539Y-18191241D01*
X9031539Y-18034099D02*
X9045825Y-18005527D01*
X9074396Y-17991241D01*
X9117253Y-17991241D01*
X9145825Y-18005527D01*
X9160110Y-18034099D01*
X9160110Y-18191241D01*
X9302967Y-18191241D02*
X9302967Y-17991241D01*
X9302967Y-18019813D02*
X9317253Y-18005527D01*
X9345825Y-17991241D01*
X9388682Y-17991241D01*
X9417253Y-18005527D01*
X9431539Y-18034099D01*
X9431539Y-18191241D01*
X9431539Y-18034099D02*
X9445825Y-18005527D01*
X9474396Y-17991241D01*
X9517253Y-17991241D01*
X9545825Y-18005527D01*
X9560110Y-18034099D01*
X9560110Y-18191241D01*
X10145825Y-17876956D02*
X9888682Y-18262670D01*
X10531539Y-17891241D02*
X10560110Y-17891241D01*
X10588682Y-17905527D01*
X10602967Y-17919813D01*
X10617253Y-17948384D01*
X10631539Y-18005527D01*
X10631539Y-18076956D01*
X10617253Y-18134099D01*
X10602967Y-18162670D01*
X10588682Y-18176956D01*
X10560110Y-18191241D01*
X10531539Y-18191241D01*
X10502967Y-18176956D01*
X10488682Y-18162670D01*
X10474396Y-18134099D01*
X10460110Y-18076956D01*
X10460110Y-18005527D01*
X10474396Y-17948384D01*
X10488682Y-17919813D01*
X10502967Y-17905527D01*
X10531539Y-17891241D01*
X10760110Y-18162670D02*
X10774396Y-18176956D01*
X10760110Y-18191241D01*
X10745825Y-18176956D01*
X10760110Y-18162670D01*
X10760110Y-18191241D01*
X11060110Y-18191241D02*
X10888682Y-18191241D01*
X10974396Y-18191241D02*
X10974396Y-17891241D01*
X10945825Y-17934099D01*
X10917253Y-17962670D01*
X10888682Y-17976956D01*
X11174396Y-17919813D02*
X11188682Y-17905527D01*
X11217253Y-17891241D01*
X11288682Y-17891241D01*
X11317253Y-17905527D01*
X11331539Y-17919813D01*
X11345825Y-17948384D01*
X11345825Y-17976956D01*
X11331539Y-18019813D01*
X11160110Y-18191241D01*
X11345825Y-18191241D01*
X11517253Y-18019813D02*
X11488682Y-18005527D01*
X11474396Y-17991241D01*
X11460110Y-17962670D01*
X11460110Y-17948384D01*
X11474396Y-17919813D01*
X11488682Y-17905527D01*
X11517253Y-17891241D01*
X11574396Y-17891241D01*
X11602967Y-17905527D01*
X11617253Y-17919813D01*
X11631539Y-17948384D01*
X11631539Y-17962670D01*
X11617253Y-17991241D01*
X11602967Y-18005527D01*
X11574396Y-18019813D01*
X11517253Y-18019813D01*
X11488682Y-18034099D01*
X11474396Y-18048384D01*
X11460110Y-18076956D01*
X11460110Y-18134099D01*
X11474396Y-18162670D01*
X11488682Y-18176956D01*
X11517253Y-18191241D01*
X11574396Y-18191241D01*
X11602967Y-18176956D01*
X11617253Y-18162670D01*
X11631539Y-18134099D01*
X11631539Y-18076956D01*
X11617253Y-18048384D01*
X11602967Y-18034099D01*
X11574396Y-18019813D01*
X11745825Y-17891241D02*
X11745825Y-17948384D01*
X11860110Y-17891241D02*
X11860110Y-17948384D01*
X12302967Y-18305527D02*
X12288682Y-18291241D01*
X12260110Y-18248384D01*
X12245825Y-18219813D01*
X12231539Y-18176956D01*
X12217253Y-18105527D01*
X12217253Y-18048384D01*
X12231539Y-17976956D01*
X12245825Y-17934099D01*
X12260110Y-17905527D01*
X12288682Y-17862670D01*
X12302967Y-17848384D01*
X12574396Y-18191241D02*
X12402967Y-18191241D01*
X12488682Y-18191241D02*
X12488682Y-17891241D01*
X12460110Y-17934099D01*
X12431539Y-17962670D01*
X12402967Y-17976956D01*
X12931539Y-18191241D02*
X12931539Y-17891241D01*
X13060110Y-18191241D02*
X13060110Y-18034099D01*
X13045825Y-18005527D01*
X13017253Y-17991241D01*
X12974396Y-17991241D01*
X12945825Y-18005527D01*
X12931539Y-18019813D01*
X13245825Y-18191241D02*
X13217253Y-18176956D01*
X13202967Y-18162670D01*
X13188682Y-18134099D01*
X13188682Y-18048384D01*
X13202967Y-18019813D01*
X13217253Y-18005527D01*
X13245825Y-17991241D01*
X13288682Y-17991241D01*
X13317253Y-18005527D01*
X13331539Y-18019813D01*
X13345825Y-18048384D01*
X13345825Y-18134099D01*
X13331539Y-18162670D01*
X13317253Y-18176956D01*
X13288682Y-18191241D01*
X13245825Y-18191241D01*
X13517253Y-18191241D02*
X13488682Y-18176956D01*
X13474396Y-18148384D01*
X13474396Y-17891241D01*
X13745825Y-18176956D02*
X13717253Y-18191241D01*
X13660110Y-18191241D01*
X13631539Y-18176956D01*
X13617253Y-18148384D01*
X13617253Y-18034099D01*
X13631539Y-18005527D01*
X13660110Y-17991241D01*
X13717253Y-17991241D01*
X13745825Y-18005527D01*
X13760110Y-18034099D01*
X13760110Y-18062670D01*
X13617253Y-18091241D01*
X13860110Y-18305527D02*
X13874396Y-18291241D01*
X13902967Y-18248384D01*
X13917253Y-18219813D01*
X13931539Y-18176956D01*
X13945825Y-18105527D01*
X13945825Y-18048384D01*
X13931539Y-17976956D01*
X13917253Y-17934099D01*
X13902967Y-17905527D01*
X13874396Y-17862670D01*
X13860110Y-17848384D01*
X7441539Y-18336527D02*
X7441539Y-18686527D01*
X7266539Y-18511527D02*
X7616539Y-18511527D01*
X7565284Y-18635272D02*
X7565284Y-18387782D01*
X7317794Y-18387782D01*
X7317794Y-18635272D01*
X7565284Y-18635272D01*
X7874396Y-18347241D02*
X8060110Y-18347241D01*
X7960110Y-18461527D01*
X8002967Y-18461527D01*
X8031539Y-18475813D01*
X8045825Y-18490099D01*
X8060110Y-18518670D01*
X8060110Y-18590099D01*
X8045825Y-18618670D01*
X8031539Y-18632956D01*
X8002967Y-18647241D01*
X7917253Y-18647241D01*
X7888682Y-18632956D01*
X7874396Y-18618670D01*
X8188682Y-18618670D02*
X8202967Y-18632956D01*
X8188682Y-18647241D01*
X8174396Y-18632956D01*
X8188682Y-18618670D01*
X8188682Y-18647241D01*
X8474396Y-18347241D02*
X8331539Y-18347241D01*
X8317253Y-18490099D01*
X8331539Y-18475813D01*
X8360110Y-18461527D01*
X8431539Y-18461527D01*
X8460110Y-18475813D01*
X8474396Y-18490099D01*
X8488682Y-18518670D01*
X8488682Y-18590099D01*
X8474396Y-18618670D01*
X8460110Y-18632956D01*
X8431539Y-18647241D01*
X8360110Y-18647241D01*
X8331539Y-18632956D01*
X8317253Y-18618670D01*
X8674396Y-18347241D02*
X8702967Y-18347241D01*
X8731539Y-18361527D01*
X8745825Y-18375813D01*
X8760110Y-18404384D01*
X8774396Y-18461527D01*
X8774396Y-18532956D01*
X8760110Y-18590099D01*
X8745825Y-18618670D01*
X8731539Y-18632956D01*
X8702967Y-18647241D01*
X8674396Y-18647241D01*
X8645825Y-18632956D01*
X8631539Y-18618670D01*
X8617253Y-18590099D01*
X8602967Y-18532956D01*
X8602967Y-18461527D01*
X8617253Y-18404384D01*
X8631539Y-18375813D01*
X8645825Y-18361527D01*
X8674396Y-18347241D01*
X8902967Y-18647241D02*
X8902967Y-18447241D01*
X8902967Y-18475813D02*
X8917253Y-18461527D01*
X8945825Y-18447241D01*
X8988682Y-18447241D01*
X9017253Y-18461527D01*
X9031539Y-18490099D01*
X9031539Y-18647241D01*
X9031539Y-18490099D02*
X9045825Y-18461527D01*
X9074396Y-18447241D01*
X9117253Y-18447241D01*
X9145825Y-18461527D01*
X9160110Y-18490099D01*
X9160110Y-18647241D01*
X9302967Y-18647241D02*
X9302967Y-18447241D01*
X9302967Y-18475813D02*
X9317253Y-18461527D01*
X9345825Y-18447241D01*
X9388682Y-18447241D01*
X9417253Y-18461527D01*
X9431539Y-18490099D01*
X9431539Y-18647241D01*
X9431539Y-18490099D02*
X9445825Y-18461527D01*
X9474396Y-18447241D01*
X9517253Y-18447241D01*
X9545825Y-18461527D01*
X9560110Y-18490099D01*
X9560110Y-18647241D01*
X10145825Y-18332956D02*
X9888682Y-18718670D01*
X10531539Y-18347241D02*
X10560110Y-18347241D01*
X10588682Y-18361527D01*
X10602967Y-18375813D01*
X10617253Y-18404384D01*
X10631539Y-18461527D01*
X10631539Y-18532956D01*
X10617253Y-18590099D01*
X10602967Y-18618670D01*
X10588682Y-18632956D01*
X10560110Y-18647241D01*
X10531539Y-18647241D01*
X10502967Y-18632956D01*
X10488682Y-18618670D01*
X10474396Y-18590099D01*
X10460110Y-18532956D01*
X10460110Y-18461527D01*
X10474396Y-18404384D01*
X10488682Y-18375813D01*
X10502967Y-18361527D01*
X10531539Y-18347241D01*
X10760110Y-18618670D02*
X10774396Y-18632956D01*
X10760110Y-18647241D01*
X10745825Y-18632956D01*
X10760110Y-18618670D01*
X10760110Y-18647241D01*
X11060110Y-18647241D02*
X10888682Y-18647241D01*
X10974396Y-18647241D02*
X10974396Y-18347241D01*
X10945825Y-18390099D01*
X10917253Y-18418670D01*
X10888682Y-18432956D01*
X11160110Y-18347241D02*
X11345825Y-18347241D01*
X11245825Y-18461527D01*
X11288682Y-18461527D01*
X11317253Y-18475813D01*
X11331539Y-18490099D01*
X11345825Y-18518670D01*
X11345825Y-18590099D01*
X11331539Y-18618670D01*
X11317253Y-18632956D01*
X11288682Y-18647241D01*
X11202967Y-18647241D01*
X11174396Y-18632956D01*
X11160110Y-18618670D01*
X11517253Y-18475813D02*
X11488682Y-18461527D01*
X11474396Y-18447241D01*
X11460110Y-18418670D01*
X11460110Y-18404384D01*
X11474396Y-18375813D01*
X11488682Y-18361527D01*
X11517253Y-18347241D01*
X11574396Y-18347241D01*
X11602967Y-18361527D01*
X11617253Y-18375813D01*
X11631539Y-18404384D01*
X11631539Y-18418670D01*
X11617253Y-18447241D01*
X11602967Y-18461527D01*
X11574396Y-18475813D01*
X11517253Y-18475813D01*
X11488682Y-18490099D01*
X11474396Y-18504384D01*
X11460110Y-18532956D01*
X11460110Y-18590099D01*
X11474396Y-18618670D01*
X11488682Y-18632956D01*
X11517253Y-18647241D01*
X11574396Y-18647241D01*
X11602967Y-18632956D01*
X11617253Y-18618670D01*
X11631539Y-18590099D01*
X11631539Y-18532956D01*
X11617253Y-18504384D01*
X11602967Y-18490099D01*
X11574396Y-18475813D01*
X11745825Y-18347241D02*
X11745825Y-18404384D01*
X11860110Y-18347241D02*
X11860110Y-18404384D01*
X12302967Y-18761527D02*
X12288682Y-18747241D01*
X12260110Y-18704384D01*
X12245825Y-18675813D01*
X12231539Y-18632956D01*
X12217253Y-18561527D01*
X12217253Y-18504384D01*
X12231539Y-18432956D01*
X12245825Y-18390099D01*
X12260110Y-18361527D01*
X12288682Y-18318670D01*
X12302967Y-18304384D01*
X12402967Y-18375813D02*
X12417253Y-18361527D01*
X12445825Y-18347241D01*
X12517253Y-18347241D01*
X12545825Y-18361527D01*
X12560110Y-18375813D01*
X12574396Y-18404384D01*
X12574396Y-18432956D01*
X12560110Y-18475813D01*
X12388682Y-18647241D01*
X12574396Y-18647241D01*
X12931539Y-18647241D02*
X12931539Y-18347241D01*
X13060110Y-18647241D02*
X13060110Y-18490099D01*
X13045825Y-18461527D01*
X13017253Y-18447241D01*
X12974396Y-18447241D01*
X12945825Y-18461527D01*
X12931539Y-18475813D01*
X13245825Y-18647241D02*
X13217253Y-18632956D01*
X13202967Y-18618670D01*
X13188682Y-18590099D01*
X13188682Y-18504384D01*
X13202967Y-18475813D01*
X13217253Y-18461527D01*
X13245825Y-18447241D01*
X13288682Y-18447241D01*
X13317253Y-18461527D01*
X13331539Y-18475813D01*
X13345825Y-18504384D01*
X13345825Y-18590099D01*
X13331539Y-18618670D01*
X13317253Y-18632956D01*
X13288682Y-18647241D01*
X13245825Y-18647241D01*
X13517253Y-18647241D02*
X13488682Y-18632956D01*
X13474396Y-18604384D01*
X13474396Y-18347241D01*
X13745825Y-18632956D02*
X13717253Y-18647241D01*
X13660110Y-18647241D01*
X13631539Y-18632956D01*
X13617253Y-18604384D01*
X13617253Y-18490099D01*
X13631539Y-18461527D01*
X13660110Y-18447241D01*
X13717253Y-18447241D01*
X13745825Y-18461527D01*
X13760110Y-18490099D01*
X13760110Y-18518670D01*
X13617253Y-18547241D01*
X13874396Y-18632956D02*
X13902967Y-18647241D01*
X13960110Y-18647241D01*
X13988682Y-18632956D01*
X14002967Y-18604384D01*
X14002967Y-18590099D01*
X13988682Y-18561527D01*
X13960110Y-18547241D01*
X13917253Y-18547241D01*
X13888682Y-18532956D01*
X13874396Y-18504384D01*
X13874396Y-18490099D01*
X13888682Y-18461527D01*
X13917253Y-18447241D01*
X13960110Y-18447241D01*
X13988682Y-18461527D01*
X14102967Y-18761527D02*
X14117253Y-18747241D01*
X14145825Y-18704384D01*
X14160110Y-18675813D01*
X14174396Y-18632956D01*
X14188682Y-18561527D01*
X14188682Y-18504384D01*
X14174396Y-18432956D01*
X14160110Y-18390099D01*
X14145825Y-18361527D01*
X14117253Y-18318670D01*
X14102967Y-18304384D01*
X7458039Y-18833027D02*
X7458039Y-19150027D01*
X7299539Y-18991527D02*
X7616539Y-18991527D01*
X7458039Y-19150027D02*
X7616539Y-18991527D01*
X7458039Y-18833027D01*
X7299539Y-18991527D01*
X7458039Y-19150027D01*
X7874396Y-18827241D02*
X8060110Y-18827241D01*
X7960110Y-18941527D01*
X8002967Y-18941527D01*
X8031539Y-18955813D01*
X8045825Y-18970099D01*
X8060110Y-18998670D01*
X8060110Y-19070099D01*
X8045825Y-19098670D01*
X8031539Y-19112956D01*
X8002967Y-19127241D01*
X7917253Y-19127241D01*
X7888682Y-19112956D01*
X7874396Y-19098670D01*
X8188682Y-19098670D02*
X8202967Y-19112956D01*
X8188682Y-19127241D01*
X8174396Y-19112956D01*
X8188682Y-19098670D01*
X8188682Y-19127241D01*
X8488682Y-19127241D02*
X8317253Y-19127241D01*
X8402967Y-19127241D02*
X8402967Y-18827241D01*
X8374396Y-18870099D01*
X8345825Y-18898670D01*
X8317253Y-18912956D01*
X8588682Y-18827241D02*
X8788682Y-18827241D01*
X8660110Y-19127241D01*
X8902967Y-19127241D02*
X8902967Y-18927241D01*
X8902967Y-18955813D02*
X8917253Y-18941527D01*
X8945825Y-18927241D01*
X8988682Y-18927241D01*
X9017253Y-18941527D01*
X9031539Y-18970099D01*
X9031539Y-19127241D01*
X9031539Y-18970099D02*
X9045825Y-18941527D01*
X9074396Y-18927241D01*
X9117253Y-18927241D01*
X9145825Y-18941527D01*
X9160110Y-18970099D01*
X9160110Y-19127241D01*
X9302967Y-19127241D02*
X9302967Y-18927241D01*
X9302967Y-18955813D02*
X9317253Y-18941527D01*
X9345825Y-18927241D01*
X9388682Y-18927241D01*
X9417253Y-18941527D01*
X9431539Y-18970099D01*
X9431539Y-19127241D01*
X9431539Y-18970099D02*
X9445825Y-18941527D01*
X9474396Y-18927241D01*
X9517253Y-18927241D01*
X9545825Y-18941527D01*
X9560110Y-18970099D01*
X9560110Y-19127241D01*
X10145825Y-18812956D02*
X9888682Y-19198670D01*
X10531539Y-18827241D02*
X10560110Y-18827241D01*
X10588682Y-18841527D01*
X10602967Y-18855813D01*
X10617253Y-18884384D01*
X10631539Y-18941527D01*
X10631539Y-19012956D01*
X10617253Y-19070099D01*
X10602967Y-19098670D01*
X10588682Y-19112956D01*
X10560110Y-19127241D01*
X10531539Y-19127241D01*
X10502967Y-19112956D01*
X10488682Y-19098670D01*
X10474396Y-19070099D01*
X10460110Y-19012956D01*
X10460110Y-18941527D01*
X10474396Y-18884384D01*
X10488682Y-18855813D01*
X10502967Y-18841527D01*
X10531539Y-18827241D01*
X10760110Y-19098670D02*
X10774396Y-19112956D01*
X10760110Y-19127241D01*
X10745825Y-19112956D01*
X10760110Y-19098670D01*
X10760110Y-19127241D01*
X11060110Y-19127241D02*
X10888682Y-19127241D01*
X10974396Y-19127241D02*
X10974396Y-18827241D01*
X10945825Y-18870099D01*
X10917253Y-18898670D01*
X10888682Y-18912956D01*
X11174396Y-18855813D02*
X11188682Y-18841527D01*
X11217253Y-18827241D01*
X11288682Y-18827241D01*
X11317253Y-18841527D01*
X11331539Y-18855813D01*
X11345825Y-18884384D01*
X11345825Y-18912956D01*
X11331539Y-18955813D01*
X11160110Y-19127241D01*
X11345825Y-19127241D01*
X11617253Y-18827241D02*
X11474396Y-18827241D01*
X11460110Y-18970099D01*
X11474396Y-18955813D01*
X11502967Y-18941527D01*
X11574396Y-18941527D01*
X11602967Y-18955813D01*
X11617253Y-18970099D01*
X11631539Y-18998670D01*
X11631539Y-19070099D01*
X11617253Y-19098670D01*
X11602967Y-19112956D01*
X11574396Y-19127241D01*
X11502967Y-19127241D01*
X11474396Y-19112956D01*
X11460110Y-19098670D01*
X11745825Y-18827241D02*
X11745825Y-18884384D01*
X11860110Y-18827241D02*
X11860110Y-18884384D01*
X12302967Y-19241527D02*
X12288682Y-19227241D01*
X12260110Y-19184384D01*
X12245825Y-19155813D01*
X12231539Y-19112956D01*
X12217253Y-19041527D01*
X12217253Y-18984384D01*
X12231539Y-18912956D01*
X12245825Y-18870099D01*
X12260110Y-18841527D01*
X12288682Y-18798670D01*
X12302967Y-18784384D01*
X12545825Y-18927241D02*
X12545825Y-19127241D01*
X12474396Y-18812956D02*
X12402967Y-19027241D01*
X12588682Y-19027241D01*
X12931539Y-19127241D02*
X12931539Y-18827241D01*
X13060110Y-19127241D02*
X13060110Y-18970099D01*
X13045825Y-18941527D01*
X13017253Y-18927241D01*
X12974396Y-18927241D01*
X12945825Y-18941527D01*
X12931539Y-18955813D01*
X13245825Y-19127241D02*
X13217253Y-19112956D01*
X13202967Y-19098670D01*
X13188682Y-19070099D01*
X13188682Y-18984384D01*
X13202967Y-18955813D01*
X13217253Y-18941527D01*
X13245825Y-18927241D01*
X13288682Y-18927241D01*
X13317253Y-18941527D01*
X13331539Y-18955813D01*
X13345825Y-18984384D01*
X13345825Y-19070099D01*
X13331539Y-19098670D01*
X13317253Y-19112956D01*
X13288682Y-19127241D01*
X13245825Y-19127241D01*
X13517253Y-19127241D02*
X13488682Y-19112956D01*
X13474396Y-19084384D01*
X13474396Y-18827241D01*
X13745825Y-19112956D02*
X13717253Y-19127241D01*
X13660110Y-19127241D01*
X13631539Y-19112956D01*
X13617253Y-19084384D01*
X13617253Y-18970099D01*
X13631539Y-18941527D01*
X13660110Y-18927241D01*
X13717253Y-18927241D01*
X13745825Y-18941527D01*
X13760110Y-18970099D01*
X13760110Y-18998670D01*
X13617253Y-19027241D01*
X13874396Y-19112956D02*
X13902967Y-19127241D01*
X13960110Y-19127241D01*
X13988682Y-19112956D01*
X14002967Y-19084384D01*
X14002967Y-19070099D01*
X13988682Y-19041527D01*
X13960110Y-19027241D01*
X13917253Y-19027241D01*
X13888682Y-19012956D01*
X13874396Y-18984384D01*
X13874396Y-18970099D01*
X13888682Y-18941527D01*
X13917253Y-18927241D01*
X13960110Y-18927241D01*
X13988682Y-18941527D01*
X14102967Y-19241527D02*
X14117253Y-19227241D01*
X14145825Y-19184384D01*
X14160110Y-19155813D01*
X14174396Y-19112956D01*
X14188682Y-19041527D01*
X14188682Y-18984384D01*
X14174396Y-18912956D01*
X14160110Y-18870099D01*
X14145825Y-18841527D01*
X14117253Y-18798670D01*
X14102967Y-18784384D01*
X14645825Y-19241527D02*
X14631539Y-19227241D01*
X14602967Y-19184384D01*
X14588682Y-19155813D01*
X14574396Y-19112956D01*
X14560110Y-19041527D01*
X14560110Y-18984384D01*
X14574396Y-18912956D01*
X14588682Y-18870099D01*
X14602967Y-18841527D01*
X14631539Y-18798670D01*
X14645825Y-18784384D01*
X14760110Y-18927241D02*
X14760110Y-19127241D01*
X14760110Y-18955813D02*
X14774396Y-18941527D01*
X14802967Y-18927241D01*
X14845825Y-18927241D01*
X14874396Y-18941527D01*
X14888682Y-18970099D01*
X14888682Y-19127241D01*
X15074396Y-19127241D02*
X15045825Y-19112956D01*
X15031539Y-19098670D01*
X15017253Y-19070099D01*
X15017253Y-18984384D01*
X15031539Y-18955813D01*
X15045825Y-18941527D01*
X15074396Y-18927241D01*
X15117253Y-18927241D01*
X15145825Y-18941527D01*
X15160110Y-18955813D01*
X15174396Y-18984384D01*
X15174396Y-19070099D01*
X15160110Y-19098670D01*
X15145825Y-19112956D01*
X15117253Y-19127241D01*
X15074396Y-19127241D01*
X15260110Y-18927241D02*
X15374396Y-18927241D01*
X15302967Y-18827241D02*
X15302967Y-19084384D01*
X15317253Y-19112956D01*
X15345825Y-19127241D01*
X15374396Y-19127241D01*
X15702967Y-18927241D02*
X15702967Y-19227241D01*
X15702967Y-18941527D02*
X15731539Y-18927241D01*
X15788682Y-18927241D01*
X15817253Y-18941527D01*
X15831539Y-18955813D01*
X15845825Y-18984384D01*
X15845825Y-19070099D01*
X15831539Y-19098670D01*
X15817253Y-19112956D01*
X15788682Y-19127241D01*
X15731539Y-19127241D01*
X15702967Y-19112956D01*
X16017253Y-19127241D02*
X15988682Y-19112956D01*
X15974396Y-19084384D01*
X15974396Y-18827241D01*
X16260110Y-19127241D02*
X16260110Y-18970099D01*
X16245825Y-18941527D01*
X16217253Y-18927241D01*
X16160110Y-18927241D01*
X16131539Y-18941527D01*
X16260110Y-19112956D02*
X16231539Y-19127241D01*
X16160110Y-19127241D01*
X16131539Y-19112956D01*
X16117253Y-19084384D01*
X16117253Y-19055813D01*
X16131539Y-19027241D01*
X16160110Y-19012956D01*
X16231539Y-19012956D01*
X16260110Y-18998670D01*
X16360110Y-18927241D02*
X16474396Y-18927241D01*
X16402967Y-18827241D02*
X16402967Y-19084384D01*
X16417253Y-19112956D01*
X16445825Y-19127241D01*
X16474396Y-19127241D01*
X16688682Y-19112956D02*
X16660110Y-19127241D01*
X16602967Y-19127241D01*
X16574396Y-19112956D01*
X16560110Y-19084384D01*
X16560110Y-18970099D01*
X16574396Y-18941527D01*
X16602967Y-18927241D01*
X16660110Y-18927241D01*
X16688682Y-18941527D01*
X16702967Y-18970099D01*
X16702967Y-18998670D01*
X16560110Y-19027241D01*
X16960110Y-19127241D02*
X16960110Y-18827241D01*
X16960110Y-19112956D02*
X16931539Y-19127241D01*
X16874396Y-19127241D01*
X16845825Y-19112956D01*
X16831539Y-19098670D01*
X16817253Y-19070099D01*
X16817253Y-18984384D01*
X16831539Y-18955813D01*
X16845825Y-18941527D01*
X16874396Y-18927241D01*
X16931539Y-18927241D01*
X16960110Y-18941527D01*
X17074396Y-19241527D02*
X17088682Y-19227241D01*
X17117253Y-19184384D01*
X17131539Y-19155813D01*
X17145825Y-19112956D01*
X17160110Y-19041527D01*
X17160110Y-18984384D01*
X17145825Y-18912956D01*
X17131539Y-18870099D01*
X17117253Y-18841527D01*
X17088682Y-18798670D01*
X17074396Y-18784384D01*
X7453539Y-19601527D02*
X7616539Y-19438527D01*
X7453539Y-19275527D01*
X7290539Y-19438527D01*
X7453539Y-19601527D01*
X7568798Y-19553787D02*
X7568798Y-19323268D01*
X7338279Y-19323268D01*
X7338279Y-19553787D01*
X7568798Y-19553787D01*
X7874396Y-19274241D02*
X8060110Y-19274241D01*
X7960110Y-19388527D01*
X8002967Y-19388527D01*
X8031539Y-19402813D01*
X8045825Y-19417099D01*
X8060110Y-19445670D01*
X8060110Y-19517099D01*
X8045825Y-19545670D01*
X8031539Y-19559956D01*
X8002967Y-19574241D01*
X7917253Y-19574241D01*
X7888682Y-19559956D01*
X7874396Y-19545670D01*
X8188682Y-19545670D02*
X8202967Y-19559956D01*
X8188682Y-19574241D01*
X8174396Y-19559956D01*
X8188682Y-19545670D01*
X8188682Y-19574241D01*
X8317253Y-19302813D02*
X8331539Y-19288527D01*
X8360110Y-19274241D01*
X8431539Y-19274241D01*
X8460110Y-19288527D01*
X8474396Y-19302813D01*
X8488682Y-19331384D01*
X8488682Y-19359956D01*
X8474396Y-19402813D01*
X8302967Y-19574241D01*
X8488682Y-19574241D01*
X8745825Y-19274241D02*
X8688682Y-19274241D01*
X8660110Y-19288527D01*
X8645825Y-19302813D01*
X8617253Y-19345670D01*
X8602967Y-19402813D01*
X8602967Y-19517099D01*
X8617253Y-19545670D01*
X8631539Y-19559956D01*
X8660110Y-19574241D01*
X8717253Y-19574241D01*
X8745825Y-19559956D01*
X8760110Y-19545670D01*
X8774396Y-19517099D01*
X8774396Y-19445670D01*
X8760110Y-19417099D01*
X8745825Y-19402813D01*
X8717253Y-19388527D01*
X8660110Y-19388527D01*
X8631539Y-19402813D01*
X8617253Y-19417099D01*
X8602967Y-19445670D01*
X8902967Y-19574241D02*
X8902967Y-19374241D01*
X8902967Y-19402813D02*
X8917253Y-19388527D01*
X8945825Y-19374241D01*
X8988682Y-19374241D01*
X9017253Y-19388527D01*
X9031539Y-19417099D01*
X9031539Y-19574241D01*
X9031539Y-19417099D02*
X9045825Y-19388527D01*
X9074396Y-19374241D01*
X9117253Y-19374241D01*
X9145825Y-19388527D01*
X9160110Y-19417099D01*
X9160110Y-19574241D01*
X9302967Y-19574241D02*
X9302967Y-19374241D01*
X9302967Y-19402813D02*
X9317253Y-19388527D01*
X9345825Y-19374241D01*
X9388682Y-19374241D01*
X9417253Y-19388527D01*
X9431539Y-19417099D01*
X9431539Y-19574241D01*
X9431539Y-19417099D02*
X9445825Y-19388527D01*
X9474396Y-19374241D01*
X9517253Y-19374241D01*
X9545825Y-19388527D01*
X9560110Y-19417099D01*
X9560110Y-19574241D01*
X10145825Y-19259956D02*
X9888682Y-19645670D01*
X10531539Y-19274241D02*
X10560110Y-19274241D01*
X10588682Y-19288527D01*
X10602967Y-19302813D01*
X10617253Y-19331384D01*
X10631539Y-19388527D01*
X10631539Y-19459956D01*
X10617253Y-19517099D01*
X10602967Y-19545670D01*
X10588682Y-19559956D01*
X10560110Y-19574241D01*
X10531539Y-19574241D01*
X10502967Y-19559956D01*
X10488682Y-19545670D01*
X10474396Y-19517099D01*
X10460110Y-19459956D01*
X10460110Y-19388527D01*
X10474396Y-19331384D01*
X10488682Y-19302813D01*
X10502967Y-19288527D01*
X10531539Y-19274241D01*
X10760110Y-19545670D02*
X10774396Y-19559956D01*
X10760110Y-19574241D01*
X10745825Y-19559956D01*
X10760110Y-19545670D01*
X10760110Y-19574241D01*
X11060110Y-19574241D02*
X10888682Y-19574241D01*
X10974396Y-19574241D02*
X10974396Y-19274241D01*
X10945825Y-19317099D01*
X10917253Y-19345670D01*
X10888682Y-19359956D01*
X11174396Y-19302813D02*
X11188682Y-19288527D01*
X11217253Y-19274241D01*
X11288682Y-19274241D01*
X11317253Y-19288527D01*
X11331539Y-19302813D01*
X11345825Y-19331384D01*
X11345825Y-19359956D01*
X11331539Y-19402813D01*
X11160110Y-19574241D01*
X11345825Y-19574241D01*
X11517253Y-19402813D02*
X11488682Y-19388527D01*
X11474396Y-19374241D01*
X11460110Y-19345670D01*
X11460110Y-19331384D01*
X11474396Y-19302813D01*
X11488682Y-19288527D01*
X11517253Y-19274241D01*
X11574396Y-19274241D01*
X11602967Y-19288527D01*
X11617253Y-19302813D01*
X11631539Y-19331384D01*
X11631539Y-19345670D01*
X11617253Y-19374241D01*
X11602967Y-19388527D01*
X11574396Y-19402813D01*
X11517253Y-19402813D01*
X11488682Y-19417099D01*
X11474396Y-19431384D01*
X11460110Y-19459956D01*
X11460110Y-19517099D01*
X11474396Y-19545670D01*
X11488682Y-19559956D01*
X11517253Y-19574241D01*
X11574396Y-19574241D01*
X11602967Y-19559956D01*
X11617253Y-19545670D01*
X11631539Y-19517099D01*
X11631539Y-19459956D01*
X11617253Y-19431384D01*
X11602967Y-19417099D01*
X11574396Y-19402813D01*
X11745825Y-19274241D02*
X11745825Y-19331384D01*
X11860110Y-19274241D02*
X11860110Y-19331384D01*
X12302967Y-19688527D02*
X12288682Y-19674241D01*
X12260110Y-19631384D01*
X12245825Y-19602813D01*
X12231539Y-19559956D01*
X12217253Y-19488527D01*
X12217253Y-19431384D01*
X12231539Y-19359956D01*
X12245825Y-19317099D01*
X12260110Y-19288527D01*
X12288682Y-19245670D01*
X12302967Y-19231384D01*
X12388682Y-19274241D02*
X12574396Y-19274241D01*
X12474396Y-19388527D01*
X12517253Y-19388527D01*
X12545825Y-19402813D01*
X12560110Y-19417099D01*
X12574396Y-19445670D01*
X12574396Y-19517099D01*
X12560110Y-19545670D01*
X12545825Y-19559956D01*
X12517253Y-19574241D01*
X12431539Y-19574241D01*
X12402967Y-19559956D01*
X12388682Y-19545670D01*
X12931539Y-19574241D02*
X12931539Y-19274241D01*
X13060110Y-19574241D02*
X13060110Y-19417099D01*
X13045825Y-19388527D01*
X13017253Y-19374241D01*
X12974396Y-19374241D01*
X12945825Y-19388527D01*
X12931539Y-19402813D01*
X13245825Y-19574241D02*
X13217253Y-19559956D01*
X13202967Y-19545670D01*
X13188682Y-19517099D01*
X13188682Y-19431384D01*
X13202967Y-19402813D01*
X13217253Y-19388527D01*
X13245825Y-19374241D01*
X13288682Y-19374241D01*
X13317253Y-19388527D01*
X13331539Y-19402813D01*
X13345825Y-19431384D01*
X13345825Y-19517099D01*
X13331539Y-19545670D01*
X13317253Y-19559956D01*
X13288682Y-19574241D01*
X13245825Y-19574241D01*
X13517253Y-19574241D02*
X13488682Y-19559956D01*
X13474396Y-19531384D01*
X13474396Y-19274241D01*
X13745825Y-19559956D02*
X13717253Y-19574241D01*
X13660110Y-19574241D01*
X13631539Y-19559956D01*
X13617253Y-19531384D01*
X13617253Y-19417099D01*
X13631539Y-19388527D01*
X13660110Y-19374241D01*
X13717253Y-19374241D01*
X13745825Y-19388527D01*
X13760110Y-19417099D01*
X13760110Y-19445670D01*
X13617253Y-19474241D01*
X13874396Y-19559956D02*
X13902967Y-19574241D01*
X13960110Y-19574241D01*
X13988682Y-19559956D01*
X14002967Y-19531384D01*
X14002967Y-19517099D01*
X13988682Y-19488527D01*
X13960110Y-19474241D01*
X13917253Y-19474241D01*
X13888682Y-19459956D01*
X13874396Y-19431384D01*
X13874396Y-19417099D01*
X13888682Y-19388527D01*
X13917253Y-19374241D01*
X13960110Y-19374241D01*
X13988682Y-19388527D01*
X14102967Y-19688527D02*
X14117253Y-19674241D01*
X14145825Y-19631384D01*
X14160110Y-19602813D01*
X14174396Y-19559956D01*
X14188682Y-19488527D01*
X14188682Y-19431384D01*
X14174396Y-19359956D01*
X14160110Y-19317099D01*
X14145825Y-19288527D01*
X14117253Y-19245670D01*
X14102967Y-19231384D01*
X14645825Y-19688527D02*
X14631539Y-19674241D01*
X14602967Y-19631384D01*
X14588682Y-19602813D01*
X14574396Y-19559956D01*
X14560110Y-19488527D01*
X14560110Y-19431384D01*
X14574396Y-19359956D01*
X14588682Y-19317099D01*
X14602967Y-19288527D01*
X14631539Y-19245670D01*
X14645825Y-19231384D01*
X14760110Y-19374241D02*
X14760110Y-19574241D01*
X14760110Y-19402813D02*
X14774396Y-19388527D01*
X14802967Y-19374241D01*
X14845825Y-19374241D01*
X14874396Y-19388527D01*
X14888682Y-19417099D01*
X14888682Y-19574241D01*
X15074396Y-19574241D02*
X15045825Y-19559956D01*
X15031539Y-19545670D01*
X15017253Y-19517099D01*
X15017253Y-19431384D01*
X15031539Y-19402813D01*
X15045825Y-19388527D01*
X15074396Y-19374241D01*
X15117253Y-19374241D01*
X15145825Y-19388527D01*
X15160110Y-19402813D01*
X15174396Y-19431384D01*
X15174396Y-19517099D01*
X15160110Y-19545670D01*
X15145825Y-19559956D01*
X15117253Y-19574241D01*
X15074396Y-19574241D01*
X15260110Y-19374241D02*
X15374396Y-19374241D01*
X15302967Y-19274241D02*
X15302967Y-19531384D01*
X15317253Y-19559956D01*
X15345825Y-19574241D01*
X15374396Y-19574241D01*
X15702967Y-19374241D02*
X15702967Y-19674241D01*
X15702967Y-19388527D02*
X15731539Y-19374241D01*
X15788682Y-19374241D01*
X15817253Y-19388527D01*
X15831539Y-19402813D01*
X15845825Y-19431384D01*
X15845825Y-19517099D01*
X15831539Y-19545670D01*
X15817253Y-19559956D01*
X15788682Y-19574241D01*
X15731539Y-19574241D01*
X15702967Y-19559956D01*
X16017253Y-19574241D02*
X15988682Y-19559956D01*
X15974396Y-19531384D01*
X15974396Y-19274241D01*
X16260110Y-19574241D02*
X16260110Y-19417099D01*
X16245825Y-19388527D01*
X16217253Y-19374241D01*
X16160110Y-19374241D01*
X16131539Y-19388527D01*
X16260110Y-19559956D02*
X16231539Y-19574241D01*
X16160110Y-19574241D01*
X16131539Y-19559956D01*
X16117253Y-19531384D01*
X16117253Y-19502813D01*
X16131539Y-19474241D01*
X16160110Y-19459956D01*
X16231539Y-19459956D01*
X16260110Y-19445670D01*
X16360110Y-19374241D02*
X16474396Y-19374241D01*
X16402967Y-19274241D02*
X16402967Y-19531384D01*
X16417253Y-19559956D01*
X16445825Y-19574241D01*
X16474396Y-19574241D01*
X16688682Y-19559956D02*
X16660110Y-19574241D01*
X16602967Y-19574241D01*
X16574396Y-19559956D01*
X16560110Y-19531384D01*
X16560110Y-19417099D01*
X16574396Y-19388527D01*
X16602967Y-19374241D01*
X16660110Y-19374241D01*
X16688682Y-19388527D01*
X16702967Y-19417099D01*
X16702967Y-19445670D01*
X16560110Y-19474241D01*
X16960110Y-19574241D02*
X16960110Y-19274241D01*
X16960110Y-19559956D02*
X16931539Y-19574241D01*
X16874396Y-19574241D01*
X16845825Y-19559956D01*
X16831539Y-19545670D01*
X16817253Y-19517099D01*
X16817253Y-19431384D01*
X16831539Y-19402813D01*
X16845825Y-19388527D01*
X16874396Y-19374241D01*
X16931539Y-19374241D01*
X16960110Y-19388527D01*
X17074396Y-19688527D02*
X17088682Y-19674241D01*
X17117253Y-19631384D01*
X17131539Y-19602813D01*
X17145825Y-19559956D01*
X17160110Y-19488527D01*
X17160110Y-19431384D01*
X17145825Y-19359956D01*
X17131539Y-19317099D01*
X17117253Y-19288527D01*
X17088682Y-19245670D01*
X17074396Y-19231384D01*
M02*
