%TF.GenerationSoftware,KiCad,Pcbnew,(5.0.0-rc2-100-g6d77e594b)*%
%TF.CreationDate,2018-06-08T00:04:51-04:00*%
%TF.ProjectId,Logic&Oscillator,4C6F676963264F7363696C6C61746F72,1.0.2*%
%TF.SameCoordinates,Original*%
%TF.FileFunction,Copper,L1,Top,Signal*%
%TF.FilePolarity,Positive*%
%FSLAX46Y46*%
G04 Gerber Fmt 4.6, Leading zero omitted, Abs format (unit mm)*
G04 Created by KiCad (PCBNEW (5.0.0-rc2-100-g6d77e594b)) date 06/08/18 00:04:51*
%MOMM*%
%LPD*%
G01*
G04 APERTURE LIST*
%TA.AperFunction,ComponentPad*%
%ADD10C,1.120000*%
%TD*%
%TA.AperFunction,ComponentPad*%
%ADD11R,1.120000X1.120000*%
%TD*%
%TA.AperFunction,ComponentPad*%
%ADD12C,1.460000*%
%TD*%
%TA.AperFunction,ComponentPad*%
%ADD13R,1.460000X1.460000*%
%TD*%
%TA.AperFunction,ComponentPad*%
%ADD14C,1.410000*%
%TD*%
%TA.AperFunction,ComponentPad*%
%ADD15R,1.410000X1.410000*%
%TD*%
%TA.AperFunction,ComponentPad*%
%ADD16C,1.400000*%
%TD*%
%TA.AperFunction,ComponentPad*%
%ADD17R,1.400000X1.400000*%
%TD*%
%TA.AperFunction,ComponentPad*%
%ADD18C,1.198880*%
%TD*%
%TA.AperFunction,ComponentPad*%
%ADD19R,1.120140X1.120140*%
%TD*%
%TA.AperFunction,ComponentPad*%
%ADD20C,3.500000*%
%TD*%
%TA.AperFunction,ComponentPad*%
%ADD21R,4.500000X4.500000*%
%TD*%
%TA.AperFunction,ComponentPad*%
%ADD22C,1.440000*%
%TD*%
%TA.AperFunction,ComponentPad*%
%ADD23R,1.440000X1.440000*%
%TD*%
%TA.AperFunction,ComponentPad*%
%ADD24R,0.762000X0.762000*%
%TD*%
%TA.AperFunction,ComponentPad*%
%ADD25R,7.940000X7.940000*%
%TD*%
%TA.AperFunction,ComponentPad*%
%ADD26R,1.530000X1.530000*%
%TD*%
%TA.AperFunction,ComponentPad*%
%ADD27C,1.530000*%
%TD*%
%TA.AperFunction,ComponentPad*%
%ADD28R,1.107440X1.107440*%
%TD*%
%TA.AperFunction,ComponentPad*%
%ADD29C,1.107440*%
%TD*%
%TA.AperFunction,ComponentPad*%
%ADD30R,2.120000X1.700000*%
%TD*%
%TA.AperFunction,ComponentPad*%
%ADD31O,2.120000X1.700000*%
%TD*%
%TA.AperFunction,ViaPad*%
%ADD32C,0.685800*%
%TD*%
%TA.AperFunction,Conductor*%
%ADD33C,1.778000*%
%TD*%
%TA.AperFunction,Conductor*%
%ADD34C,0.152400*%
%TD*%
%TA.AperFunction,Conductor*%
%ADD35C,0.254000*%
%TD*%
G04 APERTURE END LIST*
D10*
%TO.P,C3,2*%
%TO.N,GND*%
X106695390Y-116210270D03*
D11*
%TO.P,C3,1*%
%TO.N,+5V*%
X104155390Y-116210270D03*
%TD*%
D10*
%TO.P,C6,2*%
%TO.N,GND*%
X157495390Y-118750270D03*
D11*
%TO.P,C6,1*%
%TO.N,+5V*%
X157495390Y-121290270D03*
%TD*%
D10*
%TO.P,C8,2*%
%TO.N,GND*%
X137175390Y-96525270D03*
D11*
%TO.P,C8,1*%
%TO.N,+5V*%
X137175390Y-93985270D03*
%TD*%
D12*
%TO.P,R2,3*%
%TO.N,/IR_Osc*%
X180355390Y-113035270D03*
%TO.P,R2,2*%
X182895390Y-113035270D03*
D13*
%TO.P,R2,1*%
%TO.N,Net-(R1-Pad2)*%
X185435390Y-113035270D03*
%TD*%
D14*
%TO.P,Q1,3*%
%TO.N,/~IR_Osc*%
X175745140Y-109796770D03*
%TO.P,Q1,2*%
%TO.N,/IR_Osc*%
X177815390Y-107955270D03*
D15*
%TO.P,Q1,1*%
%TO.N,GND*%
X175745140Y-106113770D03*
%TD*%
D16*
%TO.P,U1,8*%
%TO.N,+5V*%
X186705390Y-96520000D03*
%TO.P,U1,7*%
%TO.N,N/C*%
X186705390Y-99060000D03*
%TO.P,U1,6*%
%TO.N,Net-(C2-Pad1)*%
X186705390Y-101600000D03*
%TO.P,U1,5*%
%TO.N,N/C*%
X186705390Y-104140000D03*
%TO.P,U1,4*%
%TO.N,/IR_Enable*%
X179085390Y-104140000D03*
%TO.P,U1,3*%
%TO.N,/IR_Osc*%
X179085390Y-101600000D03*
%TO.P,U1,2*%
%TO.N,Net-(C2-Pad1)*%
X179085390Y-99060000D03*
D17*
%TO.P,U1,1*%
%TO.N,GND*%
X179085390Y-96520000D03*
%TD*%
D16*
%TO.P,U3,8*%
%TO.N,/~IR_Osc+*%
X171465390Y-101605270D03*
%TO.P,U3,7*%
%TO.N,/~IR_Osc-*%
X171465390Y-104145270D03*
%TO.P,U3,6*%
%TO.N,N/C*%
X171465390Y-106685270D03*
%TO.P,U3,5*%
X171465390Y-109225270D03*
%TO.P,U3,4*%
%TO.N,GND*%
X163845390Y-109225270D03*
%TO.P,U3,3*%
X163845390Y-106685270D03*
%TO.P,U3,2*%
%TO.N,/~IR_Osc*%
X163845390Y-104145270D03*
D17*
%TO.P,U3,1*%
%TO.N,+5V*%
X163845390Y-101605270D03*
%TD*%
D16*
%TO.P,U4,8*%
%TO.N,/~SS+*%
X104155390Y-91445270D03*
%TO.P,U4,7*%
%TO.N,/~SS-*%
X101615390Y-91445270D03*
%TO.P,U4,6*%
%TO.N,/SCK+*%
X99075390Y-91445270D03*
%TO.P,U4,5*%
%TO.N,/SCK-*%
X96535390Y-91445270D03*
%TO.P,U4,4*%
%TO.N,GND*%
X96535390Y-83825270D03*
%TO.P,U4,3*%
%TO.N,/SCK*%
X99075390Y-83825270D03*
%TO.P,U4,2*%
%TO.N,/~SS*%
X101615390Y-83825270D03*
D17*
%TO.P,U4,1*%
%TO.N,+5V*%
X104155390Y-83825270D03*
%TD*%
D16*
%TO.P,U5,8*%
%TO.N,/MISO+*%
X104155390Y-104145270D03*
%TO.P,U5,7*%
%TO.N,/MISO-*%
X101615390Y-104145270D03*
%TO.P,U5,6*%
%TO.N,/MOSI+*%
X99075390Y-104145270D03*
%TO.P,U5,5*%
%TO.N,/MOSI-*%
X96535390Y-104145270D03*
%TO.P,U5,4*%
%TO.N,GND*%
X96535390Y-96525270D03*
%TO.P,U5,3*%
%TO.N,/MOSI*%
X99075390Y-96525270D03*
%TO.P,U5,2*%
%TO.N,/MISO*%
X101615390Y-96525270D03*
D17*
%TO.P,U5,1*%
%TO.N,+5V*%
X104155390Y-96525270D03*
%TD*%
D18*
%TO.P,C1,2*%
%TO.N,GND*%
X184165390Y-93985270D03*
D19*
%TO.P,C1,1*%
%TO.N,+5V*%
X186705390Y-93985270D03*
%TD*%
D18*
%TO.P,C2,2*%
%TO.N,GND*%
X182895390Y-107955270D03*
D19*
%TO.P,C2,1*%
%TO.N,Net-(C2-Pad1)*%
X185435390Y-107955270D03*
%TD*%
D18*
%TO.P,C4,2*%
%TO.N,GND*%
X106695390Y-120020270D03*
D19*
%TO.P,C4,1*%
%TO.N,+5V*%
X104155390Y-120020270D03*
%TD*%
D18*
%TO.P,C5,2*%
%TO.N,GND*%
X153685390Y-118750270D03*
D19*
%TO.P,C5,1*%
%TO.N,+5V*%
X153685390Y-121290270D03*
%TD*%
D18*
%TO.P,C7,2*%
%TO.N,GND*%
X140985390Y-96525270D03*
D19*
%TO.P,C7,1*%
%TO.N,+5V*%
X140985390Y-93985270D03*
%TD*%
D18*
%TO.P,C9,2*%
%TO.N,GND*%
X166385390Y-99065270D03*
D19*
%TO.P,C9,1*%
%TO.N,+5V*%
X163845390Y-99065270D03*
%TD*%
D18*
%TO.P,C10,2*%
%TO.N,GND*%
X106695390Y-86365270D03*
D19*
%TO.P,C10,1*%
%TO.N,+5V*%
X106695390Y-83825270D03*
%TD*%
D18*
%TO.P,C11,2*%
%TO.N,GND*%
X106695390Y-99065270D03*
D19*
%TO.P,C11,1*%
%TO.N,+5V*%
X106695390Y-96525270D03*
%TD*%
D20*
%TO.P,J1,3*%
%TO.N,GND*%
X92775390Y-117220270D03*
%TO.P,J1,2*%
X95575390Y-114420270D03*
D21*
%TO.P,J1,1*%
%TO.N,+5V*%
X99075390Y-120020270D03*
%TD*%
D20*
%TO.P,J2,3*%
%TO.N,GND*%
X142305390Y-117220270D03*
%TO.P,J2,2*%
X145105390Y-114420270D03*
D21*
%TO.P,J2,1*%
%TO.N,+5V*%
X148605390Y-120020270D03*
%TD*%
D22*
%TO.P,J3,8*%
%TO.N,GND*%
X158765390Y-99065270D03*
%TO.P,J3,7*%
X156225390Y-97795270D03*
%TO.P,J3,6*%
X158765390Y-96525270D03*
%TO.P,J3,5*%
%TO.N,/~IR_Osc-*%
X156225390Y-95255270D03*
%TO.P,J3,4*%
%TO.N,/~IR_Osc+*%
X158765390Y-93985270D03*
%TO.P,J3,3*%
%TO.N,+5V*%
X156225390Y-92715270D03*
%TO.P,J3,2*%
X158765390Y-91445270D03*
D23*
%TO.P,J3,1*%
X156225390Y-90175270D03*
%TD*%
D22*
%TO.P,J4,8*%
%TO.N,/SCK-*%
X91455390Y-99065270D03*
%TO.P,J4,7*%
%TO.N,/SCK+*%
X88915390Y-97795270D03*
%TO.P,J4,6*%
%TO.N,/MISO-*%
X91455390Y-96525270D03*
%TO.P,J4,5*%
%TO.N,/MOSI-*%
X88915390Y-95255270D03*
%TO.P,J4,4*%
%TO.N,/MOSI+*%
X91455390Y-93985270D03*
%TO.P,J4,3*%
%TO.N,/MISO+*%
X88915390Y-92715270D03*
%TO.P,J4,2*%
%TO.N,/~SS-*%
X91455390Y-91445270D03*
D23*
%TO.P,J4,1*%
%TO.N,/~SS+*%
X88915390Y-90175270D03*
%TD*%
D24*
%TO.P,MH1,0*%
%TO.N,GND*%
X84836000Y-118364000D03*
X84836000Y-121920000D03*
X84836000Y-125476000D03*
X81280000Y-125476000D03*
X77724000Y-125476000D03*
X77724000Y-121920000D03*
X77724000Y-118364000D03*
X81280000Y-118364000D03*
D25*
X81280000Y-121920000D03*
%TD*%
D26*
%TO.P,R1,1*%
%TO.N,Net-(C2-Pad1)*%
X189245390Y-104145270D03*
D27*
%TO.P,R1,2*%
%TO.N,Net-(R1-Pad2)*%
X189245390Y-114305270D03*
%TD*%
D26*
%TO.P,R3,1*%
%TO.N,+5V*%
X166385390Y-113035270D03*
D27*
%TO.P,R3,2*%
%TO.N,/~IR_Osc*%
X176545390Y-113035270D03*
%TD*%
D28*
%TO.P,R4,1*%
%TO.N,/MISO+*%
X104155390Y-106685270D03*
D29*
%TO.P,R4,2*%
%TO.N,/MISO-*%
X101615390Y-106685270D03*
%TD*%
D30*
%TO.P,U2,1*%
%TO.N,N/C*%
X129765390Y-121925270D03*
D31*
%TO.P,U2,2*%
X129765390Y-119385270D03*
%TO.P,U2,3*%
X129765390Y-116845270D03*
%TO.P,U2,4*%
%TO.N,GND*%
X129765390Y-114305270D03*
%TO.P,U2,5*%
%TO.N,N/C*%
X129765390Y-111765270D03*
%TO.P,U2,6*%
X129765390Y-109225270D03*
%TO.P,U2,7*%
X129765390Y-106685270D03*
%TO.P,U2,8*%
X129765390Y-104145270D03*
%TO.P,U2,9*%
X129765390Y-101605270D03*
%TO.P,U2,10*%
X129765390Y-99065270D03*
%TO.P,U2,11*%
X129765390Y-96525270D03*
%TO.P,U2,12*%
%TO.N,/IR_Enable*%
X129765390Y-93985270D03*
%TO.P,U2,13*%
%TO.N,/~SS*%
X114105390Y-93985270D03*
%TO.P,U2,14*%
%TO.N,/MOSI*%
X114105390Y-96525270D03*
%TO.P,U2,15*%
%TO.N,/MISO*%
X114105390Y-99065270D03*
%TO.P,U2,16*%
%TO.N,/SCK*%
X114105390Y-101605270D03*
%TO.P,U2,17*%
%TO.N,N/C*%
X114105390Y-104145270D03*
%TO.P,U2,18*%
X114105390Y-106685270D03*
%TO.P,U2,19*%
X114105390Y-109225270D03*
%TO.P,U2,20*%
X114105390Y-111765270D03*
%TO.P,U2,21*%
%TO.N,+5V*%
X114105390Y-114305270D03*
%TO.P,U2,22*%
%TO.N,N/C*%
X114105390Y-116845270D03*
%TO.P,U2,23*%
%TO.N,GND*%
X114105390Y-119385270D03*
%TO.P,U2,24*%
%TO.N,N/C*%
X114105390Y-121925270D03*
%TO.P,U2,A4*%
X117446390Y-110622270D03*
%TO.P,U2,A5*%
X117446390Y-113162270D03*
%TO.P,U2,A6*%
X117446390Y-100157470D03*
%TO.P,U2,A7*%
X117446390Y-102697470D03*
%TD*%
D32*
%TO.N,GND*%
X161295270Y-106685270D03*
%TD*%
D33*
%TO.N,+5V*%
X186705390Y-93985270D02*
X186705390Y-96520000D01*
X163845390Y-99065270D02*
X163845390Y-101605270D01*
X106695390Y-96525270D02*
X104155390Y-96525270D01*
X106695390Y-83825270D02*
X104155390Y-83825270D01*
X157495390Y-121290270D02*
X153685390Y-121290270D01*
X153685390Y-121290270D02*
X149875390Y-121290270D01*
X149875390Y-121290270D02*
X148605390Y-120020270D01*
X148605390Y-120020270D02*
X148605390Y-120665390D01*
X104155390Y-120020270D02*
X104155390Y-116210270D01*
X99075390Y-120020270D02*
X104155390Y-120020270D01*
X140985390Y-93985270D02*
X137175390Y-93985270D01*
X156225390Y-92715270D02*
X154955390Y-93985270D01*
X154955390Y-93985270D02*
X140985390Y-93985270D01*
X156225390Y-90175270D02*
X156225390Y-92715270D01*
X158765390Y-91445270D02*
X157495390Y-91445270D01*
X157495390Y-91445270D02*
X156225390Y-90175270D01*
X157495390Y-91445270D02*
X156225390Y-92715270D01*
D34*
%TO.N,/SCK+*%
X99075390Y-91445270D02*
X97947670Y-91445270D01*
X97947670Y-91445270D02*
X97942400Y-91440000D01*
X97942400Y-90106874D02*
X97942400Y-91440000D01*
X97218126Y-89382600D02*
X97942400Y-90106874D01*
X95821874Y-89382600D02*
X97218126Y-89382600D01*
X94462600Y-90741874D02*
X95821874Y-89382600D01*
X94462600Y-95627008D02*
X94462600Y-90741874D01*
X88915390Y-97795270D02*
X92294338Y-97795270D01*
X92294338Y-97795270D02*
X94462600Y-95627008D01*
%TO.N,/SCK-*%
X91455390Y-99065270D02*
X94767400Y-95753260D01*
X94832850Y-93540306D02*
X94797109Y-93483425D01*
X95526071Y-94882969D02*
X95462662Y-94860781D01*
X94797109Y-94683425D02*
X94774921Y-94620016D01*
X95688384Y-95220016D02*
X95695906Y-95153260D01*
X94767400Y-95753260D02*
X94774921Y-95686503D01*
X94774921Y-95686503D02*
X94797109Y-95623094D01*
X95067400Y-93653260D02*
X95000643Y-93645738D01*
X94797109Y-93483425D02*
X94774921Y-93420016D01*
X94797109Y-95623094D02*
X94832850Y-95566213D01*
X95526071Y-93682969D02*
X95462662Y-93660781D01*
X94832850Y-94740306D02*
X94797109Y-94683425D01*
X94797109Y-94423094D02*
X94832850Y-94366213D01*
X95462662Y-94245738D02*
X95526071Y-94223550D01*
X94832850Y-95566213D02*
X94880353Y-95518710D01*
X94880353Y-95518710D02*
X94937234Y-95482969D01*
X95526071Y-94223550D02*
X95582952Y-94187809D01*
X95630455Y-95340306D02*
X95666196Y-95283425D01*
X94937234Y-95482969D02*
X95000643Y-95460781D01*
X96582330Y-91445270D02*
X96535390Y-91445270D01*
X94774921Y-94620016D02*
X94767400Y-94553260D01*
X95395906Y-95453260D02*
X95462662Y-95445738D01*
X95000643Y-94260781D02*
X95067400Y-94253260D01*
X95000643Y-95460781D02*
X95067400Y-95453260D01*
X95695906Y-95153260D02*
X95688384Y-95086503D01*
X97632330Y-91445270D02*
X96582330Y-91445270D01*
X94880353Y-94787809D02*
X94832850Y-94740306D01*
X95000643Y-94845738D02*
X94937234Y-94823550D01*
X95526071Y-95423550D02*
X95582952Y-95387809D01*
X95067400Y-95453260D02*
X95395906Y-95453260D01*
X95462662Y-95445738D02*
X95526071Y-95423550D01*
X95582952Y-95387809D02*
X95630455Y-95340306D01*
X95666196Y-95283425D02*
X95688384Y-95220016D01*
X95067400Y-94853260D02*
X95000643Y-94845738D01*
X94832850Y-94366213D02*
X94880353Y-94318710D01*
X95688384Y-94020016D02*
X95695906Y-93953260D01*
X95688384Y-95086503D02*
X95666196Y-95023094D01*
X95666196Y-95023094D02*
X95630455Y-94966213D01*
X95630455Y-94140306D02*
X95666196Y-94083425D01*
X95395906Y-94853260D02*
X95067400Y-94853260D01*
X94880353Y-93587809D02*
X94832850Y-93540306D01*
X95582952Y-93718710D02*
X95526071Y-93682969D01*
X95630455Y-94966213D02*
X95582952Y-94918710D01*
X97091874Y-89687400D02*
X97637600Y-90233126D01*
X94767400Y-94553260D02*
X94774921Y-94486503D01*
X95462662Y-93660781D02*
X95395906Y-93653260D01*
X95582952Y-94918710D02*
X95526071Y-94882969D01*
X95462662Y-94860781D02*
X95395906Y-94853260D01*
X95666196Y-93823094D02*
X95630455Y-93766213D01*
X94937234Y-94823550D02*
X94880353Y-94787809D01*
X94774921Y-94486503D02*
X94797109Y-94423094D01*
X94880353Y-94318710D02*
X94937234Y-94282969D01*
X94937234Y-94282969D02*
X95000643Y-94260781D01*
X94767400Y-90868126D02*
X95948126Y-89687400D01*
X95067400Y-94253260D02*
X95395906Y-94253260D01*
X95688384Y-93886503D02*
X95666196Y-93823094D01*
X95395906Y-94253260D02*
X95462662Y-94245738D01*
X95582952Y-94187809D02*
X95630455Y-94140306D01*
X95666196Y-94083425D02*
X95688384Y-94020016D01*
X95695906Y-93953260D02*
X95688384Y-93886503D01*
X94767400Y-93353260D02*
X94767400Y-90868126D01*
X95630455Y-93766213D02*
X95582952Y-93718710D01*
X95395906Y-93653260D02*
X95067400Y-93653260D01*
X95000643Y-93645738D02*
X94937234Y-93623550D01*
X95948126Y-89687400D02*
X97091874Y-89687400D01*
X94937234Y-93623550D02*
X94880353Y-93587809D01*
X94774921Y-93420016D02*
X94767400Y-93353260D01*
X97637600Y-90233126D02*
X97637600Y-91440000D01*
X97637600Y-91440000D02*
X97632330Y-91445270D01*
%TD*%
D35*
%TO.N,GND*%
G36*
X192624390Y-126574270D02*
X76646390Y-126574270D01*
X76646390Y-118776339D01*
X91398926Y-118776339D01*
X91603209Y-119049704D01*
X92392530Y-119359021D01*
X93240138Y-119342732D01*
X93947571Y-119049704D01*
X94151854Y-118776339D01*
X92775390Y-117399875D01*
X91398926Y-118776339D01*
X76646390Y-118776339D01*
X76646390Y-116837410D01*
X90636639Y-116837410D01*
X90652928Y-117685018D01*
X90945956Y-118392451D01*
X91219321Y-118596734D01*
X92595785Y-117220270D01*
X92954995Y-117220270D01*
X94331459Y-118596734D01*
X94604824Y-118392451D01*
X94848642Y-117770270D01*
X96436926Y-117770270D01*
X96436926Y-122270270D01*
X96466496Y-122418929D01*
X96550704Y-122544956D01*
X96676731Y-122629164D01*
X96825390Y-122658734D01*
X101325390Y-122658734D01*
X101474049Y-122629164D01*
X101600076Y-122544956D01*
X101684284Y-122418929D01*
X101713854Y-122270270D01*
X101713854Y-121925270D01*
X112640274Y-121925270D01*
X112735814Y-122405582D01*
X113007889Y-122812771D01*
X113415078Y-123084846D01*
X113774151Y-123156270D01*
X114436629Y-123156270D01*
X114795702Y-123084846D01*
X115202891Y-122812771D01*
X115474966Y-122405582D01*
X115570506Y-121925270D01*
X115474966Y-121444958D01*
X115227949Y-121075270D01*
X128316926Y-121075270D01*
X128316926Y-122775270D01*
X128346496Y-122923929D01*
X128430704Y-123049956D01*
X128556731Y-123134164D01*
X128705390Y-123163734D01*
X130825390Y-123163734D01*
X130974049Y-123134164D01*
X131100076Y-123049956D01*
X131184284Y-122923929D01*
X131213854Y-122775270D01*
X131213854Y-121075270D01*
X131184284Y-120926611D01*
X131100076Y-120800584D01*
X130974049Y-120716376D01*
X130825390Y-120686806D01*
X128705390Y-120686806D01*
X128556731Y-120716376D01*
X128430704Y-120800584D01*
X128346496Y-120926611D01*
X128316926Y-121075270D01*
X115227949Y-121075270D01*
X115202891Y-121037769D01*
X114795702Y-120765694D01*
X114436629Y-120694270D01*
X113774151Y-120694270D01*
X113415078Y-120765694D01*
X113007889Y-121037769D01*
X112735814Y-121444958D01*
X112640274Y-121925270D01*
X101713854Y-121925270D01*
X101713854Y-121290270D01*
X104030310Y-121290270D01*
X104155390Y-121315150D01*
X104280470Y-121290270D01*
X104650919Y-121216583D01*
X105071008Y-120935888D01*
X105199730Y-120743242D01*
X106152023Y-120743242D01*
X106215318Y-120897098D01*
X106587409Y-121014069D01*
X106975939Y-120979743D01*
X107175462Y-120897098D01*
X107238757Y-120743242D01*
X106695390Y-120199875D01*
X106152023Y-120743242D01*
X105199730Y-120743242D01*
X105351703Y-120515799D01*
X105450270Y-120020270D01*
X105428792Y-119912289D01*
X105701591Y-119912289D01*
X105735917Y-120300819D01*
X105818562Y-120500342D01*
X105972418Y-120563637D01*
X106515785Y-120020270D01*
X106874995Y-120020270D01*
X107418362Y-120563637D01*
X107572218Y-120500342D01*
X107689189Y-120128251D01*
X107654863Y-119739721D01*
X107639343Y-119702250D01*
X112705901Y-119702250D01*
X112713630Y-119754344D01*
X112944825Y-120178490D01*
X113320734Y-120481875D01*
X113784130Y-120618312D01*
X113978390Y-120525286D01*
X113978390Y-119512270D01*
X114232390Y-119512270D01*
X114232390Y-120525286D01*
X114426650Y-120618312D01*
X114890046Y-120481875D01*
X115265955Y-120178490D01*
X115497150Y-119754344D01*
X115504879Y-119702250D01*
X115444017Y-119512270D01*
X114232390Y-119512270D01*
X113978390Y-119512270D01*
X112766763Y-119512270D01*
X112705901Y-119702250D01*
X107639343Y-119702250D01*
X107572218Y-119540198D01*
X107418362Y-119476903D01*
X106874995Y-120020270D01*
X106515785Y-120020270D01*
X105972418Y-119476903D01*
X105818562Y-119540198D01*
X105701591Y-119912289D01*
X105428792Y-119912289D01*
X105425390Y-119895190D01*
X105425390Y-119297298D01*
X106152023Y-119297298D01*
X106695390Y-119840665D01*
X107150785Y-119385270D01*
X128300274Y-119385270D01*
X128395814Y-119865582D01*
X128667889Y-120272771D01*
X129075078Y-120544846D01*
X129434151Y-120616270D01*
X130096629Y-120616270D01*
X130455702Y-120544846D01*
X130862891Y-120272771D01*
X131134966Y-119865582D01*
X131230506Y-119385270D01*
X131134966Y-118904958D01*
X131049026Y-118776339D01*
X140928926Y-118776339D01*
X141133209Y-119049704D01*
X141922530Y-119359021D01*
X142770138Y-119342732D01*
X143477571Y-119049704D01*
X143681854Y-118776339D01*
X142305390Y-117399875D01*
X140928926Y-118776339D01*
X131049026Y-118776339D01*
X130862891Y-118497769D01*
X130455702Y-118225694D01*
X130096629Y-118154270D01*
X129434151Y-118154270D01*
X129075078Y-118225694D01*
X128667889Y-118497769D01*
X128395814Y-118904958D01*
X128300274Y-119385270D01*
X107150785Y-119385270D01*
X107238757Y-119297298D01*
X107175462Y-119143442D01*
X106936400Y-119068290D01*
X112705901Y-119068290D01*
X112766763Y-119258270D01*
X113978390Y-119258270D01*
X113978390Y-118245254D01*
X114232390Y-118245254D01*
X114232390Y-119258270D01*
X115444017Y-119258270D01*
X115504879Y-119068290D01*
X115497150Y-119016196D01*
X115265955Y-118592050D01*
X114890046Y-118288665D01*
X114426650Y-118152228D01*
X114232390Y-118245254D01*
X113978390Y-118245254D01*
X113784130Y-118152228D01*
X113320734Y-118288665D01*
X112944825Y-118592050D01*
X112713630Y-119016196D01*
X112705901Y-119068290D01*
X106936400Y-119068290D01*
X106803371Y-119026471D01*
X106414841Y-119060797D01*
X106215318Y-119143442D01*
X106152023Y-119297298D01*
X105425390Y-119297298D01*
X105425390Y-116904509D01*
X106180756Y-116904509D01*
X106239156Y-117054288D01*
X106596876Y-117164634D01*
X106969594Y-117129686D01*
X107151624Y-117054288D01*
X107210024Y-116904509D01*
X107150785Y-116845270D01*
X112640274Y-116845270D01*
X112735814Y-117325582D01*
X113007889Y-117732771D01*
X113415078Y-118004846D01*
X113774151Y-118076270D01*
X114436629Y-118076270D01*
X114795702Y-118004846D01*
X115202891Y-117732771D01*
X115474966Y-117325582D01*
X115570506Y-116845270D01*
X128300274Y-116845270D01*
X128395814Y-117325582D01*
X128667889Y-117732771D01*
X129075078Y-118004846D01*
X129434151Y-118076270D01*
X130096629Y-118076270D01*
X130455702Y-118004846D01*
X130862891Y-117732771D01*
X131134966Y-117325582D01*
X131230506Y-116845270D01*
X131228943Y-116837410D01*
X140166639Y-116837410D01*
X140182928Y-117685018D01*
X140475956Y-118392451D01*
X140749321Y-118596734D01*
X142125785Y-117220270D01*
X142484995Y-117220270D01*
X143861459Y-118596734D01*
X144134824Y-118392451D01*
X144378642Y-117770270D01*
X145966926Y-117770270D01*
X145966926Y-122270270D01*
X145996496Y-122418929D01*
X146080704Y-122544956D01*
X146206731Y-122629164D01*
X146355390Y-122658734D01*
X150855390Y-122658734D01*
X151004049Y-122629164D01*
X151107157Y-122560270D01*
X157620470Y-122560270D01*
X157990919Y-122486583D01*
X158411008Y-122205888D01*
X158691703Y-121785799D01*
X158790270Y-121290270D01*
X158753429Y-121105056D01*
X183863000Y-121105056D01*
X183863000Y-122734944D01*
X184486731Y-124240764D01*
X185639236Y-125393269D01*
X187145056Y-126017000D01*
X188774944Y-126017000D01*
X190280764Y-125393269D01*
X191433269Y-124240764D01*
X192057000Y-122734944D01*
X192057000Y-121105056D01*
X191433269Y-119599236D01*
X190280764Y-118446731D01*
X188774944Y-117823000D01*
X187145056Y-117823000D01*
X185639236Y-118446731D01*
X184486731Y-119599236D01*
X183863000Y-121105056D01*
X158753429Y-121105056D01*
X158691703Y-120794741D01*
X158411008Y-120374652D01*
X157990919Y-120093957D01*
X157620470Y-120020270D01*
X151243854Y-120020270D01*
X151243854Y-119473242D01*
X153142023Y-119473242D01*
X153205318Y-119627098D01*
X153577409Y-119744069D01*
X153965939Y-119709743D01*
X154165462Y-119627098D01*
X154228757Y-119473242D01*
X154200024Y-119444509D01*
X156980756Y-119444509D01*
X157039156Y-119594288D01*
X157396876Y-119704634D01*
X157769594Y-119669686D01*
X157951624Y-119594288D01*
X158010024Y-119444509D01*
X157495390Y-118929875D01*
X156980756Y-119444509D01*
X154200024Y-119444509D01*
X153685390Y-118929875D01*
X153142023Y-119473242D01*
X151243854Y-119473242D01*
X151243854Y-118642289D01*
X152691591Y-118642289D01*
X152725917Y-119030819D01*
X152808562Y-119230342D01*
X152962418Y-119293637D01*
X153505785Y-118750270D01*
X153864995Y-118750270D01*
X154408362Y-119293637D01*
X154562218Y-119230342D01*
X154679189Y-118858251D01*
X154660946Y-118651756D01*
X156541026Y-118651756D01*
X156575974Y-119024474D01*
X156651372Y-119206504D01*
X156801151Y-119264904D01*
X157315785Y-118750270D01*
X157674995Y-118750270D01*
X158189629Y-119264904D01*
X158339408Y-119206504D01*
X158449754Y-118848784D01*
X158414806Y-118476066D01*
X158339408Y-118294036D01*
X158189629Y-118235636D01*
X157674995Y-118750270D01*
X157315785Y-118750270D01*
X156801151Y-118235636D01*
X156651372Y-118294036D01*
X156541026Y-118651756D01*
X154660946Y-118651756D01*
X154644863Y-118469721D01*
X154562218Y-118270198D01*
X154408362Y-118206903D01*
X153864995Y-118750270D01*
X153505785Y-118750270D01*
X152962418Y-118206903D01*
X152808562Y-118270198D01*
X152691591Y-118642289D01*
X151243854Y-118642289D01*
X151243854Y-118027298D01*
X153142023Y-118027298D01*
X153685390Y-118570665D01*
X154200024Y-118056031D01*
X156980756Y-118056031D01*
X157495390Y-118570665D01*
X158010024Y-118056031D01*
X157951624Y-117906252D01*
X157593904Y-117795906D01*
X157221186Y-117830854D01*
X157039156Y-117906252D01*
X156980756Y-118056031D01*
X154200024Y-118056031D01*
X154228757Y-118027298D01*
X154165462Y-117873442D01*
X153793371Y-117756471D01*
X153404841Y-117790797D01*
X153205318Y-117873442D01*
X153142023Y-118027298D01*
X151243854Y-118027298D01*
X151243854Y-117770270D01*
X151214284Y-117621611D01*
X151130076Y-117495584D01*
X151004049Y-117411376D01*
X150855390Y-117381806D01*
X146355390Y-117381806D01*
X146206731Y-117411376D01*
X146080704Y-117495584D01*
X145996496Y-117621611D01*
X145966926Y-117770270D01*
X144378642Y-117770270D01*
X144444141Y-117603130D01*
X144427852Y-116755522D01*
X144273586Y-116383090D01*
X144722530Y-116559021D01*
X145570138Y-116542732D01*
X146277571Y-116249704D01*
X146481854Y-115976339D01*
X145105390Y-114599875D01*
X142484995Y-117220270D01*
X142125785Y-117220270D01*
X140749321Y-115843806D01*
X140475956Y-116048089D01*
X140166639Y-116837410D01*
X131228943Y-116837410D01*
X131134966Y-116364958D01*
X130862891Y-115957769D01*
X130455702Y-115685694D01*
X130347650Y-115664201D01*
X140928926Y-115664201D01*
X142305390Y-117040665D01*
X144925785Y-114420270D01*
X145284995Y-114420270D01*
X146661459Y-115796734D01*
X146934824Y-115592451D01*
X147244141Y-114803130D01*
X147227852Y-113955522D01*
X146934824Y-113248089D01*
X146661459Y-113043806D01*
X145284995Y-114420270D01*
X144925785Y-114420270D01*
X143549321Y-113043806D01*
X143275956Y-113248089D01*
X142966639Y-114037410D01*
X142982928Y-114885018D01*
X143137194Y-115257450D01*
X142688250Y-115081519D01*
X141840642Y-115097808D01*
X141133209Y-115390836D01*
X140928926Y-115664201D01*
X130347650Y-115664201D01*
X130096629Y-115614270D01*
X129434151Y-115614270D01*
X129075078Y-115685694D01*
X128667889Y-115957769D01*
X128395814Y-116364958D01*
X128300274Y-116845270D01*
X115570506Y-116845270D01*
X115474966Y-116364958D01*
X115202891Y-115957769D01*
X114795702Y-115685694D01*
X114436629Y-115614270D01*
X113774151Y-115614270D01*
X113415078Y-115685694D01*
X113007889Y-115957769D01*
X112735814Y-116364958D01*
X112640274Y-116845270D01*
X107150785Y-116845270D01*
X106695390Y-116389875D01*
X106180756Y-116904509D01*
X105425390Y-116904509D01*
X105425390Y-116111756D01*
X105741026Y-116111756D01*
X105775974Y-116484474D01*
X105851372Y-116666504D01*
X106001151Y-116724904D01*
X106515785Y-116210270D01*
X106874995Y-116210270D01*
X107389629Y-116724904D01*
X107539408Y-116666504D01*
X107649754Y-116308784D01*
X107614806Y-115936066D01*
X107539408Y-115754036D01*
X107389629Y-115695636D01*
X106874995Y-116210270D01*
X106515785Y-116210270D01*
X106001151Y-115695636D01*
X105851372Y-115754036D01*
X105741026Y-116111756D01*
X105425390Y-116111756D01*
X105425390Y-116085190D01*
X105351703Y-115714741D01*
X105218929Y-115516031D01*
X106180756Y-115516031D01*
X106695390Y-116030665D01*
X107210024Y-115516031D01*
X107151624Y-115366252D01*
X106793904Y-115255906D01*
X106421186Y-115290854D01*
X106239156Y-115366252D01*
X106180756Y-115516031D01*
X105218929Y-115516031D01*
X105071008Y-115294652D01*
X104650919Y-115013957D01*
X104155390Y-114915390D01*
X103659862Y-115013957D01*
X103239773Y-115294652D01*
X102959078Y-115714741D01*
X102885391Y-116085190D01*
X102885390Y-118750270D01*
X101713854Y-118750270D01*
X101713854Y-117770270D01*
X101684284Y-117621611D01*
X101600076Y-117495584D01*
X101474049Y-117411376D01*
X101325390Y-117381806D01*
X96825390Y-117381806D01*
X96676731Y-117411376D01*
X96550704Y-117495584D01*
X96466496Y-117621611D01*
X96436926Y-117770270D01*
X94848642Y-117770270D01*
X94914141Y-117603130D01*
X94897852Y-116755522D01*
X94743586Y-116383090D01*
X95192530Y-116559021D01*
X96040138Y-116542732D01*
X96747571Y-116249704D01*
X96951854Y-115976339D01*
X95575390Y-114599875D01*
X92954995Y-117220270D01*
X92595785Y-117220270D01*
X91219321Y-115843806D01*
X90945956Y-116048089D01*
X90636639Y-116837410D01*
X76646390Y-116837410D01*
X76646390Y-115664201D01*
X91398926Y-115664201D01*
X92775390Y-117040665D01*
X95395785Y-114420270D01*
X95754995Y-114420270D01*
X97131459Y-115796734D01*
X97404824Y-115592451D01*
X97714141Y-114803130D01*
X97704574Y-114305270D01*
X112640274Y-114305270D01*
X112735814Y-114785582D01*
X113007889Y-115192771D01*
X113415078Y-115464846D01*
X113774151Y-115536270D01*
X114436629Y-115536270D01*
X114795702Y-115464846D01*
X115202891Y-115192771D01*
X115474966Y-114785582D01*
X115507454Y-114622250D01*
X128365901Y-114622250D01*
X128373630Y-114674344D01*
X128604825Y-115098490D01*
X128980734Y-115401875D01*
X129444130Y-115538312D01*
X129638390Y-115445286D01*
X129638390Y-114432270D01*
X129892390Y-114432270D01*
X129892390Y-115445286D01*
X130086650Y-115538312D01*
X130550046Y-115401875D01*
X130925955Y-115098490D01*
X131157150Y-114674344D01*
X131164879Y-114622250D01*
X131104017Y-114432270D01*
X129892390Y-114432270D01*
X129638390Y-114432270D01*
X128426763Y-114432270D01*
X128365901Y-114622250D01*
X115507454Y-114622250D01*
X115570506Y-114305270D01*
X115474966Y-113824958D01*
X115202891Y-113417769D01*
X114820510Y-113162270D01*
X115981274Y-113162270D01*
X116076814Y-113642582D01*
X116348889Y-114049771D01*
X116756078Y-114321846D01*
X117115151Y-114393270D01*
X117777629Y-114393270D01*
X118136702Y-114321846D01*
X118543891Y-114049771D01*
X118584971Y-113988290D01*
X128365901Y-113988290D01*
X128426763Y-114178270D01*
X129638390Y-114178270D01*
X129638390Y-113165254D01*
X129892390Y-113165254D01*
X129892390Y-114178270D01*
X131104017Y-114178270D01*
X131164879Y-113988290D01*
X131157150Y-113936196D01*
X130925955Y-113512050D01*
X130550046Y-113208665D01*
X130086650Y-113072228D01*
X129892390Y-113165254D01*
X129638390Y-113165254D01*
X129444130Y-113072228D01*
X128980734Y-113208665D01*
X128604825Y-113512050D01*
X128373630Y-113936196D01*
X128365901Y-113988290D01*
X118584971Y-113988290D01*
X118815966Y-113642582D01*
X118911506Y-113162270D01*
X118815966Y-112681958D01*
X118543891Y-112274769D01*
X118136702Y-112002694D01*
X117777629Y-111931270D01*
X117115151Y-111931270D01*
X116756078Y-112002694D01*
X116348889Y-112274769D01*
X116076814Y-112681958D01*
X115981274Y-113162270D01*
X114820510Y-113162270D01*
X114795702Y-113145694D01*
X114436629Y-113074270D01*
X113774151Y-113074270D01*
X113415078Y-113145694D01*
X113007889Y-113417769D01*
X112735814Y-113824958D01*
X112640274Y-114305270D01*
X97704574Y-114305270D01*
X97697852Y-113955522D01*
X97404824Y-113248089D01*
X97131459Y-113043806D01*
X95754995Y-114420270D01*
X95395785Y-114420270D01*
X94019321Y-113043806D01*
X93745956Y-113248089D01*
X93436639Y-114037410D01*
X93452928Y-114885018D01*
X93607194Y-115257450D01*
X93158250Y-115081519D01*
X92310642Y-115097808D01*
X91603209Y-115390836D01*
X91398926Y-115664201D01*
X76646390Y-115664201D01*
X76646390Y-112864201D01*
X94198926Y-112864201D01*
X95575390Y-114240665D01*
X96951854Y-112864201D01*
X96747571Y-112590836D01*
X95958250Y-112281519D01*
X95110642Y-112297808D01*
X94403209Y-112590836D01*
X94198926Y-112864201D01*
X76646390Y-112864201D01*
X76646390Y-111765270D01*
X112640274Y-111765270D01*
X112735814Y-112245582D01*
X113007889Y-112652771D01*
X113415078Y-112924846D01*
X113774151Y-112996270D01*
X114436629Y-112996270D01*
X114795702Y-112924846D01*
X115202891Y-112652771D01*
X115474966Y-112245582D01*
X115570506Y-111765270D01*
X115474966Y-111284958D01*
X115202891Y-110877769D01*
X114820510Y-110622270D01*
X115981274Y-110622270D01*
X116076814Y-111102582D01*
X116348889Y-111509771D01*
X116756078Y-111781846D01*
X117115151Y-111853270D01*
X117777629Y-111853270D01*
X118136702Y-111781846D01*
X118161509Y-111765270D01*
X128300274Y-111765270D01*
X128395814Y-112245582D01*
X128667889Y-112652771D01*
X129075078Y-112924846D01*
X129434151Y-112996270D01*
X130096629Y-112996270D01*
X130455702Y-112924846D01*
X130546463Y-112864201D01*
X143728926Y-112864201D01*
X145105390Y-114240665D01*
X146481854Y-112864201D01*
X146277571Y-112590836D01*
X145488250Y-112281519D01*
X144640642Y-112297808D01*
X143933209Y-112590836D01*
X143728926Y-112864201D01*
X130546463Y-112864201D01*
X130862891Y-112652771D01*
X131118470Y-112270270D01*
X165231926Y-112270270D01*
X165231926Y-113800270D01*
X165261496Y-113948929D01*
X165345704Y-114074956D01*
X165471731Y-114159164D01*
X165620390Y-114188734D01*
X167150390Y-114188734D01*
X167299049Y-114159164D01*
X167425076Y-114074956D01*
X167509284Y-113948929D01*
X167538854Y-113800270D01*
X167538854Y-112807317D01*
X175399390Y-112807317D01*
X175399390Y-113263223D01*
X175573859Y-113684427D01*
X175896233Y-114006801D01*
X176317437Y-114181270D01*
X176773343Y-114181270D01*
X177194547Y-114006801D01*
X177516921Y-113684427D01*
X177691390Y-113263223D01*
X177691390Y-112814278D01*
X179244390Y-112814278D01*
X179244390Y-113256262D01*
X179413529Y-113664601D01*
X179726059Y-113977131D01*
X180134398Y-114146270D01*
X180576382Y-114146270D01*
X180984721Y-113977131D01*
X181297251Y-113664601D01*
X181466390Y-113256262D01*
X181466390Y-112814278D01*
X181784390Y-112814278D01*
X181784390Y-113256262D01*
X181953529Y-113664601D01*
X182266059Y-113977131D01*
X182674398Y-114146270D01*
X183116382Y-114146270D01*
X183524721Y-113977131D01*
X183837251Y-113664601D01*
X184006390Y-113256262D01*
X184006390Y-112814278D01*
X183837251Y-112405939D01*
X183736582Y-112305270D01*
X184316926Y-112305270D01*
X184316926Y-113765270D01*
X184346496Y-113913929D01*
X184430704Y-114039956D01*
X184556731Y-114124164D01*
X184705390Y-114153734D01*
X186165390Y-114153734D01*
X186314049Y-114124164D01*
X186384160Y-114077317D01*
X188099390Y-114077317D01*
X188099390Y-114533223D01*
X188273859Y-114954427D01*
X188596233Y-115276801D01*
X189017437Y-115451270D01*
X189473343Y-115451270D01*
X189894547Y-115276801D01*
X190216921Y-114954427D01*
X190391390Y-114533223D01*
X190391390Y-114077317D01*
X190216921Y-113656113D01*
X189894547Y-113333739D01*
X189473343Y-113159270D01*
X189017437Y-113159270D01*
X188596233Y-113333739D01*
X188273859Y-113656113D01*
X188099390Y-114077317D01*
X186384160Y-114077317D01*
X186440076Y-114039956D01*
X186524284Y-113913929D01*
X186553854Y-113765270D01*
X186553854Y-112305270D01*
X186524284Y-112156611D01*
X186440076Y-112030584D01*
X186314049Y-111946376D01*
X186165390Y-111916806D01*
X184705390Y-111916806D01*
X184556731Y-111946376D01*
X184430704Y-112030584D01*
X184346496Y-112156611D01*
X184316926Y-112305270D01*
X183736582Y-112305270D01*
X183524721Y-112093409D01*
X183116382Y-111924270D01*
X182674398Y-111924270D01*
X182266059Y-112093409D01*
X181953529Y-112405939D01*
X181784390Y-112814278D01*
X181466390Y-112814278D01*
X181297251Y-112405939D01*
X180984721Y-112093409D01*
X180576382Y-111924270D01*
X180134398Y-111924270D01*
X179726059Y-112093409D01*
X179413529Y-112405939D01*
X179244390Y-112814278D01*
X177691390Y-112814278D01*
X177691390Y-112807317D01*
X177516921Y-112386113D01*
X177194547Y-112063739D01*
X176773343Y-111889270D01*
X176317437Y-111889270D01*
X175896233Y-112063739D01*
X175573859Y-112386113D01*
X175399390Y-112807317D01*
X167538854Y-112807317D01*
X167538854Y-112270270D01*
X167509284Y-112121611D01*
X167425076Y-111995584D01*
X167299049Y-111911376D01*
X167150390Y-111881806D01*
X165620390Y-111881806D01*
X165471731Y-111911376D01*
X165345704Y-111995584D01*
X165261496Y-112121611D01*
X165231926Y-112270270D01*
X131118470Y-112270270D01*
X131134966Y-112245582D01*
X131230506Y-111765270D01*
X131134966Y-111284958D01*
X130862891Y-110877769D01*
X130455702Y-110605694D01*
X130096629Y-110534270D01*
X129434151Y-110534270D01*
X129075078Y-110605694D01*
X128667889Y-110877769D01*
X128395814Y-111284958D01*
X128300274Y-111765270D01*
X118161509Y-111765270D01*
X118543891Y-111509771D01*
X118815966Y-111102582D01*
X118911506Y-110622270D01*
X118815966Y-110141958D01*
X118543891Y-109734769D01*
X118136702Y-109462694D01*
X117777629Y-109391270D01*
X117115151Y-109391270D01*
X116756078Y-109462694D01*
X116348889Y-109734769D01*
X116076814Y-110141958D01*
X115981274Y-110622270D01*
X114820510Y-110622270D01*
X114795702Y-110605694D01*
X114436629Y-110534270D01*
X113774151Y-110534270D01*
X113415078Y-110605694D01*
X113007889Y-110877769D01*
X112735814Y-111284958D01*
X112640274Y-111765270D01*
X76646390Y-111765270D01*
X76646390Y-109225270D01*
X112640274Y-109225270D01*
X112735814Y-109705582D01*
X113007889Y-110112771D01*
X113415078Y-110384846D01*
X113774151Y-110456270D01*
X114436629Y-110456270D01*
X114795702Y-110384846D01*
X115202891Y-110112771D01*
X115474966Y-109705582D01*
X115570506Y-109225270D01*
X128300274Y-109225270D01*
X128395814Y-109705582D01*
X128667889Y-110112771D01*
X129075078Y-110384846D01*
X129434151Y-110456270D01*
X130096629Y-110456270D01*
X130455702Y-110384846D01*
X130862891Y-110112771D01*
X130923948Y-110021392D01*
X163228873Y-110021392D01*
X163304606Y-110185661D01*
X163713297Y-110319505D01*
X164142097Y-110286761D01*
X164386174Y-110185661D01*
X164461907Y-110021392D01*
X163845390Y-109404875D01*
X163228873Y-110021392D01*
X130923948Y-110021392D01*
X131134966Y-109705582D01*
X131230506Y-109225270D01*
X131204232Y-109093177D01*
X162751155Y-109093177D01*
X162783899Y-109521977D01*
X162884999Y-109766054D01*
X163049268Y-109841787D01*
X163665785Y-109225270D01*
X164024995Y-109225270D01*
X164641512Y-109841787D01*
X164805781Y-109766054D01*
X164939625Y-109357363D01*
X164913119Y-109010246D01*
X170384390Y-109010246D01*
X170384390Y-109440294D01*
X170548962Y-109837607D01*
X170853053Y-110141698D01*
X171250366Y-110306270D01*
X171680414Y-110306270D01*
X172077727Y-110141698D01*
X172381818Y-109837607D01*
X172488210Y-109580751D01*
X174659140Y-109580751D01*
X174659140Y-110012789D01*
X174824474Y-110411940D01*
X175129970Y-110717436D01*
X175529121Y-110882770D01*
X175961159Y-110882770D01*
X176360310Y-110717436D01*
X176665806Y-110411940D01*
X176831140Y-110012789D01*
X176831140Y-109580751D01*
X176665806Y-109181600D01*
X176360310Y-108876104D01*
X175961159Y-108710770D01*
X175529121Y-108710770D01*
X175129970Y-108876104D01*
X174824474Y-109181600D01*
X174659140Y-109580751D01*
X172488210Y-109580751D01*
X172546390Y-109440294D01*
X172546390Y-109010246D01*
X172381818Y-108612933D01*
X172077727Y-108308842D01*
X171680414Y-108144270D01*
X171250366Y-108144270D01*
X170853053Y-108308842D01*
X170548962Y-108612933D01*
X170384390Y-109010246D01*
X164913119Y-109010246D01*
X164906881Y-108928563D01*
X164805781Y-108684486D01*
X164641512Y-108608753D01*
X164024995Y-109225270D01*
X163665785Y-109225270D01*
X163049268Y-108608753D01*
X162884999Y-108684486D01*
X162751155Y-109093177D01*
X131204232Y-109093177D01*
X131134966Y-108744958D01*
X130923949Y-108429148D01*
X163228873Y-108429148D01*
X163845390Y-109045665D01*
X164461907Y-108429148D01*
X164386174Y-108264879D01*
X163977483Y-108131035D01*
X163548683Y-108163779D01*
X163304606Y-108264879D01*
X163228873Y-108429148D01*
X130923949Y-108429148D01*
X130862891Y-108337769D01*
X130455702Y-108065694D01*
X130096629Y-107994270D01*
X129434151Y-107994270D01*
X129075078Y-108065694D01*
X128667889Y-108337769D01*
X128395814Y-108744958D01*
X128300274Y-109225270D01*
X115570506Y-109225270D01*
X115474966Y-108744958D01*
X115202891Y-108337769D01*
X114795702Y-108065694D01*
X114436629Y-107994270D01*
X113774151Y-107994270D01*
X113415078Y-108065694D01*
X113007889Y-108337769D01*
X112735814Y-108744958D01*
X112640274Y-109225270D01*
X76646390Y-109225270D01*
X76646390Y-106499343D01*
X100680670Y-106499343D01*
X100680670Y-106871197D01*
X100822973Y-107214746D01*
X101085914Y-107477687D01*
X101429463Y-107619990D01*
X101801317Y-107619990D01*
X102144866Y-107477687D01*
X102407807Y-107214746D01*
X102550110Y-106871197D01*
X102550110Y-106499343D01*
X102407807Y-106155794D01*
X102383563Y-106131550D01*
X103213206Y-106131550D01*
X103213206Y-107238990D01*
X103242776Y-107387649D01*
X103326984Y-107513676D01*
X103453011Y-107597884D01*
X103601670Y-107627454D01*
X104709110Y-107627454D01*
X104857769Y-107597884D01*
X104983796Y-107513676D01*
X105068004Y-107387649D01*
X105097574Y-107238990D01*
X105097574Y-106685270D01*
X112640274Y-106685270D01*
X112735814Y-107165582D01*
X113007889Y-107572771D01*
X113415078Y-107844846D01*
X113774151Y-107916270D01*
X114436629Y-107916270D01*
X114795702Y-107844846D01*
X115202891Y-107572771D01*
X115474966Y-107165582D01*
X115570506Y-106685270D01*
X128300274Y-106685270D01*
X128395814Y-107165582D01*
X128667889Y-107572771D01*
X129075078Y-107844846D01*
X129434151Y-107916270D01*
X130096629Y-107916270D01*
X130455702Y-107844846D01*
X130862891Y-107572771D01*
X131134966Y-107165582D01*
X131230506Y-106685270D01*
X131204232Y-106553177D01*
X162751155Y-106553177D01*
X162783899Y-106981977D01*
X162814000Y-107054647D01*
X162814000Y-107188000D01*
X162823667Y-107236601D01*
X162851197Y-107277803D01*
X163232197Y-107658803D01*
X163273399Y-107686333D01*
X163322000Y-107696000D01*
X163458316Y-107696000D01*
X163713297Y-107779505D01*
X164142097Y-107746761D01*
X164264645Y-107696000D01*
X164338000Y-107696000D01*
X164386601Y-107686333D01*
X164427803Y-107658803D01*
X164808803Y-107277803D01*
X164836333Y-107236601D01*
X164846000Y-107188000D01*
X164846000Y-107103246D01*
X164939625Y-106817363D01*
X164913119Y-106470246D01*
X170384390Y-106470246D01*
X170384390Y-106900294D01*
X170548962Y-107297607D01*
X170853053Y-107601698D01*
X171250366Y-107766270D01*
X171680414Y-107766270D01*
X171745643Y-107739251D01*
X176729390Y-107739251D01*
X176729390Y-108171289D01*
X176894724Y-108570440D01*
X177200220Y-108875936D01*
X177599371Y-109041270D01*
X178031409Y-109041270D01*
X178430560Y-108875936D01*
X178628254Y-108678242D01*
X182352023Y-108678242D01*
X182415318Y-108832098D01*
X182787409Y-108949069D01*
X183175939Y-108914743D01*
X183375462Y-108832098D01*
X183438757Y-108678242D01*
X182895390Y-108134875D01*
X182352023Y-108678242D01*
X178628254Y-108678242D01*
X178736056Y-108570440D01*
X178901390Y-108171289D01*
X178901390Y-107847289D01*
X181901591Y-107847289D01*
X181935917Y-108235819D01*
X182018562Y-108435342D01*
X182172418Y-108498637D01*
X182715785Y-107955270D01*
X183074995Y-107955270D01*
X183618362Y-108498637D01*
X183772218Y-108435342D01*
X183889189Y-108063251D01*
X183854863Y-107674721D01*
X183772218Y-107475198D01*
X183618362Y-107411903D01*
X183074995Y-107955270D01*
X182715785Y-107955270D01*
X182172418Y-107411903D01*
X182018562Y-107475198D01*
X181901591Y-107847289D01*
X178901390Y-107847289D01*
X178901390Y-107739251D01*
X178736056Y-107340100D01*
X178628254Y-107232298D01*
X182352023Y-107232298D01*
X182895390Y-107775665D01*
X183275855Y-107395200D01*
X184486856Y-107395200D01*
X184486856Y-108515340D01*
X184516426Y-108663999D01*
X184600634Y-108790026D01*
X184726661Y-108874234D01*
X184875320Y-108903804D01*
X185995460Y-108903804D01*
X186144119Y-108874234D01*
X186270146Y-108790026D01*
X186354354Y-108663999D01*
X186383924Y-108515340D01*
X186383924Y-107395200D01*
X186354354Y-107246541D01*
X186270146Y-107120514D01*
X186144119Y-107036306D01*
X185995460Y-107006736D01*
X184875320Y-107006736D01*
X184726661Y-107036306D01*
X184600634Y-107120514D01*
X184516426Y-107246541D01*
X184486856Y-107395200D01*
X183275855Y-107395200D01*
X183438757Y-107232298D01*
X183375462Y-107078442D01*
X183003371Y-106961471D01*
X182614841Y-106995797D01*
X182415318Y-107078442D01*
X182352023Y-107232298D01*
X178628254Y-107232298D01*
X178430560Y-107034604D01*
X178031409Y-106869270D01*
X177599371Y-106869270D01*
X177200220Y-107034604D01*
X176894724Y-107340100D01*
X176729390Y-107739251D01*
X171745643Y-107739251D01*
X172077727Y-107601698D01*
X172381818Y-107297607D01*
X172546390Y-106900294D01*
X172546390Y-106470246D01*
X172490792Y-106336020D01*
X174659140Y-106336020D01*
X174659140Y-106894556D01*
X174717144Y-107034590D01*
X174824321Y-107141766D01*
X174964355Y-107199770D01*
X175522890Y-107199770D01*
X175618140Y-107104520D01*
X175618140Y-106240770D01*
X175872140Y-106240770D01*
X175872140Y-107104520D01*
X175967390Y-107199770D01*
X176525925Y-107199770D01*
X176665959Y-107141766D01*
X176773136Y-107034590D01*
X176831140Y-106894556D01*
X176831140Y-106336020D01*
X176735890Y-106240770D01*
X175872140Y-106240770D01*
X175618140Y-106240770D01*
X174754390Y-106240770D01*
X174659140Y-106336020D01*
X172490792Y-106336020D01*
X172381818Y-106072933D01*
X172077727Y-105768842D01*
X171680414Y-105604270D01*
X171250366Y-105604270D01*
X170853053Y-105768842D01*
X170548962Y-106072933D01*
X170384390Y-106470246D01*
X164913119Y-106470246D01*
X164906881Y-106388563D01*
X164846000Y-106241583D01*
X164846000Y-106172000D01*
X164836333Y-106123399D01*
X164808803Y-106082197D01*
X164427803Y-105701197D01*
X164386601Y-105673667D01*
X164338000Y-105664000D01*
X164200281Y-105664000D01*
X163977483Y-105591035D01*
X163548683Y-105623779D01*
X163451581Y-105664000D01*
X163322000Y-105664000D01*
X163273399Y-105673667D01*
X163232197Y-105701197D01*
X162851197Y-106082197D01*
X162823667Y-106123399D01*
X162814000Y-106172000D01*
X162814000Y-106361281D01*
X162751155Y-106553177D01*
X131204232Y-106553177D01*
X131134966Y-106204958D01*
X130862891Y-105797769D01*
X130455702Y-105525694D01*
X130096629Y-105454270D01*
X129434151Y-105454270D01*
X129075078Y-105525694D01*
X128667889Y-105797769D01*
X128395814Y-106204958D01*
X128300274Y-106685270D01*
X115570506Y-106685270D01*
X115474966Y-106204958D01*
X115202891Y-105797769D01*
X114795702Y-105525694D01*
X114436629Y-105454270D01*
X113774151Y-105454270D01*
X113415078Y-105525694D01*
X113007889Y-105797769D01*
X112735814Y-106204958D01*
X112640274Y-106685270D01*
X105097574Y-106685270D01*
X105097574Y-106131550D01*
X105068004Y-105982891D01*
X104983796Y-105856864D01*
X104857769Y-105772656D01*
X104709110Y-105743086D01*
X103601670Y-105743086D01*
X103453011Y-105772656D01*
X103326984Y-105856864D01*
X103242776Y-105982891D01*
X103213206Y-106131550D01*
X102383563Y-106131550D01*
X102144866Y-105892853D01*
X101801317Y-105750550D01*
X101429463Y-105750550D01*
X101085914Y-105892853D01*
X100822973Y-106155794D01*
X100680670Y-106499343D01*
X76646390Y-106499343D01*
X76646390Y-103930246D01*
X95454390Y-103930246D01*
X95454390Y-104360294D01*
X95618962Y-104757607D01*
X95923053Y-105061698D01*
X96320366Y-105226270D01*
X96750414Y-105226270D01*
X97147727Y-105061698D01*
X97451818Y-104757607D01*
X97616390Y-104360294D01*
X97616390Y-103930246D01*
X97994390Y-103930246D01*
X97994390Y-104360294D01*
X98158962Y-104757607D01*
X98463053Y-105061698D01*
X98860366Y-105226270D01*
X99290414Y-105226270D01*
X99687727Y-105061698D01*
X99991818Y-104757607D01*
X100156390Y-104360294D01*
X100156390Y-103930246D01*
X100534390Y-103930246D01*
X100534390Y-104360294D01*
X100698962Y-104757607D01*
X101003053Y-105061698D01*
X101400366Y-105226270D01*
X101830414Y-105226270D01*
X102227727Y-105061698D01*
X102531818Y-104757607D01*
X102696390Y-104360294D01*
X102696390Y-103930246D01*
X103074390Y-103930246D01*
X103074390Y-104360294D01*
X103238962Y-104757607D01*
X103543053Y-105061698D01*
X103940366Y-105226270D01*
X104370414Y-105226270D01*
X104767727Y-105061698D01*
X105071818Y-104757607D01*
X105236390Y-104360294D01*
X105236390Y-104145270D01*
X112640274Y-104145270D01*
X112735814Y-104625582D01*
X113007889Y-105032771D01*
X113415078Y-105304846D01*
X113774151Y-105376270D01*
X114436629Y-105376270D01*
X114795702Y-105304846D01*
X115202891Y-105032771D01*
X115474966Y-104625582D01*
X115570506Y-104145270D01*
X128300274Y-104145270D01*
X128395814Y-104625582D01*
X128667889Y-105032771D01*
X129075078Y-105304846D01*
X129434151Y-105376270D01*
X130096629Y-105376270D01*
X130314242Y-105332984D01*
X174659140Y-105332984D01*
X174659140Y-105891520D01*
X174754390Y-105986770D01*
X175618140Y-105986770D01*
X175618140Y-105123020D01*
X175872140Y-105123020D01*
X175872140Y-105986770D01*
X176735890Y-105986770D01*
X176831140Y-105891520D01*
X176831140Y-105332984D01*
X176773136Y-105192950D01*
X176665959Y-105085774D01*
X176525925Y-105027770D01*
X175967390Y-105027770D01*
X175872140Y-105123020D01*
X175618140Y-105123020D01*
X175522890Y-105027770D01*
X174964355Y-105027770D01*
X174824321Y-105085774D01*
X174717144Y-105192950D01*
X174659140Y-105332984D01*
X130314242Y-105332984D01*
X130455702Y-105304846D01*
X130862891Y-105032771D01*
X131134966Y-104625582D01*
X131230506Y-104145270D01*
X131187736Y-103930246D01*
X162764390Y-103930246D01*
X162764390Y-104360294D01*
X162928962Y-104757607D01*
X163233053Y-105061698D01*
X163630366Y-105226270D01*
X164060414Y-105226270D01*
X164457727Y-105061698D01*
X164761818Y-104757607D01*
X164926390Y-104360294D01*
X164926390Y-103930246D01*
X170384390Y-103930246D01*
X170384390Y-104360294D01*
X170548962Y-104757607D01*
X170853053Y-105061698D01*
X171250366Y-105226270D01*
X171680414Y-105226270D01*
X172077727Y-105061698D01*
X172381818Y-104757607D01*
X172546390Y-104360294D01*
X172546390Y-103930246D01*
X172544208Y-103924976D01*
X178004390Y-103924976D01*
X178004390Y-104355024D01*
X178168962Y-104752337D01*
X178473053Y-105056428D01*
X178870366Y-105221000D01*
X179300414Y-105221000D01*
X179697727Y-105056428D01*
X180001818Y-104752337D01*
X180166390Y-104355024D01*
X180166390Y-103924976D01*
X185624390Y-103924976D01*
X185624390Y-104355024D01*
X185788962Y-104752337D01*
X186093053Y-105056428D01*
X186490366Y-105221000D01*
X186920414Y-105221000D01*
X187317727Y-105056428D01*
X187621818Y-104752337D01*
X187786390Y-104355024D01*
X187786390Y-103924976D01*
X187621818Y-103527663D01*
X187474425Y-103380270D01*
X188091926Y-103380270D01*
X188091926Y-104910270D01*
X188121496Y-105058929D01*
X188205704Y-105184956D01*
X188331731Y-105269164D01*
X188480390Y-105298734D01*
X190010390Y-105298734D01*
X190159049Y-105269164D01*
X190285076Y-105184956D01*
X190369284Y-105058929D01*
X190398854Y-104910270D01*
X190398854Y-103380270D01*
X190369284Y-103231611D01*
X190285076Y-103105584D01*
X190159049Y-103021376D01*
X190010390Y-102991806D01*
X188480390Y-102991806D01*
X188331731Y-103021376D01*
X188205704Y-103105584D01*
X188121496Y-103231611D01*
X188091926Y-103380270D01*
X187474425Y-103380270D01*
X187317727Y-103223572D01*
X186920414Y-103059000D01*
X186490366Y-103059000D01*
X186093053Y-103223572D01*
X185788962Y-103527663D01*
X185624390Y-103924976D01*
X180166390Y-103924976D01*
X180001818Y-103527663D01*
X179697727Y-103223572D01*
X179300414Y-103059000D01*
X178870366Y-103059000D01*
X178473053Y-103223572D01*
X178168962Y-103527663D01*
X178004390Y-103924976D01*
X172544208Y-103924976D01*
X172381818Y-103532933D01*
X172077727Y-103228842D01*
X171680414Y-103064270D01*
X171250366Y-103064270D01*
X170853053Y-103228842D01*
X170548962Y-103532933D01*
X170384390Y-103930246D01*
X164926390Y-103930246D01*
X164761818Y-103532933D01*
X164457727Y-103228842D01*
X164060414Y-103064270D01*
X163630366Y-103064270D01*
X163233053Y-103228842D01*
X162928962Y-103532933D01*
X162764390Y-103930246D01*
X131187736Y-103930246D01*
X131134966Y-103664958D01*
X130862891Y-103257769D01*
X130455702Y-102985694D01*
X130096629Y-102914270D01*
X129434151Y-102914270D01*
X129075078Y-102985694D01*
X128667889Y-103257769D01*
X128395814Y-103664958D01*
X128300274Y-104145270D01*
X115570506Y-104145270D01*
X115474966Y-103664958D01*
X115202891Y-103257769D01*
X114795702Y-102985694D01*
X114436629Y-102914270D01*
X113774151Y-102914270D01*
X113415078Y-102985694D01*
X113007889Y-103257769D01*
X112735814Y-103664958D01*
X112640274Y-104145270D01*
X105236390Y-104145270D01*
X105236390Y-103930246D01*
X105071818Y-103532933D01*
X104767727Y-103228842D01*
X104370414Y-103064270D01*
X103940366Y-103064270D01*
X103543053Y-103228842D01*
X103238962Y-103532933D01*
X103074390Y-103930246D01*
X102696390Y-103930246D01*
X102531818Y-103532933D01*
X102227727Y-103228842D01*
X101830414Y-103064270D01*
X101400366Y-103064270D01*
X101003053Y-103228842D01*
X100698962Y-103532933D01*
X100534390Y-103930246D01*
X100156390Y-103930246D01*
X99991818Y-103532933D01*
X99687727Y-103228842D01*
X99290414Y-103064270D01*
X98860366Y-103064270D01*
X98463053Y-103228842D01*
X98158962Y-103532933D01*
X97994390Y-103930246D01*
X97616390Y-103930246D01*
X97451818Y-103532933D01*
X97147727Y-103228842D01*
X96750414Y-103064270D01*
X96320366Y-103064270D01*
X95923053Y-103228842D01*
X95618962Y-103532933D01*
X95454390Y-103930246D01*
X76646390Y-103930246D01*
X76646390Y-99949208D01*
X80599390Y-99949208D01*
X80599390Y-100731332D01*
X80898696Y-101453919D01*
X81451741Y-102006964D01*
X82174328Y-102306270D01*
X82956452Y-102306270D01*
X83679039Y-102006964D01*
X84080733Y-101605270D01*
X112640274Y-101605270D01*
X112735814Y-102085582D01*
X113007889Y-102492771D01*
X113415078Y-102764846D01*
X113774151Y-102836270D01*
X114436629Y-102836270D01*
X114795702Y-102764846D01*
X114896537Y-102697470D01*
X115981274Y-102697470D01*
X116076814Y-103177782D01*
X116348889Y-103584971D01*
X116756078Y-103857046D01*
X117115151Y-103928470D01*
X117777629Y-103928470D01*
X118136702Y-103857046D01*
X118543891Y-103584971D01*
X118815966Y-103177782D01*
X118911506Y-102697470D01*
X118815966Y-102217158D01*
X118543891Y-101809969D01*
X118237538Y-101605270D01*
X128300274Y-101605270D01*
X128395814Y-102085582D01*
X128667889Y-102492771D01*
X129075078Y-102764846D01*
X129434151Y-102836270D01*
X130096629Y-102836270D01*
X130455702Y-102764846D01*
X130862891Y-102492771D01*
X131134966Y-102085582D01*
X131230506Y-101605270D01*
X131134966Y-101124958D01*
X130862891Y-100717769D01*
X130455702Y-100445694D01*
X130096629Y-100374270D01*
X129434151Y-100374270D01*
X129075078Y-100445694D01*
X128667889Y-100717769D01*
X128395814Y-101124958D01*
X128300274Y-101605270D01*
X118237538Y-101605270D01*
X118136702Y-101537894D01*
X117777629Y-101466470D01*
X117115151Y-101466470D01*
X116756078Y-101537894D01*
X116348889Y-101809969D01*
X116076814Y-102217158D01*
X115981274Y-102697470D01*
X114896537Y-102697470D01*
X115202891Y-102492771D01*
X115474966Y-102085582D01*
X115570506Y-101605270D01*
X115474966Y-101124958D01*
X115202891Y-100717769D01*
X114795702Y-100445694D01*
X114436629Y-100374270D01*
X113774151Y-100374270D01*
X113415078Y-100445694D01*
X113007889Y-100717769D01*
X112735814Y-101124958D01*
X112640274Y-101605270D01*
X84080733Y-101605270D01*
X84232084Y-101453919D01*
X84531390Y-100731332D01*
X84531390Y-99949208D01*
X84232084Y-99226621D01*
X83679039Y-98673576D01*
X82956452Y-98374270D01*
X82174328Y-98374270D01*
X81451741Y-98673576D01*
X80898696Y-99226621D01*
X80599390Y-99949208D01*
X76646390Y-99949208D01*
X76646390Y-97576267D01*
X87814390Y-97576267D01*
X87814390Y-98014273D01*
X87982007Y-98418936D01*
X88291724Y-98728653D01*
X88696387Y-98896270D01*
X89134393Y-98896270D01*
X89539056Y-98728653D01*
X89848773Y-98418936D01*
X89917726Y-98252470D01*
X90711141Y-98252470D01*
X90522007Y-98441604D01*
X90354390Y-98846267D01*
X90354390Y-99284273D01*
X90522007Y-99688936D01*
X90831724Y-99998653D01*
X91236387Y-100166270D01*
X91674393Y-100166270D01*
X92079056Y-99998653D01*
X92289467Y-99788242D01*
X106152023Y-99788242D01*
X106215318Y-99942098D01*
X106587409Y-100059069D01*
X106975939Y-100024743D01*
X107175462Y-99942098D01*
X107238757Y-99788242D01*
X106695390Y-99244875D01*
X106152023Y-99788242D01*
X92289467Y-99788242D01*
X92388773Y-99688936D01*
X92556390Y-99284273D01*
X92556390Y-98957289D01*
X105701591Y-98957289D01*
X105735917Y-99345819D01*
X105818562Y-99545342D01*
X105972418Y-99608637D01*
X106515785Y-99065270D01*
X106874995Y-99065270D01*
X107418362Y-99608637D01*
X107572218Y-99545342D01*
X107689189Y-99173251D01*
X107679650Y-99065270D01*
X112640274Y-99065270D01*
X112735814Y-99545582D01*
X113007889Y-99952771D01*
X113415078Y-100224846D01*
X113774151Y-100296270D01*
X114436629Y-100296270D01*
X114795702Y-100224846D01*
X114896537Y-100157470D01*
X115981274Y-100157470D01*
X116076814Y-100637782D01*
X116348889Y-101044971D01*
X116756078Y-101317046D01*
X117115151Y-101388470D01*
X117777629Y-101388470D01*
X118136702Y-101317046D01*
X118543891Y-101044971D01*
X118815966Y-100637782D01*
X118911506Y-100157470D01*
X118815966Y-99677158D01*
X118543891Y-99269969D01*
X118237538Y-99065270D01*
X128300274Y-99065270D01*
X128395814Y-99545582D01*
X128667889Y-99952771D01*
X129075078Y-100224846D01*
X129434151Y-100296270D01*
X130096629Y-100296270D01*
X130455702Y-100224846D01*
X130862891Y-99952771D01*
X130865271Y-99949208D01*
X147909390Y-99949208D01*
X147909390Y-100731332D01*
X148208696Y-101453919D01*
X148761741Y-102006964D01*
X149484328Y-102306270D01*
X150266452Y-102306270D01*
X150989039Y-102006964D01*
X151542084Y-101453919D01*
X151841390Y-100731332D01*
X151841390Y-99949208D01*
X151542084Y-99226621D01*
X150989039Y-98673576D01*
X150266452Y-98374270D01*
X149484328Y-98374270D01*
X148761741Y-98673576D01*
X148208696Y-99226621D01*
X147909390Y-99949208D01*
X130865271Y-99949208D01*
X131134966Y-99545582D01*
X131230506Y-99065270D01*
X131134966Y-98584958D01*
X130862891Y-98177769D01*
X130455702Y-97905694D01*
X130096629Y-97834270D01*
X129434151Y-97834270D01*
X129075078Y-97905694D01*
X128667889Y-98177769D01*
X128395814Y-98584958D01*
X128300274Y-99065270D01*
X118237538Y-99065270D01*
X118136702Y-98997894D01*
X117777629Y-98926470D01*
X117115151Y-98926470D01*
X116756078Y-98997894D01*
X116348889Y-99269969D01*
X116076814Y-99677158D01*
X115981274Y-100157470D01*
X114896537Y-100157470D01*
X115202891Y-99952771D01*
X115474966Y-99545582D01*
X115570506Y-99065270D01*
X115474966Y-98584958D01*
X115202891Y-98177769D01*
X114795702Y-97905694D01*
X114436629Y-97834270D01*
X113774151Y-97834270D01*
X113415078Y-97905694D01*
X113007889Y-98177769D01*
X112735814Y-98584958D01*
X112640274Y-99065270D01*
X107679650Y-99065270D01*
X107654863Y-98784721D01*
X107572218Y-98585198D01*
X107418362Y-98521903D01*
X106874995Y-99065270D01*
X106515785Y-99065270D01*
X105972418Y-98521903D01*
X105818562Y-98585198D01*
X105701591Y-98957289D01*
X92556390Y-98957289D01*
X92556390Y-98846267D01*
X92487437Y-98679801D01*
X92824940Y-98342298D01*
X106152023Y-98342298D01*
X106695390Y-98885665D01*
X107238757Y-98342298D01*
X107175462Y-98188442D01*
X106803371Y-98071471D01*
X106414841Y-98105797D01*
X106215318Y-98188442D01*
X106152023Y-98342298D01*
X92824940Y-98342298D01*
X93845846Y-97321392D01*
X95918873Y-97321392D01*
X95994606Y-97485661D01*
X96403297Y-97619505D01*
X96832097Y-97586761D01*
X97076174Y-97485661D01*
X97151907Y-97321392D01*
X96535390Y-96704875D01*
X95918873Y-97321392D01*
X93845846Y-97321392D01*
X95040416Y-96126822D01*
X95058048Y-96117713D01*
X95104301Y-96062937D01*
X95122529Y-96044709D01*
X95133283Y-96028615D01*
X95175393Y-95978745D01*
X95183408Y-95953597D01*
X95198072Y-95931651D01*
X95202287Y-95910460D01*
X95376669Y-95910460D01*
X95402352Y-95912626D01*
X95421575Y-95910460D01*
X95433808Y-95910460D01*
X95436526Y-95911161D01*
X95520233Y-95899343D01*
X95558601Y-95895020D01*
X95564760Y-95893057D01*
X95571163Y-95892153D01*
X95597511Y-95882934D01*
X95604156Y-95883120D01*
X95645740Y-95867246D01*
X95685186Y-95854674D01*
X95739266Y-95908754D01*
X95574999Y-95984486D01*
X95441155Y-96393177D01*
X95473899Y-96821977D01*
X95574999Y-97066054D01*
X95739268Y-97141787D01*
X96355785Y-96525270D01*
X96714995Y-96525270D01*
X97331512Y-97141787D01*
X97495781Y-97066054D01*
X97629625Y-96657363D01*
X97603119Y-96310246D01*
X97994390Y-96310246D01*
X97994390Y-96740294D01*
X98158962Y-97137607D01*
X98463053Y-97441698D01*
X98860366Y-97606270D01*
X99290414Y-97606270D01*
X99687727Y-97441698D01*
X99991818Y-97137607D01*
X100156390Y-96740294D01*
X100156390Y-96310246D01*
X100534390Y-96310246D01*
X100534390Y-96740294D01*
X100698962Y-97137607D01*
X101003053Y-97441698D01*
X101400366Y-97606270D01*
X101830414Y-97606270D01*
X102227727Y-97441698D01*
X102531818Y-97137607D01*
X102696390Y-96740294D01*
X102696390Y-96525270D01*
X102860510Y-96525270D01*
X102959077Y-97020799D01*
X103066926Y-97182206D01*
X103066926Y-97225270D01*
X103096496Y-97373929D01*
X103180704Y-97499956D01*
X103306731Y-97584164D01*
X103455390Y-97613734D01*
X103498454Y-97613734D01*
X103659861Y-97721583D01*
X104030310Y-97795270D01*
X106820470Y-97795270D01*
X107190919Y-97721583D01*
X107611008Y-97440888D01*
X107891703Y-97020799D01*
X107990270Y-96525270D01*
X112640274Y-96525270D01*
X112735814Y-97005582D01*
X113007889Y-97412771D01*
X113415078Y-97684846D01*
X113774151Y-97756270D01*
X114436629Y-97756270D01*
X114795702Y-97684846D01*
X115202891Y-97412771D01*
X115474966Y-97005582D01*
X115570506Y-96525270D01*
X128300274Y-96525270D01*
X128395814Y-97005582D01*
X128667889Y-97412771D01*
X129075078Y-97684846D01*
X129434151Y-97756270D01*
X130096629Y-97756270D01*
X130455702Y-97684846D01*
X130862891Y-97412771D01*
X130992024Y-97219509D01*
X136660756Y-97219509D01*
X136719156Y-97369288D01*
X137076876Y-97479634D01*
X137449594Y-97444686D01*
X137631624Y-97369288D01*
X137690024Y-97219509D01*
X137175390Y-96704875D01*
X136660756Y-97219509D01*
X130992024Y-97219509D01*
X131134966Y-97005582D01*
X131230506Y-96525270D01*
X131210911Y-96426756D01*
X136221026Y-96426756D01*
X136255974Y-96799474D01*
X136331372Y-96981504D01*
X136481151Y-97039904D01*
X136995785Y-96525270D01*
X137354995Y-96525270D01*
X137869629Y-97039904D01*
X138019408Y-96981504D01*
X138129754Y-96623784D01*
X138094806Y-96251066D01*
X138019408Y-96069036D01*
X137873128Y-96012000D01*
X139954000Y-96012000D01*
X139954000Y-97028000D01*
X139963667Y-97076601D01*
X139991197Y-97117803D01*
X140372197Y-97498803D01*
X140413399Y-97526333D01*
X140462000Y-97536000D01*
X141478000Y-97536000D01*
X141526601Y-97526333D01*
X141567803Y-97498803D01*
X141784606Y-97282000D01*
X155067000Y-97282000D01*
X155067000Y-98298000D01*
X155082752Y-98359261D01*
X155114664Y-98397170D01*
X155749664Y-98905170D01*
X155780399Y-98923333D01*
X155829000Y-98933000D01*
X156718000Y-98933000D01*
X156766601Y-98923333D01*
X156807803Y-98895803D01*
X157151606Y-98552000D01*
X157607000Y-98552000D01*
X157607000Y-99568000D01*
X157616667Y-99616601D01*
X157644197Y-99657803D01*
X158152197Y-100165803D01*
X158193399Y-100193333D01*
X158242000Y-100203000D01*
X159258000Y-100203000D01*
X159306601Y-100193333D01*
X159347803Y-100165803D01*
X159855803Y-99657803D01*
X159883333Y-99616601D01*
X159893000Y-99568000D01*
X159893000Y-98940191D01*
X162575390Y-98940191D01*
X162575391Y-101730350D01*
X162649078Y-102100799D01*
X162756926Y-102262205D01*
X162756926Y-102305270D01*
X162786496Y-102453929D01*
X162870704Y-102579956D01*
X162996731Y-102664164D01*
X163145390Y-102693734D01*
X163188455Y-102693734D01*
X163349862Y-102801583D01*
X163845390Y-102900150D01*
X164340919Y-102801583D01*
X164502326Y-102693734D01*
X164545390Y-102693734D01*
X164694049Y-102664164D01*
X164820076Y-102579956D01*
X164904284Y-102453929D01*
X164933854Y-102305270D01*
X164933854Y-102262206D01*
X165041703Y-102100799D01*
X165115390Y-101730350D01*
X165115390Y-101390246D01*
X170384390Y-101390246D01*
X170384390Y-101820294D01*
X170548962Y-102217607D01*
X170853053Y-102521698D01*
X171250366Y-102686270D01*
X171680414Y-102686270D01*
X172077727Y-102521698D01*
X172381818Y-102217607D01*
X172546390Y-101820294D01*
X172546390Y-101390246D01*
X172544208Y-101384976D01*
X178004390Y-101384976D01*
X178004390Y-101815024D01*
X178168962Y-102212337D01*
X178473053Y-102516428D01*
X178870366Y-102681000D01*
X179300414Y-102681000D01*
X179697727Y-102516428D01*
X180001818Y-102212337D01*
X180166390Y-101815024D01*
X180166390Y-101384976D01*
X185624390Y-101384976D01*
X185624390Y-101815024D01*
X185788962Y-102212337D01*
X186093053Y-102516428D01*
X186490366Y-102681000D01*
X186920414Y-102681000D01*
X187317727Y-102516428D01*
X187621818Y-102212337D01*
X187786390Y-101815024D01*
X187786390Y-101384976D01*
X187621818Y-100987663D01*
X187317727Y-100683572D01*
X186920414Y-100519000D01*
X186490366Y-100519000D01*
X186093053Y-100683572D01*
X185788962Y-100987663D01*
X185624390Y-101384976D01*
X180166390Y-101384976D01*
X180001818Y-100987663D01*
X179697727Y-100683572D01*
X179300414Y-100519000D01*
X178870366Y-100519000D01*
X178473053Y-100683572D01*
X178168962Y-100987663D01*
X178004390Y-101384976D01*
X172544208Y-101384976D01*
X172381818Y-100992933D01*
X172077727Y-100688842D01*
X171680414Y-100524270D01*
X171250366Y-100524270D01*
X170853053Y-100688842D01*
X170548962Y-100992933D01*
X170384390Y-101390246D01*
X165115390Y-101390246D01*
X165115390Y-99788242D01*
X165842023Y-99788242D01*
X165905318Y-99942098D01*
X166277409Y-100059069D01*
X166665939Y-100024743D01*
X166865462Y-99942098D01*
X166928757Y-99788242D01*
X166385390Y-99244875D01*
X165842023Y-99788242D01*
X165115390Y-99788242D01*
X165115390Y-98957289D01*
X165391591Y-98957289D01*
X165425917Y-99345819D01*
X165508562Y-99545342D01*
X165662418Y-99608637D01*
X166205785Y-99065270D01*
X166564995Y-99065270D01*
X167108362Y-99608637D01*
X167262218Y-99545342D01*
X167379189Y-99173251D01*
X167350187Y-98844976D01*
X178004390Y-98844976D01*
X178004390Y-99275024D01*
X178168962Y-99672337D01*
X178473053Y-99976428D01*
X178870366Y-100141000D01*
X179300414Y-100141000D01*
X179697727Y-99976428D01*
X180001818Y-99672337D01*
X180166390Y-99275024D01*
X180166390Y-98844976D01*
X185624390Y-98844976D01*
X185624390Y-99275024D01*
X185788962Y-99672337D01*
X186093053Y-99976428D01*
X186490366Y-100141000D01*
X186920414Y-100141000D01*
X187317727Y-99976428D01*
X187621818Y-99672337D01*
X187786390Y-99275024D01*
X187786390Y-98844976D01*
X187621818Y-98447663D01*
X187317727Y-98143572D01*
X186920414Y-97979000D01*
X186490366Y-97979000D01*
X186093053Y-98143572D01*
X185788962Y-98447663D01*
X185624390Y-98844976D01*
X180166390Y-98844976D01*
X180001818Y-98447663D01*
X179697727Y-98143572D01*
X179300414Y-97979000D01*
X178870366Y-97979000D01*
X178473053Y-98143572D01*
X178168962Y-98447663D01*
X178004390Y-98844976D01*
X167350187Y-98844976D01*
X167344863Y-98784721D01*
X167262218Y-98585198D01*
X167108362Y-98521903D01*
X166564995Y-99065270D01*
X166205785Y-99065270D01*
X165662418Y-98521903D01*
X165508562Y-98585198D01*
X165391591Y-98957289D01*
X165115390Y-98957289D01*
X165115390Y-98940190D01*
X165041703Y-98569741D01*
X164889731Y-98342298D01*
X165842023Y-98342298D01*
X166385390Y-98885665D01*
X166928757Y-98342298D01*
X166865462Y-98188442D01*
X166493371Y-98071471D01*
X166104841Y-98105797D01*
X165905318Y-98188442D01*
X165842023Y-98342298D01*
X164889731Y-98342298D01*
X164761008Y-98149652D01*
X164340918Y-97868957D01*
X163845390Y-97770390D01*
X163349861Y-97868957D01*
X162929772Y-98149652D01*
X162649077Y-98569742D01*
X162575390Y-98940191D01*
X159893000Y-98940191D01*
X159893000Y-98552000D01*
X159883333Y-98503399D01*
X159855803Y-98462197D01*
X159347803Y-97954197D01*
X159306601Y-97926667D01*
X159258000Y-97917000D01*
X158242000Y-97917000D01*
X158193399Y-97926667D01*
X158152197Y-97954197D01*
X157644197Y-98462197D01*
X157616667Y-98503399D01*
X157607000Y-98552000D01*
X157151606Y-98552000D01*
X157315803Y-98387803D01*
X157343333Y-98346601D01*
X157353000Y-98298000D01*
X157353000Y-97282000D01*
X157343333Y-97233399D01*
X157315803Y-97192197D01*
X156807803Y-96684197D01*
X156766601Y-96656667D01*
X156718000Y-96647000D01*
X155702000Y-96647000D01*
X155653399Y-96656667D01*
X155612197Y-96684197D01*
X155104197Y-97192197D01*
X155076667Y-97233399D01*
X155067000Y-97282000D01*
X141784606Y-97282000D01*
X141948803Y-97117803D01*
X141976333Y-97076601D01*
X141986000Y-97028000D01*
X141986000Y-96012000D01*
X141976333Y-95963399D01*
X141948803Y-95922197D01*
X141567803Y-95541197D01*
X141526601Y-95513667D01*
X141478000Y-95504000D01*
X140462000Y-95504000D01*
X140413399Y-95513667D01*
X140372197Y-95541197D01*
X139991197Y-95922197D01*
X139963667Y-95963399D01*
X139954000Y-96012000D01*
X137873128Y-96012000D01*
X137869629Y-96010636D01*
X137354995Y-96525270D01*
X136995785Y-96525270D01*
X136481151Y-96010636D01*
X136331372Y-96069036D01*
X136221026Y-96426756D01*
X131210911Y-96426756D01*
X131134966Y-96044958D01*
X130992025Y-95831031D01*
X136660756Y-95831031D01*
X137175390Y-96345665D01*
X137690024Y-95831031D01*
X137631624Y-95681252D01*
X137273904Y-95570906D01*
X136901186Y-95605854D01*
X136719156Y-95681252D01*
X136660756Y-95831031D01*
X130992025Y-95831031D01*
X130862891Y-95637769D01*
X130455702Y-95365694D01*
X130096629Y-95294270D01*
X129434151Y-95294270D01*
X129075078Y-95365694D01*
X128667889Y-95637769D01*
X128395814Y-96044958D01*
X128300274Y-96525270D01*
X115570506Y-96525270D01*
X115474966Y-96044958D01*
X115202891Y-95637769D01*
X114795702Y-95365694D01*
X114436629Y-95294270D01*
X113774151Y-95294270D01*
X113415078Y-95365694D01*
X113007889Y-95637769D01*
X112735814Y-96044958D01*
X112640274Y-96525270D01*
X107990270Y-96525270D01*
X107891703Y-96029741D01*
X107611008Y-95609652D01*
X107190919Y-95328957D01*
X106820470Y-95255270D01*
X104030310Y-95255270D01*
X103659861Y-95328957D01*
X103498454Y-95436806D01*
X103455390Y-95436806D01*
X103306731Y-95466376D01*
X103180704Y-95550584D01*
X103096496Y-95676611D01*
X103066926Y-95825270D01*
X103066926Y-95868334D01*
X102959077Y-96029741D01*
X102860510Y-96525270D01*
X102696390Y-96525270D01*
X102696390Y-96310246D01*
X102531818Y-95912933D01*
X102227727Y-95608842D01*
X101830414Y-95444270D01*
X101400366Y-95444270D01*
X101003053Y-95608842D01*
X100698962Y-95912933D01*
X100534390Y-96310246D01*
X100156390Y-96310246D01*
X99991818Y-95912933D01*
X99687727Y-95608842D01*
X99290414Y-95444270D01*
X98860366Y-95444270D01*
X98463053Y-95608842D01*
X98158962Y-95912933D01*
X97994390Y-96310246D01*
X97603119Y-96310246D01*
X97596881Y-96228563D01*
X97495781Y-95984486D01*
X97331512Y-95908753D01*
X96714995Y-96525270D01*
X96355785Y-96525270D01*
X96341643Y-96511128D01*
X96521248Y-96331523D01*
X96535390Y-96345665D01*
X97151907Y-95729148D01*
X97076174Y-95564879D01*
X96667483Y-95431035D01*
X96238683Y-95463779D01*
X96043917Y-95544454D01*
X96061128Y-95518696D01*
X96062425Y-95512177D01*
X96077275Y-95488543D01*
X96079581Y-95482502D01*
X96082866Y-95476933D01*
X96092085Y-95450586D01*
X96096374Y-95445507D01*
X96109891Y-95403099D01*
X96125766Y-95361510D01*
X96125580Y-95354865D01*
X96134799Y-95328517D01*
X96135703Y-95322114D01*
X96137666Y-95315955D01*
X96140792Y-95288214D01*
X96143844Y-95282306D01*
X96147585Y-95237951D01*
X96153807Y-95193880D01*
X96152147Y-95187443D01*
X96155272Y-95159707D01*
X96154728Y-95153260D01*
X96155272Y-95146814D01*
X96152147Y-95119076D01*
X96153807Y-95112639D01*
X96147587Y-95068578D01*
X96143845Y-95024214D01*
X96140793Y-95018305D01*
X96137667Y-94990565D01*
X96135702Y-94984401D01*
X96134799Y-94978002D01*
X96125580Y-94951654D01*
X96125766Y-94945009D01*
X96109892Y-94903424D01*
X96096374Y-94861012D01*
X96092085Y-94855933D01*
X96082866Y-94829586D01*
X96079581Y-94824017D01*
X96077275Y-94817976D01*
X96062425Y-94794342D01*
X96061128Y-94787823D01*
X96036400Y-94750816D01*
X96013781Y-94712471D01*
X96008468Y-94708473D01*
X95993618Y-94684839D01*
X95989176Y-94680140D01*
X95985584Y-94674765D01*
X95965847Y-94655028D01*
X95963132Y-94648960D01*
X95930786Y-94618379D01*
X95900205Y-94586033D01*
X95894138Y-94583318D01*
X95874400Y-94563580D01*
X95869021Y-94559986D01*
X95864326Y-94555547D01*
X95860685Y-94553260D01*
X95864326Y-94550972D01*
X95869021Y-94546533D01*
X95874400Y-94542939D01*
X95894138Y-94523201D01*
X95900205Y-94520486D01*
X95930786Y-94488140D01*
X95963132Y-94457559D01*
X95965847Y-94451491D01*
X95985584Y-94431754D01*
X95989176Y-94426379D01*
X95993618Y-94421680D01*
X96008468Y-94398046D01*
X96013781Y-94394048D01*
X96036400Y-94355703D01*
X96061128Y-94318696D01*
X96062425Y-94312177D01*
X96077275Y-94288543D01*
X96079581Y-94282502D01*
X96082866Y-94276933D01*
X96092085Y-94250586D01*
X96096374Y-94245507D01*
X96109891Y-94203099D01*
X96125766Y-94161510D01*
X96125580Y-94154865D01*
X96134799Y-94128517D01*
X96135703Y-94122114D01*
X96137666Y-94115955D01*
X96140792Y-94088214D01*
X96143844Y-94082306D01*
X96147585Y-94037951D01*
X96153807Y-93993880D01*
X96152147Y-93987443D01*
X96152391Y-93985270D01*
X112640274Y-93985270D01*
X112735814Y-94465582D01*
X113007889Y-94872771D01*
X113415078Y-95144846D01*
X113774151Y-95216270D01*
X114436629Y-95216270D01*
X114795702Y-95144846D01*
X115202891Y-94872771D01*
X115474966Y-94465582D01*
X115570506Y-93985270D01*
X128300274Y-93985270D01*
X128395814Y-94465582D01*
X128667889Y-94872771D01*
X129075078Y-95144846D01*
X129434151Y-95216270D01*
X130096629Y-95216270D01*
X130455702Y-95144846D01*
X130862891Y-94872771D01*
X131134966Y-94465582D01*
X131230506Y-93985270D01*
X135880510Y-93985270D01*
X135979077Y-94480799D01*
X136259772Y-94900888D01*
X136679861Y-95181583D01*
X137050310Y-95255270D01*
X154830315Y-95255270D01*
X154955390Y-95280149D01*
X155080465Y-95255270D01*
X155080470Y-95255270D01*
X155124390Y-95246534D01*
X155124390Y-95474273D01*
X155292007Y-95878936D01*
X155601724Y-96188653D01*
X156006387Y-96356270D01*
X156444393Y-96356270D01*
X156849056Y-96188653D01*
X157025709Y-96012000D01*
X157607000Y-96012000D01*
X157607000Y-97028000D01*
X157616667Y-97076601D01*
X157644197Y-97117803D01*
X158152197Y-97625803D01*
X158193399Y-97653333D01*
X158242000Y-97663000D01*
X159258000Y-97663000D01*
X159306601Y-97653333D01*
X159347803Y-97625803D01*
X159855803Y-97117803D01*
X159883333Y-97076601D01*
X159893000Y-97028000D01*
X159893000Y-96742250D01*
X178004390Y-96742250D01*
X178004390Y-97295786D01*
X178062394Y-97435820D01*
X178169571Y-97542996D01*
X178309605Y-97601000D01*
X178863140Y-97601000D01*
X178958390Y-97505750D01*
X178958390Y-96647000D01*
X179212390Y-96647000D01*
X179212390Y-97505750D01*
X179307640Y-97601000D01*
X179861175Y-97601000D01*
X180001209Y-97542996D01*
X180108386Y-97435820D01*
X180166390Y-97295786D01*
X180166390Y-96742250D01*
X180071140Y-96647000D01*
X179212390Y-96647000D01*
X178958390Y-96647000D01*
X178099640Y-96647000D01*
X178004390Y-96742250D01*
X159893000Y-96742250D01*
X159893000Y-96012000D01*
X159883333Y-95963399D01*
X159855803Y-95922197D01*
X159677820Y-95744214D01*
X178004390Y-95744214D01*
X178004390Y-96297750D01*
X178099640Y-96393000D01*
X178958390Y-96393000D01*
X178958390Y-95534250D01*
X179212390Y-95534250D01*
X179212390Y-96393000D01*
X180071140Y-96393000D01*
X180166390Y-96297750D01*
X180166390Y-95744214D01*
X180108386Y-95604180D01*
X180001209Y-95497004D01*
X179861175Y-95439000D01*
X179307640Y-95439000D01*
X179212390Y-95534250D01*
X178958390Y-95534250D01*
X178863140Y-95439000D01*
X178309605Y-95439000D01*
X178169571Y-95497004D01*
X178062394Y-95604180D01*
X178004390Y-95744214D01*
X159677820Y-95744214D01*
X159347803Y-95414197D01*
X159306601Y-95386667D01*
X159258000Y-95377000D01*
X158242000Y-95377000D01*
X158193399Y-95386667D01*
X158152197Y-95414197D01*
X157644197Y-95922197D01*
X157616667Y-95963399D01*
X157607000Y-96012000D01*
X157025709Y-96012000D01*
X157158773Y-95878936D01*
X157326390Y-95474273D01*
X157326390Y-95036267D01*
X157158773Y-94631604D01*
X156849056Y-94321887D01*
X156542007Y-94194703D01*
X156970443Y-93766267D01*
X157664390Y-93766267D01*
X157664390Y-94204273D01*
X157832007Y-94608936D01*
X158141724Y-94918653D01*
X158546387Y-95086270D01*
X158984393Y-95086270D01*
X159389056Y-94918653D01*
X159599467Y-94708242D01*
X183622023Y-94708242D01*
X183685318Y-94862098D01*
X184057409Y-94979069D01*
X184445939Y-94944743D01*
X184645462Y-94862098D01*
X184708757Y-94708242D01*
X184165390Y-94164875D01*
X183622023Y-94708242D01*
X159599467Y-94708242D01*
X159698773Y-94608936D01*
X159866390Y-94204273D01*
X159866390Y-93877289D01*
X183171591Y-93877289D01*
X183205917Y-94265819D01*
X183288562Y-94465342D01*
X183442418Y-94528637D01*
X183985785Y-93985270D01*
X184344995Y-93985270D01*
X184888362Y-94528637D01*
X185042218Y-94465342D01*
X185159189Y-94093251D01*
X185138599Y-93860191D01*
X185435390Y-93860191D01*
X185435391Y-96645080D01*
X185509078Y-97015529D01*
X185789773Y-97435618D01*
X186209862Y-97716313D01*
X186705390Y-97814880D01*
X187200919Y-97716313D01*
X187621008Y-97435618D01*
X187901703Y-97015529D01*
X187975390Y-96645080D01*
X187975390Y-93860190D01*
X187901703Y-93489741D01*
X187621008Y-93069652D01*
X187200918Y-92788957D01*
X186705390Y-92690390D01*
X186209861Y-92788957D01*
X185789772Y-93069652D01*
X185509077Y-93489742D01*
X185435390Y-93860191D01*
X185138599Y-93860191D01*
X185124863Y-93704721D01*
X185042218Y-93505198D01*
X184888362Y-93441903D01*
X184344995Y-93985270D01*
X183985785Y-93985270D01*
X183442418Y-93441903D01*
X183288562Y-93505198D01*
X183171591Y-93877289D01*
X159866390Y-93877289D01*
X159866390Y-93766267D01*
X159698773Y-93361604D01*
X159599467Y-93262298D01*
X183622023Y-93262298D01*
X184165390Y-93805665D01*
X184708757Y-93262298D01*
X184645462Y-93108442D01*
X184273371Y-92991471D01*
X183884841Y-93025797D01*
X183685318Y-93108442D01*
X183622023Y-93262298D01*
X159599467Y-93262298D01*
X159389056Y-93051887D01*
X158984393Y-92884270D01*
X158546387Y-92884270D01*
X158141724Y-93051887D01*
X157832007Y-93361604D01*
X157664390Y-93766267D01*
X156970443Y-93766267D01*
X157034971Y-93701740D01*
X157141008Y-93630888D01*
X157211861Y-93524849D01*
X158021441Y-92715270D01*
X158890470Y-92715270D01*
X159260919Y-92641583D01*
X159681008Y-92360888D01*
X159961703Y-91940799D01*
X160060270Y-91445270D01*
X159961703Y-90949741D01*
X159681008Y-90529652D01*
X159260919Y-90248957D01*
X158890470Y-90175270D01*
X158021441Y-90175270D01*
X157333854Y-89487684D01*
X157333854Y-89455270D01*
X157304284Y-89306611D01*
X157220076Y-89180584D01*
X157094049Y-89096376D01*
X156945390Y-89066806D01*
X156852393Y-89066806D01*
X156720918Y-88978957D01*
X156225390Y-88880390D01*
X155729861Y-88978957D01*
X155598386Y-89066806D01*
X155505390Y-89066806D01*
X155356731Y-89096376D01*
X155230704Y-89180584D01*
X155146496Y-89306611D01*
X155116926Y-89455270D01*
X155116926Y-89548267D01*
X155029077Y-89679742D01*
X154955390Y-90050191D01*
X154955390Y-90050195D01*
X154930511Y-90175270D01*
X154955390Y-90300345D01*
X154955391Y-92189219D01*
X154429340Y-92715270D01*
X137050310Y-92715270D01*
X136679861Y-92788957D01*
X136259772Y-93069652D01*
X135979077Y-93489741D01*
X135880510Y-93985270D01*
X131230506Y-93985270D01*
X131134966Y-93504958D01*
X130862891Y-93097769D01*
X130455702Y-92825694D01*
X130096629Y-92754270D01*
X129434151Y-92754270D01*
X129075078Y-92825694D01*
X128667889Y-93097769D01*
X128395814Y-93504958D01*
X128300274Y-93985270D01*
X115570506Y-93985270D01*
X115474966Y-93504958D01*
X115202891Y-93097769D01*
X114795702Y-92825694D01*
X114436629Y-92754270D01*
X113774151Y-92754270D01*
X113415078Y-92825694D01*
X113007889Y-93097769D01*
X112735814Y-93504958D01*
X112640274Y-93985270D01*
X96152391Y-93985270D01*
X96155272Y-93959707D01*
X96154728Y-93953260D01*
X96155272Y-93946814D01*
X96152147Y-93919076D01*
X96153807Y-93912639D01*
X96147587Y-93868578D01*
X96143845Y-93824214D01*
X96140793Y-93818305D01*
X96137667Y-93790565D01*
X96135702Y-93784401D01*
X96134799Y-93778002D01*
X96125580Y-93751654D01*
X96125766Y-93745009D01*
X96109892Y-93703424D01*
X96096374Y-93661012D01*
X96092085Y-93655933D01*
X96082866Y-93629586D01*
X96079581Y-93624017D01*
X96077275Y-93617976D01*
X96062425Y-93594342D01*
X96061128Y-93587823D01*
X96036400Y-93550816D01*
X96013781Y-93512471D01*
X96008468Y-93508473D01*
X95993618Y-93484839D01*
X95989176Y-93480140D01*
X95985584Y-93474765D01*
X95965847Y-93455028D01*
X95963132Y-93448960D01*
X95930786Y-93418379D01*
X95900205Y-93386033D01*
X95894138Y-93383318D01*
X95874400Y-93363580D01*
X95869021Y-93359986D01*
X95864326Y-93355547D01*
X95840692Y-93340697D01*
X95836694Y-93335384D01*
X95798353Y-93312767D01*
X95761342Y-93288037D01*
X95754821Y-93286740D01*
X95731189Y-93271891D01*
X95725152Y-93269587D01*
X95719579Y-93266299D01*
X95693228Y-93257078D01*
X95688147Y-93252788D01*
X95645729Y-93239269D01*
X95604156Y-93223399D01*
X95597511Y-93223585D01*
X95571163Y-93214366D01*
X95564759Y-93213462D01*
X95558594Y-93211497D01*
X95520208Y-93207172D01*
X95436526Y-93195358D01*
X95433805Y-93196060D01*
X95421579Y-93196060D01*
X95402345Y-93193893D01*
X95376657Y-93196060D01*
X95224600Y-93196060D01*
X95224600Y-91057504D01*
X96137505Y-90144600D01*
X96902496Y-90144600D01*
X97180400Y-90422505D01*
X97180400Y-90561515D01*
X97147727Y-90528842D01*
X96750414Y-90364270D01*
X96320366Y-90364270D01*
X95923053Y-90528842D01*
X95618962Y-90832933D01*
X95454390Y-91230246D01*
X95454390Y-91660294D01*
X95618962Y-92057607D01*
X95923053Y-92361698D01*
X96320366Y-92526270D01*
X96750414Y-92526270D01*
X97147727Y-92361698D01*
X97451818Y-92057607D01*
X97516078Y-91902470D01*
X97587300Y-91902470D01*
X97632330Y-91911427D01*
X97677360Y-91902470D01*
X97790000Y-91880065D01*
X97902640Y-91902470D01*
X97947670Y-91911427D01*
X97992700Y-91902470D01*
X98094702Y-91902470D01*
X98158962Y-92057607D01*
X98463053Y-92361698D01*
X98860366Y-92526270D01*
X99290414Y-92526270D01*
X99687727Y-92361698D01*
X99991818Y-92057607D01*
X100156390Y-91660294D01*
X100156390Y-91230246D01*
X100534390Y-91230246D01*
X100534390Y-91660294D01*
X100698962Y-92057607D01*
X101003053Y-92361698D01*
X101400366Y-92526270D01*
X101830414Y-92526270D01*
X102227727Y-92361698D01*
X102531818Y-92057607D01*
X102696390Y-91660294D01*
X102696390Y-91230246D01*
X103074390Y-91230246D01*
X103074390Y-91660294D01*
X103238962Y-92057607D01*
X103543053Y-92361698D01*
X103940366Y-92526270D01*
X104370414Y-92526270D01*
X104767727Y-92361698D01*
X105071818Y-92057607D01*
X105236390Y-91660294D01*
X105236390Y-91230246D01*
X105071818Y-90832933D01*
X104767727Y-90528842D01*
X104370414Y-90364270D01*
X103940366Y-90364270D01*
X103543053Y-90528842D01*
X103238962Y-90832933D01*
X103074390Y-91230246D01*
X102696390Y-91230246D01*
X102531818Y-90832933D01*
X102227727Y-90528842D01*
X101830414Y-90364270D01*
X101400366Y-90364270D01*
X101003053Y-90528842D01*
X100698962Y-90832933D01*
X100534390Y-91230246D01*
X100156390Y-91230246D01*
X99991818Y-90832933D01*
X99687727Y-90528842D01*
X99290414Y-90364270D01*
X98860366Y-90364270D01*
X98463053Y-90528842D01*
X98399600Y-90592295D01*
X98399600Y-90151903D01*
X98408557Y-90106873D01*
X98373073Y-89928483D01*
X98297530Y-89815425D01*
X98272023Y-89777251D01*
X98233849Y-89751744D01*
X97573258Y-89091154D01*
X97547749Y-89052977D01*
X97396517Y-88951927D01*
X97263156Y-88925400D01*
X97218126Y-88916443D01*
X97173096Y-88925400D01*
X95866904Y-88925400D01*
X95821874Y-88916443D01*
X95776844Y-88925400D01*
X95643483Y-88951927D01*
X95492251Y-89052977D01*
X95466744Y-89091151D01*
X94171152Y-90386744D01*
X94132978Y-90412251D01*
X94107471Y-90450425D01*
X94107470Y-90450426D01*
X94031927Y-90563484D01*
X93996443Y-90741874D01*
X94005401Y-90786909D01*
X94005400Y-95437630D01*
X92455721Y-96987309D01*
X92556390Y-96744273D01*
X92556390Y-96306267D01*
X92388773Y-95901604D01*
X92079056Y-95591887D01*
X91674393Y-95424270D01*
X91236387Y-95424270D01*
X90831724Y-95591887D01*
X90522007Y-95901604D01*
X90354390Y-96306267D01*
X90354390Y-96744273D01*
X90522007Y-97148936D01*
X90711141Y-97338070D01*
X89917726Y-97338070D01*
X89848773Y-97171604D01*
X89539056Y-96861887D01*
X89134393Y-96694270D01*
X88696387Y-96694270D01*
X88291724Y-96861887D01*
X87982007Y-97171604D01*
X87814390Y-97576267D01*
X76646390Y-97576267D01*
X76646390Y-95036267D01*
X87814390Y-95036267D01*
X87814390Y-95474273D01*
X87982007Y-95878936D01*
X88291724Y-96188653D01*
X88696387Y-96356270D01*
X89134393Y-96356270D01*
X89539056Y-96188653D01*
X89848773Y-95878936D01*
X90016390Y-95474273D01*
X90016390Y-95036267D01*
X89848773Y-94631604D01*
X89539056Y-94321887D01*
X89134393Y-94154270D01*
X88696387Y-94154270D01*
X88291724Y-94321887D01*
X87982007Y-94631604D01*
X87814390Y-95036267D01*
X76646390Y-95036267D01*
X76646390Y-92496267D01*
X87814390Y-92496267D01*
X87814390Y-92934273D01*
X87982007Y-93338936D01*
X88291724Y-93648653D01*
X88696387Y-93816270D01*
X89134393Y-93816270D01*
X89255110Y-93766267D01*
X90354390Y-93766267D01*
X90354390Y-94204273D01*
X90522007Y-94608936D01*
X90831724Y-94918653D01*
X91236387Y-95086270D01*
X91674393Y-95086270D01*
X92079056Y-94918653D01*
X92388773Y-94608936D01*
X92556390Y-94204273D01*
X92556390Y-93766267D01*
X92388773Y-93361604D01*
X92079056Y-93051887D01*
X91674393Y-92884270D01*
X91236387Y-92884270D01*
X90831724Y-93051887D01*
X90522007Y-93361604D01*
X90354390Y-93766267D01*
X89255110Y-93766267D01*
X89539056Y-93648653D01*
X89848773Y-93338936D01*
X90016390Y-92934273D01*
X90016390Y-92496267D01*
X89848773Y-92091604D01*
X89539056Y-91781887D01*
X89134393Y-91614270D01*
X88696387Y-91614270D01*
X88291724Y-91781887D01*
X87982007Y-92091604D01*
X87814390Y-92496267D01*
X76646390Y-92496267D01*
X76646390Y-88519208D01*
X80599390Y-88519208D01*
X80599390Y-89301332D01*
X80898696Y-90023919D01*
X81451741Y-90576964D01*
X82174328Y-90876270D01*
X82956452Y-90876270D01*
X83679039Y-90576964D01*
X84232084Y-90023919D01*
X84467626Y-89455270D01*
X87806926Y-89455270D01*
X87806926Y-90895270D01*
X87836496Y-91043929D01*
X87920704Y-91169956D01*
X88046731Y-91254164D01*
X88195390Y-91283734D01*
X89635390Y-91283734D01*
X89784049Y-91254164D01*
X89825800Y-91226267D01*
X90354390Y-91226267D01*
X90354390Y-91664273D01*
X90522007Y-92068936D01*
X90831724Y-92378653D01*
X91236387Y-92546270D01*
X91674393Y-92546270D01*
X92079056Y-92378653D01*
X92388773Y-92068936D01*
X92556390Y-91664273D01*
X92556390Y-91226267D01*
X92388773Y-90821604D01*
X92079056Y-90511887D01*
X91674393Y-90344270D01*
X91236387Y-90344270D01*
X90831724Y-90511887D01*
X90522007Y-90821604D01*
X90354390Y-91226267D01*
X89825800Y-91226267D01*
X89910076Y-91169956D01*
X89994284Y-91043929D01*
X90023854Y-90895270D01*
X90023854Y-89455270D01*
X89994284Y-89306611D01*
X89910076Y-89180584D01*
X89784049Y-89096376D01*
X89635390Y-89066806D01*
X88195390Y-89066806D01*
X88046731Y-89096376D01*
X87920704Y-89180584D01*
X87836496Y-89306611D01*
X87806926Y-89455270D01*
X84467626Y-89455270D01*
X84531390Y-89301332D01*
X84531390Y-88519208D01*
X147909390Y-88519208D01*
X147909390Y-89301332D01*
X148208696Y-90023919D01*
X148761741Y-90576964D01*
X149484328Y-90876270D01*
X150266452Y-90876270D01*
X150989039Y-90576964D01*
X151542084Y-90023919D01*
X151841390Y-89301332D01*
X151841390Y-88519208D01*
X151542084Y-87796621D01*
X150989039Y-87243576D01*
X150266452Y-86944270D01*
X149484328Y-86944270D01*
X148761741Y-87243576D01*
X148208696Y-87796621D01*
X147909390Y-88519208D01*
X84531390Y-88519208D01*
X84232084Y-87796621D01*
X83679039Y-87243576D01*
X83304031Y-87088242D01*
X106152023Y-87088242D01*
X106215318Y-87242098D01*
X106587409Y-87359069D01*
X106975939Y-87324743D01*
X107175462Y-87242098D01*
X107238757Y-87088242D01*
X106695390Y-86544875D01*
X106152023Y-87088242D01*
X83304031Y-87088242D01*
X82956452Y-86944270D01*
X82174328Y-86944270D01*
X81451741Y-87243576D01*
X80898696Y-87796621D01*
X80599390Y-88519208D01*
X76646390Y-88519208D01*
X76646390Y-86257289D01*
X105701591Y-86257289D01*
X105735917Y-86645819D01*
X105818562Y-86845342D01*
X105972418Y-86908637D01*
X106515785Y-86365270D01*
X106874995Y-86365270D01*
X107418362Y-86908637D01*
X107572218Y-86845342D01*
X107689189Y-86473251D01*
X107654863Y-86084721D01*
X107572218Y-85885198D01*
X107418362Y-85821903D01*
X106874995Y-86365270D01*
X106515785Y-86365270D01*
X105972418Y-85821903D01*
X105818562Y-85885198D01*
X105701591Y-86257289D01*
X76646390Y-86257289D01*
X76646390Y-85642298D01*
X106152023Y-85642298D01*
X106695390Y-86185665D01*
X107238757Y-85642298D01*
X107175462Y-85488442D01*
X106803371Y-85371471D01*
X106414841Y-85405797D01*
X106215318Y-85488442D01*
X106152023Y-85642298D01*
X76646390Y-85642298D01*
X76646390Y-80465056D01*
X77183000Y-80465056D01*
X77183000Y-82094944D01*
X77806731Y-83600764D01*
X78959236Y-84753269D01*
X80465056Y-85377000D01*
X82094944Y-85377000D01*
X83600764Y-84753269D01*
X83732641Y-84621392D01*
X95918873Y-84621392D01*
X95994606Y-84785661D01*
X96403297Y-84919505D01*
X96832097Y-84886761D01*
X97076174Y-84785661D01*
X97151907Y-84621392D01*
X96535390Y-84004875D01*
X95918873Y-84621392D01*
X83732641Y-84621392D01*
X84660856Y-83693177D01*
X95441155Y-83693177D01*
X95473899Y-84121977D01*
X95574999Y-84366054D01*
X95739268Y-84441787D01*
X96355785Y-83825270D01*
X96714995Y-83825270D01*
X97331512Y-84441787D01*
X97495781Y-84366054D01*
X97629625Y-83957363D01*
X97603119Y-83610246D01*
X97994390Y-83610246D01*
X97994390Y-84040294D01*
X98158962Y-84437607D01*
X98463053Y-84741698D01*
X98860366Y-84906270D01*
X99290414Y-84906270D01*
X99687727Y-84741698D01*
X99991818Y-84437607D01*
X100156390Y-84040294D01*
X100156390Y-83610246D01*
X100534390Y-83610246D01*
X100534390Y-84040294D01*
X100698962Y-84437607D01*
X101003053Y-84741698D01*
X101400366Y-84906270D01*
X101830414Y-84906270D01*
X102227727Y-84741698D01*
X102531818Y-84437607D01*
X102696390Y-84040294D01*
X102696390Y-83825270D01*
X102860510Y-83825270D01*
X102959077Y-84320799D01*
X103066926Y-84482206D01*
X103066926Y-84525270D01*
X103096496Y-84673929D01*
X103180704Y-84799956D01*
X103306731Y-84884164D01*
X103455390Y-84913734D01*
X103498454Y-84913734D01*
X103659861Y-85021583D01*
X104030310Y-85095270D01*
X106820470Y-85095270D01*
X107190919Y-85021583D01*
X107611008Y-84740888D01*
X107891703Y-84320799D01*
X107990270Y-83825270D01*
X107891703Y-83329741D01*
X107611008Y-82909652D01*
X107190919Y-82628957D01*
X106820470Y-82555270D01*
X104030310Y-82555270D01*
X103659861Y-82628957D01*
X103498454Y-82736806D01*
X103455390Y-82736806D01*
X103306731Y-82766376D01*
X103180704Y-82850584D01*
X103096496Y-82976611D01*
X103066926Y-83125270D01*
X103066926Y-83168334D01*
X102959077Y-83329741D01*
X102860510Y-83825270D01*
X102696390Y-83825270D01*
X102696390Y-83610246D01*
X102531818Y-83212933D01*
X102227727Y-82908842D01*
X101830414Y-82744270D01*
X101400366Y-82744270D01*
X101003053Y-82908842D01*
X100698962Y-83212933D01*
X100534390Y-83610246D01*
X100156390Y-83610246D01*
X99991818Y-83212933D01*
X99687727Y-82908842D01*
X99290414Y-82744270D01*
X98860366Y-82744270D01*
X98463053Y-82908842D01*
X98158962Y-83212933D01*
X97994390Y-83610246D01*
X97603119Y-83610246D01*
X97596881Y-83528563D01*
X97495781Y-83284486D01*
X97331512Y-83208753D01*
X96714995Y-83825270D01*
X96355785Y-83825270D01*
X95739268Y-83208753D01*
X95574999Y-83284486D01*
X95441155Y-83693177D01*
X84660856Y-83693177D01*
X84753269Y-83600764D01*
X84990040Y-83029148D01*
X95918873Y-83029148D01*
X96535390Y-83645665D01*
X97151907Y-83029148D01*
X97076174Y-82864879D01*
X96667483Y-82731035D01*
X96238683Y-82763779D01*
X95994606Y-82864879D01*
X95918873Y-83029148D01*
X84990040Y-83029148D01*
X85377000Y-82094944D01*
X85377000Y-80465056D01*
X183863000Y-80465056D01*
X183863000Y-82094944D01*
X184486731Y-83600764D01*
X185639236Y-84753269D01*
X187145056Y-85377000D01*
X188774944Y-85377000D01*
X190280764Y-84753269D01*
X191433269Y-83600764D01*
X192057000Y-82094944D01*
X192057000Y-80465056D01*
X191433269Y-78959236D01*
X190280764Y-77806731D01*
X188774944Y-77183000D01*
X187145056Y-77183000D01*
X185639236Y-77806731D01*
X184486731Y-78959236D01*
X183863000Y-80465056D01*
X85377000Y-80465056D01*
X84753269Y-78959236D01*
X83600764Y-77806731D01*
X82094944Y-77183000D01*
X80465056Y-77183000D01*
X78959236Y-77806731D01*
X77806731Y-78959236D01*
X77183000Y-80465056D01*
X76646390Y-80465056D01*
X76646390Y-76636270D01*
X192624391Y-76636270D01*
X192624390Y-126574270D01*
X192624390Y-126574270D01*
G37*
X192624390Y-126574270D02*
X76646390Y-126574270D01*
X76646390Y-118776339D01*
X91398926Y-118776339D01*
X91603209Y-119049704D01*
X92392530Y-119359021D01*
X93240138Y-119342732D01*
X93947571Y-119049704D01*
X94151854Y-118776339D01*
X92775390Y-117399875D01*
X91398926Y-118776339D01*
X76646390Y-118776339D01*
X76646390Y-116837410D01*
X90636639Y-116837410D01*
X90652928Y-117685018D01*
X90945956Y-118392451D01*
X91219321Y-118596734D01*
X92595785Y-117220270D01*
X92954995Y-117220270D01*
X94331459Y-118596734D01*
X94604824Y-118392451D01*
X94848642Y-117770270D01*
X96436926Y-117770270D01*
X96436926Y-122270270D01*
X96466496Y-122418929D01*
X96550704Y-122544956D01*
X96676731Y-122629164D01*
X96825390Y-122658734D01*
X101325390Y-122658734D01*
X101474049Y-122629164D01*
X101600076Y-122544956D01*
X101684284Y-122418929D01*
X101713854Y-122270270D01*
X101713854Y-121925270D01*
X112640274Y-121925270D01*
X112735814Y-122405582D01*
X113007889Y-122812771D01*
X113415078Y-123084846D01*
X113774151Y-123156270D01*
X114436629Y-123156270D01*
X114795702Y-123084846D01*
X115202891Y-122812771D01*
X115474966Y-122405582D01*
X115570506Y-121925270D01*
X115474966Y-121444958D01*
X115227949Y-121075270D01*
X128316926Y-121075270D01*
X128316926Y-122775270D01*
X128346496Y-122923929D01*
X128430704Y-123049956D01*
X128556731Y-123134164D01*
X128705390Y-123163734D01*
X130825390Y-123163734D01*
X130974049Y-123134164D01*
X131100076Y-123049956D01*
X131184284Y-122923929D01*
X131213854Y-122775270D01*
X131213854Y-121075270D01*
X131184284Y-120926611D01*
X131100076Y-120800584D01*
X130974049Y-120716376D01*
X130825390Y-120686806D01*
X128705390Y-120686806D01*
X128556731Y-120716376D01*
X128430704Y-120800584D01*
X128346496Y-120926611D01*
X128316926Y-121075270D01*
X115227949Y-121075270D01*
X115202891Y-121037769D01*
X114795702Y-120765694D01*
X114436629Y-120694270D01*
X113774151Y-120694270D01*
X113415078Y-120765694D01*
X113007889Y-121037769D01*
X112735814Y-121444958D01*
X112640274Y-121925270D01*
X101713854Y-121925270D01*
X101713854Y-121290270D01*
X104030310Y-121290270D01*
X104155390Y-121315150D01*
X104280470Y-121290270D01*
X104650919Y-121216583D01*
X105071008Y-120935888D01*
X105199730Y-120743242D01*
X106152023Y-120743242D01*
X106215318Y-120897098D01*
X106587409Y-121014069D01*
X106975939Y-120979743D01*
X107175462Y-120897098D01*
X107238757Y-120743242D01*
X106695390Y-120199875D01*
X106152023Y-120743242D01*
X105199730Y-120743242D01*
X105351703Y-120515799D01*
X105450270Y-120020270D01*
X105428792Y-119912289D01*
X105701591Y-119912289D01*
X105735917Y-120300819D01*
X105818562Y-120500342D01*
X105972418Y-120563637D01*
X106515785Y-120020270D01*
X106874995Y-120020270D01*
X107418362Y-120563637D01*
X107572218Y-120500342D01*
X107689189Y-120128251D01*
X107654863Y-119739721D01*
X107639343Y-119702250D01*
X112705901Y-119702250D01*
X112713630Y-119754344D01*
X112944825Y-120178490D01*
X113320734Y-120481875D01*
X113784130Y-120618312D01*
X113978390Y-120525286D01*
X113978390Y-119512270D01*
X114232390Y-119512270D01*
X114232390Y-120525286D01*
X114426650Y-120618312D01*
X114890046Y-120481875D01*
X115265955Y-120178490D01*
X115497150Y-119754344D01*
X115504879Y-119702250D01*
X115444017Y-119512270D01*
X114232390Y-119512270D01*
X113978390Y-119512270D01*
X112766763Y-119512270D01*
X112705901Y-119702250D01*
X107639343Y-119702250D01*
X107572218Y-119540198D01*
X107418362Y-119476903D01*
X106874995Y-120020270D01*
X106515785Y-120020270D01*
X105972418Y-119476903D01*
X105818562Y-119540198D01*
X105701591Y-119912289D01*
X105428792Y-119912289D01*
X105425390Y-119895190D01*
X105425390Y-119297298D01*
X106152023Y-119297298D01*
X106695390Y-119840665D01*
X107150785Y-119385270D01*
X128300274Y-119385270D01*
X128395814Y-119865582D01*
X128667889Y-120272771D01*
X129075078Y-120544846D01*
X129434151Y-120616270D01*
X130096629Y-120616270D01*
X130455702Y-120544846D01*
X130862891Y-120272771D01*
X131134966Y-119865582D01*
X131230506Y-119385270D01*
X131134966Y-118904958D01*
X131049026Y-118776339D01*
X140928926Y-118776339D01*
X141133209Y-119049704D01*
X141922530Y-119359021D01*
X142770138Y-119342732D01*
X143477571Y-119049704D01*
X143681854Y-118776339D01*
X142305390Y-117399875D01*
X140928926Y-118776339D01*
X131049026Y-118776339D01*
X130862891Y-118497769D01*
X130455702Y-118225694D01*
X130096629Y-118154270D01*
X129434151Y-118154270D01*
X129075078Y-118225694D01*
X128667889Y-118497769D01*
X128395814Y-118904958D01*
X128300274Y-119385270D01*
X107150785Y-119385270D01*
X107238757Y-119297298D01*
X107175462Y-119143442D01*
X106936400Y-119068290D01*
X112705901Y-119068290D01*
X112766763Y-119258270D01*
X113978390Y-119258270D01*
X113978390Y-118245254D01*
X114232390Y-118245254D01*
X114232390Y-119258270D01*
X115444017Y-119258270D01*
X115504879Y-119068290D01*
X115497150Y-119016196D01*
X115265955Y-118592050D01*
X114890046Y-118288665D01*
X114426650Y-118152228D01*
X114232390Y-118245254D01*
X113978390Y-118245254D01*
X113784130Y-118152228D01*
X113320734Y-118288665D01*
X112944825Y-118592050D01*
X112713630Y-119016196D01*
X112705901Y-119068290D01*
X106936400Y-119068290D01*
X106803371Y-119026471D01*
X106414841Y-119060797D01*
X106215318Y-119143442D01*
X106152023Y-119297298D01*
X105425390Y-119297298D01*
X105425390Y-116904509D01*
X106180756Y-116904509D01*
X106239156Y-117054288D01*
X106596876Y-117164634D01*
X106969594Y-117129686D01*
X107151624Y-117054288D01*
X107210024Y-116904509D01*
X107150785Y-116845270D01*
X112640274Y-116845270D01*
X112735814Y-117325582D01*
X113007889Y-117732771D01*
X113415078Y-118004846D01*
X113774151Y-118076270D01*
X114436629Y-118076270D01*
X114795702Y-118004846D01*
X115202891Y-117732771D01*
X115474966Y-117325582D01*
X115570506Y-116845270D01*
X128300274Y-116845270D01*
X128395814Y-117325582D01*
X128667889Y-117732771D01*
X129075078Y-118004846D01*
X129434151Y-118076270D01*
X130096629Y-118076270D01*
X130455702Y-118004846D01*
X130862891Y-117732771D01*
X131134966Y-117325582D01*
X131230506Y-116845270D01*
X131228943Y-116837410D01*
X140166639Y-116837410D01*
X140182928Y-117685018D01*
X140475956Y-118392451D01*
X140749321Y-118596734D01*
X142125785Y-117220270D01*
X142484995Y-117220270D01*
X143861459Y-118596734D01*
X144134824Y-118392451D01*
X144378642Y-117770270D01*
X145966926Y-117770270D01*
X145966926Y-122270270D01*
X145996496Y-122418929D01*
X146080704Y-122544956D01*
X146206731Y-122629164D01*
X146355390Y-122658734D01*
X150855390Y-122658734D01*
X151004049Y-122629164D01*
X151107157Y-122560270D01*
X157620470Y-122560270D01*
X157990919Y-122486583D01*
X158411008Y-122205888D01*
X158691703Y-121785799D01*
X158790270Y-121290270D01*
X158753429Y-121105056D01*
X183863000Y-121105056D01*
X183863000Y-122734944D01*
X184486731Y-124240764D01*
X185639236Y-125393269D01*
X187145056Y-126017000D01*
X188774944Y-126017000D01*
X190280764Y-125393269D01*
X191433269Y-124240764D01*
X192057000Y-122734944D01*
X192057000Y-121105056D01*
X191433269Y-119599236D01*
X190280764Y-118446731D01*
X188774944Y-117823000D01*
X187145056Y-117823000D01*
X185639236Y-118446731D01*
X184486731Y-119599236D01*
X183863000Y-121105056D01*
X158753429Y-121105056D01*
X158691703Y-120794741D01*
X158411008Y-120374652D01*
X157990919Y-120093957D01*
X157620470Y-120020270D01*
X151243854Y-120020270D01*
X151243854Y-119473242D01*
X153142023Y-119473242D01*
X153205318Y-119627098D01*
X153577409Y-119744069D01*
X153965939Y-119709743D01*
X154165462Y-119627098D01*
X154228757Y-119473242D01*
X154200024Y-119444509D01*
X156980756Y-119444509D01*
X157039156Y-119594288D01*
X157396876Y-119704634D01*
X157769594Y-119669686D01*
X157951624Y-119594288D01*
X158010024Y-119444509D01*
X157495390Y-118929875D01*
X156980756Y-119444509D01*
X154200024Y-119444509D01*
X153685390Y-118929875D01*
X153142023Y-119473242D01*
X151243854Y-119473242D01*
X151243854Y-118642289D01*
X152691591Y-118642289D01*
X152725917Y-119030819D01*
X152808562Y-119230342D01*
X152962418Y-119293637D01*
X153505785Y-118750270D01*
X153864995Y-118750270D01*
X154408362Y-119293637D01*
X154562218Y-119230342D01*
X154679189Y-118858251D01*
X154660946Y-118651756D01*
X156541026Y-118651756D01*
X156575974Y-119024474D01*
X156651372Y-119206504D01*
X156801151Y-119264904D01*
X157315785Y-118750270D01*
X157674995Y-118750270D01*
X158189629Y-119264904D01*
X158339408Y-119206504D01*
X158449754Y-118848784D01*
X158414806Y-118476066D01*
X158339408Y-118294036D01*
X158189629Y-118235636D01*
X157674995Y-118750270D01*
X157315785Y-118750270D01*
X156801151Y-118235636D01*
X156651372Y-118294036D01*
X156541026Y-118651756D01*
X154660946Y-118651756D01*
X154644863Y-118469721D01*
X154562218Y-118270198D01*
X154408362Y-118206903D01*
X153864995Y-118750270D01*
X153505785Y-118750270D01*
X152962418Y-118206903D01*
X152808562Y-118270198D01*
X152691591Y-118642289D01*
X151243854Y-118642289D01*
X151243854Y-118027298D01*
X153142023Y-118027298D01*
X153685390Y-118570665D01*
X154200024Y-118056031D01*
X156980756Y-118056031D01*
X157495390Y-118570665D01*
X158010024Y-118056031D01*
X157951624Y-117906252D01*
X157593904Y-117795906D01*
X157221186Y-117830854D01*
X157039156Y-117906252D01*
X156980756Y-118056031D01*
X154200024Y-118056031D01*
X154228757Y-118027298D01*
X154165462Y-117873442D01*
X153793371Y-117756471D01*
X153404841Y-117790797D01*
X153205318Y-117873442D01*
X153142023Y-118027298D01*
X151243854Y-118027298D01*
X151243854Y-117770270D01*
X151214284Y-117621611D01*
X151130076Y-117495584D01*
X151004049Y-117411376D01*
X150855390Y-117381806D01*
X146355390Y-117381806D01*
X146206731Y-117411376D01*
X146080704Y-117495584D01*
X145996496Y-117621611D01*
X145966926Y-117770270D01*
X144378642Y-117770270D01*
X144444141Y-117603130D01*
X144427852Y-116755522D01*
X144273586Y-116383090D01*
X144722530Y-116559021D01*
X145570138Y-116542732D01*
X146277571Y-116249704D01*
X146481854Y-115976339D01*
X145105390Y-114599875D01*
X142484995Y-117220270D01*
X142125785Y-117220270D01*
X140749321Y-115843806D01*
X140475956Y-116048089D01*
X140166639Y-116837410D01*
X131228943Y-116837410D01*
X131134966Y-116364958D01*
X130862891Y-115957769D01*
X130455702Y-115685694D01*
X130347650Y-115664201D01*
X140928926Y-115664201D01*
X142305390Y-117040665D01*
X144925785Y-114420270D01*
X145284995Y-114420270D01*
X146661459Y-115796734D01*
X146934824Y-115592451D01*
X147244141Y-114803130D01*
X147227852Y-113955522D01*
X146934824Y-113248089D01*
X146661459Y-113043806D01*
X145284995Y-114420270D01*
X144925785Y-114420270D01*
X143549321Y-113043806D01*
X143275956Y-113248089D01*
X142966639Y-114037410D01*
X142982928Y-114885018D01*
X143137194Y-115257450D01*
X142688250Y-115081519D01*
X141840642Y-115097808D01*
X141133209Y-115390836D01*
X140928926Y-115664201D01*
X130347650Y-115664201D01*
X130096629Y-115614270D01*
X129434151Y-115614270D01*
X129075078Y-115685694D01*
X128667889Y-115957769D01*
X128395814Y-116364958D01*
X128300274Y-116845270D01*
X115570506Y-116845270D01*
X115474966Y-116364958D01*
X115202891Y-115957769D01*
X114795702Y-115685694D01*
X114436629Y-115614270D01*
X113774151Y-115614270D01*
X113415078Y-115685694D01*
X113007889Y-115957769D01*
X112735814Y-116364958D01*
X112640274Y-116845270D01*
X107150785Y-116845270D01*
X106695390Y-116389875D01*
X106180756Y-116904509D01*
X105425390Y-116904509D01*
X105425390Y-116111756D01*
X105741026Y-116111756D01*
X105775974Y-116484474D01*
X105851372Y-116666504D01*
X106001151Y-116724904D01*
X106515785Y-116210270D01*
X106874995Y-116210270D01*
X107389629Y-116724904D01*
X107539408Y-116666504D01*
X107649754Y-116308784D01*
X107614806Y-115936066D01*
X107539408Y-115754036D01*
X107389629Y-115695636D01*
X106874995Y-116210270D01*
X106515785Y-116210270D01*
X106001151Y-115695636D01*
X105851372Y-115754036D01*
X105741026Y-116111756D01*
X105425390Y-116111756D01*
X105425390Y-116085190D01*
X105351703Y-115714741D01*
X105218929Y-115516031D01*
X106180756Y-115516031D01*
X106695390Y-116030665D01*
X107210024Y-115516031D01*
X107151624Y-115366252D01*
X106793904Y-115255906D01*
X106421186Y-115290854D01*
X106239156Y-115366252D01*
X106180756Y-115516031D01*
X105218929Y-115516031D01*
X105071008Y-115294652D01*
X104650919Y-115013957D01*
X104155390Y-114915390D01*
X103659862Y-115013957D01*
X103239773Y-115294652D01*
X102959078Y-115714741D01*
X102885391Y-116085190D01*
X102885390Y-118750270D01*
X101713854Y-118750270D01*
X101713854Y-117770270D01*
X101684284Y-117621611D01*
X101600076Y-117495584D01*
X101474049Y-117411376D01*
X101325390Y-117381806D01*
X96825390Y-117381806D01*
X96676731Y-117411376D01*
X96550704Y-117495584D01*
X96466496Y-117621611D01*
X96436926Y-117770270D01*
X94848642Y-117770270D01*
X94914141Y-117603130D01*
X94897852Y-116755522D01*
X94743586Y-116383090D01*
X95192530Y-116559021D01*
X96040138Y-116542732D01*
X96747571Y-116249704D01*
X96951854Y-115976339D01*
X95575390Y-114599875D01*
X92954995Y-117220270D01*
X92595785Y-117220270D01*
X91219321Y-115843806D01*
X90945956Y-116048089D01*
X90636639Y-116837410D01*
X76646390Y-116837410D01*
X76646390Y-115664201D01*
X91398926Y-115664201D01*
X92775390Y-117040665D01*
X95395785Y-114420270D01*
X95754995Y-114420270D01*
X97131459Y-115796734D01*
X97404824Y-115592451D01*
X97714141Y-114803130D01*
X97704574Y-114305270D01*
X112640274Y-114305270D01*
X112735814Y-114785582D01*
X113007889Y-115192771D01*
X113415078Y-115464846D01*
X113774151Y-115536270D01*
X114436629Y-115536270D01*
X114795702Y-115464846D01*
X115202891Y-115192771D01*
X115474966Y-114785582D01*
X115507454Y-114622250D01*
X128365901Y-114622250D01*
X128373630Y-114674344D01*
X128604825Y-115098490D01*
X128980734Y-115401875D01*
X129444130Y-115538312D01*
X129638390Y-115445286D01*
X129638390Y-114432270D01*
X129892390Y-114432270D01*
X129892390Y-115445286D01*
X130086650Y-115538312D01*
X130550046Y-115401875D01*
X130925955Y-115098490D01*
X131157150Y-114674344D01*
X131164879Y-114622250D01*
X131104017Y-114432270D01*
X129892390Y-114432270D01*
X129638390Y-114432270D01*
X128426763Y-114432270D01*
X128365901Y-114622250D01*
X115507454Y-114622250D01*
X115570506Y-114305270D01*
X115474966Y-113824958D01*
X115202891Y-113417769D01*
X114820510Y-113162270D01*
X115981274Y-113162270D01*
X116076814Y-113642582D01*
X116348889Y-114049771D01*
X116756078Y-114321846D01*
X117115151Y-114393270D01*
X117777629Y-114393270D01*
X118136702Y-114321846D01*
X118543891Y-114049771D01*
X118584971Y-113988290D01*
X128365901Y-113988290D01*
X128426763Y-114178270D01*
X129638390Y-114178270D01*
X129638390Y-113165254D01*
X129892390Y-113165254D01*
X129892390Y-114178270D01*
X131104017Y-114178270D01*
X131164879Y-113988290D01*
X131157150Y-113936196D01*
X130925955Y-113512050D01*
X130550046Y-113208665D01*
X130086650Y-113072228D01*
X129892390Y-113165254D01*
X129638390Y-113165254D01*
X129444130Y-113072228D01*
X128980734Y-113208665D01*
X128604825Y-113512050D01*
X128373630Y-113936196D01*
X128365901Y-113988290D01*
X118584971Y-113988290D01*
X118815966Y-113642582D01*
X118911506Y-113162270D01*
X118815966Y-112681958D01*
X118543891Y-112274769D01*
X118136702Y-112002694D01*
X117777629Y-111931270D01*
X117115151Y-111931270D01*
X116756078Y-112002694D01*
X116348889Y-112274769D01*
X116076814Y-112681958D01*
X115981274Y-113162270D01*
X114820510Y-113162270D01*
X114795702Y-113145694D01*
X114436629Y-113074270D01*
X113774151Y-113074270D01*
X113415078Y-113145694D01*
X113007889Y-113417769D01*
X112735814Y-113824958D01*
X112640274Y-114305270D01*
X97704574Y-114305270D01*
X97697852Y-113955522D01*
X97404824Y-113248089D01*
X97131459Y-113043806D01*
X95754995Y-114420270D01*
X95395785Y-114420270D01*
X94019321Y-113043806D01*
X93745956Y-113248089D01*
X93436639Y-114037410D01*
X93452928Y-114885018D01*
X93607194Y-115257450D01*
X93158250Y-115081519D01*
X92310642Y-115097808D01*
X91603209Y-115390836D01*
X91398926Y-115664201D01*
X76646390Y-115664201D01*
X76646390Y-112864201D01*
X94198926Y-112864201D01*
X95575390Y-114240665D01*
X96951854Y-112864201D01*
X96747571Y-112590836D01*
X95958250Y-112281519D01*
X95110642Y-112297808D01*
X94403209Y-112590836D01*
X94198926Y-112864201D01*
X76646390Y-112864201D01*
X76646390Y-111765270D01*
X112640274Y-111765270D01*
X112735814Y-112245582D01*
X113007889Y-112652771D01*
X113415078Y-112924846D01*
X113774151Y-112996270D01*
X114436629Y-112996270D01*
X114795702Y-112924846D01*
X115202891Y-112652771D01*
X115474966Y-112245582D01*
X115570506Y-111765270D01*
X115474966Y-111284958D01*
X115202891Y-110877769D01*
X114820510Y-110622270D01*
X115981274Y-110622270D01*
X116076814Y-111102582D01*
X116348889Y-111509771D01*
X116756078Y-111781846D01*
X117115151Y-111853270D01*
X117777629Y-111853270D01*
X118136702Y-111781846D01*
X118161509Y-111765270D01*
X128300274Y-111765270D01*
X128395814Y-112245582D01*
X128667889Y-112652771D01*
X129075078Y-112924846D01*
X129434151Y-112996270D01*
X130096629Y-112996270D01*
X130455702Y-112924846D01*
X130546463Y-112864201D01*
X143728926Y-112864201D01*
X145105390Y-114240665D01*
X146481854Y-112864201D01*
X146277571Y-112590836D01*
X145488250Y-112281519D01*
X144640642Y-112297808D01*
X143933209Y-112590836D01*
X143728926Y-112864201D01*
X130546463Y-112864201D01*
X130862891Y-112652771D01*
X131118470Y-112270270D01*
X165231926Y-112270270D01*
X165231926Y-113800270D01*
X165261496Y-113948929D01*
X165345704Y-114074956D01*
X165471731Y-114159164D01*
X165620390Y-114188734D01*
X167150390Y-114188734D01*
X167299049Y-114159164D01*
X167425076Y-114074956D01*
X167509284Y-113948929D01*
X167538854Y-113800270D01*
X167538854Y-112807317D01*
X175399390Y-112807317D01*
X175399390Y-113263223D01*
X175573859Y-113684427D01*
X175896233Y-114006801D01*
X176317437Y-114181270D01*
X176773343Y-114181270D01*
X177194547Y-114006801D01*
X177516921Y-113684427D01*
X177691390Y-113263223D01*
X177691390Y-112814278D01*
X179244390Y-112814278D01*
X179244390Y-113256262D01*
X179413529Y-113664601D01*
X179726059Y-113977131D01*
X180134398Y-114146270D01*
X180576382Y-114146270D01*
X180984721Y-113977131D01*
X181297251Y-113664601D01*
X181466390Y-113256262D01*
X181466390Y-112814278D01*
X181784390Y-112814278D01*
X181784390Y-113256262D01*
X181953529Y-113664601D01*
X182266059Y-113977131D01*
X182674398Y-114146270D01*
X183116382Y-114146270D01*
X183524721Y-113977131D01*
X183837251Y-113664601D01*
X184006390Y-113256262D01*
X184006390Y-112814278D01*
X183837251Y-112405939D01*
X183736582Y-112305270D01*
X184316926Y-112305270D01*
X184316926Y-113765270D01*
X184346496Y-113913929D01*
X184430704Y-114039956D01*
X184556731Y-114124164D01*
X184705390Y-114153734D01*
X186165390Y-114153734D01*
X186314049Y-114124164D01*
X186384160Y-114077317D01*
X188099390Y-114077317D01*
X188099390Y-114533223D01*
X188273859Y-114954427D01*
X188596233Y-115276801D01*
X189017437Y-115451270D01*
X189473343Y-115451270D01*
X189894547Y-115276801D01*
X190216921Y-114954427D01*
X190391390Y-114533223D01*
X190391390Y-114077317D01*
X190216921Y-113656113D01*
X189894547Y-113333739D01*
X189473343Y-113159270D01*
X189017437Y-113159270D01*
X188596233Y-113333739D01*
X188273859Y-113656113D01*
X188099390Y-114077317D01*
X186384160Y-114077317D01*
X186440076Y-114039956D01*
X186524284Y-113913929D01*
X186553854Y-113765270D01*
X186553854Y-112305270D01*
X186524284Y-112156611D01*
X186440076Y-112030584D01*
X186314049Y-111946376D01*
X186165390Y-111916806D01*
X184705390Y-111916806D01*
X184556731Y-111946376D01*
X184430704Y-112030584D01*
X184346496Y-112156611D01*
X184316926Y-112305270D01*
X183736582Y-112305270D01*
X183524721Y-112093409D01*
X183116382Y-111924270D01*
X182674398Y-111924270D01*
X182266059Y-112093409D01*
X181953529Y-112405939D01*
X181784390Y-112814278D01*
X181466390Y-112814278D01*
X181297251Y-112405939D01*
X180984721Y-112093409D01*
X180576382Y-111924270D01*
X180134398Y-111924270D01*
X179726059Y-112093409D01*
X179413529Y-112405939D01*
X179244390Y-112814278D01*
X177691390Y-112814278D01*
X177691390Y-112807317D01*
X177516921Y-112386113D01*
X177194547Y-112063739D01*
X176773343Y-111889270D01*
X176317437Y-111889270D01*
X175896233Y-112063739D01*
X175573859Y-112386113D01*
X175399390Y-112807317D01*
X167538854Y-112807317D01*
X167538854Y-112270270D01*
X167509284Y-112121611D01*
X167425076Y-111995584D01*
X167299049Y-111911376D01*
X167150390Y-111881806D01*
X165620390Y-111881806D01*
X165471731Y-111911376D01*
X165345704Y-111995584D01*
X165261496Y-112121611D01*
X165231926Y-112270270D01*
X131118470Y-112270270D01*
X131134966Y-112245582D01*
X131230506Y-111765270D01*
X131134966Y-111284958D01*
X130862891Y-110877769D01*
X130455702Y-110605694D01*
X130096629Y-110534270D01*
X129434151Y-110534270D01*
X129075078Y-110605694D01*
X128667889Y-110877769D01*
X128395814Y-111284958D01*
X128300274Y-111765270D01*
X118161509Y-111765270D01*
X118543891Y-111509771D01*
X118815966Y-111102582D01*
X118911506Y-110622270D01*
X118815966Y-110141958D01*
X118543891Y-109734769D01*
X118136702Y-109462694D01*
X117777629Y-109391270D01*
X117115151Y-109391270D01*
X116756078Y-109462694D01*
X116348889Y-109734769D01*
X116076814Y-110141958D01*
X115981274Y-110622270D01*
X114820510Y-110622270D01*
X114795702Y-110605694D01*
X114436629Y-110534270D01*
X113774151Y-110534270D01*
X113415078Y-110605694D01*
X113007889Y-110877769D01*
X112735814Y-111284958D01*
X112640274Y-111765270D01*
X76646390Y-111765270D01*
X76646390Y-109225270D01*
X112640274Y-109225270D01*
X112735814Y-109705582D01*
X113007889Y-110112771D01*
X113415078Y-110384846D01*
X113774151Y-110456270D01*
X114436629Y-110456270D01*
X114795702Y-110384846D01*
X115202891Y-110112771D01*
X115474966Y-109705582D01*
X115570506Y-109225270D01*
X128300274Y-109225270D01*
X128395814Y-109705582D01*
X128667889Y-110112771D01*
X129075078Y-110384846D01*
X129434151Y-110456270D01*
X130096629Y-110456270D01*
X130455702Y-110384846D01*
X130862891Y-110112771D01*
X130923948Y-110021392D01*
X163228873Y-110021392D01*
X163304606Y-110185661D01*
X163713297Y-110319505D01*
X164142097Y-110286761D01*
X164386174Y-110185661D01*
X164461907Y-110021392D01*
X163845390Y-109404875D01*
X163228873Y-110021392D01*
X130923948Y-110021392D01*
X131134966Y-109705582D01*
X131230506Y-109225270D01*
X131204232Y-109093177D01*
X162751155Y-109093177D01*
X162783899Y-109521977D01*
X162884999Y-109766054D01*
X163049268Y-109841787D01*
X163665785Y-109225270D01*
X164024995Y-109225270D01*
X164641512Y-109841787D01*
X164805781Y-109766054D01*
X164939625Y-109357363D01*
X164913119Y-109010246D01*
X170384390Y-109010246D01*
X170384390Y-109440294D01*
X170548962Y-109837607D01*
X170853053Y-110141698D01*
X171250366Y-110306270D01*
X171680414Y-110306270D01*
X172077727Y-110141698D01*
X172381818Y-109837607D01*
X172488210Y-109580751D01*
X174659140Y-109580751D01*
X174659140Y-110012789D01*
X174824474Y-110411940D01*
X175129970Y-110717436D01*
X175529121Y-110882770D01*
X175961159Y-110882770D01*
X176360310Y-110717436D01*
X176665806Y-110411940D01*
X176831140Y-110012789D01*
X176831140Y-109580751D01*
X176665806Y-109181600D01*
X176360310Y-108876104D01*
X175961159Y-108710770D01*
X175529121Y-108710770D01*
X175129970Y-108876104D01*
X174824474Y-109181600D01*
X174659140Y-109580751D01*
X172488210Y-109580751D01*
X172546390Y-109440294D01*
X172546390Y-109010246D01*
X172381818Y-108612933D01*
X172077727Y-108308842D01*
X171680414Y-108144270D01*
X171250366Y-108144270D01*
X170853053Y-108308842D01*
X170548962Y-108612933D01*
X170384390Y-109010246D01*
X164913119Y-109010246D01*
X164906881Y-108928563D01*
X164805781Y-108684486D01*
X164641512Y-108608753D01*
X164024995Y-109225270D01*
X163665785Y-109225270D01*
X163049268Y-108608753D01*
X162884999Y-108684486D01*
X162751155Y-109093177D01*
X131204232Y-109093177D01*
X131134966Y-108744958D01*
X130923949Y-108429148D01*
X163228873Y-108429148D01*
X163845390Y-109045665D01*
X164461907Y-108429148D01*
X164386174Y-108264879D01*
X163977483Y-108131035D01*
X163548683Y-108163779D01*
X163304606Y-108264879D01*
X163228873Y-108429148D01*
X130923949Y-108429148D01*
X130862891Y-108337769D01*
X130455702Y-108065694D01*
X130096629Y-107994270D01*
X129434151Y-107994270D01*
X129075078Y-108065694D01*
X128667889Y-108337769D01*
X128395814Y-108744958D01*
X128300274Y-109225270D01*
X115570506Y-109225270D01*
X115474966Y-108744958D01*
X115202891Y-108337769D01*
X114795702Y-108065694D01*
X114436629Y-107994270D01*
X113774151Y-107994270D01*
X113415078Y-108065694D01*
X113007889Y-108337769D01*
X112735814Y-108744958D01*
X112640274Y-109225270D01*
X76646390Y-109225270D01*
X76646390Y-106499343D01*
X100680670Y-106499343D01*
X100680670Y-106871197D01*
X100822973Y-107214746D01*
X101085914Y-107477687D01*
X101429463Y-107619990D01*
X101801317Y-107619990D01*
X102144866Y-107477687D01*
X102407807Y-107214746D01*
X102550110Y-106871197D01*
X102550110Y-106499343D01*
X102407807Y-106155794D01*
X102383563Y-106131550D01*
X103213206Y-106131550D01*
X103213206Y-107238990D01*
X103242776Y-107387649D01*
X103326984Y-107513676D01*
X103453011Y-107597884D01*
X103601670Y-107627454D01*
X104709110Y-107627454D01*
X104857769Y-107597884D01*
X104983796Y-107513676D01*
X105068004Y-107387649D01*
X105097574Y-107238990D01*
X105097574Y-106685270D01*
X112640274Y-106685270D01*
X112735814Y-107165582D01*
X113007889Y-107572771D01*
X113415078Y-107844846D01*
X113774151Y-107916270D01*
X114436629Y-107916270D01*
X114795702Y-107844846D01*
X115202891Y-107572771D01*
X115474966Y-107165582D01*
X115570506Y-106685270D01*
X128300274Y-106685270D01*
X128395814Y-107165582D01*
X128667889Y-107572771D01*
X129075078Y-107844846D01*
X129434151Y-107916270D01*
X130096629Y-107916270D01*
X130455702Y-107844846D01*
X130862891Y-107572771D01*
X131134966Y-107165582D01*
X131230506Y-106685270D01*
X131204232Y-106553177D01*
X162751155Y-106553177D01*
X162783899Y-106981977D01*
X162814000Y-107054647D01*
X162814000Y-107188000D01*
X162823667Y-107236601D01*
X162851197Y-107277803D01*
X163232197Y-107658803D01*
X163273399Y-107686333D01*
X163322000Y-107696000D01*
X163458316Y-107696000D01*
X163713297Y-107779505D01*
X164142097Y-107746761D01*
X164264645Y-107696000D01*
X164338000Y-107696000D01*
X164386601Y-107686333D01*
X164427803Y-107658803D01*
X164808803Y-107277803D01*
X164836333Y-107236601D01*
X164846000Y-107188000D01*
X164846000Y-107103246D01*
X164939625Y-106817363D01*
X164913119Y-106470246D01*
X170384390Y-106470246D01*
X170384390Y-106900294D01*
X170548962Y-107297607D01*
X170853053Y-107601698D01*
X171250366Y-107766270D01*
X171680414Y-107766270D01*
X171745643Y-107739251D01*
X176729390Y-107739251D01*
X176729390Y-108171289D01*
X176894724Y-108570440D01*
X177200220Y-108875936D01*
X177599371Y-109041270D01*
X178031409Y-109041270D01*
X178430560Y-108875936D01*
X178628254Y-108678242D01*
X182352023Y-108678242D01*
X182415318Y-108832098D01*
X182787409Y-108949069D01*
X183175939Y-108914743D01*
X183375462Y-108832098D01*
X183438757Y-108678242D01*
X182895390Y-108134875D01*
X182352023Y-108678242D01*
X178628254Y-108678242D01*
X178736056Y-108570440D01*
X178901390Y-108171289D01*
X178901390Y-107847289D01*
X181901591Y-107847289D01*
X181935917Y-108235819D01*
X182018562Y-108435342D01*
X182172418Y-108498637D01*
X182715785Y-107955270D01*
X183074995Y-107955270D01*
X183618362Y-108498637D01*
X183772218Y-108435342D01*
X183889189Y-108063251D01*
X183854863Y-107674721D01*
X183772218Y-107475198D01*
X183618362Y-107411903D01*
X183074995Y-107955270D01*
X182715785Y-107955270D01*
X182172418Y-107411903D01*
X182018562Y-107475198D01*
X181901591Y-107847289D01*
X178901390Y-107847289D01*
X178901390Y-107739251D01*
X178736056Y-107340100D01*
X178628254Y-107232298D01*
X182352023Y-107232298D01*
X182895390Y-107775665D01*
X183275855Y-107395200D01*
X184486856Y-107395200D01*
X184486856Y-108515340D01*
X184516426Y-108663999D01*
X184600634Y-108790026D01*
X184726661Y-108874234D01*
X184875320Y-108903804D01*
X185995460Y-108903804D01*
X186144119Y-108874234D01*
X186270146Y-108790026D01*
X186354354Y-108663999D01*
X186383924Y-108515340D01*
X186383924Y-107395200D01*
X186354354Y-107246541D01*
X186270146Y-107120514D01*
X186144119Y-107036306D01*
X185995460Y-107006736D01*
X184875320Y-107006736D01*
X184726661Y-107036306D01*
X184600634Y-107120514D01*
X184516426Y-107246541D01*
X184486856Y-107395200D01*
X183275855Y-107395200D01*
X183438757Y-107232298D01*
X183375462Y-107078442D01*
X183003371Y-106961471D01*
X182614841Y-106995797D01*
X182415318Y-107078442D01*
X182352023Y-107232298D01*
X178628254Y-107232298D01*
X178430560Y-107034604D01*
X178031409Y-106869270D01*
X177599371Y-106869270D01*
X177200220Y-107034604D01*
X176894724Y-107340100D01*
X176729390Y-107739251D01*
X171745643Y-107739251D01*
X172077727Y-107601698D01*
X172381818Y-107297607D01*
X172546390Y-106900294D01*
X172546390Y-106470246D01*
X172490792Y-106336020D01*
X174659140Y-106336020D01*
X174659140Y-106894556D01*
X174717144Y-107034590D01*
X174824321Y-107141766D01*
X174964355Y-107199770D01*
X175522890Y-107199770D01*
X175618140Y-107104520D01*
X175618140Y-106240770D01*
X175872140Y-106240770D01*
X175872140Y-107104520D01*
X175967390Y-107199770D01*
X176525925Y-107199770D01*
X176665959Y-107141766D01*
X176773136Y-107034590D01*
X176831140Y-106894556D01*
X176831140Y-106336020D01*
X176735890Y-106240770D01*
X175872140Y-106240770D01*
X175618140Y-106240770D01*
X174754390Y-106240770D01*
X174659140Y-106336020D01*
X172490792Y-106336020D01*
X172381818Y-106072933D01*
X172077727Y-105768842D01*
X171680414Y-105604270D01*
X171250366Y-105604270D01*
X170853053Y-105768842D01*
X170548962Y-106072933D01*
X170384390Y-106470246D01*
X164913119Y-106470246D01*
X164906881Y-106388563D01*
X164846000Y-106241583D01*
X164846000Y-106172000D01*
X164836333Y-106123399D01*
X164808803Y-106082197D01*
X164427803Y-105701197D01*
X164386601Y-105673667D01*
X164338000Y-105664000D01*
X164200281Y-105664000D01*
X163977483Y-105591035D01*
X163548683Y-105623779D01*
X163451581Y-105664000D01*
X163322000Y-105664000D01*
X163273399Y-105673667D01*
X163232197Y-105701197D01*
X162851197Y-106082197D01*
X162823667Y-106123399D01*
X162814000Y-106172000D01*
X162814000Y-106361281D01*
X162751155Y-106553177D01*
X131204232Y-106553177D01*
X131134966Y-106204958D01*
X130862891Y-105797769D01*
X130455702Y-105525694D01*
X130096629Y-105454270D01*
X129434151Y-105454270D01*
X129075078Y-105525694D01*
X128667889Y-105797769D01*
X128395814Y-106204958D01*
X128300274Y-106685270D01*
X115570506Y-106685270D01*
X115474966Y-106204958D01*
X115202891Y-105797769D01*
X114795702Y-105525694D01*
X114436629Y-105454270D01*
X113774151Y-105454270D01*
X113415078Y-105525694D01*
X113007889Y-105797769D01*
X112735814Y-106204958D01*
X112640274Y-106685270D01*
X105097574Y-106685270D01*
X105097574Y-106131550D01*
X105068004Y-105982891D01*
X104983796Y-105856864D01*
X104857769Y-105772656D01*
X104709110Y-105743086D01*
X103601670Y-105743086D01*
X103453011Y-105772656D01*
X103326984Y-105856864D01*
X103242776Y-105982891D01*
X103213206Y-106131550D01*
X102383563Y-106131550D01*
X102144866Y-105892853D01*
X101801317Y-105750550D01*
X101429463Y-105750550D01*
X101085914Y-105892853D01*
X100822973Y-106155794D01*
X100680670Y-106499343D01*
X76646390Y-106499343D01*
X76646390Y-103930246D01*
X95454390Y-103930246D01*
X95454390Y-104360294D01*
X95618962Y-104757607D01*
X95923053Y-105061698D01*
X96320366Y-105226270D01*
X96750414Y-105226270D01*
X97147727Y-105061698D01*
X97451818Y-104757607D01*
X97616390Y-104360294D01*
X97616390Y-103930246D01*
X97994390Y-103930246D01*
X97994390Y-104360294D01*
X98158962Y-104757607D01*
X98463053Y-105061698D01*
X98860366Y-105226270D01*
X99290414Y-105226270D01*
X99687727Y-105061698D01*
X99991818Y-104757607D01*
X100156390Y-104360294D01*
X100156390Y-103930246D01*
X100534390Y-103930246D01*
X100534390Y-104360294D01*
X100698962Y-104757607D01*
X101003053Y-105061698D01*
X101400366Y-105226270D01*
X101830414Y-105226270D01*
X102227727Y-105061698D01*
X102531818Y-104757607D01*
X102696390Y-104360294D01*
X102696390Y-103930246D01*
X103074390Y-103930246D01*
X103074390Y-104360294D01*
X103238962Y-104757607D01*
X103543053Y-105061698D01*
X103940366Y-105226270D01*
X104370414Y-105226270D01*
X104767727Y-105061698D01*
X105071818Y-104757607D01*
X105236390Y-104360294D01*
X105236390Y-104145270D01*
X112640274Y-104145270D01*
X112735814Y-104625582D01*
X113007889Y-105032771D01*
X113415078Y-105304846D01*
X113774151Y-105376270D01*
X114436629Y-105376270D01*
X114795702Y-105304846D01*
X115202891Y-105032771D01*
X115474966Y-104625582D01*
X115570506Y-104145270D01*
X128300274Y-104145270D01*
X128395814Y-104625582D01*
X128667889Y-105032771D01*
X129075078Y-105304846D01*
X129434151Y-105376270D01*
X130096629Y-105376270D01*
X130314242Y-105332984D01*
X174659140Y-105332984D01*
X174659140Y-105891520D01*
X174754390Y-105986770D01*
X175618140Y-105986770D01*
X175618140Y-105123020D01*
X175872140Y-105123020D01*
X175872140Y-105986770D01*
X176735890Y-105986770D01*
X176831140Y-105891520D01*
X176831140Y-105332984D01*
X176773136Y-105192950D01*
X176665959Y-105085774D01*
X176525925Y-105027770D01*
X175967390Y-105027770D01*
X175872140Y-105123020D01*
X175618140Y-105123020D01*
X175522890Y-105027770D01*
X174964355Y-105027770D01*
X174824321Y-105085774D01*
X174717144Y-105192950D01*
X174659140Y-105332984D01*
X130314242Y-105332984D01*
X130455702Y-105304846D01*
X130862891Y-105032771D01*
X131134966Y-104625582D01*
X131230506Y-104145270D01*
X131187736Y-103930246D01*
X162764390Y-103930246D01*
X162764390Y-104360294D01*
X162928962Y-104757607D01*
X163233053Y-105061698D01*
X163630366Y-105226270D01*
X164060414Y-105226270D01*
X164457727Y-105061698D01*
X164761818Y-104757607D01*
X164926390Y-104360294D01*
X164926390Y-103930246D01*
X170384390Y-103930246D01*
X170384390Y-104360294D01*
X170548962Y-104757607D01*
X170853053Y-105061698D01*
X171250366Y-105226270D01*
X171680414Y-105226270D01*
X172077727Y-105061698D01*
X172381818Y-104757607D01*
X172546390Y-104360294D01*
X172546390Y-103930246D01*
X172544208Y-103924976D01*
X178004390Y-103924976D01*
X178004390Y-104355024D01*
X178168962Y-104752337D01*
X178473053Y-105056428D01*
X178870366Y-105221000D01*
X179300414Y-105221000D01*
X179697727Y-105056428D01*
X180001818Y-104752337D01*
X180166390Y-104355024D01*
X180166390Y-103924976D01*
X185624390Y-103924976D01*
X185624390Y-104355024D01*
X185788962Y-104752337D01*
X186093053Y-105056428D01*
X186490366Y-105221000D01*
X186920414Y-105221000D01*
X187317727Y-105056428D01*
X187621818Y-104752337D01*
X187786390Y-104355024D01*
X187786390Y-103924976D01*
X187621818Y-103527663D01*
X187474425Y-103380270D01*
X188091926Y-103380270D01*
X188091926Y-104910270D01*
X188121496Y-105058929D01*
X188205704Y-105184956D01*
X188331731Y-105269164D01*
X188480390Y-105298734D01*
X190010390Y-105298734D01*
X190159049Y-105269164D01*
X190285076Y-105184956D01*
X190369284Y-105058929D01*
X190398854Y-104910270D01*
X190398854Y-103380270D01*
X190369284Y-103231611D01*
X190285076Y-103105584D01*
X190159049Y-103021376D01*
X190010390Y-102991806D01*
X188480390Y-102991806D01*
X188331731Y-103021376D01*
X188205704Y-103105584D01*
X188121496Y-103231611D01*
X188091926Y-103380270D01*
X187474425Y-103380270D01*
X187317727Y-103223572D01*
X186920414Y-103059000D01*
X186490366Y-103059000D01*
X186093053Y-103223572D01*
X185788962Y-103527663D01*
X185624390Y-103924976D01*
X180166390Y-103924976D01*
X180001818Y-103527663D01*
X179697727Y-103223572D01*
X179300414Y-103059000D01*
X178870366Y-103059000D01*
X178473053Y-103223572D01*
X178168962Y-103527663D01*
X178004390Y-103924976D01*
X172544208Y-103924976D01*
X172381818Y-103532933D01*
X172077727Y-103228842D01*
X171680414Y-103064270D01*
X171250366Y-103064270D01*
X170853053Y-103228842D01*
X170548962Y-103532933D01*
X170384390Y-103930246D01*
X164926390Y-103930246D01*
X164761818Y-103532933D01*
X164457727Y-103228842D01*
X164060414Y-103064270D01*
X163630366Y-103064270D01*
X163233053Y-103228842D01*
X162928962Y-103532933D01*
X162764390Y-103930246D01*
X131187736Y-103930246D01*
X131134966Y-103664958D01*
X130862891Y-103257769D01*
X130455702Y-102985694D01*
X130096629Y-102914270D01*
X129434151Y-102914270D01*
X129075078Y-102985694D01*
X128667889Y-103257769D01*
X128395814Y-103664958D01*
X128300274Y-104145270D01*
X115570506Y-104145270D01*
X115474966Y-103664958D01*
X115202891Y-103257769D01*
X114795702Y-102985694D01*
X114436629Y-102914270D01*
X113774151Y-102914270D01*
X113415078Y-102985694D01*
X113007889Y-103257769D01*
X112735814Y-103664958D01*
X112640274Y-104145270D01*
X105236390Y-104145270D01*
X105236390Y-103930246D01*
X105071818Y-103532933D01*
X104767727Y-103228842D01*
X104370414Y-103064270D01*
X103940366Y-103064270D01*
X103543053Y-103228842D01*
X103238962Y-103532933D01*
X103074390Y-103930246D01*
X102696390Y-103930246D01*
X102531818Y-103532933D01*
X102227727Y-103228842D01*
X101830414Y-103064270D01*
X101400366Y-103064270D01*
X101003053Y-103228842D01*
X100698962Y-103532933D01*
X100534390Y-103930246D01*
X100156390Y-103930246D01*
X99991818Y-103532933D01*
X99687727Y-103228842D01*
X99290414Y-103064270D01*
X98860366Y-103064270D01*
X98463053Y-103228842D01*
X98158962Y-103532933D01*
X97994390Y-103930246D01*
X97616390Y-103930246D01*
X97451818Y-103532933D01*
X97147727Y-103228842D01*
X96750414Y-103064270D01*
X96320366Y-103064270D01*
X95923053Y-103228842D01*
X95618962Y-103532933D01*
X95454390Y-103930246D01*
X76646390Y-103930246D01*
X76646390Y-99949208D01*
X80599390Y-99949208D01*
X80599390Y-100731332D01*
X80898696Y-101453919D01*
X81451741Y-102006964D01*
X82174328Y-102306270D01*
X82956452Y-102306270D01*
X83679039Y-102006964D01*
X84080733Y-101605270D01*
X112640274Y-101605270D01*
X112735814Y-102085582D01*
X113007889Y-102492771D01*
X113415078Y-102764846D01*
X113774151Y-102836270D01*
X114436629Y-102836270D01*
X114795702Y-102764846D01*
X114896537Y-102697470D01*
X115981274Y-102697470D01*
X116076814Y-103177782D01*
X116348889Y-103584971D01*
X116756078Y-103857046D01*
X117115151Y-103928470D01*
X117777629Y-103928470D01*
X118136702Y-103857046D01*
X118543891Y-103584971D01*
X118815966Y-103177782D01*
X118911506Y-102697470D01*
X118815966Y-102217158D01*
X118543891Y-101809969D01*
X118237538Y-101605270D01*
X128300274Y-101605270D01*
X128395814Y-102085582D01*
X128667889Y-102492771D01*
X129075078Y-102764846D01*
X129434151Y-102836270D01*
X130096629Y-102836270D01*
X130455702Y-102764846D01*
X130862891Y-102492771D01*
X131134966Y-102085582D01*
X131230506Y-101605270D01*
X131134966Y-101124958D01*
X130862891Y-100717769D01*
X130455702Y-100445694D01*
X130096629Y-100374270D01*
X129434151Y-100374270D01*
X129075078Y-100445694D01*
X128667889Y-100717769D01*
X128395814Y-101124958D01*
X128300274Y-101605270D01*
X118237538Y-101605270D01*
X118136702Y-101537894D01*
X117777629Y-101466470D01*
X117115151Y-101466470D01*
X116756078Y-101537894D01*
X116348889Y-101809969D01*
X116076814Y-102217158D01*
X115981274Y-102697470D01*
X114896537Y-102697470D01*
X115202891Y-102492771D01*
X115474966Y-102085582D01*
X115570506Y-101605270D01*
X115474966Y-101124958D01*
X115202891Y-100717769D01*
X114795702Y-100445694D01*
X114436629Y-100374270D01*
X113774151Y-100374270D01*
X113415078Y-100445694D01*
X113007889Y-100717769D01*
X112735814Y-101124958D01*
X112640274Y-101605270D01*
X84080733Y-101605270D01*
X84232084Y-101453919D01*
X84531390Y-100731332D01*
X84531390Y-99949208D01*
X84232084Y-99226621D01*
X83679039Y-98673576D01*
X82956452Y-98374270D01*
X82174328Y-98374270D01*
X81451741Y-98673576D01*
X80898696Y-99226621D01*
X80599390Y-99949208D01*
X76646390Y-99949208D01*
X76646390Y-97576267D01*
X87814390Y-97576267D01*
X87814390Y-98014273D01*
X87982007Y-98418936D01*
X88291724Y-98728653D01*
X88696387Y-98896270D01*
X89134393Y-98896270D01*
X89539056Y-98728653D01*
X89848773Y-98418936D01*
X89917726Y-98252470D01*
X90711141Y-98252470D01*
X90522007Y-98441604D01*
X90354390Y-98846267D01*
X90354390Y-99284273D01*
X90522007Y-99688936D01*
X90831724Y-99998653D01*
X91236387Y-100166270D01*
X91674393Y-100166270D01*
X92079056Y-99998653D01*
X92289467Y-99788242D01*
X106152023Y-99788242D01*
X106215318Y-99942098D01*
X106587409Y-100059069D01*
X106975939Y-100024743D01*
X107175462Y-99942098D01*
X107238757Y-99788242D01*
X106695390Y-99244875D01*
X106152023Y-99788242D01*
X92289467Y-99788242D01*
X92388773Y-99688936D01*
X92556390Y-99284273D01*
X92556390Y-98957289D01*
X105701591Y-98957289D01*
X105735917Y-99345819D01*
X105818562Y-99545342D01*
X105972418Y-99608637D01*
X106515785Y-99065270D01*
X106874995Y-99065270D01*
X107418362Y-99608637D01*
X107572218Y-99545342D01*
X107689189Y-99173251D01*
X107679650Y-99065270D01*
X112640274Y-99065270D01*
X112735814Y-99545582D01*
X113007889Y-99952771D01*
X113415078Y-100224846D01*
X113774151Y-100296270D01*
X114436629Y-100296270D01*
X114795702Y-100224846D01*
X114896537Y-100157470D01*
X115981274Y-100157470D01*
X116076814Y-100637782D01*
X116348889Y-101044971D01*
X116756078Y-101317046D01*
X117115151Y-101388470D01*
X117777629Y-101388470D01*
X118136702Y-101317046D01*
X118543891Y-101044971D01*
X118815966Y-100637782D01*
X118911506Y-100157470D01*
X118815966Y-99677158D01*
X118543891Y-99269969D01*
X118237538Y-99065270D01*
X128300274Y-99065270D01*
X128395814Y-99545582D01*
X128667889Y-99952771D01*
X129075078Y-100224846D01*
X129434151Y-100296270D01*
X130096629Y-100296270D01*
X130455702Y-100224846D01*
X130862891Y-99952771D01*
X130865271Y-99949208D01*
X147909390Y-99949208D01*
X147909390Y-100731332D01*
X148208696Y-101453919D01*
X148761741Y-102006964D01*
X149484328Y-102306270D01*
X150266452Y-102306270D01*
X150989039Y-102006964D01*
X151542084Y-101453919D01*
X151841390Y-100731332D01*
X151841390Y-99949208D01*
X151542084Y-99226621D01*
X150989039Y-98673576D01*
X150266452Y-98374270D01*
X149484328Y-98374270D01*
X148761741Y-98673576D01*
X148208696Y-99226621D01*
X147909390Y-99949208D01*
X130865271Y-99949208D01*
X131134966Y-99545582D01*
X131230506Y-99065270D01*
X131134966Y-98584958D01*
X130862891Y-98177769D01*
X130455702Y-97905694D01*
X130096629Y-97834270D01*
X129434151Y-97834270D01*
X129075078Y-97905694D01*
X128667889Y-98177769D01*
X128395814Y-98584958D01*
X128300274Y-99065270D01*
X118237538Y-99065270D01*
X118136702Y-98997894D01*
X117777629Y-98926470D01*
X117115151Y-98926470D01*
X116756078Y-98997894D01*
X116348889Y-99269969D01*
X116076814Y-99677158D01*
X115981274Y-100157470D01*
X114896537Y-100157470D01*
X115202891Y-99952771D01*
X115474966Y-99545582D01*
X115570506Y-99065270D01*
X115474966Y-98584958D01*
X115202891Y-98177769D01*
X114795702Y-97905694D01*
X114436629Y-97834270D01*
X113774151Y-97834270D01*
X113415078Y-97905694D01*
X113007889Y-98177769D01*
X112735814Y-98584958D01*
X112640274Y-99065270D01*
X107679650Y-99065270D01*
X107654863Y-98784721D01*
X107572218Y-98585198D01*
X107418362Y-98521903D01*
X106874995Y-99065270D01*
X106515785Y-99065270D01*
X105972418Y-98521903D01*
X105818562Y-98585198D01*
X105701591Y-98957289D01*
X92556390Y-98957289D01*
X92556390Y-98846267D01*
X92487437Y-98679801D01*
X92824940Y-98342298D01*
X106152023Y-98342298D01*
X106695390Y-98885665D01*
X107238757Y-98342298D01*
X107175462Y-98188442D01*
X106803371Y-98071471D01*
X106414841Y-98105797D01*
X106215318Y-98188442D01*
X106152023Y-98342298D01*
X92824940Y-98342298D01*
X93845846Y-97321392D01*
X95918873Y-97321392D01*
X95994606Y-97485661D01*
X96403297Y-97619505D01*
X96832097Y-97586761D01*
X97076174Y-97485661D01*
X97151907Y-97321392D01*
X96535390Y-96704875D01*
X95918873Y-97321392D01*
X93845846Y-97321392D01*
X95040416Y-96126822D01*
X95058048Y-96117713D01*
X95104301Y-96062937D01*
X95122529Y-96044709D01*
X95133283Y-96028615D01*
X95175393Y-95978745D01*
X95183408Y-95953597D01*
X95198072Y-95931651D01*
X95202287Y-95910460D01*
X95376669Y-95910460D01*
X95402352Y-95912626D01*
X95421575Y-95910460D01*
X95433808Y-95910460D01*
X95436526Y-95911161D01*
X95520233Y-95899343D01*
X95558601Y-95895020D01*
X95564760Y-95893057D01*
X95571163Y-95892153D01*
X95597511Y-95882934D01*
X95604156Y-95883120D01*
X95645740Y-95867246D01*
X95685186Y-95854674D01*
X95739266Y-95908754D01*
X95574999Y-95984486D01*
X95441155Y-96393177D01*
X95473899Y-96821977D01*
X95574999Y-97066054D01*
X95739268Y-97141787D01*
X96355785Y-96525270D01*
X96714995Y-96525270D01*
X97331512Y-97141787D01*
X97495781Y-97066054D01*
X97629625Y-96657363D01*
X97603119Y-96310246D01*
X97994390Y-96310246D01*
X97994390Y-96740294D01*
X98158962Y-97137607D01*
X98463053Y-97441698D01*
X98860366Y-97606270D01*
X99290414Y-97606270D01*
X99687727Y-97441698D01*
X99991818Y-97137607D01*
X100156390Y-96740294D01*
X100156390Y-96310246D01*
X100534390Y-96310246D01*
X100534390Y-96740294D01*
X100698962Y-97137607D01*
X101003053Y-97441698D01*
X101400366Y-97606270D01*
X101830414Y-97606270D01*
X102227727Y-97441698D01*
X102531818Y-97137607D01*
X102696390Y-96740294D01*
X102696390Y-96525270D01*
X102860510Y-96525270D01*
X102959077Y-97020799D01*
X103066926Y-97182206D01*
X103066926Y-97225270D01*
X103096496Y-97373929D01*
X103180704Y-97499956D01*
X103306731Y-97584164D01*
X103455390Y-97613734D01*
X103498454Y-97613734D01*
X103659861Y-97721583D01*
X104030310Y-97795270D01*
X106820470Y-97795270D01*
X107190919Y-97721583D01*
X107611008Y-97440888D01*
X107891703Y-97020799D01*
X107990270Y-96525270D01*
X112640274Y-96525270D01*
X112735814Y-97005582D01*
X113007889Y-97412771D01*
X113415078Y-97684846D01*
X113774151Y-97756270D01*
X114436629Y-97756270D01*
X114795702Y-97684846D01*
X115202891Y-97412771D01*
X115474966Y-97005582D01*
X115570506Y-96525270D01*
X128300274Y-96525270D01*
X128395814Y-97005582D01*
X128667889Y-97412771D01*
X129075078Y-97684846D01*
X129434151Y-97756270D01*
X130096629Y-97756270D01*
X130455702Y-97684846D01*
X130862891Y-97412771D01*
X130992024Y-97219509D01*
X136660756Y-97219509D01*
X136719156Y-97369288D01*
X137076876Y-97479634D01*
X137449594Y-97444686D01*
X137631624Y-97369288D01*
X137690024Y-97219509D01*
X137175390Y-96704875D01*
X136660756Y-97219509D01*
X130992024Y-97219509D01*
X131134966Y-97005582D01*
X131230506Y-96525270D01*
X131210911Y-96426756D01*
X136221026Y-96426756D01*
X136255974Y-96799474D01*
X136331372Y-96981504D01*
X136481151Y-97039904D01*
X136995785Y-96525270D01*
X137354995Y-96525270D01*
X137869629Y-97039904D01*
X138019408Y-96981504D01*
X138129754Y-96623784D01*
X138094806Y-96251066D01*
X138019408Y-96069036D01*
X137873128Y-96012000D01*
X139954000Y-96012000D01*
X139954000Y-97028000D01*
X139963667Y-97076601D01*
X139991197Y-97117803D01*
X140372197Y-97498803D01*
X140413399Y-97526333D01*
X140462000Y-97536000D01*
X141478000Y-97536000D01*
X141526601Y-97526333D01*
X141567803Y-97498803D01*
X141784606Y-97282000D01*
X155067000Y-97282000D01*
X155067000Y-98298000D01*
X155082752Y-98359261D01*
X155114664Y-98397170D01*
X155749664Y-98905170D01*
X155780399Y-98923333D01*
X155829000Y-98933000D01*
X156718000Y-98933000D01*
X156766601Y-98923333D01*
X156807803Y-98895803D01*
X157151606Y-98552000D01*
X157607000Y-98552000D01*
X157607000Y-99568000D01*
X157616667Y-99616601D01*
X157644197Y-99657803D01*
X158152197Y-100165803D01*
X158193399Y-100193333D01*
X158242000Y-100203000D01*
X159258000Y-100203000D01*
X159306601Y-100193333D01*
X159347803Y-100165803D01*
X159855803Y-99657803D01*
X159883333Y-99616601D01*
X159893000Y-99568000D01*
X159893000Y-98940191D01*
X162575390Y-98940191D01*
X162575391Y-101730350D01*
X162649078Y-102100799D01*
X162756926Y-102262205D01*
X162756926Y-102305270D01*
X162786496Y-102453929D01*
X162870704Y-102579956D01*
X162996731Y-102664164D01*
X163145390Y-102693734D01*
X163188455Y-102693734D01*
X163349862Y-102801583D01*
X163845390Y-102900150D01*
X164340919Y-102801583D01*
X164502326Y-102693734D01*
X164545390Y-102693734D01*
X164694049Y-102664164D01*
X164820076Y-102579956D01*
X164904284Y-102453929D01*
X164933854Y-102305270D01*
X164933854Y-102262206D01*
X165041703Y-102100799D01*
X165115390Y-101730350D01*
X165115390Y-101390246D01*
X170384390Y-101390246D01*
X170384390Y-101820294D01*
X170548962Y-102217607D01*
X170853053Y-102521698D01*
X171250366Y-102686270D01*
X171680414Y-102686270D01*
X172077727Y-102521698D01*
X172381818Y-102217607D01*
X172546390Y-101820294D01*
X172546390Y-101390246D01*
X172544208Y-101384976D01*
X178004390Y-101384976D01*
X178004390Y-101815024D01*
X178168962Y-102212337D01*
X178473053Y-102516428D01*
X178870366Y-102681000D01*
X179300414Y-102681000D01*
X179697727Y-102516428D01*
X180001818Y-102212337D01*
X180166390Y-101815024D01*
X180166390Y-101384976D01*
X185624390Y-101384976D01*
X185624390Y-101815024D01*
X185788962Y-102212337D01*
X186093053Y-102516428D01*
X186490366Y-102681000D01*
X186920414Y-102681000D01*
X187317727Y-102516428D01*
X187621818Y-102212337D01*
X187786390Y-101815024D01*
X187786390Y-101384976D01*
X187621818Y-100987663D01*
X187317727Y-100683572D01*
X186920414Y-100519000D01*
X186490366Y-100519000D01*
X186093053Y-100683572D01*
X185788962Y-100987663D01*
X185624390Y-101384976D01*
X180166390Y-101384976D01*
X180001818Y-100987663D01*
X179697727Y-100683572D01*
X179300414Y-100519000D01*
X178870366Y-100519000D01*
X178473053Y-100683572D01*
X178168962Y-100987663D01*
X178004390Y-101384976D01*
X172544208Y-101384976D01*
X172381818Y-100992933D01*
X172077727Y-100688842D01*
X171680414Y-100524270D01*
X171250366Y-100524270D01*
X170853053Y-100688842D01*
X170548962Y-100992933D01*
X170384390Y-101390246D01*
X165115390Y-101390246D01*
X165115390Y-99788242D01*
X165842023Y-99788242D01*
X165905318Y-99942098D01*
X166277409Y-100059069D01*
X166665939Y-100024743D01*
X166865462Y-99942098D01*
X166928757Y-99788242D01*
X166385390Y-99244875D01*
X165842023Y-99788242D01*
X165115390Y-99788242D01*
X165115390Y-98957289D01*
X165391591Y-98957289D01*
X165425917Y-99345819D01*
X165508562Y-99545342D01*
X165662418Y-99608637D01*
X166205785Y-99065270D01*
X166564995Y-99065270D01*
X167108362Y-99608637D01*
X167262218Y-99545342D01*
X167379189Y-99173251D01*
X167350187Y-98844976D01*
X178004390Y-98844976D01*
X178004390Y-99275024D01*
X178168962Y-99672337D01*
X178473053Y-99976428D01*
X178870366Y-100141000D01*
X179300414Y-100141000D01*
X179697727Y-99976428D01*
X180001818Y-99672337D01*
X180166390Y-99275024D01*
X180166390Y-98844976D01*
X185624390Y-98844976D01*
X185624390Y-99275024D01*
X185788962Y-99672337D01*
X186093053Y-99976428D01*
X186490366Y-100141000D01*
X186920414Y-100141000D01*
X187317727Y-99976428D01*
X187621818Y-99672337D01*
X187786390Y-99275024D01*
X187786390Y-98844976D01*
X187621818Y-98447663D01*
X187317727Y-98143572D01*
X186920414Y-97979000D01*
X186490366Y-97979000D01*
X186093053Y-98143572D01*
X185788962Y-98447663D01*
X185624390Y-98844976D01*
X180166390Y-98844976D01*
X180001818Y-98447663D01*
X179697727Y-98143572D01*
X179300414Y-97979000D01*
X178870366Y-97979000D01*
X178473053Y-98143572D01*
X178168962Y-98447663D01*
X178004390Y-98844976D01*
X167350187Y-98844976D01*
X167344863Y-98784721D01*
X167262218Y-98585198D01*
X167108362Y-98521903D01*
X166564995Y-99065270D01*
X166205785Y-99065270D01*
X165662418Y-98521903D01*
X165508562Y-98585198D01*
X165391591Y-98957289D01*
X165115390Y-98957289D01*
X165115390Y-98940190D01*
X165041703Y-98569741D01*
X164889731Y-98342298D01*
X165842023Y-98342298D01*
X166385390Y-98885665D01*
X166928757Y-98342298D01*
X166865462Y-98188442D01*
X166493371Y-98071471D01*
X166104841Y-98105797D01*
X165905318Y-98188442D01*
X165842023Y-98342298D01*
X164889731Y-98342298D01*
X164761008Y-98149652D01*
X164340918Y-97868957D01*
X163845390Y-97770390D01*
X163349861Y-97868957D01*
X162929772Y-98149652D01*
X162649077Y-98569742D01*
X162575390Y-98940191D01*
X159893000Y-98940191D01*
X159893000Y-98552000D01*
X159883333Y-98503399D01*
X159855803Y-98462197D01*
X159347803Y-97954197D01*
X159306601Y-97926667D01*
X159258000Y-97917000D01*
X158242000Y-97917000D01*
X158193399Y-97926667D01*
X158152197Y-97954197D01*
X157644197Y-98462197D01*
X157616667Y-98503399D01*
X157607000Y-98552000D01*
X157151606Y-98552000D01*
X157315803Y-98387803D01*
X157343333Y-98346601D01*
X157353000Y-98298000D01*
X157353000Y-97282000D01*
X157343333Y-97233399D01*
X157315803Y-97192197D01*
X156807803Y-96684197D01*
X156766601Y-96656667D01*
X156718000Y-96647000D01*
X155702000Y-96647000D01*
X155653399Y-96656667D01*
X155612197Y-96684197D01*
X155104197Y-97192197D01*
X155076667Y-97233399D01*
X155067000Y-97282000D01*
X141784606Y-97282000D01*
X141948803Y-97117803D01*
X141976333Y-97076601D01*
X141986000Y-97028000D01*
X141986000Y-96012000D01*
X141976333Y-95963399D01*
X141948803Y-95922197D01*
X141567803Y-95541197D01*
X141526601Y-95513667D01*
X141478000Y-95504000D01*
X140462000Y-95504000D01*
X140413399Y-95513667D01*
X140372197Y-95541197D01*
X139991197Y-95922197D01*
X139963667Y-95963399D01*
X139954000Y-96012000D01*
X137873128Y-96012000D01*
X137869629Y-96010636D01*
X137354995Y-96525270D01*
X136995785Y-96525270D01*
X136481151Y-96010636D01*
X136331372Y-96069036D01*
X136221026Y-96426756D01*
X131210911Y-96426756D01*
X131134966Y-96044958D01*
X130992025Y-95831031D01*
X136660756Y-95831031D01*
X137175390Y-96345665D01*
X137690024Y-95831031D01*
X137631624Y-95681252D01*
X137273904Y-95570906D01*
X136901186Y-95605854D01*
X136719156Y-95681252D01*
X136660756Y-95831031D01*
X130992025Y-95831031D01*
X130862891Y-95637769D01*
X130455702Y-95365694D01*
X130096629Y-95294270D01*
X129434151Y-95294270D01*
X129075078Y-95365694D01*
X128667889Y-95637769D01*
X128395814Y-96044958D01*
X128300274Y-96525270D01*
X115570506Y-96525270D01*
X115474966Y-96044958D01*
X115202891Y-95637769D01*
X114795702Y-95365694D01*
X114436629Y-95294270D01*
X113774151Y-95294270D01*
X113415078Y-95365694D01*
X113007889Y-95637769D01*
X112735814Y-96044958D01*
X112640274Y-96525270D01*
X107990270Y-96525270D01*
X107891703Y-96029741D01*
X107611008Y-95609652D01*
X107190919Y-95328957D01*
X106820470Y-95255270D01*
X104030310Y-95255270D01*
X103659861Y-95328957D01*
X103498454Y-95436806D01*
X103455390Y-95436806D01*
X103306731Y-95466376D01*
X103180704Y-95550584D01*
X103096496Y-95676611D01*
X103066926Y-95825270D01*
X103066926Y-95868334D01*
X102959077Y-96029741D01*
X102860510Y-96525270D01*
X102696390Y-96525270D01*
X102696390Y-96310246D01*
X102531818Y-95912933D01*
X102227727Y-95608842D01*
X101830414Y-95444270D01*
X101400366Y-95444270D01*
X101003053Y-95608842D01*
X100698962Y-95912933D01*
X100534390Y-96310246D01*
X100156390Y-96310246D01*
X99991818Y-95912933D01*
X99687727Y-95608842D01*
X99290414Y-95444270D01*
X98860366Y-95444270D01*
X98463053Y-95608842D01*
X98158962Y-95912933D01*
X97994390Y-96310246D01*
X97603119Y-96310246D01*
X97596881Y-96228563D01*
X97495781Y-95984486D01*
X97331512Y-95908753D01*
X96714995Y-96525270D01*
X96355785Y-96525270D01*
X96341643Y-96511128D01*
X96521248Y-96331523D01*
X96535390Y-96345665D01*
X97151907Y-95729148D01*
X97076174Y-95564879D01*
X96667483Y-95431035D01*
X96238683Y-95463779D01*
X96043917Y-95544454D01*
X96061128Y-95518696D01*
X96062425Y-95512177D01*
X96077275Y-95488543D01*
X96079581Y-95482502D01*
X96082866Y-95476933D01*
X96092085Y-95450586D01*
X96096374Y-95445507D01*
X96109891Y-95403099D01*
X96125766Y-95361510D01*
X96125580Y-95354865D01*
X96134799Y-95328517D01*
X96135703Y-95322114D01*
X96137666Y-95315955D01*
X96140792Y-95288214D01*
X96143844Y-95282306D01*
X96147585Y-95237951D01*
X96153807Y-95193880D01*
X96152147Y-95187443D01*
X96155272Y-95159707D01*
X96154728Y-95153260D01*
X96155272Y-95146814D01*
X96152147Y-95119076D01*
X96153807Y-95112639D01*
X96147587Y-95068578D01*
X96143845Y-95024214D01*
X96140793Y-95018305D01*
X96137667Y-94990565D01*
X96135702Y-94984401D01*
X96134799Y-94978002D01*
X96125580Y-94951654D01*
X96125766Y-94945009D01*
X96109892Y-94903424D01*
X96096374Y-94861012D01*
X96092085Y-94855933D01*
X96082866Y-94829586D01*
X96079581Y-94824017D01*
X96077275Y-94817976D01*
X96062425Y-94794342D01*
X96061128Y-94787823D01*
X96036400Y-94750816D01*
X96013781Y-94712471D01*
X96008468Y-94708473D01*
X95993618Y-94684839D01*
X95989176Y-94680140D01*
X95985584Y-94674765D01*
X95965847Y-94655028D01*
X95963132Y-94648960D01*
X95930786Y-94618379D01*
X95900205Y-94586033D01*
X95894138Y-94583318D01*
X95874400Y-94563580D01*
X95869021Y-94559986D01*
X95864326Y-94555547D01*
X95860685Y-94553260D01*
X95864326Y-94550972D01*
X95869021Y-94546533D01*
X95874400Y-94542939D01*
X95894138Y-94523201D01*
X95900205Y-94520486D01*
X95930786Y-94488140D01*
X95963132Y-94457559D01*
X95965847Y-94451491D01*
X95985584Y-94431754D01*
X95989176Y-94426379D01*
X95993618Y-94421680D01*
X96008468Y-94398046D01*
X96013781Y-94394048D01*
X96036400Y-94355703D01*
X96061128Y-94318696D01*
X96062425Y-94312177D01*
X96077275Y-94288543D01*
X96079581Y-94282502D01*
X96082866Y-94276933D01*
X96092085Y-94250586D01*
X96096374Y-94245507D01*
X96109891Y-94203099D01*
X96125766Y-94161510D01*
X96125580Y-94154865D01*
X96134799Y-94128517D01*
X96135703Y-94122114D01*
X96137666Y-94115955D01*
X96140792Y-94088214D01*
X96143844Y-94082306D01*
X96147585Y-94037951D01*
X96153807Y-93993880D01*
X96152147Y-93987443D01*
X96152391Y-93985270D01*
X112640274Y-93985270D01*
X112735814Y-94465582D01*
X113007889Y-94872771D01*
X113415078Y-95144846D01*
X113774151Y-95216270D01*
X114436629Y-95216270D01*
X114795702Y-95144846D01*
X115202891Y-94872771D01*
X115474966Y-94465582D01*
X115570506Y-93985270D01*
X128300274Y-93985270D01*
X128395814Y-94465582D01*
X128667889Y-94872771D01*
X129075078Y-95144846D01*
X129434151Y-95216270D01*
X130096629Y-95216270D01*
X130455702Y-95144846D01*
X130862891Y-94872771D01*
X131134966Y-94465582D01*
X131230506Y-93985270D01*
X135880510Y-93985270D01*
X135979077Y-94480799D01*
X136259772Y-94900888D01*
X136679861Y-95181583D01*
X137050310Y-95255270D01*
X154830315Y-95255270D01*
X154955390Y-95280149D01*
X155080465Y-95255270D01*
X155080470Y-95255270D01*
X155124390Y-95246534D01*
X155124390Y-95474273D01*
X155292007Y-95878936D01*
X155601724Y-96188653D01*
X156006387Y-96356270D01*
X156444393Y-96356270D01*
X156849056Y-96188653D01*
X157025709Y-96012000D01*
X157607000Y-96012000D01*
X157607000Y-97028000D01*
X157616667Y-97076601D01*
X157644197Y-97117803D01*
X158152197Y-97625803D01*
X158193399Y-97653333D01*
X158242000Y-97663000D01*
X159258000Y-97663000D01*
X159306601Y-97653333D01*
X159347803Y-97625803D01*
X159855803Y-97117803D01*
X159883333Y-97076601D01*
X159893000Y-97028000D01*
X159893000Y-96742250D01*
X178004390Y-96742250D01*
X178004390Y-97295786D01*
X178062394Y-97435820D01*
X178169571Y-97542996D01*
X178309605Y-97601000D01*
X178863140Y-97601000D01*
X178958390Y-97505750D01*
X178958390Y-96647000D01*
X179212390Y-96647000D01*
X179212390Y-97505750D01*
X179307640Y-97601000D01*
X179861175Y-97601000D01*
X180001209Y-97542996D01*
X180108386Y-97435820D01*
X180166390Y-97295786D01*
X180166390Y-96742250D01*
X180071140Y-96647000D01*
X179212390Y-96647000D01*
X178958390Y-96647000D01*
X178099640Y-96647000D01*
X178004390Y-96742250D01*
X159893000Y-96742250D01*
X159893000Y-96012000D01*
X159883333Y-95963399D01*
X159855803Y-95922197D01*
X159677820Y-95744214D01*
X178004390Y-95744214D01*
X178004390Y-96297750D01*
X178099640Y-96393000D01*
X178958390Y-96393000D01*
X178958390Y-95534250D01*
X179212390Y-95534250D01*
X179212390Y-96393000D01*
X180071140Y-96393000D01*
X180166390Y-96297750D01*
X180166390Y-95744214D01*
X180108386Y-95604180D01*
X180001209Y-95497004D01*
X179861175Y-95439000D01*
X179307640Y-95439000D01*
X179212390Y-95534250D01*
X178958390Y-95534250D01*
X178863140Y-95439000D01*
X178309605Y-95439000D01*
X178169571Y-95497004D01*
X178062394Y-95604180D01*
X178004390Y-95744214D01*
X159677820Y-95744214D01*
X159347803Y-95414197D01*
X159306601Y-95386667D01*
X159258000Y-95377000D01*
X158242000Y-95377000D01*
X158193399Y-95386667D01*
X158152197Y-95414197D01*
X157644197Y-95922197D01*
X157616667Y-95963399D01*
X157607000Y-96012000D01*
X157025709Y-96012000D01*
X157158773Y-95878936D01*
X157326390Y-95474273D01*
X157326390Y-95036267D01*
X157158773Y-94631604D01*
X156849056Y-94321887D01*
X156542007Y-94194703D01*
X156970443Y-93766267D01*
X157664390Y-93766267D01*
X157664390Y-94204273D01*
X157832007Y-94608936D01*
X158141724Y-94918653D01*
X158546387Y-95086270D01*
X158984393Y-95086270D01*
X159389056Y-94918653D01*
X159599467Y-94708242D01*
X183622023Y-94708242D01*
X183685318Y-94862098D01*
X184057409Y-94979069D01*
X184445939Y-94944743D01*
X184645462Y-94862098D01*
X184708757Y-94708242D01*
X184165390Y-94164875D01*
X183622023Y-94708242D01*
X159599467Y-94708242D01*
X159698773Y-94608936D01*
X159866390Y-94204273D01*
X159866390Y-93877289D01*
X183171591Y-93877289D01*
X183205917Y-94265819D01*
X183288562Y-94465342D01*
X183442418Y-94528637D01*
X183985785Y-93985270D01*
X184344995Y-93985270D01*
X184888362Y-94528637D01*
X185042218Y-94465342D01*
X185159189Y-94093251D01*
X185138599Y-93860191D01*
X185435390Y-93860191D01*
X185435391Y-96645080D01*
X185509078Y-97015529D01*
X185789773Y-97435618D01*
X186209862Y-97716313D01*
X186705390Y-97814880D01*
X187200919Y-97716313D01*
X187621008Y-97435618D01*
X187901703Y-97015529D01*
X187975390Y-96645080D01*
X187975390Y-93860190D01*
X187901703Y-93489741D01*
X187621008Y-93069652D01*
X187200918Y-92788957D01*
X186705390Y-92690390D01*
X186209861Y-92788957D01*
X185789772Y-93069652D01*
X185509077Y-93489742D01*
X185435390Y-93860191D01*
X185138599Y-93860191D01*
X185124863Y-93704721D01*
X185042218Y-93505198D01*
X184888362Y-93441903D01*
X184344995Y-93985270D01*
X183985785Y-93985270D01*
X183442418Y-93441903D01*
X183288562Y-93505198D01*
X183171591Y-93877289D01*
X159866390Y-93877289D01*
X159866390Y-93766267D01*
X159698773Y-93361604D01*
X159599467Y-93262298D01*
X183622023Y-93262298D01*
X184165390Y-93805665D01*
X184708757Y-93262298D01*
X184645462Y-93108442D01*
X184273371Y-92991471D01*
X183884841Y-93025797D01*
X183685318Y-93108442D01*
X183622023Y-93262298D01*
X159599467Y-93262298D01*
X159389056Y-93051887D01*
X158984393Y-92884270D01*
X158546387Y-92884270D01*
X158141724Y-93051887D01*
X157832007Y-93361604D01*
X157664390Y-93766267D01*
X156970443Y-93766267D01*
X157034971Y-93701740D01*
X157141008Y-93630888D01*
X157211861Y-93524849D01*
X158021441Y-92715270D01*
X158890470Y-92715270D01*
X159260919Y-92641583D01*
X159681008Y-92360888D01*
X159961703Y-91940799D01*
X160060270Y-91445270D01*
X159961703Y-90949741D01*
X159681008Y-90529652D01*
X159260919Y-90248957D01*
X158890470Y-90175270D01*
X158021441Y-90175270D01*
X157333854Y-89487684D01*
X157333854Y-89455270D01*
X157304284Y-89306611D01*
X157220076Y-89180584D01*
X157094049Y-89096376D01*
X156945390Y-89066806D01*
X156852393Y-89066806D01*
X156720918Y-88978957D01*
X156225390Y-88880390D01*
X155729861Y-88978957D01*
X155598386Y-89066806D01*
X155505390Y-89066806D01*
X155356731Y-89096376D01*
X155230704Y-89180584D01*
X155146496Y-89306611D01*
X155116926Y-89455270D01*
X155116926Y-89548267D01*
X155029077Y-89679742D01*
X154955390Y-90050191D01*
X154955390Y-90050195D01*
X154930511Y-90175270D01*
X154955390Y-90300345D01*
X154955391Y-92189219D01*
X154429340Y-92715270D01*
X137050310Y-92715270D01*
X136679861Y-92788957D01*
X136259772Y-93069652D01*
X135979077Y-93489741D01*
X135880510Y-93985270D01*
X131230506Y-93985270D01*
X131134966Y-93504958D01*
X130862891Y-93097769D01*
X130455702Y-92825694D01*
X130096629Y-92754270D01*
X129434151Y-92754270D01*
X129075078Y-92825694D01*
X128667889Y-93097769D01*
X128395814Y-93504958D01*
X128300274Y-93985270D01*
X115570506Y-93985270D01*
X115474966Y-93504958D01*
X115202891Y-93097769D01*
X114795702Y-92825694D01*
X114436629Y-92754270D01*
X113774151Y-92754270D01*
X113415078Y-92825694D01*
X113007889Y-93097769D01*
X112735814Y-93504958D01*
X112640274Y-93985270D01*
X96152391Y-93985270D01*
X96155272Y-93959707D01*
X96154728Y-93953260D01*
X96155272Y-93946814D01*
X96152147Y-93919076D01*
X96153807Y-93912639D01*
X96147587Y-93868578D01*
X96143845Y-93824214D01*
X96140793Y-93818305D01*
X96137667Y-93790565D01*
X96135702Y-93784401D01*
X96134799Y-93778002D01*
X96125580Y-93751654D01*
X96125766Y-93745009D01*
X96109892Y-93703424D01*
X96096374Y-93661012D01*
X96092085Y-93655933D01*
X96082866Y-93629586D01*
X96079581Y-93624017D01*
X96077275Y-93617976D01*
X96062425Y-93594342D01*
X96061128Y-93587823D01*
X96036400Y-93550816D01*
X96013781Y-93512471D01*
X96008468Y-93508473D01*
X95993618Y-93484839D01*
X95989176Y-93480140D01*
X95985584Y-93474765D01*
X95965847Y-93455028D01*
X95963132Y-93448960D01*
X95930786Y-93418379D01*
X95900205Y-93386033D01*
X95894138Y-93383318D01*
X95874400Y-93363580D01*
X95869021Y-93359986D01*
X95864326Y-93355547D01*
X95840692Y-93340697D01*
X95836694Y-93335384D01*
X95798353Y-93312767D01*
X95761342Y-93288037D01*
X95754821Y-93286740D01*
X95731189Y-93271891D01*
X95725152Y-93269587D01*
X95719579Y-93266299D01*
X95693228Y-93257078D01*
X95688147Y-93252788D01*
X95645729Y-93239269D01*
X95604156Y-93223399D01*
X95597511Y-93223585D01*
X95571163Y-93214366D01*
X95564759Y-93213462D01*
X95558594Y-93211497D01*
X95520208Y-93207172D01*
X95436526Y-93195358D01*
X95433805Y-93196060D01*
X95421579Y-93196060D01*
X95402345Y-93193893D01*
X95376657Y-93196060D01*
X95224600Y-93196060D01*
X95224600Y-91057504D01*
X96137505Y-90144600D01*
X96902496Y-90144600D01*
X97180400Y-90422505D01*
X97180400Y-90561515D01*
X97147727Y-90528842D01*
X96750414Y-90364270D01*
X96320366Y-90364270D01*
X95923053Y-90528842D01*
X95618962Y-90832933D01*
X95454390Y-91230246D01*
X95454390Y-91660294D01*
X95618962Y-92057607D01*
X95923053Y-92361698D01*
X96320366Y-92526270D01*
X96750414Y-92526270D01*
X97147727Y-92361698D01*
X97451818Y-92057607D01*
X97516078Y-91902470D01*
X97587300Y-91902470D01*
X97632330Y-91911427D01*
X97677360Y-91902470D01*
X97790000Y-91880065D01*
X97902640Y-91902470D01*
X97947670Y-91911427D01*
X97992700Y-91902470D01*
X98094702Y-91902470D01*
X98158962Y-92057607D01*
X98463053Y-92361698D01*
X98860366Y-92526270D01*
X99290414Y-92526270D01*
X99687727Y-92361698D01*
X99991818Y-92057607D01*
X100156390Y-91660294D01*
X100156390Y-91230246D01*
X100534390Y-91230246D01*
X100534390Y-91660294D01*
X100698962Y-92057607D01*
X101003053Y-92361698D01*
X101400366Y-92526270D01*
X101830414Y-92526270D01*
X102227727Y-92361698D01*
X102531818Y-92057607D01*
X102696390Y-91660294D01*
X102696390Y-91230246D01*
X103074390Y-91230246D01*
X103074390Y-91660294D01*
X103238962Y-92057607D01*
X103543053Y-92361698D01*
X103940366Y-92526270D01*
X104370414Y-92526270D01*
X104767727Y-92361698D01*
X105071818Y-92057607D01*
X105236390Y-91660294D01*
X105236390Y-91230246D01*
X105071818Y-90832933D01*
X104767727Y-90528842D01*
X104370414Y-90364270D01*
X103940366Y-90364270D01*
X103543053Y-90528842D01*
X103238962Y-90832933D01*
X103074390Y-91230246D01*
X102696390Y-91230246D01*
X102531818Y-90832933D01*
X102227727Y-90528842D01*
X101830414Y-90364270D01*
X101400366Y-90364270D01*
X101003053Y-90528842D01*
X100698962Y-90832933D01*
X100534390Y-91230246D01*
X100156390Y-91230246D01*
X99991818Y-90832933D01*
X99687727Y-90528842D01*
X99290414Y-90364270D01*
X98860366Y-90364270D01*
X98463053Y-90528842D01*
X98399600Y-90592295D01*
X98399600Y-90151903D01*
X98408557Y-90106873D01*
X98373073Y-89928483D01*
X98297530Y-89815425D01*
X98272023Y-89777251D01*
X98233849Y-89751744D01*
X97573258Y-89091154D01*
X97547749Y-89052977D01*
X97396517Y-88951927D01*
X97263156Y-88925400D01*
X97218126Y-88916443D01*
X97173096Y-88925400D01*
X95866904Y-88925400D01*
X95821874Y-88916443D01*
X95776844Y-88925400D01*
X95643483Y-88951927D01*
X95492251Y-89052977D01*
X95466744Y-89091151D01*
X94171152Y-90386744D01*
X94132978Y-90412251D01*
X94107471Y-90450425D01*
X94107470Y-90450426D01*
X94031927Y-90563484D01*
X93996443Y-90741874D01*
X94005401Y-90786909D01*
X94005400Y-95437630D01*
X92455721Y-96987309D01*
X92556390Y-96744273D01*
X92556390Y-96306267D01*
X92388773Y-95901604D01*
X92079056Y-95591887D01*
X91674393Y-95424270D01*
X91236387Y-95424270D01*
X90831724Y-95591887D01*
X90522007Y-95901604D01*
X90354390Y-96306267D01*
X90354390Y-96744273D01*
X90522007Y-97148936D01*
X90711141Y-97338070D01*
X89917726Y-97338070D01*
X89848773Y-97171604D01*
X89539056Y-96861887D01*
X89134393Y-96694270D01*
X88696387Y-96694270D01*
X88291724Y-96861887D01*
X87982007Y-97171604D01*
X87814390Y-97576267D01*
X76646390Y-97576267D01*
X76646390Y-95036267D01*
X87814390Y-95036267D01*
X87814390Y-95474273D01*
X87982007Y-95878936D01*
X88291724Y-96188653D01*
X88696387Y-96356270D01*
X89134393Y-96356270D01*
X89539056Y-96188653D01*
X89848773Y-95878936D01*
X90016390Y-95474273D01*
X90016390Y-95036267D01*
X89848773Y-94631604D01*
X89539056Y-94321887D01*
X89134393Y-94154270D01*
X88696387Y-94154270D01*
X88291724Y-94321887D01*
X87982007Y-94631604D01*
X87814390Y-95036267D01*
X76646390Y-95036267D01*
X76646390Y-92496267D01*
X87814390Y-92496267D01*
X87814390Y-92934273D01*
X87982007Y-93338936D01*
X88291724Y-93648653D01*
X88696387Y-93816270D01*
X89134393Y-93816270D01*
X89255110Y-93766267D01*
X90354390Y-93766267D01*
X90354390Y-94204273D01*
X90522007Y-94608936D01*
X90831724Y-94918653D01*
X91236387Y-95086270D01*
X91674393Y-95086270D01*
X92079056Y-94918653D01*
X92388773Y-94608936D01*
X92556390Y-94204273D01*
X92556390Y-93766267D01*
X92388773Y-93361604D01*
X92079056Y-93051887D01*
X91674393Y-92884270D01*
X91236387Y-92884270D01*
X90831724Y-93051887D01*
X90522007Y-93361604D01*
X90354390Y-93766267D01*
X89255110Y-93766267D01*
X89539056Y-93648653D01*
X89848773Y-93338936D01*
X90016390Y-92934273D01*
X90016390Y-92496267D01*
X89848773Y-92091604D01*
X89539056Y-91781887D01*
X89134393Y-91614270D01*
X88696387Y-91614270D01*
X88291724Y-91781887D01*
X87982007Y-92091604D01*
X87814390Y-92496267D01*
X76646390Y-92496267D01*
X76646390Y-88519208D01*
X80599390Y-88519208D01*
X80599390Y-89301332D01*
X80898696Y-90023919D01*
X81451741Y-90576964D01*
X82174328Y-90876270D01*
X82956452Y-90876270D01*
X83679039Y-90576964D01*
X84232084Y-90023919D01*
X84467626Y-89455270D01*
X87806926Y-89455270D01*
X87806926Y-90895270D01*
X87836496Y-91043929D01*
X87920704Y-91169956D01*
X88046731Y-91254164D01*
X88195390Y-91283734D01*
X89635390Y-91283734D01*
X89784049Y-91254164D01*
X89825800Y-91226267D01*
X90354390Y-91226267D01*
X90354390Y-91664273D01*
X90522007Y-92068936D01*
X90831724Y-92378653D01*
X91236387Y-92546270D01*
X91674393Y-92546270D01*
X92079056Y-92378653D01*
X92388773Y-92068936D01*
X92556390Y-91664273D01*
X92556390Y-91226267D01*
X92388773Y-90821604D01*
X92079056Y-90511887D01*
X91674393Y-90344270D01*
X91236387Y-90344270D01*
X90831724Y-90511887D01*
X90522007Y-90821604D01*
X90354390Y-91226267D01*
X89825800Y-91226267D01*
X89910076Y-91169956D01*
X89994284Y-91043929D01*
X90023854Y-90895270D01*
X90023854Y-89455270D01*
X89994284Y-89306611D01*
X89910076Y-89180584D01*
X89784049Y-89096376D01*
X89635390Y-89066806D01*
X88195390Y-89066806D01*
X88046731Y-89096376D01*
X87920704Y-89180584D01*
X87836496Y-89306611D01*
X87806926Y-89455270D01*
X84467626Y-89455270D01*
X84531390Y-89301332D01*
X84531390Y-88519208D01*
X147909390Y-88519208D01*
X147909390Y-89301332D01*
X148208696Y-90023919D01*
X148761741Y-90576964D01*
X149484328Y-90876270D01*
X150266452Y-90876270D01*
X150989039Y-90576964D01*
X151542084Y-90023919D01*
X151841390Y-89301332D01*
X151841390Y-88519208D01*
X151542084Y-87796621D01*
X150989039Y-87243576D01*
X150266452Y-86944270D01*
X149484328Y-86944270D01*
X148761741Y-87243576D01*
X148208696Y-87796621D01*
X147909390Y-88519208D01*
X84531390Y-88519208D01*
X84232084Y-87796621D01*
X83679039Y-87243576D01*
X83304031Y-87088242D01*
X106152023Y-87088242D01*
X106215318Y-87242098D01*
X106587409Y-87359069D01*
X106975939Y-87324743D01*
X107175462Y-87242098D01*
X107238757Y-87088242D01*
X106695390Y-86544875D01*
X106152023Y-87088242D01*
X83304031Y-87088242D01*
X82956452Y-86944270D01*
X82174328Y-86944270D01*
X81451741Y-87243576D01*
X80898696Y-87796621D01*
X80599390Y-88519208D01*
X76646390Y-88519208D01*
X76646390Y-86257289D01*
X105701591Y-86257289D01*
X105735917Y-86645819D01*
X105818562Y-86845342D01*
X105972418Y-86908637D01*
X106515785Y-86365270D01*
X106874995Y-86365270D01*
X107418362Y-86908637D01*
X107572218Y-86845342D01*
X107689189Y-86473251D01*
X107654863Y-86084721D01*
X107572218Y-85885198D01*
X107418362Y-85821903D01*
X106874995Y-86365270D01*
X106515785Y-86365270D01*
X105972418Y-85821903D01*
X105818562Y-85885198D01*
X105701591Y-86257289D01*
X76646390Y-86257289D01*
X76646390Y-85642298D01*
X106152023Y-85642298D01*
X106695390Y-86185665D01*
X107238757Y-85642298D01*
X107175462Y-85488442D01*
X106803371Y-85371471D01*
X106414841Y-85405797D01*
X106215318Y-85488442D01*
X106152023Y-85642298D01*
X76646390Y-85642298D01*
X76646390Y-80465056D01*
X77183000Y-80465056D01*
X77183000Y-82094944D01*
X77806731Y-83600764D01*
X78959236Y-84753269D01*
X80465056Y-85377000D01*
X82094944Y-85377000D01*
X83600764Y-84753269D01*
X83732641Y-84621392D01*
X95918873Y-84621392D01*
X95994606Y-84785661D01*
X96403297Y-84919505D01*
X96832097Y-84886761D01*
X97076174Y-84785661D01*
X97151907Y-84621392D01*
X96535390Y-84004875D01*
X95918873Y-84621392D01*
X83732641Y-84621392D01*
X84660856Y-83693177D01*
X95441155Y-83693177D01*
X95473899Y-84121977D01*
X95574999Y-84366054D01*
X95739268Y-84441787D01*
X96355785Y-83825270D01*
X96714995Y-83825270D01*
X97331512Y-84441787D01*
X97495781Y-84366054D01*
X97629625Y-83957363D01*
X97603119Y-83610246D01*
X97994390Y-83610246D01*
X97994390Y-84040294D01*
X98158962Y-84437607D01*
X98463053Y-84741698D01*
X98860366Y-84906270D01*
X99290414Y-84906270D01*
X99687727Y-84741698D01*
X99991818Y-84437607D01*
X100156390Y-84040294D01*
X100156390Y-83610246D01*
X100534390Y-83610246D01*
X100534390Y-84040294D01*
X100698962Y-84437607D01*
X101003053Y-84741698D01*
X101400366Y-84906270D01*
X101830414Y-84906270D01*
X102227727Y-84741698D01*
X102531818Y-84437607D01*
X102696390Y-84040294D01*
X102696390Y-83825270D01*
X102860510Y-83825270D01*
X102959077Y-84320799D01*
X103066926Y-84482206D01*
X103066926Y-84525270D01*
X103096496Y-84673929D01*
X103180704Y-84799956D01*
X103306731Y-84884164D01*
X103455390Y-84913734D01*
X103498454Y-84913734D01*
X103659861Y-85021583D01*
X104030310Y-85095270D01*
X106820470Y-85095270D01*
X107190919Y-85021583D01*
X107611008Y-84740888D01*
X107891703Y-84320799D01*
X107990270Y-83825270D01*
X107891703Y-83329741D01*
X107611008Y-82909652D01*
X107190919Y-82628957D01*
X106820470Y-82555270D01*
X104030310Y-82555270D01*
X103659861Y-82628957D01*
X103498454Y-82736806D01*
X103455390Y-82736806D01*
X103306731Y-82766376D01*
X103180704Y-82850584D01*
X103096496Y-82976611D01*
X103066926Y-83125270D01*
X103066926Y-83168334D01*
X102959077Y-83329741D01*
X102860510Y-83825270D01*
X102696390Y-83825270D01*
X102696390Y-83610246D01*
X102531818Y-83212933D01*
X102227727Y-82908842D01*
X101830414Y-82744270D01*
X101400366Y-82744270D01*
X101003053Y-82908842D01*
X100698962Y-83212933D01*
X100534390Y-83610246D01*
X100156390Y-83610246D01*
X99991818Y-83212933D01*
X99687727Y-82908842D01*
X99290414Y-82744270D01*
X98860366Y-82744270D01*
X98463053Y-82908842D01*
X98158962Y-83212933D01*
X97994390Y-83610246D01*
X97603119Y-83610246D01*
X97596881Y-83528563D01*
X97495781Y-83284486D01*
X97331512Y-83208753D01*
X96714995Y-83825270D01*
X96355785Y-83825270D01*
X95739268Y-83208753D01*
X95574999Y-83284486D01*
X95441155Y-83693177D01*
X84660856Y-83693177D01*
X84753269Y-83600764D01*
X84990040Y-83029148D01*
X95918873Y-83029148D01*
X96535390Y-83645665D01*
X97151907Y-83029148D01*
X97076174Y-82864879D01*
X96667483Y-82731035D01*
X96238683Y-82763779D01*
X95994606Y-82864879D01*
X95918873Y-83029148D01*
X84990040Y-83029148D01*
X85377000Y-82094944D01*
X85377000Y-80465056D01*
X183863000Y-80465056D01*
X183863000Y-82094944D01*
X184486731Y-83600764D01*
X185639236Y-84753269D01*
X187145056Y-85377000D01*
X188774944Y-85377000D01*
X190280764Y-84753269D01*
X191433269Y-83600764D01*
X192057000Y-82094944D01*
X192057000Y-80465056D01*
X191433269Y-78959236D01*
X190280764Y-77806731D01*
X188774944Y-77183000D01*
X187145056Y-77183000D01*
X185639236Y-77806731D01*
X184486731Y-78959236D01*
X183863000Y-80465056D01*
X85377000Y-80465056D01*
X84753269Y-78959236D01*
X83600764Y-77806731D01*
X82094944Y-77183000D01*
X80465056Y-77183000D01*
X78959236Y-77806731D01*
X77806731Y-78959236D01*
X77183000Y-80465056D01*
X76646390Y-80465056D01*
X76646390Y-76636270D01*
X192624391Y-76636270D01*
X192624390Y-126574270D01*
%TD*%
M02*
