%TF.GenerationSoftware,KiCad,Pcbnew,(5.0.0-rc2-100-g6d77e594b)*%
%TF.CreationDate,2018-06-08T00:04:51-04:00*%
%TF.ProjectId,Logic&Oscillator,4C6F676963264F7363696C6C61746F72,1.0.2*%
%TF.SameCoordinates,Original*%
%TF.FileFunction,Soldermask,Bot*%
%TF.FilePolarity,Negative*%
%FSLAX46Y46*%
G04 Gerber Fmt 4.6, Leading zero omitted, Abs format (unit mm)*
G04 Created by KiCad (PCBNEW (5.0.0-rc2-100-g6d77e594b)) date 06/08/18 00:04:51*
%MOMM*%
%LPD*%
G01*
G04 APERTURE LIST*
%ADD10C,0.002540*%
%ADD11C,0.010000*%
%ADD12C,1.221600*%
%ADD13R,1.221600X1.221600*%
%ADD14C,1.561600*%
%ADD15R,1.561600X1.561600*%
%ADD16C,1.511600*%
%ADD17R,1.511600X1.511600*%
%ADD18C,1.501600*%
%ADD19R,1.501600X1.501600*%
%ADD20C,1.300480*%
%ADD21R,1.221740X1.221740*%
%ADD22C,3.601600*%
%ADD23R,4.601600X4.601600*%
%ADD24C,3.271600*%
%ADD25C,1.541600*%
%ADD26R,1.541600X1.541600*%
%ADD27C,3.361600*%
%ADD28R,0.863600X0.863600*%
%ADD29R,8.041600X8.041600*%
%ADD30R,1.631600X1.631600*%
%ADD31C,1.631600*%
%ADD32R,1.209040X1.209040*%
%ADD33C,1.209040*%
%ADD34R,2.221600X1.801600*%
%ADD35O,2.221600X1.801600*%
G04 APERTURE END LIST*
D10*
%TO.C,G\002A\002A\002A*%
G36*
X122930920Y-84683600D02*
X122913140Y-84673440D01*
X122875040Y-84650580D01*
X122819160Y-84612480D01*
X122753120Y-84569300D01*
X122687080Y-84523580D01*
X122631200Y-84488020D01*
X122593100Y-84462620D01*
X122577860Y-84455000D01*
X122570240Y-84457540D01*
X122537220Y-84472780D01*
X122494040Y-84495640D01*
X122466100Y-84510880D01*
X122425460Y-84528660D01*
X122402600Y-84531200D01*
X122400060Y-84526120D01*
X122384820Y-84495640D01*
X122361960Y-84439760D01*
X122328940Y-84368640D01*
X122293380Y-84282280D01*
X122255280Y-84190840D01*
X122214640Y-84099400D01*
X122179080Y-84010500D01*
X122146060Y-83929220D01*
X122120660Y-83863180D01*
X122102880Y-83820000D01*
X122095260Y-83799680D01*
X122097800Y-83794600D01*
X122118120Y-83774280D01*
X122156220Y-83748880D01*
X122234960Y-83682840D01*
X122313700Y-83586320D01*
X122359420Y-83477100D01*
X122377200Y-83352640D01*
X122361960Y-83238340D01*
X122318780Y-83131660D01*
X122242580Y-83032600D01*
X122148600Y-82958940D01*
X122041920Y-82913220D01*
X121920000Y-82897980D01*
X121805700Y-82910680D01*
X121693940Y-82956400D01*
X121594880Y-83030060D01*
X121551700Y-83078320D01*
X121495820Y-83177380D01*
X121462800Y-83284060D01*
X121460260Y-83312000D01*
X121465340Y-83428840D01*
X121498360Y-83540600D01*
X121561860Y-83639660D01*
X121645680Y-83723480D01*
X121658380Y-83731100D01*
X121696480Y-83761580D01*
X121724420Y-83781900D01*
X121744740Y-83797140D01*
X121594880Y-84157820D01*
X121572020Y-84213700D01*
X121531380Y-84312760D01*
X121495820Y-84396580D01*
X121465340Y-84465160D01*
X121445020Y-84510880D01*
X121437400Y-84528660D01*
X121422160Y-84531200D01*
X121396760Y-84521040D01*
X121345960Y-84498180D01*
X121312940Y-84480400D01*
X121274840Y-84462620D01*
X121257060Y-84455000D01*
X121241820Y-84462620D01*
X121206260Y-84485480D01*
X121152920Y-84521040D01*
X121086880Y-84566760D01*
X121025920Y-84607400D01*
X120970040Y-84645500D01*
X120929400Y-84670900D01*
X120909080Y-84681060D01*
X120906540Y-84681060D01*
X120888760Y-84670900D01*
X120855740Y-84645500D01*
X120807480Y-84599780D01*
X120738900Y-84531200D01*
X120728740Y-84518500D01*
X120670320Y-84462620D01*
X120624600Y-84414360D01*
X120594120Y-84378800D01*
X120581420Y-84363560D01*
X120591580Y-84343240D01*
X120619520Y-84302600D01*
X120655080Y-84244180D01*
X120700800Y-84178140D01*
X120820180Y-84005420D01*
X120754140Y-83842860D01*
X120733820Y-83792060D01*
X120708420Y-83731100D01*
X120690640Y-83687920D01*
X120680480Y-83670140D01*
X120662700Y-83662520D01*
X120619520Y-83652360D01*
X120553480Y-83639660D01*
X120477280Y-83624420D01*
X120403620Y-83611720D01*
X120337580Y-83599020D01*
X120289320Y-83588860D01*
X120266460Y-83586320D01*
X120261380Y-83581240D01*
X120256300Y-83571080D01*
X120253760Y-83548220D01*
X120253760Y-83507580D01*
X120251220Y-83444080D01*
X120251220Y-83352640D01*
X120251220Y-83342480D01*
X120253760Y-83256120D01*
X120253760Y-83185000D01*
X120256300Y-83141820D01*
X120258840Y-83124040D01*
X120281700Y-83118960D01*
X120327420Y-83108800D01*
X120393460Y-83096100D01*
X120472200Y-83080860D01*
X120477280Y-83078320D01*
X120556020Y-83063080D01*
X120624600Y-83050380D01*
X120670320Y-83040220D01*
X120688100Y-83032600D01*
X120693180Y-83027520D01*
X120708420Y-82997040D01*
X120731280Y-82948780D01*
X120759220Y-82887820D01*
X120784620Y-82826860D01*
X120804940Y-82770980D01*
X120820180Y-82727800D01*
X120825260Y-82710020D01*
X120812560Y-82689700D01*
X120787160Y-82649060D01*
X120749060Y-82593180D01*
X120700800Y-82524600D01*
X120698260Y-82519520D01*
X120652540Y-82453480D01*
X120616980Y-82397600D01*
X120591580Y-82356960D01*
X120581420Y-82339180D01*
X120583960Y-82336640D01*
X120596660Y-82318860D01*
X120632220Y-82280760D01*
X120680480Y-82229960D01*
X120738900Y-82169000D01*
X120756680Y-82151220D01*
X120822720Y-82087720D01*
X120868440Y-82047080D01*
X120896380Y-82024220D01*
X120909080Y-82019140D01*
X120929400Y-82031840D01*
X120972580Y-82059780D01*
X121028460Y-82097880D01*
X121097040Y-82143600D01*
X121102120Y-82148680D01*
X121168160Y-82194400D01*
X121224040Y-82229960D01*
X121262140Y-82257900D01*
X121279920Y-82268060D01*
X121282460Y-82268060D01*
X121310400Y-82260440D01*
X121358660Y-82242660D01*
X121417080Y-82219800D01*
X121478040Y-82194400D01*
X121533920Y-82171540D01*
X121577100Y-82153760D01*
X121594880Y-82141060D01*
X121597420Y-82141060D01*
X121602500Y-82115660D01*
X121615200Y-82067400D01*
X121630440Y-81998820D01*
X121645680Y-81915000D01*
X121648220Y-81902300D01*
X121663460Y-81823560D01*
X121676160Y-81757520D01*
X121683780Y-81711800D01*
X121688860Y-81694020D01*
X121701560Y-81691480D01*
X121739660Y-81688940D01*
X121798080Y-81686400D01*
X121869200Y-81686400D01*
X121945400Y-81686400D01*
X122019060Y-81688940D01*
X122080020Y-81688940D01*
X122125740Y-81694020D01*
X122146060Y-81696560D01*
X122146060Y-81699100D01*
X122153680Y-81721960D01*
X122163840Y-81772760D01*
X122176540Y-81841340D01*
X122194320Y-81922620D01*
X122196860Y-81937860D01*
X122212100Y-82016600D01*
X122224800Y-82082640D01*
X122234960Y-82128360D01*
X122240040Y-82146140D01*
X122245120Y-82148680D01*
X122278140Y-82163920D01*
X122331480Y-82184240D01*
X122397520Y-82212180D01*
X122549920Y-82273140D01*
X122737880Y-82146140D01*
X122755660Y-82133440D01*
X122821700Y-82087720D01*
X122877580Y-82049620D01*
X122915680Y-82026760D01*
X122933460Y-82016600D01*
X122953780Y-82034380D01*
X122989340Y-82067400D01*
X123040140Y-82118200D01*
X123098560Y-82176620D01*
X123144280Y-82219800D01*
X123195080Y-82273140D01*
X123228100Y-82308700D01*
X123245880Y-82331560D01*
X123250960Y-82344260D01*
X123250960Y-82354420D01*
X123238260Y-82372200D01*
X123210320Y-82415380D01*
X123172220Y-82471260D01*
X123126500Y-82537300D01*
X123088400Y-82593180D01*
X123047760Y-82656680D01*
X123022360Y-82699860D01*
X123012200Y-82722720D01*
X123014740Y-82732880D01*
X123027440Y-82768440D01*
X123050300Y-82824320D01*
X123078240Y-82890360D01*
X123144280Y-83037680D01*
X123240800Y-83058000D01*
X123299220Y-83068160D01*
X123383040Y-83083400D01*
X123461780Y-83098640D01*
X123583700Y-83124040D01*
X123588780Y-83573620D01*
X123568460Y-83581240D01*
X123550680Y-83586320D01*
X123504960Y-83596480D01*
X123441460Y-83609180D01*
X123362720Y-83624420D01*
X123299220Y-83637120D01*
X123233180Y-83649820D01*
X123184920Y-83657440D01*
X123164600Y-83662520D01*
X123159520Y-83670140D01*
X123141740Y-83700620D01*
X123118880Y-83751420D01*
X123093480Y-83812380D01*
X123065540Y-83875880D01*
X123042680Y-83934300D01*
X123027440Y-83980020D01*
X123019820Y-84002880D01*
X123029980Y-84020660D01*
X123055380Y-84058760D01*
X123090940Y-84114640D01*
X123136660Y-84180680D01*
X123179840Y-84244180D01*
X123217940Y-84302600D01*
X123243340Y-84340700D01*
X123256040Y-84361020D01*
X123250960Y-84373720D01*
X123223020Y-84404200D01*
X123174760Y-84455000D01*
X123101100Y-84528660D01*
X123088400Y-84538820D01*
X123029980Y-84597240D01*
X122981720Y-84642960D01*
X122946160Y-84673440D01*
X122930920Y-84683600D01*
X122930920Y-84683600D01*
G37*
X122930920Y-84683600D02*
X122913140Y-84673440D01*
X122875040Y-84650580D01*
X122819160Y-84612480D01*
X122753120Y-84569300D01*
X122687080Y-84523580D01*
X122631200Y-84488020D01*
X122593100Y-84462620D01*
X122577860Y-84455000D01*
X122570240Y-84457540D01*
X122537220Y-84472780D01*
X122494040Y-84495640D01*
X122466100Y-84510880D01*
X122425460Y-84528660D01*
X122402600Y-84531200D01*
X122400060Y-84526120D01*
X122384820Y-84495640D01*
X122361960Y-84439760D01*
X122328940Y-84368640D01*
X122293380Y-84282280D01*
X122255280Y-84190840D01*
X122214640Y-84099400D01*
X122179080Y-84010500D01*
X122146060Y-83929220D01*
X122120660Y-83863180D01*
X122102880Y-83820000D01*
X122095260Y-83799680D01*
X122097800Y-83794600D01*
X122118120Y-83774280D01*
X122156220Y-83748880D01*
X122234960Y-83682840D01*
X122313700Y-83586320D01*
X122359420Y-83477100D01*
X122377200Y-83352640D01*
X122361960Y-83238340D01*
X122318780Y-83131660D01*
X122242580Y-83032600D01*
X122148600Y-82958940D01*
X122041920Y-82913220D01*
X121920000Y-82897980D01*
X121805700Y-82910680D01*
X121693940Y-82956400D01*
X121594880Y-83030060D01*
X121551700Y-83078320D01*
X121495820Y-83177380D01*
X121462800Y-83284060D01*
X121460260Y-83312000D01*
X121465340Y-83428840D01*
X121498360Y-83540600D01*
X121561860Y-83639660D01*
X121645680Y-83723480D01*
X121658380Y-83731100D01*
X121696480Y-83761580D01*
X121724420Y-83781900D01*
X121744740Y-83797140D01*
X121594880Y-84157820D01*
X121572020Y-84213700D01*
X121531380Y-84312760D01*
X121495820Y-84396580D01*
X121465340Y-84465160D01*
X121445020Y-84510880D01*
X121437400Y-84528660D01*
X121422160Y-84531200D01*
X121396760Y-84521040D01*
X121345960Y-84498180D01*
X121312940Y-84480400D01*
X121274840Y-84462620D01*
X121257060Y-84455000D01*
X121241820Y-84462620D01*
X121206260Y-84485480D01*
X121152920Y-84521040D01*
X121086880Y-84566760D01*
X121025920Y-84607400D01*
X120970040Y-84645500D01*
X120929400Y-84670900D01*
X120909080Y-84681060D01*
X120906540Y-84681060D01*
X120888760Y-84670900D01*
X120855740Y-84645500D01*
X120807480Y-84599780D01*
X120738900Y-84531200D01*
X120728740Y-84518500D01*
X120670320Y-84462620D01*
X120624600Y-84414360D01*
X120594120Y-84378800D01*
X120581420Y-84363560D01*
X120591580Y-84343240D01*
X120619520Y-84302600D01*
X120655080Y-84244180D01*
X120700800Y-84178140D01*
X120820180Y-84005420D01*
X120754140Y-83842860D01*
X120733820Y-83792060D01*
X120708420Y-83731100D01*
X120690640Y-83687920D01*
X120680480Y-83670140D01*
X120662700Y-83662520D01*
X120619520Y-83652360D01*
X120553480Y-83639660D01*
X120477280Y-83624420D01*
X120403620Y-83611720D01*
X120337580Y-83599020D01*
X120289320Y-83588860D01*
X120266460Y-83586320D01*
X120261380Y-83581240D01*
X120256300Y-83571080D01*
X120253760Y-83548220D01*
X120253760Y-83507580D01*
X120251220Y-83444080D01*
X120251220Y-83352640D01*
X120251220Y-83342480D01*
X120253760Y-83256120D01*
X120253760Y-83185000D01*
X120256300Y-83141820D01*
X120258840Y-83124040D01*
X120281700Y-83118960D01*
X120327420Y-83108800D01*
X120393460Y-83096100D01*
X120472200Y-83080860D01*
X120477280Y-83078320D01*
X120556020Y-83063080D01*
X120624600Y-83050380D01*
X120670320Y-83040220D01*
X120688100Y-83032600D01*
X120693180Y-83027520D01*
X120708420Y-82997040D01*
X120731280Y-82948780D01*
X120759220Y-82887820D01*
X120784620Y-82826860D01*
X120804940Y-82770980D01*
X120820180Y-82727800D01*
X120825260Y-82710020D01*
X120812560Y-82689700D01*
X120787160Y-82649060D01*
X120749060Y-82593180D01*
X120700800Y-82524600D01*
X120698260Y-82519520D01*
X120652540Y-82453480D01*
X120616980Y-82397600D01*
X120591580Y-82356960D01*
X120581420Y-82339180D01*
X120583960Y-82336640D01*
X120596660Y-82318860D01*
X120632220Y-82280760D01*
X120680480Y-82229960D01*
X120738900Y-82169000D01*
X120756680Y-82151220D01*
X120822720Y-82087720D01*
X120868440Y-82047080D01*
X120896380Y-82024220D01*
X120909080Y-82019140D01*
X120929400Y-82031840D01*
X120972580Y-82059780D01*
X121028460Y-82097880D01*
X121097040Y-82143600D01*
X121102120Y-82148680D01*
X121168160Y-82194400D01*
X121224040Y-82229960D01*
X121262140Y-82257900D01*
X121279920Y-82268060D01*
X121282460Y-82268060D01*
X121310400Y-82260440D01*
X121358660Y-82242660D01*
X121417080Y-82219800D01*
X121478040Y-82194400D01*
X121533920Y-82171540D01*
X121577100Y-82153760D01*
X121594880Y-82141060D01*
X121597420Y-82141060D01*
X121602500Y-82115660D01*
X121615200Y-82067400D01*
X121630440Y-81998820D01*
X121645680Y-81915000D01*
X121648220Y-81902300D01*
X121663460Y-81823560D01*
X121676160Y-81757520D01*
X121683780Y-81711800D01*
X121688860Y-81694020D01*
X121701560Y-81691480D01*
X121739660Y-81688940D01*
X121798080Y-81686400D01*
X121869200Y-81686400D01*
X121945400Y-81686400D01*
X122019060Y-81688940D01*
X122080020Y-81688940D01*
X122125740Y-81694020D01*
X122146060Y-81696560D01*
X122146060Y-81699100D01*
X122153680Y-81721960D01*
X122163840Y-81772760D01*
X122176540Y-81841340D01*
X122194320Y-81922620D01*
X122196860Y-81937860D01*
X122212100Y-82016600D01*
X122224800Y-82082640D01*
X122234960Y-82128360D01*
X122240040Y-82146140D01*
X122245120Y-82148680D01*
X122278140Y-82163920D01*
X122331480Y-82184240D01*
X122397520Y-82212180D01*
X122549920Y-82273140D01*
X122737880Y-82146140D01*
X122755660Y-82133440D01*
X122821700Y-82087720D01*
X122877580Y-82049620D01*
X122915680Y-82026760D01*
X122933460Y-82016600D01*
X122953780Y-82034380D01*
X122989340Y-82067400D01*
X123040140Y-82118200D01*
X123098560Y-82176620D01*
X123144280Y-82219800D01*
X123195080Y-82273140D01*
X123228100Y-82308700D01*
X123245880Y-82331560D01*
X123250960Y-82344260D01*
X123250960Y-82354420D01*
X123238260Y-82372200D01*
X123210320Y-82415380D01*
X123172220Y-82471260D01*
X123126500Y-82537300D01*
X123088400Y-82593180D01*
X123047760Y-82656680D01*
X123022360Y-82699860D01*
X123012200Y-82722720D01*
X123014740Y-82732880D01*
X123027440Y-82768440D01*
X123050300Y-82824320D01*
X123078240Y-82890360D01*
X123144280Y-83037680D01*
X123240800Y-83058000D01*
X123299220Y-83068160D01*
X123383040Y-83083400D01*
X123461780Y-83098640D01*
X123583700Y-83124040D01*
X123588780Y-83573620D01*
X123568460Y-83581240D01*
X123550680Y-83586320D01*
X123504960Y-83596480D01*
X123441460Y-83609180D01*
X123362720Y-83624420D01*
X123299220Y-83637120D01*
X123233180Y-83649820D01*
X123184920Y-83657440D01*
X123164600Y-83662520D01*
X123159520Y-83670140D01*
X123141740Y-83700620D01*
X123118880Y-83751420D01*
X123093480Y-83812380D01*
X123065540Y-83875880D01*
X123042680Y-83934300D01*
X123027440Y-83980020D01*
X123019820Y-84002880D01*
X123029980Y-84020660D01*
X123055380Y-84058760D01*
X123090940Y-84114640D01*
X123136660Y-84180680D01*
X123179840Y-84244180D01*
X123217940Y-84302600D01*
X123243340Y-84340700D01*
X123256040Y-84361020D01*
X123250960Y-84373720D01*
X123223020Y-84404200D01*
X123174760Y-84455000D01*
X123101100Y-84528660D01*
X123088400Y-84538820D01*
X123029980Y-84597240D01*
X122981720Y-84642960D01*
X122946160Y-84673440D01*
X122930920Y-84683600D01*
D11*
%TO.C,REF\002A\002A*%
G36*
X125306253Y-88798400D02*
X124760941Y-88798400D01*
X124959721Y-88999787D01*
X125289429Y-89362691D01*
X125503849Y-89636815D01*
X125582297Y-89740400D01*
X125676856Y-89860529D01*
X125776950Y-89984202D01*
X125872002Y-90098419D01*
X125951434Y-90190181D01*
X125976532Y-90217760D01*
X126057964Y-90305212D01*
X125988006Y-90396356D01*
X125852564Y-90585604D01*
X125765022Y-90725050D01*
X125710152Y-90807286D01*
X125648876Y-90886612D01*
X125643727Y-90892607D01*
X125574778Y-90975581D01*
X125494253Y-91078137D01*
X125411058Y-91188288D01*
X125334098Y-91294047D01*
X125272281Y-91383425D01*
X125236624Y-91440547D01*
X125201543Y-91493596D01*
X125143014Y-91572062D01*
X125071180Y-91663252D01*
X124996185Y-91754472D01*
X124928172Y-91833032D01*
X124891800Y-91872020D01*
X124867911Y-91898081D01*
X124825637Y-91945406D01*
X124817523Y-91954570D01*
X124755945Y-92024200D01*
X125882400Y-92024200D01*
X125882400Y-91945923D01*
X125899163Y-91869395D01*
X125946393Y-91764149D01*
X126019507Y-91638239D01*
X126113919Y-91499716D01*
X126201458Y-91385533D01*
X126272732Y-91293313D01*
X126338053Y-91202269D01*
X126385223Y-91129535D01*
X126391329Y-91118833D01*
X126431371Y-91052434D01*
X126466658Y-91004284D01*
X126475301Y-90995500D01*
X126509862Y-90956816D01*
X126550085Y-90900250D01*
X126587774Y-90852093D01*
X126618285Y-90830487D01*
X126619586Y-90830400D01*
X126628462Y-90855091D01*
X126635582Y-90926381D01*
X126640736Y-91040092D01*
X126643717Y-91192044D01*
X126644400Y-91326961D01*
X126643716Y-91506263D01*
X126641305Y-91642270D01*
X126636625Y-91742475D01*
X126629137Y-91814369D01*
X126618302Y-91865443D01*
X126603579Y-91903188D01*
X126602756Y-91904811D01*
X126567283Y-91964491D01*
X126535777Y-92002618D01*
X126532906Y-92004761D01*
X126548403Y-92010323D01*
X126607753Y-92015262D01*
X126704014Y-92019312D01*
X126830241Y-92022207D01*
X126979489Y-92023682D01*
X127031206Y-92023811D01*
X127557711Y-92024200D01*
X127528032Y-91954350D01*
X127499859Y-91895758D01*
X127477776Y-91860370D01*
X127473943Y-91831142D01*
X127470343Y-91755781D01*
X127467041Y-91638951D01*
X127464104Y-91485317D01*
X127461601Y-91299546D01*
X127459596Y-91086302D01*
X127458158Y-90850251D01*
X127457353Y-90596059D01*
X127457201Y-90424290D01*
X127457259Y-90120311D01*
X127457530Y-89862912D01*
X127458154Y-89647874D01*
X127459274Y-89470978D01*
X127461031Y-89328004D01*
X127463567Y-89214733D01*
X127467024Y-89126945D01*
X127471543Y-89060421D01*
X127477267Y-89010941D01*
X127484338Y-88974286D01*
X127492896Y-88946237D01*
X127503084Y-88922574D01*
X127508001Y-88912699D01*
X127538756Y-88850869D01*
X127556810Y-88811660D01*
X127558801Y-88805729D01*
X127534665Y-88803507D01*
X127467312Y-88801556D01*
X127364328Y-88799984D01*
X127233294Y-88798901D01*
X127081795Y-88798415D01*
X127048083Y-88798400D01*
X126874940Y-88798664D01*
X126746371Y-88799831D01*
X126656154Y-88802464D01*
X126598063Y-88807123D01*
X126565876Y-88814372D01*
X126553368Y-88824772D01*
X126554314Y-88838885D01*
X126555836Y-88842850D01*
X126589195Y-88931673D01*
X126613261Y-89020181D01*
X126629420Y-89119141D01*
X126639058Y-89239321D01*
X126643560Y-89391488D01*
X126644400Y-89531088D01*
X126644401Y-89950904D01*
X126568201Y-89877900D01*
X126520587Y-89827557D01*
X126494006Y-89790278D01*
X126492000Y-89783483D01*
X126476863Y-89757550D01*
X126437372Y-89704128D01*
X126382412Y-89634145D01*
X126320868Y-89558529D01*
X126261623Y-89488209D01*
X126213561Y-89434114D01*
X126186761Y-89408000D01*
X126164439Y-89380734D01*
X126126064Y-89324630D01*
X126098198Y-89281000D01*
X126039995Y-89193298D01*
X125977049Y-89106698D01*
X125954701Y-89078362D01*
X125909987Y-89011736D01*
X125884592Y-88950643D01*
X125882400Y-88934390D01*
X125881878Y-88890677D01*
X125876209Y-88857502D01*
X125859238Y-88833412D01*
X125824811Y-88816955D01*
X125766774Y-88806677D01*
X125678972Y-88801127D01*
X125555250Y-88798851D01*
X125389455Y-88798396D01*
X125306253Y-88798400D01*
X125306253Y-88798400D01*
G37*
X125306253Y-88798400D02*
X124760941Y-88798400D01*
X124959721Y-88999787D01*
X125289429Y-89362691D01*
X125503849Y-89636815D01*
X125582297Y-89740400D01*
X125676856Y-89860529D01*
X125776950Y-89984202D01*
X125872002Y-90098419D01*
X125951434Y-90190181D01*
X125976532Y-90217760D01*
X126057964Y-90305212D01*
X125988006Y-90396356D01*
X125852564Y-90585604D01*
X125765022Y-90725050D01*
X125710152Y-90807286D01*
X125648876Y-90886612D01*
X125643727Y-90892607D01*
X125574778Y-90975581D01*
X125494253Y-91078137D01*
X125411058Y-91188288D01*
X125334098Y-91294047D01*
X125272281Y-91383425D01*
X125236624Y-91440547D01*
X125201543Y-91493596D01*
X125143014Y-91572062D01*
X125071180Y-91663252D01*
X124996185Y-91754472D01*
X124928172Y-91833032D01*
X124891800Y-91872020D01*
X124867911Y-91898081D01*
X124825637Y-91945406D01*
X124817523Y-91954570D01*
X124755945Y-92024200D01*
X125882400Y-92024200D01*
X125882400Y-91945923D01*
X125899163Y-91869395D01*
X125946393Y-91764149D01*
X126019507Y-91638239D01*
X126113919Y-91499716D01*
X126201458Y-91385533D01*
X126272732Y-91293313D01*
X126338053Y-91202269D01*
X126385223Y-91129535D01*
X126391329Y-91118833D01*
X126431371Y-91052434D01*
X126466658Y-91004284D01*
X126475301Y-90995500D01*
X126509862Y-90956816D01*
X126550085Y-90900250D01*
X126587774Y-90852093D01*
X126618285Y-90830487D01*
X126619586Y-90830400D01*
X126628462Y-90855091D01*
X126635582Y-90926381D01*
X126640736Y-91040092D01*
X126643717Y-91192044D01*
X126644400Y-91326961D01*
X126643716Y-91506263D01*
X126641305Y-91642270D01*
X126636625Y-91742475D01*
X126629137Y-91814369D01*
X126618302Y-91865443D01*
X126603579Y-91903188D01*
X126602756Y-91904811D01*
X126567283Y-91964491D01*
X126535777Y-92002618D01*
X126532906Y-92004761D01*
X126548403Y-92010323D01*
X126607753Y-92015262D01*
X126704014Y-92019312D01*
X126830241Y-92022207D01*
X126979489Y-92023682D01*
X127031206Y-92023811D01*
X127557711Y-92024200D01*
X127528032Y-91954350D01*
X127499859Y-91895758D01*
X127477776Y-91860370D01*
X127473943Y-91831142D01*
X127470343Y-91755781D01*
X127467041Y-91638951D01*
X127464104Y-91485317D01*
X127461601Y-91299546D01*
X127459596Y-91086302D01*
X127458158Y-90850251D01*
X127457353Y-90596059D01*
X127457201Y-90424290D01*
X127457259Y-90120311D01*
X127457530Y-89862912D01*
X127458154Y-89647874D01*
X127459274Y-89470978D01*
X127461031Y-89328004D01*
X127463567Y-89214733D01*
X127467024Y-89126945D01*
X127471543Y-89060421D01*
X127477267Y-89010941D01*
X127484338Y-88974286D01*
X127492896Y-88946237D01*
X127503084Y-88922574D01*
X127508001Y-88912699D01*
X127538756Y-88850869D01*
X127556810Y-88811660D01*
X127558801Y-88805729D01*
X127534665Y-88803507D01*
X127467312Y-88801556D01*
X127364328Y-88799984D01*
X127233294Y-88798901D01*
X127081795Y-88798415D01*
X127048083Y-88798400D01*
X126874940Y-88798664D01*
X126746371Y-88799831D01*
X126656154Y-88802464D01*
X126598063Y-88807123D01*
X126565876Y-88814372D01*
X126553368Y-88824772D01*
X126554314Y-88838885D01*
X126555836Y-88842850D01*
X126589195Y-88931673D01*
X126613261Y-89020181D01*
X126629420Y-89119141D01*
X126639058Y-89239321D01*
X126643560Y-89391488D01*
X126644400Y-89531088D01*
X126644401Y-89950904D01*
X126568201Y-89877900D01*
X126520587Y-89827557D01*
X126494006Y-89790278D01*
X126492000Y-89783483D01*
X126476863Y-89757550D01*
X126437372Y-89704128D01*
X126382412Y-89634145D01*
X126320868Y-89558529D01*
X126261623Y-89488209D01*
X126213561Y-89434114D01*
X126186761Y-89408000D01*
X126164439Y-89380734D01*
X126126064Y-89324630D01*
X126098198Y-89281000D01*
X126039995Y-89193298D01*
X125977049Y-89106698D01*
X125954701Y-89078362D01*
X125909987Y-89011736D01*
X125884592Y-88950643D01*
X125882400Y-88934390D01*
X125881878Y-88890677D01*
X125876209Y-88857502D01*
X125859238Y-88833412D01*
X125824811Y-88816955D01*
X125766774Y-88806677D01*
X125678972Y-88801127D01*
X125555250Y-88798851D01*
X125389455Y-88798396D01*
X125306253Y-88798400D01*
G36*
X123723400Y-90762045D02*
X123723179Y-91033528D01*
X123722417Y-91258618D01*
X123720974Y-91441721D01*
X123718706Y-91587240D01*
X123715469Y-91699583D01*
X123711122Y-91783155D01*
X123705520Y-91842359D01*
X123698522Y-91881603D01*
X123689984Y-91905292D01*
X123686108Y-91911395D01*
X123659822Y-91948943D01*
X123649109Y-91977085D01*
X123659290Y-91997174D01*
X123695688Y-92010563D01*
X123763624Y-92018605D01*
X123868422Y-92022653D01*
X124015402Y-92024060D01*
X124129800Y-92024200D01*
X124280082Y-92023515D01*
X124411273Y-92021608D01*
X124515573Y-92018702D01*
X124585181Y-92015017D01*
X124612295Y-92010776D01*
X124612400Y-92010488D01*
X124601845Y-91981454D01*
X124575274Y-91924509D01*
X124561600Y-91897200D01*
X124548734Y-91869760D01*
X124538241Y-91839394D01*
X124529880Y-91800920D01*
X124523409Y-91749155D01*
X124518589Y-91678918D01*
X124515178Y-91585027D01*
X124512935Y-91462301D01*
X124511619Y-91305559D01*
X124510990Y-91109617D01*
X124510805Y-90869296D01*
X124510800Y-90804750D01*
X124511053Y-90547269D01*
X124511929Y-90335749D01*
X124513604Y-90165351D01*
X124516252Y-90031238D01*
X124520050Y-89928571D01*
X124525173Y-89852513D01*
X124531797Y-89798226D01*
X124540097Y-89760872D01*
X124549553Y-89736938D01*
X124588305Y-89662000D01*
X123723400Y-89662000D01*
X123723400Y-90762045D01*
X123723400Y-90762045D01*
G37*
X123723400Y-90762045D02*
X123723179Y-91033528D01*
X123722417Y-91258618D01*
X123720974Y-91441721D01*
X123718706Y-91587240D01*
X123715469Y-91699583D01*
X123711122Y-91783155D01*
X123705520Y-91842359D01*
X123698522Y-91881603D01*
X123689984Y-91905292D01*
X123686108Y-91911395D01*
X123659822Y-91948943D01*
X123649109Y-91977085D01*
X123659290Y-91997174D01*
X123695688Y-92010563D01*
X123763624Y-92018605D01*
X123868422Y-92022653D01*
X124015402Y-92024060D01*
X124129800Y-92024200D01*
X124280082Y-92023515D01*
X124411273Y-92021608D01*
X124515573Y-92018702D01*
X124585181Y-92015017D01*
X124612295Y-92010776D01*
X124612400Y-92010488D01*
X124601845Y-91981454D01*
X124575274Y-91924509D01*
X124561600Y-91897200D01*
X124548734Y-91869760D01*
X124538241Y-91839394D01*
X124529880Y-91800920D01*
X124523409Y-91749155D01*
X124518589Y-91678918D01*
X124515178Y-91585027D01*
X124512935Y-91462301D01*
X124511619Y-91305559D01*
X124510990Y-91109617D01*
X124510805Y-90869296D01*
X124510800Y-90804750D01*
X124511053Y-90547269D01*
X124511929Y-90335749D01*
X124513604Y-90165351D01*
X124516252Y-90031238D01*
X124520050Y-89928571D01*
X124525173Y-89852513D01*
X124531797Y-89798226D01*
X124540097Y-89760872D01*
X124549553Y-89736938D01*
X124588305Y-89662000D01*
X123723400Y-89662000D01*
X123723400Y-90762045D01*
G36*
X123964059Y-87895960D02*
X123846455Y-87962395D01*
X123752977Y-88065045D01*
X123709188Y-88151124D01*
X123678578Y-88289614D01*
X123687679Y-88427591D01*
X123735027Y-88549084D01*
X123747412Y-88567850D01*
X123837851Y-88655408D01*
X123956729Y-88715553D01*
X124089667Y-88745418D01*
X124222287Y-88742134D01*
X124340210Y-88702832D01*
X124360994Y-88690244D01*
X124443263Y-88611394D01*
X124511086Y-88502770D01*
X124553253Y-88385295D01*
X124561600Y-88315799D01*
X124542326Y-88206575D01*
X124491810Y-88092110D01*
X124421018Y-87993158D01*
X124365358Y-87944295D01*
X124233139Y-87883876D01*
X124096163Y-87868776D01*
X123964059Y-87895960D01*
X123964059Y-87895960D01*
G37*
X123964059Y-87895960D02*
X123846455Y-87962395D01*
X123752977Y-88065045D01*
X123709188Y-88151124D01*
X123678578Y-88289614D01*
X123687679Y-88427591D01*
X123735027Y-88549084D01*
X123747412Y-88567850D01*
X123837851Y-88655408D01*
X123956729Y-88715553D01*
X124089667Y-88745418D01*
X124222287Y-88742134D01*
X124340210Y-88702832D01*
X124360994Y-88690244D01*
X124443263Y-88611394D01*
X124511086Y-88502770D01*
X124553253Y-88385295D01*
X124561600Y-88315799D01*
X124542326Y-88206575D01*
X124491810Y-88092110D01*
X124421018Y-87993158D01*
X124365358Y-87944295D01*
X124233139Y-87883876D01*
X124096163Y-87868776D01*
X123964059Y-87895960D01*
%TD*%
D12*
%TO.C,C3*%
X106695390Y-116210270D03*
D13*
X104155390Y-116210270D03*
%TD*%
D12*
%TO.C,C6*%
X157495390Y-118750270D03*
D13*
X157495390Y-121290270D03*
%TD*%
D12*
%TO.C,C8*%
X137175390Y-96525270D03*
D13*
X137175390Y-93985270D03*
%TD*%
D14*
%TO.C,R2*%
X180355390Y-113035270D03*
X182895390Y-113035270D03*
D15*
X185435390Y-113035270D03*
%TD*%
D16*
%TO.C,Q1*%
X175745140Y-109796770D03*
X177815390Y-107955270D03*
D17*
X175745140Y-106113770D03*
%TD*%
D18*
%TO.C,U1*%
X186705390Y-96520000D03*
X186705390Y-99060000D03*
X186705390Y-101600000D03*
X186705390Y-104140000D03*
X179085390Y-104140000D03*
X179085390Y-101600000D03*
X179085390Y-99060000D03*
D19*
X179085390Y-96520000D03*
%TD*%
D18*
%TO.C,U3*%
X171465390Y-101605270D03*
X171465390Y-104145270D03*
X171465390Y-106685270D03*
X171465390Y-109225270D03*
X163845390Y-109225270D03*
X163845390Y-106685270D03*
X163845390Y-104145270D03*
D19*
X163845390Y-101605270D03*
%TD*%
D18*
%TO.C,U4*%
X104155390Y-91445270D03*
X101615390Y-91445270D03*
X99075390Y-91445270D03*
X96535390Y-91445270D03*
X96535390Y-83825270D03*
X99075390Y-83825270D03*
X101615390Y-83825270D03*
D19*
X104155390Y-83825270D03*
%TD*%
D18*
%TO.C,U5*%
X104155390Y-104145270D03*
X101615390Y-104145270D03*
X99075390Y-104145270D03*
X96535390Y-104145270D03*
X96535390Y-96525270D03*
X99075390Y-96525270D03*
X101615390Y-96525270D03*
D19*
X104155390Y-96525270D03*
%TD*%
D20*
%TO.C,C1*%
X184165390Y-93985270D03*
D21*
X186705390Y-93985270D03*
%TD*%
D20*
%TO.C,C2*%
X182895390Y-107955270D03*
D21*
X185435390Y-107955270D03*
%TD*%
D20*
%TO.C,C4*%
X106695390Y-120020270D03*
D21*
X104155390Y-120020270D03*
%TD*%
D20*
%TO.C,C5*%
X153685390Y-118750270D03*
D21*
X153685390Y-121290270D03*
%TD*%
D20*
%TO.C,C7*%
X140985390Y-96525270D03*
D21*
X140985390Y-93985270D03*
%TD*%
D20*
%TO.C,C9*%
X166385390Y-99065270D03*
D21*
X163845390Y-99065270D03*
%TD*%
D20*
%TO.C,C10*%
X106695390Y-86365270D03*
D21*
X106695390Y-83825270D03*
%TD*%
D20*
%TO.C,C11*%
X106695390Y-99065270D03*
D21*
X106695390Y-96525270D03*
%TD*%
D22*
%TO.C,J1*%
X92775390Y-117220270D03*
X95575390Y-114420270D03*
D23*
X99075390Y-120020270D03*
%TD*%
D22*
%TO.C,J2*%
X142305390Y-117220270D03*
X145105390Y-114420270D03*
D23*
X148605390Y-120020270D03*
%TD*%
D24*
%TO.C,J3*%
X149875390Y-88910270D03*
X149875390Y-100340270D03*
D25*
X158765390Y-99065270D03*
X156225390Y-97795270D03*
X158765390Y-96525270D03*
X156225390Y-95255270D03*
X158765390Y-93985270D03*
X156225390Y-92715270D03*
X158765390Y-91445270D03*
D26*
X156225390Y-90175270D03*
%TD*%
D24*
%TO.C,J4*%
X82565390Y-88910270D03*
X82565390Y-100340270D03*
D25*
X91455390Y-99065270D03*
X88915390Y-97795270D03*
X91455390Y-96525270D03*
X88915390Y-95255270D03*
X91455390Y-93985270D03*
X88915390Y-92715270D03*
X91455390Y-91445270D03*
D26*
X88915390Y-90175270D03*
%TD*%
D27*
%TO.C,MH2*%
X187960000Y-121920000D03*
%TD*%
%TO.C,MH3*%
X187960000Y-81280000D03*
%TD*%
%TO.C,MH4*%
X81280000Y-81280000D03*
%TD*%
D28*
%TO.C,MH1*%
X84836000Y-118364000D03*
X84836000Y-121920000D03*
X84836000Y-125476000D03*
X81280000Y-125476000D03*
X77724000Y-125476000D03*
X77724000Y-121920000D03*
X77724000Y-118364000D03*
X81280000Y-118364000D03*
D29*
X81280000Y-121920000D03*
%TD*%
D30*
%TO.C,R1*%
X189245390Y-104145270D03*
D31*
X189245390Y-114305270D03*
%TD*%
D30*
%TO.C,R3*%
X166385390Y-113035270D03*
D31*
X176545390Y-113035270D03*
%TD*%
D32*
%TO.C,R4*%
X104155390Y-106685270D03*
D33*
X101615390Y-106685270D03*
%TD*%
D34*
%TO.C,U2*%
X129765390Y-121925270D03*
D35*
X129765390Y-119385270D03*
X129765390Y-116845270D03*
X129765390Y-114305270D03*
X129765390Y-111765270D03*
X129765390Y-109225270D03*
X129765390Y-106685270D03*
X129765390Y-104145270D03*
X129765390Y-101605270D03*
X129765390Y-99065270D03*
X129765390Y-96525270D03*
X129765390Y-93985270D03*
X114105390Y-93985270D03*
X114105390Y-96525270D03*
X114105390Y-99065270D03*
X114105390Y-101605270D03*
X114105390Y-104145270D03*
X114105390Y-106685270D03*
X114105390Y-109225270D03*
X114105390Y-111765270D03*
X114105390Y-114305270D03*
X114105390Y-116845270D03*
X114105390Y-119385270D03*
X114105390Y-121925270D03*
X117446390Y-110622270D03*
X117446390Y-113162270D03*
X117446390Y-100157470D03*
X117446390Y-102697470D03*
%TD*%
M02*
