%TF.GenerationSoftware,KiCad,Pcbnew,(5.0.0-rc2-100-g6d77e594b)*%
%TF.CreationDate,2018-06-08T00:04:51-04:00*%
%TF.ProjectId,Logic&Oscillator,4C6F676963264F7363696C6C61746F72,1.0.2*%
%TF.SameCoordinates,Original*%
%TF.FileFunction,Legend,Top*%
%TF.FilePolarity,Positive*%
%FSLAX46Y46*%
G04 Gerber Fmt 4.6, Leading zero omitted, Abs format (unit mm)*
G04 Created by KiCad (PCBNEW (5.0.0-rc2-100-g6d77e594b)) date 06/08/18 00:04:51*
%MOMM*%
%LPD*%
G01*
G04 APERTURE LIST*
%ADD10C,0.127000*%
%ADD11C,0.381000*%
%ADD12C,0.200000*%
%ADD13C,0.317500*%
%ADD14C,0.203200*%
%ADD15C,0.150000*%
%ADD16C,0.076200*%
G04 APERTURE END LIST*
D10*
X166243000Y-117602000D02*
X166605857Y-117602000D01*
X166170428Y-117819714D02*
X166424428Y-117057714D01*
X166678428Y-117819714D01*
X167259000Y-117819714D02*
X167259000Y-117057714D01*
X167259000Y-117783428D02*
X167186428Y-117819714D01*
X167041285Y-117819714D01*
X166968714Y-117783428D01*
X166932428Y-117747142D01*
X166896142Y-117674571D01*
X166896142Y-117456857D01*
X166932428Y-117384285D01*
X166968714Y-117348000D01*
X167041285Y-117311714D01*
X167186428Y-117311714D01*
X167259000Y-117348000D01*
X167621857Y-117311714D02*
X167621857Y-117964857D01*
X167585571Y-118037428D01*
X167513000Y-118073714D01*
X167476714Y-118073714D01*
X167621857Y-117057714D02*
X167585571Y-117094000D01*
X167621857Y-117130285D01*
X167658142Y-117094000D01*
X167621857Y-117057714D01*
X167621857Y-117130285D01*
X168311285Y-117311714D02*
X168311285Y-117819714D01*
X167984714Y-117311714D02*
X167984714Y-117710857D01*
X168021000Y-117783428D01*
X168093571Y-117819714D01*
X168202428Y-117819714D01*
X168275000Y-117783428D01*
X168311285Y-117747142D01*
X168637857Y-117783428D02*
X168710428Y-117819714D01*
X168855571Y-117819714D01*
X168928142Y-117783428D01*
X168964428Y-117710857D01*
X168964428Y-117674571D01*
X168928142Y-117602000D01*
X168855571Y-117565714D01*
X168746714Y-117565714D01*
X168674142Y-117529428D01*
X168637857Y-117456857D01*
X168637857Y-117420571D01*
X168674142Y-117348000D01*
X168746714Y-117311714D01*
X168855571Y-117311714D01*
X168928142Y-117348000D01*
X169182142Y-117311714D02*
X169472428Y-117311714D01*
X169291000Y-117057714D02*
X169291000Y-117710857D01*
X169327285Y-117783428D01*
X169399857Y-117819714D01*
X169472428Y-117819714D01*
X170742428Y-117819714D02*
X170488428Y-117456857D01*
X170307000Y-117819714D02*
X170307000Y-117057714D01*
X170597285Y-117057714D01*
X170669857Y-117094000D01*
X170706142Y-117130285D01*
X170742428Y-117202857D01*
X170742428Y-117311714D01*
X170706142Y-117384285D01*
X170669857Y-117420571D01*
X170597285Y-117456857D01*
X170307000Y-117456857D01*
X171032714Y-117130285D02*
X171069000Y-117094000D01*
X171141571Y-117057714D01*
X171323000Y-117057714D01*
X171395571Y-117094000D01*
X171431857Y-117130285D01*
X171468142Y-117202857D01*
X171468142Y-117275428D01*
X171431857Y-117384285D01*
X170996428Y-117819714D01*
X171468142Y-117819714D01*
X172266428Y-117311714D02*
X172556714Y-117311714D01*
X172375285Y-117819714D02*
X172375285Y-117166571D01*
X172411571Y-117094000D01*
X172484142Y-117057714D01*
X172556714Y-117057714D01*
X172919571Y-117819714D02*
X172847000Y-117783428D01*
X172810714Y-117747142D01*
X172774428Y-117674571D01*
X172774428Y-117456857D01*
X172810714Y-117384285D01*
X172847000Y-117348000D01*
X172919571Y-117311714D01*
X173028428Y-117311714D01*
X173101000Y-117348000D01*
X173137285Y-117384285D01*
X173173571Y-117456857D01*
X173173571Y-117674571D01*
X173137285Y-117747142D01*
X173101000Y-117783428D01*
X173028428Y-117819714D01*
X172919571Y-117819714D01*
X173500142Y-117819714D02*
X173500142Y-117311714D01*
X173500142Y-117456857D02*
X173536428Y-117384285D01*
X173572714Y-117348000D01*
X173645285Y-117311714D01*
X173717857Y-117311714D01*
X174479857Y-117057714D02*
X174951571Y-117057714D01*
X174697571Y-117348000D01*
X174806428Y-117348000D01*
X174879000Y-117384285D01*
X174915285Y-117420571D01*
X174951571Y-117493142D01*
X174951571Y-117674571D01*
X174915285Y-117747142D01*
X174879000Y-117783428D01*
X174806428Y-117819714D01*
X174588714Y-117819714D01*
X174516142Y-117783428D01*
X174479857Y-117747142D01*
X175387000Y-117384285D02*
X175314428Y-117348000D01*
X175278142Y-117311714D01*
X175241857Y-117239142D01*
X175241857Y-117202857D01*
X175278142Y-117130285D01*
X175314428Y-117094000D01*
X175387000Y-117057714D01*
X175532142Y-117057714D01*
X175604714Y-117094000D01*
X175641000Y-117130285D01*
X175677285Y-117202857D01*
X175677285Y-117239142D01*
X175641000Y-117311714D01*
X175604714Y-117348000D01*
X175532142Y-117384285D01*
X175387000Y-117384285D01*
X175314428Y-117420571D01*
X175278142Y-117456857D01*
X175241857Y-117529428D01*
X175241857Y-117674571D01*
X175278142Y-117747142D01*
X175314428Y-117783428D01*
X175387000Y-117819714D01*
X175532142Y-117819714D01*
X175604714Y-117783428D01*
X175641000Y-117747142D01*
X175677285Y-117674571D01*
X175677285Y-117529428D01*
X175641000Y-117456857D01*
X175604714Y-117420571D01*
X175532142Y-117384285D01*
X176003857Y-117819714D02*
X176003857Y-117057714D01*
X176076428Y-117529428D02*
X176294142Y-117819714D01*
X176294142Y-117311714D02*
X176003857Y-117602000D01*
X176620714Y-117819714D02*
X176620714Y-117057714D01*
X176620714Y-117420571D02*
X177056142Y-117420571D01*
X177056142Y-117819714D02*
X177056142Y-117057714D01*
X177346428Y-117311714D02*
X177745571Y-117311714D01*
X177346428Y-117819714D01*
X177745571Y-117819714D01*
X179088142Y-117456857D02*
X179051857Y-117420571D01*
X178979285Y-117384285D01*
X178906714Y-117384285D01*
X178834142Y-117420571D01*
X178797857Y-117456857D01*
X178761571Y-117529428D01*
X178761571Y-117602000D01*
X178797857Y-117674571D01*
X178834142Y-117710857D01*
X178906714Y-117747142D01*
X178979285Y-117747142D01*
X179051857Y-117710857D01*
X179088142Y-117674571D01*
X179088142Y-117384285D02*
X179088142Y-117674571D01*
X179124428Y-117710857D01*
X179160714Y-117710857D01*
X179233285Y-117674571D01*
X179269571Y-117602000D01*
X179269571Y-117420571D01*
X179197000Y-117311714D01*
X179088142Y-117239142D01*
X178943000Y-117202857D01*
X178797857Y-117239142D01*
X178689000Y-117311714D01*
X178616428Y-117420571D01*
X178580142Y-117565714D01*
X178616428Y-117710857D01*
X178689000Y-117819714D01*
X178797857Y-117892285D01*
X178943000Y-117928571D01*
X179088142Y-117892285D01*
X179197000Y-117819714D01*
X180612142Y-117819714D02*
X180358142Y-117456857D01*
X180176714Y-117819714D02*
X180176714Y-117057714D01*
X180467000Y-117057714D01*
X180539571Y-117094000D01*
X180575857Y-117130285D01*
X180612142Y-117202857D01*
X180612142Y-117311714D01*
X180575857Y-117384285D01*
X180539571Y-117420571D01*
X180467000Y-117456857D01*
X180176714Y-117456857D01*
X180866142Y-117057714D02*
X181337857Y-117057714D01*
X181083857Y-117348000D01*
X181192714Y-117348000D01*
X181265285Y-117384285D01*
X181301571Y-117420571D01*
X181337857Y-117493142D01*
X181337857Y-117674571D01*
X181301571Y-117747142D01*
X181265285Y-117783428D01*
X181192714Y-117819714D01*
X180975000Y-117819714D01*
X180902428Y-117783428D01*
X180866142Y-117747142D01*
X181664428Y-117529428D02*
X182245000Y-117529428D01*
X182571571Y-117130285D02*
X182607857Y-117094000D01*
X182680428Y-117057714D01*
X182861857Y-117057714D01*
X182934428Y-117094000D01*
X182970714Y-117130285D01*
X183007000Y-117202857D01*
X183007000Y-117275428D01*
X182970714Y-117384285D01*
X182535285Y-117819714D01*
X183007000Y-117819714D01*
X165662428Y-119380000D02*
X165626142Y-119343714D01*
X165553571Y-119234857D01*
X165517285Y-119162285D01*
X165481000Y-119053428D01*
X165444714Y-118872000D01*
X165444714Y-118726857D01*
X165481000Y-118545428D01*
X165517285Y-118436571D01*
X165553571Y-118364000D01*
X165626142Y-118255142D01*
X165662428Y-118218857D01*
X166388142Y-119089714D02*
X166134142Y-118726857D01*
X165952714Y-119089714D02*
X165952714Y-118327714D01*
X166243000Y-118327714D01*
X166315571Y-118364000D01*
X166351857Y-118400285D01*
X166388142Y-118472857D01*
X166388142Y-118581714D01*
X166351857Y-118654285D01*
X166315571Y-118690571D01*
X166243000Y-118726857D01*
X165952714Y-118726857D01*
X166678428Y-118400285D02*
X166714714Y-118364000D01*
X166787285Y-118327714D01*
X166968714Y-118327714D01*
X167041285Y-118364000D01*
X167077571Y-118400285D01*
X167113857Y-118472857D01*
X167113857Y-118545428D01*
X167077571Y-118654285D01*
X166642142Y-119089714D01*
X167113857Y-119089714D01*
X167440428Y-118799428D02*
X168021000Y-118799428D01*
X168783000Y-119089714D02*
X168347571Y-119089714D01*
X168565285Y-119089714D02*
X168565285Y-118327714D01*
X168492714Y-118436571D01*
X168420142Y-118509142D01*
X168347571Y-118545428D01*
X169581285Y-118581714D02*
X169871571Y-118581714D01*
X169690142Y-118327714D02*
X169690142Y-118980857D01*
X169726428Y-119053428D01*
X169799000Y-119089714D01*
X169871571Y-119089714D01*
X170234428Y-119089714D02*
X170161857Y-119053428D01*
X170125571Y-119017142D01*
X170089285Y-118944571D01*
X170089285Y-118726857D01*
X170125571Y-118654285D01*
X170161857Y-118618000D01*
X170234428Y-118581714D01*
X170343285Y-118581714D01*
X170415857Y-118618000D01*
X170452142Y-118654285D01*
X170488428Y-118726857D01*
X170488428Y-118944571D01*
X170452142Y-119017142D01*
X170415857Y-119053428D01*
X170343285Y-119089714D01*
X170234428Y-119089714D01*
X171831000Y-119089714D02*
X171577000Y-118726857D01*
X171395571Y-119089714D02*
X171395571Y-118327714D01*
X171685857Y-118327714D01*
X171758428Y-118364000D01*
X171794714Y-118400285D01*
X171831000Y-118472857D01*
X171831000Y-118581714D01*
X171794714Y-118654285D01*
X171758428Y-118690571D01*
X171685857Y-118726857D01*
X171395571Y-118726857D01*
X172121285Y-118400285D02*
X172157571Y-118364000D01*
X172230142Y-118327714D01*
X172411571Y-118327714D01*
X172484142Y-118364000D01*
X172520428Y-118400285D01*
X172556714Y-118472857D01*
X172556714Y-118545428D01*
X172520428Y-118654285D01*
X172085000Y-119089714D01*
X172556714Y-119089714D01*
X172883285Y-118799428D02*
X173463857Y-118799428D01*
X173790428Y-118400285D02*
X173826714Y-118364000D01*
X173899285Y-118327714D01*
X174080714Y-118327714D01*
X174153285Y-118364000D01*
X174189571Y-118400285D01*
X174225857Y-118472857D01*
X174225857Y-118545428D01*
X174189571Y-118654285D01*
X173754142Y-119089714D01*
X174225857Y-119089714D01*
X175459571Y-119089714D02*
X175459571Y-118690571D01*
X175423285Y-118618000D01*
X175350714Y-118581714D01*
X175205571Y-118581714D01*
X175133000Y-118618000D01*
X175459571Y-119053428D02*
X175387000Y-119089714D01*
X175205571Y-119089714D01*
X175133000Y-119053428D01*
X175096714Y-118980857D01*
X175096714Y-118908285D01*
X175133000Y-118835714D01*
X175205571Y-118799428D01*
X175387000Y-118799428D01*
X175459571Y-118763142D01*
X175822428Y-119089714D02*
X175822428Y-118327714D01*
X175822428Y-118618000D02*
X175895000Y-118581714D01*
X176040142Y-118581714D01*
X176112714Y-118618000D01*
X176149000Y-118654285D01*
X176185285Y-118726857D01*
X176185285Y-118944571D01*
X176149000Y-119017142D01*
X176112714Y-119053428D01*
X176040142Y-119089714D01*
X175895000Y-119089714D01*
X175822428Y-119053428D01*
X176620714Y-119089714D02*
X176548142Y-119053428D01*
X176511857Y-119017142D01*
X176475571Y-118944571D01*
X176475571Y-118726857D01*
X176511857Y-118654285D01*
X176548142Y-118618000D01*
X176620714Y-118581714D01*
X176729571Y-118581714D01*
X176802142Y-118618000D01*
X176838428Y-118654285D01*
X176874714Y-118726857D01*
X176874714Y-118944571D01*
X176838428Y-119017142D01*
X176802142Y-119053428D01*
X176729571Y-119089714D01*
X176620714Y-119089714D01*
X177527857Y-118581714D02*
X177527857Y-119089714D01*
X177201285Y-118581714D02*
X177201285Y-118980857D01*
X177237571Y-119053428D01*
X177310142Y-119089714D01*
X177419000Y-119089714D01*
X177491571Y-119053428D01*
X177527857Y-119017142D01*
X177781857Y-118581714D02*
X178072142Y-118581714D01*
X177890714Y-118327714D02*
X177890714Y-118980857D01*
X177927000Y-119053428D01*
X177999571Y-119089714D01*
X178072142Y-119089714D01*
X178834142Y-118327714D02*
X179305857Y-118327714D01*
X179051857Y-118618000D01*
X179160714Y-118618000D01*
X179233285Y-118654285D01*
X179269571Y-118690571D01*
X179305857Y-118763142D01*
X179305857Y-118944571D01*
X179269571Y-119017142D01*
X179233285Y-119053428D01*
X179160714Y-119089714D01*
X178943000Y-119089714D01*
X178870428Y-119053428D01*
X178834142Y-119017142D01*
X179632428Y-119017142D02*
X179668714Y-119053428D01*
X179632428Y-119089714D01*
X179596142Y-119053428D01*
X179632428Y-119017142D01*
X179632428Y-119089714D01*
X179922714Y-118327714D02*
X180430714Y-118327714D01*
X180104142Y-119089714D01*
X180757285Y-119089714D02*
X180902428Y-119089714D01*
X180975000Y-119053428D01*
X181011285Y-119017142D01*
X181083857Y-118908285D01*
X181120142Y-118763142D01*
X181120142Y-118472857D01*
X181083857Y-118400285D01*
X181047571Y-118364000D01*
X180975000Y-118327714D01*
X180829857Y-118327714D01*
X180757285Y-118364000D01*
X180721000Y-118400285D01*
X180684714Y-118472857D01*
X180684714Y-118654285D01*
X180721000Y-118726857D01*
X180757285Y-118763142D01*
X180829857Y-118799428D01*
X180975000Y-118799428D01*
X181047571Y-118763142D01*
X181083857Y-118726857D01*
X181120142Y-118654285D01*
X181374142Y-118327714D02*
X181882142Y-118327714D01*
X181555571Y-119089714D01*
X182172428Y-119089714D02*
X182172428Y-118327714D01*
X182245000Y-118799428D02*
X182462714Y-119089714D01*
X182462714Y-118581714D02*
X182172428Y-118872000D01*
X182753000Y-119089714D02*
X182934428Y-119089714D01*
X182934428Y-118944571D01*
X182861857Y-118908285D01*
X182789285Y-118835714D01*
X182753000Y-118726857D01*
X182753000Y-118545428D01*
X182789285Y-118436571D01*
X182861857Y-118364000D01*
X182970714Y-118327714D01*
X183115857Y-118327714D01*
X183224714Y-118364000D01*
X183297285Y-118436571D01*
X183333571Y-118545428D01*
X183333571Y-118726857D01*
X183297285Y-118835714D01*
X183224714Y-118908285D01*
X183152142Y-118944571D01*
X183152142Y-119089714D01*
X183333571Y-119089714D01*
X183587571Y-119380000D02*
X183623857Y-119343714D01*
X183696428Y-119234857D01*
X183732714Y-119162285D01*
X183768999Y-119053428D01*
X183805285Y-118872000D01*
X183805285Y-118726857D01*
X183768999Y-118545428D01*
X183732714Y-118436571D01*
X183696428Y-118364000D01*
X183623857Y-118255142D01*
X183587571Y-118218857D01*
D11*
X138430000Y-108371821D02*
X139881428Y-108371821D01*
X139155714Y-109097535D02*
X139155714Y-107646107D01*
X141695714Y-107192535D02*
X140788571Y-107192535D01*
X140697857Y-108099678D01*
X140788571Y-108008964D01*
X140970000Y-107918250D01*
X141423571Y-107918250D01*
X141605000Y-108008964D01*
X141695714Y-108099678D01*
X141786428Y-108281107D01*
X141786428Y-108734678D01*
X141695714Y-108916107D01*
X141605000Y-109006821D01*
X141423571Y-109097535D01*
X140970000Y-109097535D01*
X140788571Y-109006821D01*
X140697857Y-108916107D01*
X142330714Y-107192535D02*
X142965714Y-109097535D01*
X143600714Y-107192535D01*
X145687142Y-109097535D02*
X145687142Y-107192535D01*
X146140714Y-107192535D01*
X146412857Y-107283250D01*
X146594285Y-107464678D01*
X146685000Y-107646107D01*
X146775714Y-108008964D01*
X146775714Y-108281107D01*
X146685000Y-108643964D01*
X146594285Y-108825392D01*
X146412857Y-109006821D01*
X146140714Y-109097535D01*
X145687142Y-109097535D01*
X148680714Y-108916107D02*
X148590000Y-109006821D01*
X148317857Y-109097535D01*
X148136428Y-109097535D01*
X147864285Y-109006821D01*
X147682857Y-108825392D01*
X147592142Y-108643964D01*
X147501428Y-108281107D01*
X147501428Y-108008964D01*
X147592142Y-107646107D01*
X147682857Y-107464678D01*
X147864285Y-107283250D01*
X148136428Y-107192535D01*
X148317857Y-107192535D01*
X148590000Y-107283250D01*
X148680714Y-107373964D01*
X134347857Y-112336035D02*
X134347857Y-110431035D01*
X134982857Y-111791750D01*
X135617857Y-110431035D01*
X135617857Y-112336035D01*
X137341428Y-112336035D02*
X137341428Y-111338178D01*
X137250714Y-111156750D01*
X137069285Y-111066035D01*
X136706428Y-111066035D01*
X136525000Y-111156750D01*
X137341428Y-112245321D02*
X137160000Y-112336035D01*
X136706428Y-112336035D01*
X136525000Y-112245321D01*
X136434285Y-112063892D01*
X136434285Y-111882464D01*
X136525000Y-111701035D01*
X136706428Y-111610321D01*
X137160000Y-111610321D01*
X137341428Y-111519607D01*
X138157857Y-112245321D02*
X138339285Y-112336035D01*
X138702142Y-112336035D01*
X138883571Y-112245321D01*
X138974285Y-112063892D01*
X138974285Y-111973178D01*
X138883571Y-111791750D01*
X138702142Y-111701035D01*
X138430000Y-111701035D01*
X138248571Y-111610321D01*
X138157857Y-111428892D01*
X138157857Y-111338178D01*
X138248571Y-111156750D01*
X138430000Y-111066035D01*
X138702142Y-111066035D01*
X138883571Y-111156750D01*
X139518571Y-111066035D02*
X140244285Y-111066035D01*
X139790714Y-110431035D02*
X139790714Y-112063892D01*
X139881428Y-112245321D01*
X140062857Y-112336035D01*
X140244285Y-112336035D01*
X141605000Y-112245321D02*
X141423571Y-112336035D01*
X141060714Y-112336035D01*
X140879285Y-112245321D01*
X140788571Y-112063892D01*
X140788571Y-111338178D01*
X140879285Y-111156750D01*
X141060714Y-111066035D01*
X141423571Y-111066035D01*
X141605000Y-111156750D01*
X141695714Y-111338178D01*
X141695714Y-111519607D01*
X140788571Y-111701035D01*
X142512142Y-112336035D02*
X142512142Y-111066035D01*
X142512142Y-111428892D02*
X142602857Y-111247464D01*
X142693571Y-111156750D01*
X142875000Y-111066035D01*
X143056428Y-111066035D01*
X145142857Y-112336035D02*
X145142857Y-110431035D01*
X145868571Y-110431035D01*
X146050000Y-110521750D01*
X146140714Y-110612464D01*
X146231428Y-110793892D01*
X146231428Y-111066035D01*
X146140714Y-111247464D01*
X146050000Y-111338178D01*
X145868571Y-111428892D01*
X145142857Y-111428892D01*
X147320000Y-112336035D02*
X147138571Y-112245321D01*
X147047857Y-112154607D01*
X146957142Y-111973178D01*
X146957142Y-111428892D01*
X147047857Y-111247464D01*
X147138571Y-111156750D01*
X147320000Y-111066035D01*
X147592142Y-111066035D01*
X147773571Y-111156750D01*
X147864285Y-111247464D01*
X147955000Y-111428892D01*
X147955000Y-111973178D01*
X147864285Y-112154607D01*
X147773571Y-112245321D01*
X147592142Y-112336035D01*
X147320000Y-112336035D01*
X148590000Y-111066035D02*
X148952857Y-112336035D01*
X149315714Y-111428892D01*
X149678571Y-112336035D01*
X150041428Y-111066035D01*
X151492857Y-112245321D02*
X151311428Y-112336035D01*
X150948571Y-112336035D01*
X150767142Y-112245321D01*
X150676428Y-112063892D01*
X150676428Y-111338178D01*
X150767142Y-111156750D01*
X150948571Y-111066035D01*
X151311428Y-111066035D01*
X151492857Y-111156750D01*
X151583571Y-111338178D01*
X151583571Y-111519607D01*
X150676428Y-111701035D01*
X152400000Y-112336035D02*
X152400000Y-111066035D01*
X152400000Y-111428892D02*
X152490714Y-111247464D01*
X152581428Y-111156750D01*
X152762857Y-111066035D01*
X152944285Y-111066035D01*
X89489642Y-111986785D02*
X88582500Y-111986785D01*
X88582500Y-110081785D01*
X90124642Y-110988928D02*
X90759642Y-110988928D01*
X91031785Y-111986785D02*
X90124642Y-111986785D01*
X90124642Y-110081785D01*
X91031785Y-110081785D01*
X91848214Y-111986785D02*
X91848214Y-110081785D01*
X92301785Y-110081785D01*
X92573928Y-110172500D01*
X92755357Y-110353928D01*
X92846071Y-110535357D01*
X92936785Y-110898214D01*
X92936785Y-111170357D01*
X92846071Y-111533214D01*
X92755357Y-111714642D01*
X92573928Y-111896071D01*
X92301785Y-111986785D01*
X91848214Y-111986785D01*
X95204642Y-111986785D02*
X95204642Y-110081785D01*
X95930357Y-110081785D01*
X96111785Y-110172500D01*
X96202500Y-110263214D01*
X96293214Y-110444642D01*
X96293214Y-110716785D01*
X96202500Y-110898214D01*
X96111785Y-110988928D01*
X95930357Y-111079642D01*
X95204642Y-111079642D01*
X96928214Y-110716785D02*
X97291071Y-111986785D01*
X97653928Y-111079642D01*
X98016785Y-111986785D01*
X98379642Y-110716785D01*
X99105357Y-111986785D02*
X99105357Y-110716785D01*
X99105357Y-111079642D02*
X99196071Y-110898214D01*
X99286785Y-110807500D01*
X99468214Y-110716785D01*
X99649642Y-110716785D01*
X146231428Y-82776785D02*
X146594285Y-82776785D01*
X146775714Y-82867500D01*
X146957142Y-83048928D01*
X147047857Y-83411785D01*
X147047857Y-84046785D01*
X146957142Y-84409642D01*
X146775714Y-84591071D01*
X146594285Y-84681785D01*
X146231428Y-84681785D01*
X146050000Y-84591071D01*
X145868571Y-84409642D01*
X145777857Y-84046785D01*
X145777857Y-83411785D01*
X145868571Y-83048928D01*
X146050000Y-82867500D01*
X146231428Y-82776785D01*
X147773571Y-84591071D02*
X147955000Y-84681785D01*
X148317857Y-84681785D01*
X148499285Y-84591071D01*
X148590000Y-84409642D01*
X148590000Y-84318928D01*
X148499285Y-84137500D01*
X148317857Y-84046785D01*
X148045714Y-84046785D01*
X147864285Y-83956071D01*
X147773571Y-83774642D01*
X147773571Y-83683928D01*
X147864285Y-83502500D01*
X148045714Y-83411785D01*
X148317857Y-83411785D01*
X148499285Y-83502500D01*
X150222857Y-84591071D02*
X150041428Y-84681785D01*
X149678571Y-84681785D01*
X149497142Y-84591071D01*
X149406428Y-84500357D01*
X149315714Y-84318928D01*
X149315714Y-83774642D01*
X149406428Y-83593214D01*
X149497142Y-83502500D01*
X149678571Y-83411785D01*
X150041428Y-83411785D01*
X150222857Y-83502500D01*
X152853571Y-82776785D02*
X153216428Y-82776785D01*
X153397857Y-82867500D01*
X153579285Y-83048928D01*
X153670000Y-83411785D01*
X153670000Y-84046785D01*
X153579285Y-84409642D01*
X153397857Y-84591071D01*
X153216428Y-84681785D01*
X152853571Y-84681785D01*
X152672142Y-84591071D01*
X152490714Y-84409642D01*
X152400000Y-84046785D01*
X152400000Y-83411785D01*
X152490714Y-83048928D01*
X152672142Y-82867500D01*
X152853571Y-82776785D01*
X155302857Y-83411785D02*
X155302857Y-84681785D01*
X154486428Y-83411785D02*
X154486428Y-84409642D01*
X154577142Y-84591071D01*
X154758571Y-84681785D01*
X155030714Y-84681785D01*
X155212142Y-84591071D01*
X155302857Y-84500357D01*
X155937857Y-83411785D02*
X156663571Y-83411785D01*
X156210000Y-82776785D02*
X156210000Y-84409642D01*
X156300714Y-84591071D01*
X156482142Y-84681785D01*
X156663571Y-84681785D01*
X86949642Y-81066821D02*
X87221785Y-81157535D01*
X87675357Y-81157535D01*
X87856785Y-81066821D01*
X87947500Y-80976107D01*
X88038214Y-80794678D01*
X88038214Y-80613250D01*
X87947500Y-80431821D01*
X87856785Y-80341107D01*
X87675357Y-80250392D01*
X87312500Y-80159678D01*
X87131071Y-80068964D01*
X87040357Y-79978250D01*
X86949642Y-79796821D01*
X86949642Y-79615392D01*
X87040357Y-79433964D01*
X87131071Y-79343250D01*
X87312500Y-79252535D01*
X87766071Y-79252535D01*
X88038214Y-79343250D01*
X88854642Y-81157535D02*
X88854642Y-79252535D01*
X89580357Y-79252535D01*
X89761785Y-79343250D01*
X89852500Y-79433964D01*
X89943214Y-79615392D01*
X89943214Y-79887535D01*
X89852500Y-80068964D01*
X89761785Y-80159678D01*
X89580357Y-80250392D01*
X88854642Y-80250392D01*
X90759642Y-81157535D02*
X90759642Y-79252535D01*
X87312500Y-82491035D02*
X87675357Y-82491035D01*
X87856785Y-82581750D01*
X88038214Y-82763178D01*
X88128928Y-83126035D01*
X88128928Y-83761035D01*
X88038214Y-84123892D01*
X87856785Y-84305321D01*
X87675357Y-84396035D01*
X87312500Y-84396035D01*
X87131071Y-84305321D01*
X86949642Y-84123892D01*
X86858928Y-83761035D01*
X86858928Y-83126035D01*
X86949642Y-82763178D01*
X87131071Y-82581750D01*
X87312500Y-82491035D01*
X89761785Y-83126035D02*
X89761785Y-84396035D01*
X88945357Y-83126035D02*
X88945357Y-84123892D01*
X89036071Y-84305321D01*
X89217500Y-84396035D01*
X89489642Y-84396035D01*
X89671071Y-84305321D01*
X89761785Y-84214607D01*
X90396785Y-83126035D02*
X91122500Y-83126035D01*
X90668928Y-82491035D02*
X90668928Y-84123892D01*
X90759642Y-84305321D01*
X90941071Y-84396035D01*
X91122500Y-84396035D01*
D12*
X123119047Y-84644761D02*
X123261904Y-84692380D01*
X123500000Y-84692380D01*
X123595238Y-84644761D01*
X123642857Y-84597142D01*
X123690476Y-84501904D01*
X123690476Y-84406666D01*
X123642857Y-84311428D01*
X123595238Y-84263809D01*
X123500000Y-84216190D01*
X123309523Y-84168571D01*
X123214285Y-84120952D01*
X123166666Y-84073333D01*
X123119047Y-83978095D01*
X123119047Y-83882857D01*
X123166666Y-83787619D01*
X123214285Y-83740000D01*
X123309523Y-83692380D01*
X123547619Y-83692380D01*
X123690476Y-83740000D01*
X124547619Y-84644761D02*
X124452380Y-84692380D01*
X124261904Y-84692380D01*
X124166666Y-84644761D01*
X124119047Y-84597142D01*
X124071428Y-84501904D01*
X124071428Y-84216190D01*
X124119047Y-84120952D01*
X124166666Y-84073333D01*
X124261904Y-84025714D01*
X124452380Y-84025714D01*
X124547619Y-84073333D01*
X124976190Y-84692380D02*
X124976190Y-83692380D01*
X125404761Y-84692380D02*
X125404761Y-84168571D01*
X125357142Y-84073333D01*
X125261904Y-84025714D01*
X125119047Y-84025714D01*
X125023809Y-84073333D01*
X124976190Y-84120952D01*
X126500000Y-83692380D02*
X126833333Y-84692380D01*
X127166666Y-83692380D01*
X127452380Y-83787619D02*
X127500000Y-83740000D01*
X127595238Y-83692380D01*
X127833333Y-83692380D01*
X127928571Y-83740000D01*
X127976190Y-83787619D01*
X128023809Y-83882857D01*
X128023809Y-83978095D01*
X127976190Y-84120952D01*
X127404761Y-84692380D01*
X128023809Y-84692380D01*
X128452380Y-84597142D02*
X128500000Y-84644761D01*
X128452380Y-84692380D01*
X128404761Y-84644761D01*
X128452380Y-84597142D01*
X128452380Y-84692380D01*
X129119047Y-83692380D02*
X129214285Y-83692380D01*
X129309523Y-83740000D01*
X129357142Y-83787619D01*
X129404761Y-83882857D01*
X129452380Y-84073333D01*
X129452380Y-84311428D01*
X129404761Y-84501904D01*
X129357142Y-84597142D01*
X129309523Y-84644761D01*
X129214285Y-84692380D01*
X129119047Y-84692380D01*
X129023809Y-84644761D01*
X128976190Y-84597142D01*
X128928571Y-84501904D01*
X128880952Y-84311428D01*
X128880952Y-84073333D01*
X128928571Y-83882857D01*
X128976190Y-83787619D01*
X129023809Y-83740000D01*
X129119047Y-83692380D01*
X129880952Y-84597142D02*
X129928571Y-84644761D01*
X129880952Y-84692380D01*
X129833333Y-84644761D01*
X129880952Y-84597142D01*
X129880952Y-84692380D01*
X130785714Y-84025714D02*
X130785714Y-84692380D01*
X130547619Y-83644761D02*
X130309523Y-84359047D01*
X130928571Y-84359047D01*
X123142857Y-86392380D02*
X123142857Y-85392380D01*
X123523809Y-85392380D01*
X123619047Y-85440000D01*
X123666666Y-85487619D01*
X123714285Y-85582857D01*
X123714285Y-85725714D01*
X123666666Y-85820952D01*
X123619047Y-85868571D01*
X123523809Y-85916190D01*
X123142857Y-85916190D01*
X124571428Y-86344761D02*
X124476190Y-86392380D01*
X124285714Y-86392380D01*
X124190476Y-86344761D01*
X124142857Y-86297142D01*
X124095238Y-86201904D01*
X124095238Y-85916190D01*
X124142857Y-85820952D01*
X124190476Y-85773333D01*
X124285714Y-85725714D01*
X124476190Y-85725714D01*
X124571428Y-85773333D01*
X125000000Y-86392380D02*
X125000000Y-85392380D01*
X125000000Y-85773333D02*
X125095238Y-85725714D01*
X125285714Y-85725714D01*
X125380952Y-85773333D01*
X125428571Y-85820952D01*
X125476190Y-85916190D01*
X125476190Y-86201904D01*
X125428571Y-86297142D01*
X125380952Y-86344761D01*
X125285714Y-86392380D01*
X125095238Y-86392380D01*
X125000000Y-86344761D01*
X126523809Y-85392380D02*
X126857142Y-86392380D01*
X127190476Y-85392380D01*
X128047619Y-86392380D02*
X127476190Y-86392380D01*
X127761904Y-86392380D02*
X127761904Y-85392380D01*
X127666666Y-85535238D01*
X127571428Y-85630476D01*
X127476190Y-85678095D01*
X128476190Y-86297142D02*
X128523809Y-86344761D01*
X128476190Y-86392380D01*
X128428571Y-86344761D01*
X128476190Y-86297142D01*
X128476190Y-86392380D01*
X129142857Y-85392380D02*
X129238095Y-85392380D01*
X129333333Y-85440000D01*
X129380952Y-85487619D01*
X129428571Y-85582857D01*
X129476190Y-85773333D01*
X129476190Y-86011428D01*
X129428571Y-86201904D01*
X129380952Y-86297142D01*
X129333333Y-86344761D01*
X129238095Y-86392380D01*
X129142857Y-86392380D01*
X129047619Y-86344761D01*
X129000000Y-86297142D01*
X128952380Y-86201904D01*
X128904761Y-86011428D01*
X128904761Y-85773333D01*
X128952380Y-85582857D01*
X129000000Y-85487619D01*
X129047619Y-85440000D01*
X129142857Y-85392380D01*
X129904761Y-86297142D02*
X129952380Y-86344761D01*
X129904761Y-86392380D01*
X129857142Y-86344761D01*
X129904761Y-86297142D01*
X129904761Y-86392380D01*
X130333333Y-85487619D02*
X130380952Y-85440000D01*
X130476190Y-85392380D01*
X130714285Y-85392380D01*
X130809523Y-85440000D01*
X130857142Y-85487619D01*
X130904761Y-85582857D01*
X130904761Y-85678095D01*
X130857142Y-85820952D01*
X130285714Y-86392380D01*
X130904761Y-86392380D01*
D13*
X120105714Y-77379285D02*
X121194285Y-77379285D01*
X120650000Y-79284285D02*
X120650000Y-77379285D01*
X121829285Y-79284285D02*
X121829285Y-78014285D01*
X121829285Y-78377142D02*
X121920000Y-78195714D01*
X122010714Y-78105000D01*
X122192142Y-78014285D01*
X122373571Y-78014285D01*
X123008571Y-79284285D02*
X123008571Y-78014285D01*
X123008571Y-77379285D02*
X122917857Y-77470000D01*
X123008571Y-77560714D01*
X123099285Y-77470000D01*
X123008571Y-77379285D01*
X123008571Y-77560714D01*
X123915714Y-78014285D02*
X123915714Y-79919285D01*
X123915714Y-78105000D02*
X124097142Y-78014285D01*
X124460000Y-78014285D01*
X124641428Y-78105000D01*
X124732142Y-78195714D01*
X124822857Y-78377142D01*
X124822857Y-78921428D01*
X124732142Y-79102857D01*
X124641428Y-79193571D01*
X124460000Y-79284285D01*
X124097142Y-79284285D01*
X123915714Y-79193571D01*
X125639285Y-78014285D02*
X125639285Y-79919285D01*
X125639285Y-78105000D02*
X125820714Y-78014285D01*
X126183571Y-78014285D01*
X126365000Y-78105000D01*
X126455714Y-78195714D01*
X126546428Y-78377142D01*
X126546428Y-78921428D01*
X126455714Y-79102857D01*
X126365000Y-79193571D01*
X126183571Y-79284285D01*
X125820714Y-79284285D01*
X125639285Y-79193571D01*
X127181428Y-78014285D02*
X127635000Y-79284285D01*
X128088571Y-78014285D02*
X127635000Y-79284285D01*
X127453571Y-79737857D01*
X127362857Y-79828571D01*
X127181428Y-79919285D01*
X129902857Y-79284285D02*
X129267857Y-78377142D01*
X128814285Y-79284285D02*
X128814285Y-77379285D01*
X129540000Y-77379285D01*
X129721428Y-77470000D01*
X129812142Y-77560714D01*
X129902857Y-77742142D01*
X129902857Y-78014285D01*
X129812142Y-78195714D01*
X129721428Y-78286428D01*
X129540000Y-78377142D01*
X128814285Y-78377142D01*
X131717142Y-77470000D02*
X131535714Y-77379285D01*
X131263571Y-77379285D01*
X130991428Y-77470000D01*
X130810000Y-77651428D01*
X130719285Y-77832857D01*
X130628571Y-78195714D01*
X130628571Y-78467857D01*
X130719285Y-78830714D01*
X130810000Y-79012142D01*
X130991428Y-79193571D01*
X131263571Y-79284285D01*
X131445000Y-79284285D01*
X131717142Y-79193571D01*
X131807857Y-79102857D01*
X131807857Y-78467857D01*
X131445000Y-78467857D01*
X133259285Y-78286428D02*
X133531428Y-78377142D01*
X133622142Y-78467857D01*
X133712857Y-78649285D01*
X133712857Y-78921428D01*
X133622142Y-79102857D01*
X133531428Y-79193571D01*
X133350000Y-79284285D01*
X132624285Y-79284285D01*
X132624285Y-77379285D01*
X133259285Y-77379285D01*
X133440714Y-77470000D01*
X133531428Y-77560714D01*
X133622142Y-77742142D01*
X133622142Y-77923571D01*
X133531428Y-78105000D01*
X133440714Y-78195714D01*
X133259285Y-78286428D01*
X132624285Y-78286428D01*
X115071071Y-82459285D02*
X114163928Y-82459285D01*
X114163928Y-80554285D01*
X115978214Y-82459285D02*
X115796785Y-82368571D01*
X115706071Y-82277857D01*
X115615357Y-82096428D01*
X115615357Y-81552142D01*
X115706071Y-81370714D01*
X115796785Y-81280000D01*
X115978214Y-81189285D01*
X116250357Y-81189285D01*
X116431785Y-81280000D01*
X116522499Y-81370714D01*
X116613214Y-81552142D01*
X116613214Y-82096428D01*
X116522499Y-82277857D01*
X116431785Y-82368571D01*
X116250357Y-82459285D01*
X115978214Y-82459285D01*
X118246071Y-81189285D02*
X118246071Y-82731428D01*
X118155357Y-82912857D01*
X118064642Y-83003571D01*
X117883214Y-83094285D01*
X117611071Y-83094285D01*
X117429642Y-83003571D01*
X118246071Y-82368571D02*
X118064642Y-82459285D01*
X117701785Y-82459285D01*
X117520357Y-82368571D01*
X117429642Y-82277857D01*
X117338928Y-82096428D01*
X117338928Y-81552142D01*
X117429642Y-81370714D01*
X117520357Y-81280000D01*
X117701785Y-81189285D01*
X118064642Y-81189285D01*
X118246071Y-81280000D01*
X119153214Y-82459285D02*
X119153214Y-81189285D01*
X119153214Y-80554285D02*
X119062499Y-80645000D01*
X119153214Y-80735714D01*
X119243928Y-80645000D01*
X119153214Y-80554285D01*
X119153214Y-80735714D01*
X120876785Y-82368571D02*
X120695357Y-82459285D01*
X120332499Y-82459285D01*
X120151071Y-82368571D01*
X120060357Y-82277857D01*
X119969642Y-82096428D01*
X119969642Y-81552142D01*
X120060357Y-81370714D01*
X120151071Y-81280000D01*
X120332499Y-81189285D01*
X120695357Y-81189285D01*
X120876785Y-81280000D01*
X124686785Y-82459285D02*
X124596071Y-82459285D01*
X124414642Y-82368571D01*
X124142499Y-82096428D01*
X123688928Y-81552142D01*
X123507499Y-81280000D01*
X123416785Y-81007857D01*
X123416785Y-80826428D01*
X123507499Y-80645000D01*
X123688928Y-80554285D01*
X123779642Y-80554285D01*
X123961071Y-80645000D01*
X124051785Y-80826428D01*
X124051785Y-80917142D01*
X123961071Y-81098571D01*
X123870357Y-81189285D01*
X123326071Y-81552142D01*
X123235357Y-81642857D01*
X123144642Y-81824285D01*
X123144642Y-82096428D01*
X123235357Y-82277857D01*
X123326071Y-82368571D01*
X123507499Y-82459285D01*
X123779642Y-82459285D01*
X123961071Y-82368571D01*
X124051785Y-82277857D01*
X124323928Y-81915000D01*
X124414642Y-81642857D01*
X124414642Y-81461428D01*
X127317499Y-80554285D02*
X127680357Y-80554285D01*
X127861785Y-80645000D01*
X128043214Y-80826428D01*
X128133928Y-81189285D01*
X128133928Y-81824285D01*
X128043214Y-82187142D01*
X127861785Y-82368571D01*
X127680357Y-82459285D01*
X127317499Y-82459285D01*
X127136071Y-82368571D01*
X126954642Y-82187142D01*
X126863928Y-81824285D01*
X126863928Y-81189285D01*
X126954642Y-80826428D01*
X127136071Y-80645000D01*
X127317499Y-80554285D01*
X128859642Y-82368571D02*
X129041071Y-82459285D01*
X129403928Y-82459285D01*
X129585357Y-82368571D01*
X129676071Y-82187142D01*
X129676071Y-82096428D01*
X129585357Y-81915000D01*
X129403928Y-81824285D01*
X129131785Y-81824285D01*
X128950357Y-81733571D01*
X128859642Y-81552142D01*
X128859642Y-81461428D01*
X128950357Y-81280000D01*
X129131785Y-81189285D01*
X129403928Y-81189285D01*
X129585357Y-81280000D01*
X131308928Y-82368571D02*
X131127500Y-82459285D01*
X130764642Y-82459285D01*
X130583214Y-82368571D01*
X130492500Y-82277857D01*
X130401785Y-82096428D01*
X130401785Y-81552142D01*
X130492500Y-81370714D01*
X130583214Y-81280000D01*
X130764642Y-81189285D01*
X131127500Y-81189285D01*
X131308928Y-81280000D01*
X132125357Y-82459285D02*
X132125357Y-81189285D01*
X132125357Y-80554285D02*
X132034642Y-80645000D01*
X132125357Y-80735714D01*
X132216071Y-80645000D01*
X132125357Y-80554285D01*
X132125357Y-80735714D01*
X133304642Y-82459285D02*
X133123214Y-82368571D01*
X133032500Y-82187142D01*
X133032500Y-80554285D01*
X134302500Y-82459285D02*
X134121071Y-82368571D01*
X134030357Y-82187142D01*
X134030357Y-80554285D01*
X135844642Y-82459285D02*
X135844642Y-81461428D01*
X135753928Y-81280000D01*
X135572500Y-81189285D01*
X135209642Y-81189285D01*
X135028214Y-81280000D01*
X135844642Y-82368571D02*
X135663214Y-82459285D01*
X135209642Y-82459285D01*
X135028214Y-82368571D01*
X134937500Y-82187142D01*
X134937500Y-82005714D01*
X135028214Y-81824285D01*
X135209642Y-81733571D01*
X135663214Y-81733571D01*
X135844642Y-81642857D01*
X136479642Y-81189285D02*
X137205357Y-81189285D01*
X136751785Y-80554285D02*
X136751785Y-82187142D01*
X136842500Y-82368571D01*
X137023928Y-82459285D01*
X137205357Y-82459285D01*
X138112500Y-82459285D02*
X137931071Y-82368571D01*
X137840357Y-82277857D01*
X137749642Y-82096428D01*
X137749642Y-81552142D01*
X137840357Y-81370714D01*
X137931071Y-81280000D01*
X138112500Y-81189285D01*
X138384642Y-81189285D01*
X138566071Y-81280000D01*
X138656785Y-81370714D01*
X138747500Y-81552142D01*
X138747500Y-82096428D01*
X138656785Y-82277857D01*
X138566071Y-82368571D01*
X138384642Y-82459285D01*
X138112500Y-82459285D01*
X139563928Y-82459285D02*
X139563928Y-81189285D01*
X139563928Y-81552142D02*
X139654642Y-81370714D01*
X139745357Y-81280000D01*
X139926785Y-81189285D01*
X140108214Y-81189285D01*
D14*
%TO.C,C3*%
X107925390Y-116210270D02*
G75*
G03X107925390Y-116210270I-2500000J0D01*
G01*
%TO.C,C6*%
X159995390Y-120020270D02*
G75*
G03X159995390Y-120020270I-2500000J0D01*
G01*
%TO.C,C8*%
X139675390Y-95255270D02*
G75*
G03X139675390Y-95255270I-2500000J0D01*
G01*
D15*
%TO.C,R2*%
X178132890Y-110622270D02*
X178132890Y-115448270D01*
X187657890Y-110622270D02*
X178132890Y-110622270D01*
X187657890Y-115448270D02*
X187657890Y-110622270D01*
X187276890Y-115448270D02*
X187276890Y-115067270D01*
X187657890Y-115448270D02*
X187276890Y-115448270D01*
X178513890Y-115448270D02*
X178132890Y-115448270D01*
X178513890Y-115067270D02*
X178513890Y-115448270D01*
X187276890Y-115067270D02*
X178513890Y-115067270D01*
X187467390Y-111892270D02*
G75*
G03X187467390Y-111892270I-1079500J0D01*
G01*
X186984790Y-112781270D02*
X185994190Y-110927070D01*
X185790990Y-111028670D02*
X186781590Y-112882870D01*
D14*
%TO.C,Q1*%
X174449890Y-105844430D02*
X174449890Y-110066110D01*
X174449941Y-110066144D02*
G75*
G03X174449840Y-105844470I1523949J2110874D01*
G01*
%TO.C,XU1*%
X186131200Y-95255270D02*
X186131200Y-95636270D01*
X179628800Y-95255270D02*
X186131200Y-95255270D01*
X179628800Y-95636270D02*
X179628800Y-95255270D01*
X186131200Y-105415270D02*
X186131200Y-105034270D01*
X179628800Y-105415270D02*
X186131200Y-105415270D01*
X179628800Y-105034270D02*
X179628800Y-105415270D01*
X182245000Y-95255270D02*
G75*
G03X183515000Y-95255270I635000J0D01*
G01*
%TO.C,XU3*%
X170891200Y-100330000D02*
X170891200Y-100711000D01*
X164388800Y-100330000D02*
X170891200Y-100330000D01*
X164388800Y-100711000D02*
X164388800Y-100330000D01*
X170891200Y-110490000D02*
X170891200Y-110109000D01*
X164388800Y-110490000D02*
X170891200Y-110490000D01*
X164388800Y-110109000D02*
X164388800Y-110490000D01*
X167005000Y-100330000D02*
G75*
G03X168275000Y-100330000I635000J0D01*
G01*
%TO.C,XU4*%
X105425390Y-90886470D02*
X105044390Y-90886470D01*
X105425390Y-84384070D02*
X105425390Y-90886470D01*
X105044390Y-84384070D02*
X105425390Y-84384070D01*
X95265390Y-90886470D02*
X95646390Y-90886470D01*
X95265390Y-84384070D02*
X95265390Y-90886470D01*
X95646390Y-84384070D02*
X95265390Y-84384070D01*
X105425390Y-87000270D02*
G75*
G03X105425390Y-88270270I0J-635000D01*
G01*
%TO.C,XU5*%
X105425390Y-103586470D02*
X105044390Y-103586470D01*
X105425390Y-97084070D02*
X105425390Y-103586470D01*
X105044390Y-97084070D02*
X105425390Y-97084070D01*
X95265390Y-103586470D02*
X95646390Y-103586470D01*
X95265390Y-97084070D02*
X95265390Y-103586470D01*
X95646390Y-97084070D02*
X95265390Y-97084070D01*
X105425390Y-99700270D02*
G75*
G03X105425390Y-100970270I0J-635000D01*
G01*
%TO.C,U1*%
X187975390Y-105346500D02*
X187975390Y-104736900D01*
X177815390Y-105346500D02*
X187975390Y-105346500D01*
X177815390Y-104736900D02*
X177815390Y-105346500D01*
X187975390Y-95313500D02*
X187975390Y-95923100D01*
X177815390Y-95313500D02*
X187975390Y-95313500D01*
X177815390Y-95923100D02*
X177815390Y-95313500D01*
X182260390Y-95313500D02*
G75*
G03X183530390Y-95313500I635000J0D01*
G01*
%TO.C,U3*%
X172735390Y-110431770D02*
X172735390Y-109822170D01*
X162575390Y-110431770D02*
X172735390Y-110431770D01*
X162575390Y-109822170D02*
X162575390Y-110431770D01*
X172735390Y-100398770D02*
X172735390Y-101008370D01*
X162575390Y-100398770D02*
X172735390Y-100398770D01*
X162575390Y-101008370D02*
X162575390Y-100398770D01*
X167020390Y-100398770D02*
G75*
G03X168290390Y-100398770I635000J0D01*
G01*
%TO.C,U4*%
X95328890Y-92715270D02*
X95938490Y-92715270D01*
X95328890Y-82555270D02*
X95328890Y-92715270D01*
X95938490Y-82555270D02*
X95328890Y-82555270D01*
X105361890Y-92715270D02*
X104752290Y-92715270D01*
X105361890Y-82555270D02*
X105361890Y-92715270D01*
X104752290Y-82555270D02*
X105361890Y-82555270D01*
X105361890Y-87000270D02*
G75*
G03X105361890Y-88270270I0J-635000D01*
G01*
%TO.C,U5*%
X95328890Y-105415270D02*
X95938490Y-105415270D01*
X95328890Y-95255270D02*
X95328890Y-105415270D01*
X95938490Y-95255270D02*
X95328890Y-95255270D01*
X105361890Y-105415270D02*
X104752290Y-105415270D01*
X105361890Y-95255270D02*
X105361890Y-105415270D01*
X104752290Y-95255270D02*
X105361890Y-95255270D01*
X105361890Y-99700270D02*
G75*
G03X105361890Y-100970270I0J-635000D01*
G01*
%TO.C,C1*%
X187988090Y-92385070D02*
X187988090Y-95585470D01*
X182882690Y-92385070D02*
X187988090Y-92385070D01*
X182882690Y-95585470D02*
X182882690Y-92385070D01*
X187988090Y-95585470D02*
X182882690Y-95585470D01*
%TO.C,C2*%
X186718090Y-106355070D02*
X186718090Y-109555470D01*
X181612690Y-106355070D02*
X186718090Y-106355070D01*
X181612690Y-109555470D02*
X181612690Y-106355070D01*
X186718090Y-109555470D02*
X181612690Y-109555470D01*
%TO.C,C4*%
X102872690Y-121620470D02*
X102872690Y-118420070D01*
X107978090Y-121620470D02*
X102872690Y-121620470D01*
X107978090Y-118420070D02*
X107978090Y-121620470D01*
X102872690Y-118420070D02*
X107978090Y-118420070D01*
%TO.C,C5*%
X155285590Y-122572970D02*
X152085190Y-122572970D01*
X155285590Y-117467570D02*
X155285590Y-122572970D01*
X152085190Y-117467570D02*
X155285590Y-117467570D01*
X152085190Y-122572970D02*
X152085190Y-117467570D01*
%TO.C,C7*%
X139385190Y-92702570D02*
X142585590Y-92702570D01*
X139385190Y-97807970D02*
X139385190Y-92702570D01*
X142585590Y-97807970D02*
X139385190Y-97807970D01*
X142585590Y-92702570D02*
X142585590Y-97807970D01*
%TO.C,C9*%
X162562690Y-100665470D02*
X162562690Y-97465070D01*
X167668090Y-100665470D02*
X162562690Y-100665470D01*
X167668090Y-97465070D02*
X167668090Y-100665470D01*
X162562690Y-97465070D02*
X167668090Y-97465070D01*
%TO.C,C10*%
X105095190Y-82542570D02*
X108295590Y-82542570D01*
X105095190Y-87647970D02*
X105095190Y-82542570D01*
X108295590Y-87647970D02*
X105095190Y-87647970D01*
X108295590Y-82542570D02*
X108295590Y-87647970D01*
%TO.C,C11*%
X105095190Y-95242570D02*
X108295590Y-95242570D01*
X105095190Y-100347970D02*
X105095190Y-95242570D01*
X108295590Y-100347970D02*
X105095190Y-100347970D01*
X108295590Y-95242570D02*
X108295590Y-100347970D01*
%TO.C,J1*%
X89675390Y-124520270D02*
X89675390Y-113520270D01*
X89675390Y-113520270D02*
X98675390Y-113520270D01*
X98675390Y-113520270D02*
X98675390Y-124520270D01*
X98675390Y-124520270D02*
X89675390Y-124520270D01*
%TO.C,J2*%
X139205390Y-124520270D02*
X139205390Y-113520270D01*
X139205390Y-113520270D02*
X148205390Y-113520270D01*
X148205390Y-113520270D02*
X148205390Y-124520270D01*
X148205390Y-124520270D02*
X139205390Y-124520270D01*
%TO.C,J3*%
X157225390Y-103545270D02*
X157225390Y-102305270D01*
X145725390Y-103545270D02*
X145725390Y-102305270D01*
X145725390Y-85705270D02*
X145725390Y-86945270D01*
X157225390Y-85705270D02*
X157225390Y-86945270D01*
X143375390Y-102305270D02*
X159775390Y-102305270D01*
X145725390Y-85705270D02*
X157225390Y-85705270D01*
X143375390Y-102305270D02*
X143375390Y-86945270D01*
X157225390Y-103545270D02*
X145725390Y-103545270D01*
X159775390Y-86945270D02*
X159775390Y-102305270D01*
X143375390Y-86945270D02*
X159775390Y-86945270D01*
%TO.C,J4*%
X89915390Y-103545270D02*
X89915390Y-102305270D01*
X78415390Y-103545270D02*
X78415390Y-102305270D01*
X78415390Y-85705270D02*
X78415390Y-86945270D01*
X89915390Y-85705270D02*
X89915390Y-86945270D01*
X76065390Y-102305270D02*
X92465390Y-102305270D01*
X78415390Y-85705270D02*
X89915390Y-85705270D01*
X76065390Y-102305270D02*
X76065390Y-86945270D01*
X89915390Y-103545270D02*
X78415390Y-103545270D01*
X92465390Y-86945270D02*
X92465390Y-102305270D01*
X76065390Y-86945270D02*
X92465390Y-86945270D01*
D11*
%TO.C,MH2*%
X191930000Y-121920000D02*
G75*
G03X191930000Y-121920000I-3970000J0D01*
G01*
%TO.C,MH3*%
X191930000Y-81280000D02*
G75*
G03X191930000Y-81280000I-3970000J0D01*
G01*
%TO.C,MH4*%
X85250000Y-81280000D02*
G75*
G03X85250000Y-81280000I-3970000J0D01*
G01*
D14*
%TO.C,R1*%
X189245390Y-105821670D02*
X189245390Y-104945370D01*
X189245390Y-112628870D02*
X189245390Y-113505170D01*
X190540790Y-111494340D02*
X190540790Y-112628870D01*
X190540790Y-112628870D02*
X187949990Y-112628870D01*
X187949990Y-112628870D02*
X187949990Y-111494340D01*
X190540790Y-106956200D02*
X190540790Y-105821670D01*
X190540790Y-105821670D02*
X187949990Y-105821670D01*
X187949990Y-105821670D02*
X187949990Y-106956200D01*
%TO.C,R3*%
X168061790Y-113035270D02*
X167185490Y-113035270D01*
X174868990Y-113035270D02*
X175745290Y-113035270D01*
X173734460Y-111739870D02*
X174868990Y-111739870D01*
X174868990Y-111739870D02*
X174868990Y-114330670D01*
X174868990Y-114330670D02*
X173734460Y-114330670D01*
X169196320Y-111739870D02*
X168061790Y-111739870D01*
X168061790Y-111739870D02*
X168061790Y-114330670D01*
X168061790Y-114330670D02*
X169196320Y-114330670D01*
%TO.C,R4*%
X105082490Y-106685270D02*
G75*
G03X105082490Y-106685270I-927100J0D01*
G01*
X103228290Y-106685270D02*
X102250390Y-106685270D01*
%TO.C,U2*%
X127650390Y-121925270D02*
G75*
G03X127650390Y-121925270I-635000J0D01*
G01*
X130990490Y-125874970D02*
X112880290Y-125874970D01*
X112880290Y-125874970D02*
X112880290Y-92575570D01*
X112880290Y-92575570D02*
X130990490Y-92575570D01*
X130990490Y-92575570D02*
X130990490Y-125874970D01*
%TO.C,C3*%
X102658333Y-113483571D02*
X102597857Y-113544047D01*
X102416428Y-113604523D01*
X102295476Y-113604523D01*
X102114047Y-113544047D01*
X101993095Y-113423095D01*
X101932619Y-113302142D01*
X101872142Y-113060238D01*
X101872142Y-112878809D01*
X101932619Y-112636904D01*
X101993095Y-112515952D01*
X102114047Y-112395000D01*
X102295476Y-112334523D01*
X102416428Y-112334523D01*
X102597857Y-112395000D01*
X102658333Y-112455476D01*
X103081666Y-112334523D02*
X103867857Y-112334523D01*
X103444523Y-112818333D01*
X103625952Y-112818333D01*
X103746904Y-112878809D01*
X103807380Y-112939285D01*
X103867857Y-113060238D01*
X103867857Y-113362619D01*
X103807380Y-113483571D01*
X103746904Y-113544047D01*
X103625952Y-113604523D01*
X103263095Y-113604523D01*
X103142142Y-113544047D01*
X103081666Y-113483571D01*
X101996437Y-115265698D02*
X102758342Y-115265698D01*
X102377390Y-115646650D02*
X102377390Y-114884746D01*
%TO.C,C6*%
X158538333Y-124278571D02*
X158477857Y-124339047D01*
X158296428Y-124399523D01*
X158175476Y-124399523D01*
X157994047Y-124339047D01*
X157873095Y-124218095D01*
X157812619Y-124097142D01*
X157752142Y-123855238D01*
X157752142Y-123673809D01*
X157812619Y-123431904D01*
X157873095Y-123310952D01*
X157994047Y-123190000D01*
X158175476Y-123129523D01*
X158296428Y-123129523D01*
X158477857Y-123190000D01*
X158538333Y-123250476D01*
X159626904Y-123129523D02*
X159385000Y-123129523D01*
X159264047Y-123190000D01*
X159203571Y-123250476D01*
X159082619Y-123431904D01*
X159022142Y-123673809D01*
X159022142Y-124157619D01*
X159082619Y-124278571D01*
X159143095Y-124339047D01*
X159264047Y-124399523D01*
X159505952Y-124399523D01*
X159626904Y-124339047D01*
X159687380Y-124278571D01*
X159747857Y-124157619D01*
X159747857Y-123855238D01*
X159687380Y-123734285D01*
X159626904Y-123673809D01*
X159505952Y-123613333D01*
X159264047Y-123613333D01*
X159143095Y-123673809D01*
X159082619Y-123734285D01*
X159022142Y-123855238D01*
X156550818Y-123449222D02*
X156550818Y-122687317D01*
X156931770Y-123068270D02*
X156169866Y-123068270D01*
%TO.C,C8*%
X136313333Y-91893571D02*
X136252857Y-91954047D01*
X136071428Y-92014523D01*
X135950476Y-92014523D01*
X135769047Y-91954047D01*
X135648095Y-91833095D01*
X135587619Y-91712142D01*
X135527142Y-91470238D01*
X135527142Y-91288809D01*
X135587619Y-91046904D01*
X135648095Y-90925952D01*
X135769047Y-90805000D01*
X135950476Y-90744523D01*
X136071428Y-90744523D01*
X136252857Y-90805000D01*
X136313333Y-90865476D01*
X137039047Y-91288809D02*
X136918095Y-91228333D01*
X136857619Y-91167857D01*
X136797142Y-91046904D01*
X136797142Y-90986428D01*
X136857619Y-90865476D01*
X136918095Y-90805000D01*
X137039047Y-90744523D01*
X137280952Y-90744523D01*
X137401904Y-90805000D01*
X137462380Y-90865476D01*
X137522857Y-90986428D01*
X137522857Y-91046904D01*
X137462380Y-91167857D01*
X137401904Y-91228333D01*
X137280952Y-91288809D01*
X137039047Y-91288809D01*
X136918095Y-91349285D01*
X136857619Y-91409761D01*
X136797142Y-91530714D01*
X136797142Y-91772619D01*
X136857619Y-91893571D01*
X136918095Y-91954047D01*
X137039047Y-92014523D01*
X137280952Y-92014523D01*
X137401904Y-91954047D01*
X137462380Y-91893571D01*
X137522857Y-91772619D01*
X137522857Y-91530714D01*
X137462380Y-91409761D01*
X137401904Y-91349285D01*
X137280952Y-91288809D01*
X138262818Y-92588222D02*
X138262818Y-91826317D01*
X138643770Y-92207270D02*
X137881866Y-92207270D01*
%TO.C,R2*%
D15*
X185805000Y-116883571D02*
X185305000Y-116169285D01*
X184947857Y-116883571D02*
X184947857Y-115383571D01*
X185519285Y-115383571D01*
X185662142Y-115455000D01*
X185733571Y-115526428D01*
X185805000Y-115669285D01*
X185805000Y-115883571D01*
X185733571Y-116026428D01*
X185662142Y-116097857D01*
X185519285Y-116169285D01*
X184947857Y-116169285D01*
X186376428Y-115526428D02*
X186447857Y-115455000D01*
X186590714Y-115383571D01*
X186947857Y-115383571D01*
X187090714Y-115455000D01*
X187162142Y-115526428D01*
X187233571Y-115669285D01*
X187233571Y-115812142D01*
X187162142Y-116026428D01*
X186305000Y-116883571D01*
X187233571Y-116883571D01*
D16*
X180860095Y-115648619D02*
X180376285Y-115648619D01*
X180327904Y-116132428D01*
X180376285Y-116084047D01*
X180473047Y-116035666D01*
X180714952Y-116035666D01*
X180811714Y-116084047D01*
X180860095Y-116132428D01*
X180908476Y-116229190D01*
X180908476Y-116471095D01*
X180860095Y-116567857D01*
X180811714Y-116616238D01*
X180714952Y-116664619D01*
X180473047Y-116664619D01*
X180376285Y-116616238D01*
X180327904Y-116567857D01*
X181343904Y-116664619D02*
X181343904Y-115648619D01*
X181440666Y-116277571D02*
X181730952Y-116664619D01*
X181730952Y-115987285D02*
X181343904Y-116374333D01*
X182118000Y-116664619D02*
X182359904Y-116664619D01*
X182359904Y-116471095D01*
X182263142Y-116422714D01*
X182166380Y-116325952D01*
X182118000Y-116180809D01*
X182118000Y-115938904D01*
X182166380Y-115793761D01*
X182263142Y-115697000D01*
X182408285Y-115648619D01*
X182601809Y-115648619D01*
X182746952Y-115697000D01*
X182843714Y-115793761D01*
X182892095Y-115938904D01*
X182892095Y-116180809D01*
X182843714Y-116325952D01*
X182746952Y-116422714D01*
X182650190Y-116471095D01*
X182650190Y-116664619D01*
X182892095Y-116664619D01*
D15*
X180829890Y-111588627D02*
X180794175Y-111624341D01*
X180687032Y-111660055D01*
X180615604Y-111660055D01*
X180508461Y-111624341D01*
X180437032Y-111552912D01*
X180401318Y-111481484D01*
X180365604Y-111338627D01*
X180365604Y-111231484D01*
X180401318Y-111088627D01*
X180437032Y-111017198D01*
X180508461Y-110945770D01*
X180615604Y-110910055D01*
X180687032Y-110910055D01*
X180794175Y-110945770D01*
X180829890Y-110981484D01*
X181079890Y-110910055D02*
X181258461Y-111660055D01*
X181401318Y-111124341D01*
X181544175Y-111660055D01*
X181722747Y-110910055D01*
X182579890Y-111374341D02*
X183151318Y-111374341D01*
X183508461Y-111374341D02*
X184079890Y-111374341D01*
X184437032Y-111160055D02*
X185008461Y-111374341D01*
X184437032Y-111588627D01*
%TO.C,Q1*%
D14*
X175139047Y-104835476D02*
X175018095Y-104775000D01*
X174897142Y-104654047D01*
X174715714Y-104472619D01*
X174594761Y-104412142D01*
X174473809Y-104412142D01*
X174534285Y-104714523D02*
X174413333Y-104654047D01*
X174292380Y-104533095D01*
X174231904Y-104291190D01*
X174231904Y-103867857D01*
X174292380Y-103625952D01*
X174413333Y-103505000D01*
X174534285Y-103444523D01*
X174776190Y-103444523D01*
X174897142Y-103505000D01*
X175018095Y-103625952D01*
X175078571Y-103867857D01*
X175078571Y-104291190D01*
X175018095Y-104533095D01*
X174897142Y-104654047D01*
X174776190Y-104714523D01*
X174534285Y-104714523D01*
X176288095Y-104714523D02*
X175562380Y-104714523D01*
X175925238Y-104714523D02*
X175925238Y-103444523D01*
X175804285Y-103625952D01*
X175683333Y-103746904D01*
X175562380Y-103807380D01*
%TO.C,XU1*%
X180551666Y-96459523D02*
X181398333Y-97729523D01*
X181398333Y-96459523D02*
X180551666Y-97729523D01*
X181882142Y-96459523D02*
X181882142Y-97487619D01*
X181942619Y-97608571D01*
X182003095Y-97669047D01*
X182124047Y-97729523D01*
X182365952Y-97729523D01*
X182486904Y-97669047D01*
X182547380Y-97608571D01*
X182607857Y-97487619D01*
X182607857Y-96459523D01*
X183877857Y-97729523D02*
X183152142Y-97729523D01*
X183515000Y-97729523D02*
X183515000Y-96459523D01*
X183394047Y-96640952D01*
X183273095Y-96761904D01*
X183152142Y-96822380D01*
%TO.C,XU3*%
X165311666Y-101539523D02*
X166158333Y-102809523D01*
X166158333Y-101539523D02*
X165311666Y-102809523D01*
X166642142Y-101539523D02*
X166642142Y-102567619D01*
X166702619Y-102688571D01*
X166763095Y-102749047D01*
X166884047Y-102809523D01*
X167125952Y-102809523D01*
X167246904Y-102749047D01*
X167307380Y-102688571D01*
X167367857Y-102567619D01*
X167367857Y-101539523D01*
X167851666Y-101539523D02*
X168637857Y-101539523D01*
X168214523Y-102023333D01*
X168395952Y-102023333D01*
X168516904Y-102083809D01*
X168577380Y-102144285D01*
X168637857Y-102265238D01*
X168637857Y-102567619D01*
X168577380Y-102688571D01*
X168516904Y-102749047D01*
X168395952Y-102809523D01*
X168033095Y-102809523D01*
X167912142Y-102749047D01*
X167851666Y-102688571D01*
%TO.C,XU4*%
X101176666Y-85029523D02*
X102023333Y-86299523D01*
X102023333Y-85029523D02*
X101176666Y-86299523D01*
X102507142Y-85029523D02*
X102507142Y-86057619D01*
X102567619Y-86178571D01*
X102628095Y-86239047D01*
X102749047Y-86299523D01*
X102990952Y-86299523D01*
X103111904Y-86239047D01*
X103172380Y-86178571D01*
X103232857Y-86057619D01*
X103232857Y-85029523D01*
X104381904Y-85452857D02*
X104381904Y-86299523D01*
X104079523Y-84969047D02*
X103777142Y-85876190D01*
X104563333Y-85876190D01*
%TO.C,XU5*%
X101176666Y-97729523D02*
X102023333Y-98999523D01*
X102023333Y-97729523D02*
X101176666Y-98999523D01*
X102507142Y-97729523D02*
X102507142Y-98757619D01*
X102567619Y-98878571D01*
X102628095Y-98939047D01*
X102749047Y-98999523D01*
X102990952Y-98999523D01*
X103111904Y-98939047D01*
X103172380Y-98878571D01*
X103232857Y-98757619D01*
X103232857Y-97729523D01*
X104442380Y-97729523D02*
X103837619Y-97729523D01*
X103777142Y-98334285D01*
X103837619Y-98273809D01*
X103958571Y-98213333D01*
X104260952Y-98213333D01*
X104381904Y-98273809D01*
X104442380Y-98334285D01*
X104502857Y-98455238D01*
X104502857Y-98757619D01*
X104442380Y-98878571D01*
X104381904Y-98939047D01*
X104260952Y-98999523D01*
X103958571Y-98999523D01*
X103837619Y-98939047D01*
X103777142Y-98878571D01*
%TO.C,U1*%
X177467380Y-93284523D02*
X177467380Y-94312619D01*
X177527857Y-94433571D01*
X177588333Y-94494047D01*
X177709285Y-94554523D01*
X177951190Y-94554523D01*
X178072142Y-94494047D01*
X178132619Y-94433571D01*
X178193095Y-94312619D01*
X178193095Y-93284523D01*
X179463095Y-94554523D02*
X178737380Y-94554523D01*
X179100238Y-94554523D02*
X179100238Y-93284523D01*
X178979285Y-93465952D01*
X178858333Y-93586904D01*
X178737380Y-93647380D01*
%TO.C,U3*%
X160322380Y-101539523D02*
X160322380Y-102567619D01*
X160382857Y-102688571D01*
X160443333Y-102749047D01*
X160564285Y-102809523D01*
X160806190Y-102809523D01*
X160927142Y-102749047D01*
X160987619Y-102688571D01*
X161048095Y-102567619D01*
X161048095Y-101539523D01*
X161531904Y-101539523D02*
X162318095Y-101539523D01*
X161894761Y-102023333D01*
X162076190Y-102023333D01*
X162197142Y-102083809D01*
X162257619Y-102144285D01*
X162318095Y-102265238D01*
X162318095Y-102567619D01*
X162257619Y-102688571D01*
X162197142Y-102749047D01*
X162076190Y-102809523D01*
X161713333Y-102809523D01*
X161592380Y-102749047D01*
X161531904Y-102688571D01*
%TO.C,U4*%
X102537380Y-80584523D02*
X102537380Y-81612619D01*
X102597857Y-81733571D01*
X102658333Y-81794047D01*
X102779285Y-81854523D01*
X103021190Y-81854523D01*
X103142142Y-81794047D01*
X103202619Y-81733571D01*
X103263095Y-81612619D01*
X103263095Y-80584523D01*
X104412142Y-81007857D02*
X104412142Y-81854523D01*
X104109761Y-80524047D02*
X103807380Y-81431190D01*
X104593571Y-81431190D01*
%TO.C,U5*%
X103172380Y-93284523D02*
X103172380Y-94312619D01*
X103232857Y-94433571D01*
X103293333Y-94494047D01*
X103414285Y-94554523D01*
X103656190Y-94554523D01*
X103777142Y-94494047D01*
X103837619Y-94433571D01*
X103898095Y-94312619D01*
X103898095Y-93284523D01*
X105107619Y-93284523D02*
X104502857Y-93284523D01*
X104442380Y-93889285D01*
X104502857Y-93828809D01*
X104623809Y-93768333D01*
X104926190Y-93768333D01*
X105047142Y-93828809D01*
X105107619Y-93889285D01*
X105168095Y-94010238D01*
X105168095Y-94312619D01*
X105107619Y-94433571D01*
X105047142Y-94494047D01*
X104926190Y-94554523D01*
X104623809Y-94554523D01*
X104502857Y-94494047D01*
X104442380Y-94433571D01*
%TO.C,C1*%
X186478333Y-91893571D02*
X186417857Y-91954047D01*
X186236428Y-92014523D01*
X186115476Y-92014523D01*
X185934047Y-91954047D01*
X185813095Y-91833095D01*
X185752619Y-91712142D01*
X185692142Y-91470238D01*
X185692142Y-91288809D01*
X185752619Y-91046904D01*
X185813095Y-90925952D01*
X185934047Y-90805000D01*
X186115476Y-90744523D01*
X186236428Y-90744523D01*
X186417857Y-90805000D01*
X186478333Y-90865476D01*
X187687857Y-92014523D02*
X186962142Y-92014523D01*
X187325000Y-92014523D02*
X187325000Y-90744523D01*
X187204047Y-90925952D01*
X187083095Y-91046904D01*
X186962142Y-91107380D01*
%TO.C,C2*%
X180128333Y-107768571D02*
X180067857Y-107829047D01*
X179886428Y-107889523D01*
X179765476Y-107889523D01*
X179584047Y-107829047D01*
X179463095Y-107708095D01*
X179402619Y-107587142D01*
X179342142Y-107345238D01*
X179342142Y-107163809D01*
X179402619Y-106921904D01*
X179463095Y-106800952D01*
X179584047Y-106680000D01*
X179765476Y-106619523D01*
X179886428Y-106619523D01*
X180067857Y-106680000D01*
X180128333Y-106740476D01*
X180612142Y-106740476D02*
X180672619Y-106680000D01*
X180793571Y-106619523D01*
X181095952Y-106619523D01*
X181216904Y-106680000D01*
X181277380Y-106740476D01*
X181337857Y-106861428D01*
X181337857Y-106982380D01*
X181277380Y-107163809D01*
X180551666Y-107889523D01*
X181337857Y-107889523D01*
%TO.C,C4*%
X103293333Y-123008571D02*
X103232857Y-123069047D01*
X103051428Y-123129523D01*
X102930476Y-123129523D01*
X102749047Y-123069047D01*
X102628095Y-122948095D01*
X102567619Y-122827142D01*
X102507142Y-122585238D01*
X102507142Y-122403809D01*
X102567619Y-122161904D01*
X102628095Y-122040952D01*
X102749047Y-121920000D01*
X102930476Y-121859523D01*
X103051428Y-121859523D01*
X103232857Y-121920000D01*
X103293333Y-121980476D01*
X104381904Y-122282857D02*
X104381904Y-123129523D01*
X104079523Y-121799047D02*
X103777142Y-122706190D01*
X104563333Y-122706190D01*
%TO.C,C5*%
X153458333Y-124278571D02*
X153397857Y-124339047D01*
X153216428Y-124399523D01*
X153095476Y-124399523D01*
X152914047Y-124339047D01*
X152793095Y-124218095D01*
X152732619Y-124097142D01*
X152672142Y-123855238D01*
X152672142Y-123673809D01*
X152732619Y-123431904D01*
X152793095Y-123310952D01*
X152914047Y-123190000D01*
X153095476Y-123129523D01*
X153216428Y-123129523D01*
X153397857Y-123190000D01*
X153458333Y-123250476D01*
X154607380Y-123129523D02*
X154002619Y-123129523D01*
X153942142Y-123734285D01*
X154002619Y-123673809D01*
X154123571Y-123613333D01*
X154425952Y-123613333D01*
X154546904Y-123673809D01*
X154607380Y-123734285D01*
X154667857Y-123855238D01*
X154667857Y-124157619D01*
X154607380Y-124278571D01*
X154546904Y-124339047D01*
X154425952Y-124399523D01*
X154123571Y-124399523D01*
X154002619Y-124339047D01*
X153942142Y-124278571D01*
%TO.C,C7*%
X140758333Y-91893571D02*
X140697857Y-91954047D01*
X140516428Y-92014523D01*
X140395476Y-92014523D01*
X140214047Y-91954047D01*
X140093095Y-91833095D01*
X140032619Y-91712142D01*
X139972142Y-91470238D01*
X139972142Y-91288809D01*
X140032619Y-91046904D01*
X140093095Y-90925952D01*
X140214047Y-90805000D01*
X140395476Y-90744523D01*
X140516428Y-90744523D01*
X140697857Y-90805000D01*
X140758333Y-90865476D01*
X141181666Y-90744523D02*
X142028333Y-90744523D01*
X141484047Y-92014523D01*
%TO.C,C9*%
X163618333Y-96978841D02*
X163557857Y-97039317D01*
X163376428Y-97099793D01*
X163255476Y-97099793D01*
X163074047Y-97039317D01*
X162953095Y-96918365D01*
X162892619Y-96797412D01*
X162832142Y-96555508D01*
X162832142Y-96374079D01*
X162892619Y-96132174D01*
X162953095Y-96011222D01*
X163074047Y-95890270D01*
X163255476Y-95829793D01*
X163376428Y-95829793D01*
X163557857Y-95890270D01*
X163618333Y-95950746D01*
X164223095Y-97099793D02*
X164465000Y-97099793D01*
X164585952Y-97039317D01*
X164646428Y-96978841D01*
X164767380Y-96797412D01*
X164827857Y-96555508D01*
X164827857Y-96071698D01*
X164767380Y-95950746D01*
X164706904Y-95890270D01*
X164585952Y-95829793D01*
X164344047Y-95829793D01*
X164223095Y-95890270D01*
X164162619Y-95950746D01*
X164102142Y-96071698D01*
X164102142Y-96374079D01*
X164162619Y-96495031D01*
X164223095Y-96555508D01*
X164344047Y-96615984D01*
X164585952Y-96615984D01*
X164706904Y-96555508D01*
X164767380Y-96495031D01*
X164827857Y-96374079D01*
%TO.C,C10*%
X106371571Y-82114571D02*
X106311095Y-82175047D01*
X106129666Y-82235523D01*
X106008714Y-82235523D01*
X105827285Y-82175047D01*
X105706333Y-82054095D01*
X105645857Y-81933142D01*
X105585380Y-81691238D01*
X105585380Y-81509809D01*
X105645857Y-81267904D01*
X105706333Y-81146952D01*
X105827285Y-81026000D01*
X106008714Y-80965523D01*
X106129666Y-80965523D01*
X106311095Y-81026000D01*
X106371571Y-81086476D01*
X107581095Y-82235523D02*
X106855380Y-82235523D01*
X107218238Y-82235523D02*
X107218238Y-80965523D01*
X107097285Y-81146952D01*
X106976333Y-81267904D01*
X106855380Y-81328380D01*
X108367285Y-80965523D02*
X108488238Y-80965523D01*
X108609190Y-81026000D01*
X108669666Y-81086476D01*
X108730142Y-81207428D01*
X108790619Y-81449333D01*
X108790619Y-81751714D01*
X108730142Y-81993619D01*
X108669666Y-82114571D01*
X108609190Y-82175047D01*
X108488238Y-82235523D01*
X108367285Y-82235523D01*
X108246333Y-82175047D01*
X108185857Y-82114571D01*
X108125380Y-81993619D01*
X108064904Y-81751714D01*
X108064904Y-81449333D01*
X108125380Y-81207428D01*
X108185857Y-81086476D01*
X108246333Y-81026000D01*
X108367285Y-80965523D01*
%TO.C,C11*%
X106371571Y-94814571D02*
X106311095Y-94875047D01*
X106129666Y-94935523D01*
X106008714Y-94935523D01*
X105827285Y-94875047D01*
X105706333Y-94754095D01*
X105645857Y-94633142D01*
X105585380Y-94391238D01*
X105585380Y-94209809D01*
X105645857Y-93967904D01*
X105706333Y-93846952D01*
X105827285Y-93726000D01*
X106008714Y-93665523D01*
X106129666Y-93665523D01*
X106311095Y-93726000D01*
X106371571Y-93786476D01*
X107581095Y-94935523D02*
X106855380Y-94935523D01*
X107218238Y-94935523D02*
X107218238Y-93665523D01*
X107097285Y-93846952D01*
X106976333Y-93967904D01*
X106855380Y-94028380D01*
X108790619Y-94935523D02*
X108064904Y-94935523D01*
X108427761Y-94935523D02*
X108427761Y-93665523D01*
X108306809Y-93846952D01*
X108185857Y-93967904D01*
X108064904Y-94028380D01*
%TO.C,J1*%
X95657056Y-125039793D02*
X95657056Y-125946936D01*
X95596580Y-126128365D01*
X95475628Y-126249317D01*
X95294199Y-126309793D01*
X95173247Y-126309793D01*
X96927056Y-126309793D02*
X96201342Y-126309793D01*
X96564199Y-126309793D02*
X96564199Y-125039793D01*
X96443247Y-125221222D01*
X96322294Y-125342174D01*
X96201342Y-125402650D01*
%TO.C,J2*%
X145187056Y-125039793D02*
X145187056Y-125946936D01*
X145126580Y-126128365D01*
X145005628Y-126249317D01*
X144824199Y-126309793D01*
X144703247Y-126309793D01*
X145731342Y-125160746D02*
X145791818Y-125100270D01*
X145912770Y-125039793D01*
X146215151Y-125039793D01*
X146336104Y-125100270D01*
X146396580Y-125160746D01*
X146457056Y-125281698D01*
X146457056Y-125402650D01*
X146396580Y-125584079D01*
X145670866Y-126309793D01*
X146457056Y-126309793D01*
%TO.C,J3*%
X158326666Y-85029523D02*
X158326666Y-85936666D01*
X158266190Y-86118095D01*
X158145238Y-86239047D01*
X157963809Y-86299523D01*
X157842857Y-86299523D01*
X158810476Y-85029523D02*
X159596666Y-85029523D01*
X159173333Y-85513333D01*
X159354761Y-85513333D01*
X159475714Y-85573809D01*
X159536190Y-85634285D01*
X159596666Y-85755238D01*
X159596666Y-86057619D01*
X159536190Y-86178571D01*
X159475714Y-86239047D01*
X159354761Y-86299523D01*
X158991904Y-86299523D01*
X158870952Y-86239047D01*
X158810476Y-86178571D01*
%TO.C,J4*%
X91016666Y-85029523D02*
X91016666Y-85936666D01*
X90956190Y-86118095D01*
X90835238Y-86239047D01*
X90653809Y-86299523D01*
X90532857Y-86299523D01*
X92165714Y-85452857D02*
X92165714Y-86299523D01*
X91863333Y-84969047D02*
X91560952Y-85876190D01*
X92347142Y-85876190D01*
%TO.C,R1*%
X191177333Y-104714523D02*
X190754000Y-104109761D01*
X190451619Y-104714523D02*
X190451619Y-103444523D01*
X190935428Y-103444523D01*
X191056380Y-103505000D01*
X191116857Y-103565476D01*
X191177333Y-103686428D01*
X191177333Y-103867857D01*
X191116857Y-103988809D01*
X191056380Y-104049285D01*
X190935428Y-104109761D01*
X190451619Y-104109761D01*
X192386857Y-104714523D02*
X191661142Y-104714523D01*
X192024000Y-104714523D02*
X192024000Y-103444523D01*
X191903047Y-103625952D01*
X191782095Y-103746904D01*
X191661142Y-103807380D01*
%TO.C,R3*%
X166158333Y-115509523D02*
X165735000Y-114904761D01*
X165432619Y-115509523D02*
X165432619Y-114239523D01*
X165916428Y-114239523D01*
X166037380Y-114300000D01*
X166097857Y-114360476D01*
X166158333Y-114481428D01*
X166158333Y-114662857D01*
X166097857Y-114783809D01*
X166037380Y-114844285D01*
X165916428Y-114904761D01*
X165432619Y-114904761D01*
X166581666Y-114239523D02*
X167367857Y-114239523D01*
X166944523Y-114723333D01*
X167125952Y-114723333D01*
X167246904Y-114783809D01*
X167307380Y-114844285D01*
X167367857Y-114965238D01*
X167367857Y-115267619D01*
X167307380Y-115388571D01*
X167246904Y-115449047D01*
X167125952Y-115509523D01*
X166763095Y-115509523D01*
X166642142Y-115449047D01*
X166581666Y-115388571D01*
%TO.C,R4*%
X106468333Y-107259793D02*
X106045000Y-106655031D01*
X105742619Y-107259793D02*
X105742619Y-105989793D01*
X106226428Y-105989793D01*
X106347380Y-106050270D01*
X106407857Y-106110746D01*
X106468333Y-106231698D01*
X106468333Y-106413127D01*
X106407857Y-106534079D01*
X106347380Y-106594555D01*
X106226428Y-106655031D01*
X105742619Y-106655031D01*
X107556904Y-106413127D02*
X107556904Y-107259793D01*
X107254523Y-105929317D02*
X106952142Y-106836460D01*
X107738333Y-106836460D01*
%TO.C,U2*%
X131747380Y-121224523D02*
X131747380Y-122252619D01*
X131807857Y-122373571D01*
X131868333Y-122434047D01*
X131989285Y-122494523D01*
X132231190Y-122494523D01*
X132352142Y-122434047D01*
X132412619Y-122373571D01*
X132473095Y-122252619D01*
X132473095Y-121224523D01*
X133017380Y-121345476D02*
X133077857Y-121285000D01*
X133198809Y-121224523D01*
X133501190Y-121224523D01*
X133622142Y-121285000D01*
X133682619Y-121345476D01*
X133743095Y-121466428D01*
X133743095Y-121587380D01*
X133682619Y-121768809D01*
X132956904Y-122494523D01*
X133743095Y-122494523D01*
X111699523Y-91651666D02*
X112304285Y-91651666D01*
X111578571Y-92014523D02*
X112001904Y-90744523D01*
X112425238Y-92014523D01*
X113574285Y-92014523D02*
X113150952Y-91409761D01*
X112848571Y-92014523D02*
X112848571Y-90744523D01*
X113332380Y-90744523D01*
X113453333Y-90805000D01*
X113513809Y-90865476D01*
X113574285Y-90986428D01*
X113574285Y-91167857D01*
X113513809Y-91288809D01*
X113453333Y-91349285D01*
X113332380Y-91409761D01*
X112848571Y-91409761D01*
X114118571Y-92014523D02*
X114118571Y-90744523D01*
X114420952Y-90744523D01*
X114602380Y-90805000D01*
X114723333Y-90925952D01*
X114783809Y-91046904D01*
X114844285Y-91288809D01*
X114844285Y-91470238D01*
X114783809Y-91712142D01*
X114723333Y-91833095D01*
X114602380Y-91954047D01*
X114420952Y-92014523D01*
X114118571Y-92014523D01*
X115388571Y-90744523D02*
X115388571Y-91772619D01*
X115449047Y-91893571D01*
X115509523Y-91954047D01*
X115630476Y-92014523D01*
X115872380Y-92014523D01*
X115993333Y-91954047D01*
X116053809Y-91893571D01*
X116114285Y-91772619D01*
X116114285Y-90744523D01*
X116719047Y-92014523D02*
X116719047Y-90744523D01*
X117323809Y-92014523D02*
X117323809Y-90744523D01*
X118049523Y-92014523D01*
X118049523Y-90744523D01*
X118896190Y-90744523D02*
X119138095Y-90744523D01*
X119259047Y-90805000D01*
X119380000Y-90925952D01*
X119440476Y-91167857D01*
X119440476Y-91591190D01*
X119380000Y-91833095D01*
X119259047Y-91954047D01*
X119138095Y-92014523D01*
X118896190Y-92014523D01*
X118775238Y-91954047D01*
X118654285Y-91833095D01*
X118593809Y-91591190D01*
X118593809Y-91167857D01*
X118654285Y-90925952D01*
X118775238Y-90805000D01*
X118896190Y-90744523D01*
X119682380Y-92135476D02*
X120650000Y-92135476D01*
X120952380Y-92014523D02*
X120952380Y-90744523D01*
X121436190Y-90744523D01*
X121557142Y-90805000D01*
X121617619Y-90865476D01*
X121678095Y-90986428D01*
X121678095Y-91167857D01*
X121617619Y-91288809D01*
X121557142Y-91349285D01*
X121436190Y-91409761D01*
X120952380Y-91409761D01*
X122222380Y-92014523D02*
X122222380Y-91167857D01*
X122222380Y-91409761D02*
X122282857Y-91288809D01*
X122343333Y-91228333D01*
X122464285Y-91167857D01*
X122585238Y-91167857D01*
X123190000Y-92014523D02*
X123069047Y-91954047D01*
X123008571Y-91893571D01*
X122948095Y-91772619D01*
X122948095Y-91409761D01*
X123008571Y-91288809D01*
X123069047Y-91228333D01*
X123190000Y-91167857D01*
X123371428Y-91167857D01*
X123492380Y-91228333D01*
X123552857Y-91288809D01*
X123613333Y-91409761D01*
X123613333Y-91772619D01*
X123552857Y-91893571D01*
X123492380Y-91954047D01*
X123371428Y-92014523D01*
X123190000Y-92014523D01*
X124157619Y-91530714D02*
X125125238Y-91530714D01*
X125730000Y-92014523D02*
X125730000Y-90744523D01*
X126153333Y-91651666D01*
X126576666Y-90744523D01*
X126576666Y-92014523D01*
X127181428Y-92014523D02*
X127181428Y-91167857D01*
X127181428Y-90744523D02*
X127120952Y-90805000D01*
X127181428Y-90865476D01*
X127241904Y-90805000D01*
X127181428Y-90744523D01*
X127181428Y-90865476D01*
X127786190Y-91167857D02*
X127786190Y-92014523D01*
X127786190Y-91288809D02*
X127846666Y-91228333D01*
X127967619Y-91167857D01*
X128149047Y-91167857D01*
X128270000Y-91228333D01*
X128330476Y-91349285D01*
X128330476Y-92014523D01*
X128935238Y-92014523D02*
X128935238Y-91167857D01*
X128935238Y-90744523D02*
X128874761Y-90805000D01*
X128935238Y-90865476D01*
X128995714Y-90805000D01*
X128935238Y-90744523D01*
X128935238Y-90865476D01*
X131112380Y-90744523D02*
X130507619Y-90744523D01*
X130447142Y-91349285D01*
X130507619Y-91288809D01*
X130628571Y-91228333D01*
X130930952Y-91228333D01*
X131051904Y-91288809D01*
X131112380Y-91349285D01*
X131172857Y-91470238D01*
X131172857Y-91772619D01*
X131112380Y-91893571D01*
X131051904Y-91954047D01*
X130930952Y-92014523D01*
X130628571Y-92014523D01*
X130507619Y-91954047D01*
X130447142Y-91893571D01*
X131596190Y-91167857D02*
X131898571Y-92014523D01*
X132200952Y-91167857D01*
%TD*%
M02*
