%TF.GenerationSoftware,KiCad,Pcbnew,(5.0.0-rc2-100-g6d77e594b)*%
%TF.CreationDate,2018-06-08T00:04:51-04:00*%
%TF.ProjectId,Logic&Oscillator,4C6F676963264F7363696C6C61746F72,1.0.2*%
%TF.SameCoordinates,Original*%
%TF.FileFunction,Legend,Bot*%
%TF.FilePolarity,Positive*%
%FSLAX46Y46*%
G04 Gerber Fmt 4.6, Leading zero omitted, Abs format (unit mm)*
G04 Created by KiCad (PCBNEW (5.0.0-rc2-100-g6d77e594b)) date 06/08/18 00:04:51*
%MOMM*%
%LPD*%
G01*
G04 APERTURE LIST*
%ADD10C,0.200000*%
%ADD11C,0.300000*%
%ADD12C,0.600000*%
%ADD13C,0.002540*%
%ADD14C,0.010000*%
G04 APERTURE END LIST*
D10*
X135447857Y-85279761D02*
X135310952Y-85327380D01*
X135072857Y-85327380D01*
X134971666Y-85279761D01*
X134918095Y-85232142D01*
X134858571Y-85136904D01*
X134846666Y-85041666D01*
X134882380Y-84946428D01*
X134924047Y-84898809D01*
X135013333Y-84851190D01*
X135197857Y-84803571D01*
X135287142Y-84755952D01*
X135328809Y-84708333D01*
X135364523Y-84613095D01*
X135352619Y-84517857D01*
X135293095Y-84422619D01*
X135239523Y-84375000D01*
X135138333Y-84327380D01*
X134900238Y-84327380D01*
X134763333Y-84375000D01*
X134066904Y-85279761D02*
X134168095Y-85327380D01*
X134358571Y-85327380D01*
X134447857Y-85279761D01*
X134483571Y-85184523D01*
X134435952Y-84803571D01*
X134376428Y-84708333D01*
X134275238Y-84660714D01*
X134084761Y-84660714D01*
X133995476Y-84708333D01*
X133959761Y-84803571D01*
X133971666Y-84898809D01*
X134459761Y-84994047D01*
X133596666Y-85327380D02*
X133513333Y-84660714D01*
X133525238Y-84755952D02*
X133471666Y-84708333D01*
X133370476Y-84660714D01*
X133227619Y-84660714D01*
X133138333Y-84708333D01*
X133102619Y-84803571D01*
X133168095Y-85327380D01*
X133102619Y-84803571D02*
X133043095Y-84708333D01*
X132941904Y-84660714D01*
X132799047Y-84660714D01*
X132709761Y-84708333D01*
X132674047Y-84803571D01*
X132739523Y-85327380D01*
X132263333Y-85327380D02*
X132138333Y-84327380D01*
X132185952Y-84708333D02*
X132084761Y-84660714D01*
X131894285Y-84660714D01*
X131805000Y-84708333D01*
X131763333Y-84755952D01*
X131727619Y-84851190D01*
X131763333Y-85136904D01*
X131822857Y-85232142D01*
X131876428Y-85279761D01*
X131977619Y-85327380D01*
X132168095Y-85327380D01*
X132257380Y-85279761D01*
X130930000Y-85327380D02*
X130864523Y-84803571D01*
X130900238Y-84708333D01*
X130989523Y-84660714D01*
X131180000Y-84660714D01*
X131281190Y-84708333D01*
X130924047Y-85279761D02*
X131025238Y-85327380D01*
X131263333Y-85327380D01*
X131352619Y-85279761D01*
X131388333Y-85184523D01*
X131376428Y-85089285D01*
X131316904Y-84994047D01*
X131215714Y-84946428D01*
X130977619Y-84946428D01*
X130876428Y-84898809D01*
X130465714Y-84660714D02*
X129941904Y-84660714D01*
X130549047Y-85327380D01*
X130025238Y-85327380D01*
X129132380Y-84660714D02*
X129215714Y-85327380D01*
X129560952Y-84660714D02*
X129626428Y-85184523D01*
X129590714Y-85279761D01*
X129501428Y-85327380D01*
X129358571Y-85327380D01*
X129257380Y-85279761D01*
X129203809Y-85232142D01*
X128739523Y-85327380D02*
X128656190Y-84660714D01*
X128680000Y-84851190D02*
X128620476Y-84755952D01*
X128566904Y-84708333D01*
X128465714Y-84660714D01*
X128370476Y-84660714D01*
X127608571Y-84660714D02*
X127691904Y-85327380D01*
X128037142Y-84660714D02*
X128102619Y-85184523D01*
X128066904Y-85279761D01*
X127977619Y-85327380D01*
X127834761Y-85327380D01*
X127733571Y-85279761D01*
X127680000Y-85232142D01*
X133584761Y-86932142D02*
X133638333Y-86979761D01*
X133787142Y-87027380D01*
X133882380Y-87027380D01*
X134019285Y-86979761D01*
X134102619Y-86884523D01*
X134138333Y-86789285D01*
X134162142Y-86598809D01*
X134144285Y-86455952D01*
X134072857Y-86265476D01*
X134013333Y-86170238D01*
X133906190Y-86075000D01*
X133757380Y-86027380D01*
X133662142Y-86027380D01*
X133525238Y-86075000D01*
X133483571Y-86122619D01*
X133168095Y-87027380D02*
X133084761Y-86360714D01*
X133043095Y-86027380D02*
X133096666Y-86075000D01*
X133055000Y-86122619D01*
X133001428Y-86075000D01*
X133043095Y-86027380D01*
X133055000Y-86122619D01*
X132691904Y-87027380D02*
X132608571Y-86360714D01*
X132632380Y-86551190D02*
X132572857Y-86455952D01*
X132519285Y-86408333D01*
X132418095Y-86360714D01*
X132322857Y-86360714D01*
X131638333Y-86979761D02*
X131739523Y-87027380D01*
X131930000Y-87027380D01*
X132019285Y-86979761D01*
X132060952Y-86932142D01*
X132096666Y-86836904D01*
X132060952Y-86551190D01*
X132001428Y-86455952D01*
X131947857Y-86408333D01*
X131846666Y-86360714D01*
X131656190Y-86360714D01*
X131566904Y-86408333D01*
X130703809Y-86360714D02*
X130787142Y-87027380D01*
X131132380Y-86360714D02*
X131197857Y-86884523D01*
X131162142Y-86979761D01*
X131072857Y-87027380D01*
X130930000Y-87027380D01*
X130828809Y-86979761D01*
X130775238Y-86932142D01*
X130310952Y-87027380D02*
X130227619Y-86360714D01*
X130185952Y-86027380D02*
X130239523Y-86075000D01*
X130197857Y-86122619D01*
X130144285Y-86075000D01*
X130185952Y-86027380D01*
X130197857Y-86122619D01*
X129894285Y-86360714D02*
X129513333Y-86360714D01*
X129709761Y-86027380D02*
X129816904Y-86884523D01*
X129781190Y-86979761D01*
X129691904Y-87027380D01*
X129596666Y-87027380D01*
X129305000Y-86979761D02*
X129215714Y-87027380D01*
X129025238Y-87027380D01*
X128924047Y-86979761D01*
X128864523Y-86884523D01*
X128858571Y-86836904D01*
X128894285Y-86741666D01*
X128983571Y-86694047D01*
X129126428Y-86694047D01*
X129215714Y-86646428D01*
X129251428Y-86551190D01*
X129245476Y-86503571D01*
X129185952Y-86408333D01*
X129084761Y-86360714D01*
X128941904Y-86360714D01*
X128852619Y-86408333D01*
D11*
X117057857Y-86403571D02*
X117057857Y-84903571D01*
X116700714Y-84903571D01*
X116486428Y-84975000D01*
X116343571Y-85117857D01*
X116272142Y-85260714D01*
X116200714Y-85546428D01*
X116200714Y-85760714D01*
X116272142Y-86046428D01*
X116343571Y-86189285D01*
X116486428Y-86332142D01*
X116700714Y-86403571D01*
X117057857Y-86403571D01*
X115557857Y-86403571D02*
X115557857Y-84903571D01*
X114557857Y-85689285D02*
X114557857Y-86403571D01*
X115057857Y-84903571D02*
X114557857Y-85689285D01*
X114057857Y-84903571D01*
X112415000Y-86403571D02*
X112415000Y-84903571D01*
X112057857Y-84903571D01*
X111843571Y-84975000D01*
X111700714Y-85117857D01*
X111629285Y-85260714D01*
X111557857Y-85546428D01*
X111557857Y-85760714D01*
X111629285Y-86046428D01*
X111700714Y-86189285D01*
X111843571Y-86332142D01*
X112057857Y-86403571D01*
X112415000Y-86403571D01*
X110915000Y-85617857D02*
X110415000Y-85617857D01*
X110200714Y-86403571D02*
X110915000Y-86403571D01*
X110915000Y-84903571D01*
X110200714Y-84903571D01*
D12*
X116522142Y-82335714D02*
X116093571Y-82478571D01*
X115950714Y-82621428D01*
X115807857Y-82907142D01*
X115807857Y-83335714D01*
X115950714Y-83621428D01*
X116093571Y-83764285D01*
X116379285Y-83907142D01*
X117522142Y-83907142D01*
X117522142Y-80907142D01*
X116522142Y-80907142D01*
X116236428Y-81050000D01*
X116093571Y-81192857D01*
X115950714Y-81478571D01*
X115950714Y-81764285D01*
X116093571Y-82050000D01*
X116236428Y-82192857D01*
X116522142Y-82335714D01*
X117522142Y-82335714D01*
X114093571Y-83907142D02*
X114379285Y-83764285D01*
X114522142Y-83621428D01*
X114665000Y-83335714D01*
X114665000Y-82478571D01*
X114522142Y-82192857D01*
X114379285Y-82050000D01*
X114093571Y-81907142D01*
X113665000Y-81907142D01*
X113379285Y-82050000D01*
X113236428Y-82192857D01*
X113093571Y-82478571D01*
X113093571Y-83335714D01*
X113236428Y-83621428D01*
X113379285Y-83764285D01*
X113665000Y-83907142D01*
X114093571Y-83907142D01*
X111807857Y-83907142D02*
X111807857Y-80907142D01*
X110807857Y-83050000D01*
X109807857Y-80907142D01*
X109807857Y-83907142D01*
D13*
%TO.C,G\002A\002A\002A*%
G36*
X126362460Y-82191860D02*
X126365000Y-82209640D01*
X126390400Y-82212180D01*
X126446280Y-82207100D01*
X126558040Y-82194400D01*
X126707900Y-82184240D01*
X126885700Y-82174080D01*
X127091440Y-82169000D01*
X127314960Y-82161380D01*
X127548640Y-82156300D01*
X127792480Y-82156300D01*
X128038860Y-82156300D01*
X128178560Y-82156300D01*
X128178560Y-81584800D01*
X128196340Y-81569560D01*
X128244600Y-81534000D01*
X128315720Y-81485740D01*
X128404620Y-81427320D01*
X128506220Y-81363820D01*
X128612900Y-81295240D01*
X128722120Y-81229200D01*
X128772920Y-81198720D01*
X128945640Y-81102200D01*
X129113280Y-81015840D01*
X129270760Y-80942180D01*
X129405380Y-80886300D01*
X129448560Y-80871060D01*
X129529840Y-80848200D01*
X129590800Y-80835500D01*
X129654300Y-80838040D01*
X129735580Y-80850740D01*
X129740660Y-80850740D01*
X129872740Y-80876140D01*
X130037840Y-80914240D01*
X130228340Y-80962500D01*
X130434080Y-81018380D01*
X130520440Y-81041240D01*
X130578860Y-81059020D01*
X130632200Y-81076800D01*
X130683000Y-81097120D01*
X130736340Y-81122520D01*
X130794760Y-81155540D01*
X130868420Y-81198720D01*
X130926840Y-81236820D01*
X130926840Y-80662780D01*
X130939540Y-80645000D01*
X130980180Y-80614520D01*
X131041140Y-80581500D01*
X131112260Y-80548480D01*
X131183380Y-80525620D01*
X131203700Y-80518000D01*
X131279900Y-80505300D01*
X131338320Y-80507840D01*
X131381500Y-80520540D01*
X131455160Y-80553560D01*
X131561840Y-80609440D01*
X131696460Y-80683100D01*
X131851400Y-80777080D01*
X132024120Y-80886300D01*
X132059680Y-80909160D01*
X132328920Y-81084420D01*
X132316220Y-81277460D01*
X132303520Y-81434940D01*
X132293360Y-81551780D01*
X132283200Y-81638140D01*
X132273040Y-81694020D01*
X132262880Y-81721960D01*
X132252720Y-81732120D01*
X132224780Y-81719420D01*
X132181600Y-81686400D01*
X132176520Y-81683860D01*
X132148580Y-81658460D01*
X132092700Y-81610200D01*
X132011420Y-81544160D01*
X131909820Y-81462880D01*
X131790440Y-81366360D01*
X131658360Y-81262220D01*
X131526280Y-81155540D01*
X131394200Y-81046320D01*
X131267200Y-80944720D01*
X131155440Y-80855820D01*
X131061460Y-80777080D01*
X130990340Y-80718660D01*
X130944620Y-80678020D01*
X130926840Y-80662780D01*
X130926840Y-81236820D01*
X130957320Y-81254600D01*
X131069080Y-81328260D01*
X131206240Y-81422240D01*
X131315460Y-81493360D01*
X131452620Y-81587340D01*
X131579620Y-81673700D01*
X131691380Y-81752440D01*
X131782820Y-81815940D01*
X131851400Y-81864200D01*
X131892040Y-81892140D01*
X131899660Y-81902300D01*
X131884420Y-81912460D01*
X131836160Y-81922620D01*
X131754880Y-81927700D01*
X131653280Y-81930240D01*
X131536440Y-81930240D01*
X131409440Y-81927700D01*
X131279900Y-81925160D01*
X131150360Y-81917540D01*
X131030980Y-81907380D01*
X130926840Y-81897220D01*
X130870960Y-81887060D01*
X130766820Y-81869280D01*
X130644900Y-81843880D01*
X130530600Y-81818480D01*
X130512820Y-81815940D01*
X130210560Y-81749900D01*
X129887980Y-81696560D01*
X129560320Y-81650840D01*
X129235200Y-81617820D01*
X128922780Y-81594960D01*
X128633220Y-81587340D01*
X128450340Y-81589880D01*
X128348740Y-81592420D01*
X128264920Y-81592420D01*
X128206500Y-81589880D01*
X128181100Y-81587340D01*
X128178560Y-81584800D01*
X128178560Y-82156300D01*
X128252220Y-82158840D01*
X128496060Y-82161380D01*
X128704340Y-82169000D01*
X128887220Y-82174080D01*
X129047240Y-82184240D01*
X129197100Y-82196940D01*
X129344420Y-82214720D01*
X129491740Y-82235040D01*
X129649220Y-82262980D01*
X129824480Y-82296000D01*
X130022600Y-82334100D01*
X130304540Y-82392520D01*
X130423920Y-82758280D01*
X130464560Y-82875120D01*
X130500120Y-82979260D01*
X130530600Y-83060540D01*
X130553460Y-83118960D01*
X130563620Y-83141820D01*
X130596640Y-83157060D01*
X130662680Y-83179920D01*
X130756660Y-83205320D01*
X130865880Y-83230720D01*
X130990340Y-83258660D01*
X131114800Y-83286600D01*
X131236720Y-83309460D01*
X131348480Y-83327240D01*
X131439920Y-83339940D01*
X131503420Y-83345020D01*
X131577080Y-83342480D01*
X131640580Y-83327240D01*
X131711700Y-83301840D01*
X131790440Y-83261200D01*
X131953000Y-83177380D01*
X132115560Y-83281520D01*
X132217160Y-83345020D01*
X132336540Y-83421220D01*
X132468620Y-83499960D01*
X132603240Y-83581240D01*
X132735320Y-83659980D01*
X132857240Y-83733640D01*
X132963920Y-83794600D01*
X133047740Y-83842860D01*
X133096000Y-83868260D01*
X133187440Y-83911440D01*
X133248400Y-83934300D01*
X133286500Y-83939380D01*
X133286500Y-80177640D01*
X133286500Y-80157320D01*
X133289040Y-80154780D01*
X133309360Y-80149700D01*
X133367780Y-80139540D01*
X133459220Y-80121760D01*
X133576060Y-80101440D01*
X133713220Y-80076040D01*
X133870700Y-80048100D01*
X133987540Y-80027780D01*
X134269480Y-79982060D01*
X134510780Y-79938880D01*
X134716520Y-79903320D01*
X134886700Y-79875380D01*
X135026400Y-79849980D01*
X135138160Y-79832200D01*
X135221980Y-79816960D01*
X135280400Y-79804260D01*
X135321040Y-79796640D01*
X135333740Y-79794100D01*
X135371840Y-79794100D01*
X135376920Y-79811880D01*
X135361680Y-79832200D01*
X135321040Y-79877920D01*
X135252460Y-79946500D01*
X135166100Y-80037940D01*
X135059420Y-80147160D01*
X134937500Y-80269080D01*
X134802880Y-80406240D01*
X134658100Y-80548480D01*
X134614920Y-80589120D01*
X133858000Y-81335880D01*
X133682740Y-81226660D01*
X133601460Y-81173320D01*
X133527800Y-81127600D01*
X133474460Y-81092040D01*
X133456680Y-81079340D01*
X133433820Y-81059020D01*
X133418580Y-81028540D01*
X133403340Y-80982820D01*
X133388100Y-80911700D01*
X133370320Y-80805020D01*
X133367780Y-80787240D01*
X133339840Y-80591660D01*
X133316980Y-80434180D01*
X133299200Y-80314800D01*
X133289040Y-80230980D01*
X133286500Y-80177640D01*
X133286500Y-83939380D01*
X133291580Y-83941920D01*
X133322060Y-83934300D01*
X133332220Y-83929220D01*
X133360160Y-83898740D01*
X133385560Y-83842860D01*
X133390640Y-83830160D01*
X133408420Y-83774280D01*
X133421120Y-83733640D01*
X133423660Y-83728560D01*
X133441440Y-83718400D01*
X133489700Y-83733640D01*
X133522720Y-83748880D01*
X133522720Y-81881980D01*
X133543040Y-81879440D01*
X133578600Y-81897220D01*
X133626860Y-81930240D01*
X133680200Y-81978500D01*
X133733540Y-82031840D01*
X133779260Y-82087720D01*
X133802120Y-82120740D01*
X133855460Y-82214720D01*
X133789420Y-82471260D01*
X133758940Y-82588100D01*
X133738620Y-82671920D01*
X133723380Y-82725260D01*
X133710680Y-82758280D01*
X133703060Y-82773520D01*
X133695440Y-82778600D01*
X133690360Y-82778600D01*
X133680200Y-82758280D01*
X133667500Y-82704940D01*
X133652260Y-82621120D01*
X133631940Y-82514440D01*
X133609080Y-82389980D01*
X133606540Y-82362040D01*
X133583680Y-82232500D01*
X133563360Y-82118200D01*
X133548120Y-82021680D01*
X133532880Y-81950560D01*
X133525260Y-81915000D01*
X133525260Y-81912460D01*
X133522720Y-81881980D01*
X133522720Y-83748880D01*
X133535420Y-83756500D01*
X133611620Y-83789520D01*
X133685280Y-83809840D01*
X133720840Y-83814920D01*
X133769100Y-83809840D01*
X133807200Y-83786980D01*
X133837680Y-83746340D01*
X133860540Y-83680300D01*
X133875780Y-83583780D01*
X133888480Y-83454240D01*
X133896100Y-83324700D01*
X133901180Y-83200240D01*
X133908800Y-83103720D01*
X133916420Y-83024980D01*
X133931660Y-82953860D01*
X133954520Y-82877660D01*
X133985000Y-82783680D01*
X134005320Y-82727800D01*
X134053580Y-82585560D01*
X134086600Y-82473800D01*
X134109460Y-82387440D01*
X134117080Y-82318860D01*
X134114540Y-82260440D01*
X134104380Y-82202020D01*
X134094220Y-82171540D01*
X134061200Y-82067400D01*
X134147560Y-81894680D01*
X134193280Y-81808320D01*
X134239000Y-81732120D01*
X134274560Y-81673700D01*
X134287260Y-81658460D01*
X134310120Y-81633060D01*
X134360920Y-81579720D01*
X134434580Y-81503520D01*
X134531100Y-81404460D01*
X134645400Y-81287620D01*
X134774940Y-81153000D01*
X134917180Y-81005680D01*
X135069580Y-80850740D01*
X135229600Y-80685640D01*
X135232140Y-80685640D01*
X135455660Y-80457040D01*
X135653780Y-80256380D01*
X135826500Y-80081120D01*
X135973820Y-79928720D01*
X136100820Y-79799180D01*
X136204960Y-79692500D01*
X136291320Y-79601060D01*
X136359900Y-79529940D01*
X136415780Y-79471520D01*
X136456420Y-79428340D01*
X136484360Y-79395320D01*
X136504680Y-79372460D01*
X136514840Y-79357220D01*
X136519920Y-79349600D01*
X136519920Y-79344520D01*
X136514840Y-79339440D01*
X136484360Y-79336900D01*
X136428480Y-79341980D01*
X136382760Y-79347060D01*
X136331960Y-79354680D01*
X136248140Y-79369920D01*
X136136380Y-79385160D01*
X135999220Y-79405480D01*
X135849360Y-79425800D01*
X135686800Y-79448660D01*
X135653780Y-79453740D01*
X135348980Y-79494380D01*
X135056880Y-79535020D01*
X134774940Y-79575660D01*
X134510780Y-79613760D01*
X134264400Y-79649320D01*
X134043420Y-79679800D01*
X133850380Y-79710280D01*
X133687820Y-79733140D01*
X133560820Y-79753460D01*
X133497320Y-79766160D01*
X133400800Y-79781400D01*
X133322060Y-79791560D01*
X133263640Y-79794100D01*
X133243320Y-79791560D01*
X133235700Y-79766160D01*
X133223000Y-79710280D01*
X133212840Y-79634080D01*
X133200140Y-79547720D01*
X133189980Y-79463900D01*
X133184900Y-79392780D01*
X133182360Y-79352140D01*
X133182360Y-79331820D01*
X133192520Y-79319120D01*
X133210300Y-79316580D01*
X133248400Y-79321660D01*
X133309360Y-79339440D01*
X133395720Y-79367380D01*
X133517640Y-79408020D01*
X133537960Y-79413100D01*
X133670040Y-79453740D01*
X133797040Y-79486760D01*
X133906260Y-79504540D01*
X133929120Y-79509620D01*
X134007860Y-79514700D01*
X134053580Y-79514700D01*
X134076440Y-79507080D01*
X134081520Y-79489300D01*
X134081520Y-79481680D01*
X134068820Y-79453740D01*
X134023100Y-79413100D01*
X133946900Y-79357220D01*
X133855460Y-79301340D01*
X133761480Y-79240380D01*
X133687820Y-79194660D01*
X133631940Y-79151480D01*
X133581140Y-79110840D01*
X133530340Y-79060040D01*
X133471920Y-78996540D01*
X133400800Y-78912720D01*
X133334760Y-78833980D01*
X133258560Y-78742540D01*
X133182360Y-78656180D01*
X133118860Y-78587600D01*
X133073140Y-78536800D01*
X133060440Y-78521560D01*
X132994400Y-78463140D01*
X132760720Y-78506320D01*
X132626100Y-78534260D01*
X132532120Y-78562200D01*
X132471160Y-78590140D01*
X132440680Y-78618080D01*
X132435600Y-78653640D01*
X132438140Y-78663800D01*
X132448300Y-78706980D01*
X132458460Y-78755240D01*
X132463540Y-78813660D01*
X132463540Y-78887320D01*
X132461000Y-78978760D01*
X132453380Y-79090520D01*
X132443220Y-79230220D01*
X132427980Y-79397860D01*
X132410200Y-79601060D01*
X132389880Y-79799180D01*
X132374640Y-79943960D01*
X132270500Y-79969360D01*
X132194300Y-79984600D01*
X132097780Y-80002380D01*
X132013960Y-80017620D01*
X131950460Y-80027780D01*
X131907280Y-80037940D01*
X131876800Y-80053180D01*
X131859020Y-80083660D01*
X131846320Y-80134460D01*
X131833620Y-80213200D01*
X131818380Y-80327500D01*
X131805680Y-80411320D01*
X131795520Y-80474820D01*
X131785360Y-80515460D01*
X131782820Y-80520540D01*
X131759960Y-80510380D01*
X131711700Y-80482440D01*
X131643120Y-80444340D01*
X131605020Y-80421480D01*
X131511040Y-80370680D01*
X131439920Y-80337660D01*
X131373880Y-80319880D01*
X131315460Y-80314800D01*
X131193540Y-80304640D01*
X131000500Y-80073500D01*
X130929380Y-79984600D01*
X130837940Y-79872840D01*
X130736340Y-79745840D01*
X130629660Y-79613760D01*
X130522980Y-79481680D01*
X130492500Y-79443580D01*
X130238500Y-79123540D01*
X130007360Y-78833980D01*
X129801620Y-78577440D01*
X129618740Y-78348840D01*
X129458720Y-78145640D01*
X129319020Y-77972920D01*
X129197100Y-77823060D01*
X129098040Y-77701140D01*
X129014220Y-77599540D01*
X128948180Y-77520800D01*
X128897380Y-77462380D01*
X128861820Y-77424280D01*
X128841500Y-77403960D01*
X128833880Y-77401420D01*
X128838960Y-77429360D01*
X128861820Y-77495400D01*
X128902460Y-77599540D01*
X128955800Y-77736700D01*
X129026920Y-77909420D01*
X129110740Y-78117700D01*
X129209800Y-78356460D01*
X129324100Y-78625700D01*
X129362200Y-78719680D01*
X129413000Y-78836520D01*
X129484120Y-78983840D01*
X129567940Y-79159100D01*
X129664460Y-79352140D01*
X129768600Y-79562960D01*
X129882900Y-79781400D01*
X129999740Y-80007460D01*
X130119120Y-80230980D01*
X130167380Y-80319880D01*
X130223260Y-80424020D01*
X130271520Y-80515460D01*
X130307080Y-80589120D01*
X130329940Y-80634840D01*
X130335020Y-80647540D01*
X130319780Y-80662780D01*
X130286760Y-80660240D01*
X130261360Y-80647540D01*
X130230880Y-80632300D01*
X130169920Y-80604360D01*
X130086100Y-80571340D01*
X129987040Y-80533240D01*
X129882900Y-80495140D01*
X129783840Y-80459580D01*
X129760980Y-80454500D01*
X129611120Y-80416400D01*
X129453640Y-80406240D01*
X129446020Y-80406240D01*
X129374900Y-80406240D01*
X129319020Y-80411320D01*
X129265680Y-80421480D01*
X129204720Y-80444340D01*
X129128520Y-80479900D01*
X129037080Y-80523080D01*
X128917700Y-80584040D01*
X128785620Y-80652620D01*
X128661160Y-80723740D01*
X128584960Y-80769460D01*
X128442720Y-80858360D01*
X128272540Y-80967580D01*
X128076960Y-81089500D01*
X127866140Y-81221580D01*
X127645160Y-81361280D01*
X127419100Y-81503520D01*
X127198120Y-81643220D01*
X126984760Y-81775300D01*
X126906020Y-81826100D01*
X126771400Y-81912460D01*
X126646940Y-81991200D01*
X126542800Y-82059780D01*
X126456440Y-82118200D01*
X126395480Y-82161380D01*
X126365000Y-82186780D01*
X126362460Y-82191860D01*
X126362460Y-82191860D01*
G37*
X126362460Y-82191860D02*
X126365000Y-82209640D01*
X126390400Y-82212180D01*
X126446280Y-82207100D01*
X126558040Y-82194400D01*
X126707900Y-82184240D01*
X126885700Y-82174080D01*
X127091440Y-82169000D01*
X127314960Y-82161380D01*
X127548640Y-82156300D01*
X127792480Y-82156300D01*
X128038860Y-82156300D01*
X128178560Y-82156300D01*
X128178560Y-81584800D01*
X128196340Y-81569560D01*
X128244600Y-81534000D01*
X128315720Y-81485740D01*
X128404620Y-81427320D01*
X128506220Y-81363820D01*
X128612900Y-81295240D01*
X128722120Y-81229200D01*
X128772920Y-81198720D01*
X128945640Y-81102200D01*
X129113280Y-81015840D01*
X129270760Y-80942180D01*
X129405380Y-80886300D01*
X129448560Y-80871060D01*
X129529840Y-80848200D01*
X129590800Y-80835500D01*
X129654300Y-80838040D01*
X129735580Y-80850740D01*
X129740660Y-80850740D01*
X129872740Y-80876140D01*
X130037840Y-80914240D01*
X130228340Y-80962500D01*
X130434080Y-81018380D01*
X130520440Y-81041240D01*
X130578860Y-81059020D01*
X130632200Y-81076800D01*
X130683000Y-81097120D01*
X130736340Y-81122520D01*
X130794760Y-81155540D01*
X130868420Y-81198720D01*
X130926840Y-81236820D01*
X130926840Y-80662780D01*
X130939540Y-80645000D01*
X130980180Y-80614520D01*
X131041140Y-80581500D01*
X131112260Y-80548480D01*
X131183380Y-80525620D01*
X131203700Y-80518000D01*
X131279900Y-80505300D01*
X131338320Y-80507840D01*
X131381500Y-80520540D01*
X131455160Y-80553560D01*
X131561840Y-80609440D01*
X131696460Y-80683100D01*
X131851400Y-80777080D01*
X132024120Y-80886300D01*
X132059680Y-80909160D01*
X132328920Y-81084420D01*
X132316220Y-81277460D01*
X132303520Y-81434940D01*
X132293360Y-81551780D01*
X132283200Y-81638140D01*
X132273040Y-81694020D01*
X132262880Y-81721960D01*
X132252720Y-81732120D01*
X132224780Y-81719420D01*
X132181600Y-81686400D01*
X132176520Y-81683860D01*
X132148580Y-81658460D01*
X132092700Y-81610200D01*
X132011420Y-81544160D01*
X131909820Y-81462880D01*
X131790440Y-81366360D01*
X131658360Y-81262220D01*
X131526280Y-81155540D01*
X131394200Y-81046320D01*
X131267200Y-80944720D01*
X131155440Y-80855820D01*
X131061460Y-80777080D01*
X130990340Y-80718660D01*
X130944620Y-80678020D01*
X130926840Y-80662780D01*
X130926840Y-81236820D01*
X130957320Y-81254600D01*
X131069080Y-81328260D01*
X131206240Y-81422240D01*
X131315460Y-81493360D01*
X131452620Y-81587340D01*
X131579620Y-81673700D01*
X131691380Y-81752440D01*
X131782820Y-81815940D01*
X131851400Y-81864200D01*
X131892040Y-81892140D01*
X131899660Y-81902300D01*
X131884420Y-81912460D01*
X131836160Y-81922620D01*
X131754880Y-81927700D01*
X131653280Y-81930240D01*
X131536440Y-81930240D01*
X131409440Y-81927700D01*
X131279900Y-81925160D01*
X131150360Y-81917540D01*
X131030980Y-81907380D01*
X130926840Y-81897220D01*
X130870960Y-81887060D01*
X130766820Y-81869280D01*
X130644900Y-81843880D01*
X130530600Y-81818480D01*
X130512820Y-81815940D01*
X130210560Y-81749900D01*
X129887980Y-81696560D01*
X129560320Y-81650840D01*
X129235200Y-81617820D01*
X128922780Y-81594960D01*
X128633220Y-81587340D01*
X128450340Y-81589880D01*
X128348740Y-81592420D01*
X128264920Y-81592420D01*
X128206500Y-81589880D01*
X128181100Y-81587340D01*
X128178560Y-81584800D01*
X128178560Y-82156300D01*
X128252220Y-82158840D01*
X128496060Y-82161380D01*
X128704340Y-82169000D01*
X128887220Y-82174080D01*
X129047240Y-82184240D01*
X129197100Y-82196940D01*
X129344420Y-82214720D01*
X129491740Y-82235040D01*
X129649220Y-82262980D01*
X129824480Y-82296000D01*
X130022600Y-82334100D01*
X130304540Y-82392520D01*
X130423920Y-82758280D01*
X130464560Y-82875120D01*
X130500120Y-82979260D01*
X130530600Y-83060540D01*
X130553460Y-83118960D01*
X130563620Y-83141820D01*
X130596640Y-83157060D01*
X130662680Y-83179920D01*
X130756660Y-83205320D01*
X130865880Y-83230720D01*
X130990340Y-83258660D01*
X131114800Y-83286600D01*
X131236720Y-83309460D01*
X131348480Y-83327240D01*
X131439920Y-83339940D01*
X131503420Y-83345020D01*
X131577080Y-83342480D01*
X131640580Y-83327240D01*
X131711700Y-83301840D01*
X131790440Y-83261200D01*
X131953000Y-83177380D01*
X132115560Y-83281520D01*
X132217160Y-83345020D01*
X132336540Y-83421220D01*
X132468620Y-83499960D01*
X132603240Y-83581240D01*
X132735320Y-83659980D01*
X132857240Y-83733640D01*
X132963920Y-83794600D01*
X133047740Y-83842860D01*
X133096000Y-83868260D01*
X133187440Y-83911440D01*
X133248400Y-83934300D01*
X133286500Y-83939380D01*
X133286500Y-80177640D01*
X133286500Y-80157320D01*
X133289040Y-80154780D01*
X133309360Y-80149700D01*
X133367780Y-80139540D01*
X133459220Y-80121760D01*
X133576060Y-80101440D01*
X133713220Y-80076040D01*
X133870700Y-80048100D01*
X133987540Y-80027780D01*
X134269480Y-79982060D01*
X134510780Y-79938880D01*
X134716520Y-79903320D01*
X134886700Y-79875380D01*
X135026400Y-79849980D01*
X135138160Y-79832200D01*
X135221980Y-79816960D01*
X135280400Y-79804260D01*
X135321040Y-79796640D01*
X135333740Y-79794100D01*
X135371840Y-79794100D01*
X135376920Y-79811880D01*
X135361680Y-79832200D01*
X135321040Y-79877920D01*
X135252460Y-79946500D01*
X135166100Y-80037940D01*
X135059420Y-80147160D01*
X134937500Y-80269080D01*
X134802880Y-80406240D01*
X134658100Y-80548480D01*
X134614920Y-80589120D01*
X133858000Y-81335880D01*
X133682740Y-81226660D01*
X133601460Y-81173320D01*
X133527800Y-81127600D01*
X133474460Y-81092040D01*
X133456680Y-81079340D01*
X133433820Y-81059020D01*
X133418580Y-81028540D01*
X133403340Y-80982820D01*
X133388100Y-80911700D01*
X133370320Y-80805020D01*
X133367780Y-80787240D01*
X133339840Y-80591660D01*
X133316980Y-80434180D01*
X133299200Y-80314800D01*
X133289040Y-80230980D01*
X133286500Y-80177640D01*
X133286500Y-83939380D01*
X133291580Y-83941920D01*
X133322060Y-83934300D01*
X133332220Y-83929220D01*
X133360160Y-83898740D01*
X133385560Y-83842860D01*
X133390640Y-83830160D01*
X133408420Y-83774280D01*
X133421120Y-83733640D01*
X133423660Y-83728560D01*
X133441440Y-83718400D01*
X133489700Y-83733640D01*
X133522720Y-83748880D01*
X133522720Y-81881980D01*
X133543040Y-81879440D01*
X133578600Y-81897220D01*
X133626860Y-81930240D01*
X133680200Y-81978500D01*
X133733540Y-82031840D01*
X133779260Y-82087720D01*
X133802120Y-82120740D01*
X133855460Y-82214720D01*
X133789420Y-82471260D01*
X133758940Y-82588100D01*
X133738620Y-82671920D01*
X133723380Y-82725260D01*
X133710680Y-82758280D01*
X133703060Y-82773520D01*
X133695440Y-82778600D01*
X133690360Y-82778600D01*
X133680200Y-82758280D01*
X133667500Y-82704940D01*
X133652260Y-82621120D01*
X133631940Y-82514440D01*
X133609080Y-82389980D01*
X133606540Y-82362040D01*
X133583680Y-82232500D01*
X133563360Y-82118200D01*
X133548120Y-82021680D01*
X133532880Y-81950560D01*
X133525260Y-81915000D01*
X133525260Y-81912460D01*
X133522720Y-81881980D01*
X133522720Y-83748880D01*
X133535420Y-83756500D01*
X133611620Y-83789520D01*
X133685280Y-83809840D01*
X133720840Y-83814920D01*
X133769100Y-83809840D01*
X133807200Y-83786980D01*
X133837680Y-83746340D01*
X133860540Y-83680300D01*
X133875780Y-83583780D01*
X133888480Y-83454240D01*
X133896100Y-83324700D01*
X133901180Y-83200240D01*
X133908800Y-83103720D01*
X133916420Y-83024980D01*
X133931660Y-82953860D01*
X133954520Y-82877660D01*
X133985000Y-82783680D01*
X134005320Y-82727800D01*
X134053580Y-82585560D01*
X134086600Y-82473800D01*
X134109460Y-82387440D01*
X134117080Y-82318860D01*
X134114540Y-82260440D01*
X134104380Y-82202020D01*
X134094220Y-82171540D01*
X134061200Y-82067400D01*
X134147560Y-81894680D01*
X134193280Y-81808320D01*
X134239000Y-81732120D01*
X134274560Y-81673700D01*
X134287260Y-81658460D01*
X134310120Y-81633060D01*
X134360920Y-81579720D01*
X134434580Y-81503520D01*
X134531100Y-81404460D01*
X134645400Y-81287620D01*
X134774940Y-81153000D01*
X134917180Y-81005680D01*
X135069580Y-80850740D01*
X135229600Y-80685640D01*
X135232140Y-80685640D01*
X135455660Y-80457040D01*
X135653780Y-80256380D01*
X135826500Y-80081120D01*
X135973820Y-79928720D01*
X136100820Y-79799180D01*
X136204960Y-79692500D01*
X136291320Y-79601060D01*
X136359900Y-79529940D01*
X136415780Y-79471520D01*
X136456420Y-79428340D01*
X136484360Y-79395320D01*
X136504680Y-79372460D01*
X136514840Y-79357220D01*
X136519920Y-79349600D01*
X136519920Y-79344520D01*
X136514840Y-79339440D01*
X136484360Y-79336900D01*
X136428480Y-79341980D01*
X136382760Y-79347060D01*
X136331960Y-79354680D01*
X136248140Y-79369920D01*
X136136380Y-79385160D01*
X135999220Y-79405480D01*
X135849360Y-79425800D01*
X135686800Y-79448660D01*
X135653780Y-79453740D01*
X135348980Y-79494380D01*
X135056880Y-79535020D01*
X134774940Y-79575660D01*
X134510780Y-79613760D01*
X134264400Y-79649320D01*
X134043420Y-79679800D01*
X133850380Y-79710280D01*
X133687820Y-79733140D01*
X133560820Y-79753460D01*
X133497320Y-79766160D01*
X133400800Y-79781400D01*
X133322060Y-79791560D01*
X133263640Y-79794100D01*
X133243320Y-79791560D01*
X133235700Y-79766160D01*
X133223000Y-79710280D01*
X133212840Y-79634080D01*
X133200140Y-79547720D01*
X133189980Y-79463900D01*
X133184900Y-79392780D01*
X133182360Y-79352140D01*
X133182360Y-79331820D01*
X133192520Y-79319120D01*
X133210300Y-79316580D01*
X133248400Y-79321660D01*
X133309360Y-79339440D01*
X133395720Y-79367380D01*
X133517640Y-79408020D01*
X133537960Y-79413100D01*
X133670040Y-79453740D01*
X133797040Y-79486760D01*
X133906260Y-79504540D01*
X133929120Y-79509620D01*
X134007860Y-79514700D01*
X134053580Y-79514700D01*
X134076440Y-79507080D01*
X134081520Y-79489300D01*
X134081520Y-79481680D01*
X134068820Y-79453740D01*
X134023100Y-79413100D01*
X133946900Y-79357220D01*
X133855460Y-79301340D01*
X133761480Y-79240380D01*
X133687820Y-79194660D01*
X133631940Y-79151480D01*
X133581140Y-79110840D01*
X133530340Y-79060040D01*
X133471920Y-78996540D01*
X133400800Y-78912720D01*
X133334760Y-78833980D01*
X133258560Y-78742540D01*
X133182360Y-78656180D01*
X133118860Y-78587600D01*
X133073140Y-78536800D01*
X133060440Y-78521560D01*
X132994400Y-78463140D01*
X132760720Y-78506320D01*
X132626100Y-78534260D01*
X132532120Y-78562200D01*
X132471160Y-78590140D01*
X132440680Y-78618080D01*
X132435600Y-78653640D01*
X132438140Y-78663800D01*
X132448300Y-78706980D01*
X132458460Y-78755240D01*
X132463540Y-78813660D01*
X132463540Y-78887320D01*
X132461000Y-78978760D01*
X132453380Y-79090520D01*
X132443220Y-79230220D01*
X132427980Y-79397860D01*
X132410200Y-79601060D01*
X132389880Y-79799180D01*
X132374640Y-79943960D01*
X132270500Y-79969360D01*
X132194300Y-79984600D01*
X132097780Y-80002380D01*
X132013960Y-80017620D01*
X131950460Y-80027780D01*
X131907280Y-80037940D01*
X131876800Y-80053180D01*
X131859020Y-80083660D01*
X131846320Y-80134460D01*
X131833620Y-80213200D01*
X131818380Y-80327500D01*
X131805680Y-80411320D01*
X131795520Y-80474820D01*
X131785360Y-80515460D01*
X131782820Y-80520540D01*
X131759960Y-80510380D01*
X131711700Y-80482440D01*
X131643120Y-80444340D01*
X131605020Y-80421480D01*
X131511040Y-80370680D01*
X131439920Y-80337660D01*
X131373880Y-80319880D01*
X131315460Y-80314800D01*
X131193540Y-80304640D01*
X131000500Y-80073500D01*
X130929380Y-79984600D01*
X130837940Y-79872840D01*
X130736340Y-79745840D01*
X130629660Y-79613760D01*
X130522980Y-79481680D01*
X130492500Y-79443580D01*
X130238500Y-79123540D01*
X130007360Y-78833980D01*
X129801620Y-78577440D01*
X129618740Y-78348840D01*
X129458720Y-78145640D01*
X129319020Y-77972920D01*
X129197100Y-77823060D01*
X129098040Y-77701140D01*
X129014220Y-77599540D01*
X128948180Y-77520800D01*
X128897380Y-77462380D01*
X128861820Y-77424280D01*
X128841500Y-77403960D01*
X128833880Y-77401420D01*
X128838960Y-77429360D01*
X128861820Y-77495400D01*
X128902460Y-77599540D01*
X128955800Y-77736700D01*
X129026920Y-77909420D01*
X129110740Y-78117700D01*
X129209800Y-78356460D01*
X129324100Y-78625700D01*
X129362200Y-78719680D01*
X129413000Y-78836520D01*
X129484120Y-78983840D01*
X129567940Y-79159100D01*
X129664460Y-79352140D01*
X129768600Y-79562960D01*
X129882900Y-79781400D01*
X129999740Y-80007460D01*
X130119120Y-80230980D01*
X130167380Y-80319880D01*
X130223260Y-80424020D01*
X130271520Y-80515460D01*
X130307080Y-80589120D01*
X130329940Y-80634840D01*
X130335020Y-80647540D01*
X130319780Y-80662780D01*
X130286760Y-80660240D01*
X130261360Y-80647540D01*
X130230880Y-80632300D01*
X130169920Y-80604360D01*
X130086100Y-80571340D01*
X129987040Y-80533240D01*
X129882900Y-80495140D01*
X129783840Y-80459580D01*
X129760980Y-80454500D01*
X129611120Y-80416400D01*
X129453640Y-80406240D01*
X129446020Y-80406240D01*
X129374900Y-80406240D01*
X129319020Y-80411320D01*
X129265680Y-80421480D01*
X129204720Y-80444340D01*
X129128520Y-80479900D01*
X129037080Y-80523080D01*
X128917700Y-80584040D01*
X128785620Y-80652620D01*
X128661160Y-80723740D01*
X128584960Y-80769460D01*
X128442720Y-80858360D01*
X128272540Y-80967580D01*
X128076960Y-81089500D01*
X127866140Y-81221580D01*
X127645160Y-81361280D01*
X127419100Y-81503520D01*
X127198120Y-81643220D01*
X126984760Y-81775300D01*
X126906020Y-81826100D01*
X126771400Y-81912460D01*
X126646940Y-81991200D01*
X126542800Y-82059780D01*
X126456440Y-82118200D01*
X126395480Y-82161380D01*
X126365000Y-82186780D01*
X126362460Y-82191860D01*
D14*
%TO.C,REF\002A\002A*%
G36*
X123468637Y-88212699D02*
X123446845Y-88219976D01*
X123428414Y-88236420D01*
X123413065Y-88265197D01*
X123400519Y-88309474D01*
X123390495Y-88372418D01*
X123382717Y-88457194D01*
X123376904Y-88566971D01*
X123372777Y-88704914D01*
X123370057Y-88874191D01*
X123368465Y-89077968D01*
X123367723Y-89319411D01*
X123367550Y-89601687D01*
X123367668Y-89927964D01*
X123367797Y-90301407D01*
X123367800Y-90360500D01*
X123367878Y-90735884D01*
X123368151Y-91063711D01*
X123368682Y-91347221D01*
X123369531Y-91589658D01*
X123370760Y-91794261D01*
X123372431Y-91964274D01*
X123374605Y-92102939D01*
X123377343Y-92213496D01*
X123380708Y-92299188D01*
X123384759Y-92363257D01*
X123389559Y-92408944D01*
X123395169Y-92439492D01*
X123401651Y-92458141D01*
X123407715Y-92466885D01*
X123418791Y-92473992D01*
X123438999Y-92480213D01*
X123471510Y-92485606D01*
X123519497Y-92490229D01*
X123586133Y-92494140D01*
X123674590Y-92497396D01*
X123788040Y-92500056D01*
X123929656Y-92502175D01*
X124102610Y-92503813D01*
X124310076Y-92505028D01*
X124555224Y-92505876D01*
X124841229Y-92506415D01*
X125171261Y-92506703D01*
X125548495Y-92506798D01*
X125603001Y-92506800D01*
X125986824Y-92506726D01*
X126323020Y-92506467D01*
X126614761Y-92505965D01*
X126865219Y-92505162D01*
X127077568Y-92504000D01*
X127254979Y-92502422D01*
X127400625Y-92500371D01*
X127517678Y-92497787D01*
X127609312Y-92494615D01*
X127678697Y-92490795D01*
X127729008Y-92486271D01*
X127763416Y-92480985D01*
X127785093Y-92474879D01*
X127797213Y-92467895D01*
X127798286Y-92466885D01*
X127805535Y-92455627D01*
X127811862Y-92435152D01*
X127817328Y-92402219D01*
X127821994Y-92353586D01*
X127825922Y-92286011D01*
X127829174Y-92196252D01*
X127831810Y-92081068D01*
X127833893Y-91937217D01*
X127835483Y-91761456D01*
X127836642Y-91550544D01*
X127837432Y-91301239D01*
X127837914Y-91010300D01*
X127838149Y-90674484D01*
X127838200Y-90360500D01*
X127838123Y-89985115D01*
X127837850Y-89657288D01*
X127837319Y-89373778D01*
X127836470Y-89131341D01*
X127835241Y-88926738D01*
X127834052Y-88805729D01*
X127558801Y-88805729D01*
X127548363Y-88830638D01*
X127522056Y-88884844D01*
X127508001Y-88912699D01*
X127497068Y-88935774D01*
X127487826Y-88961420D01*
X127480133Y-88993859D01*
X127473848Y-89037308D01*
X127468828Y-89095988D01*
X127464932Y-89174117D01*
X127462017Y-89275917D01*
X127459943Y-89405605D01*
X127458566Y-89567401D01*
X127457746Y-89765525D01*
X127457341Y-90004197D01*
X127457209Y-90287635D01*
X127457201Y-90424290D01*
X127457561Y-90687726D01*
X127458598Y-90936037D01*
X127460244Y-91164556D01*
X127462432Y-91368618D01*
X127465097Y-91543558D01*
X127468170Y-91684711D01*
X127471585Y-91787410D01*
X127475276Y-91846991D01*
X127477776Y-91860370D01*
X127502200Y-91900136D01*
X127528032Y-91954350D01*
X127557711Y-92024200D01*
X127031206Y-92023811D01*
X126876033Y-92022849D01*
X126741650Y-92020381D01*
X126635001Y-92016674D01*
X126563030Y-92011992D01*
X126532681Y-92006600D01*
X126532906Y-92004761D01*
X126562855Y-91970826D01*
X126598668Y-91912626D01*
X126602756Y-91904811D01*
X126617682Y-91867521D01*
X126628693Y-91817267D01*
X126636331Y-91746556D01*
X126641134Y-91647898D01*
X126643644Y-91513800D01*
X126644399Y-91336772D01*
X126644400Y-91326961D01*
X126643167Y-91149347D01*
X126639604Y-91006876D01*
X126633922Y-90903727D01*
X126626328Y-90844078D01*
X126619586Y-90830400D01*
X126590086Y-90849770D01*
X126552359Y-90896744D01*
X126550085Y-90900250D01*
X126509507Y-90957268D01*
X126475301Y-90995500D01*
X126444853Y-91032632D01*
X126404917Y-91094966D01*
X126391329Y-91118833D01*
X126349180Y-91185930D01*
X126286473Y-91274720D01*
X126215408Y-91368064D01*
X126201458Y-91385533D01*
X126093339Y-91528344D01*
X126002862Y-91664967D01*
X125934611Y-91787349D01*
X125893169Y-91887440D01*
X125882400Y-91945923D01*
X125882400Y-92024200D01*
X124755945Y-92024200D01*
X124768071Y-92010488D01*
X124612400Y-92010488D01*
X124588301Y-92014757D01*
X124521204Y-92018485D01*
X124418911Y-92021448D01*
X124289222Y-92023426D01*
X124139939Y-92024196D01*
X124129800Y-92024200D01*
X123953033Y-92023408D01*
X123821899Y-92020806D01*
X123731253Y-92016056D01*
X123675950Y-92008818D01*
X123650844Y-91998752D01*
X123648008Y-91992450D01*
X123662962Y-91948554D01*
X123686108Y-91911395D01*
X123695302Y-91892692D01*
X123702898Y-91860195D01*
X123709041Y-91809498D01*
X123713873Y-91736196D01*
X123717536Y-91635883D01*
X123720174Y-91504154D01*
X123721930Y-91336604D01*
X123722947Y-91128827D01*
X123723367Y-90876418D01*
X123723400Y-90762045D01*
X123723400Y-89662000D01*
X124588305Y-89662000D01*
X124549553Y-89736938D01*
X124539522Y-89762815D01*
X124531333Y-89801092D01*
X124524808Y-89856607D01*
X124519774Y-89934197D01*
X124516053Y-90038700D01*
X124513471Y-90174954D01*
X124511852Y-90347797D01*
X124511021Y-90562067D01*
X124510800Y-90804750D01*
X124510914Y-91056440D01*
X124511415Y-91262511D01*
X124512545Y-91428147D01*
X124514545Y-91558527D01*
X124517655Y-91658835D01*
X124522117Y-91734251D01*
X124528171Y-91789957D01*
X124536059Y-91831135D01*
X124546021Y-91862967D01*
X124558299Y-91890635D01*
X124561600Y-91897200D01*
X124592510Y-91960636D01*
X124610520Y-92003110D01*
X124612400Y-92010488D01*
X124768071Y-92010488D01*
X124817523Y-91954570D01*
X124861445Y-91905266D01*
X124889627Y-91874290D01*
X124891800Y-91872020D01*
X124949555Y-91808905D01*
X125021037Y-91724689D01*
X125096103Y-91632065D01*
X125164609Y-91543725D01*
X125216412Y-91472361D01*
X125236624Y-91440547D01*
X125276845Y-91376584D01*
X125340338Y-91285299D01*
X125418196Y-91178680D01*
X125501513Y-91068715D01*
X125581383Y-90967390D01*
X125643727Y-90892607D01*
X125704171Y-90815548D01*
X125760841Y-90731943D01*
X125765022Y-90725050D01*
X125892363Y-90526936D01*
X125988006Y-90396356D01*
X126057964Y-90305212D01*
X125976532Y-90217760D01*
X125906340Y-90138661D01*
X125816285Y-90031892D01*
X125716943Y-89910451D01*
X125618893Y-89787339D01*
X125532711Y-89675555D01*
X125503849Y-89636815D01*
X125199059Y-89256892D01*
X124959721Y-88999787D01*
X124760941Y-88798400D01*
X125306253Y-88798400D01*
X125491450Y-88798523D01*
X125632002Y-88799861D01*
X125734063Y-88803867D01*
X125803788Y-88811993D01*
X125847331Y-88825691D01*
X125870847Y-88846416D01*
X125880489Y-88875618D01*
X125882414Y-88914751D01*
X125882400Y-88934390D01*
X125897988Y-88987842D01*
X125937059Y-89055121D01*
X125954701Y-89078362D01*
X126013348Y-89155668D01*
X126076110Y-89246586D01*
X126098198Y-89281000D01*
X126141448Y-89347764D01*
X126175088Y-89394931D01*
X126186761Y-89408000D01*
X126216555Y-89437339D01*
X126265755Y-89493018D01*
X126325478Y-89564108D01*
X126386838Y-89639681D01*
X126440953Y-89708808D01*
X126478937Y-89760561D01*
X126492000Y-89783483D01*
X126508818Y-89812974D01*
X126550854Y-89860717D01*
X126568201Y-89877900D01*
X126644401Y-89950904D01*
X126644400Y-89531088D01*
X126642807Y-89348302D01*
X126637105Y-89205476D01*
X126625907Y-89091840D01*
X126607828Y-88996629D01*
X126581482Y-88909075D01*
X126555836Y-88842850D01*
X126552606Y-88827771D01*
X126561351Y-88816538D01*
X126588295Y-88808591D01*
X126639662Y-88803367D01*
X126721676Y-88800303D01*
X126840561Y-88798838D01*
X127002540Y-88798410D01*
X127048083Y-88798400D01*
X127202917Y-88798746D01*
X127338878Y-88799712D01*
X127448383Y-88801190D01*
X127523849Y-88803071D01*
X127557692Y-88805245D01*
X127558801Y-88805729D01*
X127834052Y-88805729D01*
X127833570Y-88756725D01*
X127831396Y-88618060D01*
X127828658Y-88507503D01*
X127825293Y-88421811D01*
X127821242Y-88357742D01*
X127816442Y-88312055D01*
X127810832Y-88281507D01*
X127804350Y-88262858D01*
X127798286Y-88254114D01*
X127785822Y-88245934D01*
X127763563Y-88238938D01*
X127727809Y-88233034D01*
X127674859Y-88228133D01*
X127601012Y-88224144D01*
X127502569Y-88220978D01*
X127375827Y-88218544D01*
X127217087Y-88216752D01*
X127022647Y-88215511D01*
X126788807Y-88214733D01*
X126511865Y-88214326D01*
X126188122Y-88214200D01*
X124561600Y-88214200D01*
X124561600Y-88310418D01*
X124541521Y-88426335D01*
X124488475Y-88545000D01*
X124413246Y-88645991D01*
X124360994Y-88690244D01*
X124247454Y-88737370D01*
X124116500Y-88747636D01*
X123982372Y-88723918D01*
X123859310Y-88669089D01*
X123761552Y-88586023D01*
X123746200Y-88566147D01*
X123699194Y-88465428D01*
X123677561Y-88349877D01*
X123666310Y-88214199D01*
X123556970Y-88214200D01*
X123523420Y-88212977D01*
X123494069Y-88211421D01*
X123468637Y-88212699D01*
X123468637Y-88212699D01*
G37*
X123468637Y-88212699D02*
X123446845Y-88219976D01*
X123428414Y-88236420D01*
X123413065Y-88265197D01*
X123400519Y-88309474D01*
X123390495Y-88372418D01*
X123382717Y-88457194D01*
X123376904Y-88566971D01*
X123372777Y-88704914D01*
X123370057Y-88874191D01*
X123368465Y-89077968D01*
X123367723Y-89319411D01*
X123367550Y-89601687D01*
X123367668Y-89927964D01*
X123367797Y-90301407D01*
X123367800Y-90360500D01*
X123367878Y-90735884D01*
X123368151Y-91063711D01*
X123368682Y-91347221D01*
X123369531Y-91589658D01*
X123370760Y-91794261D01*
X123372431Y-91964274D01*
X123374605Y-92102939D01*
X123377343Y-92213496D01*
X123380708Y-92299188D01*
X123384759Y-92363257D01*
X123389559Y-92408944D01*
X123395169Y-92439492D01*
X123401651Y-92458141D01*
X123407715Y-92466885D01*
X123418791Y-92473992D01*
X123438999Y-92480213D01*
X123471510Y-92485606D01*
X123519497Y-92490229D01*
X123586133Y-92494140D01*
X123674590Y-92497396D01*
X123788040Y-92500056D01*
X123929656Y-92502175D01*
X124102610Y-92503813D01*
X124310076Y-92505028D01*
X124555224Y-92505876D01*
X124841229Y-92506415D01*
X125171261Y-92506703D01*
X125548495Y-92506798D01*
X125603001Y-92506800D01*
X125986824Y-92506726D01*
X126323020Y-92506467D01*
X126614761Y-92505965D01*
X126865219Y-92505162D01*
X127077568Y-92504000D01*
X127254979Y-92502422D01*
X127400625Y-92500371D01*
X127517678Y-92497787D01*
X127609312Y-92494615D01*
X127678697Y-92490795D01*
X127729008Y-92486271D01*
X127763416Y-92480985D01*
X127785093Y-92474879D01*
X127797213Y-92467895D01*
X127798286Y-92466885D01*
X127805535Y-92455627D01*
X127811862Y-92435152D01*
X127817328Y-92402219D01*
X127821994Y-92353586D01*
X127825922Y-92286011D01*
X127829174Y-92196252D01*
X127831810Y-92081068D01*
X127833893Y-91937217D01*
X127835483Y-91761456D01*
X127836642Y-91550544D01*
X127837432Y-91301239D01*
X127837914Y-91010300D01*
X127838149Y-90674484D01*
X127838200Y-90360500D01*
X127838123Y-89985115D01*
X127837850Y-89657288D01*
X127837319Y-89373778D01*
X127836470Y-89131341D01*
X127835241Y-88926738D01*
X127834052Y-88805729D01*
X127558801Y-88805729D01*
X127548363Y-88830638D01*
X127522056Y-88884844D01*
X127508001Y-88912699D01*
X127497068Y-88935774D01*
X127487826Y-88961420D01*
X127480133Y-88993859D01*
X127473848Y-89037308D01*
X127468828Y-89095988D01*
X127464932Y-89174117D01*
X127462017Y-89275917D01*
X127459943Y-89405605D01*
X127458566Y-89567401D01*
X127457746Y-89765525D01*
X127457341Y-90004197D01*
X127457209Y-90287635D01*
X127457201Y-90424290D01*
X127457561Y-90687726D01*
X127458598Y-90936037D01*
X127460244Y-91164556D01*
X127462432Y-91368618D01*
X127465097Y-91543558D01*
X127468170Y-91684711D01*
X127471585Y-91787410D01*
X127475276Y-91846991D01*
X127477776Y-91860370D01*
X127502200Y-91900136D01*
X127528032Y-91954350D01*
X127557711Y-92024200D01*
X127031206Y-92023811D01*
X126876033Y-92022849D01*
X126741650Y-92020381D01*
X126635001Y-92016674D01*
X126563030Y-92011992D01*
X126532681Y-92006600D01*
X126532906Y-92004761D01*
X126562855Y-91970826D01*
X126598668Y-91912626D01*
X126602756Y-91904811D01*
X126617682Y-91867521D01*
X126628693Y-91817267D01*
X126636331Y-91746556D01*
X126641134Y-91647898D01*
X126643644Y-91513800D01*
X126644399Y-91336772D01*
X126644400Y-91326961D01*
X126643167Y-91149347D01*
X126639604Y-91006876D01*
X126633922Y-90903727D01*
X126626328Y-90844078D01*
X126619586Y-90830400D01*
X126590086Y-90849770D01*
X126552359Y-90896744D01*
X126550085Y-90900250D01*
X126509507Y-90957268D01*
X126475301Y-90995500D01*
X126444853Y-91032632D01*
X126404917Y-91094966D01*
X126391329Y-91118833D01*
X126349180Y-91185930D01*
X126286473Y-91274720D01*
X126215408Y-91368064D01*
X126201458Y-91385533D01*
X126093339Y-91528344D01*
X126002862Y-91664967D01*
X125934611Y-91787349D01*
X125893169Y-91887440D01*
X125882400Y-91945923D01*
X125882400Y-92024200D01*
X124755945Y-92024200D01*
X124768071Y-92010488D01*
X124612400Y-92010488D01*
X124588301Y-92014757D01*
X124521204Y-92018485D01*
X124418911Y-92021448D01*
X124289222Y-92023426D01*
X124139939Y-92024196D01*
X124129800Y-92024200D01*
X123953033Y-92023408D01*
X123821899Y-92020806D01*
X123731253Y-92016056D01*
X123675950Y-92008818D01*
X123650844Y-91998752D01*
X123648008Y-91992450D01*
X123662962Y-91948554D01*
X123686108Y-91911395D01*
X123695302Y-91892692D01*
X123702898Y-91860195D01*
X123709041Y-91809498D01*
X123713873Y-91736196D01*
X123717536Y-91635883D01*
X123720174Y-91504154D01*
X123721930Y-91336604D01*
X123722947Y-91128827D01*
X123723367Y-90876418D01*
X123723400Y-90762045D01*
X123723400Y-89662000D01*
X124588305Y-89662000D01*
X124549553Y-89736938D01*
X124539522Y-89762815D01*
X124531333Y-89801092D01*
X124524808Y-89856607D01*
X124519774Y-89934197D01*
X124516053Y-90038700D01*
X124513471Y-90174954D01*
X124511852Y-90347797D01*
X124511021Y-90562067D01*
X124510800Y-90804750D01*
X124510914Y-91056440D01*
X124511415Y-91262511D01*
X124512545Y-91428147D01*
X124514545Y-91558527D01*
X124517655Y-91658835D01*
X124522117Y-91734251D01*
X124528171Y-91789957D01*
X124536059Y-91831135D01*
X124546021Y-91862967D01*
X124558299Y-91890635D01*
X124561600Y-91897200D01*
X124592510Y-91960636D01*
X124610520Y-92003110D01*
X124612400Y-92010488D01*
X124768071Y-92010488D01*
X124817523Y-91954570D01*
X124861445Y-91905266D01*
X124889627Y-91874290D01*
X124891800Y-91872020D01*
X124949555Y-91808905D01*
X125021037Y-91724689D01*
X125096103Y-91632065D01*
X125164609Y-91543725D01*
X125216412Y-91472361D01*
X125236624Y-91440547D01*
X125276845Y-91376584D01*
X125340338Y-91285299D01*
X125418196Y-91178680D01*
X125501513Y-91068715D01*
X125581383Y-90967390D01*
X125643727Y-90892607D01*
X125704171Y-90815548D01*
X125760841Y-90731943D01*
X125765022Y-90725050D01*
X125892363Y-90526936D01*
X125988006Y-90396356D01*
X126057964Y-90305212D01*
X125976532Y-90217760D01*
X125906340Y-90138661D01*
X125816285Y-90031892D01*
X125716943Y-89910451D01*
X125618893Y-89787339D01*
X125532711Y-89675555D01*
X125503849Y-89636815D01*
X125199059Y-89256892D01*
X124959721Y-88999787D01*
X124760941Y-88798400D01*
X125306253Y-88798400D01*
X125491450Y-88798523D01*
X125632002Y-88799861D01*
X125734063Y-88803867D01*
X125803788Y-88811993D01*
X125847331Y-88825691D01*
X125870847Y-88846416D01*
X125880489Y-88875618D01*
X125882414Y-88914751D01*
X125882400Y-88934390D01*
X125897988Y-88987842D01*
X125937059Y-89055121D01*
X125954701Y-89078362D01*
X126013348Y-89155668D01*
X126076110Y-89246586D01*
X126098198Y-89281000D01*
X126141448Y-89347764D01*
X126175088Y-89394931D01*
X126186761Y-89408000D01*
X126216555Y-89437339D01*
X126265755Y-89493018D01*
X126325478Y-89564108D01*
X126386838Y-89639681D01*
X126440953Y-89708808D01*
X126478937Y-89760561D01*
X126492000Y-89783483D01*
X126508818Y-89812974D01*
X126550854Y-89860717D01*
X126568201Y-89877900D01*
X126644401Y-89950904D01*
X126644400Y-89531088D01*
X126642807Y-89348302D01*
X126637105Y-89205476D01*
X126625907Y-89091840D01*
X126607828Y-88996629D01*
X126581482Y-88909075D01*
X126555836Y-88842850D01*
X126552606Y-88827771D01*
X126561351Y-88816538D01*
X126588295Y-88808591D01*
X126639662Y-88803367D01*
X126721676Y-88800303D01*
X126840561Y-88798838D01*
X127002540Y-88798410D01*
X127048083Y-88798400D01*
X127202917Y-88798746D01*
X127338878Y-88799712D01*
X127448383Y-88801190D01*
X127523849Y-88803071D01*
X127557692Y-88805245D01*
X127558801Y-88805729D01*
X127834052Y-88805729D01*
X127833570Y-88756725D01*
X127831396Y-88618060D01*
X127828658Y-88507503D01*
X127825293Y-88421811D01*
X127821242Y-88357742D01*
X127816442Y-88312055D01*
X127810832Y-88281507D01*
X127804350Y-88262858D01*
X127798286Y-88254114D01*
X127785822Y-88245934D01*
X127763563Y-88238938D01*
X127727809Y-88233034D01*
X127674859Y-88228133D01*
X127601012Y-88224144D01*
X127502569Y-88220978D01*
X127375827Y-88218544D01*
X127217087Y-88216752D01*
X127022647Y-88215511D01*
X126788807Y-88214733D01*
X126511865Y-88214326D01*
X126188122Y-88214200D01*
X124561600Y-88214200D01*
X124561600Y-88310418D01*
X124541521Y-88426335D01*
X124488475Y-88545000D01*
X124413246Y-88645991D01*
X124360994Y-88690244D01*
X124247454Y-88737370D01*
X124116500Y-88747636D01*
X123982372Y-88723918D01*
X123859310Y-88669089D01*
X123761552Y-88586023D01*
X123746200Y-88566147D01*
X123699194Y-88465428D01*
X123677561Y-88349877D01*
X123666310Y-88214199D01*
X123556970Y-88214200D01*
X123523420Y-88212977D01*
X123494069Y-88211421D01*
X123468637Y-88212699D01*
G36*
X121375324Y-88776341D02*
X121334089Y-88786143D01*
X121263121Y-88808829D01*
X121167827Y-88844963D01*
X121060479Y-88889187D01*
X120953347Y-88936147D01*
X120858702Y-88980487D01*
X120788815Y-89016851D01*
X120757936Y-89037598D01*
X120767626Y-89060582D01*
X120799964Y-89115508D01*
X120848536Y-89192651D01*
X120906926Y-89282288D01*
X120968719Y-89374695D01*
X121027498Y-89460151D01*
X121076848Y-89528930D01*
X121109323Y-89570159D01*
X121137764Y-89567624D01*
X121189919Y-89537335D01*
X121233593Y-89503312D01*
X121378702Y-89411226D01*
X121543513Y-89365559D01*
X121701902Y-89364284D01*
X121872602Y-89404902D01*
X122016741Y-89488127D01*
X122133755Y-89612925D01*
X122223081Y-89778260D01*
X122284157Y-89983097D01*
X122316419Y-90226401D01*
X122319574Y-90500200D01*
X122298133Y-90747826D01*
X122253016Y-90953741D01*
X122182370Y-91122105D01*
X122084343Y-91257080D01*
X121957083Y-91362826D01*
X121927421Y-91381151D01*
X121850227Y-91421415D01*
X121778762Y-91442876D01*
X121690973Y-91450676D01*
X121627900Y-91451009D01*
X121468183Y-91435354D01*
X121329453Y-91387392D01*
X121195375Y-91300613D01*
X121145154Y-91258663D01*
X121090908Y-91214162D01*
X121054586Y-91190225D01*
X121046945Y-91188969D01*
X121024784Y-91222288D01*
X120985502Y-91286333D01*
X120934770Y-91371348D01*
X120878257Y-91467575D01*
X120821634Y-91565257D01*
X120770569Y-91654636D01*
X120730735Y-91725956D01*
X120707799Y-91769460D01*
X120704547Y-91778180D01*
X120729782Y-91791554D01*
X120787656Y-91822253D01*
X120865938Y-91863786D01*
X120870543Y-91866230D01*
X121032853Y-91946612D01*
X121175788Y-92001928D01*
X121317728Y-92036986D01*
X121477053Y-92056593D01*
X121627900Y-92064340D01*
X121820715Y-92065569D01*
X121972750Y-92056113D01*
X122063564Y-92040565D01*
X122295799Y-91955718D01*
X122508841Y-91826718D01*
X122698634Y-91657906D01*
X122861122Y-91453623D01*
X122992248Y-91218209D01*
X123087956Y-90956005D01*
X123092452Y-90939632D01*
X123128750Y-90753026D01*
X123147655Y-90538920D01*
X123149177Y-90315257D01*
X123133331Y-90099982D01*
X123100128Y-89911040D01*
X123091703Y-89879044D01*
X122989939Y-89605435D01*
X122847268Y-89359468D01*
X122666196Y-89144653D01*
X122449230Y-88964495D01*
X122428000Y-88950082D01*
X122250356Y-88857504D01*
X122042302Y-88791748D01*
X121817802Y-88754907D01*
X121590822Y-88749073D01*
X121375324Y-88776341D01*
X121375324Y-88776341D01*
G37*
X121375324Y-88776341D02*
X121334089Y-88786143D01*
X121263121Y-88808829D01*
X121167827Y-88844963D01*
X121060479Y-88889187D01*
X120953347Y-88936147D01*
X120858702Y-88980487D01*
X120788815Y-89016851D01*
X120757936Y-89037598D01*
X120767626Y-89060582D01*
X120799964Y-89115508D01*
X120848536Y-89192651D01*
X120906926Y-89282288D01*
X120968719Y-89374695D01*
X121027498Y-89460151D01*
X121076848Y-89528930D01*
X121109323Y-89570159D01*
X121137764Y-89567624D01*
X121189919Y-89537335D01*
X121233593Y-89503312D01*
X121378702Y-89411226D01*
X121543513Y-89365559D01*
X121701902Y-89364284D01*
X121872602Y-89404902D01*
X122016741Y-89488127D01*
X122133755Y-89612925D01*
X122223081Y-89778260D01*
X122284157Y-89983097D01*
X122316419Y-90226401D01*
X122319574Y-90500200D01*
X122298133Y-90747826D01*
X122253016Y-90953741D01*
X122182370Y-91122105D01*
X122084343Y-91257080D01*
X121957083Y-91362826D01*
X121927421Y-91381151D01*
X121850227Y-91421415D01*
X121778762Y-91442876D01*
X121690973Y-91450676D01*
X121627900Y-91451009D01*
X121468183Y-91435354D01*
X121329453Y-91387392D01*
X121195375Y-91300613D01*
X121145154Y-91258663D01*
X121090908Y-91214162D01*
X121054586Y-91190225D01*
X121046945Y-91188969D01*
X121024784Y-91222288D01*
X120985502Y-91286333D01*
X120934770Y-91371348D01*
X120878257Y-91467575D01*
X120821634Y-91565257D01*
X120770569Y-91654636D01*
X120730735Y-91725956D01*
X120707799Y-91769460D01*
X120704547Y-91778180D01*
X120729782Y-91791554D01*
X120787656Y-91822253D01*
X120865938Y-91863786D01*
X120870543Y-91866230D01*
X121032853Y-91946612D01*
X121175788Y-92001928D01*
X121317728Y-92036986D01*
X121477053Y-92056593D01*
X121627900Y-92064340D01*
X121820715Y-92065569D01*
X121972750Y-92056113D01*
X122063564Y-92040565D01*
X122295799Y-91955718D01*
X122508841Y-91826718D01*
X122698634Y-91657906D01*
X122861122Y-91453623D01*
X122992248Y-91218209D01*
X123087956Y-90956005D01*
X123092452Y-90939632D01*
X123128750Y-90753026D01*
X123147655Y-90538920D01*
X123149177Y-90315257D01*
X123133331Y-90099982D01*
X123100128Y-89911040D01*
X123091703Y-89879044D01*
X122989939Y-89605435D01*
X122847268Y-89359468D01*
X122666196Y-89144653D01*
X122449230Y-88964495D01*
X122428000Y-88950082D01*
X122250356Y-88857504D01*
X122042302Y-88791748D01*
X121817802Y-88754907D01*
X121590822Y-88749073D01*
X121375324Y-88776341D01*
G36*
X119292380Y-89622359D02*
X119116424Y-89662264D01*
X118997487Y-89706895D01*
X118904902Y-89762778D01*
X118822221Y-89836360D01*
X118769083Y-89891188D01*
X118725604Y-89942829D01*
X118690709Y-89996992D01*
X118663324Y-90059387D01*
X118642376Y-90135723D01*
X118626791Y-90231710D01*
X118615496Y-90353058D01*
X118607415Y-90505475D01*
X118601477Y-90694670D01*
X118596606Y-90926355D01*
X118594451Y-91047477D01*
X118590193Y-91279434D01*
X118586070Y-91466051D01*
X118581724Y-91612785D01*
X118576797Y-91725095D01*
X118570932Y-91808437D01*
X118563769Y-91868269D01*
X118554951Y-91910049D01*
X118544120Y-91939234D01*
X118534865Y-91955527D01*
X118489829Y-92024200D01*
X119300582Y-92024200D01*
X119316500Y-91870698D01*
X119415898Y-91938483D01*
X119572054Y-92017254D01*
X119752908Y-92063178D01*
X119942705Y-92074137D01*
X120125691Y-92048011D01*
X120159166Y-92038436D01*
X120345571Y-91956112D01*
X120496480Y-91838585D01*
X120609348Y-91689321D01*
X120681625Y-91511786D01*
X120710765Y-91309443D01*
X120711212Y-91287600D01*
X120710548Y-91258545D01*
X119982293Y-91258545D01*
X119978037Y-91347884D01*
X119967910Y-91378502D01*
X119905221Y-91459089D01*
X119810277Y-91513481D01*
X119696673Y-91537352D01*
X119578004Y-91526378D01*
X119540404Y-91514508D01*
X119453217Y-91472968D01*
X119397576Y-91420366D01*
X119367106Y-91345280D01*
X119355434Y-91236289D01*
X119354600Y-91181572D01*
X119354600Y-90982800D01*
X119520516Y-90982800D01*
X119684253Y-90997824D01*
X119822872Y-91040733D01*
X119918324Y-91101555D01*
X119960931Y-91168298D01*
X119982293Y-91258545D01*
X120710548Y-91258545D01*
X120708597Y-91173273D01*
X120694949Y-91085974D01*
X120665450Y-91002311D01*
X120642118Y-90952215D01*
X120537777Y-90795636D01*
X120393396Y-90669758D01*
X120209631Y-90574878D01*
X119987138Y-90511291D01*
X119726574Y-90479295D01*
X119586206Y-90475241D01*
X119347912Y-90474800D01*
X119361804Y-90371228D01*
X119397738Y-90257960D01*
X119469656Y-90179507D01*
X119576276Y-90136163D01*
X119716313Y-90128223D01*
X119888484Y-90155980D01*
X120065491Y-90210144D01*
X120149949Y-90237413D01*
X120214942Y-90252373D01*
X120246805Y-90251908D01*
X120247138Y-90251589D01*
X120264724Y-90219872D01*
X120294820Y-90153912D01*
X120332098Y-90066745D01*
X120371227Y-89971404D01*
X120406878Y-89880925D01*
X120433720Y-89808340D01*
X120446425Y-89766685D01*
X120446800Y-89763302D01*
X120425010Y-89744617D01*
X120381553Y-89738200D01*
X120329969Y-89732037D01*
X120243150Y-89715424D01*
X120134897Y-89691175D01*
X120057703Y-89672173D01*
X119791904Y-89621360D01*
X119533224Y-89604718D01*
X119292380Y-89622359D01*
X119292380Y-89622359D01*
G37*
X119292380Y-89622359D02*
X119116424Y-89662264D01*
X118997487Y-89706895D01*
X118904902Y-89762778D01*
X118822221Y-89836360D01*
X118769083Y-89891188D01*
X118725604Y-89942829D01*
X118690709Y-89996992D01*
X118663324Y-90059387D01*
X118642376Y-90135723D01*
X118626791Y-90231710D01*
X118615496Y-90353058D01*
X118607415Y-90505475D01*
X118601477Y-90694670D01*
X118596606Y-90926355D01*
X118594451Y-91047477D01*
X118590193Y-91279434D01*
X118586070Y-91466051D01*
X118581724Y-91612785D01*
X118576797Y-91725095D01*
X118570932Y-91808437D01*
X118563769Y-91868269D01*
X118554951Y-91910049D01*
X118544120Y-91939234D01*
X118534865Y-91955527D01*
X118489829Y-92024200D01*
X119300582Y-92024200D01*
X119316500Y-91870698D01*
X119415898Y-91938483D01*
X119572054Y-92017254D01*
X119752908Y-92063178D01*
X119942705Y-92074137D01*
X120125691Y-92048011D01*
X120159166Y-92038436D01*
X120345571Y-91956112D01*
X120496480Y-91838585D01*
X120609348Y-91689321D01*
X120681625Y-91511786D01*
X120710765Y-91309443D01*
X120711212Y-91287600D01*
X120710548Y-91258545D01*
X119982293Y-91258545D01*
X119978037Y-91347884D01*
X119967910Y-91378502D01*
X119905221Y-91459089D01*
X119810277Y-91513481D01*
X119696673Y-91537352D01*
X119578004Y-91526378D01*
X119540404Y-91514508D01*
X119453217Y-91472968D01*
X119397576Y-91420366D01*
X119367106Y-91345280D01*
X119355434Y-91236289D01*
X119354600Y-91181572D01*
X119354600Y-90982800D01*
X119520516Y-90982800D01*
X119684253Y-90997824D01*
X119822872Y-91040733D01*
X119918324Y-91101555D01*
X119960931Y-91168298D01*
X119982293Y-91258545D01*
X120710548Y-91258545D01*
X120708597Y-91173273D01*
X120694949Y-91085974D01*
X120665450Y-91002311D01*
X120642118Y-90952215D01*
X120537777Y-90795636D01*
X120393396Y-90669758D01*
X120209631Y-90574878D01*
X119987138Y-90511291D01*
X119726574Y-90479295D01*
X119586206Y-90475241D01*
X119347912Y-90474800D01*
X119361804Y-90371228D01*
X119397738Y-90257960D01*
X119469656Y-90179507D01*
X119576276Y-90136163D01*
X119716313Y-90128223D01*
X119888484Y-90155980D01*
X120065491Y-90210144D01*
X120149949Y-90237413D01*
X120214942Y-90252373D01*
X120246805Y-90251908D01*
X120247138Y-90251589D01*
X120264724Y-90219872D01*
X120294820Y-90153912D01*
X120332098Y-90066745D01*
X120371227Y-89971404D01*
X120406878Y-89880925D01*
X120433720Y-89808340D01*
X120446425Y-89766685D01*
X120446800Y-89763302D01*
X120425010Y-89744617D01*
X120381553Y-89738200D01*
X120329969Y-89732037D01*
X120243150Y-89715424D01*
X120134897Y-89691175D01*
X120057703Y-89672173D01*
X119791904Y-89621360D01*
X119533224Y-89604718D01*
X119292380Y-89622359D01*
G36*
X116072536Y-90227150D02*
X116070994Y-90557052D01*
X116069434Y-90839981D01*
X116067739Y-91079761D01*
X116065792Y-91280219D01*
X116063477Y-91445181D01*
X116060678Y-91578472D01*
X116057276Y-91683918D01*
X116053156Y-91765345D01*
X116048201Y-91826580D01*
X116042293Y-91871447D01*
X116035317Y-91903774D01*
X116027155Y-91927385D01*
X116020198Y-91941650D01*
X115975096Y-92024200D01*
X116789200Y-92024200D01*
X116789200Y-91948000D01*
X116792559Y-91894452D01*
X116800649Y-91871804D01*
X116800773Y-91871800D01*
X116826891Y-91884784D01*
X116879274Y-91917537D01*
X116906097Y-91935421D01*
X117038397Y-92002647D01*
X117198063Y-92049589D01*
X117366978Y-92073338D01*
X117527023Y-92070984D01*
X117627400Y-92051247D01*
X117811462Y-91969939D01*
X117976590Y-91848200D01*
X118111483Y-91695510D01*
X118172845Y-91593694D01*
X118240269Y-91436029D01*
X118284145Y-91269951D01*
X118307286Y-91081403D01*
X118312759Y-90894913D01*
X118311998Y-90881200D01*
X117511864Y-90881200D01*
X117507366Y-91056895D01*
X117493751Y-91190414D01*
X117468523Y-91289949D01*
X117429188Y-91363691D01*
X117373249Y-91419831D01*
X117340984Y-91442170D01*
X117234579Y-91480164D01*
X117108856Y-91477176D01*
X116973797Y-91433728D01*
X116949501Y-91421773D01*
X116852700Y-91371557D01*
X116845858Y-90822487D01*
X116839015Y-90273416D01*
X116906109Y-90229454D01*
X116969640Y-90202707D01*
X117059332Y-90182044D01*
X117117367Y-90175065D01*
X117205745Y-90171970D01*
X117264709Y-90182095D01*
X117315015Y-90210683D01*
X117341073Y-90231568D01*
X117408417Y-90305167D01*
X117457336Y-90400737D01*
X117489659Y-90525234D01*
X117507213Y-90685611D01*
X117511864Y-90881200D01*
X118311998Y-90881200D01*
X118296325Y-90598965D01*
X118248458Y-90339134D01*
X118169829Y-90116509D01*
X118061111Y-89932180D01*
X117922975Y-89787237D01*
X117756094Y-89682768D01*
X117561140Y-89619864D01*
X117521830Y-89612835D01*
X117406297Y-89604575D01*
X117278937Y-89611429D01*
X117152339Y-89630852D01*
X117039088Y-89660299D01*
X116951772Y-89697225D01*
X116903738Y-89737815D01*
X116882873Y-89762282D01*
X116866830Y-89757192D01*
X116855075Y-89718657D01*
X116847076Y-89642788D01*
X116842298Y-89525701D01*
X116840207Y-89363506D01*
X116840000Y-89273670D01*
X116840523Y-89099573D01*
X116842531Y-88968217D01*
X116846689Y-88871550D01*
X116853657Y-88801519D01*
X116864099Y-88750073D01*
X116878678Y-88709158D01*
X116888062Y-88689470D01*
X116936124Y-88595200D01*
X116079772Y-88595200D01*
X116072536Y-90227150D01*
X116072536Y-90227150D01*
G37*
X116072536Y-90227150D02*
X116070994Y-90557052D01*
X116069434Y-90839981D01*
X116067739Y-91079761D01*
X116065792Y-91280219D01*
X116063477Y-91445181D01*
X116060678Y-91578472D01*
X116057276Y-91683918D01*
X116053156Y-91765345D01*
X116048201Y-91826580D01*
X116042293Y-91871447D01*
X116035317Y-91903774D01*
X116027155Y-91927385D01*
X116020198Y-91941650D01*
X115975096Y-92024200D01*
X116789200Y-92024200D01*
X116789200Y-91948000D01*
X116792559Y-91894452D01*
X116800649Y-91871804D01*
X116800773Y-91871800D01*
X116826891Y-91884784D01*
X116879274Y-91917537D01*
X116906097Y-91935421D01*
X117038397Y-92002647D01*
X117198063Y-92049589D01*
X117366978Y-92073338D01*
X117527023Y-92070984D01*
X117627400Y-92051247D01*
X117811462Y-91969939D01*
X117976590Y-91848200D01*
X118111483Y-91695510D01*
X118172845Y-91593694D01*
X118240269Y-91436029D01*
X118284145Y-91269951D01*
X118307286Y-91081403D01*
X118312759Y-90894913D01*
X118311998Y-90881200D01*
X117511864Y-90881200D01*
X117507366Y-91056895D01*
X117493751Y-91190414D01*
X117468523Y-91289949D01*
X117429188Y-91363691D01*
X117373249Y-91419831D01*
X117340984Y-91442170D01*
X117234579Y-91480164D01*
X117108856Y-91477176D01*
X116973797Y-91433728D01*
X116949501Y-91421773D01*
X116852700Y-91371557D01*
X116845858Y-90822487D01*
X116839015Y-90273416D01*
X116906109Y-90229454D01*
X116969640Y-90202707D01*
X117059332Y-90182044D01*
X117117367Y-90175065D01*
X117205745Y-90171970D01*
X117264709Y-90182095D01*
X117315015Y-90210683D01*
X117341073Y-90231568D01*
X117408417Y-90305167D01*
X117457336Y-90400737D01*
X117489659Y-90525234D01*
X117507213Y-90685611D01*
X117511864Y-90881200D01*
X118311998Y-90881200D01*
X118296325Y-90598965D01*
X118248458Y-90339134D01*
X118169829Y-90116509D01*
X118061111Y-89932180D01*
X117922975Y-89787237D01*
X117756094Y-89682768D01*
X117561140Y-89619864D01*
X117521830Y-89612835D01*
X117406297Y-89604575D01*
X117278937Y-89611429D01*
X117152339Y-89630852D01*
X117039088Y-89660299D01*
X116951772Y-89697225D01*
X116903738Y-89737815D01*
X116882873Y-89762282D01*
X116866830Y-89757192D01*
X116855075Y-89718657D01*
X116847076Y-89642788D01*
X116842298Y-89525701D01*
X116840207Y-89363506D01*
X116840000Y-89273670D01*
X116840523Y-89099573D01*
X116842531Y-88968217D01*
X116846689Y-88871550D01*
X116853657Y-88801519D01*
X116864099Y-88750073D01*
X116878678Y-88709158D01*
X116888062Y-88689470D01*
X116936124Y-88595200D01*
X116079772Y-88595200D01*
X116072536Y-90227150D01*
%TD*%
M02*
