M48
;DRILL file {KiCad (5.0.0-rc2-100-g6d77e594b)} date 06/08/18 00:04:43
;FORMAT={-:-/ absolute / inch / decimal}
FMAT,2
INCH,TZ
T1C0.0120
T2C0.0130
T3C0.0276
T4C0.0283
T5C0.0299
T6C0.0320
T7C0.0354
T8C0.0370
T9C0.0394
T10C0.0413
T11C0.1181
T12C0.1283
T13C0.1378
T14C0.1248
T15C0.1283
%
G90
G05
M72
T1
X3.06Y-4.66
X3.06Y-4.8
X3.06Y-4.94
X3.2Y-4.66
X3.2Y-4.94
X3.34Y-4.66
X3.34Y-4.8
X3.34Y-4.94
T2
X6.3502Y-4.2002
T3
X4.2006Y-3.3002
X4.2006Y-3.4002
X4.2006Y-3.8002
X4.2006Y-3.9002
X6.0506Y-4.6752
X6.0506Y-4.7752
X6.4506Y-3.9002
X6.5506Y-3.9002
X4.0006Y-4.2002
X4.1006Y-4.2002
X7.2506Y-3.7002
X7.3506Y-3.7002
X4.1006Y-4.7252
X4.2006Y-4.7252
X5.5506Y-3.7002
X5.5506Y-3.8002
X7.2006Y-4.2502
X7.3006Y-4.2502
T4
X4.1006Y-4.5752
X4.2006Y-4.5752
X6.2006Y-4.6752
X6.2006Y-4.7752
X5.4006Y-3.7002
X5.4006Y-3.8002
T5
X7.1006Y-4.4502
X7.2006Y-4.4502
X7.3006Y-4.4502
T6
X6.5506Y-4.4502
X6.9506Y-4.4502
X7.4506Y-4.1002
X7.4506Y-4.5002
T7
X6.1506Y-3.5502
X6.1506Y-3.6502
X6.1506Y-3.7502
X6.1506Y-3.8502
X6.2506Y-3.6002
X6.2506Y-3.7002
X6.2506Y-3.8002
X6.2506Y-3.9002
X3.5006Y-3.5502
X3.5006Y-3.6502
X3.5006Y-3.7502
X3.5006Y-3.8502
X3.6006Y-3.6002
X3.6006Y-3.7002
X3.6006Y-3.8002
X3.6006Y-3.9002
T8
X6.9191Y-4.1777
X6.9191Y-4.3227
X7.0006Y-4.2502
T9
X3.8006Y-3.3002
X3.8006Y-3.6002
X3.9006Y-3.3002
X3.9006Y-3.6002
X4.0006Y-3.3002
X4.0006Y-3.6002
X4.1006Y-3.3002
X4.1006Y-3.6002
X3.8006Y-3.8002
X3.8006Y-4.1002
X3.9006Y-3.8002
X3.9006Y-4.1002
X4.0006Y-3.8002
X4.0006Y-4.1002
X4.1006Y-3.8002
X4.1006Y-4.1002
X7.0506Y-3.8
X7.0506Y-3.9
X7.0506Y-4.
X7.0506Y-4.1
X7.3506Y-3.8
X7.3506Y-3.9
X7.3506Y-4.
X7.3506Y-4.1
X6.4506Y-4.0002
X6.4506Y-4.1002
X6.4506Y-4.2002
X6.4506Y-4.3002
X6.7506Y-4.0002
X6.7506Y-4.1002
X6.7506Y-4.2002
X6.7506Y-4.3002
T10
X4.5006Y-3.7002
X4.5006Y-3.8002
X4.5006Y-3.9002
X4.5006Y-4.0002
X4.5006Y-4.1002
X4.5006Y-4.2002
X4.5006Y-4.3002
X4.5006Y-4.4002
X4.5006Y-4.5002
X4.5006Y-4.6002
X4.5006Y-4.7002
X4.5006Y-4.8002
X4.6156Y-3.9432
X4.6156Y-4.0432
X4.6156Y-4.3552
X4.6156Y-4.4552
X5.1006Y-3.7002
X5.1006Y-3.8002
X5.1006Y-3.9002
X5.1006Y-4.0002
X5.1006Y-4.1002
X5.1006Y-4.2002
X5.1006Y-4.3002
X5.1006Y-4.4002
X5.1006Y-4.5002
X5.1006Y-4.6002
X5.1006Y-4.7002
X5.1006Y-4.8002
T11
X5.6026Y-4.615
X5.7128Y-4.5047
X3.6526Y-4.615
X3.7628Y-4.5047
T12
X3.2Y-4.8
T13
X5.8506Y-4.7252
X3.9006Y-4.7252
T14
X5.9006Y-3.5004
X5.9006Y-3.9504
X3.2506Y-3.5004
X3.2506Y-3.9504
T15
X7.4Y-4.8
X3.2Y-3.2
X7.4Y-3.2
T0
M30
