%TF.GenerationSoftware,KiCad,Pcbnew,(5.0.0-rc2-100-g6d77e594b)*%
%TF.CreationDate,2018-06-08T00:04:51-04:00*%
%TF.ProjectId,Logic&Oscillator,4C6F676963264F7363696C6C61746F72,1.0.2*%
%TF.SameCoordinates,Original*%
%TF.FileFunction,Soldermask,Top*%
%TF.FilePolarity,Negative*%
%FSLAX46Y46*%
G04 Gerber Fmt 4.6, Leading zero omitted, Abs format (unit mm)*
G04 Created by KiCad (PCBNEW (5.0.0-rc2-100-g6d77e594b)) date 06/08/18 00:04:51*
%MOMM*%
%LPD*%
G01*
G04 APERTURE LIST*
%ADD10C,1.221600*%
%ADD11R,1.221600X1.221600*%
%ADD12C,1.561600*%
%ADD13R,1.561600X1.561600*%
%ADD14C,1.511600*%
%ADD15R,1.511600X1.511600*%
%ADD16C,1.501600*%
%ADD17R,1.501600X1.501600*%
%ADD18C,1.300480*%
%ADD19R,1.221740X1.221740*%
%ADD20C,3.601600*%
%ADD21R,4.601600X4.601600*%
%ADD22C,3.271600*%
%ADD23C,1.541600*%
%ADD24R,1.541600X1.541600*%
%ADD25C,3.361600*%
%ADD26R,0.863600X0.863600*%
%ADD27R,8.041600X8.041600*%
%ADD28R,1.631600X1.631600*%
%ADD29C,1.631600*%
%ADD30R,1.209040X1.209040*%
%ADD31C,1.209040*%
%ADD32R,2.221600X1.801600*%
%ADD33O,2.221600X1.801600*%
G04 APERTURE END LIST*
D10*
%TO.C,C3*%
X106695390Y-116210270D03*
D11*
X104155390Y-116210270D03*
%TD*%
D10*
%TO.C,C6*%
X157495390Y-118750270D03*
D11*
X157495390Y-121290270D03*
%TD*%
D10*
%TO.C,C8*%
X137175390Y-96525270D03*
D11*
X137175390Y-93985270D03*
%TD*%
D12*
%TO.C,R2*%
X180355390Y-113035270D03*
X182895390Y-113035270D03*
D13*
X185435390Y-113035270D03*
%TD*%
D14*
%TO.C,Q1*%
X175745140Y-109796770D03*
X177815390Y-107955270D03*
D15*
X175745140Y-106113770D03*
%TD*%
D16*
%TO.C,U1*%
X186705390Y-96520000D03*
X186705390Y-99060000D03*
X186705390Y-101600000D03*
X186705390Y-104140000D03*
X179085390Y-104140000D03*
X179085390Y-101600000D03*
X179085390Y-99060000D03*
D17*
X179085390Y-96520000D03*
%TD*%
D16*
%TO.C,U3*%
X171465390Y-101605270D03*
X171465390Y-104145270D03*
X171465390Y-106685270D03*
X171465390Y-109225270D03*
X163845390Y-109225270D03*
X163845390Y-106685270D03*
X163845390Y-104145270D03*
D17*
X163845390Y-101605270D03*
%TD*%
D16*
%TO.C,U4*%
X104155390Y-91445270D03*
X101615390Y-91445270D03*
X99075390Y-91445270D03*
X96535390Y-91445270D03*
X96535390Y-83825270D03*
X99075390Y-83825270D03*
X101615390Y-83825270D03*
D17*
X104155390Y-83825270D03*
%TD*%
D16*
%TO.C,U5*%
X104155390Y-104145270D03*
X101615390Y-104145270D03*
X99075390Y-104145270D03*
X96535390Y-104145270D03*
X96535390Y-96525270D03*
X99075390Y-96525270D03*
X101615390Y-96525270D03*
D17*
X104155390Y-96525270D03*
%TD*%
D18*
%TO.C,C1*%
X184165390Y-93985270D03*
D19*
X186705390Y-93985270D03*
%TD*%
D18*
%TO.C,C2*%
X182895390Y-107955270D03*
D19*
X185435390Y-107955270D03*
%TD*%
D18*
%TO.C,C4*%
X106695390Y-120020270D03*
D19*
X104155390Y-120020270D03*
%TD*%
D18*
%TO.C,C5*%
X153685390Y-118750270D03*
D19*
X153685390Y-121290270D03*
%TD*%
D18*
%TO.C,C7*%
X140985390Y-96525270D03*
D19*
X140985390Y-93985270D03*
%TD*%
D18*
%TO.C,C9*%
X166385390Y-99065270D03*
D19*
X163845390Y-99065270D03*
%TD*%
D18*
%TO.C,C10*%
X106695390Y-86365270D03*
D19*
X106695390Y-83825270D03*
%TD*%
D18*
%TO.C,C11*%
X106695390Y-99065270D03*
D19*
X106695390Y-96525270D03*
%TD*%
D20*
%TO.C,J1*%
X92775390Y-117220270D03*
X95575390Y-114420270D03*
D21*
X99075390Y-120020270D03*
%TD*%
D20*
%TO.C,J2*%
X142305390Y-117220270D03*
X145105390Y-114420270D03*
D21*
X148605390Y-120020270D03*
%TD*%
D22*
%TO.C,J3*%
X149875390Y-88910270D03*
X149875390Y-100340270D03*
D23*
X158765390Y-99065270D03*
X156225390Y-97795270D03*
X158765390Y-96525270D03*
X156225390Y-95255270D03*
X158765390Y-93985270D03*
X156225390Y-92715270D03*
X158765390Y-91445270D03*
D24*
X156225390Y-90175270D03*
%TD*%
D22*
%TO.C,J4*%
X82565390Y-88910270D03*
X82565390Y-100340270D03*
D23*
X91455390Y-99065270D03*
X88915390Y-97795270D03*
X91455390Y-96525270D03*
X88915390Y-95255270D03*
X91455390Y-93985270D03*
X88915390Y-92715270D03*
X91455390Y-91445270D03*
D24*
X88915390Y-90175270D03*
%TD*%
D25*
%TO.C,MH2*%
X187960000Y-121920000D03*
%TD*%
%TO.C,MH3*%
X187960000Y-81280000D03*
%TD*%
%TO.C,MH4*%
X81280000Y-81280000D03*
%TD*%
D26*
%TO.C,MH1*%
X84836000Y-118364000D03*
X84836000Y-121920000D03*
X84836000Y-125476000D03*
X81280000Y-125476000D03*
X77724000Y-125476000D03*
X77724000Y-121920000D03*
X77724000Y-118364000D03*
X81280000Y-118364000D03*
D27*
X81280000Y-121920000D03*
%TD*%
D28*
%TO.C,R1*%
X189245390Y-104145270D03*
D29*
X189245390Y-114305270D03*
%TD*%
D28*
%TO.C,R3*%
X166385390Y-113035270D03*
D29*
X176545390Y-113035270D03*
%TD*%
D30*
%TO.C,R4*%
X104155390Y-106685270D03*
D31*
X101615390Y-106685270D03*
%TD*%
D32*
%TO.C,U2*%
X129765390Y-121925270D03*
D33*
X129765390Y-119385270D03*
X129765390Y-116845270D03*
X129765390Y-114305270D03*
X129765390Y-111765270D03*
X129765390Y-109225270D03*
X129765390Y-106685270D03*
X129765390Y-104145270D03*
X129765390Y-101605270D03*
X129765390Y-99065270D03*
X129765390Y-96525270D03*
X129765390Y-93985270D03*
X114105390Y-93985270D03*
X114105390Y-96525270D03*
X114105390Y-99065270D03*
X114105390Y-101605270D03*
X114105390Y-104145270D03*
X114105390Y-106685270D03*
X114105390Y-109225270D03*
X114105390Y-111765270D03*
X114105390Y-114305270D03*
X114105390Y-116845270D03*
X114105390Y-119385270D03*
X114105390Y-121925270D03*
X117446390Y-110622270D03*
X117446390Y-113162270D03*
X117446390Y-100157470D03*
X117446390Y-102697470D03*
%TD*%
M02*
